<svg width="901" height="649" viewBox="0 0 901 649" fill="none" xmlns="http://www.w3.org/2000/svg">
<g clip-path="url(#clip0_3110_11879)">
<rect width="900" height="648" transform="translate(0.666992 0.125977)" fill="#EDEDED"/>
<rect width="781" height="314" transform="translate(155.667 169.501)" fill="#DFDBD8"/>
<path fill-rule="evenodd" clip-rule="evenodd" d="M222.385 282.743H298.888V413.568H222.385V282.743Z" fill="#F5F5F5" stroke="#555555" stroke-width="0.531722"/>
<path d="M229.628 289.993H291.645V406.333H229.628V289.993Z" fill="#B5DADA" stroke="#555555" stroke-width="0.452682"/>
<rect x="220.574" y="413.11" width="79.2194" height="1.81073" fill="#555555"/>
<g opacity="0.3">
<path d="M220.574 414.921H299.794L295.827 420.353H216.5L220.574 414.921Z" fill="#A0A0A0"/>
<path d="M216.5 420.353L220.574 414.921V413.11L216.5 418.543V420.353Z" fill="#A0A0A0"/>
</g>
<path fill-rule="evenodd" clip-rule="evenodd" d="M552.584 282.743H629.087V413.568H552.584V282.743Z" fill="#F5F5F5" stroke="#555555" stroke-width="0.531722"/>
<path d="M559.827 289.993H621.845V406.333H559.827V289.993Z" fill="#B5DADA" stroke="#555555" stroke-width="0.452682"/>
<rect x="550.772" y="413.11" width="79.2194" height="1.81073" fill="#555555"/>
<g opacity="0.3">
<path d="M550.772 414.921H629.992L626.025 420.353H546.698L550.772 414.921Z" fill="#A0A0A0"/>
<path d="M546.698 420.353L550.772 414.921V413.11L546.698 418.543V420.353Z" fill="#A0A0A0"/>
</g>
<path fill-rule="evenodd" clip-rule="evenodd" d="M701.781 282.743H778.285V413.568H701.781V282.743Z" fill="#F5F5F5" stroke="#555555" stroke-width="0.531722"/>
<path d="M709.024 289.993H771.042V406.333H709.024V289.993Z" fill="#B5DADA" stroke="#555555" stroke-width="0.452682"/>
<rect x="699.971" y="413.11" width="79.2194" height="1.81073" fill="#555555"/>
<g opacity="0.3">
<path d="M699.971 414.921H779.19L775.224 420.353H695.896L699.971 414.921Z" fill="#A0A0A0"/>
<path d="M695.896 420.353L699.971 414.921V413.11L695.896 418.543V420.353Z" fill="#A0A0A0"/>
</g>
<path fill-rule="evenodd" clip-rule="evenodd" d="M850.552 282.743H927.055V413.568H850.552V282.743Z" fill="#F5F5F5" stroke="#555555" stroke-width="0.531722"/>
<path d="M857.795 289.993H919.812V406.333H857.795V289.993Z" fill="#B5DADA" stroke="#555555" stroke-width="0.452682"/>
<rect x="848.741" y="413.11" width="79.2194" height="1.81073" fill="#555555"/>
<g opacity="0.3">
<path d="M848.741 414.921H927.961L923.994 420.353H844.667L848.741 414.921Z" fill="#A0A0A0"/>
<path d="M844.667 420.353L848.741 414.921V413.11L844.667 418.543V420.353Z" fill="#A0A0A0"/>
</g>
<rect x="155.667" y="445.501" width="850" height="38" fill="#888585"/>
<rect x="155.667" y="169.501" width="850" height="7" fill="#888585"/>
<rect width="108.471" height="200.991" transform="translate(372.077 282.759)" fill="#F5F5F5"/>
<path d="M414.591 322.957H467.987V475.154H414.591V322.957Z" fill="#B5DADA"/>
<path d="M398.63 322.957H384.989V475.685H398.63V322.957Z" fill="#B5DADA"/>
<path d="M384.825 289.995V306.891H467.633V289.995H384.825Z" fill="#B5DADA"/>
<path d="M406.625 483.523H476.029V314.917M406.625 483.523H376.613V314.917M406.625 483.523V314.917M406.625 314.917H376.613M406.625 314.917H476.029M376.613 314.917V282.985M476.029 314.917V282.985M372.343 282.985H480.282V483.523H372.343V282.985ZM414.591 322.957H467.987V475.154H414.591V322.957ZM398.63 322.957H384.989V475.685H398.63V322.957ZM384.825 306.891V289.995H467.633V306.891H384.825Z" stroke="#555555" stroke-width="0.531722"/>
<path d="M443.799 338.439H438.955C433.605 338.439 429.268 342.776 429.268 348.127V352.97C429.268 358.321 433.605 362.658 438.955 362.658H443.799C449.15 362.658 453.487 358.321 453.487 352.97V348.127C453.487 342.776 449.15 338.439 443.799 338.439Z" stroke="#555555" stroke-width="0.620628" stroke-miterlimit="10"/>
<path d="M435.404 344.354V348.896H434.581V345.155H434.555L433.492 345.833V345.079L434.621 344.354H435.404Z" fill="#FF00CC"/>
<path d="M438.642 348.982C438.277 348.982 437.964 348.89 437.703 348.704C437.442 348.519 437.242 348.25 437.102 347.899C436.962 347.548 436.893 347.125 436.893 346.629C436.894 346.134 436.965 345.712 437.104 345.364C437.244 345.016 437.445 344.75 437.705 344.567C437.966 344.383 438.279 344.292 438.642 344.292C439.006 344.292 439.319 344.383 439.581 344.567C439.842 344.75 440.043 345.017 440.183 345.365C440.323 345.714 440.392 346.136 440.392 346.629C440.392 347.123 440.322 347.55 440.183 347.901C440.043 348.253 439.843 348.521 439.582 348.706C439.321 348.89 439.008 348.983 438.642 348.983V348.982ZM438.642 348.288C438.926 348.288 439.151 348.148 439.316 347.868C439.48 347.588 439.563 347.175 439.563 346.629C439.563 346.269 439.525 345.965 439.45 345.72C439.374 345.475 439.268 345.289 439.13 345.164C438.993 345.039 438.83 344.977 438.642 344.977C438.36 344.977 438.137 345.117 437.973 345.397C437.808 345.678 437.726 346.088 437.724 346.629C437.723 346.992 437.759 347.296 437.834 347.543C437.908 347.79 438.015 347.976 438.152 348.101C438.29 348.226 438.453 348.288 438.642 348.288Z" fill="#FF00CC"/>
<path d="M441.411 346.1C441.276 346.1 441.161 346.053 441.065 345.957C440.969 345.862 440.921 345.747 440.923 345.612C440.921 345.479 440.969 345.365 441.065 345.27C441.161 345.174 441.276 345.127 441.411 345.127C441.545 345.127 441.654 345.174 441.751 345.27C441.848 345.365 441.897 345.479 441.899 345.612C441.897 345.701 441.874 345.782 441.829 345.856C441.784 345.93 441.724 345.989 441.651 346.034C441.578 346.078 441.498 346.1 441.411 346.1ZM441.411 348.351C441.276 348.351 441.161 348.304 441.065 348.208C440.969 348.113 440.921 347.998 440.923 347.864C440.921 347.731 440.969 347.617 441.065 347.522C441.161 347.427 441.276 347.38 441.411 347.38C441.545 347.38 441.654 347.427 441.751 347.522C441.848 347.617 441.897 347.73 441.899 347.864C441.897 347.954 441.874 348.036 441.829 348.11C441.784 348.184 441.724 348.242 441.651 348.286C441.578 348.33 441.498 348.351 441.411 348.351Z" fill="#FF00CC"/>
<path d="M444.178 348.982C443.812 348.982 443.499 348.89 443.238 348.704C442.977 348.519 442.777 348.25 442.637 347.899C442.497 347.548 442.428 347.125 442.428 346.629C442.429 346.134 442.5 345.712 442.64 345.364C442.779 345.016 442.98 344.75 443.24 344.567C443.502 344.383 443.814 344.292 444.178 344.292C444.541 344.292 444.854 344.383 445.116 344.567C445.377 344.75 445.578 345.017 445.718 345.365C445.858 345.714 445.927 346.136 445.927 346.629C445.927 347.123 445.858 347.55 445.718 347.901C445.578 348.253 445.378 348.521 445.117 348.706C444.856 348.89 444.543 348.983 444.178 348.983V348.982ZM444.178 348.288C444.462 348.288 444.686 348.148 444.851 347.868C445.016 347.588 445.098 347.175 445.098 346.629C445.098 346.269 445.06 345.965 444.985 345.72C444.91 345.475 444.803 345.289 444.666 345.164C444.528 345.039 444.366 344.977 444.178 344.977C443.895 344.977 443.672 345.117 443.508 345.397C443.344 345.678 443.261 346.088 443.259 346.629C443.258 346.992 443.294 347.296 443.369 347.543C443.444 347.79 443.55 347.976 443.688 348.101C443.825 348.226 443.988 348.288 444.178 348.288Z" fill="#FF00CC"/>
<path d="M448.06 348.982C447.695 348.982 447.382 348.89 447.121 348.704C446.86 348.519 446.66 348.25 446.52 347.899C446.38 347.548 446.311 347.125 446.311 346.629C446.312 346.134 446.383 345.712 446.522 345.364C446.662 345.016 446.862 344.75 447.123 344.567C447.384 344.383 447.697 344.292 448.06 344.292C448.424 344.292 448.737 344.383 448.999 344.567C449.26 344.75 449.461 345.017 449.601 345.365C449.741 345.714 449.81 346.136 449.81 346.629C449.81 347.123 449.74 347.55 449.601 347.901C449.461 348.253 449.261 348.521 449 348.706C448.739 348.89 448.426 348.983 448.06 348.983V348.982ZM448.06 348.288C448.344 348.288 448.568 348.148 448.734 347.868C448.898 347.588 448.981 347.175 448.981 346.629C448.981 346.269 448.943 345.965 448.868 345.72C448.792 345.475 448.686 345.289 448.548 345.164C448.411 345.039 448.248 344.977 448.06 344.977C447.778 344.977 447.555 345.117 447.391 345.397C447.226 345.678 447.144 346.088 447.142 346.629C447.141 346.992 447.177 347.296 447.252 347.543C447.326 347.79 447.433 347.976 447.57 348.101C447.708 348.226 447.871 348.288 448.06 348.288Z" fill="#FF00CC"/>
<path d="M433.277 354.5V353.906L434.854 352.36C435.005 352.208 435.131 352.072 435.232 351.954C435.332 351.836 435.407 351.721 435.458 351.61C435.508 351.499 435.533 351.381 435.533 351.255C435.533 351.112 435.5 350.989 435.435 350.886C435.37 350.783 435.281 350.704 435.167 350.647C435.053 350.591 434.924 350.563 434.779 350.563C434.634 350.563 434.499 350.594 434.386 350.655C434.274 350.717 434.187 350.803 434.126 350.916C434.065 351.028 434.034 351.162 434.034 351.317H433.251C433.251 351.029 433.317 350.778 433.448 350.565C433.58 350.352 433.761 350.188 433.993 350.071C434.224 349.954 434.49 349.896 434.79 349.896C435.09 349.896 435.362 349.953 435.593 350.066C435.824 350.18 436.003 350.336 436.131 350.534C436.259 350.733 436.323 350.959 436.323 351.213C436.323 351.383 436.29 351.55 436.225 351.714C436.16 351.878 436.046 352.06 435.882 352.26C435.719 352.46 435.49 352.701 435.196 352.985L434.413 353.781V353.812H436.392V354.5H433.278L433.277 354.5Z" fill="#FF00CC"/>
<path d="M437.236 354.5V353.906L438.813 352.36C438.964 352.208 439.09 352.072 439.191 351.954C439.291 351.836 439.366 351.721 439.417 351.61C439.467 351.499 439.492 351.381 439.492 351.255C439.492 351.112 439.459 350.989 439.394 350.886C439.329 350.783 439.24 350.704 439.126 350.647C439.012 350.591 438.883 350.563 438.738 350.563C438.593 350.563 438.458 350.594 438.345 350.655C438.233 350.717 438.146 350.803 438.085 350.916C438.024 351.028 437.993 351.162 437.993 351.317H437.21C437.21 351.029 437.276 350.778 437.407 350.565C437.539 350.352 437.72 350.188 437.952 350.071C438.183 349.954 438.449 349.896 438.749 349.896C439.049 349.896 439.321 349.953 439.552 350.066C439.783 350.18 439.962 350.336 440.09 350.534C440.218 350.733 440.282 350.959 440.282 351.213C440.282 351.383 440.249 351.55 440.184 351.714C440.119 351.878 440.005 352.06 439.841 352.26C439.678 352.46 439.449 352.701 439.155 352.985L438.372 353.781V353.812H440.351V354.5H437.237L437.236 354.5Z" fill="#FF00CC"/>
<path d="M441.411 351.702C441.276 351.702 441.161 351.655 441.065 351.559C440.969 351.464 440.921 351.349 440.923 351.214C440.921 351.081 440.969 350.967 441.065 350.872C441.161 350.776 441.276 350.729 441.411 350.729C441.545 350.729 441.654 350.776 441.751 350.872C441.848 350.967 441.897 351.081 441.899 351.214C441.897 351.303 441.874 351.384 441.829 351.458C441.784 351.532 441.724 351.591 441.651 351.636C441.578 351.68 441.498 351.702 441.411 351.702V351.702ZM441.411 353.953C441.276 353.953 441.161 353.906 441.065 353.81C440.969 353.715 440.921 353.6 440.923 353.465C440.921 353.332 440.969 353.218 441.065 353.124C441.161 353.029 441.276 352.982 441.411 352.982C441.545 352.982 441.654 353.029 441.751 353.124C441.848 353.218 441.897 353.332 441.899 353.465C441.897 353.556 441.874 353.638 441.829 353.712C441.784 353.785 441.724 353.844 441.651 353.888C441.578 353.931 441.498 353.953 441.411 353.953V353.953Z" fill="#FF00CC"/>
<path d="M444.211 354.586C443.846 354.586 443.532 354.493 443.271 354.308C443.01 354.123 442.81 353.854 442.67 353.503C442.531 353.152 442.461 352.729 442.461 352.233C442.462 351.738 442.533 351.316 442.673 350.968C442.813 350.62 443.013 350.354 443.274 350.171C443.535 349.987 443.847 349.896 444.211 349.896C444.574 349.896 444.887 349.987 445.149 350.171C445.411 350.354 445.612 350.62 445.751 350.969C445.891 351.318 445.961 351.739 445.961 352.233C445.961 352.727 445.891 353.154 445.751 353.505C445.611 353.856 445.411 354.125 445.15 354.309C444.889 354.494 444.576 354.586 444.211 354.586ZM444.211 353.892C444.495 353.892 444.719 353.752 444.884 353.472C445.049 353.191 445.131 352.778 445.131 352.233C445.131 351.872 445.093 351.569 445.018 351.324C444.943 351.079 444.836 350.893 444.699 350.768C444.561 350.643 444.399 350.581 444.211 350.581C443.928 350.581 443.705 350.721 443.541 351.001C443.377 351.281 443.294 351.692 443.293 352.233C443.291 352.595 443.328 352.9 443.402 353.147C443.477 353.394 443.583 353.58 443.721 353.705C443.858 353.83 444.022 353.892 444.211 353.892Z" fill="#FF00CC"/>
<path d="M448.095 354.586C447.729 354.586 447.416 354.493 447.155 354.308C446.894 354.123 446.694 353.854 446.554 353.503C446.414 353.152 446.345 352.729 446.345 352.233C446.346 351.738 446.417 351.316 446.557 350.968C446.696 350.62 446.897 350.354 447.157 350.171C447.419 349.987 447.731 349.896 448.095 349.896C448.458 349.896 448.771 349.987 449.033 350.171C449.294 350.354 449.495 350.62 449.635 350.969C449.775 351.318 449.844 351.739 449.844 352.233C449.844 352.727 449.774 353.154 449.635 353.505C449.495 353.856 449.295 354.125 449.034 354.309C448.773 354.494 448.46 354.586 448.095 354.586ZM448.095 353.892C448.379 353.892 448.603 353.752 448.768 353.472C448.933 353.191 449.015 352.778 449.015 352.233C449.015 351.872 448.977 351.569 448.902 351.324C448.826 351.079 448.72 350.893 448.583 350.768C448.445 350.643 448.283 350.581 448.095 350.581C447.812 350.581 447.589 350.721 447.425 351.001C447.261 351.281 447.178 351.692 447.176 352.233C447.175 352.595 447.211 352.9 447.286 353.147C447.361 353.394 447.467 353.58 447.605 353.705C447.742 353.83 447.905 353.892 448.095 353.892Z" fill="#FF00CC"/>
<path d="M436.502 348.207H433.492V348.895H436.502V348.207Z" fill="#FF00CC"/>
<path d="M435.75 358.545C435.629 358.545 435.524 358.519 435.437 358.467C435.349 358.415 435.282 358.341 435.235 358.246C435.188 358.152 435.164 358.04 435.164 357.913C435.164 357.785 435.188 357.675 435.235 357.579C435.282 357.483 435.348 357.408 435.433 357.354C435.519 357.3 435.618 357.273 435.733 357.273C435.802 357.273 435.869 357.285 435.935 357.308C436 357.331 436.058 357.367 436.11 357.416C436.162 357.465 436.203 357.529 436.233 357.607C436.263 357.685 436.278 357.78 436.278 357.892V357.976H435.299V357.797H436.043C436.043 357.734 436.03 357.678 436.005 357.629C435.979 357.58 435.943 357.542 435.897 357.513C435.851 357.485 435.797 357.471 435.735 357.471C435.667 357.471 435.609 357.487 435.559 357.52C435.509 357.553 435.47 357.596 435.443 357.648C435.416 357.701 435.403 357.758 435.403 357.819V357.96C435.403 358.042 435.417 358.112 435.446 358.17C435.476 358.227 435.516 358.271 435.568 358.301C435.621 358.332 435.682 358.347 435.752 358.347C435.797 358.347 435.839 358.34 435.876 358.327C435.913 358.314 435.946 358.294 435.973 358.268C436 358.242 436.021 358.21 436.035 358.171L436.262 358.212C436.244 358.279 436.211 358.338 436.165 358.387C436.118 358.437 436.059 358.476 435.989 358.503C435.919 358.531 435.839 358.545 435.749 358.545L435.75 358.545Z" fill="#FF00CC"/>
<path d="M436.461 358.523L436.937 357.893L436.466 357.292H436.745L437.126 357.803H437.211V357.292H437.451V357.803H437.534L437.915 357.292H438.194L437.725 357.893L438.199 358.523H437.915L437.531 358.01H437.451V358.523H437.211V358.01H437.131L436.745 358.523H436.46H436.461Z" fill="#FF00CC"/>
<path d="M438.946 358.545C438.825 358.545 438.721 358.519 438.633 358.467C438.546 358.415 438.478 358.341 438.431 358.246C438.384 358.152 438.36 358.04 438.36 357.913C438.36 357.785 438.384 357.675 438.431 357.579C438.478 357.483 438.545 357.408 438.63 357.354C438.715 357.3 438.815 357.273 438.929 357.273C438.998 357.273 439.066 357.285 439.131 357.308C439.196 357.331 439.254 357.367 439.306 357.416C439.358 357.465 439.399 357.529 439.429 357.607C439.459 357.685 439.474 357.78 439.474 357.892V357.976H438.496V357.797H439.239C439.239 357.734 439.226 357.678 439.201 357.629C439.175 357.58 439.139 357.542 439.093 357.513C439.047 357.485 438.993 357.471 438.931 357.471C438.864 357.471 438.805 357.487 438.755 357.52C438.705 357.553 438.667 357.596 438.639 357.648C438.612 357.701 438.599 357.758 438.599 357.819V357.96C438.599 358.042 438.614 358.112 438.643 358.17C438.672 358.227 438.713 358.271 438.765 358.301C438.817 358.332 438.878 358.347 438.948 358.347C438.993 358.347 439.035 358.34 439.072 358.327C439.109 358.314 439.142 358.294 439.169 358.268C439.196 358.242 439.217 358.21 439.232 358.171L439.458 358.212C439.44 358.279 439.408 358.338 439.361 358.387C439.314 358.437 439.256 358.476 439.185 358.503C439.115 358.531 439.035 358.545 438.946 358.545L438.946 358.545Z" fill="#FF00CC"/>
<path d="M439.644 358.878V358.315H439.744C439.769 358.292 439.791 358.263 439.809 358.231C439.827 358.198 439.842 358.159 439.855 358.115C439.867 358.07 439.878 358.017 439.886 357.957C439.895 357.897 439.902 357.828 439.909 357.751L439.947 357.292H440.784V358.315H440.973V358.878H440.739V358.523H439.881V358.878H439.644ZM440 358.315H440.55V357.497H440.162L440.136 357.751C440.124 357.88 440.108 357.992 440.09 358.087C440.071 358.182 440.041 358.258 440 358.315V358.315Z" fill="#FF00CC"/>
<path d="M441.464 357.292V358.523H441.229V357.292H441.464ZM442.063 357.804V358.012H441.397V357.804H442.063ZM442.231 357.292V358.523H441.997V357.292H442.231Z" fill="#FF00CC"/>
<path d="M443.102 358.545C442.981 358.545 442.877 358.519 442.789 358.467C442.702 358.415 442.635 358.341 442.587 358.246C442.54 358.152 442.517 358.04 442.517 357.913C442.517 357.785 442.54 357.675 442.587 357.579C442.635 357.483 442.701 357.408 442.786 357.354C442.871 357.3 442.971 357.273 443.085 357.273C443.155 357.273 443.222 357.285 443.287 357.308C443.352 357.331 443.411 357.367 443.463 357.416C443.514 357.465 443.555 357.529 443.585 357.607C443.615 357.685 443.63 357.78 443.63 357.892V357.976H442.652V357.797H443.396C443.396 357.734 443.383 357.678 443.357 357.629C443.332 357.58 443.296 357.542 443.249 357.513C443.203 357.485 443.149 357.471 443.087 357.471C443.02 357.471 442.961 357.487 442.911 357.52C442.861 357.553 442.823 357.596 442.796 357.648C442.769 357.701 442.755 357.758 442.755 357.819V357.96C442.755 358.042 442.77 358.112 442.799 358.17C442.828 358.227 442.869 358.271 442.921 358.301C442.973 358.332 443.034 358.347 443.104 358.347C443.15 358.347 443.191 358.34 443.228 358.327C443.266 358.314 443.298 358.294 443.325 358.268C443.353 358.242 443.373 358.21 443.388 358.171L443.614 358.212C443.596 358.279 443.564 358.338 443.517 358.387C443.47 358.437 443.412 358.476 443.342 358.503C443.271 358.531 443.191 358.545 443.102 358.545L443.102 358.545Z" fill="#FF00CC"/>
<path d="M443.92 358.523V357.292H444.43C444.569 357.292 444.679 357.322 444.76 357.381C444.842 357.44 444.882 357.52 444.882 357.62C444.882 357.693 444.859 357.75 444.813 357.792C444.768 357.834 444.707 357.862 444.631 357.877C444.686 357.883 444.736 357.9 444.782 357.926C444.828 357.952 444.865 357.988 444.893 358.032C444.921 358.076 444.935 358.129 444.935 358.191C444.935 358.256 444.918 358.313 444.885 358.364C444.851 358.413 444.802 358.452 444.739 358.48C444.675 358.509 444.598 358.523 444.508 358.523H443.92L443.92 358.523ZM444.145 357.805H444.433C444.478 357.805 444.516 357.799 444.549 357.786C444.581 357.773 444.606 357.755 444.623 357.731C444.641 357.707 444.649 357.679 444.649 357.646C444.649 357.599 444.63 357.562 444.591 357.535C444.552 357.508 444.498 357.495 444.431 357.495H444.145V357.805L444.145 357.805ZM444.145 358.323H444.508C444.568 358.323 444.614 358.308 444.648 358.28C444.681 358.252 444.698 358.213 444.698 358.165C444.698 358.108 444.681 358.063 444.648 358.03C444.614 357.997 444.567 357.98 444.508 357.98H444.145V358.323Z" fill="#FF00CC"/>
<path d="M445.454 357.292V358.523H445.22V357.292H445.454ZM446.054 357.804V358.012H445.387V357.804H446.054ZM446.221 357.292V358.523H445.987V357.292H446.221Z" fill="#FF00CC"/>
<path d="M447.083 358.545C446.967 358.545 446.866 358.518 446.78 358.465C446.694 358.413 446.628 358.338 446.58 358.244C446.533 358.148 446.509 358.037 446.509 357.91C446.509 357.783 446.533 357.671 446.58 357.575C446.628 357.48 446.694 357.405 446.78 357.353C446.866 357.3 446.967 357.273 447.083 357.273C447.198 357.273 447.299 357.3 447.385 357.353C447.471 357.406 447.537 357.48 447.585 357.575C447.632 357.671 447.656 357.782 447.656 357.91C447.656 358.038 447.632 358.148 447.585 358.244C447.537 358.339 447.471 358.413 447.385 358.465C447.299 358.518 447.198 358.545 447.083 358.545ZM447.083 358.344C447.158 358.344 447.22 358.324 447.269 358.284C447.318 358.245 447.355 358.192 447.379 358.126C447.403 358.061 447.414 357.988 447.414 357.909C447.414 357.83 447.402 357.758 447.379 357.692C447.355 357.627 447.319 357.574 447.269 357.533C447.22 357.493 447.158 357.473 447.083 357.473C447.009 357.473 446.946 357.493 446.896 357.533C446.847 357.574 446.81 357.627 446.786 357.692C446.763 357.758 446.751 357.831 446.751 357.909C446.751 357.988 446.763 358.06 446.786 358.126C446.81 358.192 446.847 358.245 446.896 358.284C446.946 358.324 447.008 358.344 447.083 358.344Z" fill="#FF00CC"/>
<rect x="421.291" y="399.631" width="11.0309" height="5.33755" rx="2.66878" fill="#FF00CC"/>
<path d="M430.277 402.884V401.991H430.063C430.005 401.991 429.961 402.004 429.93 402.031C429.9 402.058 429.885 402.089 429.886 402.126C429.885 402.163 429.9 402.195 429.929 402.22C429.959 402.246 430.002 402.258 430.06 402.258H430.382V402.472H430.06C429.962 402.472 429.878 402.457 429.806 402.428C429.735 402.398 429.68 402.357 429.642 402.304C429.603 402.25 429.584 402.188 429.584 402.117C429.584 402.043 429.603 401.978 429.642 401.922C429.68 401.865 429.735 401.822 429.807 401.79C429.879 401.759 429.965 401.743 430.063 401.743H430.571V402.884H430.277ZM429.552 402.884L429.869 402.289H430.171L429.855 402.884H429.552Z" fill="white"/>
<path d="M429.273 401.324L429.369 401.53C429.337 401.557 429.302 401.577 429.262 401.59C429.223 401.602 429.177 401.61 429.122 401.614C429.068 401.618 429.002 401.621 428.925 401.622C428.836 401.623 428.765 401.638 428.709 401.665C428.654 401.692 428.612 401.735 428.583 401.793C428.554 401.851 428.535 401.927 428.527 402.021H428.538C428.572 401.951 428.62 401.897 428.682 401.859C428.744 401.821 428.821 401.801 428.913 401.801C429.01 401.801 429.095 401.823 429.167 401.865C429.241 401.908 429.298 401.969 429.338 402.049C429.379 402.128 429.399 402.224 429.399 402.335C429.399 402.451 429.376 402.552 429.331 402.638C429.286 402.723 429.222 402.789 429.138 402.836C429.055 402.882 428.956 402.906 428.841 402.906C428.726 402.906 428.627 402.881 428.543 402.833C428.46 402.784 428.395 402.713 428.35 402.618C428.305 402.524 428.282 402.407 428.282 402.269V402.176C428.282 401.901 428.336 401.697 428.443 401.565C428.55 401.432 428.707 401.365 428.914 401.363C428.971 401.362 429.022 401.361 429.067 401.362C429.113 401.362 429.153 401.36 429.187 401.355C429.221 401.35 429.25 401.34 429.273 401.324ZM428.843 402.661C428.891 402.661 428.933 402.648 428.968 402.623C429.003 402.598 429.03 402.561 429.049 402.514C429.068 402.467 429.078 402.411 429.078 402.346C429.078 402.281 429.068 402.226 429.049 402.181C429.03 402.135 429.003 402.101 428.968 402.077C428.932 402.053 428.89 402.041 428.841 402.041C428.805 402.041 428.772 402.048 428.743 402.061C428.713 402.075 428.688 402.095 428.668 402.121C428.647 402.147 428.631 402.178 428.62 402.217C428.609 402.254 428.604 402.297 428.604 402.346C428.604 402.443 428.625 402.52 428.667 402.577C428.709 402.633 428.768 402.661 428.843 402.661Z" fill="white"/>
<path d="M427.594 402.906C427.477 402.906 427.376 402.882 427.291 402.834C427.207 402.786 427.142 402.719 427.097 402.631C427.051 402.543 427.028 402.439 427.028 402.318C427.028 402.201 427.051 402.098 427.097 402.009C427.142 401.921 427.206 401.852 427.289 401.802C427.372 401.753 427.47 401.728 427.582 401.728C427.657 401.728 427.727 401.74 427.792 401.764C427.857 401.788 427.914 401.824 427.963 401.872C428.012 401.92 428.05 401.981 428.077 402.053C428.104 402.126 428.118 402.21 428.118 402.307V402.394H427.155V402.198H427.82C427.82 402.153 427.81 402.112 427.79 402.077C427.77 402.042 427.743 402.014 427.708 401.995C427.673 401.974 427.633 401.964 427.587 401.964C427.539 401.964 427.496 401.975 427.459 401.998C427.422 402.019 427.394 402.049 427.373 402.086C427.352 402.123 427.341 402.163 427.341 402.208V402.395C427.341 402.451 427.351 402.5 427.372 402.541C427.393 402.582 427.423 402.614 427.462 402.636C427.501 402.658 427.546 402.67 427.599 402.67C427.635 402.67 427.667 402.665 427.696 402.655C427.725 402.645 427.75 402.63 427.771 402.61C427.792 402.59 427.808 402.566 427.818 402.537L428.111 402.557C428.096 402.627 428.066 402.688 428.02 402.741C427.974 402.793 427.915 402.834 427.843 402.863C427.771 402.891 427.688 402.906 427.594 402.906Z" fill="white"/>
<path d="M426.362 402.906C426.245 402.906 426.145 402.881 426.061 402.832C425.977 402.782 425.913 402.712 425.868 402.624C425.823 402.535 425.801 402.433 425.801 402.318C425.801 402.201 425.823 402.098 425.868 402.01C425.914 401.922 425.979 401.853 426.062 401.803C426.146 401.753 426.245 401.728 426.361 401.728C426.46 401.728 426.547 401.746 426.622 401.782C426.697 401.818 426.756 401.869 426.8 401.934C426.843 402 426.867 402.077 426.872 402.165H426.573C426.565 402.108 426.542 402.062 426.506 402.027C426.471 401.992 426.424 401.975 426.366 401.975C426.317 401.975 426.274 401.988 426.237 402.015C426.201 402.041 426.173 402.079 426.153 402.13C426.132 402.18 426.122 402.241 426.122 402.313C426.122 402.386 426.132 402.448 426.152 402.499C426.172 402.55 426.201 402.589 426.237 402.615C426.274 402.642 426.317 402.656 426.366 402.656C426.402 402.656 426.434 402.648 426.463 402.633C426.492 402.618 426.516 402.597 426.535 402.569C426.555 402.54 426.567 402.506 426.573 402.465H426.872C426.867 402.553 426.843 402.629 426.8 402.696C426.758 402.761 426.7 402.813 426.626 402.85C426.552 402.887 426.464 402.906 426.362 402.906Z" fill="white"/>
<path d="M424.474 402.905C424.402 402.905 424.337 402.892 424.28 402.867C424.223 402.841 424.178 402.804 424.145 402.754C424.112 402.703 424.096 402.64 424.096 402.565C424.096 402.502 424.107 402.448 424.131 402.405C424.154 402.362 424.186 402.328 424.226 402.301C424.266 402.275 424.311 402.255 424.362 402.242C424.414 402.229 424.468 402.219 424.524 402.214C424.591 402.207 424.644 402.2 424.685 402.194C424.725 402.188 424.755 402.179 424.773 402.166C424.791 402.154 424.8 402.135 424.8 402.111V402.107C424.8 402.06 424.786 402.023 424.756 401.998C424.727 401.972 424.685 401.959 424.631 401.959C424.574 401.959 424.529 401.972 424.495 401.997C424.462 402.022 424.439 402.053 424.428 402.09L424.136 402.067C424.151 401.997 424.18 401.937 424.223 401.887C424.267 401.836 424.323 401.797 424.392 401.77C424.461 401.742 424.542 401.728 424.633 401.728C424.696 401.728 424.757 401.735 424.815 401.75C424.873 401.765 424.925 401.788 424.97 401.819C425.015 401.851 425.051 401.891 425.077 401.94C425.104 401.988 425.117 402.046 425.117 402.114V402.884H424.817V402.725H424.808C424.79 402.761 424.765 402.792 424.734 402.82C424.704 402.846 424.667 402.867 424.624 402.883C424.581 402.898 424.531 402.905 424.474 402.905ZM424.565 402.687C424.612 402.687 424.653 402.678 424.688 402.659C424.724 402.64 424.752 402.615 424.772 402.583C424.793 402.552 424.803 402.516 424.803 402.476V402.355C424.793 402.361 424.779 402.367 424.762 402.373C424.745 402.378 424.726 402.382 424.705 402.387C424.683 402.391 424.662 402.394 424.641 402.398C424.619 402.401 424.6 402.404 424.583 402.406C424.546 402.411 424.513 402.42 424.486 402.432C424.458 402.444 424.436 402.46 424.421 402.48C424.406 402.5 424.398 402.525 424.398 402.555C424.398 402.598 424.414 402.631 424.445 402.653C424.476 402.676 424.517 402.687 424.565 402.687Z" fill="white"/>
<path d="M423.706 402.187V402.436H423.11V402.187H423.706ZM423.214 401.743V402.884H422.912V401.743H423.214ZM423.904 401.743V402.884H423.604V401.743H423.904Z" fill="white"/>
<circle cx="410.391" cy="410.674" r="2.39275" fill="#F5F5F5" stroke="#555555" stroke-width="0.531722"/>
<path d="M471.243 346.565C471.243 345.831 471.839 345.236 472.573 345.236H477.092V349.49H472.573C471.839 349.49 471.243 348.895 471.243 348.161V346.565Z" fill="#F5F5F5" stroke="#555555" stroke-width="0.531722"/>
<path d="M473.37 349.49H477.89C478.624 349.49 479.219 350.085 479.219 350.819V352.414C479.219 353.149 478.624 353.744 477.89 353.744H473.37V349.49Z" fill="#F5F5F5" stroke="#555555" stroke-width="0.531722"/>
<path d="M473.37 340.982H477.89C478.624 340.982 479.219 341.578 479.219 342.312V343.907C479.219 344.641 478.624 345.236 477.89 345.236H473.37V340.982Z" fill="#F5F5F5" stroke="#555555" stroke-width="0.531722"/>
<path d="M471.243 373.152C471.243 372.417 471.839 371.822 472.573 371.822H477.092V376.076H472.573C471.839 376.076 471.243 375.481 471.243 374.747V373.152Z" fill="#F5F5F5" stroke="#555555" stroke-width="0.531722"/>
<path d="M473.37 376.076H477.89C478.624 376.076 479.219 376.671 479.219 377.405V379C479.219 379.735 478.624 380.33 477.89 380.33H473.37V376.076Z" fill="#F5F5F5" stroke="#555555" stroke-width="0.531722"/>
<path d="M473.37 367.568H477.89C478.624 367.568 479.219 368.164 479.219 368.898V370.493C479.219 371.227 478.624 371.822 477.89 371.822H473.37V367.568Z" fill="#F5F5F5" stroke="#555555" stroke-width="0.531722"/>
<path d="M471.243 457.695C471.243 456.961 471.839 456.366 472.573 456.366H477.092V460.62H472.573C471.839 460.62 471.243 460.025 471.243 459.29V457.695Z" fill="#F5F5F5" stroke="#555555" stroke-width="0.531722"/>
<path d="M473.37 460.62H477.89C478.624 460.62 479.219 461.215 479.219 461.949V463.544C479.219 464.278 478.624 464.874 477.89 464.874H473.37V460.62Z" fill="#F5F5F5" stroke="#555555" stroke-width="0.531722"/>
<path d="M473.37 452.112H477.89C478.624 452.112 479.219 452.707 479.219 453.442V455.037C479.219 455.771 478.624 456.366 477.89 456.366H473.37V452.112Z" fill="#F5F5F5" stroke="#555555" stroke-width="0.531722"/>
<rect x="372.343" y="280.898" width="107.94" height="2.12689" fill="#F5F5F5" stroke="#555555" stroke-width="0.531722"/>
<path d="M419.135 446.523V448.39H411.691V446.523H419.135ZM411.691 350.826V348.958H419.135V350.826H411.691Z" fill="#F5F5F5" stroke="#555555" stroke-width="0.531722"/>
<path d="M417.539 327.157H420.198V470.191H417.539V448.39V445.997V351.085V348.692V327.157Z" fill="#F5F5F5" stroke="#555555" stroke-width="0.531722"/>
<path d="M677.286 241.713C677.286 247.737 675.725 253.567 672.879 258.171L669.064 264.343C668.102 265.9 666.685 266.798 665.193 266.798H661.898C659.531 266.798 657.612 264.179 657.612 260.949V247.732C657.612 241.54 659.262 235.56 662.253 230.904L666.034 225.02C666.995 223.523 668.383 222.665 669.841 222.665H673.001C675.367 222.665 677.286 225.284 677.286 228.514V241.713Z" fill="#D9D9D9"/>
<path d="M675.691 233.77L682.604 227.682V224.267L675.691 230.535V233.77Z" fill="#D9D9D9"/>
<path d="M682.604 231.119L675.691 236.938V240.218L682.604 234.174V231.119Z" fill="#D9D9D9"/>
<rect x="680.477" y="210.978" width="13.2931" height="36.1571" fill="#FF00CC"/>
<path d="M568.679 218.673L571.813 221.399L571.061 222.151L567.927 219.425L568.679 218.673Z" fill="#B2B2B2"/>
<path d="M552.037 212.017C558.615 212.017 563.845 214.458 568.679 218.661L567.927 219.413C563.094 215.209 557.863 212.769 551.285 212.769L552.037 212.017Z" fill="#B2B2B2"/>
<path d="M571.814 221.392L566.521 227.777L565.77 228.529L571.062 222.144L571.814 221.392Z" fill="#B2B2B2"/>
<path d="M571.062 222.306C566.275 228.081 566.391 227.941 566.521 227.785L565.769 228.537C565.698 228.622 565.733 228.58 565.769 228.537L565.769 228.537C565.953 228.315 566.852 227.23 570.31 223.058L571.062 222.306Z" fill="#B2B2B2"/>
<path d="M571.062 222.306L565.77 228.691L565.018 229.443L570.31 223.058L571.062 222.306Z" fill="#B2B2B2"/>
<path d="M565.77 228.696C566.632 229.404 567.43 230.258 568.101 231.29L567.349 232.042C566.678 231.01 565.88 230.156 565.018 229.448L565.77 228.696Z" fill="#B2B2B2"/>
<path d="M568.102 231.282C569.421 233.309 570.06 235.722 570.06 238.438L569.308 239.19C569.308 236.474 568.669 234.061 567.35 232.034L568.102 231.282Z" fill="#B2B2B2"/>
<path d="M540.47 215.062C543.896 212.884 548.146 212.017 552.037 212.017L551.285 212.769C547.394 212.769 543.144 213.635 539.718 215.814L540.47 215.062Z" fill="#B2B2B2"/>
<path d="M570.06 238.431C570.06 242.373 568.511 245.5 566.211 247.799L565.464 248.545C567.761 246.247 569.308 243.121 569.308 239.183L570.06 238.431Z" fill="#B2B2B2"/>
<path d="M537.979 217.05C538.732 216.297 539.572 215.634 540.469 215.063L539.717 215.815C538.82 216.386 537.98 217.049 537.227 217.802L537.979 217.05Z" fill="#B2B2B2"/>
<path d="M535.82 219.907C536.409 218.851 537.139 217.905 537.973 217.07L537.227 217.815C536.39 218.652 535.658 219.6 535.068 220.659L535.82 219.907Z" fill="#B2B2B2"/>
<path d="M566.212 247.806C565.409 248.607 564.516 249.308 563.565 249.908L562.813 250.66C563.764 250.06 564.658 249.359 565.46 248.558L566.212 247.806Z" fill="#B2B2B2"/>
<path d="M532.452 216.376C533.7 217.373 534.84 218.547 535.82 219.9L535.068 220.652C534.088 219.299 532.948 218.125 531.7 217.128L532.452 216.376Z" fill="#B2B2B2"/>
<path d="M520.104 212.017C523.829 212.017 528.564 213.262 532.453 216.371L531.701 217.123C527.812 214.014 523.077 212.769 519.352 212.769L520.104 212.017Z" fill="#B2B2B2"/>
<path d="M563.565 249.899C560.039 252.122 555.679 253.028 551.747 253.028L550.995 253.78C554.927 253.78 559.287 252.874 562.813 250.651L563.565 249.899Z" fill="#B2B2B2"/>
<path d="M496.169 199.657C501.688 199.657 505.939 204.362 505.939 209.551L505.187 210.303C505.187 205.114 500.936 200.409 495.417 200.409L496.169 199.657Z" fill="#B2B2B2"/>
<path d="M504.859 218.47C508.67 214.455 514.106 212.017 520.102 212.017L519.35 212.769C513.738 212.769 508.616 214.904 504.859 218.47C504.605 218.738 504.357 219.014 504.117 219.296L503.365 220.048C503.835 219.495 504.334 218.969 504.859 218.47Z" fill="#B2B2B2"/>
<path d="M551.747 253.03C545.872 253.03 539.67 250.998 535.037 246.243L534.285 246.995C538.918 251.75 545.12 253.782 550.995 253.782L551.747 253.03Z" fill="#B2B2B2"/>
<path d="M505.939 209.548C505.939 211.616 505.314 213.584 504.117 215.194L503.365 215.946C504.562 214.336 505.187 212.368 505.187 210.3L505.939 209.548Z" fill="#B2B2B2"/>
<path d="M489.292 202.513C491.041 200.764 493.455 199.657 496.169 199.657L495.417 200.409C492.703 200.409 490.289 201.516 488.54 203.265L489.292 202.513Z" fill="#B2B2B2"/>
<path d="M504.117 215.196V219.3L503.365 220.052V215.948L504.117 215.196Z" fill="#B2B2B2"/>
<path d="M486.399 209.425C486.399 206.78 487.494 204.308 489.29 202.512L488.541 203.261C486.743 205.057 485.647 207.531 485.647 210.177L486.399 209.425Z" fill="#B2B2B2"/>
<path d="M519.688 253.069C525.354 253.069 530.174 250.96 533.927 247.379C534.048 247.253 534.167 247.125 534.286 246.995L535.038 246.243C534.679 246.637 534.309 247.015 533.927 247.379C530.075 251.415 524.988 253.821 518.937 253.821L519.688 253.069Z" fill="#B2B2B2"/>
<path d="M487.77 214.39C486.905 212.989 486.399 211.314 486.399 209.431L485.647 210.183C485.647 212.065 486.153 213.741 487.018 215.142L487.77 214.39Z" fill="#B2B2B2"/>
<path d="M480.181 216.053C482.544 214.976 485.097 214.477 487.77 214.392L487.018 215.144C484.345 215.229 481.792 215.728 479.429 216.805L480.181 216.053Z" fill="#B2B2B2"/>
<path d="M480.181 214.376V216.051L479.429 216.803V215.128L480.181 214.376Z" fill="#B2B2B2"/>
<path d="M519.688 253.075C513.128 253.075 507.713 250.276 504.117 245.993L503.365 246.745C506.961 251.028 512.376 253.827 518.936 253.827L519.688 253.075Z" fill="#B2B2B2"/>
<path d="M464.332 214.394L480.181 214.376L479.429 215.128L463.58 215.146L464.332 214.394Z" fill="#B2B2B2"/>
<path d="M504.117 245.993V253.177L503.365 253.929V246.745L504.117 245.993Z" fill="#B2B2B2"/>
<path d="M488.269 230.415C486.072 230.592 484.023 231.29 482.542 232.303L481.79 233.055C483.271 232.042 485.32 231.344 487.517 231.167L488.269 230.415Z" fill="#B2B2B2"/>
<path d="M482.542 232.29C482.142 232.564 481.798 232.847 481.506 233.139L480.756 233.889C481.047 233.598 481.391 233.315 481.79 233.042L482.542 232.29Z" fill="#B2B2B2"/>
<path d="M488.269 253.181V230.415L487.517 231.167V253.933L488.269 253.181Z" fill="#B2B2B2"/>
<path d="M481.506 233.142C480.581 234.067 480.181 235.078 480.181 236.123L479.429 236.875C479.429 235.83 479.829 234.819 480.754 233.894L481.506 233.142Z" fill="#B2B2B2"/>
<path d="M456.873 216.049C459.197 214.989 461.706 214.489 464.331 214.392L463.579 215.144C460.954 215.241 458.445 215.741 456.121 216.801L456.873 216.049Z" fill="#B2B2B2"/>
<path d="M504.117 253.181H488.269L487.517 253.933H503.365L504.117 253.181Z" fill="#B2B2B2"/>
<path d="M456.873 214.376V216.051L456.121 216.803V215.128L456.873 214.376Z" fill="#B2B2B2"/>
<path d="M480.181 236.126V253.178L479.429 253.93V236.878L480.181 236.126Z" fill="#B2B2B2"/>
<path d="M441.025 214.376H456.874L456.122 215.128H440.273L441.025 214.376Z" fill="#B2B2B2"/>
<path d="M464.331 230.478C462.375 230.727 460.573 231.385 459.234 232.3L458.482 233.052C459.821 232.137 461.623 231.479 463.579 231.23L464.331 230.478Z" fill="#B2B2B2"/>
<path d="M459.235 232.29C458.835 232.564 458.491 232.847 458.199 233.139L457.449 233.889C457.741 233.598 458.084 233.315 458.483 233.042L459.235 232.29Z" fill="#B2B2B2"/>
<path d="M441.025 218.578V214.376L440.273 215.128V219.33L441.025 218.578Z" fill="#B2B2B2"/>
<path d="M458.199 233.142C457.273 234.067 456.873 235.078 456.873 236.123L456.121 236.875C456.121 235.83 456.521 234.819 457.447 233.894L458.199 233.142Z" fill="#B2B2B2"/>
<path d="M464.332 253.182V230.478L463.58 231.23V253.934L464.332 253.182Z" fill="#B2B2B2"/>
<path d="M440.35 217.829C440.582 218.074 440.806 218.325 441.024 218.582L440.272 219.334C440.055 219.077 439.83 218.826 439.598 218.581L440.35 217.829Z" fill="#B2B2B2"/>
<path d="M480.181 253.181H464.332L463.58 253.933H479.429L480.181 253.181Z" fill="#B2B2B2"/>
<path d="M426.37 212.017C431.933 212.017 436.845 214.116 440.35 217.819L439.598 218.571C436.093 214.868 431.181 212.769 425.618 212.769L426.37 212.017Z" fill="#B2B2B2"/>
<path d="M456.873 236.126V253.178L456.121 253.93V236.878L456.873 236.126Z" fill="#B2B2B2"/>
<path d="M411.368 218.234C415.235 214.369 420.637 212.017 426.37 212.017L425.618 212.769C419.885 212.769 414.483 215.121 410.616 218.986L411.368 218.234Z" fill="#B2B2B2"/>
<path d="M456.874 253.181H441.025L440.273 253.933H456.122L456.874 253.181Z" fill="#B2B2B2"/>
<path d="M441.025 253.178V246.548L440.273 247.3V253.93L441.025 253.178Z" fill="#B2B2B2"/>
<path d="M408.067 222.563C408.967 220.98 410.08 219.532 411.36 218.251L410.616 218.995C409.332 220.278 408.217 221.729 407.315 223.315L408.067 222.563Z" fill="#B2B2B2"/>
<path d="M425.956 253.072C431.622 253.072 436.442 250.963 440.195 247.382C440.221 247.355 440.247 247.327 440.273 247.3L441.025 246.548C440.754 246.834 440.478 247.112 440.195 247.382C436.343 251.418 431.256 253.824 425.204 253.824L425.956 253.072Z" fill="#B2B2B2"/>
<path d="M389.92 211.978C397.322 211.978 404.381 216.153 408.067 222.554L407.315 223.306C403.629 216.905 396.57 212.73 389.168 212.73L389.92 211.978Z" fill="#B2B2B2"/>
<path d="M384.968 198.735V212.571L384.216 213.323V199.487L384.968 198.735Z" fill="#B2B2B2"/>
<path d="M369.118 198.735H384.967L384.215 199.487H368.366L369.118 198.735Z" fill="#B2B2B2"/>
<path d="M384.968 212.567C386.547 212.182 388.203 211.978 389.921 211.978L389.169 212.73C387.451 212.73 385.795 212.934 384.216 213.318L384.968 212.567Z" fill="#B2B2B2"/>
<path d="M425.957 253.075C417.766 253.075 411.426 248.656 408.104 242.478L407.352 243.23C410.674 249.408 417.014 253.827 425.205 253.827L425.957 253.075Z" fill="#B2B2B2"/>
<path d="M408.103 242.478C407.184 244.105 406.048 245.591 404.737 246.901L403.992 247.646C405.3 246.337 406.434 244.854 407.351 243.23L408.103 242.478Z" fill="#B2B2B2"/>
<path d="M369.118 219.604V198.735L368.366 199.487V220.356L369.118 219.604Z" fill="#B2B2B2"/>
<path d="M352.081 198.774L369.118 219.603L368.366 220.355L351.329 199.526L352.081 198.774Z" fill="#B2B2B2"/>
<path d="M404.738 246.899C400.929 250.707 395.638 253.033 389.877 253.033L389.125 253.785C394.886 253.785 400.177 251.459 403.986 247.651L404.738 246.899Z" fill="#B2B2B2"/>
<path d="M321.593 198.774H352.082L351.33 199.526H320.841L321.593 198.774Z" fill="#B2B2B2"/>
<path d="M389.876 253.029C382.059 253.029 375.167 248.733 371.631 242.329L370.879 243.081C374.415 249.485 381.307 253.781 389.124 253.781L389.876 253.029Z" fill="#B2B2B2"/>
<path d="M344.446 214.461L337.441 205.923L336.689 206.675L343.694 215.213L344.446 214.461Z" fill="#B2B2B2"/>
<path d="M371.631 242.329C370.695 244.006 369.525 245.543 368.17 246.897L367.425 247.642C368.777 246.289 369.945 244.755 370.879 243.081L371.631 242.329Z" fill="#B2B2B2"/>
<path d="M338.703 218.532C340.369 216.871 342.313 215.486 344.446 214.454L343.694 215.206C341.561 216.238 339.617 217.623 337.951 219.284L338.703 218.532Z" fill="#B2B2B2"/>
<path d="M337.441 205.923V219.913L336.689 220.665V206.675L337.441 205.923Z" fill="#B2B2B2"/>
<path d="M321.593 200.955V198.774L320.841 199.526V201.707L321.593 200.955Z" fill="#B2B2B2"/>
<path d="M316.724 199.657C318.48 199.657 320.147 200.133 321.592 200.958L320.84 201.71C319.395 200.885 317.728 200.409 315.972 200.409L316.724 199.657Z" fill="#B2B2B2"/>
<path d="M338.661 218.574C338.675 218.56 338.689 218.546 338.703 218.532L338.661 218.574C338.236 219 337.829 219.445 337.441 219.906L336.689 220.658C337.089 220.182 337.51 219.723 337.951 219.284L338.661 218.574Z" fill="#B2B2B2"/>
<path d="M309.875 202.502C311.635 200.742 314.057 199.657 316.724 199.657L315.972 200.409C313.305 200.409 310.883 201.494 309.123 203.254L309.875 202.502Z" fill="#B2B2B2"/>
<path d="M368.169 246.899C364.36 250.707 359.086 253.075 353.422 253.075L352.67 253.827C358.334 253.827 363.608 251.459 367.417 247.651L368.169 246.899Z" fill="#B2B2B2"/>
<path d="M306.994 209.463C306.994 206.736 308.096 204.273 309.871 202.496L309.122 203.245C307.345 205.022 306.242 207.486 306.242 210.215L306.994 209.463Z" fill="#B2B2B2"/>
<path d="M353.423 253.078C347.118 253.078 341.297 250.143 337.441 245.556L336.689 246.308C340.545 250.895 346.366 253.83 352.671 253.83L353.423 253.078Z" fill="#B2B2B2"/>
<path d="M308.35 214.376C307.5 212.991 306.994 211.336 306.994 209.47L306.242 210.222C306.242 212.088 306.748 213.743 307.598 215.128L308.35 214.376Z" fill="#B2B2B2"/>
<path d="M298.85 214.376H308.35L307.598 215.128H298.098L298.85 214.376Z" fill="#B2B2B2"/>
<path d="M337.441 245.556V253.176L336.689 253.928V246.308L337.441 245.556Z" fill="#B2B2B2"/>
<path d="M295.004 224.195L298.85 214.376L298.098 215.128L294.252 224.947L295.004 224.195Z" fill="#B2B2B2"/>
<path d="M291.18 214.376L295.003 224.195L294.251 224.947L290.428 215.128L291.18 214.376Z" fill="#B2B2B2"/>
<path d="M280.227 214.376H291.179L290.428 215.128H279.475L280.227 214.376Z" fill="#B2B2B2"/>
<path d="M337.442 253.181H308.904L308.152 253.933H336.69L337.442 253.181Z" fill="#B2B2B2"/>
<path d="M308.904 253.174V232.47L308.152 233.222V253.926L308.904 253.174Z" fill="#B2B2B2"/>
<path d="M308.904 232.47L300.848 253.217L300.096 253.969L308.152 233.222L308.904 232.47Z" fill="#B2B2B2"/>
<path d="M276.371 224.221L280.227 214.376L279.475 215.128L275.619 224.973L276.371 224.221Z" fill="#B2B2B2"/>
<path d="M272.515 214.376L276.371 224.221L275.619 224.973L271.763 215.128L272.515 214.376Z" fill="#B2B2B2"/>
<path d="M255.385 214.376H272.514L271.762 215.128H254.633L255.385 214.376Z" fill="#B2B2B2"/>
<path d="M300.848 253.22H289.9L289.148 253.972H300.096L300.848 253.22Z" fill="#B2B2B2"/>
<path d="M289.9 253.218L285.673 242.509L284.921 243.261L289.148 253.97L289.9 253.218Z" fill="#B2B2B2"/>
<path d="M285.673 242.509L281.47 253.218L280.718 253.97L284.921 243.261L285.673 242.509Z" fill="#B2B2B2"/>
<path d="M270.52 253.221L255.385 214.376L254.633 215.128L269.768 253.973L270.52 253.221Z" fill="#B2B2B2"/>
<path d="M281.47 253.22H270.52L269.768 253.972H280.718L281.47 253.22Z" fill="#B2B2B2"/>
<path fill-rule="evenodd" clip-rule="evenodd" d="M534.286 246.997C530.393 251.264 525.178 253.824 518.936 253.824C512.376 253.824 506.962 251.025 503.365 246.742V253.926H487.517V231.16C485.32 231.337 483.271 232.035 481.79 233.048C481.39 233.321 481.046 233.605 480.754 233.897C479.829 234.822 479.428 235.833 479.428 236.878V253.93H463.58V231.225C461.624 231.474 459.821 232.132 458.483 233.048C458.083 233.321 457.739 233.605 457.447 233.897C456.522 234.822 456.122 235.833 456.122 236.878V253.93H440.273V247.299C436.411 251.384 431.297 253.824 425.204 253.824C417.013 253.824 410.674 249.405 407.351 243.227C406.432 244.854 405.296 246.34 403.985 247.65C400.176 251.458 394.886 253.784 389.124 253.784C381.308 253.784 374.415 249.487 370.879 243.084C369.943 244.761 368.773 246.297 367.418 247.652C363.609 251.459 358.335 253.827 352.671 253.827C346.366 253.827 340.545 250.892 336.689 246.305V253.926H308.152V233.222L300.096 253.969H289.148L284.921 243.26L280.718 253.969H269.768L254.633 215.125H271.762L275.619 224.969L279.475 215.125H290.428L294.251 224.944L298.098 215.125H307.598C306.749 213.74 306.242 212.085 306.242 210.219C306.242 207.49 307.345 205.025 309.123 203.249C310.883 201.489 313.304 200.404 315.972 200.404C317.728 200.404 319.395 200.88 320.841 201.705V199.525H351.33L368.367 220.354V199.485H384.215V213.321C385.795 212.936 387.45 212.732 389.168 212.732C396.57 212.732 403.63 216.907 407.316 223.309C408.217 221.722 409.332 220.272 410.616 218.989C414.484 215.123 419.885 212.771 425.618 212.771C431.181 212.771 436.093 214.871 439.598 218.574C439.83 218.819 440.055 219.07 440.273 219.327V215.125H456.122V216.8C458.446 215.74 460.954 215.24 463.58 215.143L479.428 215.125V216.8C481.792 215.722 484.345 215.223 487.018 215.138C486.153 213.737 485.647 212.062 485.647 210.179C485.647 207.533 486.743 205.06 488.541 203.263C490.29 201.515 492.703 200.408 495.417 200.408C500.936 200.408 505.187 205.113 505.187 210.302C505.187 212.37 504.562 214.338 503.365 215.948V220.051C507.193 215.547 512.953 212.771 519.351 212.771C523.076 212.771 527.811 214.017 531.7 217.126C532.948 218.123 534.088 219.297 535.068 220.65C535.658 219.592 536.39 218.644 537.227 217.807C537.981 217.054 538.82 216.391 539.718 215.82C543.143 213.642 547.394 212.775 551.285 212.775C557.863 212.775 563.093 215.216 567.927 219.42L571.062 222.146C571.062 222.146 567.388 226.578 565.769 228.531C565.64 228.687 565.524 228.827 570.311 223.052C565.169 229.254 565.018 229.437 565.018 229.437C565.881 230.144 566.678 230.998 567.35 232.03C568.67 234.057 569.309 236.47 569.309 239.185C569.309 243.127 567.759 246.255 565.459 248.553C564.657 249.355 563.764 250.056 562.813 250.655C559.287 252.878 554.927 253.784 550.995 253.784C545.12 253.784 538.918 251.752 534.286 246.997ZM336.689 220.663C337.089 220.187 337.51 219.728 337.951 219.289C339.616 217.628 341.561 216.243 343.694 215.211L336.689 206.673V220.663Z" fill="#B2B2B2"/>
<path fill-rule="evenodd" clip-rule="evenodd" d="M535.038 246.247C531.145 250.514 525.93 253.074 519.688 253.074C513.128 253.074 507.714 250.275 504.117 245.992V253.176H488.269V230.41C486.072 230.587 484.023 231.285 482.542 232.298C480.873 233.439 480.18 234.753 480.18 236.128V253.18H464.332V230.475C462.376 230.724 460.573 231.382 459.235 232.298C457.566 233.439 456.874 234.753 456.874 236.128V253.18H441.025V246.549C437.163 250.634 432.049 253.074 425.956 253.074C417.765 253.074 411.425 248.655 408.103 242.477C404.514 248.83 397.621 253.034 389.876 253.034C382.06 253.034 375.167 248.737 371.631 242.334C368.064 248.725 361.102 253.077 353.423 253.077C347.118 253.077 341.297 250.142 337.441 245.555V253.176H308.904V232.472L300.848 253.219H289.9L285.673 242.51L281.47 253.219H270.52L255.385 214.375H272.514L276.371 224.219L280.227 214.375H291.18L295.003 224.194L298.85 214.375H308.35C307.5 212.99 306.994 211.335 306.994 209.469C306.994 204.037 311.362 199.654 316.724 199.654C318.48 199.654 320.147 200.13 321.593 200.955V198.775H352.082L369.118 219.604V198.735H384.967V212.571C386.547 212.186 388.202 211.982 389.92 211.982C397.322 211.982 404.382 216.157 408.068 222.559C411.685 216.195 418.734 212.021 426.37 212.021C431.933 212.021 436.845 214.121 440.35 217.824C440.582 218.069 440.807 218.32 441.025 218.577V214.375H456.874V216.05C459.198 214.99 461.706 214.49 464.332 214.393L480.18 214.375V216.05C482.544 214.972 485.097 214.473 487.77 214.388C486.905 212.987 486.399 211.312 486.399 209.429C486.399 204.209 490.667 199.658 496.169 199.658C501.688 199.658 505.939 204.363 505.939 209.552C505.939 211.62 505.314 213.588 504.117 215.198V219.301C507.945 214.797 513.705 212.021 520.103 212.021C523.828 212.021 528.563 213.267 532.452 216.376C533.7 217.373 534.84 218.547 535.82 219.9C536.942 217.889 538.576 216.275 540.47 215.07C543.895 212.892 548.146 212.025 552.037 212.025C558.615 212.025 563.845 214.466 568.679 218.67L571.814 221.396L565.77 228.687C566.633 229.394 567.43 230.248 568.102 231.28C569.422 233.307 570.061 235.72 570.061 238.435C570.061 243.752 567.241 247.588 563.565 249.905C560.039 252.128 555.679 253.034 551.747 253.034C545.872 253.034 539.67 251.002 535.038 246.247ZM337.441 219.913C339.354 217.635 341.749 215.766 344.446 214.461L337.441 205.923V219.913Z" fill="white"/>
<path d="M544.907 227.013C544.907 226.637 545.012 226.275 545.207 225.938C545.986 224.589 548.202 223.62 550.922 223.62C554.323 223.62 558.098 225.297 560.543 227.996L564.981 222.641C560.752 218.963 556.478 217.041 551.131 217.041C546.083 217.041 540.918 218.768 538.697 222.614C537.98 223.856 537.57 225.32 537.57 227.017C537.57 235.562 545.036 236.177 551.131 236.664C554.532 236.91 557.559 237.156 557.559 239.363C557.559 239.788 557.449 240.172 557.25 240.517C556.34 242.094 553.575 242.839 551.09 242.839C547.565 242.839 543.749 241.369 540.971 238.055L536.243 243.002C540.018 247.54 545.49 249.542 550.841 249.542C555.947 249.542 561.413 247.724 563.743 243.691C564.478 242.418 564.901 240.924 564.901 239.197C564.901 231.06 557.354 230.283 551.549 229.712C547.898 229.344 544.915 229.019 544.915 227.013H544.907ZM511.192 229.015C511.339 228.65 511.507 228.303 511.696 227.976C513.052 225.626 515.479 224.271 518.863 224.271C522.719 224.271 525.042 226.11 526.039 229.015H511.192ZM519.196 217.037C513.02 217.037 507.653 220.23 504.81 225.152C503.434 227.535 502.648 230.323 502.648 233.351C502.648 242.059 509.158 249.582 518.782 249.582C524.588 249.582 529.275 246.843 532.592 242.142L527.535 237.933C525.75 240.632 522.517 242.225 518.661 242.225C514.805 242.225 510.657 239.324 510.327 235.071H534.256V232.534C534.256 221.001 524.967 217.037 519.196 217.037ZM491.616 249.684H498.957V219.387H491.616V249.684ZM490.485 207.464C490.015 208.279 489.747 209.215 489.747 210.191C489.747 213.259 492.195 215.466 495.388 215.466C497.522 215.466 499.212 214.497 500.098 212.963C500.537 212.203 500.779 211.303 500.779 210.314C500.779 207.329 498.29 204.673 495.263 204.673C493.203 204.673 491.433 205.823 490.485 207.464ZM389.014 216.997C385.573 216.997 382.461 218.02 379.807 219.776V203.751H372.466V233.311C372.466 242.305 379.888 249.542 388.97 249.542C395.118 249.542 400.544 246.246 403.408 241.287C404.775 238.92 405.559 236.175 405.559 233.228C405.559 224.108 397.62 216.997 389.014 216.997ZM350.9 217.489C345.504 218.028 340.759 221.244 338.159 225.745C336.823 228.059 336.053 230.713 336.053 233.517C336.053 242.265 343.643 249.585 352.517 249.585C358.572 249.585 364.029 246.178 366.885 241.234C368.215 238.932 368.98 236.297 368.98 233.517C368.98 229.795 367.613 226.363 365.414 223.664L349.159 203.791H339.663L350.9 217.489ZM294.083 236.644L287.365 219.39H282.223L275.464 236.644L268.706 219.39H260.701L272.521 249.727H277.663L284.756 231.657L291.888 249.727H297.03L308.81 219.39H300.845L294.087 236.644H294.083ZM425.464 217.037C419.336 217.037 413.793 220.361 410.927 225.322C409.625 227.577 408.876 230.17 408.876 232.943C408.876 241.817 415.385 249.582 425.05 249.582C430.855 249.582 435.543 246.843 438.86 242.142L433.139 237.564C431.479 240.509 428.286 242.225 425.094 242.225C420.945 242.225 416.884 239.324 416.55 235.071H440.561V232.863C440.561 223.691 434.378 217.037 425.464 217.037ZM451.714 226.299V219.39H444.372V249.688H451.714V236.889C451.714 235.386 452.109 234.024 452.802 232.823C454.976 229.055 460.086 226.873 465.15 226.873V219.39H464.402C458.762 219.39 454.657 221.435 451.714 226.299ZM475.02 226.299V219.39H467.679V249.688H475.02V236.889C475.02 235.386 475.415 234.024 476.108 232.823C478.283 229.055 483.393 226.873 488.457 226.873V219.39H487.709C482.068 219.39 477.964 221.435 475.02 226.299ZM324.94 249.684H332.281V203.791H324.94V249.684ZM352.561 242.305C347.503 242.305 343.394 238.298 343.394 233.311C343.394 231.687 343.829 230.163 344.59 228.845C346.164 226.116 349.133 224.274 352.517 224.274C357.534 224.274 361.764 228.282 361.764 233.311C361.764 234.929 361.335 236.436 360.584 237.737C359.001 240.481 355.988 242.305 352.557 242.305H352.561ZM397.038 237.656C395.445 240.417 392.41 242.305 388.974 242.305C383.997 242.305 379.807 238.381 379.807 233.268C379.807 231.581 380.236 230.029 381 228.705C382.551 226.017 385.485 224.274 389.014 224.274C394.281 224.274 398.221 228.321 398.221 233.268C398.221 234.854 397.79 236.353 397.038 237.656ZM312.251 249.684H319.593V219.387H312.251V249.684ZM315.818 204.67C313.82 204.67 312.046 205.767 311.089 207.423C310.615 208.243 310.342 209.201 310.342 210.231C310.342 213.338 312.955 215.506 315.818 215.506C317.965 215.506 319.757 214.323 320.7 212.689C321.16 211.894 321.418 210.992 321.418 210.068C321.418 207.246 318.889 204.67 315.818 204.67ZM417.423 229.015C417.568 228.666 417.732 228.333 417.913 228.019C419.284 225.643 421.684 224.271 425.053 224.271C428.869 224.271 431.358 226.11 432.351 229.015H417.423Z" fill="#B2B2B2"/>
<path d="M552.194 215.196C557.542 215.196 561.815 217.119 566.045 220.797L564.981 222.639C560.752 218.96 556.478 217.038 551.131 217.038L552.194 215.196Z" fill="#B2B2B2"/>
<path d="M566.045 220.806L561.606 226.161L560.543 228.002L564.981 222.648L566.045 220.806Z" fill="#B2B2B2"/>
<path d="M561.606 226.158C559.162 223.459 555.387 221.782 551.985 221.782L550.922 223.624C554.323 223.624 558.098 225.301 560.543 228L561.606 226.158Z" fill="#B2B2B2"/>
<path d="M539.761 220.77C541.982 216.924 547.147 215.196 552.194 215.196L551.131 217.038C546.083 217.038 540.918 218.766 538.697 222.612L539.761 220.77Z" fill="#B2B2B2"/>
<path d="M551.985 221.782C549.265 221.782 547.049 222.751 546.27 224.099L545.207 225.941C545.986 224.592 548.202 223.624 550.922 223.624L551.985 221.782Z" fill="#B2B2B2"/>
<path d="M546.271 224.103C546.076 224.44 545.972 224.802 545.972 225.178L544.908 227.02C544.908 226.644 545.013 226.282 545.208 225.944L546.271 224.103Z" fill="#B2B2B2"/>
<path d="M545.978 225.181C545.978 227.186 548.961 227.511 552.611 227.88L551.548 229.722C547.897 229.353 544.914 229.028 544.914 227.023L545.978 225.181Z" fill="#B2B2B2"/>
<path d="M552.612 227.876C558.418 228.447 565.964 229.224 565.964 237.361L564.901 239.203C564.901 231.066 557.354 230.289 551.549 229.718L552.612 227.876Z" fill="#B2B2B2"/>
<path d="M545.971 225.181H545.978L544.915 227.023H544.907L545.971 225.181Z" fill="#B2B2B2"/>
<path d="M538.634 225.185C538.634 223.488 539.044 222.026 539.76 220.784L538.698 222.624C537.981 223.866 537.57 225.33 537.57 227.027L538.634 225.185Z" fill="#B2B2B2"/>
<path d="M565.964 237.36C565.964 239.087 565.541 240.581 564.806 241.854L563.744 243.694C564.478 242.421 564.9 240.928 564.9 239.202L565.964 237.36Z" fill="#B2B2B2"/>
<path d="M552.194 234.828C546.099 234.34 538.633 233.726 538.633 225.181L537.569 227.023C537.569 235.568 545.035 236.182 551.13 236.67L552.194 234.828Z" fill="#B2B2B2"/>
<path d="M558.623 237.528C558.623 235.321 555.596 235.075 552.194 234.829L551.131 236.671C554.532 236.917 557.56 237.162 557.56 239.37L558.623 237.528Z" fill="#B2B2B2"/>
<path d="M558.313 238.685C558.512 238.341 558.623 237.957 558.623 237.532L557.559 239.374C557.559 239.799 557.449 240.183 557.25 240.527L558.313 238.685Z" fill="#B2B2B2"/>
<path d="M496.327 202.837C499.355 202.837 501.843 205.493 501.843 208.477L500.78 210.319C500.78 207.335 498.291 204.679 495.264 204.679L496.327 202.837Z" fill="#B2B2B2"/>
<path d="M520.26 215.196C526.03 215.196 535.32 219.161 535.32 230.694L534.256 232.536C534.256 221.003 524.967 217.038 519.196 217.038L520.26 215.196Z" fill="#B2B2B2"/>
<path d="M491.549 205.628C492.497 203.987 494.267 202.837 496.326 202.837L495.263 204.679C493.203 204.679 491.433 205.829 490.485 207.469L491.549 205.628Z" fill="#B2B2B2"/>
<path d="M552.153 240.996C554.638 240.996 557.402 240.251 558.313 238.674L557.25 240.515C556.339 242.093 553.575 242.838 551.09 242.838L552.153 240.996Z" fill="#B2B2B2"/>
<path d="M501.842 208.478C501.842 209.467 501.601 210.367 501.161 211.127L500.099 212.967C500.537 212.207 500.779 211.308 500.779 210.319L501.842 208.478Z" fill="#B2B2B2"/>
<path d="M564.807 241.853C562.478 245.885 557.011 247.703 551.905 247.703L550.842 249.545C555.948 249.545 561.414 247.727 563.743 243.694L564.807 241.853Z" fill="#B2B2B2"/>
<path d="M527.103 227.183C526.106 224.278 523.782 222.438 519.927 222.438L518.863 224.28C522.719 224.28 525.043 226.12 526.04 229.025L527.103 227.183Z" fill="#B2B2B2"/>
<path d="M542.034 236.22C544.812 239.533 548.628 241.004 552.154 241.004L551.09 242.846C547.564 242.846 543.749 241.375 540.971 238.062L542.034 236.22Z" fill="#B2B2B2"/>
<path d="M535.319 230.696V233.233L534.256 235.075V232.538L535.319 230.696Z" fill="#B2B2B2"/>
<path d="M505.874 223.312C508.717 218.389 514.084 215.196 520.26 215.196L519.197 217.038C513.02 217.038 507.654 220.231 504.811 225.154L505.874 223.312Z" fill="#B2B2B2"/>
<path d="M490.811 208.353C490.811 207.377 491.078 206.442 491.548 205.628L490.486 207.468C490.015 208.283 489.747 209.218 489.747 210.195L490.811 208.353Z" fill="#B2B2B2"/>
<path d="M501.161 211.126C500.274 212.66 498.584 213.629 496.45 213.629L495.387 215.471C497.521 215.471 499.211 214.502 500.097 212.968L501.161 211.126Z" fill="#B2B2B2"/>
<path d="M496.451 213.628C493.259 213.628 490.811 211.42 490.811 208.353L489.747 210.194C489.747 213.262 492.195 215.47 495.388 215.47L496.451 213.628Z" fill="#B2B2B2"/>
<path d="M519.926 222.438C516.542 222.438 514.115 223.794 512.759 226.144L511.697 227.983C513.053 225.635 515.48 224.28 518.862 224.28L519.926 222.438Z" fill="#B2B2B2"/>
<path d="M537.307 241.166L542.035 236.22L540.971 238.062L536.243 243.008L537.307 241.166Z" fill="#B2B2B2"/>
<path d="M512.255 227.181H527.102L526.039 229.023H511.191L512.255 227.181Z" fill="#B2B2B2"/>
<path d="M551.905 247.705C546.554 247.705 541.082 245.703 537.307 241.165L536.243 243.007C540.018 247.545 545.49 249.547 550.841 249.547L551.905 247.705Z" fill="#B2B2B2"/>
<path d="M512.759 226.142C512.57 226.469 512.402 226.816 512.255 227.181L511.191 229.023C511.338 228.658 511.507 228.311 511.695 227.984L512.759 226.142Z" fill="#B2B2B2"/>
<path d="M492.679 217.556H500.02L498.957 219.398H491.615L492.679 217.556Z" fill="#B2B2B2"/>
<path d="M535.32 233.235H511.391L510.327 235.077H534.257L535.32 233.235Z" fill="#B2B2B2"/>
<path d="M528.599 236.095L533.656 240.304L532.593 242.146L527.535 237.937L528.599 236.095Z" fill="#B2B2B2"/>
<path d="M488.772 217.556H489.52L488.457 219.398H487.709L488.772 217.556Z" fill="#B2B2B2"/>
<path d="M519.725 240.387C523.58 240.387 526.813 238.794 528.598 236.095L527.534 237.937C525.75 240.636 522.517 242.229 518.661 242.229L519.725 240.387Z" fill="#B2B2B2"/>
<path d="M503.712 231.512C503.712 228.487 504.496 225.701 505.87 223.319L504.81 225.155C503.434 227.538 502.648 230.326 502.648 233.354L503.712 231.512Z" fill="#B2B2B2"/>
<path d="M489.52 217.556V225.039L488.457 226.881V219.398L489.52 217.556Z" fill="#B2B2B2"/>
<path d="M511.391 233.235C511.72 237.488 515.869 240.39 519.725 240.39L518.662 242.232C514.806 242.232 510.657 239.33 510.327 235.077L511.391 233.235Z" fill="#B2B2B2"/>
<path d="M533.656 240.306C530.339 245.007 525.651 247.745 519.846 247.745L518.782 249.587C524.588 249.587 529.276 246.848 532.592 242.148L533.656 240.306Z" fill="#B2B2B2"/>
<path d="M476.083 224.464C479.026 219.601 483.131 217.556 488.772 217.556L487.708 219.398C482.068 219.398 477.963 221.443 475.02 226.306L476.083 224.464Z" fill="#B2B2B2"/>
<path d="M500.02 217.556V247.853L498.957 249.695V219.398L500.02 217.556Z" fill="#B2B2B2"/>
<path d="M519.846 247.747C510.221 247.747 503.712 240.225 503.712 231.517L502.648 233.359C502.648 242.067 509.158 249.589 518.782 249.589L519.846 247.747Z" fill="#B2B2B2"/>
<path d="M468.743 217.556H476.084L475.021 219.398H467.68L468.743 217.556Z" fill="#B2B2B2"/>
<path d="M476.083 217.556V224.464L475.02 226.306V219.398L476.083 217.556Z" fill="#B2B2B2"/>
<path d="M492.679 247.853V217.556L491.615 219.398V249.695L492.679 247.853Z" fill="#B2B2B2"/>
<path d="M465.466 217.556H466.213L465.15 219.398H464.402L465.466 217.556Z" fill="#B2B2B2"/>
<path d="M489.52 225.04C484.456 225.04 479.346 227.222 477.172 230.989L476.11 232.829C478.285 229.063 483.394 226.882 488.457 226.882L489.52 225.04Z" fill="#B2B2B2"/>
<path d="M466.214 217.556V225.039L465.15 226.881V219.398L466.214 217.556Z" fill="#B2B2B2"/>
<path d="M452.777 224.464C455.72 219.601 459.825 217.556 465.466 217.556L464.403 219.398C458.762 219.398 454.657 221.443 451.714 226.306L452.777 224.464Z" fill="#B2B2B2"/>
<path d="M477.171 230.985C476.478 232.186 476.083 233.548 476.083 235.052L475.02 236.894C475.02 235.39 475.414 234.028 476.107 232.827L477.171 230.985Z" fill="#B2B2B2"/>
<path d="M445.436 217.556H452.777L451.713 219.398H444.372L445.436 217.556Z" fill="#B2B2B2"/>
<path d="M452.777 217.556V224.464L451.714 226.306V219.398L452.777 217.556Z" fill="#B2B2B2"/>
<path d="M500.02 247.845H492.679L491.615 249.687H498.957L500.02 247.845Z" fill="#B2B2B2"/>
<path d="M468.743 247.853V217.556L467.68 219.398V249.695L468.743 247.853Z" fill="#B2B2B2"/>
<path d="M466.214 225.04C461.15 225.04 456.04 227.222 453.865 230.989L452.803 232.829C454.979 229.063 460.088 226.882 465.15 226.882L466.214 225.04Z" fill="#B2B2B2"/>
<path d="M476.083 235.048V247.846L475.02 249.688V236.89L476.083 235.048Z" fill="#B2B2B2"/>
<path d="M453.865 230.985C453.172 232.186 452.777 233.548 452.777 235.052L451.714 236.894C451.714 235.39 452.109 234.028 452.802 232.827L453.865 230.985Z" fill="#B2B2B2"/>
<path d="M426.527 215.196C435.441 215.196 441.624 221.85 441.624 231.022L440.561 232.864C440.561 223.692 434.377 217.038 425.464 217.038L426.527 215.196Z" fill="#B2B2B2"/>
<path d="M476.084 247.845H468.743L467.68 249.687H475.021L476.084 247.845Z" fill="#B2B2B2"/>
<path d="M445.436 247.853V217.556L444.372 219.398V249.695L445.436 247.853Z" fill="#B2B2B2"/>
<path d="M433.413 227.183C432.42 224.278 429.932 222.438 426.116 222.438L425.053 224.28C428.868 224.28 431.357 226.12 432.35 229.025L433.413 227.183Z" fill="#B2B2B2"/>
<path d="M441.624 231.032V233.24L440.561 235.082V232.874L441.624 231.032Z" fill="#B2B2B2"/>
<path d="M411.991 223.481C414.857 218.52 420.4 215.196 426.528 215.196L425.464 217.038C419.336 217.038 413.793 220.362 410.928 225.323L411.991 223.481Z" fill="#B2B2B2"/>
<path d="M452.777 235.048V247.846L451.714 249.688V236.89L452.777 235.048Z" fill="#B2B2B2"/>
<path d="M426.118 222.438C422.749 222.438 420.348 223.811 418.978 226.186L417.916 228.025C419.287 225.651 421.687 224.28 425.054 224.28L426.118 222.438Z" fill="#B2B2B2"/>
<path d="M418.486 227.181H433.414L432.351 229.023H417.423L418.486 227.181Z" fill="#B2B2B2"/>
<path d="M373.53 201.915H380.872L379.808 203.757H372.467L373.53 201.915Z" fill="#B2B2B2"/>
<path d="M418.977 226.181C418.795 226.495 418.632 226.828 418.486 227.177L417.423 229.019C417.568 228.67 417.732 228.337 417.913 228.023L418.977 226.181Z" fill="#B2B2B2"/>
<path d="M441.625 233.235H417.614L416.551 235.077H440.561L441.625 233.235Z" fill="#B2B2B2"/>
<path d="M434.202 235.735L439.923 240.313L438.86 242.155L433.139 237.577L434.202 235.735Z" fill="#B2B2B2"/>
<path d="M452.777 247.845H445.436L444.372 249.687H451.713L452.777 247.845Z" fill="#B2B2B2"/>
<path d="M434.202 235.735C434.173 235.788 434.142 235.84 434.112 235.892L433.139 237.577C431.478 240.522 428.286 242.238 425.094 242.238L426.157 240.396C429.293 240.396 432.428 238.741 434.112 235.892L434.202 235.735Z" fill="#B2B2B2"/>
<path d="M409.938 231.106C409.938 228.335 410.687 225.744 411.987 223.491L410.927 225.327C409.624 227.582 408.875 230.175 408.875 232.948L409.938 231.106Z" fill="#B2B2B2"/>
<path d="M380.871 201.915V217.94L379.808 219.782V203.757L380.871 201.915Z" fill="#B2B2B2"/>
<path d="M417.614 233.235C417.948 237.488 422.009 240.39 426.158 240.39L425.094 242.232C420.945 242.232 416.884 239.33 416.551 235.077L417.614 233.235Z" fill="#B2B2B2"/>
<path d="M390.077 215.157C398.683 215.157 406.622 222.268 406.622 231.388L405.558 233.23C405.558 224.11 397.619 216.999 389.014 216.999L390.077 215.157Z" fill="#B2B2B2"/>
<path d="M380.87 217.936C383.524 216.18 386.635 215.157 390.077 215.157L389.013 216.999C385.572 216.999 382.46 218.022 379.807 219.778L380.87 217.936Z" fill="#B2B2B2"/>
<path d="M439.923 240.306C436.607 245.007 431.919 247.745 426.113 247.745L425.05 249.587C430.855 249.587 435.543 246.848 438.86 242.148L439.923 240.306Z" fill="#B2B2B2"/>
<path d="M426.113 247.742C416.448 247.742 409.938 239.977 409.938 231.103L408.875 232.944C408.875 241.819 415.384 249.584 425.049 249.584L426.113 247.742Z" fill="#B2B2B2"/>
<path d="M399.284 231.432C399.284 226.485 395.344 222.438 390.077 222.438L389.014 224.28C394.28 224.28 398.221 228.327 398.221 233.274L399.284 231.432Z" fill="#B2B2B2"/>
<path d="M373.53 231.475V201.915L372.467 203.757V233.317L373.53 231.475Z" fill="#B2B2B2"/>
<path d="M406.622 231.392C406.622 234.338 405.839 237.084 404.472 239.451L403.412 241.287C404.777 238.921 405.559 236.178 405.559 233.234L406.622 231.392Z" fill="#B2B2B2"/>
<path d="M390.078 222.438C386.548 222.438 383.615 224.181 382.063 226.869L381.002 228.708C382.553 226.022 385.486 224.28 389.014 224.28L390.078 222.438Z" fill="#B2B2B2"/>
<path d="M340.727 201.954H350.223L349.159 203.796H339.663L340.727 201.954Z" fill="#B2B2B2"/>
<path d="M398.101 235.827C398.853 234.523 399.284 233.025 399.284 231.438L398.22 233.28C398.22 234.867 397.789 236.365 397.037 237.669L398.101 235.827Z" fill="#B2B2B2"/>
<path d="M350.223 201.954L366.478 221.827L365.414 223.669L349.159 203.796L350.223 201.954Z" fill="#B2B2B2"/>
<path d="M351.964 215.652L340.727 201.954L339.663 203.796L350.9 217.494L351.964 215.652Z" fill="#B2B2B2"/>
<path d="M382.063 226.868C381.299 228.192 380.87 229.744 380.87 231.431L379.807 233.273C379.807 231.586 380.235 230.033 380.999 228.71L382.063 226.868Z" fill="#B2B2B2"/>
<path d="M390.037 240.47C393.471 240.47 396.505 238.584 398.099 235.825L397.038 237.663C395.444 240.424 392.409 242.312 388.974 242.312L390.037 240.47Z" fill="#B2B2B2"/>
<path d="M326.004 201.954H333.345L332.282 203.796H324.94L326.004 201.954Z" fill="#B2B2B2"/>
<path d="M380.87 231.438C380.87 236.551 385.059 240.475 390.037 240.475L388.973 242.317C383.996 242.317 379.807 238.393 379.807 233.28L380.87 231.438Z" fill="#B2B2B2"/>
<path d="M366.478 221.837C368.677 224.536 370.044 227.969 370.044 231.69L368.98 233.532C368.98 229.811 367.613 226.378 365.414 223.679L366.478 221.837Z" fill="#B2B2B2"/>
<path d="M404.472 239.454C401.608 244.413 396.182 247.709 390.034 247.709L388.971 249.551C395.119 249.551 400.544 246.255 403.408 241.296L404.472 239.454Z" fill="#B2B2B2"/>
<path d="M390.034 247.708C380.952 247.708 373.53 240.471 373.53 231.478L372.467 233.319C372.467 242.313 379.889 249.55 388.971 249.55L390.034 247.708Z" fill="#B2B2B2"/>
<path d="M362.828 231.475C362.828 226.446 358.599 222.438 353.581 222.438L352.518 224.28C357.535 224.28 361.765 228.288 361.765 233.317L362.828 231.475Z" fill="#B2B2B2"/>
<path d="M339.224 223.914C341.824 219.412 346.569 216.197 351.965 215.657L350.901 217.499C345.505 218.039 340.76 221.254 338.16 225.756L339.224 223.914Z" fill="#B2B2B2"/>
<path d="M316.882 202.837C319.953 202.837 322.482 205.413 322.482 208.235L321.419 210.077C321.419 207.255 318.89 204.679 315.818 204.679L316.882 202.837Z" fill="#B2B2B2"/>
<path d="M370.043 231.688C370.043 234.468 369.278 237.103 367.948 239.405L366.888 241.242C368.215 238.941 368.98 236.308 368.98 233.53L370.043 231.688Z" fill="#B2B2B2"/>
<path d="M312.152 205.59C313.109 203.934 314.883 202.837 316.881 202.837L315.817 204.679C313.82 204.679 312.045 205.776 311.089 207.432L312.152 205.59Z" fill="#B2B2B2"/>
<path d="M353.58 222.438C350.197 222.438 347.228 224.28 345.653 227.009L344.592 228.848C346.167 226.121 349.135 224.28 352.517 224.28L353.58 222.438Z" fill="#B2B2B2"/>
<path d="M322.482 208.235C322.482 209.159 322.224 210.061 321.765 210.857L320.702 212.697C321.161 211.902 321.419 211.001 321.419 210.077L322.482 208.235Z" fill="#B2B2B2"/>
<path d="M361.647 235.904C362.398 234.603 362.827 233.095 362.827 231.478L361.764 233.319C361.764 234.937 361.335 236.445 360.584 237.746L361.647 235.904Z" fill="#B2B2B2"/>
<path d="M311.405 208.387C311.405 207.358 311.678 206.401 312.151 205.581L311.089 207.421C310.615 208.242 310.342 209.199 310.342 210.229L311.405 208.387Z" fill="#B2B2B2"/>
<path d="M321.765 210.86C320.821 212.494 319.029 213.677 316.882 213.677L315.818 215.519C317.965 215.519 319.758 214.336 320.701 212.702L321.765 210.86Z" fill="#B2B2B2"/>
<path d="M316.881 213.675C314.018 213.675 311.405 211.507 311.405 208.399L310.342 210.241C310.342 213.349 312.955 215.517 315.818 215.517L316.881 213.675Z" fill="#B2B2B2"/>
<path d="M345.654 227.009C344.893 228.327 344.458 229.851 344.458 231.475L343.395 233.317C343.395 231.693 343.83 230.168 344.59 228.851L345.654 227.009Z" fill="#B2B2B2"/>
<path d="M353.62 240.467C357.05 240.467 360.062 238.644 361.645 235.903L360.584 237.741C359 240.485 355.988 242.309 352.557 242.309L353.62 240.467Z" fill="#B2B2B2"/>
<path d="M333.345 201.954V247.847L332.281 249.689V203.796L333.345 201.954Z" fill="#B2B2B2"/>
<path d="M337.116 231.687C337.116 228.885 337.885 226.233 339.219 223.921L338.159 225.757C336.822 228.071 336.053 230.724 336.053 233.529L337.116 231.687Z" fill="#B2B2B2"/>
<path d="M344.458 231.478C344.458 236.464 348.567 240.471 353.625 240.471L352.561 242.313C347.503 242.313 343.395 238.306 343.395 233.319L344.458 231.478Z" fill="#B2B2B2"/>
<path d="M313.315 217.556H320.657L319.593 219.398H312.252L313.315 217.556Z" fill="#B2B2B2"/>
<path d="M367.95 239.392C365.093 244.336 359.636 247.743 353.581 247.743L352.518 249.585C358.572 249.585 364.03 246.178 366.886 241.234L367.95 239.392Z" fill="#B2B2B2"/>
<path d="M353.624 240.462H353.62L352.557 242.304H352.56L353.624 240.462Z" fill="#B2B2B2"/>
<path d="M326.004 247.847V201.954L324.94 203.796V249.689L326.004 247.847Z" fill="#B2B2B2"/>
<path d="M353.58 247.757C344.707 247.757 337.116 240.436 337.116 231.688L336.053 233.53C336.053 242.278 343.643 249.599 352.517 249.599L353.58 247.757Z" fill="#B2B2B2"/>
<path d="M301.909 217.556H309.873L308.81 219.398H300.846L301.909 217.556Z" fill="#B2B2B2"/>
<path d="M320.655 217.556V247.853L319.592 249.695V219.398L320.655 217.556Z" fill="#B2B2B2"/>
<path d="M313.315 247.853V217.556L312.252 219.398V249.695L313.315 247.853Z" fill="#B2B2B2"/>
<path d="M283.286 217.556H288.428L287.365 219.398H282.223L283.286 217.556Z" fill="#B2B2B2"/>
<path d="M295.15 234.809L301.909 217.556L300.845 219.398L294.087 236.651L295.15 234.809Z" fill="#B2B2B2"/>
<path d="M309.873 217.556L298.094 247.893L297.03 249.735L308.81 219.398L309.873 217.556Z" fill="#B2B2B2"/>
<path d="M333.345 247.845H326.004L324.94 249.687H332.282L333.345 247.845Z" fill="#B2B2B2"/>
<path d="M288.429 217.556L295.147 234.809L294.083 236.651L287.365 219.398L288.429 217.556Z" fill="#B2B2B2"/>
<path d="M261.765 217.556H269.769L268.706 219.398H260.701L261.765 217.556Z" fill="#B2B2B2"/>
<path d="M295.147 234.806H295.151L294.088 236.648H294.084L295.147 234.806Z" fill="#B2B2B2"/>
<path d="M276.528 234.809L283.287 217.556L282.223 219.398L275.465 236.651L276.528 234.809Z" fill="#B2B2B2"/>
<path d="M320.657 247.845H313.315L312.252 249.687H319.593L320.657 247.845Z" fill="#B2B2B2"/>
<path d="M269.769 217.556L276.528 234.809L275.465 236.651L268.706 219.398L269.769 217.556Z" fill="#B2B2B2"/>
<path d="M292.952 247.883L285.819 229.813L284.756 231.655L291.888 249.725L292.952 247.883Z" fill="#B2B2B2"/>
<path d="M285.82 229.813L278.728 247.883L277.664 249.725L284.756 231.655L285.82 229.813Z" fill="#B2B2B2"/>
<path d="M298.094 247.892H292.952L291.889 249.734H297.031L298.094 247.892Z" fill="#B2B2B2"/>
<path d="M273.585 247.893L261.765 217.556L260.701 219.398L272.521 249.735L273.585 247.893Z" fill="#B2B2B2"/>
<path d="M278.727 247.892H273.585L272.521 249.734H277.664L278.727 247.892Z" fill="#B2B2B2"/>
<path d="M545.971 225.177C545.971 223.298 548.584 221.784 551.985 221.784C555.387 221.784 559.162 223.461 561.606 226.16L566.045 220.805C561.815 217.127 557.542 215.205 552.194 215.205C545.516 215.205 538.633 218.229 538.633 225.181C538.633 233.726 546.099 234.341 552.194 234.828C555.595 235.074 558.623 235.32 558.623 237.527C558.623 239.898 555.181 241.003 552.154 241.003C548.628 241.003 544.813 239.533 542.034 236.219L537.306 241.166C541.082 245.704 546.554 247.706 551.905 247.706C558.623 247.706 565.964 244.559 565.964 237.361C565.964 229.224 558.418 228.447 552.612 227.876C548.962 227.508 545.978 227.183 545.978 225.177H545.971ZM512.255 227.179C513.457 224.194 516.071 222.435 519.926 222.435C523.782 222.435 526.106 224.274 527.103 227.179H512.255ZM520.26 215.201C511.093 215.201 503.712 222.232 503.712 231.515C503.712 240.223 510.221 247.746 519.846 247.746C525.651 247.746 530.339 245.007 533.656 240.306L528.598 236.097C526.813 238.796 523.58 240.389 519.725 240.389C515.869 240.389 511.72 237.488 511.39 233.235H535.32V230.698C535.32 219.165 526.031 215.201 520.26 215.201ZM492.68 247.848H500.021V217.551H492.68V247.848ZM490.81 208.355C490.81 211.423 493.259 213.63 496.451 213.63C499.643 213.63 501.842 211.462 501.842 208.478C501.842 205.493 499.354 202.837 496.326 202.837C493.244 202.837 490.81 205.412 490.81 208.355ZM390.078 215.161C386.636 215.161 383.524 216.184 380.871 217.94V201.915H373.53V231.475C373.53 240.469 380.951 247.706 390.034 247.706C399.116 247.706 406.622 240.512 406.622 231.392C406.622 222.272 398.683 215.161 390.078 215.161ZM351.964 215.653C343.794 216.469 337.116 223.421 337.116 231.681C337.116 240.429 344.707 247.749 353.58 247.749C362.453 247.749 370.044 240.433 370.044 231.681C370.044 227.96 368.677 224.527 366.478 221.828L350.223 201.955H340.726L351.964 215.653ZM295.147 234.808L288.429 217.554H283.286L276.528 234.808L269.769 217.554H261.765L273.585 247.891H278.727L285.819 229.821L292.951 247.891H298.094L309.873 217.554H301.909L295.15 234.808H295.147ZM426.527 215.201C417.614 215.201 409.939 222.232 409.939 231.107C409.939 239.981 416.448 247.746 426.113 247.746C431.919 247.746 436.607 245.007 439.924 240.306L434.202 235.728C432.542 238.673 429.35 240.389 426.157 240.389C422.008 240.389 417.947 237.488 417.614 233.235H441.624V231.027C441.624 221.855 435.441 215.201 426.527 215.201ZM452.777 224.463V217.554H445.436V247.852H452.777V235.053C452.777 228.831 459.536 225.037 466.214 225.037V217.554H465.466C459.825 217.554 455.72 219.599 452.777 224.463ZM476.084 224.463V217.554H468.743V247.852H476.084V235.053C476.084 228.831 482.842 225.037 489.52 225.037V217.554H488.773C483.132 217.554 479.027 219.599 476.084 224.463ZM326.004 247.848H333.345V201.955H326.004V247.848ZM353.624 240.469C348.566 240.469 344.458 236.462 344.458 231.475C344.458 226.489 348.563 222.438 353.58 222.438C358.598 222.438 362.827 226.446 362.827 231.475C362.827 236.505 358.678 240.469 353.62 240.469H353.624ZM390.037 240.469C385.06 240.469 380.871 236.545 380.871 231.432C380.871 226.319 384.811 222.438 390.078 222.438C395.344 222.438 399.284 226.485 399.284 231.432C399.284 236.378 395.095 240.469 390.037 240.469ZM313.315 247.848H320.656V217.551H313.315V247.848ZM316.881 202.834C313.894 202.834 311.405 205.287 311.405 208.395C311.405 211.502 314.019 213.67 316.881 213.67C320.073 213.67 322.481 211.054 322.481 208.232C322.481 205.41 319.952 202.834 316.881 202.834ZM418.486 227.179C419.729 224.194 422.302 222.435 426.117 222.435C429.932 222.435 432.421 224.274 433.414 227.179H418.486Z" fill="#FF00CC"/>
<g filter="url(#filter0_d_3110_11879)">
<rect x="319.969" y="334.86" width="32.1586" height="32.1586" rx="13.0061" fill="#FF00CC"/>
</g>
<path fill-rule="evenodd" clip-rule="evenodd" d="M342.69 351.579C341.396 351.579 340.308 350.54 340.308 349.187C340.308 347.835 341.332 346.807 342.7 346.807C344.069 346.807 345.093 347.878 345.093 349.187C345.093 350.497 344.004 351.579 342.69 351.579ZM333.772 349.75L332.026 345.184H330.689L328.933 349.75L327.176 345.184H325.096L328.167 353.213H329.503L331.346 348.43L333.2 353.213H334.536L337.597 345.184H335.528L333.771 349.75H333.772ZM342.7 344.881C341.806 344.881 340.997 345.152 340.308 345.617V341.376H338.4V349.198C338.4 351.579 340.33 353.494 342.69 353.494C345.05 353.494 347.001 351.589 347.001 349.177C347.001 346.764 345.093 344.881 342.701 344.881L342.7 344.881Z" fill="white"/>
<rect x="329.928" y="356.657" width="12.4511" height="1.77873" fill="white"/>
<rect x="106.748" y="210.954" width="36.3632" height="36.3632" rx="14.5798" fill="#FF00CC"/>
<path fill-rule="evenodd" clip-rule="evenodd" d="M132.406 233.013C130.95 233.013 129.725 231.83 129.725 230.291C129.725 228.751 130.878 227.581 132.418 227.581C133.959 227.581 135.112 228.801 135.112 230.291C135.112 231.781 133.886 233.013 132.406 233.013ZM122.367 230.931L120.401 225.734H118.897L116.919 230.931L114.941 225.734H112.6L116.057 234.872H117.562L119.637 229.429L121.723 234.872H123.228L126.673 225.734H124.344L122.366 230.931H122.367ZM132.418 225.39C131.411 225.39 130.501 225.697 129.725 226.227V221.399H127.578V230.303C127.578 233.013 129.75 235.192 132.407 235.192C135.064 235.192 137.26 233.025 137.26 230.279C137.26 227.532 135.112 225.389 132.419 225.389L132.418 225.39Z" fill="white"/>
<rect x="143.111" y="225.173" width="12.539" height="2.08984" fill="#FF00CC"/>
<rect x="143.111" y="231.446" width="12.539" height="2.08984" fill="#FF00CC"/>
<rect x="153.539" y="218.946" width="2.12689" height="20.2054" fill="#FF00CC"/>
<path d="M167.53 129.595V131.313H159.812V145.595H157.874V129.595H167.53ZM169.032 150.095V133.595H170.813V135.501H171.032C171.168 135.293 171.355 135.027 171.595 134.704C171.84 134.376 172.188 134.084 172.642 133.829C173.1 133.569 173.72 133.438 174.501 133.438C175.511 133.438 176.402 133.691 177.173 134.196C177.944 134.701 178.545 135.418 178.978 136.345C179.41 137.272 179.626 138.366 179.626 139.626C179.626 140.897 179.41 141.998 178.978 142.931C178.545 143.858 177.946 144.576 177.181 145.087C176.415 145.592 175.532 145.845 174.532 145.845C173.761 145.845 173.144 145.717 172.681 145.462C172.217 145.201 171.86 144.907 171.61 144.579C171.36 144.246 171.168 143.97 171.032 143.751H170.876V150.095H169.032ZM170.845 139.595C170.845 140.501 170.978 141.3 171.243 141.993C171.509 142.681 171.897 143.22 172.407 143.61C172.918 143.996 173.543 144.188 174.282 144.188C175.053 144.188 175.696 143.985 176.212 143.579C176.733 143.168 177.123 142.616 177.384 141.923C177.649 141.225 177.782 140.449 177.782 139.595C177.782 138.751 177.652 137.991 177.392 137.313C177.136 136.631 176.748 136.092 176.228 135.696C175.712 135.295 175.063 135.095 174.282 135.095C173.532 135.095 172.902 135.285 172.392 135.665C171.881 136.04 171.496 136.566 171.235 137.243C170.975 137.915 170.845 138.699 170.845 139.595ZM185.97 145.876C185.209 145.876 184.519 145.733 183.899 145.446C183.28 145.155 182.787 144.735 182.423 144.188C182.058 143.636 181.876 142.97 181.876 142.188C181.876 141.501 182.011 140.944 182.282 140.517C182.553 140.084 182.915 139.746 183.368 139.501C183.821 139.256 184.321 139.074 184.868 138.954C185.42 138.829 185.975 138.73 186.532 138.657C187.261 138.563 187.853 138.493 188.306 138.446C188.764 138.394 189.097 138.308 189.306 138.188C189.519 138.069 189.626 137.86 189.626 137.563V137.501C189.626 136.73 189.415 136.131 188.993 135.704C188.576 135.277 187.944 135.063 187.095 135.063C186.215 135.063 185.524 135.256 185.024 135.642C184.524 136.027 184.173 136.438 183.97 136.876L182.22 136.251C182.532 135.522 182.949 134.954 183.47 134.548C183.996 134.136 184.569 133.85 185.188 133.688C185.813 133.522 186.428 133.438 187.032 133.438C187.418 133.438 187.86 133.485 188.36 133.579C188.866 133.668 189.353 133.853 189.821 134.134C190.295 134.415 190.688 134.84 191.001 135.407C191.313 135.975 191.47 136.735 191.47 137.688V145.595H189.626V143.97H189.532C189.407 144.23 189.199 144.509 188.907 144.806C188.616 145.103 188.228 145.355 187.743 145.563C187.259 145.772 186.668 145.876 185.97 145.876ZM186.251 144.22C186.98 144.22 187.595 144.076 188.095 143.79C188.6 143.504 188.98 143.134 189.235 142.681C189.496 142.228 189.626 141.751 189.626 141.251V139.563C189.548 139.657 189.376 139.743 189.11 139.821C188.85 139.894 188.548 139.959 188.204 140.017C187.866 140.069 187.535 140.116 187.212 140.157C186.894 140.194 186.636 140.225 186.438 140.251C185.959 140.313 185.511 140.415 185.095 140.556C184.683 140.691 184.35 140.897 184.095 141.173C183.845 141.444 183.72 141.813 183.72 142.282C183.72 142.923 183.957 143.407 184.431 143.735C184.91 144.058 185.517 144.22 186.251 144.22ZM202.866 138.751V140.47H196.241V138.751H202.866ZM196.679 133.595V145.595H194.835V133.595H196.679ZM204.272 133.595V145.595H202.429V133.595H204.272ZM209.483 142.876L215.265 133.595H217.39V145.595H215.546V136.313L209.796 145.595H207.64V133.595H209.483V142.876ZM230.204 133.595V143.876H231.892V149.47H230.048V145.595H220.767V133.595H222.61V143.876H228.36V133.595H230.204ZM236.325 137.938H239.763C241.169 137.938 242.244 138.295 242.989 139.009C243.734 139.722 244.106 140.626 244.106 141.72C244.106 142.438 243.94 143.092 243.606 143.681C243.273 144.264 242.784 144.73 242.138 145.079C241.492 145.423 240.7 145.595 239.763 145.595H234.731V133.595H236.575V143.876H239.763C240.492 143.876 241.091 143.683 241.56 143.298C242.028 142.912 242.263 142.418 242.263 141.813C242.263 141.178 242.028 140.66 241.56 140.259C241.091 139.858 240.492 139.657 239.763 139.657H236.325V137.938ZM246.013 145.595V133.595H247.856V145.595H246.013ZM257.419 145.595V133.595H266.856V145.595H265.013V135.313H259.263V145.595H257.419ZM275.099 145.845C274.015 145.845 273.065 145.587 272.247 145.071C271.435 144.556 270.799 143.834 270.341 142.907C269.888 141.98 269.661 140.897 269.661 139.657C269.661 138.407 269.888 137.316 270.341 136.384C270.799 135.451 271.435 134.728 272.247 134.212C273.065 133.696 274.015 133.438 275.099 133.438C276.182 133.438 277.13 133.696 277.942 134.212C278.76 134.728 279.396 135.451 279.849 136.384C280.307 137.316 280.536 138.407 280.536 139.657C280.536 140.897 280.307 141.98 279.849 142.907C279.396 143.834 278.76 144.556 277.942 145.071C277.13 145.587 276.182 145.845 275.099 145.845ZM275.099 144.188C275.922 144.188 276.599 143.978 277.13 143.556C277.661 143.134 278.054 142.579 278.31 141.892C278.565 141.204 278.692 140.459 278.692 139.657C278.692 138.855 278.565 138.108 278.31 137.415C278.054 136.722 277.661 136.162 277.13 135.735C276.599 135.308 275.922 135.095 275.099 135.095C274.276 135.095 273.599 135.308 273.067 135.735C272.536 136.162 272.143 136.722 271.888 137.415C271.632 138.108 271.505 138.855 271.505 139.657C271.505 140.459 271.632 141.204 271.888 141.892C272.143 142.579 272.536 143.134 273.067 143.556C273.599 143.978 274.276 144.188 275.099 144.188ZM289.913 143.095L294.101 133.595H295.851L290.663 145.595H289.163L284.069 133.595H285.788L289.913 143.095ZM285.194 133.595V145.595H283.351V133.595H285.194ZM294.632 145.595V133.595H296.476V145.595H294.632ZM304.882 145.845C303.726 145.845 302.728 145.59 301.89 145.079C301.056 144.563 300.413 143.845 299.96 142.923C299.512 141.996 299.288 140.918 299.288 139.688C299.288 138.459 299.512 137.376 299.96 136.438C300.413 135.496 301.043 134.761 301.851 134.235C302.663 133.704 303.611 133.438 304.694 133.438C305.319 133.438 305.937 133.543 306.546 133.751C307.155 133.959 307.71 134.298 308.21 134.767C308.71 135.23 309.108 135.845 309.405 136.61C309.702 137.376 309.851 138.319 309.851 139.438V140.22H300.601V138.626H307.976C307.976 137.949 307.84 137.345 307.569 136.813C307.304 136.282 306.924 135.863 306.429 135.556C305.939 135.248 305.361 135.095 304.694 135.095C303.96 135.095 303.325 135.277 302.788 135.642C302.257 136.001 301.848 136.47 301.562 137.048C301.275 137.626 301.132 138.246 301.132 138.907V139.97C301.132 140.876 301.288 141.644 301.601 142.274C301.918 142.899 302.358 143.376 302.921 143.704C303.483 144.027 304.137 144.188 304.882 144.188C305.366 144.188 305.804 144.121 306.194 143.985C306.59 143.845 306.931 143.636 307.218 143.36C307.504 143.079 307.726 142.73 307.882 142.313L309.663 142.813C309.476 143.418 309.16 143.949 308.718 144.407C308.275 144.86 307.728 145.215 307.077 145.47C306.426 145.72 305.694 145.845 304.882 145.845ZM329.03 143.876L328.812 149.032H326.905V145.595H325.343V143.876H329.03ZM312.655 133.595H314.499V143.876H319.03V133.595H320.874V143.876H325.405V133.595H327.249V145.595H312.655V133.595ZM336.614 145.845C335.458 145.845 334.461 145.59 333.622 145.079C332.789 144.563 332.146 143.845 331.692 142.923C331.244 141.996 331.021 140.918 331.021 139.688C331.021 138.459 331.244 137.376 331.692 136.438C332.146 135.496 332.776 134.761 333.583 134.235C334.396 133.704 335.343 133.438 336.427 133.438C337.052 133.438 337.669 133.543 338.278 133.751C338.888 133.959 339.442 134.298 339.942 134.767C340.442 135.23 340.841 135.845 341.138 136.61C341.435 137.376 341.583 138.319 341.583 139.438V140.22H332.333V138.626H339.708C339.708 137.949 339.573 137.345 339.302 136.813C339.036 136.282 338.656 135.863 338.161 135.556C337.672 135.248 337.093 135.095 336.427 135.095C335.692 135.095 335.057 135.277 334.521 135.642C333.989 136.001 333.58 136.47 333.294 137.048C333.007 137.626 332.864 138.246 332.864 138.907V139.97C332.864 140.876 333.021 141.644 333.333 142.274C333.651 142.899 334.091 143.376 334.653 143.704C335.216 144.027 335.869 144.188 336.614 144.188C337.099 144.188 337.536 144.121 337.927 143.985C338.323 143.845 338.664 143.636 338.95 143.36C339.237 143.079 339.458 142.73 339.614 142.313L341.396 142.813C341.208 143.418 340.893 143.949 340.45 144.407C340.007 144.86 339.461 145.215 338.81 145.47C338.159 145.72 337.427 145.845 336.614 145.845ZM352.419 138.751V140.47H345.794V138.751H352.419ZM346.231 133.595V145.595H344.388V133.595H346.231ZM353.825 133.595V145.595H351.981V133.595H353.825ZM359.036 142.876L364.817 133.595H366.942V145.595H365.099V136.313L359.349 145.595H357.192V133.595H359.036V142.876ZM377.538 145.595V135.282H374.351C373.632 135.282 373.067 135.449 372.655 135.782C372.244 136.116 372.038 136.574 372.038 137.157C372.038 137.73 372.223 138.181 372.593 138.509C372.968 138.837 373.481 139.001 374.132 139.001H378.007V140.72H374.132C373.319 140.72 372.619 140.576 372.03 140.29C371.442 140.004 370.989 139.595 370.671 139.063C370.353 138.527 370.194 137.892 370.194 137.157C370.194 136.418 370.361 135.782 370.694 135.251C371.028 134.72 371.504 134.311 372.124 134.024C372.749 133.738 373.491 133.595 374.351 133.595H379.288V145.595H377.538ZM369.538 145.595L372.944 139.626H374.944L371.538 145.595H369.538Z" fill="black"/>
<rect x="154.667" y="168.501" width="662" height="316" stroke="black" stroke-width="2" stroke-linecap="round" stroke-dasharray="12 12"/>
</g>
<defs>
<filter id="filter0_d_3110_11879" x="318.19" y="334.86" width="33.9369" height="34.5301" filterUnits="userSpaceOnUse" color-interpolation-filters="sRGB">
<feFlood flood-opacity="0" result="BackgroundImageFix"/>
<feColorMatrix in="SourceAlpha" type="matrix" values="0 0 0 0 0 0 0 0 0 0 0 0 0 0 0 0 0 0 127 0" result="hardAlpha"/>
<feOffset dx="-1.77873" dy="2.37165"/>
<feComposite in2="hardAlpha" operator="out"/>
<feColorMatrix type="matrix" values="0 0 0 0 0 0 0 0 0 0 0 0 0 0 0 0 0 0 0.25 0"/>
<feBlend mode="normal" in2="BackgroundImageFix" result="effect1_dropShadow_3110_11879"/>
<feBlend mode="normal" in="SourceGraphic" in2="effect1_dropShadow_3110_11879" result="shape"/>
</filter>
<clipPath id="clip0_3110_11879">
<rect width="900" height="648" fill="white" transform="translate(0.666992 0.125977)"/>
</clipPath>
</defs>
</svg>
