<svg width="901" height="481" viewBox="0 0 901 481" fill="none" xmlns="http://www.w3.org/2000/svg">
<rect width="900" height="480" transform="translate(0.605469 0.125977)" fill="#EDEDED"/>
<path d="M645.923 152.685H629.416V327.567H645.923V152.685Z" stroke="#FF00CC" stroke-width="3" stroke-linejoin="round"/>
<path d="M629.414 201.011H460.023V279.279H629.414V201.011Z" stroke="#FF00CC" stroke-width="3" stroke-linejoin="round"/>
<path d="M475.978 201.011H412.591V279.279H475.978V201.011Z" stroke="#FF00CC" stroke-width="3" stroke-linejoin="round"/>
<path d="M387.024 194.908L384.386 195.276V285.019L387.024 285.387L409.084 288.455L412.582 288.946V191.349L409.084 191.84L387.024 194.908Z" stroke="#FF00CC" stroke-width="3" stroke-linejoin="round"/>
<path d="M332.951 279.286V285.422V288.951L329.453 288.46L307.393 285.392L304.755 285.024V282.354V279.286" stroke="#FF00CC" stroke-width="3" stroke-linejoin="round"/>
<path d="M304.755 201.013V197.945V195.276L307.393 194.908L329.453 191.84L332.951 191.349V194.877V201.013" stroke="#FF00CC" stroke-width="3" stroke-linejoin="round"/>
<path d="M250.326 279.286V285.422V288.951L246.828 288.46L224.768 285.392L222.13 285.024V282.354V279.286" stroke="#FF00CC" stroke-width="3" stroke-linejoin="round"/>
<path d="M222.13 201.013V197.945V195.276L224.768 194.908L246.828 191.84L250.326 191.349V194.877V201.013" stroke="#FF00CC" stroke-width="3" stroke-linejoin="round"/>
<path d="M205.55 272.617L174.593 278.631V201.652L205.55 207.665" stroke="#FF00CC" stroke-width="3" stroke-linejoin="round"/>
<path d="M163.306 274.413V205.847L174.593 201.652V278.608L163.306 274.413Z" stroke="#FF00CC" stroke-width="3" stroke-linejoin="round"/>
<path d="M709.827 156.305H645.888V323.947H709.827V156.305Z" stroke="#FF00CC" stroke-width="3" stroke-linejoin="round"/>
<path d="M737.902 208.156H709.829V272.095H737.902V208.156Z" stroke="#FF00CC" stroke-width="3" stroke-linejoin="round"/>
<path d="M646.595 196.839H708.019" stroke="#FF00CC" stroke-width="3" stroke-linecap="round" stroke-linejoin="round"/>
<path d="M646.595 283.45H708.019" stroke="#FF00CC" stroke-width="3" stroke-linecap="round" stroke-linejoin="round"/>
<path d="M205.546 201.005V225.58L208.032 226.685L221.317 232.545H342.047C346.25 232.545 349.625 235.951 349.625 240.123C349.625 244.296 346.22 247.702 342.047 247.702H221.317L208.032 253.562L205.546 254.666V279.242H384.356V200.974H205.546V201.005Z" stroke="#FF00CC" stroke-width="3" stroke-linejoin="round"/>
<path d="M212.154 228.501V251.328" stroke="#FF00CC" stroke-width="3" stroke-linejoin="round"/>
</svg>
