<svg width="592" height="481" viewBox="0 0 592 481" fill="none" xmlns="http://www.w3.org/2000/svg">
<g clip-path="url(#clip0_3114_13269)">
<rect width="592" height="480" transform="translate(0 0.742188)" fill="#DFDBD8"/>
<rect x="-41" y="408.742" width="650" height="72" fill="#888585"/>
<path d="M385.533 173.831H377.358C368.328 173.831 361.008 181.151 361.008 190.181V198.356C361.008 207.386 368.328 214.706 377.358 214.706H385.533C394.563 214.706 401.883 207.386 401.883 198.356V190.181C401.883 181.151 394.563 173.831 385.533 173.831Z" stroke="#555555" stroke-width="1.371" stroke-miterlimit="10"/>
<path d="M371.365 183.821V191.487H369.976V185.173H369.931L368.138 186.318V185.045L370.043 183.821H371.365Z" fill="#FF00CC"/>
<path d="M376.832 191.628C376.215 191.628 375.687 191.471 375.246 191.158C374.806 190.845 374.468 190.392 374.232 189.8C373.996 189.207 373.878 188.493 373.878 187.657C373.881 186.821 374 186.109 374.236 185.521C374.472 184.934 374.81 184.485 375.25 184.176C375.691 183.866 376.218 183.711 376.832 183.711C377.445 183.711 377.973 183.866 378.415 184.176C378.857 184.485 379.196 184.935 379.431 185.523C379.667 186.112 379.785 186.823 379.785 187.657C379.785 188.49 379.667 189.211 379.431 189.804C379.195 190.396 378.857 190.849 378.417 191.161C377.976 191.473 377.448 191.628 376.832 191.628V191.628ZM376.832 190.457C377.311 190.457 377.689 190.22 377.968 189.747C378.246 189.274 378.385 188.577 378.385 187.657C378.385 187.048 378.321 186.536 378.194 186.122C378.067 185.708 377.887 185.395 377.655 185.184C377.423 184.973 377.149 184.868 376.832 184.868C376.355 184.868 375.978 185.104 375.701 185.577C375.424 186.05 375.284 186.743 375.282 187.657C375.28 188.268 375.341 188.782 375.467 189.199C375.593 189.616 375.772 189.929 376.005 190.14C376.237 190.351 376.512 190.457 376.832 190.457Z" fill="#FF00CC"/>
<path d="M381.502 186.766C381.275 186.766 381.08 186.686 380.918 186.525C380.756 186.364 380.676 186.17 380.679 185.943C380.676 185.718 380.756 185.525 380.918 185.364C381.08 185.203 381.275 185.123 381.502 185.123C381.729 185.123 381.913 185.203 382.077 185.364C382.24 185.525 382.323 185.718 382.326 185.943C382.323 186.093 382.284 186.23 382.208 186.354C382.132 186.479 382.032 186.579 381.908 186.654C381.785 186.729 381.649 186.766 381.502 186.766ZM381.502 190.565C381.275 190.565 381.08 190.485 380.918 190.324C380.756 190.163 380.676 189.969 380.679 189.742C380.676 189.518 380.756 189.325 380.918 189.165C381.08 189.006 381.275 188.926 381.502 188.926C381.729 188.926 381.913 189.006 382.077 189.165C382.24 189.325 382.323 189.517 382.326 189.742C382.323 189.894 382.284 190.033 382.208 190.157C382.132 190.282 382.032 190.381 381.908 190.455C381.785 190.528 381.649 190.565 381.502 190.565Z" fill="#FF00CC"/>
<path d="M386.171 191.628C385.555 191.628 385.026 191.471 384.586 191.158C384.145 190.845 383.807 190.392 383.571 189.8C383.335 189.207 383.218 188.493 383.218 187.657C383.22 186.821 383.34 186.109 383.575 185.521C383.811 184.934 384.149 184.485 384.589 184.176C385.03 183.866 385.557 183.711 386.171 183.711C386.785 183.711 387.312 183.866 387.755 184.176C388.196 184.485 388.535 184.935 388.771 185.523C389.007 186.112 389.124 186.823 389.124 187.657C389.124 188.49 389.006 189.211 388.771 189.804C388.535 190.396 388.197 190.849 387.756 191.161C387.316 191.473 386.788 191.628 386.171 191.628V191.628ZM386.171 190.457C386.65 190.457 387.029 190.22 387.307 189.747C387.585 189.274 387.725 188.577 387.725 187.657C387.725 187.048 387.661 186.536 387.533 186.122C387.406 185.708 387.226 185.395 386.995 185.184C386.763 184.973 386.488 184.868 386.171 184.868C385.694 184.868 385.317 185.104 385.041 185.577C384.764 186.05 384.624 186.743 384.621 187.657C384.619 188.268 384.68 188.782 384.807 189.199C384.932 189.616 385.112 189.929 385.344 190.14C385.576 190.351 385.852 190.457 386.171 190.457Z" fill="#FF00CC"/>
<path d="M392.725 191.628C392.109 191.628 391.58 191.471 391.14 191.158C390.699 190.845 390.361 190.392 390.126 189.8C389.89 189.207 389.772 188.493 389.772 187.657C389.774 186.821 389.894 186.109 390.129 185.521C390.365 184.934 390.704 184.485 391.144 184.176C391.584 183.866 392.111 183.711 392.725 183.711C393.339 183.711 393.867 183.866 394.309 184.176C394.75 184.485 395.089 184.935 395.325 185.523C395.561 186.112 395.678 186.823 395.678 187.657C395.678 188.49 395.56 189.211 395.325 189.804C395.089 190.396 394.751 190.849 394.311 191.161C393.87 191.473 393.342 191.628 392.725 191.628V191.628ZM392.725 190.457C393.205 190.457 393.583 190.22 393.861 189.747C394.139 189.274 394.279 188.577 394.279 187.657C394.279 187.048 394.215 186.536 394.088 186.122C393.96 185.708 393.781 185.395 393.549 185.184C393.317 184.973 393.042 184.868 392.725 184.868C392.248 184.868 391.872 185.104 391.595 185.577C391.318 186.05 391.178 186.743 391.176 187.657C391.173 188.268 391.235 188.782 391.361 189.199C391.487 189.616 391.666 189.929 391.898 190.14C392.13 190.351 392.406 190.457 392.725 190.457Z" fill="#FF00CC"/>
<path d="M367.776 200.937V199.933L370.438 197.325C370.692 197.068 370.905 196.839 371.075 196.64C371.244 196.44 371.371 196.246 371.456 196.059C371.541 195.872 371.583 195.672 371.583 195.46C371.583 195.219 371.528 195.011 371.418 194.837C371.309 194.664 371.158 194.529 370.966 194.435C370.774 194.34 370.555 194.292 370.311 194.292C370.067 194.292 369.838 194.344 369.648 194.448C369.459 194.551 369.312 194.698 369.209 194.887C369.105 195.077 369.053 195.303 369.053 195.565H367.732C367.732 195.078 367.843 194.655 368.065 194.296C368.287 193.936 368.593 193.658 368.984 193.461C369.374 193.264 369.823 193.166 370.33 193.166C370.836 193.166 371.296 193.262 371.685 193.454C372.074 193.646 372.377 193.909 372.593 194.244C372.808 194.578 372.916 194.96 372.916 195.389C372.916 195.676 372.861 195.958 372.751 196.235C372.642 196.512 372.449 196.819 372.173 197.156C371.897 197.493 371.511 197.901 371.015 198.38L369.693 199.723V199.776H373.032V200.936H367.777L367.776 200.937Z" fill="#FF00CC"/>
<path d="M374.458 200.937V199.933L377.119 197.325C377.374 197.068 377.586 196.839 377.756 196.64C377.925 196.44 378.053 196.246 378.137 196.059C378.222 195.872 378.264 195.672 378.264 195.46C378.264 195.219 378.209 195.011 378.1 194.837C377.99 194.664 377.839 194.529 377.647 194.435C377.455 194.34 377.236 194.292 376.992 194.292C376.748 194.292 376.519 194.344 376.329 194.448C376.14 194.551 375.993 194.698 375.89 194.887C375.786 195.077 375.734 195.303 375.734 195.565H374.413C374.413 195.078 374.524 194.655 374.746 194.296C374.968 193.936 375.274 193.658 375.665 193.461C376.056 193.264 376.504 193.166 377.011 193.166C377.517 193.166 377.977 193.262 378.366 193.454C378.755 193.646 379.058 193.909 379.274 194.244C379.49 194.578 379.597 194.96 379.597 195.389C379.597 195.676 379.542 195.958 379.433 196.235C379.323 196.512 379.13 196.819 378.854 197.156C378.578 197.493 378.192 197.901 377.696 198.38L376.374 199.723V199.776H379.714V200.936H374.458L374.458 200.937Z" fill="#FF00CC"/>
<path d="M381.502 196.221C381.275 196.221 381.08 196.14 380.918 195.979C380.756 195.818 380.676 195.624 380.679 195.397C380.676 195.173 380.756 194.98 380.918 194.818C381.08 194.657 381.275 194.577 381.502 194.577C381.729 194.577 381.913 194.657 382.077 194.818C382.24 194.98 382.323 195.172 382.326 195.397C382.323 195.547 382.284 195.684 382.208 195.809C382.132 195.933 382.032 196.033 381.908 196.108C381.785 196.183 381.649 196.22 381.502 196.22V196.221ZM381.502 200.02C381.275 200.02 381.08 199.939 380.918 199.778C380.756 199.617 380.676 199.423 380.679 199.196C380.676 198.972 380.756 198.779 380.918 198.62C381.08 198.46 381.275 198.38 381.502 198.38C381.729 198.38 381.913 198.46 382.077 198.62C382.24 198.779 382.323 198.972 382.326 199.196C382.323 199.348 382.284 199.487 382.208 199.612C382.132 199.736 382.032 199.836 381.908 199.909C381.785 199.983 381.649 200.019 381.502 200.019V200.02Z" fill="#FF00CC"/>
<path d="M386.228 201.082C385.611 201.082 385.083 200.925 384.642 200.612C384.202 200.3 383.864 199.846 383.628 199.254C383.392 198.661 383.274 197.947 383.274 197.111C383.277 196.275 383.396 195.563 383.632 194.975C383.868 194.388 384.206 193.939 384.646 193.63C385.087 193.32 385.614 193.166 386.228 193.166C386.841 193.166 387.369 193.32 387.811 193.63C388.253 193.939 388.592 194.389 388.827 194.977C389.063 195.566 389.181 196.277 389.181 197.111C389.181 197.944 389.063 198.665 388.827 199.258C388.591 199.85 388.253 200.303 387.813 200.614C387.372 200.926 386.844 201.082 386.228 201.082ZM386.228 199.911C386.707 199.911 387.085 199.674 387.364 199.201C387.642 198.728 387.781 198.031 387.781 197.111C387.781 196.502 387.717 195.99 387.59 195.576C387.463 195.162 387.283 194.849 387.051 194.638C386.819 194.427 386.545 194.322 386.228 194.322C385.751 194.322 385.374 194.558 385.097 195.031C384.82 195.505 384.68 196.198 384.678 197.111C384.676 197.722 384.737 198.236 384.863 198.653C384.989 199.07 385.168 199.383 385.401 199.594C385.633 199.805 385.908 199.911 386.228 199.911Z" fill="#FF00CC"/>
<path d="M392.785 201.082C392.169 201.082 391.64 200.925 391.199 200.612C390.759 200.3 390.421 199.846 390.185 199.254C389.949 198.661 389.832 197.947 389.832 197.111C389.834 196.275 389.953 195.563 390.189 194.975C390.425 194.388 390.763 193.939 391.203 193.63C391.644 193.32 392.171 193.166 392.785 193.166C393.399 193.166 393.926 193.32 394.368 193.63C394.81 193.939 395.149 194.389 395.384 194.977C395.62 195.566 395.738 196.277 395.738 197.111C395.738 197.944 395.62 198.665 395.384 199.258C395.148 199.85 394.81 200.303 394.37 200.614C393.93 200.926 393.401 201.082 392.785 201.082ZM392.785 199.911C393.264 199.911 393.642 199.674 393.921 199.201C394.199 198.728 394.338 198.031 394.338 197.111C394.338 196.502 394.274 195.99 394.147 195.576C394.02 195.162 393.84 194.849 393.608 194.638C393.376 194.427 393.102 194.322 392.785 194.322C392.308 194.322 391.931 194.558 391.654 195.031C391.377 195.505 391.238 196.198 391.235 197.111C391.233 197.722 391.294 198.236 391.42 198.653C391.546 199.07 391.726 199.383 391.958 199.594C392.19 199.805 392.466 199.911 392.785 199.911Z" fill="#FF00CC"/>
<path d="M373.219 190.318H368.138V191.479H373.219V190.318Z" fill="#FF00CC"/>
<path d="M371.948 207.761C371.743 207.761 371.567 207.717 371.419 207.629C371.272 207.541 371.158 207.417 371.078 207.257C370.999 207.097 370.959 206.909 370.959 206.693C370.959 206.478 370.999 206.293 371.078 206.131C371.158 205.969 371.27 205.842 371.414 205.751C371.557 205.66 371.726 205.614 371.919 205.614C372.036 205.614 372.149 205.634 372.26 205.672C372.369 205.711 372.468 205.772 372.556 205.855C372.643 205.937 372.712 206.045 372.763 206.177C372.813 206.309 372.838 206.469 372.838 206.658V206.801H371.187V206.498H372.442C372.442 206.392 372.421 206.298 372.378 206.215C372.335 206.132 372.274 206.067 372.196 206.02C372.118 205.972 372.026 205.948 371.922 205.948C371.808 205.948 371.71 205.976 371.625 206.031C371.541 206.087 371.476 206.159 371.43 206.247C371.384 206.336 371.362 206.433 371.362 206.536V206.773C371.362 206.911 371.387 207.029 371.435 207.127C371.485 207.224 371.553 207.299 371.641 207.35C371.73 207.4 371.833 207.426 371.951 207.426C372.027 207.426 372.098 207.415 372.16 207.393C372.223 207.37 372.278 207.338 372.324 207.294C372.37 207.25 372.405 207.195 372.429 207.13L372.812 207.199C372.781 207.312 372.726 207.411 372.647 207.495C372.569 207.579 372.47 207.644 372.351 207.691C372.233 207.737 372.098 207.76 371.947 207.76L371.948 207.761Z" fill="#FF00CC"/>
<path d="M373.148 207.722L373.953 206.659L373.158 205.645H373.628L374.271 206.508H374.415V205.645H374.819V206.508H374.96L375.603 205.645H376.073L375.282 206.659L376.082 207.722H375.602L374.954 206.857H374.819V207.722H374.415V206.857H374.279L373.627 207.722H373.147H373.148Z" fill="#FF00CC"/>
<path d="M377.342 207.761C377.138 207.761 376.961 207.717 376.814 207.629C376.666 207.541 376.553 207.417 376.473 207.257C376.393 207.097 376.354 206.909 376.354 206.693C376.354 206.478 376.394 206.293 376.473 206.131C376.553 205.969 376.665 205.842 376.808 205.751C376.952 205.66 377.12 205.614 377.313 205.614C377.43 205.614 377.544 205.634 377.654 205.672C377.764 205.711 377.863 205.772 377.95 205.855C378.038 205.937 378.106 206.045 378.157 206.177C378.208 206.309 378.233 206.469 378.233 206.658V206.801H376.582V206.498H377.837C377.837 206.392 377.815 206.298 377.772 206.215C377.729 206.132 377.668 206.067 377.59 206.02C377.512 205.972 377.421 205.948 377.316 205.948C377.203 205.948 377.104 205.976 377.02 206.031C376.935 206.087 376.871 206.159 376.825 206.247C376.779 206.336 376.756 206.433 376.756 206.536V206.773C376.756 206.911 376.781 207.029 376.83 207.127C376.879 207.224 376.948 207.299 377.036 207.35C377.124 207.4 377.227 207.426 377.346 207.426C377.422 207.426 377.492 207.415 377.555 207.393C377.618 207.37 377.672 207.338 377.718 207.294C377.764 207.25 377.8 207.195 377.824 207.13L378.206 207.199C378.176 207.312 378.121 207.411 378.042 207.495C377.963 207.579 377.864 207.644 377.746 207.691C377.627 207.737 377.493 207.76 377.341 207.76L377.342 207.761Z" fill="#FF00CC"/>
<path d="M378.519 208.321V207.372H378.688C378.731 207.332 378.768 207.285 378.798 207.229C378.829 207.174 378.854 207.109 378.875 207.034C378.896 206.958 378.914 206.869 378.928 206.768C378.943 206.667 378.955 206.55 378.966 206.42L379.031 205.645H380.443V207.372H380.762V208.321H380.367V207.722H378.919V208.321H378.519ZM379.12 207.372H380.048V205.991H379.393L379.35 206.419C379.329 206.637 379.303 206.827 379.272 206.987C379.24 207.147 379.189 207.275 379.12 207.371V207.372Z" fill="#FF00CC"/>
<path d="M381.591 205.645V207.722H381.195V205.645H381.591ZM382.603 206.509V206.859H381.478V206.509H382.603ZM382.885 205.645V207.722H382.491V205.645H382.885Z" fill="#FF00CC"/>
<path d="M384.356 207.761C384.152 207.761 383.976 207.717 383.828 207.629C383.681 207.541 383.567 207.417 383.487 207.257C383.407 207.097 383.368 206.909 383.368 206.693C383.368 206.478 383.408 206.293 383.487 206.131C383.567 205.969 383.679 205.842 383.822 205.751C383.966 205.66 384.134 205.614 384.327 205.614C384.444 205.614 384.558 205.634 384.668 205.672C384.778 205.711 384.877 205.772 384.964 205.855C385.052 205.937 385.12 206.045 385.171 206.177C385.222 206.309 385.247 206.469 385.247 206.658V206.801H383.596V206.498H384.851C384.851 206.392 384.829 206.298 384.786 206.215C384.743 206.132 384.682 206.067 384.604 206.02C384.527 205.972 384.435 205.948 384.331 205.948C384.217 205.948 384.118 205.976 384.034 206.031C383.95 206.087 383.885 206.159 383.839 206.247C383.793 206.336 383.771 206.433 383.771 206.536V206.773C383.771 206.911 383.795 207.029 383.844 207.127C383.893 207.224 383.962 207.299 384.05 207.35C384.139 207.4 384.242 207.426 384.36 207.426C384.436 207.426 384.506 207.415 384.569 207.393C384.632 207.37 384.687 207.338 384.733 207.294C384.779 207.25 384.814 207.195 384.838 207.13L385.221 207.199C385.19 207.312 385.135 207.411 385.056 207.495C384.977 207.579 384.879 207.644 384.76 207.691C384.642 207.737 384.507 207.76 384.355 207.76L384.356 207.761Z" fill="#FF00CC"/>
<path d="M385.737 207.722V205.645H386.599C386.833 205.645 387.019 205.695 387.156 205.794C387.293 205.894 387.361 206.029 387.361 206.199C387.361 206.321 387.323 206.417 387.245 206.489C387.168 206.56 387.065 206.608 386.937 206.632C387.03 206.642 387.115 206.67 387.193 206.715C387.27 206.759 387.332 206.819 387.38 206.894C387.427 206.969 387.451 207.058 387.451 207.162C387.451 207.272 387.422 207.369 387.366 207.453C387.309 207.538 387.226 207.603 387.119 207.651C387.012 207.698 386.882 207.722 386.73 207.722H385.738L385.737 207.722ZM386.117 206.511H386.603C386.679 206.511 386.744 206.5 386.798 206.478C386.853 206.457 386.895 206.426 386.924 206.386C386.954 206.345 386.968 206.298 386.968 206.243C386.968 206.163 386.935 206.1 386.87 206.055C386.804 206.01 386.713 205.987 386.599 205.987H386.118V206.51L386.117 206.511ZM386.117 207.384H386.73C386.83 207.384 386.909 207.361 386.965 207.313C387.022 207.265 387.05 207.2 387.05 207.118C387.05 207.022 387.022 206.946 386.965 206.89C386.909 206.834 386.83 206.807 386.73 206.807H386.117V207.384Z" fill="#FF00CC"/>
<path d="M388.327 205.645V207.722H387.931V205.645H388.327ZM389.339 206.509V206.859H388.214V206.509H389.339ZM389.621 205.645V207.722H389.226V205.645H389.621Z" fill="#FF00CC"/>
<path d="M391.072 207.76C390.877 207.76 390.708 207.716 390.563 207.626C390.417 207.537 390.305 207.412 390.224 207.252C390.144 207.091 390.104 206.904 390.104 206.689C390.104 206.475 390.144 206.286 390.224 206.124C390.305 205.962 390.417 205.837 390.563 205.748C390.708 205.659 390.877 205.614 391.072 205.614C391.267 205.614 391.437 205.659 391.582 205.748C391.727 205.838 391.84 205.963 391.92 206.124C392 206.286 392.041 206.474 392.041 206.689C392.041 206.905 392 207.091 391.92 207.252C391.84 207.413 391.727 207.537 391.582 207.626C391.437 207.716 391.267 207.76 391.072 207.76ZM391.074 207.421C391.2 207.421 391.304 207.387 391.388 207.321C391.47 207.254 391.532 207.165 391.572 207.054C391.613 206.943 391.632 206.821 391.632 206.688C391.632 206.554 391.612 206.433 391.572 206.322C391.532 206.211 391.471 206.121 391.388 206.053C391.305 205.986 391.2 205.952 391.074 205.952C390.948 205.952 390.842 205.986 390.758 206.053C390.675 206.121 390.613 206.211 390.573 206.322C390.533 206.433 390.513 206.555 390.513 206.688C390.513 206.82 390.533 206.943 390.573 207.054C390.613 207.165 390.675 207.254 390.758 207.321C390.841 207.387 390.947 207.421 391.074 207.421Z" fill="#FF00CC"/>
<rect width="204" height="378" transform="translate(250 102.742)" fill="#F5F5F5"/>
<path d="M329.956 178.342H430.376V464.576H329.956V178.342Z" fill="#B5DADA"/>
<path d="M299.937 178.342H274.284V465.576H299.937V178.342Z" fill="#B5DADA"/>
<path d="M273.975 116.352V148.128H429.711V116.352H273.975Z" fill="#B5DADA"/>
<path d="M314.974 480.317H445.5V163.222M314.974 480.317H258.532V163.222M314.974 480.317V163.222M314.974 163.222H258.532M314.974 163.222H445.5M258.532 163.222V103.168M445.5 163.222V103.168M250.5 103.168H453.5V480.317H250.5V103.168ZM329.956 178.342H430.376V464.576H329.956V178.342ZM299.937 178.342H274.284V465.576H299.937V178.342ZM273.975 148.128V116.352H429.711V148.128H273.975Z" stroke="#555555"/>
<path d="M385.329 208.391H376.22C366.157 208.391 358 216.548 358 226.61V235.72C358 245.782 366.157 253.94 376.22 253.94H385.329C395.392 253.94 403.549 245.782 403.549 235.72V226.61C403.549 216.548 395.392 208.391 385.329 208.391Z" stroke="#555555" stroke-width="1.1672" stroke-miterlimit="10"/>
<path d="M369.542 219.516V228.058H367.994V221.021H367.944L365.946 222.298V220.88L368.069 219.516H369.542Z" fill="#FF00CC"/>
<path d="M375.633 228.22C374.946 228.22 374.357 228.046 373.866 227.697C373.375 227.348 372.998 226.843 372.736 226.183C372.473 225.523 372.342 224.727 372.342 223.795C372.344 222.863 372.478 222.07 372.74 221.415C373.003 220.76 373.38 220.261 373.87 219.916C374.361 219.571 374.949 219.398 375.633 219.398C376.317 219.398 376.905 219.571 377.397 219.916C377.889 220.261 378.267 220.761 378.53 221.417C378.793 222.074 378.924 222.866 378.924 223.795C378.924 224.723 378.792 225.526 378.53 226.187C378.267 226.847 377.89 227.352 377.399 227.7C376.908 228.047 376.32 228.221 375.633 228.221V228.22ZM375.633 226.915C376.167 226.915 376.588 226.651 376.899 226.124C377.209 225.597 377.364 224.82 377.364 223.795C377.364 223.116 377.293 222.546 377.151 222.085C377.009 221.623 376.809 221.275 376.551 221.04C376.292 220.805 375.986 220.687 375.633 220.687C375.101 220.687 374.681 220.951 374.373 221.478C374.064 222.005 373.909 222.777 373.906 223.795C373.903 224.476 373.972 225.049 374.112 225.514C374.252 225.978 374.452 226.327 374.711 226.562C374.97 226.797 375.277 226.915 375.633 226.915Z" fill="#FF00CC"/>
<path d="M380.837 222.8C380.584 222.8 380.367 222.71 380.187 222.531C380.006 222.351 379.917 222.135 379.92 221.882C379.917 221.632 380.006 221.417 380.187 221.238C380.367 221.058 380.585 220.969 380.837 220.969C381.09 220.969 381.295 221.058 381.478 221.238C381.66 221.417 381.752 221.632 381.755 221.882C381.752 222.049 381.709 222.202 381.624 222.341C381.539 222.48 381.427 222.591 381.29 222.675C381.153 222.758 381.002 222.8 380.837 222.8ZM380.837 227.033C380.584 227.033 380.367 226.944 380.187 226.764C380.006 226.585 379.917 226.369 379.92 226.116C379.917 225.866 380.006 225.651 380.187 225.473C380.367 225.296 380.585 225.207 380.837 225.207C381.09 225.207 381.295 225.296 381.478 225.473C381.66 225.651 381.752 225.865 381.755 226.116C381.752 226.286 381.709 226.44 381.624 226.579C381.539 226.718 381.427 226.828 381.29 226.91C381.153 226.992 381.002 227.033 380.837 227.033Z" fill="#FF00CC"/>
<path d="M386.041 228.22C385.355 228.22 384.766 228.046 384.275 227.697C383.784 227.348 383.407 226.843 383.144 226.183C382.881 225.523 382.75 224.727 382.75 223.795C382.753 222.863 382.886 222.07 383.149 221.415C383.412 220.76 383.789 220.261 384.279 219.916C384.77 219.571 385.357 219.398 386.041 219.398C386.725 219.398 387.313 219.571 387.806 219.916C388.298 220.261 388.676 220.761 388.938 221.417C389.201 222.074 389.332 222.866 389.332 223.795C389.332 224.723 389.201 225.526 388.938 226.187C388.675 226.847 388.299 227.352 387.808 227.7C387.317 228.047 386.729 228.221 386.041 228.221V228.22ZM386.041 226.915C386.576 226.915 386.997 226.651 387.307 226.124C387.617 225.597 387.773 224.82 387.773 223.795C387.773 223.116 387.701 222.546 387.56 222.085C387.418 221.623 387.217 221.275 386.959 221.04C386.701 220.805 386.395 220.687 386.041 220.687C385.51 220.687 385.09 220.951 384.782 221.478C384.473 222.005 384.317 222.777 384.315 223.795C384.312 224.476 384.38 225.049 384.521 225.514C384.661 225.978 384.861 226.327 385.12 226.562C385.378 226.797 385.686 226.915 386.041 226.915Z" fill="#FF00CC"/>
<path d="M393.344 228.22C392.657 228.22 392.068 228.046 391.577 227.697C391.086 227.348 390.709 226.843 390.447 226.183C390.184 225.523 390.053 224.727 390.053 223.795C390.055 222.863 390.189 222.07 390.451 221.415C390.714 220.76 391.091 220.261 391.581 219.916C392.072 219.571 392.66 219.398 393.344 219.398C394.028 219.398 394.616 219.571 395.108 219.916C395.6 220.261 395.978 220.761 396.241 221.417C396.504 222.074 396.635 222.866 396.635 223.795C396.635 224.723 396.503 225.526 396.241 226.187C395.978 226.847 395.601 227.352 395.11 227.7C394.619 228.047 394.031 228.221 393.344 228.221V228.22ZM393.344 226.915C393.878 226.915 394.299 226.651 394.61 226.124C394.92 225.597 395.075 224.82 395.075 223.795C395.075 223.116 395.004 222.546 394.862 222.085C394.72 221.623 394.52 221.275 394.261 221.04C394.003 220.805 393.697 220.687 393.344 220.687C392.812 220.687 392.392 220.951 392.084 221.478C391.775 222.005 391.619 222.777 391.617 223.795C391.614 224.476 391.683 225.049 391.823 225.514C391.963 225.978 392.163 226.327 392.422 226.562C392.681 226.797 392.988 226.915 393.344 226.915Z" fill="#FF00CC"/>
<path d="M365.542 238.597V237.479L368.508 234.572C368.792 234.286 369.028 234.031 369.217 233.809C369.407 233.586 369.548 233.371 369.643 233.162C369.737 232.954 369.784 232.731 369.784 232.495C369.784 232.225 369.723 231.994 369.601 231.8C369.478 231.607 369.31 231.457 369.096 231.352C368.882 231.246 368.639 231.193 368.366 231.193C368.094 231.193 367.839 231.251 367.628 231.366C367.417 231.482 367.253 231.645 367.138 231.856C367.023 232.067 366.965 232.319 366.965 232.611H365.493C365.493 232.069 365.617 231.598 365.864 231.197C366.111 230.797 366.453 230.487 366.888 230.267C367.323 230.047 367.823 229.938 368.387 229.938C368.952 229.938 369.464 230.045 369.898 230.259C370.331 230.473 370.668 230.766 370.909 231.139C371.15 231.512 371.27 231.937 371.27 232.415C371.27 232.735 371.208 233.049 371.086 233.358C370.964 233.667 370.749 234.008 370.441 234.384C370.134 234.76 369.704 235.214 369.151 235.748L367.678 237.245V237.304H371.399V238.596H365.543L365.542 238.597Z" fill="#FF00CC"/>
<path d="M372.988 238.597V237.479L375.954 234.572C376.237 234.286 376.474 234.031 376.663 233.809C376.852 233.586 376.994 233.371 377.088 233.162C377.183 232.954 377.23 232.731 377.23 232.495C377.23 232.225 377.169 231.994 377.046 231.8C376.924 231.607 376.756 231.457 376.542 231.352C376.328 231.246 376.084 231.193 375.812 231.193C375.54 231.193 375.285 231.251 375.074 231.366C374.863 231.482 374.699 231.645 374.584 231.856C374.469 232.067 374.411 232.319 374.411 232.611H372.938C372.938 232.069 373.062 231.598 373.31 231.197C373.557 230.797 373.898 230.487 374.334 230.267C374.769 230.047 375.269 229.938 375.833 229.938C376.398 229.938 376.91 230.045 377.343 230.259C377.777 230.473 378.114 230.766 378.355 231.139C378.595 231.512 378.716 231.937 378.716 232.415C378.716 232.735 378.654 233.049 378.532 233.358C378.409 233.667 378.194 234.008 377.887 234.384C377.58 234.76 377.149 235.214 376.596 235.748L375.124 237.245V237.304H378.845V238.596H372.989L372.988 238.597Z" fill="#FF00CC"/>
<path d="M380.837 233.335C380.584 233.335 380.367 233.246 380.187 233.066C380.006 232.887 379.917 232.671 379.92 232.417C379.917 232.167 380.006 231.952 380.187 231.773C380.367 231.593 380.585 231.504 380.837 231.504C381.09 231.504 381.295 231.593 381.478 231.773C381.66 231.952 381.752 232.167 381.755 232.417C381.752 232.585 381.709 232.737 381.624 232.876C381.539 233.015 381.427 233.126 381.29 233.21C381.153 233.293 381.002 233.335 380.837 233.335V233.335ZM380.837 237.569C380.584 237.569 380.367 237.479 380.187 237.3C380.006 237.12 379.917 236.904 379.92 236.651C379.917 236.401 380.006 236.186 380.187 236.009C380.367 235.831 380.585 235.742 380.837 235.742C381.09 235.742 381.295 235.831 381.478 236.009C381.66 236.186 381.752 236.401 381.755 236.651C381.752 236.821 381.709 236.975 381.624 237.114C381.539 237.253 381.427 237.364 381.29 237.445C381.153 237.527 381.002 237.568 380.837 237.568V237.569Z" fill="#FF00CC"/>
<path d="M386.103 238.759C385.417 238.759 384.828 238.585 384.337 238.236C383.846 237.887 383.469 237.382 383.206 236.722C382.943 236.062 382.812 235.266 382.812 234.334C382.815 233.402 382.948 232.609 383.211 231.954C383.474 231.299 383.851 230.799 384.341 230.455C384.832 230.11 385.419 229.938 386.103 229.938C386.787 229.938 387.375 230.11 387.868 230.455C388.36 230.8 388.738 231.301 389 231.956C389.263 232.613 389.394 233.405 389.394 234.334C389.394 235.262 389.263 236.066 389 236.726C388.737 237.387 388.361 237.891 387.87 238.238C387.379 238.586 386.791 238.759 386.103 238.759ZM386.103 237.454C386.638 237.454 387.059 237.19 387.369 236.663C387.679 236.136 387.835 235.359 387.835 234.334C387.835 233.655 387.763 233.085 387.622 232.624C387.48 232.162 387.279 231.814 387.021 231.579C386.763 231.344 386.457 231.226 386.103 231.226C385.572 231.226 385.152 231.49 384.844 232.017C384.535 232.544 384.379 233.316 384.377 234.334C384.374 235.015 384.442 235.588 384.583 236.053C384.723 236.517 384.923 236.866 385.182 237.101C385.44 237.336 385.748 237.454 386.103 237.454Z" fill="#FF00CC"/>
<path d="M393.41 238.759C392.723 238.759 392.134 238.585 391.643 238.236C391.152 237.887 390.775 237.382 390.513 236.722C390.25 236.062 390.119 235.266 390.119 234.334C390.121 233.402 390.254 232.609 390.517 231.954C390.78 231.299 391.157 230.799 391.647 230.455C392.138 230.11 392.726 229.938 393.41 229.938C394.094 229.938 394.682 230.11 395.174 230.455C395.666 230.8 396.044 231.301 396.306 231.956C396.569 232.613 396.7 233.405 396.7 234.334C396.7 235.262 396.569 236.066 396.306 236.726C396.043 237.387 395.667 237.891 395.176 238.238C394.685 238.586 394.097 238.759 393.41 238.759ZM393.41 237.454C393.944 237.454 394.365 237.19 394.676 236.663C394.985 236.136 395.141 235.359 395.141 234.334C395.141 233.655 395.07 233.085 394.928 232.624C394.786 232.162 394.586 231.814 394.327 231.579C394.069 231.344 393.763 231.226 393.41 231.226C392.878 231.226 392.458 231.49 392.15 232.017C391.841 232.544 391.685 233.316 391.683 234.334C391.68 235.015 391.748 235.588 391.889 236.053C392.029 236.517 392.229 236.866 392.488 237.101C392.747 237.336 393.054 237.454 393.41 237.454Z" fill="#FF00CC"/>
<path d="M371.608 226.762H365.946V228.055H371.608V226.762Z" fill="#FF00CC"/>
<path d="M370.191 246.204C369.963 246.204 369.767 246.155 369.602 246.057C369.438 245.959 369.311 245.821 369.222 245.643C369.134 245.464 369.089 245.255 369.089 245.015C369.089 244.775 369.134 244.569 369.222 244.388C369.311 244.208 369.436 244.066 369.596 243.964C369.756 243.863 369.944 243.812 370.159 243.812C370.289 243.812 370.416 243.834 370.539 243.877C370.661 243.92 370.771 243.988 370.868 244.08C370.966 244.173 371.043 244.293 371.099 244.44C371.156 244.587 371.184 244.765 371.184 244.976V245.135H369.344V244.798H370.742C370.742 244.679 370.718 244.574 370.67 244.482C370.622 244.39 370.554 244.318 370.467 244.264C370.381 244.211 370.279 244.184 370.162 244.184C370.036 244.184 369.926 244.215 369.832 244.277C369.738 244.339 369.666 244.419 369.614 244.518C369.563 244.617 369.538 244.724 369.538 244.84V245.103C369.538 245.258 369.566 245.39 369.62 245.498C369.675 245.607 369.752 245.69 369.85 245.746C369.948 245.803 370.063 245.831 370.195 245.831C370.28 245.831 370.358 245.819 370.428 245.794C370.498 245.769 370.559 245.733 370.61 245.684C370.662 245.635 370.701 245.574 370.728 245.502L371.154 245.579C371.12 245.704 371.059 245.814 370.971 245.908C370.883 246.002 370.773 246.075 370.641 246.126C370.509 246.178 370.359 246.204 370.19 246.204L370.191 246.204Z" fill="#FF00CC"/>
<path d="M371.528 246.163L372.425 244.978L371.539 243.848H372.063L372.779 244.809H372.94V243.848H373.391V244.809H373.547L374.263 243.848H374.788L373.906 244.978L374.798 246.163H374.263L373.541 245.198H373.39V246.163H372.939V245.198H372.789L372.062 246.163H371.527H371.528Z" fill="#FF00CC"/>
<path d="M376.202 246.204C375.974 246.204 375.778 246.155 375.614 246.057C375.449 245.959 375.323 245.821 375.234 245.643C375.145 245.464 375.101 245.255 375.101 245.015C375.101 244.775 375.145 244.569 375.234 244.388C375.323 244.208 375.447 244.066 375.607 243.964C375.767 243.863 375.955 243.812 376.17 243.812C376.3 243.812 376.427 243.834 376.55 243.877C376.672 243.92 376.782 243.988 376.88 244.08C376.977 244.173 377.054 244.293 377.11 244.44C377.167 244.587 377.195 244.765 377.195 244.976V245.135H375.355V244.798H376.754C376.754 244.679 376.729 244.574 376.681 244.482C376.633 244.39 376.565 244.318 376.479 244.264C376.392 244.211 376.29 244.184 376.174 244.184C376.047 244.184 375.937 244.215 375.843 244.277C375.749 244.339 375.677 244.419 375.626 244.518C375.574 244.617 375.55 244.724 375.55 244.84V245.103C375.55 245.258 375.577 245.39 375.631 245.498C375.686 245.607 375.763 245.69 375.861 245.746C375.96 245.803 376.074 245.831 376.206 245.831C376.291 245.831 376.369 245.819 376.439 245.794C376.509 245.769 376.57 245.733 376.622 245.684C376.673 245.635 376.712 245.574 376.739 245.502L377.165 245.579C377.131 245.704 377.07 245.814 376.982 245.908C376.894 246.002 376.784 246.075 376.652 246.126C376.52 246.178 376.37 246.204 376.201 246.204L376.202 246.204Z" fill="#FF00CC"/>
<path d="M377.513 246.83V245.772H377.702C377.75 245.728 377.791 245.675 377.825 245.613C377.859 245.552 377.887 245.479 377.91 245.395C377.934 245.31 377.954 245.212 377.97 245.099C377.986 244.986 378 244.857 378.012 244.711L378.084 243.848H379.657V245.772H380.013V246.83H379.573V246.162H377.959V246.83H377.513ZM378.184 245.772H379.217V244.233H378.488L378.44 244.711C378.416 244.954 378.387 245.164 378.352 245.343C378.317 245.521 378.261 245.664 378.184 245.771V245.772Z" fill="#FF00CC"/>
<path d="M380.938 243.848V246.163H380.496V243.848H380.938ZM382.064 244.811V245.201H380.811V244.811H382.064ZM382.379 243.848V246.163H381.939V243.848H382.379Z" fill="#FF00CC"/>
<path d="M384.019 246.204C383.791 246.204 383.594 246.155 383.43 246.057C383.266 245.959 383.139 245.821 383.05 245.643C382.961 245.464 382.917 245.255 382.917 245.015C382.917 244.775 382.962 244.569 383.05 244.388C383.139 244.208 383.264 244.066 383.424 243.964C383.584 243.863 383.771 243.812 383.986 243.812C384.117 243.812 384.243 243.834 384.366 243.877C384.489 243.92 384.599 243.988 384.696 244.08C384.794 244.173 384.87 244.293 384.927 244.44C384.983 244.587 385.011 244.765 385.011 244.976V245.135H383.171V244.798H384.57C384.57 244.679 384.546 244.574 384.498 244.482C384.45 244.39 384.382 244.318 384.295 244.264C384.208 244.211 384.106 244.184 383.99 244.184C383.863 244.184 383.753 244.215 383.659 244.277C383.565 244.339 383.493 244.419 383.442 244.518C383.391 244.617 383.366 244.724 383.366 244.84V245.103C383.366 245.258 383.393 245.39 383.448 245.498C383.503 245.607 383.579 245.69 383.677 245.746C383.776 245.803 383.891 245.831 384.022 245.831C384.108 245.831 384.186 245.819 384.256 245.794C384.326 245.769 384.387 245.733 384.438 245.684C384.489 245.635 384.528 245.574 384.555 245.502L384.982 245.579C384.948 245.704 384.886 245.814 384.799 245.908C384.711 246.002 384.601 246.075 384.469 246.126C384.337 246.178 384.186 246.204 384.018 246.204L384.019 246.204Z" fill="#FF00CC"/>
<path d="M385.557 246.163V243.848H386.517C386.778 243.848 386.985 243.903 387.137 244.014C387.29 244.125 387.366 244.276 387.366 244.465C387.366 244.601 387.323 244.708 387.237 244.788C387.151 244.867 387.036 244.92 386.894 244.947C386.997 244.959 387.092 244.99 387.178 245.04C387.265 245.089 387.334 245.156 387.387 245.239C387.44 245.323 387.466 245.422 387.466 245.538C387.466 245.66 387.434 245.769 387.371 245.863C387.308 245.957 387.216 246.03 387.096 246.083C386.977 246.136 386.832 246.162 386.663 246.162H385.557L385.557 246.163ZM385.98 244.812H386.521C386.606 244.812 386.678 244.801 386.739 244.776C386.8 244.752 386.846 244.718 386.879 244.673C386.912 244.628 386.928 244.575 386.928 244.514C386.928 244.424 386.892 244.355 386.818 244.304C386.745 244.254 386.644 244.229 386.517 244.229H385.981V244.812L385.98 244.812ZM385.98 245.786H386.663C386.775 245.786 386.862 245.759 386.925 245.706C386.988 245.653 387.02 245.58 387.02 245.489C387.02 245.382 386.988 245.297 386.925 245.235C386.862 245.173 386.774 245.142 386.663 245.142H385.98V245.786Z" fill="#FF00CC"/>
<path d="M388.442 243.848V246.163H388.001V243.848H388.442ZM389.569 244.811V245.201H388.316V244.811H389.569ZM389.884 243.848V246.163H389.444V243.848H389.884Z" fill="#FF00CC"/>
<path d="M391.503 246.204C391.286 246.204 391.096 246.154 390.935 246.055C390.773 245.955 390.648 245.816 390.558 245.637C390.469 245.458 390.424 245.249 390.424 245.011C390.424 244.772 390.469 244.561 390.558 244.381C390.648 244.201 390.773 244.061 390.935 243.962C391.096 243.862 391.286 243.812 391.503 243.812C391.72 243.812 391.909 243.862 392.071 243.962C392.233 244.062 392.358 244.201 392.448 244.381C392.537 244.561 392.582 244.77 392.582 245.011C392.582 245.251 392.537 245.458 392.448 245.637C392.358 245.816 392.233 245.955 392.071 246.055C391.909 246.154 391.72 246.204 391.503 246.204ZM391.504 245.826C391.645 245.826 391.762 245.788 391.854 245.714C391.946 245.64 392.015 245.54 392.06 245.417C392.105 245.294 392.127 245.157 392.127 245.008C392.127 244.86 392.104 244.725 392.06 244.601C392.015 244.477 391.947 244.377 391.854 244.302C391.762 244.226 391.645 244.189 391.504 244.189C391.364 244.189 391.246 244.226 391.153 244.302C391.06 244.377 390.991 244.477 390.946 244.601C390.901 244.725 390.879 244.861 390.879 245.008C390.879 245.156 390.901 245.293 390.946 245.417C390.991 245.54 391.06 245.64 391.153 245.714C391.245 245.788 391.363 245.826 391.504 245.826Z" fill="#FF00CC"/>
<rect x="343" y="323.473" width="20.7457" height="10.0382" rx="5.01912" fill="#FF00CC"/>
<path d="M359.899 329.59V327.911H359.496C359.388 327.911 359.305 327.936 359.248 327.987C359.191 328.037 359.163 328.097 359.164 328.165C359.163 328.235 359.19 328.294 359.245 328.343C359.301 328.39 359.383 328.414 359.491 328.414H360.097V328.816H359.491C359.307 328.816 359.149 328.788 359.015 328.732C358.881 328.677 358.777 328.599 358.705 328.499C358.632 328.399 358.596 328.282 358.597 328.149C358.596 328.009 358.632 327.887 358.705 327.781C358.777 327.675 358.881 327.593 359.016 327.534C359.152 327.475 359.312 327.445 359.496 327.445H360.453V329.59H359.899ZM358.536 329.59L359.132 328.473H359.7L359.105 329.59H358.536Z" fill="white"/>
<path d="M358.01 326.657L358.191 327.045C358.131 327.096 358.064 327.133 357.99 327.157C357.916 327.18 357.828 327.196 357.726 327.203C357.625 327.211 357.501 327.216 357.355 327.219C357.189 327.221 357.054 327.247 356.95 327.298C356.845 327.349 356.766 327.43 356.712 327.54C356.658 327.649 356.623 327.791 356.606 327.967H356.627C356.691 327.836 356.781 327.734 356.898 327.663C357.015 327.591 357.16 327.555 357.332 327.555C357.515 327.555 357.674 327.595 357.811 327.675C357.949 327.755 358.056 327.87 358.132 328.02C358.209 328.17 358.247 328.35 358.247 328.559C358.247 328.777 358.204 328.967 358.118 329.128C358.034 329.288 357.913 329.412 357.757 329.501C357.6 329.588 357.414 329.632 357.198 329.632C356.981 329.632 356.794 329.586 356.637 329.495C356.48 329.404 356.359 329.269 356.274 329.091C356.189 328.914 356.146 328.695 356.146 328.435V328.259C356.146 327.742 356.247 327.359 356.448 327.11C356.649 326.86 356.945 326.734 357.335 326.73C357.441 326.728 357.537 326.728 357.623 326.728C357.708 326.729 357.783 326.725 357.848 326.716C357.913 326.707 357.967 326.687 358.01 326.657ZM357.201 329.171C357.292 329.171 357.37 329.147 357.436 329.1C357.502 329.052 357.552 328.984 357.588 328.896C357.624 328.808 357.642 328.702 357.642 328.579C357.642 328.457 357.624 328.354 357.588 328.269C357.552 328.183 357.502 328.118 357.436 328.073C357.369 328.029 357.29 328.006 357.198 328.006C357.129 328.006 357.067 328.019 357.012 328.044C356.957 328.069 356.91 328.106 356.871 328.156C356.833 328.204 356.803 328.264 356.782 328.336C356.761 328.407 356.751 328.488 356.751 328.579C356.751 328.762 356.791 328.907 356.87 329.013C356.95 329.118 357.06 329.171 357.201 329.171Z" fill="white"/>
<path d="M354.853 329.632C354.633 329.632 354.443 329.587 354.283 329.498C354.125 329.408 354.003 329.28 353.918 329.115C353.832 328.95 353.789 328.754 353.789 328.527C353.789 328.307 353.832 328.113 353.918 327.946C354.003 327.78 354.124 327.65 354.279 327.557C354.436 327.464 354.619 327.417 354.83 327.417C354.971 327.417 355.103 327.44 355.225 327.485C355.348 327.53 355.455 327.598 355.546 327.688C355.638 327.778 355.71 327.892 355.761 328.029C355.812 328.165 355.838 328.324 355.838 328.506V328.67H354.026V328.301H355.278C355.278 328.215 355.259 328.139 355.222 328.073C355.185 328.007 355.133 327.956 355.067 327.918C355.002 327.88 354.926 327.861 354.839 327.861C354.749 327.861 354.669 327.882 354.599 327.924C354.53 327.965 354.476 328.02 354.437 328.09C354.398 328.159 354.378 328.236 354.377 328.321V328.671C354.377 328.777 354.397 328.869 354.436 328.946C354.476 329.024 354.532 329.083 354.605 329.125C354.677 329.167 354.763 329.188 354.863 329.188C354.929 329.188 354.99 329.179 355.045 329.16C355.1 329.141 355.147 329.113 355.186 329.076C355.225 329.039 355.255 328.993 355.275 328.939L355.825 328.976C355.797 329.108 355.74 329.223 355.654 329.322C355.568 329.42 355.457 329.496 355.321 329.551C355.186 329.605 355.03 329.632 354.853 329.632Z" fill="white"/>
<path d="M352.536 329.632C352.317 329.632 352.128 329.585 351.969 329.492C351.812 329.398 351.691 329.268 351.606 329.101C351.522 328.935 351.48 328.743 351.48 328.526C351.48 328.306 351.523 328.113 351.608 327.948C351.693 327.781 351.815 327.651 351.972 327.558C352.129 327.464 352.317 327.417 352.533 327.417C352.721 327.417 352.885 327.451 353.025 327.519C353.166 327.587 353.277 327.682 353.359 327.805C353.441 327.928 353.486 328.072 353.494 328.238H352.933C352.917 328.131 352.875 328.045 352.807 327.98C352.74 327.914 352.652 327.881 352.543 327.881C352.451 327.881 352.371 327.906 352.302 327.956C352.234 328.005 352.181 328.078 352.142 328.173C352.104 328.268 352.085 328.382 352.085 328.518C352.085 328.654 352.104 328.771 352.141 328.867C352.179 328.963 352.233 329.036 352.302 329.086C352.371 329.136 352.451 329.161 352.543 329.161C352.611 329.161 352.672 329.147 352.726 329.119C352.781 329.091 352.826 329.051 352.862 328.998C352.898 328.944 352.922 328.879 352.933 328.804H353.494C353.485 328.968 353.44 329.112 353.36 329.237C353.281 329.361 353.172 329.457 353.032 329.527C352.892 329.597 352.727 329.632 352.536 329.632Z" fill="white"/>
<path d="M348.988 329.631C348.851 329.631 348.729 329.607 348.622 329.559C348.515 329.511 348.43 329.44 348.368 329.346C348.306 329.251 348.275 329.132 348.275 328.991C348.275 328.872 348.297 328.772 348.341 328.691C348.385 328.61 348.444 328.545 348.52 328.495C348.595 328.446 348.681 328.409 348.777 328.383C348.874 328.358 348.975 328.341 349.081 328.33C349.206 328.317 349.307 328.305 349.383 328.294C349.459 328.282 349.515 328.264 349.549 328.241C349.584 328.218 349.601 328.183 349.601 328.138V328.129C349.601 328.041 349.573 327.972 349.517 327.924C349.462 327.876 349.384 327.851 349.282 327.851C349.175 327.851 349.09 327.875 349.027 327.923C348.963 327.969 348.922 328.028 348.901 328.099L348.351 328.054C348.379 327.923 348.434 327.811 348.516 327.716C348.598 327.62 348.703 327.546 348.833 327.495C348.963 327.443 349.114 327.417 349.285 327.417C349.404 327.417 349.518 327.431 349.627 327.459C349.737 327.487 349.834 327.53 349.919 327.589C350.005 327.647 350.072 327.723 350.122 327.815C350.171 327.906 350.196 328.016 350.196 328.143V329.59H349.631V329.293H349.615C349.58 329.36 349.534 329.419 349.476 329.47C349.419 329.52 349.349 329.56 349.268 329.589C349.187 329.617 349.094 329.631 348.988 329.631ZM349.158 329.22C349.246 329.22 349.323 329.203 349.39 329.168C349.457 329.133 349.51 329.085 349.548 329.026C349.586 328.966 349.605 328.899 349.605 328.823V328.596C349.586 328.608 349.561 328.619 349.528 328.629C349.496 328.639 349.461 328.647 349.421 328.656C349.381 328.663 349.341 328.67 349.3 328.677C349.26 328.682 349.224 328.687 349.192 328.692C349.122 328.702 349.061 328.719 349.009 328.741C348.956 328.763 348.916 328.794 348.887 328.832C348.858 328.869 348.844 328.916 348.844 328.971C348.844 329.052 348.873 329.114 348.932 329.157C348.991 329.199 349.067 329.22 349.158 329.22Z" fill="white"/>
<path d="M347.541 328.28V328.748H346.421V328.28H347.541ZM346.617 327.445V329.59H346.048V327.445H346.617ZM347.914 327.445V329.59H347.35V327.445H347.914Z" fill="white"/>
<circle cx="322.5" cy="344.242" r="4.5" fill="#F5F5F5" stroke="#555555"/>
<path d="M436.5 222.742C436.5 221.361 437.619 220.242 439 220.242H447.5V228.242H439C437.619 228.242 436.5 227.123 436.5 225.742V222.742Z" fill="#F5F5F5" stroke="#555555"/>
<path d="M440.5 228.242H449C450.381 228.242 451.5 229.361 451.5 230.742V233.742C451.5 235.123 450.381 236.242 449 236.242H440.5V228.242Z" fill="#F5F5F5" stroke="#555555"/>
<path d="M440.5 212.242H449C450.381 212.242 451.5 213.361 451.5 214.742V217.742C451.5 219.123 450.381 220.242 449 220.242H440.5V212.242Z" fill="#F5F5F5" stroke="#555555"/>
<path d="M436.5 272.742C436.5 271.361 437.619 270.242 439 270.242H447.5V278.242H439C437.619 278.242 436.5 277.123 436.5 275.742V272.742Z" fill="#F5F5F5" stroke="#555555"/>
<path d="M440.5 278.242H449C450.381 278.242 451.5 279.361 451.5 280.742V283.742C451.5 285.123 450.381 286.242 449 286.242H440.5V278.242Z" fill="#F5F5F5" stroke="#555555"/>
<path d="M440.5 262.242H449C450.381 262.242 451.5 263.361 451.5 264.742V267.742C451.5 269.123 450.381 270.242 449 270.242H440.5V262.242Z" fill="#F5F5F5" stroke="#555555"/>
<path d="M436.5 431.742C436.5 430.361 437.619 429.242 439 429.242H447.5V437.242H439C437.619 437.242 436.5 436.123 436.5 434.742V431.742Z" fill="#F5F5F5" stroke="#555555"/>
<path d="M440.5 437.242H449C450.381 437.242 451.5 438.361 451.5 439.742V442.742C451.5 444.123 450.381 445.242 449 445.242H440.5V437.242Z" fill="#F5F5F5" stroke="#555555"/>
<path d="M440.5 421.242H449C450.381 421.242 451.5 422.361 451.5 423.742V426.742C451.5 428.123 450.381 429.242 449 429.242H440.5V421.242Z" fill="#F5F5F5" stroke="#555555"/>
<rect x="250.5" y="99.2422" width="203" height="4" fill="#F5F5F5" stroke="#555555"/>
<path d="M338.5 410.73V414.242H324.5V410.73H338.5ZM324.5 230.754V227.242H338.5V230.754H324.5Z" fill="#F5F5F5" stroke="#555555"/>
<path d="M335.5 186.242H340.5V455.242H335.5V414.242V409.742V231.242V226.742V186.242Z" fill="#F5F5F5" stroke="#555555"/>
<g filter="url(#filter0_d_3114_13269)">
<rect x="492" y="199.742" width="60.48" height="60.48" rx="24.4604" fill="#FF00CC"/>
</g>
<path fill-rule="evenodd" clip-rule="evenodd" d="M534.733 231.207C532.3 231.207 530.253 229.254 530.253 226.71C530.253 224.166 532.179 222.233 534.753 222.233C537.327 222.233 539.253 224.248 539.253 226.71C539.253 229.172 537.205 231.207 534.733 231.207ZM517.961 227.769L514.677 219.181H512.164L508.86 227.769L505.556 219.181H501.644L507.42 234.28H509.934L513.4 225.286L516.886 234.28H519.399L525.155 219.181H521.264L517.96 227.769H517.961ZM534.753 218.612C533.07 218.612 531.55 219.12 530.253 219.995V212.019H526.666V226.731C526.666 231.207 530.294 234.809 534.733 234.809C539.172 234.809 542.841 231.227 542.841 226.69C542.841 222.152 539.253 218.611 534.753 218.611L534.753 218.612Z" fill="white"/>
<rect x="510.729" y="240.743" width="23.4166" height="3.34523" fill="white"/>
<path d="M61 229.742L491 229.742" stroke="black" stroke-width="2" stroke-linecap="round" stroke-dasharray="12 12"/>
<path d="M132.707 233.035C132.317 232.645 131.683 232.645 131.293 233.035L124.929 239.399C124.538 239.79 124.538 240.423 124.929 240.813C125.319 241.204 125.953 241.204 126.343 240.813L132 235.156L137.657 240.813C138.047 241.204 138.681 241.204 139.071 240.813C139.462 240.423 139.462 239.79 139.071 239.399L132.707 233.035ZM133 333.242L133 233.742L131 233.742L131 333.242L133 333.242Z" fill="black"/>
<rect x="73" y="333.242" width="119" height="44" rx="10" fill="black"/>
<path d="M94.2812 347.242V363.242H92.3438V349.273H92.25L88.3438 351.867V349.898L92.3438 347.242H94.2812ZM104.195 363.461C103.539 363.451 102.883 363.326 102.227 363.086C101.57 362.846 100.971 362.443 100.43 361.875C99.888 361.302 99.4531 360.529 99.125 359.555C98.7969 358.576 98.6328 357.346 98.6328 355.867C98.6328 354.451 98.7656 353.195 99.0312 352.102C99.2969 351.003 99.6823 350.078 100.188 349.328C100.693 348.573 101.302 348 102.016 347.609C102.734 347.219 103.544 347.023 104.445 347.023C105.341 347.023 106.138 347.203 106.836 347.563C107.539 347.917 108.112 348.411 108.555 349.047C108.997 349.682 109.284 350.414 109.414 351.242H107.508C107.331 350.523 106.987 349.927 106.477 349.453C105.966 348.979 105.289 348.742 104.445 348.742C103.206 348.742 102.229 349.281 101.516 350.359C100.807 351.437 100.451 352.951 100.445 354.898H100.57C100.862 354.456 101.208 354.078 101.609 353.766C102.016 353.448 102.464 353.203 102.953 353.031C103.443 352.859 103.961 352.773 104.508 352.773C105.424 352.773 106.263 353.003 107.023 353.461C107.784 353.914 108.393 354.542 108.852 355.344C109.31 356.141 109.539 357.055 109.539 358.086C109.539 359.076 109.318 359.982 108.875 360.805C108.432 361.622 107.81 362.273 107.008 362.758C106.211 363.237 105.273 363.471 104.195 363.461ZM104.195 361.742C104.852 361.742 105.44 361.578 105.961 361.25C106.487 360.922 106.901 360.482 107.203 359.93C107.51 359.378 107.664 358.763 107.664 358.086C107.664 357.424 107.516 356.823 107.219 356.281C106.927 355.734 106.523 355.299 106.008 354.977C105.497 354.654 104.914 354.492 104.258 354.492C103.763 354.492 103.302 354.591 102.875 354.789C102.448 354.982 102.073 355.247 101.75 355.586C101.432 355.924 101.182 356.312 101 356.75C100.818 357.182 100.727 357.638 100.727 358.117C100.727 358.753 100.875 359.346 101.172 359.898C101.474 360.451 101.885 360.896 102.406 361.234C102.932 361.573 103.529 361.742 104.195 361.742ZM117.611 363.461C116.695 363.461 115.869 363.279 115.135 362.914C114.4 362.549 113.812 362.049 113.369 361.414C112.926 360.779 112.684 360.055 112.643 359.242H114.518C114.59 359.966 114.919 360.565 115.502 361.039C116.09 361.508 116.794 361.742 117.611 361.742C118.268 361.742 118.851 361.589 119.361 361.281C119.877 360.974 120.281 360.552 120.572 360.016C120.869 359.474 121.018 358.862 121.018 358.18C121.018 357.482 120.864 356.859 120.557 356.312C120.255 355.76 119.838 355.326 119.307 355.008C118.775 354.69 118.169 354.529 117.486 354.523C116.997 354.518 116.494 354.594 115.979 354.75C115.463 354.901 115.038 355.096 114.705 355.336L112.893 355.117L113.861 347.242H122.174V348.961H115.486L114.924 353.68H115.018C115.346 353.419 115.757 353.203 116.252 353.031C116.747 352.859 117.262 352.773 117.799 352.773C118.778 352.773 119.65 353.008 120.416 353.477C121.187 353.94 121.791 354.576 122.229 355.383C122.671 356.19 122.893 357.112 122.893 358.148C122.893 359.169 122.663 360.081 122.205 360.883C121.752 361.68 121.127 362.31 120.33 362.773C119.533 363.232 118.627 363.461 117.611 363.461ZM131.215 363.461C130.038 363.461 129.035 363.141 128.207 362.5C127.379 361.854 126.746 360.919 126.309 359.695C125.871 358.466 125.652 356.982 125.652 355.242C125.652 353.513 125.871 352.036 126.309 350.812C126.751 349.583 127.387 348.646 128.215 348C129.048 347.349 130.048 347.023 131.215 347.023C132.382 347.023 133.379 347.349 134.207 348C135.04 348.646 135.676 349.583 136.113 350.812C136.556 352.036 136.777 353.513 136.777 355.242C136.777 356.982 136.559 358.466 136.121 359.695C135.684 360.919 135.051 361.854 134.223 362.5C133.395 363.141 132.392 363.461 131.215 363.461ZM131.215 361.742C132.382 361.742 133.288 361.18 133.934 360.055C134.579 358.93 134.902 357.326 134.902 355.242C134.902 353.857 134.754 352.677 134.457 351.703C134.165 350.729 133.743 349.987 133.191 349.477C132.645 348.966 131.986 348.711 131.215 348.711C130.059 348.711 129.155 349.281 128.504 350.422C127.853 351.557 127.527 353.164 127.527 355.242C127.527 356.628 127.673 357.805 127.965 358.773C128.257 359.742 128.676 360.479 129.223 360.984C129.775 361.49 130.439 361.742 131.215 361.742ZM152.527 360.742L156.715 351.242H158.465L153.277 363.242H151.777L146.684 351.242H148.402L152.527 360.742ZM147.809 351.242V363.242H145.965V351.242H147.809ZM157.246 363.242V351.242H159.09V363.242H157.246ZM169.027 360.742L173.215 351.242H174.965L169.777 363.242H168.277L163.184 351.242H164.902L169.027 360.742ZM164.309 351.242V363.242H162.465V351.242H164.309ZM173.746 363.242V351.242H175.59V363.242H173.746Z" fill="#E8E4EC"/>
<path d="M131.293 477.449C131.683 477.84 132.317 477.84 132.707 477.449L139.071 471.085C139.462 470.695 139.462 470.062 139.071 469.671C138.681 469.281 138.047 469.281 137.657 469.671L132 475.328L126.343 469.671C125.953 469.281 125.319 469.281 124.929 469.671C124.538 470.062 124.538 470.695 124.929 471.085L131.293 477.449ZM133 476.742L133 377.242L131 377.242L131 476.742L133 476.742Z" fill="black"/>
<rect x="317" y="32.7422" width="109" height="44" rx="10" fill="black"/>
<path d="M332.656 62.7422V61.3359L337.937 55.5547C338.557 54.8776 339.068 54.2891 339.469 53.7891C339.87 53.2839 340.167 52.8099 340.359 52.3672C340.557 51.9193 340.656 51.4505 340.656 50.9609C340.656 50.3984 340.521 49.9115 340.25 49.5C339.984 49.0885 339.62 48.7708 339.156 48.5469C338.693 48.3229 338.172 48.2109 337.594 48.2109C336.979 48.2109 336.443 48.3385 335.984 48.5937C335.531 48.8437 335.18 49.1953 334.93 49.6484C334.685 50.1016 334.563 50.6328 334.563 51.2422H332.719C332.719 50.3047 332.935 49.4818 333.367 48.7734C333.799 48.0651 334.388 47.513 335.133 47.1172C335.883 46.7214 336.724 46.5234 337.656 46.5234C338.594 46.5234 339.424 46.7214 340.148 47.1172C340.872 47.513 341.44 48.0469 341.852 48.7187C342.263 49.3906 342.469 50.138 342.469 50.9609C342.469 51.5495 342.362 52.125 342.148 52.6875C341.94 53.2448 341.576 53.8672 341.055 54.5547C340.539 55.237 339.823 56.0703 338.906 57.0547L335.313 60.8984V61.0234H342.75V62.7422H332.656ZM351.195 62.9609C350.018 62.9609 349.016 62.6406 348.188 62C347.359 61.3542 346.727 60.4193 346.289 59.1953C345.852 57.9661 345.633 56.4818 345.633 54.7422C345.633 53.013 345.852 51.5365 346.289 50.3125C346.732 49.0833 347.367 48.1458 348.195 47.5C349.029 46.849 350.029 46.5234 351.195 46.5234C352.362 46.5234 353.359 46.849 354.188 47.5C355.021 48.1458 355.656 49.0833 356.094 50.3125C356.536 51.5365 356.758 53.013 356.758 54.7422C356.758 56.4818 356.539 57.9661 356.102 59.1953C355.664 60.4193 355.031 61.3542 354.203 62C353.375 62.6406 352.372 62.9609 351.195 62.9609ZM351.195 61.2422C352.362 61.2422 353.268 60.6797 353.914 59.5547C354.56 58.4297 354.883 56.8255 354.883 54.7422C354.883 53.3568 354.734 52.1771 354.438 51.2031C354.146 50.2292 353.724 49.487 353.172 48.9766C352.625 48.4661 351.966 48.2109 351.195 48.2109C350.039 48.2109 349.135 48.7812 348.484 49.9219C347.833 51.0573 347.508 52.6641 347.508 54.7422C347.508 56.1276 347.654 57.3047 347.945 58.2734C348.237 59.2422 348.656 59.9792 349.203 60.4844C349.755 60.9896 350.419 61.2422 351.195 61.2422ZM364.945 62.9609C363.768 62.9609 362.766 62.6406 361.938 62C361.109 61.3542 360.477 60.4193 360.039 59.1953C359.602 57.9661 359.383 56.4818 359.383 54.7422C359.383 53.013 359.602 51.5365 360.039 50.3125C360.482 49.0833 361.117 48.1458 361.945 47.5C362.779 46.849 363.779 46.5234 364.945 46.5234C366.112 46.5234 367.109 46.849 367.938 47.5C368.771 48.1458 369.406 49.0833 369.844 50.3125C370.286 51.5365 370.508 53.013 370.508 54.7422C370.508 56.4818 370.289 57.9661 369.852 59.1953C369.414 60.4193 368.781 61.3542 367.953 62C367.125 62.6406 366.122 62.9609 364.945 62.9609ZM364.945 61.2422C366.112 61.2422 367.018 60.6797 367.664 59.5547C368.31 58.4297 368.633 56.8255 368.633 54.7422C368.633 53.3568 368.484 52.1771 368.188 51.2031C367.896 50.2292 367.474 49.487 366.922 48.9766C366.375 48.4661 365.716 48.2109 364.945 48.2109C363.789 48.2109 362.885 48.7812 362.234 49.9219C361.583 51.0573 361.258 52.6641 361.258 54.7422C361.258 56.1276 361.404 57.3047 361.695 58.2734C361.987 59.2422 362.406 59.9792 362.953 60.4844C363.505 60.9896 364.169 61.2422 364.945 61.2422ZM386.258 60.2422L390.445 50.7422H392.195L387.008 62.7422H385.508L380.414 50.7422H382.133L386.258 60.2422ZM381.539 50.7422V62.7422H379.695V50.7422H381.539ZM390.977 62.7422V50.7422H392.82V62.7422H390.977ZM402.758 60.2422L406.945 50.7422H408.695L403.508 62.7422H402.008L396.914 50.7422H398.633L402.758 60.2422ZM398.039 50.7422V62.7422H396.195V50.7422H398.039ZM407.477 62.7422V50.7422H409.32V62.7422H407.477Z" fill="#E8E4EC"/>
<path d="M450 54.7422H426" stroke="black" stroke-width="2"/>
<path d="M450 32.7422L450 229.742" stroke="black" stroke-width="2" stroke-linecap="round" stroke-dasharray="12 12"/>
<path d="M453.293 54.0351C452.902 54.4256 452.902 55.0588 453.293 55.4493L459.657 61.8133C460.047 62.2038 460.681 62.2038 461.071 61.8133C461.462 61.4227 461.462 60.7896 461.071 60.399L455.414 54.7422L461.071 49.0853C461.462 48.6948 461.462 48.0616 461.071 47.6711C460.681 47.2806 460.047 47.2806 459.657 47.6711L453.293 54.0351ZM470.5 53.7422H454V55.7422H470.5V53.7422Z" fill="black"/>
<path d="M487.707 55.4493C488.098 55.0588 488.098 54.4256 487.707 54.0351L481.343 47.6711C480.953 47.2806 480.319 47.2806 479.929 47.6711C479.538 48.0616 479.538 48.6948 479.929 49.0853L485.586 54.7422L479.929 60.399C479.538 60.7896 479.538 61.4227 479.929 61.8133C480.319 62.2038 480.953 62.2038 481.343 61.8133L487.707 55.4493ZM487 53.7422H470.5V55.7422H487V53.7422Z" fill="black"/>
<path d="M491 32.7422L491 229.742" stroke="black" stroke-width="2" stroke-linecap="round" stroke-dasharray="12 12"/>
<g opacity="0.3">
<path fill-rule="evenodd" clip-rule="evenodd" d="M67 119.742H186.168V206.742H67V119.742Z" fill="#A0A0A0"/>
<path fill-rule="evenodd" clip-rule="evenodd" d="M186.168 206.742H67L58 215.742H177.168L186.168 206.742Z" fill="#A0A0A0"/>
<path fill-rule="evenodd" clip-rule="evenodd" d="M67 206.742V119.742L58 128.742V215.742L67 206.742Z" fill="#A0A0A0"/>
</g>
<path fill-rule="evenodd" clip-rule="evenodd" d="M67 119.742H186.168V206.742H67V119.742Z" fill="#F5F5F5" stroke="#555555"/>
<circle cx="78.3322" cy="131.076" r="4.7521" fill="#D9D9D9"/>
<circle cx="126.584" cy="131.076" r="4.7521" fill="#D9D9D9"/>
<circle cx="94.4162" cy="131.076" r="4.7521" fill="#D9D9D9"/>
<circle cx="142.668" cy="131.076" r="4.7521" fill="#D9D9D9"/>
<circle cx="110.5" cy="131.076" r="4.7521" fill="#D9D9D9"/>
<circle cx="158.752" cy="131.076" r="4.7521" fill="#D9D9D9"/>
<circle cx="174.836" cy="131.076" r="4.7521" fill="#D9D9D9"/>
<circle cx="78.3322" cy="163.24" r="4.7521" fill="#D9D9D9"/>
<circle cx="126.584" cy="163.24" r="4.7521" fill="#D9D9D9"/>
<circle cx="94.4162" cy="163.24" r="4.7521" fill="#D9D9D9"/>
<circle cx="142.668" cy="163.24" r="4.7521" fill="#D9D9D9"/>
<circle cx="110.5" cy="163.24" r="4.7521" fill="#D9D9D9"/>
<circle cx="158.752" cy="163.24" r="4.7521" fill="#D9D9D9"/>
<circle cx="174.836" cy="163.24" r="4.7521" fill="#D9D9D9"/>
<circle cx="126.584" cy="147.158" r="4.7521" fill="#D9D9D9"/>
<circle cx="94.4162" cy="147.158" r="4.7521" fill="#D9D9D9"/>
<circle cx="142.668" cy="147.158" r="4.7521" fill="#D9D9D9"/>
<circle cx="110.5" cy="147.158" r="4.7521" fill="#D9D9D9"/>
<circle cx="158.752" cy="147.158" r="4.7521" fill="#D9D9D9"/>
<circle cx="126.584" cy="179.33" r="4.7521" fill="#D9D9D9"/>
<circle cx="94.4162" cy="179.33" r="4.7521" fill="#D9D9D9"/>
<circle cx="142.668" cy="179.33" r="4.7521" fill="#D9D9D9"/>
<circle cx="110.5" cy="179.33" r="4.7521" fill="#D9D9D9"/>
<circle cx="158.752" cy="179.33" r="4.7521" fill="#D9D9D9"/>
<circle cx="78.3322" cy="195.412" r="4.7521" fill="#D9D9D9"/>
<circle cx="126.584" cy="195.412" r="4.7521" fill="#D9D9D9"/>
<circle cx="94.4162" cy="195.412" r="4.7521" fill="#D9D9D9"/>
<circle cx="142.668" cy="195.412" r="4.7521" fill="#D9D9D9"/>
<circle cx="110.5" cy="195.412" r="4.7521" fill="#D9D9D9"/>
<circle cx="158.752" cy="195.412" r="4.7521" fill="#D9D9D9"/>
<circle cx="174.836" cy="195.412" r="4.7521" fill="#D9D9D9"/>
</g>
<defs>
<filter id="filter0_d_3114_13269" x="488.655" y="199.742" width="63.8252" height="64.9403" filterUnits="userSpaceOnUse" color-interpolation-filters="sRGB">
<feFlood flood-opacity="0" result="BackgroundImageFix"/>
<feColorMatrix in="SourceAlpha" type="matrix" values="0 0 0 0 0 0 0 0 0 0 0 0 0 0 0 0 0 0 127 0" result="hardAlpha"/>
<feOffset dx="-3.34523" dy="4.46031"/>
<feComposite in2="hardAlpha" operator="out"/>
<feColorMatrix type="matrix" values="0 0 0 0 0 0 0 0 0 0 0 0 0 0 0 0 0 0 0.25 0"/>
<feBlend mode="normal" in2="BackgroundImageFix" result="effect1_dropShadow_3114_13269"/>
<feBlend mode="normal" in="SourceGraphic" in2="effect1_dropShadow_3114_13269" result="shape"/>
</filter>
<clipPath id="clip0_3114_13269">
<rect width="592" height="480" fill="white" transform="translate(0 0.742188)"/>
</clipPath>
</defs>
</svg>
