<svg width="592" height="481" viewBox="0 0 592 481" fill="none" xmlns="http://www.w3.org/2000/svg">
<g clip-path="url(#clip0_3114_13236)">
<rect width="592" height="480" transform="translate(0 0.742188)" fill="#DFDBD8"/>
<path fill-rule="evenodd" clip-rule="evenodd" d="M55.4727 102.742H199.351V348.783H55.4727V102.742Z" fill="#F5F5F5" stroke="#555555"/>
<path d="M69.0938 116.364H185.729V335.161H69.0938V116.364Z" fill="#B5DADA" stroke="#555555" stroke-width="0.851351"/>
<rect x="52.0674" y="347.931" width="148.986" height="3.40541" fill="#555555"/>
<g opacity="0.3">
<path d="M52.0674 351.337H201.054L193.594 361.553H44.4053L52.0674 351.337Z" fill="#A0A0A0"/>
<path d="M44.4053 361.553L52.0674 351.337V347.931L44.4053 358.147V361.553Z" fill="#A0A0A0"/>
</g>
<rect x="-41" y="408.742" width="650" height="72" fill="#888585"/>
<rect width="204" height="378" transform="translate(337 102.742)" fill="#F5F5F5"/>
<path d="M416.956 178.342H517.376V464.576H416.956V178.342Z" fill="#B5DADA"/>
<path d="M386.937 178.342H361.284V465.576H386.937V178.342Z" fill="#B5DADA"/>
<path d="M360.975 116.352V148.128H516.711V116.352H360.975Z" fill="#B5DADA"/>
<path d="M401.974 480.317H532.5V163.222M401.974 480.317H345.532V163.222M401.974 480.317V163.222M401.974 163.222H345.532M401.974 163.222H532.5M345.532 163.222V103.168M532.5 163.222V103.168M337.5 103.168H540.5V480.317H337.5V103.168ZM416.956 178.342H517.376V464.576H416.956V178.342ZM386.937 178.342H361.284V465.576H386.937V178.342ZM360.975 148.128V116.352H516.711V148.128H360.975Z" stroke="#555555"/>
<path d="M472.329 208.391H463.22C453.157 208.391 445 216.548 445 226.61V235.72C445 245.782 453.157 253.94 463.22 253.94H472.329C482.392 253.94 490.549 245.782 490.549 235.72V226.61C490.549 216.548 482.392 208.391 472.329 208.391Z" stroke="#555555" stroke-width="1.1672" stroke-miterlimit="10"/>
<path d="M456.541 219.516V228.058H454.993V221.021H454.943L452.945 222.298V220.88L455.068 219.516H456.541Z" fill="#FF00CC"/>
<path d="M462.632 228.22C461.945 228.22 461.356 228.046 460.865 227.697C460.374 227.348 459.997 226.843 459.735 226.183C459.472 225.523 459.341 224.727 459.341 223.795C459.344 222.863 459.477 222.07 459.739 221.415C460.002 220.76 460.379 220.261 460.869 219.916C461.36 219.571 461.948 219.398 462.632 219.398C463.316 219.398 463.904 219.571 464.396 219.916C464.888 220.261 465.266 220.761 465.529 221.417C465.792 222.074 465.923 222.866 465.923 223.795C465.923 224.723 465.791 225.526 465.529 226.187C465.266 226.847 464.889 227.352 464.398 227.7C463.907 228.047 463.319 228.221 462.632 228.221V228.22ZM462.632 226.915C463.166 226.915 463.587 226.651 463.898 226.124C464.208 225.597 464.363 224.82 464.363 223.795C464.363 223.116 464.292 222.546 464.15 222.085C464.008 221.623 463.808 221.275 463.55 221.04C463.291 220.805 462.985 220.687 462.632 220.687C462.1 220.687 461.68 220.951 461.372 221.478C461.063 222.005 460.908 222.777 460.905 223.795C460.902 224.476 460.971 225.049 461.111 225.514C461.251 225.978 461.451 226.327 461.71 226.562C461.969 226.797 462.276 226.915 462.632 226.915Z" fill="#FF00CC"/>
<path d="M467.837 222.8C467.584 222.8 467.367 222.71 467.187 222.531C467.006 222.351 466.917 222.135 466.92 221.882C466.917 221.632 467.006 221.417 467.187 221.238C467.367 221.058 467.585 220.969 467.837 220.969C468.09 220.969 468.295 221.058 468.478 221.238C468.66 221.417 468.752 221.632 468.755 221.882C468.752 222.049 468.709 222.202 468.624 222.341C468.539 222.48 468.427 222.591 468.29 222.675C468.153 222.758 468.002 222.8 467.837 222.8ZM467.837 227.033C467.584 227.033 467.367 226.944 467.187 226.764C467.006 226.585 466.917 226.369 466.92 226.116C466.917 225.866 467.006 225.651 467.187 225.473C467.367 225.296 467.585 225.207 467.837 225.207C468.09 225.207 468.295 225.296 468.478 225.473C468.66 225.651 468.752 225.865 468.755 226.116C468.752 226.286 468.709 226.44 468.624 226.579C468.539 226.718 468.427 226.828 468.29 226.91C468.153 226.992 468.002 227.033 467.837 227.033Z" fill="#FF00CC"/>
<path d="M473.041 228.22C472.354 228.22 471.765 228.046 471.274 227.697C470.783 227.348 470.406 226.843 470.144 226.183C469.881 225.523 469.75 224.727 469.75 223.795C469.753 222.863 469.886 222.07 470.148 221.415C470.411 220.76 470.788 220.261 471.278 219.916C471.769 219.571 472.357 219.398 473.041 219.398C473.725 219.398 474.313 219.571 474.805 219.916C475.298 220.261 475.675 220.761 475.938 221.417C476.201 222.074 476.332 222.866 476.332 223.795C476.332 224.723 476.2 225.526 475.938 226.187C475.675 226.847 475.298 227.352 474.808 227.7C474.317 228.047 473.728 228.221 473.041 228.221V228.22ZM473.041 226.915C473.575 226.915 473.996 226.651 474.307 226.124C474.617 225.597 474.772 224.82 474.772 223.795C474.772 223.116 474.701 222.546 474.559 222.085C474.417 221.623 474.217 221.275 473.959 221.04C473.7 220.805 473.394 220.687 473.041 220.687C472.509 220.687 472.09 220.951 471.781 221.478C471.473 222.005 471.317 222.777 471.314 223.795C471.311 224.476 471.38 225.049 471.52 225.514C471.661 225.978 471.861 226.327 472.119 226.562C472.378 226.797 472.685 226.915 473.041 226.915Z" fill="#FF00CC"/>
<path d="M480.343 228.22C479.656 228.22 479.067 228.046 478.576 227.697C478.085 227.348 477.708 226.843 477.446 226.183C477.183 225.523 477.052 224.727 477.052 223.795C477.054 222.863 477.188 222.07 477.45 221.415C477.713 220.76 478.09 220.261 478.58 219.916C479.071 219.571 479.659 219.398 480.343 219.398C481.027 219.398 481.615 219.571 482.107 219.916C482.599 220.261 482.977 220.761 483.24 221.417C483.503 222.074 483.634 222.866 483.634 223.795C483.634 224.723 483.502 225.526 483.24 226.187C482.977 226.847 482.6 227.352 482.109 227.7C481.618 228.047 481.03 228.221 480.343 228.221V228.22ZM480.343 226.915C480.877 226.915 481.298 226.651 481.609 226.124C481.919 225.597 482.074 224.82 482.074 223.795C482.074 223.116 482.003 222.546 481.861 222.085C481.719 221.623 481.519 221.275 481.261 221.04C481.002 220.805 480.696 220.687 480.343 220.687C479.811 220.687 479.391 220.951 479.083 221.478C478.774 222.005 478.619 222.777 478.616 223.795C478.613 224.476 478.682 225.049 478.822 225.514C478.962 225.978 479.162 226.327 479.421 226.562C479.68 226.797 479.987 226.915 480.343 226.915Z" fill="#FF00CC"/>
<path d="M452.542 238.597V237.479L455.508 234.572C455.791 234.286 456.028 234.031 456.217 233.809C456.406 233.586 456.548 233.371 456.642 233.162C456.737 232.954 456.784 232.731 456.784 232.495C456.784 232.225 456.723 231.994 456.6 231.8C456.478 231.607 456.31 231.457 456.096 231.352C455.882 231.246 455.638 231.193 455.366 231.193C455.094 231.193 454.839 231.251 454.628 231.366C454.416 231.482 454.253 231.645 454.138 231.856C454.022 232.067 453.965 232.319 453.965 232.611H452.492C452.492 232.069 452.616 231.598 452.864 231.197C453.111 230.797 453.452 230.487 453.888 230.267C454.323 230.047 454.823 229.938 455.387 229.938C455.951 229.938 456.463 230.045 456.897 230.259C457.331 230.473 457.668 230.766 457.909 231.139C458.149 231.512 458.269 231.937 458.269 232.415C458.269 232.735 458.208 233.049 458.086 233.358C457.963 233.667 457.748 234.008 457.441 234.384C457.134 234.76 456.703 235.214 456.15 235.748L454.678 237.245V237.304H458.399V238.596H452.542L452.542 238.597Z" fill="#FF00CC"/>
<path d="M459.987 238.597V237.479L462.953 234.572C463.236 234.286 463.473 234.031 463.662 233.809C463.851 233.586 463.993 233.371 464.088 233.162C464.182 232.954 464.229 232.731 464.229 232.495C464.229 232.225 464.168 231.994 464.045 231.8C463.923 231.607 463.755 231.457 463.541 231.352C463.327 231.246 463.083 231.193 462.811 231.193C462.539 231.193 462.284 231.251 462.073 231.366C461.862 231.482 461.698 231.645 461.583 231.856C461.468 232.067 461.41 232.319 461.41 232.611H459.938C459.938 232.069 460.061 231.598 460.309 231.197C460.556 230.797 460.897 230.487 461.333 230.267C461.768 230.047 462.268 229.938 462.832 229.938C463.397 229.938 463.909 230.045 464.342 230.259C464.776 230.473 465.113 230.766 465.354 231.139C465.594 231.512 465.715 231.937 465.715 232.415C465.715 232.735 465.653 233.049 465.531 233.358C465.409 233.667 465.193 234.008 464.886 234.384C464.579 234.76 464.148 235.214 463.595 235.748L462.123 237.245V237.304H465.844V238.596H459.988L459.987 238.597Z" fill="#FF00CC"/>
<path d="M467.837 233.335C467.584 233.335 467.367 233.246 467.187 233.066C467.006 232.887 466.917 232.671 466.92 232.417C466.917 232.167 467.006 231.952 467.187 231.773C467.367 231.593 467.585 231.504 467.837 231.504C468.09 231.504 468.295 231.593 468.478 231.773C468.66 231.952 468.752 232.167 468.755 232.417C468.752 232.585 468.709 232.737 468.624 232.876C468.539 233.015 468.427 233.126 468.29 233.21C468.153 233.293 468.002 233.335 467.837 233.335V233.335ZM467.837 237.569C467.584 237.569 467.367 237.479 467.187 237.3C467.006 237.12 466.917 236.904 466.92 236.651C466.917 236.401 467.006 236.186 467.187 236.009C467.367 235.831 467.585 235.742 467.837 235.742C468.09 235.742 468.295 235.831 468.478 236.009C468.66 236.186 468.752 236.401 468.755 236.651C468.752 236.821 468.709 236.975 468.624 237.114C468.539 237.253 468.427 237.364 468.29 237.445C468.153 237.527 468.002 237.568 467.837 237.568V237.569Z" fill="#FF00CC"/>
<path d="M473.103 238.759C472.417 238.759 471.828 238.585 471.337 238.236C470.846 237.887 470.469 237.382 470.206 236.722C469.943 236.062 469.812 235.266 469.812 234.334C469.815 233.402 469.948 232.609 470.211 231.954C470.474 231.299 470.851 230.799 471.341 230.455C471.832 230.11 472.419 229.938 473.103 229.938C473.787 229.938 474.375 230.11 474.868 230.455C475.36 230.8 475.738 231.301 476 231.956C476.263 232.613 476.394 233.405 476.394 234.334C476.394 235.262 476.263 236.066 476 236.726C475.737 237.387 475.361 237.891 474.87 238.238C474.379 238.586 473.791 238.759 473.103 238.759ZM473.103 237.454C473.638 237.454 474.059 237.19 474.369 236.663C474.679 236.136 474.835 235.359 474.835 234.334C474.835 233.655 474.763 233.085 474.622 232.624C474.48 232.162 474.279 231.814 474.021 231.579C473.763 231.344 473.457 231.226 473.103 231.226C472.572 231.226 472.152 231.49 471.844 232.017C471.535 232.544 471.379 233.316 471.377 234.334C471.374 235.015 471.442 235.588 471.583 236.053C471.723 236.517 471.923 236.866 472.182 237.101C472.44 237.336 472.748 237.454 473.103 237.454Z" fill="#FF00CC"/>
<path d="M480.409 238.759C479.722 238.759 479.133 238.585 478.642 238.236C478.151 237.887 477.775 237.382 477.512 236.722C477.249 236.062 477.118 235.266 477.118 234.334C477.121 233.402 477.254 232.609 477.516 231.954C477.779 231.299 478.156 230.799 478.647 230.455C479.138 230.11 479.725 229.938 480.409 229.938C481.093 229.938 481.681 230.11 482.174 230.455C482.666 230.8 483.044 231.301 483.306 231.956C483.569 232.613 483.7 233.405 483.7 234.334C483.7 235.262 483.568 236.066 483.306 236.726C483.043 237.387 482.666 237.891 482.176 238.238C481.685 238.586 481.096 238.759 480.409 238.759ZM480.409 237.454C480.943 237.454 481.365 237.19 481.675 236.663C481.985 236.136 482.14 235.359 482.14 234.334C482.14 233.655 482.069 233.085 481.927 232.624C481.786 232.162 481.585 231.814 481.327 231.579C481.068 231.344 480.763 231.226 480.409 231.226C479.878 231.226 479.458 231.49 479.15 232.017C478.841 232.544 478.685 233.316 478.682 234.334C478.68 235.015 478.748 235.588 478.889 236.053C479.029 236.517 479.229 236.866 479.487 237.101C479.746 237.336 480.053 237.454 480.409 237.454Z" fill="#FF00CC"/>
<path d="M458.607 226.762H452.945V228.055H458.607V226.762Z" fill="#FF00CC"/>
<path d="M457.191 246.204C456.963 246.204 456.766 246.155 456.602 246.057C456.438 245.959 456.311 245.821 456.222 245.643C456.133 245.464 456.089 245.255 456.089 245.015C456.089 244.775 456.134 244.569 456.222 244.388C456.311 244.208 456.435 244.066 456.595 243.964C456.756 243.863 456.943 243.812 457.158 243.812C457.289 243.812 457.415 243.834 457.538 243.877C457.66 243.92 457.77 243.988 457.868 244.08C457.966 244.173 458.042 244.293 458.099 244.44C458.155 244.587 458.183 244.765 458.183 244.976V245.135H456.343V244.798H457.742C457.742 244.679 457.718 244.574 457.67 244.482C457.622 244.39 457.554 244.318 457.467 244.264C457.38 244.211 457.278 244.184 457.162 244.184C457.035 244.184 456.925 244.215 456.831 244.277C456.737 244.339 456.665 244.419 456.614 244.518C456.563 244.617 456.538 244.724 456.538 244.84V245.103C456.538 245.258 456.565 245.39 456.62 245.498C456.675 245.607 456.751 245.69 456.849 245.746C456.948 245.803 457.063 245.831 457.194 245.831C457.279 245.831 457.358 245.819 457.428 245.794C457.498 245.769 457.559 245.733 457.61 245.684C457.661 245.635 457.7 245.574 457.727 245.502L458.154 245.579C458.12 245.704 458.058 245.814 457.97 245.908C457.883 246.002 457.773 246.075 457.641 246.126C457.508 246.178 457.358 246.204 457.189 246.204L457.191 246.204Z" fill="#FF00CC"/>
<path d="M458.527 246.163L459.424 244.978L458.538 243.848H459.063L459.778 244.809H459.94V243.848H460.39V244.809H460.547L461.263 243.848H461.787L460.905 244.978L461.797 246.163H461.262L460.54 245.198H460.39V246.163H459.939V245.198H459.788L459.062 246.163H458.526H458.527Z" fill="#FF00CC"/>
<path d="M463.201 246.204C462.973 246.204 462.777 246.155 462.613 246.057C462.448 245.959 462.322 245.821 462.233 245.643C462.144 245.464 462.1 245.255 462.1 245.015C462.1 244.775 462.144 244.569 462.233 244.388C462.322 244.208 462.446 244.066 462.606 243.964C462.766 243.863 462.954 243.812 463.169 243.812C463.299 243.812 463.426 243.834 463.549 243.877C463.671 243.92 463.781 243.988 463.879 244.08C463.976 244.173 464.053 244.293 464.109 244.44C464.166 244.587 464.194 244.765 464.194 244.976V245.135H462.354V244.798H463.753C463.753 244.679 463.728 244.574 463.68 244.482C463.632 244.39 463.565 244.318 463.478 244.264C463.391 244.211 463.289 244.184 463.173 244.184C463.046 244.184 462.936 244.215 462.842 244.277C462.748 244.339 462.676 244.419 462.625 244.518C462.573 244.617 462.549 244.724 462.549 244.84V245.103C462.549 245.258 462.576 245.39 462.63 245.498C462.685 245.607 462.762 245.69 462.86 245.746C462.959 245.803 463.074 245.831 463.205 245.831C463.29 245.831 463.368 245.819 463.438 245.794C463.508 245.769 463.569 245.733 463.621 245.684C463.672 245.635 463.711 245.574 463.738 245.502L464.164 245.579C464.13 245.704 464.069 245.814 463.981 245.908C463.893 246.002 463.783 246.075 463.651 246.126C463.519 246.178 463.369 246.204 463.2 246.204L463.201 246.204Z" fill="#FF00CC"/>
<path d="M464.513 246.83V245.772H464.701C464.749 245.728 464.79 245.675 464.824 245.613C464.858 245.552 464.887 245.479 464.91 245.395C464.934 245.31 464.954 245.212 464.969 245.099C464.985 244.986 464.999 244.857 465.011 244.711L465.083 243.848H466.657V245.772H467.012V246.83H466.573V246.162H464.959V246.83H464.513ZM465.183 245.772H466.217V244.233H465.488L465.439 244.711C465.416 244.954 465.387 245.164 465.352 245.343C465.317 245.521 465.26 245.664 465.183 245.771V245.772Z" fill="#FF00CC"/>
<path d="M467.938 243.848V246.163H467.496V243.848H467.938ZM469.064 244.811V245.201H467.811V244.811H469.064ZM469.379 243.848V246.163H468.939V243.848H469.379Z" fill="#FF00CC"/>
<path d="M471.018 246.204C470.79 246.204 470.593 246.155 470.429 246.057C470.265 245.959 470.138 245.821 470.049 245.643C469.96 245.464 469.916 245.255 469.916 245.015C469.916 244.775 469.961 244.569 470.049 244.388C470.138 244.208 470.263 244.066 470.423 243.964C470.583 243.863 470.77 243.812 470.985 243.812C471.116 243.812 471.242 243.834 471.365 243.877C471.488 243.92 471.598 243.988 471.695 244.08C471.793 244.173 471.869 244.293 471.926 244.44C471.982 244.587 472.01 244.765 472.01 244.976V245.135H470.17V244.798H471.569C471.569 244.679 471.545 244.574 471.497 244.482C471.449 244.39 471.381 244.318 471.294 244.264C471.207 244.211 471.106 244.184 470.989 244.184C470.862 244.184 470.752 244.215 470.658 244.277C470.564 244.339 470.492 244.419 470.441 244.518C470.39 244.617 470.365 244.724 470.365 244.84V245.103C470.365 245.258 470.392 245.39 470.447 245.498C470.502 245.607 470.578 245.69 470.676 245.746C470.775 245.803 470.89 245.831 471.021 245.831C471.107 245.831 471.185 245.819 471.255 245.794C471.325 245.769 471.386 245.733 471.437 245.684C471.488 245.635 471.528 245.574 471.554 245.502L471.981 245.579C471.947 245.704 471.885 245.814 471.798 245.908C471.71 246.002 471.6 246.075 471.468 246.126C471.336 246.178 471.185 246.204 471.017 246.204L471.018 246.204Z" fill="#FF00CC"/>
<path d="M472.557 246.163V243.848H473.517C473.778 243.848 473.985 243.903 474.137 244.014C474.29 244.125 474.366 244.276 474.366 244.465C474.366 244.601 474.323 244.708 474.237 244.788C474.151 244.867 474.036 244.92 473.894 244.947C473.997 244.959 474.092 244.99 474.178 245.04C474.265 245.089 474.334 245.156 474.387 245.239C474.44 245.323 474.466 245.422 474.466 245.538C474.466 245.66 474.434 245.769 474.371 245.863C474.308 245.957 474.216 246.03 474.096 246.083C473.977 246.136 473.832 246.162 473.663 246.162H472.557L472.557 246.163ZM472.98 244.812H473.521C473.606 244.812 473.678 244.801 473.739 244.776C473.8 244.752 473.846 244.718 473.879 244.673C473.912 244.628 473.928 244.575 473.928 244.514C473.928 244.424 473.892 244.355 473.818 244.304C473.745 244.254 473.644 244.229 473.517 244.229H472.981V244.812L472.98 244.812ZM472.98 245.786H473.663C473.775 245.786 473.862 245.759 473.925 245.706C473.988 245.653 474.02 245.58 474.02 245.489C474.02 245.382 473.988 245.297 473.925 245.235C473.862 245.173 473.774 245.142 473.663 245.142H472.98V245.786Z" fill="#FF00CC"/>
<path d="M475.441 243.848V246.163H475V243.848H475.441ZM476.568 244.811V245.201H475.315V244.811H476.568ZM476.883 243.848V246.163H476.443V243.848H476.883Z" fill="#FF00CC"/>
<path d="M478.503 246.204C478.286 246.204 478.096 246.154 477.935 246.055C477.773 245.955 477.648 245.816 477.558 245.637C477.469 245.458 477.424 245.249 477.424 245.011C477.424 244.772 477.469 244.561 477.558 244.381C477.648 244.201 477.773 244.061 477.935 243.962C478.096 243.862 478.286 243.812 478.503 243.812C478.72 243.812 478.909 243.862 479.071 243.962C479.233 244.062 479.358 244.201 479.448 244.381C479.537 244.561 479.582 244.77 479.582 245.011C479.582 245.251 479.537 245.458 479.448 245.637C479.358 245.816 479.233 245.955 479.071 246.055C478.909 246.154 478.72 246.204 478.503 246.204ZM478.504 245.826C478.645 245.826 478.762 245.788 478.854 245.714C478.946 245.64 479.015 245.54 479.06 245.417C479.105 245.294 479.127 245.157 479.127 245.008C479.127 244.86 479.104 244.725 479.06 244.601C479.015 244.477 478.947 244.377 478.854 244.302C478.762 244.226 478.645 244.189 478.504 244.189C478.364 244.189 478.246 244.226 478.153 244.302C478.06 244.377 477.991 244.477 477.946 244.601C477.901 244.725 477.879 244.861 477.879 245.008C477.879 245.156 477.901 245.293 477.946 245.417C477.991 245.54 478.06 245.64 478.153 245.714C478.245 245.788 478.363 245.826 478.504 245.826Z" fill="#FF00CC"/>
<rect x="430" y="323.473" width="20.7457" height="10.0382" rx="5.01912" fill="#FF00CC"/>
<path d="M446.899 329.59V327.911H446.497C446.388 327.911 446.305 327.936 446.248 327.987C446.192 328.037 446.164 328.097 446.165 328.165C446.164 328.235 446.191 328.294 446.246 328.343C446.301 328.39 446.383 328.414 446.491 328.414H447.098V328.816H446.491C446.308 328.816 446.149 328.788 446.015 328.732C445.881 328.677 445.778 328.599 445.705 328.499C445.632 328.399 445.597 328.282 445.598 328.149C445.597 328.009 445.632 327.887 445.705 327.781C445.778 327.675 445.882 327.593 446.017 327.534C446.152 327.475 446.313 327.445 446.497 327.445H447.454V329.59H446.899ZM445.536 329.59L446.132 328.473H446.701L446.106 329.59H445.536Z" fill="white"/>
<path d="M445.01 326.657L445.191 327.045C445.131 327.096 445.064 327.133 444.99 327.157C444.916 327.18 444.828 327.196 444.726 327.203C444.625 327.211 444.501 327.216 444.355 327.219C444.189 327.221 444.054 327.247 443.95 327.298C443.845 327.349 443.766 327.43 443.712 327.54C443.658 327.649 443.623 327.791 443.606 327.967H443.627C443.691 327.836 443.781 327.734 443.898 327.663C444.015 327.591 444.16 327.555 444.332 327.555C444.515 327.555 444.674 327.595 444.811 327.675C444.949 327.755 445.056 327.87 445.132 328.02C445.209 328.17 445.247 328.35 445.247 328.559C445.247 328.777 445.204 328.967 445.118 329.128C445.034 329.288 444.913 329.412 444.757 329.501C444.6 329.588 444.414 329.632 444.198 329.632C443.981 329.632 443.794 329.586 443.637 329.495C443.48 329.404 443.359 329.269 443.274 329.091C443.189 328.914 443.146 328.695 443.146 328.435V328.259C443.146 327.742 443.247 327.359 443.448 327.11C443.649 326.86 443.945 326.734 444.335 326.73C444.441 326.728 444.537 326.728 444.623 326.728C444.708 326.729 444.783 326.725 444.848 326.716C444.913 326.707 444.967 326.687 445.01 326.657ZM444.201 329.171C444.292 329.171 444.37 329.147 444.436 329.1C444.502 329.052 444.552 328.984 444.588 328.896C444.624 328.808 444.642 328.702 444.642 328.579C444.642 328.457 444.624 328.354 444.588 328.269C444.552 328.183 444.502 328.118 444.436 328.073C444.369 328.029 444.29 328.006 444.198 328.006C444.129 328.006 444.067 328.019 444.012 328.044C443.957 328.069 443.91 328.106 443.871 328.156C443.833 328.204 443.803 328.264 443.782 328.336C443.761 328.407 443.751 328.488 443.751 328.579C443.751 328.762 443.791 328.907 443.87 329.013C443.95 329.118 444.06 329.171 444.201 329.171Z" fill="white"/>
<path d="M441.853 329.632C441.633 329.632 441.443 329.587 441.283 329.498C441.125 329.408 441.003 329.28 440.918 329.115C440.832 328.95 440.789 328.754 440.789 328.527C440.789 328.307 440.832 328.113 440.918 327.946C441.003 327.78 441.124 327.65 441.279 327.557C441.436 327.464 441.619 327.417 441.83 327.417C441.971 327.417 442.103 327.44 442.225 327.485C442.348 327.53 442.455 327.598 442.546 327.688C442.638 327.778 442.71 327.892 442.761 328.029C442.812 328.165 442.838 328.324 442.838 328.506V328.67H441.026V328.301H442.278C442.278 328.215 442.259 328.139 442.222 328.073C442.185 328.007 442.133 327.956 442.067 327.918C442.002 327.88 441.926 327.861 441.839 327.861C441.749 327.861 441.669 327.882 441.599 327.924C441.53 327.965 441.476 328.02 441.437 328.09C441.398 328.159 441.378 328.236 441.377 328.321V328.671C441.377 328.777 441.397 328.869 441.436 328.946C441.476 329.024 441.532 329.083 441.605 329.125C441.677 329.167 441.763 329.188 441.863 329.188C441.929 329.188 441.99 329.179 442.045 329.16C442.1 329.141 442.147 329.113 442.186 329.076C442.225 329.039 442.255 328.993 442.275 328.939L442.825 328.976C442.797 329.108 442.74 329.223 442.654 329.322C442.568 329.42 442.457 329.496 442.321 329.551C442.186 329.605 442.03 329.632 441.853 329.632Z" fill="white"/>
<path d="M439.537 329.632C439.318 329.632 439.129 329.585 438.97 329.492C438.813 329.398 438.692 329.268 438.607 329.101C438.523 328.935 438.481 328.743 438.481 328.526C438.481 328.306 438.524 328.113 438.609 327.948C438.694 327.781 438.816 327.651 438.973 327.558C439.13 327.464 439.318 327.417 439.534 327.417C439.722 327.417 439.885 327.451 440.026 327.519C440.167 327.587 440.278 327.682 440.36 327.805C440.442 327.928 440.487 328.072 440.495 328.238H439.934C439.918 328.131 439.876 328.045 439.808 327.98C439.741 327.914 439.653 327.881 439.544 327.881C439.452 327.881 439.372 327.906 439.303 327.956C439.235 328.005 439.182 328.078 439.143 328.173C439.105 328.268 439.086 328.382 439.086 328.518C439.086 328.654 439.105 328.771 439.142 328.867C439.18 328.963 439.234 329.036 439.303 329.086C439.372 329.136 439.452 329.161 439.544 329.161C439.612 329.161 439.673 329.147 439.727 329.119C439.782 329.091 439.827 329.051 439.863 328.998C439.899 328.944 439.923 328.879 439.934 328.804H440.495C440.486 328.968 440.441 329.112 440.361 329.237C440.282 329.361 440.173 329.457 440.033 329.527C439.893 329.597 439.728 329.632 439.537 329.632Z" fill="white"/>
<path d="M435.988 329.631C435.851 329.631 435.729 329.607 435.622 329.559C435.515 329.511 435.43 329.44 435.368 329.346C435.306 329.251 435.275 329.132 435.275 328.991C435.275 328.872 435.297 328.772 435.341 328.691C435.385 328.61 435.444 328.545 435.52 328.495C435.595 328.446 435.681 328.409 435.777 328.383C435.874 328.358 435.975 328.341 436.081 328.33C436.206 328.317 436.307 328.305 436.383 328.294C436.459 328.282 436.515 328.264 436.549 328.241C436.584 328.218 436.601 328.183 436.601 328.138V328.129C436.601 328.041 436.573 327.972 436.517 327.924C436.462 327.876 436.384 327.851 436.282 327.851C436.175 327.851 436.09 327.875 436.027 327.923C435.963 327.969 435.922 328.028 435.901 328.099L435.351 328.054C435.379 327.923 435.434 327.811 435.516 327.716C435.598 327.62 435.703 327.546 435.833 327.495C435.963 327.443 436.114 327.417 436.285 327.417C436.404 327.417 436.518 327.431 436.627 327.459C436.737 327.487 436.834 327.53 436.919 327.589C437.005 327.647 437.072 327.723 437.122 327.815C437.171 327.906 437.196 328.016 437.196 328.143V329.59H436.631V329.293H436.615C436.58 329.36 436.534 329.419 436.476 329.47C436.419 329.52 436.349 329.56 436.268 329.589C436.187 329.617 436.094 329.631 435.988 329.631ZM436.158 329.22C436.246 329.22 436.323 329.203 436.39 329.168C436.457 329.133 436.51 329.085 436.548 329.026C436.586 328.966 436.605 328.899 436.605 328.823V328.596C436.586 328.608 436.561 328.619 436.528 328.629C436.496 328.639 436.461 328.647 436.421 328.656C436.381 328.663 436.341 328.67 436.3 328.677C436.26 328.682 436.224 328.687 436.192 328.692C436.122 328.702 436.061 328.719 436.009 328.741C435.956 328.763 435.916 328.794 435.887 328.832C435.858 328.869 435.844 328.916 435.844 328.971C435.844 329.052 435.873 329.114 435.932 329.157C435.991 329.199 436.067 329.22 436.158 329.22Z" fill="white"/>
<path d="M434.542 328.28V328.748H433.422V328.28H434.542ZM433.617 327.445V329.59H433.049V327.445H433.617ZM434.915 327.445V329.59H434.35V327.445H434.915Z" fill="white"/>
<circle cx="409.5" cy="344.242" r="4.5" fill="#F5F5F5" stroke="#555555"/>
<path d="M523.5 222.742C523.5 221.361 524.619 220.242 526 220.242H534.5V228.242H526C524.619 228.242 523.5 227.123 523.5 225.742V222.742Z" fill="#F5F5F5" stroke="#555555"/>
<path d="M527.5 228.242H536C537.381 228.242 538.5 229.361 538.5 230.742V233.742C538.5 235.123 537.381 236.242 536 236.242H527.5V228.242Z" fill="#F5F5F5" stroke="#555555"/>
<path d="M527.5 212.242H536C537.381 212.242 538.5 213.361 538.5 214.742V217.742C538.5 219.123 537.381 220.242 536 220.242H527.5V212.242Z" fill="#F5F5F5" stroke="#555555"/>
<path d="M523.5 272.742C523.5 271.361 524.619 270.242 526 270.242H534.5V278.242H526C524.619 278.242 523.5 277.123 523.5 275.742V272.742Z" fill="#F5F5F5" stroke="#555555"/>
<path d="M527.5 278.242H536C537.381 278.242 538.5 279.361 538.5 280.742V283.742C538.5 285.123 537.381 286.242 536 286.242H527.5V278.242Z" fill="#F5F5F5" stroke="#555555"/>
<path d="M527.5 262.242H536C537.381 262.242 538.5 263.361 538.5 264.742V267.742C538.5 269.123 537.381 270.242 536 270.242H527.5V262.242Z" fill="#F5F5F5" stroke="#555555"/>
<path d="M523.5 431.742C523.5 430.361 524.619 429.242 526 429.242H534.5V437.242H526C524.619 437.242 523.5 436.123 523.5 434.742V431.742Z" fill="#F5F5F5" stroke="#555555"/>
<path d="M527.5 437.242H536C537.381 437.242 538.5 438.361 538.5 439.742V442.742C538.5 444.123 537.381 445.242 536 445.242H527.5V437.242Z" fill="#F5F5F5" stroke="#555555"/>
<path d="M527.5 421.242H536C537.381 421.242 538.5 422.361 538.5 423.742V426.742C538.5 428.123 537.381 429.242 536 429.242H527.5V421.242Z" fill="#F5F5F5" stroke="#555555"/>
<rect x="337.5" y="99.2422" width="203" height="4" fill="#F5F5F5" stroke="#555555"/>
<path d="M425.5 410.73V414.242H411.5V410.73H425.5ZM411.5 230.754V227.242H425.5V230.754H411.5Z" fill="#F5F5F5" stroke="#555555"/>
<path d="M422.5 186.242H427.5V455.242H422.5V414.242V409.742V231.242V226.742V186.242Z" fill="#F5F5F5" stroke="#555555"/>
<rect x="82" y="142.742" width="92.8378" height="37.4595" rx="8.51351" fill="black"/>
<path d="M99.5858 168.158C98.8053 168.158 98.1025 168.003 97.4773 167.692C96.8521 167.382 96.3511 166.956 95.9742 166.415C95.5973 165.874 95.3911 165.258 95.3556 164.566H96.9519C97.014 165.183 97.2933 165.693 97.7899 166.096C98.291 166.495 98.8896 166.695 99.5858 166.695C100.144 166.695 100.641 166.564 101.076 166.302C101.515 166.041 101.858 165.681 102.107 165.225C102.359 164.764 102.486 164.243 102.486 163.662C102.486 163.068 102.355 162.538 102.093 162.072C101.836 161.602 101.481 161.232 101.029 160.961C100.577 160.691 100.06 160.553 99.4793 160.549C99.0625 160.545 98.6346 160.609 98.1957 160.742C97.7567 160.87 97.3953 161.037 97.1115 161.241L95.5684 161.054L96.3932 154.35H103.47V155.813H97.7766L97.2977 159.831H97.3776C97.6569 159.609 98.0072 159.425 98.4284 159.279C98.8497 159.132 99.2887 159.059 99.7454 159.059C100.579 159.059 101.322 159.259 101.974 159.658C102.63 160.052 103.144 160.593 103.517 161.281C103.894 161.968 104.082 162.753 104.082 163.635C104.082 164.504 103.887 165.28 103.497 165.963C103.111 166.641 102.579 167.178 101.9 167.573C101.222 167.963 100.45 168.158 99.5858 168.158ZM111.167 168.158C110.165 168.158 109.311 167.885 108.606 167.34C107.901 166.79 107.363 165.994 106.99 164.952C106.618 163.906 106.431 162.642 106.431 161.161C106.431 159.689 106.618 158.432 106.99 157.39C107.367 156.343 107.908 155.545 108.613 154.995C109.323 154.441 110.174 154.164 111.167 154.164C112.16 154.164 113.01 154.441 113.715 154.995C114.424 155.545 114.965 156.343 115.337 157.39C115.714 158.432 115.903 159.689 115.903 161.161C115.903 162.642 115.717 163.906 115.344 164.952C114.972 165.994 114.433 166.79 113.728 167.34C113.023 167.885 112.169 168.158 111.167 168.158ZM111.167 166.695C112.16 166.695 112.932 166.216 113.482 165.258C114.032 164.3 114.306 162.935 114.306 161.161C114.306 159.981 114.18 158.977 113.927 158.148C113.679 157.319 113.32 156.687 112.85 156.252C112.384 155.818 111.823 155.6 111.167 155.6C110.183 155.6 109.413 156.086 108.859 157.057C108.305 158.024 108.028 159.392 108.028 161.161C108.028 162.34 108.152 163.342 108.4 164.167C108.649 164.992 109.005 165.619 109.471 166.049C109.941 166.48 110.506 166.695 111.167 166.695ZM122.873 168.158C121.871 168.158 121.018 167.885 120.312 167.34C119.607 166.79 119.069 165.994 118.696 164.952C118.324 163.906 118.138 162.642 118.138 161.161C118.138 159.689 118.324 158.432 118.696 157.39C119.073 156.343 119.614 155.545 120.319 154.995C121.029 154.441 121.88 154.164 122.873 154.164C123.866 154.164 124.716 154.441 125.421 154.995C126.13 155.545 126.671 156.343 127.043 157.39C127.42 158.432 127.609 159.689 127.609 161.161C127.609 162.642 127.423 163.906 127.05 164.952C126.678 165.994 126.139 166.79 125.434 167.34C124.729 167.885 123.875 168.158 122.873 168.158ZM122.873 166.695C123.866 166.695 124.638 166.216 125.188 165.258C125.738 164.3 126.013 162.935 126.013 161.161C126.013 159.981 125.886 158.977 125.633 158.148C125.385 157.319 125.026 156.687 124.556 156.252C124.09 155.818 123.529 155.6 122.873 155.6C121.889 155.6 121.12 156.086 120.565 157.057C120.011 158.024 119.734 159.392 119.734 161.161C119.734 162.34 119.858 163.342 120.106 164.167C120.355 164.992 120.712 165.619 121.177 166.049C121.647 166.48 122.213 166.695 122.873 166.695ZM141.018 165.843L144.583 157.755H146.073L141.656 167.972H140.379L136.043 157.755H137.506L141.018 165.843ZM137 157.755V167.972H135.431V157.755H137ZM145.035 167.972V157.755H146.605V167.972H145.035ZM155.065 165.843L158.63 157.755H160.12L155.703 167.972H154.426L150.09 157.755H151.553L155.065 165.843ZM151.048 157.755V167.972H149.478V157.755H151.048ZM159.082 167.972V157.755H160.652V167.972H159.082Z" fill="#E8E4EC"/>
<path d="M195.27 161.472H174.838" stroke="black" stroke-width="1.7027"/>
<path d="M195.271 142.742L195.271 215.742" stroke="black" stroke-width="1.7027" stroke-linecap="round" stroke-dasharray="10.22 10.22"/>
<path d="M198.074 160.87C197.741 161.202 197.741 161.741 198.074 162.074L203.492 167.492C203.824 167.824 204.363 167.824 204.696 167.492C205.028 167.159 205.028 166.62 204.696 166.288L199.88 161.472L204.696 156.656C205.028 156.323 205.028 155.784 204.696 155.452C204.363 155.119 203.824 155.119 203.492 155.452L198.074 160.87ZM266.135 160.62H198.676V162.323H266.135V160.62Z" fill="black"/>
<path d="M334.197 162.074C334.53 161.741 334.53 161.202 334.197 160.87L328.779 155.452C328.447 155.119 327.908 155.119 327.575 155.452C327.243 155.784 327.243 156.323 327.575 156.656L332.391 161.472L327.575 166.288C327.243 166.62 327.243 167.159 327.575 167.492C327.908 167.824 328.447 167.824 328.779 167.492L334.197 162.074ZM333.595 160.62H266.136V162.323H333.595V160.62Z" fill="black"/>
<path d="M337 142.742L337 215.742" stroke="black" stroke-width="1.7027" stroke-linecap="round" stroke-dasharray="10.22 10.22"/>
<path d="M269 175.107L269 228.742" stroke="black" stroke-width="1.7027" stroke-linecap="round" stroke-linejoin="round" stroke-dasharray="10.22 10.22"/>
<path d="M266.196 199.074C266.529 198.741 266.529 198.202 266.196 197.87L260.778 192.452C260.446 192.119 259.907 192.119 259.574 192.452C259.242 192.784 259.242 193.323 259.574 193.656L264.39 198.472L259.574 203.288C259.242 203.62 259.242 204.159 259.574 204.492C259.907 204.824 260.446 204.824 260.778 204.492L266.196 199.074ZM201.803 197.87C201.471 198.202 201.471 198.741 201.803 199.074L207.221 204.492C207.554 204.824 208.093 204.824 208.425 204.492C208.758 204.159 208.758 203.62 208.425 203.288L203.609 198.472L208.425 193.656C208.758 193.323 208.758 192.784 208.425 192.452C208.093 192.119 207.554 192.119 207.221 192.452L201.803 197.87ZM265.594 197.62H202.405V199.323H265.594V197.62Z" fill="black"/>
<path d="M228.041 201.877L234.852 195.066" stroke="black" stroke-width="1.7027" stroke-linecap="round"/>
<path d="M233.149 201.877L239.96 195.066" stroke="black" stroke-width="1.7027" stroke-linecap="round"/>
<path d="M334.196 199.074C334.529 198.741 334.529 198.202 334.196 197.87L328.778 192.452C328.446 192.119 327.907 192.119 327.575 192.452C327.242 192.784 327.242 193.323 327.575 193.656L332.39 198.472L327.575 203.288C327.242 203.62 327.242 204.159 327.575 204.492C327.907 204.824 328.446 204.824 328.778 204.492L334.196 199.074ZM271.803 197.87C271.471 198.202 271.471 198.741 271.803 199.074L277.221 204.492C277.554 204.824 278.093 204.824 278.425 204.492C278.758 204.159 278.758 203.62 278.425 203.288L273.609 198.472L278.425 193.656C278.758 193.323 278.758 192.784 278.425 192.452C278.093 192.119 277.554 192.119 277.221 192.452L271.803 197.87ZM333.594 197.62H272.405V199.323H333.594V197.62Z" fill="black"/>
<path d="M297.041 201.877L303.852 195.066" stroke="black" stroke-width="1.7027" stroke-linecap="round"/>
<path d="M302.149 201.877L308.96 195.066" stroke="black" stroke-width="1.7027" stroke-linecap="round"/>
<g filter="url(#filter0_d_3114_13236)">
<rect x="239" y="229.97" width="60.48" height="60.48" rx="24.4604" fill="#FF00CC"/>
</g>
<path fill-rule="evenodd" clip-rule="evenodd" d="M281.733 261.435C279.301 261.435 277.254 259.481 277.254 256.937C277.254 254.394 279.18 252.461 281.753 252.461C284.327 252.461 286.253 254.475 286.253 256.937C286.253 259.399 284.206 261.435 281.733 261.435ZM264.961 257.996L261.678 249.409H259.164L255.861 257.996L252.557 249.409H248.645L254.421 264.507H256.934L260.4 255.513L263.886 264.507H266.4L272.156 249.409H268.264L264.96 257.996H264.961ZM281.753 248.839C280.071 248.839 278.551 249.348 277.254 250.223V242.247H273.667V256.958C273.667 261.435 277.295 265.036 281.734 265.036C286.173 265.036 289.841 261.455 289.841 256.917C289.841 252.38 286.254 248.839 281.754 248.839L281.753 248.839Z" fill="white"/>
<rect x="257.729" y="270.971" width="23.4166" height="3.34523" fill="white"/>
</g>
<defs>
<filter id="filter0_d_3114_13236" x="235.655" y="229.97" width="63.8257" height="64.9403" filterUnits="userSpaceOnUse" color-interpolation-filters="sRGB">
<feFlood flood-opacity="0" result="BackgroundImageFix"/>
<feColorMatrix in="SourceAlpha" type="matrix" values="0 0 0 0 0 0 0 0 0 0 0 0 0 0 0 0 0 0 127 0" result="hardAlpha"/>
<feOffset dx="-3.34523" dy="4.46031"/>
<feComposite in2="hardAlpha" operator="out"/>
<feColorMatrix type="matrix" values="0 0 0 0 0 0 0 0 0 0 0 0 0 0 0 0 0 0 0.25 0"/>
<feBlend mode="normal" in2="BackgroundImageFix" result="effect1_dropShadow_3114_13236"/>
<feBlend mode="normal" in="SourceGraphic" in2="effect1_dropShadow_3114_13236" result="shape"/>
</filter>
<clipPath id="clip0_3114_13236">
<rect width="592" height="480" fill="white" transform="translate(0 0.742188)"/>
</clipPath>
</defs>
</svg>
