<svg width="1209" height="817" viewBox="0 0 1209 817" fill="none" xmlns="http://www.w3.org/2000/svg">
<g clip-path="url(#clip0_3114_14327)">
<rect width="438" height="816" transform="translate(770 0.515625)" fill="#EDEDED"/>
<path d="M1081 807.516L1212 673.516" stroke="#D0D4DB" stroke-width="2"/>
<path d="M1081 855.516L1212 721.516" stroke="#D0D4DB" stroke-width="2"/>
<path d="M1212 769.516L1117 866.516" stroke="#D0D4DB" stroke-width="2"/>
<path d="M1081 710.516L1212 576.516" stroke="#D0D4DB" stroke-width="2"/>
<path d="M1081 758.795L1175.67 661.829" stroke="#D0D4DB" stroke-width="2"/>
<path d="M1081 758.516L1226 610.516" stroke="#D0D4DB" stroke-width="2"/>
<path d="M1081 613.516L1212 479.516" stroke="#D0D4DB" stroke-width="2"/>
<path d="M1081 661.516L1212 527.516" stroke="#D0D4DB" stroke-width="2"/>
<path d="M1081 516.516L1212 382.516" stroke="#D0D4DB" stroke-width="2"/>
<path d="M1081 564.516L1212 430.516" stroke="#D0D4DB" stroke-width="2"/>
<path d="M1081 419.516L1212 285.516" stroke="#D0D4DB" stroke-width="2"/>
<path d="M1081 467.516L1212 333.516" stroke="#D0D4DB" stroke-width="2"/>
<path d="M1081 322.516L1220 180.516" stroke="#D0D4DB" stroke-width="2"/>
<path d="M1081 176.516L1220 34.5156" stroke="#D0D4DB" stroke-width="2"/>
<path d="M1081 225.516L1212 91.5156" stroke="#D0D4DB" stroke-width="2"/>
<path d="M1081 79.5156L1171 -12.4844" stroke="#D0D4DB" stroke-width="2"/>
<path d="M1081 370.516L1212 236.516" stroke="#D0D4DB" stroke-width="2"/>
<path d="M1081 273.516L1217 134.516" stroke="#D0D4DB" stroke-width="2"/>
<path d="M1081 127.516L1217 -11.4844" stroke="#D0D4DB" stroke-width="2"/>
<path d="M1081 30.5156L1123 -12.4844" stroke="#D0D4DB" stroke-width="2"/>
<rect width="126.776" height="518.288" transform="matrix(-1 0 0 1 1062.78 138.447)" fill="white" stroke="black" stroke-width="2.83964"/>
<rect width="17" height="492" transform="matrix(-1 0 0 1 1080 151.201)" fill="white" stroke="black" stroke-width="2.83964"/>
<rect width="18" height="519" transform="matrix(-1 0 0 1 1063 138.201)" fill="white" stroke="black" stroke-width="2.83964"/>
<path d="M1052.83 230.502H1111.87H1170.91V241.688H1052.83V230.502Z" fill="black"/>
<path d="M1052.83 546.947H1170.91V558.133H1111.87H1052.83V546.947Z" fill="black"/>
<path d="M1081.1 0.464844V74.5146V768.332L1081.1 816.583" stroke="black" stroke-width="2.83964"/>
<rect x="813" y="60.5156" width="95" height="44" rx="10" fill="black"/>
<path d="M833.969 90.7344C833.313 90.724 832.656 90.599 832 90.3594C831.344 90.1198 830.745 89.7161 830.203 89.1484C829.661 88.5755 829.227 87.8021 828.898 86.8281C828.57 85.849 828.406 84.6198 828.406 83.1406C828.406 81.724 828.539 80.4687 828.805 79.375C829.07 78.276 829.456 77.3516 829.961 76.6016C830.466 75.8464 831.076 75.2734 831.789 74.8828C832.508 74.4922 833.318 74.2969 834.219 74.2969C835.115 74.2969 835.911 74.4766 836.609 74.8359C837.313 75.1901 837.885 75.6849 838.328 76.3203C838.771 76.9557 839.057 77.6875 839.188 78.5156H837.281C837.104 77.7969 836.76 77.2005 836.25 76.7266C835.74 76.2526 835.062 76.0156 834.219 76.0156C832.979 76.0156 832.003 76.5547 831.289 77.6328C830.581 78.7109 830.224 80.224 830.219 82.1719H830.344C830.635 81.7292 830.982 81.3516 831.383 81.0391C831.789 80.7214 832.237 80.4766 832.727 80.3047C833.216 80.1328 833.734 80.0469 834.281 80.0469C835.198 80.0469 836.036 80.276 836.797 80.7344C837.557 81.1875 838.167 81.8151 838.625 82.6172C839.083 83.4141 839.313 84.3281 839.313 85.3594C839.313 86.349 839.091 87.2552 838.648 88.0781C838.206 88.8958 837.583 89.5469 836.781 90.0312C835.984 90.5104 835.047 90.7448 833.969 90.7344ZM833.969 89.0156C834.625 89.0156 835.214 88.8516 835.734 88.5234C836.26 88.1953 836.674 87.7552 836.977 87.2031C837.284 86.651 837.438 86.0365 837.438 85.3594C837.438 84.6979 837.289 84.0964 836.992 83.5547C836.701 83.0078 836.297 82.5729 835.781 82.25C835.271 81.9271 834.688 81.7656 834.031 81.7656C833.536 81.7656 833.076 81.8646 832.648 82.0625C832.221 82.2552 831.846 82.5208 831.523 82.8594C831.206 83.1979 830.956 83.5859 830.773 84.0234C830.591 84.4557 830.5 84.9115 830.5 85.3906C830.5 86.026 830.648 86.6198 830.945 87.1719C831.247 87.724 831.659 88.1693 832.18 88.5078C832.706 88.8464 833.302 89.0156 833.969 89.0156ZM847.604 90.7344C846.426 90.7344 845.424 90.4141 844.596 89.7734C843.768 89.1276 843.135 88.1927 842.697 86.9687C842.26 85.7396 842.041 84.2552 842.041 82.5156C842.041 80.7865 842.26 79.3099 842.697 78.0859C843.14 76.8568 843.775 75.9193 844.604 75.2734C845.437 74.6224 846.437 74.2969 847.604 74.2969C848.77 74.2969 849.768 74.6224 850.596 75.2734C851.429 75.9193 852.064 76.8568 852.502 78.0859C852.945 79.3099 853.166 80.7865 853.166 82.5156C853.166 84.2552 852.947 85.7396 852.51 86.9687C852.072 88.1927 851.439 89.1276 850.611 89.7734C849.783 90.4141 848.781 90.7344 847.604 90.7344ZM847.604 89.0156C848.77 89.0156 849.676 88.4531 850.322 87.3281C850.968 86.2031 851.291 84.599 851.291 82.5156C851.291 81.1302 851.143 79.9505 850.846 78.9766C850.554 78.0026 850.132 77.2604 849.58 76.75C849.033 76.2396 848.374 75.9844 847.604 75.9844C846.447 75.9844 845.544 76.5547 844.893 77.6953C844.242 78.8307 843.916 80.4375 843.916 82.5156C843.916 83.901 844.062 85.0781 844.354 86.0469C844.645 87.0156 845.064 87.7526 845.611 88.2578C846.163 88.763 846.827 89.0156 847.604 89.0156ZM868.916 88.0156L873.104 78.5156H874.854L869.666 90.5156H868.166L863.072 78.5156H864.791L868.916 88.0156ZM864.197 78.5156V90.5156H862.354V78.5156H864.197ZM873.635 90.5156V78.5156H875.479V90.5156H873.635ZM885.416 88.0156L889.604 78.5156H891.354L886.166 90.5156H884.666L879.572 78.5156H881.291L885.416 88.0156ZM880.697 78.5156V90.5156H878.854V78.5156H880.697ZM890.135 90.5156V78.5156H891.979V90.5156H890.135Z" fill="#E8E4EC"/>
<path d="M932 82.5156H908" stroke="black" stroke-width="2"/>
<path d="M932 60.5156L932 235.516" stroke="black" stroke-width="2" stroke-linecap="round" stroke-dasharray="12 12"/>
<path d="M935.293 81.8085C934.902 82.199 934.902 82.8322 935.293 83.2227L941.657 89.5867C942.047 89.9772 942.681 89.9772 943.071 89.5867C943.462 89.1962 943.462 88.563 943.071 88.1725L937.414 82.5156L943.071 76.8588C943.462 76.4682 943.462 75.8351 943.071 75.4446C942.681 75.054 942.047 75.054 941.657 75.4446L935.293 81.8085ZM1006.5 81.5156H936V83.5156H1006.5V81.5156Z" fill="black"/>
<path d="M1077.71 83.2227C1078.1 82.8322 1078.1 82.199 1077.71 81.8085L1071.34 75.4446C1070.95 75.054 1070.32 75.054 1069.93 75.4446C1069.54 75.8351 1069.54 76.4682 1069.93 76.8588L1075.59 82.5156L1069.93 88.1725C1069.54 88.563 1069.54 89.1962 1069.93 89.5867C1070.32 89.9772 1070.95 89.9772 1071.34 89.5867L1077.71 83.2227ZM1077 81.5156H1006.5V83.5156H1077V81.5156Z" fill="black"/>
<path d="M1081 60.5156L1081 235.516" stroke="black" stroke-width="2" stroke-linecap="round" stroke-dasharray="12 12"/>
<rect x="931" y="748.516" width="95" height="44" rx="10" fill="black"/>
<path d="M951.656 778.734C950.74 778.734 949.914 778.552 949.18 778.187C948.445 777.823 947.857 777.323 947.414 776.687C946.971 776.052 946.729 775.328 946.688 774.516H948.563C948.635 775.24 948.964 775.839 949.547 776.312C950.135 776.781 950.839 777.016 951.656 777.016C952.313 777.016 952.896 776.862 953.406 776.555C953.922 776.247 954.326 775.826 954.617 775.289C954.914 774.747 955.063 774.135 955.063 773.453C955.063 772.755 954.909 772.133 954.602 771.586C954.299 771.034 953.883 770.599 953.352 770.281C952.82 769.964 952.214 769.802 951.531 769.797C951.042 769.792 950.539 769.867 950.023 770.023C949.508 770.174 949.083 770.37 948.75 770.609L946.938 770.391L947.906 762.516H956.219V764.234H949.531L948.969 768.953H949.063C949.391 768.693 949.802 768.477 950.297 768.305C950.792 768.133 951.307 768.047 951.844 768.047C952.823 768.047 953.695 768.281 954.461 768.75C955.232 769.214 955.836 769.849 956.273 770.656C956.716 771.464 956.937 772.385 956.937 773.422C956.937 774.443 956.708 775.354 956.25 776.156C955.797 776.953 955.172 777.583 954.375 778.047C953.578 778.505 952.672 778.734 951.656 778.734ZM965.26 778.734C964.083 778.734 963.08 778.414 962.252 777.773C961.424 777.128 960.791 776.193 960.354 774.969C959.916 773.74 959.697 772.255 959.697 770.516C959.697 768.786 959.916 767.31 960.354 766.086C960.796 764.857 961.432 763.919 962.26 763.273C963.093 762.622 964.093 762.297 965.26 762.297C966.426 762.297 967.424 762.622 968.252 763.273C969.085 763.919 969.721 764.857 970.158 766.086C970.601 767.31 970.822 768.786 970.822 770.516C970.822 772.255 970.604 773.74 970.166 774.969C969.729 776.193 969.096 777.128 968.268 777.773C967.439 778.414 966.437 778.734 965.26 778.734ZM965.26 777.016C966.426 777.016 967.333 776.453 967.979 775.328C968.624 774.203 968.947 772.599 968.947 770.516C968.947 769.13 968.799 767.951 968.502 766.977C968.21 766.003 967.788 765.26 967.236 764.75C966.689 764.24 966.031 763.984 965.26 763.984C964.104 763.984 963.2 764.555 962.549 765.695C961.898 766.831 961.572 768.437 961.572 770.516C961.572 771.901 961.718 773.078 962.01 774.047C962.301 775.016 962.721 775.753 963.268 776.258C963.82 776.763 964.484 777.016 965.26 777.016ZM986.572 776.016L990.76 766.516H992.51L987.322 778.516H985.822L980.729 766.516H982.447L986.572 776.016ZM981.854 766.516V778.516H980.01V766.516H981.854ZM991.291 778.516V766.516H993.135V778.516H991.291ZM1003.07 776.016L1007.26 766.516H1009.01L1003.82 778.516H1002.32L997.229 766.516H998.947L1003.07 776.016ZM998.354 766.516V778.516H996.51V766.516H998.354ZM1007.79 778.516V766.516H1009.63V778.516H1007.79Z" fill="#E8E4EC"/>
<path d="M1050 770.516H1026" stroke="black" stroke-width="2"/>
<path d="M1050 236.516L1050 792.516" stroke="black" stroke-width="2" stroke-linecap="round" stroke-dasharray="12 12"/>
<path d="M1053.29 769.809C1052.9 770.199 1052.9 770.832 1053.29 771.223L1059.66 777.587C1060.05 777.977 1060.68 777.977 1061.07 777.587C1061.46 777.196 1061.46 776.563 1061.07 776.172L1055.41 770.516L1061.07 764.859C1061.46 764.468 1061.46 763.835 1061.07 763.445C1060.68 763.054 1060.05 763.054 1059.66 763.445L1053.29 769.809ZM1110 769.516H1054V771.516H1110V769.516Z" fill="black"/>
<path d="M1166.71 771.223C1167.1 770.832 1167.1 770.199 1166.71 769.809L1160.34 763.445C1159.95 763.054 1159.32 763.054 1158.93 763.445C1158.54 763.835 1158.54 764.468 1158.93 764.859L1164.59 770.516L1158.93 776.172C1158.54 776.563 1158.54 777.196 1158.93 777.587C1159.32 777.977 1159.95 777.977 1160.34 777.587L1166.71 771.223ZM1166 769.516H1110V771.516H1166V769.516Z" fill="black"/>
<path d="M1170 236.516L1170 792.516" stroke="black" stroke-width="2" stroke-linecap="round" stroke-dasharray="12 12"/>
</g>
<rect width="746" height="816" transform="translate(0 0.257812)" fill="#EDEDED"/>
<rect x="112" y="128.516" width="520" height="528" rx="120" fill="white" stroke="black" stroke-width="2.28469"/>
<ellipse cx="527.233" cy="236.304" rx="9.36" ry="9.17694" fill="black"/>
<ellipse cx="527.232" cy="552.435" rx="9.36" ry="9.17694" fill="black"/>
<ellipse cx="219.506" cy="236.304" rx="9.36" ry="9.17694" fill="black"/>
<ellipse cx="219.506" cy="552.435" rx="9.36" ry="9.17694" fill="black"/>
<path d="M112 561.516L112 792.516" stroke="black" stroke-width="2" stroke-linecap="round" stroke-dasharray="12 12"/>
<path d="M115.293 769.809C114.902 770.199 114.902 770.832 115.293 771.223L121.657 777.587C122.047 777.977 122.681 777.977 123.071 777.587C123.462 777.196 123.462 776.563 123.071 776.172L117.414 770.516L123.071 764.859C123.462 764.468 123.462 763.835 123.071 763.445C122.681 763.054 122.047 763.054 121.657 763.445L115.293 769.809ZM317.5 769.516H116V771.516H317.5V769.516Z" fill="black"/>
<rect x="317.5" y="748.516" width="109" height="44" rx="10" fill="black"/>
<path d="M332.781 775.234V773.641L339.812 762.516H340.969V764.984H340.188L334.875 773.391V773.516H344.344V775.234H332.781ZM340.313 778.516V774.75V774.008V762.516H342.156V778.516H340.313ZM352.49 778.734C351.313 778.734 350.311 778.414 349.482 777.773C348.654 777.128 348.021 776.193 347.584 774.969C347.146 773.74 346.928 772.255 346.928 770.516C346.928 768.786 347.146 767.31 347.584 766.086C348.027 764.857 348.662 763.919 349.49 763.273C350.324 762.622 351.324 762.297 352.49 762.297C353.657 762.297 354.654 762.622 355.482 763.273C356.316 763.919 356.951 764.857 357.389 766.086C357.831 767.31 358.053 768.786 358.053 770.516C358.053 772.255 357.834 773.74 357.396 774.969C356.959 776.193 356.326 777.128 355.498 777.773C354.67 778.414 353.667 778.734 352.49 778.734ZM352.49 777.016C353.657 777.016 354.563 776.453 355.209 775.328C355.855 774.203 356.178 772.599 356.178 770.516C356.178 769.13 356.029 767.951 355.732 766.977C355.441 766.003 355.019 765.26 354.467 764.75C353.92 764.24 353.261 763.984 352.49 763.984C351.334 763.984 350.43 764.555 349.779 765.695C349.128 766.831 348.803 768.437 348.803 770.516C348.803 771.901 348.949 773.078 349.24 774.047C349.532 775.016 349.951 775.753 350.498 776.258C351.05 776.763 351.714 777.016 352.49 777.016ZM366.24 778.734C365.063 778.734 364.061 778.414 363.232 777.773C362.404 777.128 361.771 776.193 361.334 774.969C360.896 773.74 360.678 772.255 360.678 770.516C360.678 768.786 360.896 767.31 361.334 766.086C361.777 764.857 362.412 763.919 363.24 763.273C364.074 762.622 365.074 762.297 366.24 762.297C367.407 762.297 368.404 762.622 369.232 763.273C370.066 763.919 370.701 764.857 371.139 766.086C371.581 767.31 371.803 768.786 371.803 770.516C371.803 772.255 371.584 773.74 371.146 774.969C370.709 776.193 370.076 777.128 369.248 777.773C368.42 778.414 367.417 778.734 366.24 778.734ZM366.24 777.016C367.407 777.016 368.313 776.453 368.959 775.328C369.605 774.203 369.928 772.599 369.928 770.516C369.928 769.13 369.779 767.951 369.482 766.977C369.191 766.003 368.769 765.26 368.217 764.75C367.67 764.24 367.011 763.984 366.24 763.984C365.084 763.984 364.18 764.555 363.529 765.695C362.878 766.831 362.553 768.437 362.553 770.516C362.553 771.901 362.699 773.078 362.99 774.047C363.282 775.016 363.701 775.753 364.248 776.258C364.8 776.763 365.464 777.016 366.24 777.016ZM387.553 776.016L391.74 766.516H393.49L388.303 778.516H386.803L381.709 766.516H383.428L387.553 776.016ZM382.834 766.516V778.516H380.99V766.516H382.834ZM392.271 778.516V766.516H394.115V778.516H392.271ZM404.053 776.016L408.24 766.516H409.99L404.803 778.516H403.303L398.209 766.516H399.928L404.053 776.016ZM399.334 766.516V778.516H397.49V766.516H399.334ZM408.771 778.516V766.516H410.615V778.516H408.771Z" fill="#E8E4EC"/>
<path d="M628.707 771.223C629.098 770.832 629.098 770.199 628.707 769.809L622.343 763.445C621.953 763.054 621.319 763.054 620.929 763.445C620.538 763.835 620.538 764.468 620.929 764.859L626.586 770.516L620.929 776.172C620.538 776.563 620.538 777.196 620.929 777.587C621.319 777.977 621.953 777.977 622.343 777.587L628.707 771.223ZM628 769.516H426.5V771.516H628V769.516Z" fill="black"/>
<path d="M632 561.516L632 792.516" stroke="black" stroke-width="2" stroke-linecap="round" stroke-dasharray="12 12"/>
<rect x="407" y="60.5156" width="93" height="44" rx="10" fill="black"/>
<path d="M423.156 90.5156L430.313 76.3594V76.2344H422.063V74.5156H432.313V76.3281L425.188 90.5156H423.156ZM440.01 90.7344C439.093 90.7344 438.268 90.5521 437.533 90.1875C436.799 89.8229 436.21 89.3229 435.768 88.6875C435.325 88.0521 435.083 87.3281 435.041 86.5156H436.916C436.989 87.2396 437.317 87.8385 437.9 88.3125C438.489 88.7812 439.192 89.0156 440.01 89.0156C440.666 89.0156 441.249 88.862 441.76 88.5547C442.275 88.2474 442.679 87.8255 442.971 87.2891C443.268 86.7474 443.416 86.1354 443.416 85.4531C443.416 84.7552 443.262 84.1328 442.955 83.5859C442.653 83.0339 442.236 82.599 441.705 82.2812C441.174 81.9635 440.567 81.8021 439.885 81.7969C439.395 81.7917 438.893 81.8672 438.377 82.0234C437.861 82.1745 437.437 82.3698 437.104 82.6094L435.291 82.3906L436.26 74.5156H444.572V76.2344H437.885L437.322 80.9531H437.416C437.744 80.6927 438.156 80.4766 438.65 80.3047C439.145 80.1328 439.661 80.0469 440.197 80.0469C441.176 80.0469 442.049 80.2812 442.814 80.75C443.585 81.2135 444.189 81.849 444.627 82.6562C445.07 83.4635 445.291 84.3854 445.291 85.4219C445.291 86.4427 445.062 87.3542 444.604 88.1562C444.15 88.9531 443.525 89.5833 442.729 90.0469C441.932 90.5052 441.025 90.7344 440.01 90.7344ZM461.176 88.0156L465.363 78.5156H467.113L461.926 90.5156H460.426L455.332 78.5156H457.051L461.176 88.0156ZM456.457 78.5156V90.5156H454.613V78.5156H456.457ZM465.895 90.5156V78.5156H467.738V90.5156H465.895ZM477.676 88.0156L481.863 78.5156H483.613L478.426 90.5156H476.926L471.832 78.5156H473.551L477.676 88.0156ZM472.957 78.5156V90.5156H471.113V78.5156H472.957ZM482.395 90.5156V78.5156H484.238V90.5156H482.395Z" fill="#E8E4EC"/>
<path d="M524 82.5156H500" stroke="black" stroke-width="2"/>
<path d="M524 60.5156L524 235.516" stroke="black" stroke-width="2" stroke-linecap="round" stroke-dasharray="12 12"/>
<path d="M527.293 81.8085C526.902 82.199 526.902 82.8322 527.293 83.2227L533.657 89.5867C534.047 89.9772 534.681 89.9772 535.071 89.5867C535.462 89.1962 535.462 88.563 535.071 88.1725L529.414 82.5156L535.071 76.8588C535.462 76.4682 535.462 75.8351 535.071 75.4446C534.681 75.054 534.047 75.054 533.657 75.4446L527.293 81.8085ZM578 81.5156H528V83.5156H578V81.5156Z" fill="black"/>
<path d="M628.707 83.2227C629.098 82.8322 629.098 82.199 628.707 81.8085L622.343 75.4446C621.953 75.054 621.319 75.054 620.929 75.4446C620.538 75.8351 620.538 76.4682 620.929 76.8588L626.586 82.5156L620.929 88.1725C620.538 88.563 620.538 89.1962 620.929 89.5867C621.319 89.9772 621.953 89.9772 622.343 89.5867L628.707 83.2227ZM628 81.5156H578V83.5156H628V81.5156Z" fill="black"/>
<path d="M632 60.5156L632 235.516" stroke="black" stroke-width="2" stroke-linecap="round" stroke-dasharray="12 12"/>
<defs>
<clipPath id="clip0_3114_14327">
<rect width="438" height="816" fill="white" transform="translate(770 0.515625)"/>
</clipPath>
</defs>
</svg>
