<svg width="593" height="481" viewBox="0 0 593 481" fill="none" xmlns="http://www.w3.org/2000/svg">
<g clip-path="url(#clip0_3114_13390)">
<rect x="0.333008" y="0.742188" width="592" height="480" fill="#DFDBD8"/>
<path d="M212.333 220.234H241.628V145.742H250.363" stroke="#50E55F" stroke-width="8"/>
<path d="M185.151 250.28C185.151 254.166 185.926 258.081 185.926 261.931C185.926 262.899 185.506 265.155 186.163 265.958C191.786 272.83 194.5 273.287 199.106 280.603C200.851 283.374 198.904 290.596 204.146 290.596C212.13 290.596 207.162 303.858 211.296 306.102C220.94 311.337 231.641 306.049 239.982 311.357C242.846 313.179 246.879 313.855 250.276 313.855" stroke="black" stroke-width="3" stroke-linecap="round"/>
<rect x="-40.667" y="408.742" width="650" height="72" fill="#868686"/>
<rect width="204" height="378" transform="translate(250.333 92.7422)" fill="#F5F5F5"/>
<path d="M330.289 168.342H430.709V454.576H330.289V168.342Z" fill="#B5DADA"/>
<path d="M300.27 168.342H274.617V455.576H300.27V168.342Z" fill="#B5DADA"/>
<path d="M274.308 106.352V138.128H430.044V106.352H274.308Z" fill="#B5DADA"/>
<path d="M315.307 470.317H445.833V153.222M315.307 470.317H258.865V153.222M315.307 470.317V153.222M315.307 153.222H258.865M315.307 153.222H445.833M258.865 153.222V93.168M445.833 153.222V93.168M250.833 93.168H453.833V470.317H250.833V93.168ZM330.289 168.342H430.709V454.576H330.289V168.342ZM300.27 168.342H274.617V455.576H300.27V168.342ZM274.308 138.128V106.352H430.044V138.128H274.308Z" stroke="#555555"/>
<path d="M385.662 198.391H376.553C366.49 198.391 358.333 206.548 358.333 216.61V225.72C358.333 235.782 366.49 243.94 376.553 243.94H385.662C395.725 243.94 403.882 235.782 403.882 225.72V216.61C403.882 206.548 395.725 198.391 385.662 198.391Z" stroke="#555555" stroke-width="1.1672" stroke-miterlimit="10"/>
<path d="M369.875 209.516V218.058H368.327V211.021H368.277L366.279 212.298V210.88L368.402 209.516H369.875Z" fill="#FF00CC"/>
<path d="M375.966 218.22C375.279 218.22 374.69 218.046 374.199 217.697C373.708 217.348 373.331 216.843 373.069 216.183C372.806 215.523 372.675 214.727 372.675 213.795C372.677 212.863 372.811 212.07 373.073 211.415C373.336 210.76 373.713 210.261 374.203 209.916C374.694 209.571 375.282 209.398 375.966 209.398C376.65 209.398 377.238 209.571 377.73 209.916C378.222 210.261 378.6 210.761 378.863 211.417C379.126 212.074 379.257 212.866 379.257 213.795C379.257 214.723 379.125 215.526 378.863 216.187C378.6 216.847 378.223 217.352 377.732 217.7C377.241 218.047 376.653 218.221 375.966 218.221V218.22ZM375.966 216.915C376.5 216.915 376.921 216.651 377.232 216.124C377.542 215.597 377.697 214.82 377.697 213.795C377.697 213.116 377.626 212.546 377.484 212.085C377.342 211.623 377.142 211.275 376.884 211.04C376.625 210.805 376.319 210.687 375.966 210.687C375.434 210.687 375.014 210.951 374.706 211.478C374.397 212.005 374.242 212.777 374.239 213.795C374.236 214.476 374.305 215.049 374.445 215.514C374.585 215.978 374.785 216.327 375.044 216.562C375.303 216.797 375.61 216.915 375.966 216.915Z" fill="#FF00CC"/>
<path d="M381.17 212.8C380.917 212.8 380.7 212.71 380.52 212.531C380.339 212.351 380.25 212.135 380.253 211.882C380.25 211.632 380.339 211.417 380.52 211.238C380.7 211.058 380.918 210.969 381.17 210.969C381.423 210.969 381.628 211.058 381.811 211.238C381.993 211.417 382.085 211.632 382.088 211.882C382.085 212.049 382.042 212.202 381.957 212.341C381.872 212.48 381.76 212.591 381.623 212.675C381.486 212.758 381.335 212.8 381.17 212.8ZM381.17 217.033C380.917 217.033 380.7 216.944 380.52 216.764C380.339 216.585 380.25 216.369 380.253 216.116C380.25 215.866 380.339 215.651 380.52 215.473C380.7 215.296 380.918 215.207 381.17 215.207C381.423 215.207 381.628 215.296 381.811 215.473C381.993 215.651 382.085 215.865 382.088 216.116C382.085 216.286 382.042 216.44 381.957 216.579C381.872 216.718 381.76 216.828 381.623 216.91C381.486 216.992 381.335 217.033 381.17 217.033Z" fill="#FF00CC"/>
<path d="M386.374 218.22C385.688 218.22 385.099 218.046 384.608 217.697C384.117 217.348 383.74 216.843 383.477 216.183C383.214 215.523 383.083 214.727 383.083 213.795C383.086 212.863 383.219 212.07 383.482 211.415C383.745 210.76 384.122 210.261 384.612 209.916C385.103 209.571 385.69 209.398 386.374 209.398C387.058 209.398 387.646 209.571 388.139 209.916C388.631 210.261 389.009 210.761 389.271 211.417C389.534 212.074 389.665 212.866 389.665 213.795C389.665 214.723 389.534 215.526 389.271 216.187C389.008 216.847 388.632 217.352 388.141 217.7C387.65 218.047 387.062 218.221 386.374 218.221V218.22ZM386.374 216.915C386.909 216.915 387.33 216.651 387.64 216.124C387.95 215.597 388.106 214.82 388.106 213.795C388.106 213.116 388.034 212.546 387.893 212.085C387.751 211.623 387.55 211.275 387.292 211.04C387.034 210.805 386.728 210.687 386.374 210.687C385.843 210.687 385.423 210.951 385.115 211.478C384.806 212.005 384.65 212.777 384.648 213.795C384.645 214.476 384.713 215.049 384.854 215.514C384.994 215.978 385.194 216.327 385.453 216.562C385.711 216.797 386.019 216.915 386.374 216.915Z" fill="#FF00CC"/>
<path d="M393.676 218.22C392.99 218.22 392.401 218.046 391.91 217.697C391.419 217.348 391.042 216.843 390.779 216.183C390.516 215.523 390.385 214.727 390.385 213.795C390.388 212.863 390.521 212.07 390.784 211.415C391.047 210.76 391.424 210.261 391.914 209.916C392.405 209.571 392.992 209.398 393.676 209.398C394.36 209.398 394.948 209.571 395.441 209.916C395.933 210.261 396.311 210.761 396.573 211.417C396.836 212.074 396.967 212.866 396.967 213.795C396.967 214.723 396.836 215.526 396.573 216.187C396.31 216.847 395.934 217.352 395.443 217.7C394.952 218.047 394.364 218.221 393.676 218.221V218.22ZM393.676 216.915C394.211 216.915 394.632 216.651 394.942 216.124C395.252 215.597 395.408 214.82 395.408 213.795C395.408 213.116 395.336 212.546 395.195 212.085C395.053 211.623 394.852 211.275 394.594 211.04C394.336 210.805 394.03 210.687 393.676 210.687C393.145 210.687 392.725 210.951 392.417 211.478C392.108 212.005 391.952 212.777 391.95 213.795C391.947 214.476 392.015 215.049 392.156 215.514C392.296 215.978 392.496 216.327 392.755 216.562C393.013 216.797 393.321 216.915 393.676 216.915Z" fill="#FF00CC"/>
<path d="M365.875 228.597V227.479L368.841 224.572C369.125 224.286 369.361 224.031 369.55 223.809C369.74 223.586 369.881 223.371 369.976 223.162C370.07 222.954 370.117 222.731 370.117 222.495C370.117 222.225 370.056 221.994 369.934 221.8C369.811 221.607 369.643 221.457 369.429 221.352C369.215 221.246 368.972 221.193 368.699 221.193C368.427 221.193 368.172 221.251 367.961 221.366C367.75 221.482 367.586 221.645 367.471 221.856C367.356 222.067 367.298 222.319 367.298 222.611H365.826C365.826 222.069 365.95 221.598 366.197 221.197C366.444 220.797 366.786 220.487 367.221 220.267C367.656 220.047 368.156 219.938 368.72 219.938C369.285 219.938 369.797 220.045 370.231 220.259C370.664 220.473 371.001 220.766 371.242 221.139C371.483 221.512 371.603 221.937 371.603 222.415C371.603 222.735 371.541 223.049 371.419 223.358C371.297 223.667 371.082 224.008 370.774 224.384C370.467 224.76 370.037 225.214 369.484 225.748L368.011 227.245V227.304H371.732V228.596H365.876L365.875 228.597Z" fill="#FF00CC"/>
<path d="M373.321 228.597V227.479L376.287 224.572C376.57 224.286 376.807 224.031 376.996 223.809C377.185 223.586 377.327 223.371 377.421 223.162C377.516 222.954 377.563 222.731 377.563 222.495C377.563 222.225 377.502 221.994 377.379 221.8C377.257 221.607 377.089 221.457 376.875 221.352C376.661 221.246 376.417 221.193 376.145 221.193C375.873 221.193 375.618 221.251 375.407 221.366C375.196 221.482 375.032 221.645 374.917 221.856C374.802 222.067 374.744 222.319 374.744 222.611H373.271C373.271 222.069 373.395 221.598 373.643 221.197C373.89 220.797 374.231 220.487 374.667 220.267C375.102 220.047 375.602 219.938 376.166 219.938C376.731 219.938 377.243 220.045 377.676 220.259C378.11 220.473 378.447 220.766 378.688 221.139C378.928 221.512 379.049 221.937 379.049 222.415C379.049 222.735 378.987 223.049 378.865 223.358C378.742 223.667 378.527 224.008 378.22 224.384C377.913 224.76 377.482 225.214 376.929 225.748L375.457 227.245V227.304H379.178V228.596H373.322L373.321 228.597Z" fill="#FF00CC"/>
<path d="M381.17 223.335C380.917 223.335 380.7 223.246 380.52 223.066C380.339 222.887 380.25 222.671 380.253 222.417C380.25 222.167 380.339 221.952 380.52 221.773C380.7 221.593 380.918 221.504 381.17 221.504C381.423 221.504 381.628 221.593 381.811 221.773C381.993 221.952 382.085 222.167 382.088 222.417C382.085 222.585 382.042 222.737 381.957 222.876C381.872 223.015 381.76 223.126 381.623 223.21C381.486 223.293 381.335 223.335 381.17 223.335V223.335ZM381.17 227.569C380.917 227.569 380.7 227.479 380.52 227.3C380.339 227.12 380.25 226.904 380.253 226.651C380.25 226.401 380.339 226.186 380.52 226.009C380.7 225.831 380.918 225.742 381.17 225.742C381.423 225.742 381.628 225.831 381.811 226.009C381.993 226.186 382.085 226.401 382.088 226.651C382.085 226.821 382.042 226.975 381.957 227.114C381.872 227.253 381.76 227.364 381.623 227.445C381.486 227.527 381.335 227.568 381.17 227.568V227.569Z" fill="#FF00CC"/>
<path d="M386.436 228.759C385.75 228.759 385.161 228.585 384.67 228.236C384.179 227.887 383.802 227.382 383.539 226.722C383.276 226.062 383.146 225.266 383.146 224.334C383.148 223.402 383.281 222.609 383.544 221.954C383.807 221.299 384.184 220.799 384.674 220.455C385.165 220.11 385.752 219.938 386.436 219.938C387.12 219.938 387.708 220.11 388.201 220.455C388.693 220.8 389.071 221.301 389.333 221.956C389.596 222.613 389.727 223.405 389.727 224.334C389.727 225.262 389.596 226.066 389.333 226.726C389.07 227.387 388.694 227.891 388.203 228.238C387.712 228.586 387.124 228.759 386.436 228.759ZM386.436 227.454C386.971 227.454 387.392 227.19 387.702 226.663C388.012 226.136 388.168 225.359 388.168 224.334C388.168 223.655 388.096 223.085 387.955 222.624C387.813 222.162 387.612 221.814 387.354 221.579C387.096 221.344 386.79 221.226 386.436 221.226C385.905 221.226 385.485 221.49 385.177 222.017C384.868 222.544 384.712 223.316 384.71 224.334C384.707 225.015 384.775 225.588 384.916 226.053C385.056 226.517 385.256 226.866 385.515 227.101C385.773 227.336 386.081 227.454 386.436 227.454Z" fill="#FF00CC"/>
<path d="M393.743 228.759C393.056 228.759 392.467 228.585 391.976 228.236C391.485 227.887 391.108 227.382 390.846 226.722C390.583 226.062 390.452 225.266 390.452 224.334C390.454 223.402 390.587 222.609 390.85 221.954C391.113 221.299 391.49 220.799 391.98 220.455C392.471 220.11 393.059 219.938 393.743 219.938C394.427 219.938 395.015 220.11 395.507 220.455C395.999 220.8 396.377 221.301 396.639 221.956C396.903 222.613 397.033 223.405 397.033 224.334C397.033 225.262 396.902 226.066 396.639 226.726C396.376 227.387 396 227.891 395.509 228.238C395.018 228.586 394.43 228.759 393.743 228.759ZM393.743 227.454C394.277 227.454 394.698 227.19 395.009 226.663C395.318 226.136 395.474 225.359 395.474 224.334C395.474 223.655 395.403 223.085 395.261 222.624C395.119 222.162 394.919 221.814 394.66 221.579C394.402 221.344 394.096 221.226 393.743 221.226C393.211 221.226 392.791 221.49 392.483 222.017C392.174 222.544 392.018 223.316 392.016 224.334C392.013 225.015 392.081 225.588 392.222 226.053C392.362 226.517 392.562 226.866 392.821 227.101C393.08 227.336 393.387 227.454 393.743 227.454Z" fill="#FF00CC"/>
<path d="M371.941 216.762H366.279V218.055H371.941V216.762Z" fill="#FF00CC"/>
<path d="M370.524 236.204C370.296 236.204 370.1 236.155 369.935 236.057C369.771 235.959 369.644 235.821 369.555 235.643C369.467 235.464 369.422 235.255 369.422 235.015C369.422 234.775 369.467 234.569 369.555 234.388C369.644 234.208 369.769 234.066 369.929 233.964C370.089 233.863 370.277 233.812 370.492 233.812C370.622 233.812 370.749 233.834 370.872 233.877C370.994 233.92 371.104 233.988 371.201 234.08C371.299 234.173 371.376 234.293 371.432 234.44C371.489 234.587 371.517 234.765 371.517 234.976V235.135H369.677V234.798H371.075C371.075 234.679 371.051 234.574 371.003 234.482C370.955 234.39 370.887 234.318 370.8 234.264C370.714 234.211 370.612 234.184 370.495 234.184C370.369 234.184 370.259 234.215 370.165 234.277C370.071 234.339 369.999 234.419 369.947 234.518C369.896 234.617 369.871 234.724 369.871 234.84V235.103C369.871 235.258 369.899 235.39 369.953 235.498C370.008 235.607 370.085 235.69 370.183 235.746C370.281 235.803 370.396 235.831 370.528 235.831C370.613 235.831 370.691 235.819 370.761 235.794C370.831 235.769 370.892 235.733 370.943 235.684C370.995 235.635 371.034 235.574 371.061 235.502L371.487 235.579C371.453 235.704 371.392 235.814 371.304 235.908C371.216 236.002 371.106 236.075 370.974 236.126C370.842 236.178 370.692 236.204 370.523 236.204L370.524 236.204Z" fill="#FF00CC"/>
<path d="M371.861 236.163L372.758 234.978L371.872 233.848H372.396L373.112 234.809H373.273V233.848H373.724V234.809H373.88L374.596 233.848H375.121L374.239 234.978L375.131 236.163H374.596L373.874 235.198H373.723V236.163H373.272V235.198H373.122L372.395 236.163H371.86H371.861Z" fill="#FF00CC"/>
<path d="M376.535 236.204C376.307 236.204 376.111 236.155 375.946 236.057C375.782 235.959 375.655 235.821 375.566 235.643C375.478 235.464 375.433 235.255 375.433 235.015C375.433 234.775 375.478 234.569 375.566 234.388C375.655 234.208 375.78 234.066 375.94 233.964C376.1 233.863 376.288 233.812 376.503 233.812C376.633 233.812 376.76 233.834 376.883 233.877C377.005 233.92 377.115 233.988 377.212 234.08C377.31 234.173 377.387 234.293 377.443 234.44C377.5 234.587 377.528 234.765 377.528 234.976V235.135H375.688V234.798H377.086C377.086 234.679 377.062 234.574 377.014 234.482C376.966 234.39 376.898 234.318 376.811 234.264C376.725 234.211 376.623 234.184 376.506 234.184C376.38 234.184 376.27 234.215 376.176 234.277C376.082 234.339 376.01 234.419 375.958 234.518C375.907 234.617 375.882 234.724 375.882 234.84V235.103C375.882 235.258 375.91 235.39 375.964 235.498C376.019 235.607 376.096 235.69 376.194 235.746C376.292 235.803 376.407 235.831 376.539 235.831C376.624 235.831 376.702 235.819 376.772 235.794C376.842 235.769 376.903 235.733 376.954 235.684C377.006 235.635 377.045 235.574 377.072 235.502L377.498 235.579C377.464 235.704 377.403 235.814 377.315 235.908C377.227 236.002 377.117 236.075 376.985 236.126C376.853 236.178 376.703 236.204 376.534 236.204L376.535 236.204Z" fill="#FF00CC"/>
<path d="M377.846 236.83V235.772H378.035C378.083 235.728 378.124 235.675 378.158 235.613C378.192 235.552 378.22 235.479 378.243 235.395C378.267 235.31 378.287 235.212 378.303 235.099C378.319 234.986 378.333 234.857 378.345 234.711L378.417 233.848H379.99V235.772H380.346V236.83H379.906V236.162H378.292V236.83H377.846ZM378.517 235.772H379.55V234.233H378.821L378.773 234.711C378.749 234.954 378.72 235.164 378.685 235.343C378.65 235.521 378.594 235.664 378.517 235.771V235.772Z" fill="#FF00CC"/>
<path d="M381.271 233.848V236.163H380.829V233.848H381.271ZM382.397 234.811V235.201H381.144V234.811H382.397ZM382.712 233.848V236.163H382.272V233.848H382.712Z" fill="#FF00CC"/>
<path d="M384.352 236.204C384.124 236.204 383.927 236.155 383.763 236.057C383.599 235.959 383.472 235.821 383.383 235.643C383.294 235.464 383.25 235.255 383.25 235.015C383.25 234.775 383.295 234.569 383.383 234.388C383.472 234.208 383.597 234.066 383.757 233.964C383.917 233.863 384.104 233.812 384.319 233.812C384.45 233.812 384.576 233.834 384.699 233.877C384.822 233.92 384.932 233.988 385.029 234.08C385.127 234.173 385.203 234.293 385.26 234.44C385.316 234.587 385.344 234.765 385.344 234.976V235.135H383.504V234.798H384.903C384.903 234.679 384.879 234.574 384.831 234.482C384.783 234.39 384.715 234.318 384.628 234.264C384.541 234.211 384.439 234.184 384.323 234.184C384.196 234.184 384.086 234.215 383.992 234.277C383.898 234.339 383.826 234.419 383.775 234.518C383.724 234.617 383.699 234.724 383.699 234.84V235.103C383.699 235.258 383.726 235.39 383.781 235.498C383.836 235.607 383.912 235.69 384.01 235.746C384.109 235.803 384.224 235.831 384.355 235.831C384.441 235.831 384.519 235.819 384.589 235.794C384.659 235.769 384.72 235.733 384.771 235.684C384.822 235.635 384.862 235.574 384.888 235.502L385.315 235.579C385.281 235.704 385.219 235.814 385.132 235.908C385.044 236.002 384.934 236.075 384.802 236.126C384.67 236.178 384.519 236.204 384.351 236.204L384.352 236.204Z" fill="#FF00CC"/>
<path d="M385.89 236.163V233.848H386.85C387.111 233.848 387.318 233.903 387.47 234.014C387.623 234.125 387.699 234.276 387.699 234.465C387.699 234.601 387.656 234.708 387.57 234.788C387.484 234.867 387.369 234.92 387.227 234.947C387.33 234.959 387.425 234.99 387.511 235.04C387.598 235.089 387.667 235.156 387.72 235.239C387.773 235.323 387.799 235.422 387.799 235.538C387.799 235.66 387.767 235.769 387.704 235.863C387.641 235.957 387.549 236.03 387.429 236.083C387.31 236.136 387.165 236.162 386.996 236.162H385.89L385.89 236.163ZM386.313 234.812H386.854C386.939 234.812 387.011 234.801 387.072 234.776C387.133 234.752 387.179 234.718 387.212 234.673C387.245 234.628 387.261 234.575 387.261 234.514C387.261 234.424 387.225 234.355 387.151 234.304C387.078 234.254 386.977 234.229 386.85 234.229H386.314V234.812L386.313 234.812ZM386.313 235.786H386.996C387.108 235.786 387.195 235.759 387.258 235.706C387.321 235.653 387.353 235.58 387.353 235.489C387.353 235.382 387.321 235.297 387.258 235.235C387.195 235.173 387.107 235.142 386.996 235.142H386.313V235.786Z" fill="#FF00CC"/>
<path d="M388.775 233.848V236.163H388.334V233.848H388.775ZM389.902 234.811V235.201H388.649V234.811H389.902ZM390.217 233.848V236.163H389.777V233.848H390.217Z" fill="#FF00CC"/>
<path d="M391.836 236.204C391.619 236.204 391.429 236.154 391.268 236.055C391.106 235.955 390.981 235.816 390.891 235.637C390.802 235.458 390.757 235.249 390.757 235.011C390.757 234.772 390.802 234.561 390.891 234.381C390.981 234.201 391.106 234.061 391.268 233.962C391.429 233.862 391.619 233.812 391.836 233.812C392.053 233.812 392.242 233.862 392.404 233.962C392.566 234.062 392.691 234.201 392.781 234.381C392.87 234.561 392.915 234.77 392.915 235.011C392.915 235.251 392.87 235.458 392.781 235.637C392.691 235.816 392.566 235.955 392.404 236.055C392.242 236.154 392.053 236.204 391.836 236.204ZM391.837 235.826C391.978 235.826 392.095 235.788 392.187 235.714C392.279 235.64 392.348 235.54 392.393 235.417C392.438 235.294 392.46 235.157 392.46 235.008C392.46 234.86 392.437 234.725 392.393 234.601C392.348 234.477 392.28 234.377 392.187 234.302C392.095 234.226 391.978 234.189 391.837 234.189C391.697 234.189 391.579 234.226 391.486 234.302C391.393 234.377 391.324 234.477 391.279 234.601C391.234 234.725 391.212 234.861 391.212 235.008C391.212 235.156 391.234 235.293 391.279 235.417C391.324 235.54 391.393 235.64 391.486 235.714C391.578 235.788 391.696 235.826 391.837 235.826Z" fill="#FF00CC"/>
<rect x="343.333" y="313.473" width="20.7457" height="10.0382" rx="5.01912" fill="#FF00CC"/>
<path d="M360.232 319.59V317.911H359.83C359.721 317.911 359.638 317.936 359.581 317.987C359.524 318.037 359.496 318.097 359.497 318.165C359.496 318.235 359.523 318.294 359.578 318.343C359.634 318.39 359.716 318.414 359.824 318.414H360.43V318.816H359.824C359.64 318.816 359.482 318.788 359.348 318.732C359.214 318.677 359.11 318.599 359.038 318.499C358.965 318.399 358.929 318.282 358.93 318.149C358.929 318.009 358.965 317.887 359.038 317.781C359.11 317.675 359.214 317.593 359.349 317.534C359.485 317.475 359.645 317.445 359.83 317.445H360.786V319.59H360.232ZM358.869 319.59L359.465 318.473H360.033L359.438 319.59H358.869Z" fill="white"/>
<path d="M358.343 316.657L358.524 317.045C358.464 317.096 358.397 317.133 358.323 317.157C358.249 317.18 358.161 317.196 358.059 317.203C357.958 317.211 357.834 317.216 357.688 317.219C357.522 317.221 357.387 317.247 357.283 317.298C357.178 317.349 357.099 317.43 357.045 317.54C356.991 317.649 356.956 317.791 356.939 317.967H356.96C357.024 317.836 357.114 317.734 357.231 317.663C357.348 317.591 357.493 317.555 357.665 317.555C357.848 317.555 358.007 317.595 358.144 317.675C358.282 317.755 358.389 317.87 358.465 318.02C358.542 318.17 358.58 318.35 358.58 318.559C358.58 318.777 358.537 318.967 358.451 319.128C358.367 319.288 358.246 319.412 358.09 319.501C357.933 319.588 357.747 319.632 357.531 319.632C357.314 319.632 357.127 319.586 356.97 319.495C356.813 319.404 356.692 319.269 356.607 319.091C356.522 318.914 356.479 318.695 356.479 318.435V318.259C356.479 317.742 356.58 317.359 356.781 317.11C356.982 316.86 357.278 316.734 357.668 316.73C357.774 316.728 357.87 316.728 357.956 316.728C358.041 316.729 358.116 316.725 358.181 316.716C358.246 316.707 358.3 316.687 358.343 316.657ZM357.534 319.171C357.625 319.171 357.703 319.147 357.769 319.1C357.835 319.052 357.885 318.984 357.921 318.896C357.957 318.808 357.975 318.702 357.975 318.579C357.975 318.457 357.957 318.354 357.921 318.269C357.885 318.183 357.835 318.118 357.769 318.073C357.702 318.029 357.623 318.006 357.531 318.006C357.462 318.006 357.4 318.019 357.345 318.044C357.29 318.069 357.243 318.106 357.204 318.156C357.166 318.204 357.136 318.264 357.115 318.336C357.094 318.407 357.084 318.488 357.084 318.579C357.084 318.762 357.124 318.907 357.203 319.013C357.283 319.118 357.393 319.171 357.534 319.171Z" fill="white"/>
<path d="M355.186 319.632C354.966 319.632 354.776 319.587 354.616 319.498C354.458 319.408 354.336 319.28 354.251 319.115C354.165 318.95 354.122 318.754 354.122 318.527C354.122 318.307 354.165 318.113 354.251 317.946C354.336 317.78 354.457 317.65 354.612 317.557C354.769 317.464 354.952 317.417 355.163 317.417C355.304 317.417 355.436 317.44 355.558 317.485C355.681 317.53 355.788 317.598 355.879 317.688C355.971 317.778 356.043 317.892 356.094 318.029C356.145 318.165 356.171 318.324 356.171 318.506V318.67H354.359V318.301H355.611C355.611 318.215 355.592 318.139 355.555 318.073C355.518 318.007 355.466 317.956 355.4 317.918C355.335 317.88 355.259 317.861 355.172 317.861C355.082 317.861 355.002 317.882 354.932 317.924C354.863 317.965 354.809 318.02 354.77 318.09C354.731 318.159 354.711 318.236 354.71 318.321V318.671C354.71 318.777 354.73 318.869 354.769 318.946C354.809 319.024 354.865 319.083 354.938 319.125C355.01 319.167 355.096 319.188 355.196 319.188C355.262 319.188 355.323 319.179 355.378 319.16C355.433 319.141 355.48 319.113 355.519 319.076C355.558 319.039 355.588 318.993 355.608 318.939L356.158 318.976C356.13 319.108 356.073 319.223 355.987 319.322C355.901 319.42 355.79 319.496 355.654 319.551C355.519 319.605 355.363 319.632 355.186 319.632Z" fill="white"/>
<path d="M352.869 319.632C352.65 319.632 352.461 319.585 352.302 319.492C352.145 319.398 352.024 319.268 351.939 319.101C351.855 318.935 351.813 318.743 351.813 318.526C351.813 318.306 351.856 318.113 351.941 317.948C352.026 317.781 352.148 317.651 352.305 317.558C352.462 317.464 352.65 317.417 352.867 317.417C353.054 317.417 353.218 317.451 353.358 317.519C353.499 317.587 353.61 317.682 353.692 317.805C353.774 317.928 353.819 318.072 353.827 318.238H353.266C353.25 318.131 353.208 318.045 353.14 317.98C353.073 317.914 352.985 317.881 352.876 317.881C352.784 317.881 352.704 317.906 352.635 317.956C352.567 318.005 352.514 318.078 352.475 318.173C352.437 318.268 352.418 318.382 352.418 318.518C352.418 318.654 352.437 318.771 352.474 318.867C352.512 318.963 352.566 319.036 352.635 319.086C352.704 319.136 352.784 319.161 352.876 319.161C352.944 319.161 353.005 319.147 353.059 319.119C353.114 319.091 353.159 319.051 353.195 318.998C353.231 318.944 353.255 318.879 353.266 318.804H353.827C353.818 318.968 353.773 319.112 353.693 319.237C353.614 319.361 353.505 319.457 353.365 319.527C353.225 319.597 353.06 319.632 352.869 319.632Z" fill="white"/>
<path d="M349.321 319.631C349.184 319.631 349.062 319.607 348.955 319.559C348.848 319.511 348.763 319.44 348.701 319.346C348.639 319.251 348.608 319.132 348.608 318.991C348.608 318.872 348.63 318.772 348.674 318.691C348.718 318.61 348.777 318.545 348.853 318.495C348.928 318.446 349.014 318.409 349.11 318.383C349.207 318.358 349.308 318.341 349.414 318.33C349.539 318.317 349.64 318.305 349.716 318.294C349.792 318.282 349.848 318.264 349.882 318.241C349.917 318.218 349.934 318.183 349.934 318.138V318.129C349.934 318.041 349.906 317.972 349.85 317.924C349.795 317.876 349.717 317.851 349.615 317.851C349.508 317.851 349.423 317.875 349.36 317.923C349.296 317.969 349.255 318.028 349.234 318.099L348.684 318.054C348.712 317.923 348.767 317.811 348.849 317.716C348.931 317.62 349.036 317.546 349.166 317.495C349.296 317.443 349.447 317.417 349.618 317.417C349.737 317.417 349.851 317.431 349.96 317.459C350.07 317.487 350.167 317.53 350.252 317.589C350.338 317.647 350.405 317.723 350.455 317.815C350.504 317.906 350.529 318.016 350.529 318.143V319.59H349.964V319.293H349.948C349.913 319.36 349.867 319.419 349.809 319.47C349.752 319.52 349.682 319.56 349.601 319.589C349.52 319.617 349.427 319.631 349.321 319.631ZM349.491 319.22C349.579 319.22 349.656 319.203 349.723 319.168C349.79 319.133 349.843 319.085 349.881 319.026C349.919 318.966 349.938 318.899 349.938 318.823V318.596C349.919 318.608 349.894 318.619 349.861 318.629C349.829 318.639 349.794 318.647 349.754 318.656C349.714 318.663 349.674 318.67 349.633 318.677C349.593 318.682 349.557 318.687 349.525 318.692C349.455 318.702 349.394 318.719 349.342 318.741C349.289 318.763 349.249 318.794 349.22 318.832C349.191 318.869 349.177 318.916 349.177 318.971C349.177 319.052 349.206 319.114 349.265 319.157C349.324 319.199 349.4 319.22 349.491 319.22Z" fill="white"/>
<path d="M347.874 318.28V318.748H346.754V318.28H347.874ZM346.95 317.445V319.59H346.381V317.445H346.95ZM348.247 317.445V319.59H347.683V317.445H348.247Z" fill="white"/>
<circle cx="322.833" cy="334.242" r="4.5" fill="#F5F5F5" stroke="#555555"/>
<path d="M436.833 212.742C436.833 211.361 437.952 210.242 439.333 210.242H447.833V218.242H439.333C437.952 218.242 436.833 217.123 436.833 215.742V212.742Z" fill="#F5F5F5" stroke="#555555"/>
<path d="M440.833 218.242H449.333C450.714 218.242 451.833 219.361 451.833 220.742V223.742C451.833 225.123 450.714 226.242 449.333 226.242H440.833V218.242Z" fill="#F5F5F5" stroke="#555555"/>
<path d="M440.833 202.242H449.333C450.714 202.242 451.833 203.361 451.833 204.742V207.742C451.833 209.123 450.714 210.242 449.333 210.242H440.833V202.242Z" fill="#F5F5F5" stroke="#555555"/>
<path d="M436.833 262.742C436.833 261.361 437.952 260.242 439.333 260.242H447.833V268.242H439.333C437.952 268.242 436.833 267.123 436.833 265.742V262.742Z" fill="#F5F5F5" stroke="#555555"/>
<path d="M440.833 268.242H449.333C450.714 268.242 451.833 269.361 451.833 270.742V273.742C451.833 275.123 450.714 276.242 449.333 276.242H440.833V268.242Z" fill="#F5F5F5" stroke="#555555"/>
<path d="M440.833 252.242H449.333C450.714 252.242 451.833 253.361 451.833 254.742V257.742C451.833 259.123 450.714 260.242 449.333 260.242H440.833V252.242Z" fill="#F5F5F5" stroke="#555555"/>
<path d="M436.833 421.742C436.833 420.361 437.952 419.242 439.333 419.242H447.833V427.242H439.333C437.952 427.242 436.833 426.123 436.833 424.742V421.742Z" fill="#F5F5F5" stroke="#555555"/>
<path d="M440.833 427.242H449.333C450.714 427.242 451.833 428.361 451.833 429.742V432.742C451.833 434.123 450.714 435.242 449.333 435.242H440.833V427.242Z" fill="#F5F5F5" stroke="#555555"/>
<path d="M440.833 411.242H449.333C450.714 411.242 451.833 412.361 451.833 413.742V416.742C451.833 418.123 450.714 419.242 449.333 419.242H440.833V411.242Z" fill="#F5F5F5" stroke="#555555"/>
<rect x="250.833" y="89.2422" width="203" height="4" fill="#F5F5F5" stroke="#555555"/>
<path d="M338.833 400.73V404.242H324.833V400.73H338.833ZM324.833 220.754V217.242H338.833V220.754H324.833Z" fill="#F5F5F5" stroke="#555555"/>
<path d="M335.833 176.242H340.833V445.242H335.833V404.242V399.742V221.242V216.742V176.242Z" fill="#F5F5F5" stroke="#555555"/>
<g filter="url(#filter0_d_3114_13390)">
<rect x="153.333" y="189.742" width="60.48" height="60.48" rx="24.4604" fill="#868686"/>
</g>
<path fill-rule="evenodd" clip-rule="evenodd" d="M196.066 221.207C193.633 221.207 191.587 219.254 191.587 216.71C191.587 214.166 193.512 212.233 196.086 212.233C198.66 212.233 200.586 214.248 200.586 216.71C200.586 219.172 198.538 221.207 196.066 221.207ZM179.294 217.769L176.01 209.181H173.497L170.193 217.769L166.889 209.181H162.977L168.753 224.28H171.267L174.733 215.286L178.219 224.28H180.732L186.488 209.181H182.597L179.293 217.769H179.294ZM196.086 208.612C194.403 208.612 192.883 209.12 191.587 209.995V202.019H187.999V216.731C187.999 221.207 191.627 224.809 196.066 224.809C200.505 224.809 204.174 221.227 204.174 216.69C204.174 212.152 200.586 208.611 196.086 208.611L196.086 208.612Z" fill="white"/>
<rect x="172.062" y="230.743" width="23.4166" height="3.34523" fill="white"/>
<g style="mix-blend-mode:color">
<rect x="251.333" y="87.7422" width="204" height="383" fill="#D9D9D9"/>
</g>
<path d="M184.804 283.364C184.966 282.552 184.44 281.762 183.627 281.599L170.389 278.952C169.577 278.789 168.787 279.316 168.624 280.129C168.462 280.941 168.989 281.731 169.801 281.894L181.568 284.247L179.215 296.014C179.052 296.826 179.579 297.617 180.391 297.779C181.204 297.941 181.994 297.415 182.156 296.602L184.804 283.364ZM151.165 306.318L184.165 284.318L182.501 281.822L149.501 303.822L151.165 306.318Z" fill="#FF003D"/>
<path d="M199.366 266.742L195.771 276.721M192.176 286.7L195.771 276.721M195.771 276.721L205.75 280.316M195.771 276.721L185.792 273.126" stroke="#FF003D" stroke-width="3" stroke-linecap="round"/>
</g>
<rect x="5.33301" y="5.74219" width="582" height="470" stroke="#FF003D" stroke-width="10"/>
<defs>
<filter id="filter0_d_3114_13390" x="149.988" y="189.742" width="63.8252" height="64.9403" filterUnits="userSpaceOnUse" color-interpolation-filters="sRGB">
<feFlood flood-opacity="0" result="BackgroundImageFix"/>
<feColorMatrix in="SourceAlpha" type="matrix" values="0 0 0 0 0 0 0 0 0 0 0 0 0 0 0 0 0 0 127 0" result="hardAlpha"/>
<feOffset dx="-3.34523" dy="4.46031"/>
<feComposite in2="hardAlpha" operator="out"/>
<feColorMatrix type="matrix" values="0 0 0 0 0 0 0 0 0 0 0 0 0 0 0 0 0 0 0.13 0"/>
<feBlend mode="normal" in2="BackgroundImageFix" result="effect1_dropShadow_3114_13390"/>
<feBlend mode="normal" in="SourceGraphic" in2="effect1_dropShadow_3114_13390" result="shape"/>
</filter>
<clipPath id="clip0_3114_13390">
<rect x="0.333008" y="0.742188" width="592" height="480" fill="white"/>
</clipPath>
</defs>
</svg>
