<svg width="593" height="481" viewBox="0 0 593 481" fill="none" xmlns="http://www.w3.org/2000/svg">
<g clip-path="url(#clip0_3114_13418)">
<rect x="0.333008" y="0.742188" width="592" height="480" fill="#DFDBD8"/>
<rect x="-40.667" y="398.742" width="650" height="72" fill="#868686"/>
<path d="M385.866 163.831H377.691C368.661 163.831 361.341 171.151 361.341 180.181V188.356C361.341 197.386 368.661 204.706 377.691 204.706H385.866C394.896 204.706 402.216 197.386 402.216 188.356V180.181C402.216 171.151 394.896 163.831 385.866 163.831Z" stroke="#555555" stroke-width="1.371" stroke-miterlimit="10"/>
<path d="M371.698 173.821V181.487H370.309V175.173H370.264L368.471 176.318V175.045L370.376 173.821H371.698Z" fill="#FF00CC"/>
<path d="M377.165 181.628C376.548 181.628 376.02 181.471 375.579 181.158C375.139 180.845 374.801 180.392 374.565 179.8C374.329 179.207 374.211 178.493 374.211 177.657C374.214 176.821 374.333 176.109 374.569 175.521C374.805 174.934 375.143 174.485 375.583 174.176C376.024 173.866 376.551 173.711 377.165 173.711C377.778 173.711 378.306 173.866 378.748 174.176C379.19 174.485 379.529 174.935 379.764 175.523C380 176.112 380.118 176.823 380.118 177.657C380.118 178.49 380 179.211 379.764 179.804C379.528 180.396 379.19 180.849 378.75 181.161C378.309 181.473 377.781 181.628 377.165 181.628V181.628ZM377.165 180.457C377.644 180.457 378.022 180.22 378.301 179.747C378.579 179.274 378.718 178.577 378.718 177.657C378.718 177.048 378.654 176.536 378.527 176.122C378.4 175.708 378.22 175.395 377.988 175.184C377.756 174.973 377.482 174.868 377.165 174.868C376.688 174.868 376.311 175.104 376.034 175.577C375.757 176.05 375.617 176.743 375.615 177.657C375.613 178.268 375.674 178.782 375.8 179.199C375.926 179.616 376.105 179.929 376.338 180.14C376.57 180.351 376.845 180.457 377.165 180.457Z" fill="#FF00CC"/>
<path d="M381.835 176.766C381.608 176.766 381.413 176.686 381.251 176.525C381.089 176.364 381.009 176.17 381.012 175.943C381.009 175.718 381.089 175.525 381.251 175.364C381.413 175.203 381.608 175.123 381.835 175.123C382.062 175.123 382.246 175.203 382.41 175.364C382.573 175.525 382.656 175.718 382.659 175.943C382.656 176.093 382.617 176.23 382.541 176.354C382.465 176.479 382.365 176.579 382.241 176.654C382.118 176.729 381.983 176.766 381.835 176.766ZM381.835 180.565C381.608 180.565 381.413 180.485 381.251 180.324C381.089 180.163 381.009 179.969 381.012 179.742C381.009 179.518 381.089 179.325 381.251 179.165C381.413 179.006 381.608 178.926 381.835 178.926C382.062 178.926 382.246 179.006 382.41 179.165C382.573 179.325 382.656 179.517 382.659 179.742C382.656 179.894 382.617 180.033 382.541 180.157C382.465 180.282 382.365 180.381 382.241 180.455C382.118 180.528 381.983 180.565 381.835 180.565Z" fill="#FF00CC"/>
<path d="M386.504 181.628C385.888 181.628 385.359 181.471 384.919 181.158C384.478 180.845 384.14 180.392 383.904 179.8C383.668 179.207 383.551 178.493 383.551 177.657C383.553 176.821 383.673 176.109 383.908 175.521C384.144 174.934 384.482 174.485 384.922 174.176C385.363 173.866 385.89 173.711 386.504 173.711C387.118 173.711 387.645 173.866 388.088 174.176C388.529 174.485 388.868 174.935 389.104 175.523C389.34 176.112 389.457 176.823 389.457 177.657C389.457 178.49 389.339 179.211 389.104 179.804C388.868 180.396 388.53 180.849 388.089 181.161C387.649 181.473 387.121 181.628 386.504 181.628V181.628ZM386.504 180.457C386.983 180.457 387.362 180.22 387.64 179.747C387.918 179.274 388.058 178.577 388.058 177.657C388.058 177.048 387.994 176.536 387.866 176.122C387.739 175.708 387.559 175.395 387.328 175.184C387.096 174.973 386.821 174.868 386.504 174.868C386.027 174.868 385.65 175.104 385.374 175.577C385.097 176.05 384.957 176.743 384.954 177.657C384.952 178.268 385.013 178.782 385.14 179.199C385.265 179.616 385.445 179.929 385.677 180.14C385.909 180.351 386.185 180.457 386.504 180.457Z" fill="#FF00CC"/>
<path d="M393.058 181.628C392.442 181.628 391.913 181.471 391.473 181.158C391.032 180.845 390.694 180.392 390.459 179.8C390.223 179.207 390.105 178.493 390.105 177.657C390.107 176.821 390.227 176.109 390.462 175.521C390.698 174.934 391.037 174.485 391.477 174.176C391.917 173.866 392.444 173.711 393.058 173.711C393.672 173.711 394.2 173.866 394.642 174.176C395.083 174.485 395.422 174.935 395.658 175.523C395.894 176.112 396.011 176.823 396.011 177.657C396.011 178.49 395.893 179.211 395.658 179.804C395.422 180.396 395.084 180.849 394.644 181.161C394.203 181.473 393.675 181.628 393.058 181.628V181.628ZM393.058 180.457C393.538 180.457 393.916 180.22 394.194 179.747C394.472 179.274 394.612 178.577 394.612 177.657C394.612 177.048 394.548 176.536 394.421 176.122C394.293 175.708 394.114 175.395 393.882 175.184C393.65 174.973 393.375 174.868 393.058 174.868C392.581 174.868 392.205 175.104 391.928 175.577C391.651 176.05 391.511 176.743 391.509 177.657C391.506 178.268 391.568 178.782 391.694 179.199C391.82 179.616 391.999 179.929 392.231 180.14C392.463 180.351 392.739 180.457 393.058 180.457Z" fill="#FF00CC"/>
<path d="M368.109 190.937V189.933L370.771 187.325C371.025 187.068 371.238 186.839 371.408 186.64C371.577 186.44 371.704 186.246 371.789 186.059C371.874 185.872 371.916 185.672 371.916 185.46C371.916 185.219 371.861 185.011 371.751 184.837C371.642 184.664 371.491 184.529 371.299 184.435C371.107 184.34 370.888 184.292 370.644 184.292C370.4 184.292 370.171 184.344 369.981 184.448C369.792 184.551 369.645 184.698 369.542 184.887C369.438 185.077 369.386 185.303 369.386 185.565H368.065C368.065 185.078 368.176 184.655 368.398 184.296C368.62 183.936 368.926 183.658 369.317 183.461C369.707 183.264 370.156 183.166 370.663 183.166C371.169 183.166 371.629 183.262 372.018 183.454C372.407 183.646 372.71 183.909 372.926 184.244C373.141 184.578 373.249 184.96 373.249 185.389C373.249 185.676 373.194 185.958 373.084 186.235C372.975 186.512 372.782 186.819 372.506 187.156C372.23 187.493 371.844 187.901 371.348 188.38L370.026 189.723V189.776H373.365V190.936H368.11L368.109 190.937Z" fill="#FF00CC"/>
<path d="M374.791 190.937V189.933L377.452 187.325C377.707 187.068 377.919 186.839 378.089 186.64C378.258 186.44 378.386 186.246 378.47 186.059C378.555 185.872 378.597 185.672 378.597 185.46C378.597 185.219 378.542 185.011 378.433 184.837C378.323 184.664 378.172 184.529 377.98 184.435C377.788 184.34 377.569 184.292 377.325 184.292C377.081 184.292 376.852 184.344 376.662 184.448C376.473 184.551 376.326 184.698 376.223 184.887C376.119 185.077 376.067 185.303 376.067 185.565H374.746C374.746 185.078 374.857 184.655 375.079 184.296C375.301 183.936 375.607 183.658 375.998 183.461C376.389 183.264 376.837 183.166 377.344 183.166C377.85 183.166 378.31 183.262 378.699 183.454C379.088 183.646 379.391 183.909 379.607 184.244C379.823 184.578 379.93 184.96 379.93 185.389C379.93 185.676 379.875 185.958 379.766 186.235C379.656 186.512 379.463 186.819 379.187 187.156C378.911 187.493 378.525 187.901 378.029 188.38L376.707 189.723V189.776H380.047V190.936H374.791L374.791 190.937Z" fill="#FF00CC"/>
<path d="M381.835 186.221C381.608 186.221 381.413 186.14 381.251 185.979C381.089 185.818 381.009 185.624 381.012 185.397C381.009 185.173 381.089 184.98 381.251 184.818C381.413 184.657 381.608 184.577 381.835 184.577C382.062 184.577 382.246 184.657 382.41 184.818C382.573 184.98 382.656 185.172 382.659 185.397C382.656 185.547 382.617 185.684 382.541 185.809C382.465 185.933 382.365 186.033 382.241 186.108C382.118 186.183 381.983 186.22 381.835 186.22V186.221ZM381.835 190.02C381.608 190.02 381.413 189.939 381.251 189.778C381.089 189.617 381.009 189.423 381.012 189.196C381.009 188.972 381.089 188.779 381.251 188.62C381.413 188.46 381.608 188.38 381.835 188.38C382.062 188.38 382.246 188.46 382.41 188.62C382.573 188.779 382.656 188.972 382.659 189.196C382.656 189.348 382.617 189.487 382.541 189.612C382.465 189.736 382.365 189.836 382.241 189.909C382.118 189.983 381.983 190.019 381.835 190.019V190.02Z" fill="#FF00CC"/>
<path d="M386.561 191.082C385.944 191.082 385.416 190.925 384.975 190.612C384.535 190.3 384.197 189.846 383.961 189.254C383.725 188.661 383.607 187.947 383.607 187.111C383.61 186.275 383.729 185.563 383.965 184.975C384.201 184.388 384.539 183.939 384.979 183.63C385.42 183.32 385.947 183.166 386.561 183.166C387.174 183.166 387.702 183.32 388.144 183.63C388.586 183.939 388.925 184.389 389.16 184.977C389.396 185.566 389.514 186.277 389.514 187.111C389.514 187.944 389.396 188.665 389.16 189.258C388.924 189.85 388.586 190.303 388.146 190.614C387.705 190.926 387.177 191.082 386.561 191.082ZM386.561 189.911C387.04 189.911 387.418 189.674 387.697 189.201C387.975 188.728 388.114 188.031 388.114 187.111C388.114 186.502 388.05 185.99 387.923 185.576C387.796 185.162 387.616 184.849 387.384 184.638C387.152 184.427 386.878 184.322 386.561 184.322C386.084 184.322 385.707 184.558 385.43 185.031C385.153 185.505 385.013 186.198 385.011 187.111C385.009 187.722 385.07 188.236 385.196 188.653C385.322 189.07 385.501 189.383 385.734 189.594C385.966 189.805 386.241 189.911 386.561 189.911Z" fill="#FF00CC"/>
<path d="M393.118 191.082C392.502 191.082 391.973 190.925 391.532 190.612C391.092 190.3 390.754 189.846 390.518 189.254C390.282 188.661 390.165 187.947 390.165 187.111C390.167 186.275 390.286 185.563 390.522 184.975C390.758 184.388 391.096 183.939 391.536 183.63C391.977 183.32 392.504 183.166 393.118 183.166C393.732 183.166 394.259 183.32 394.701 183.63C395.143 183.939 395.482 184.389 395.717 184.977C395.953 185.566 396.071 186.277 396.071 187.111C396.071 187.944 395.953 188.665 395.717 189.258C395.481 189.85 395.143 190.303 394.703 190.614C394.263 190.926 393.734 191.082 393.118 191.082ZM393.118 189.911C393.597 189.911 393.975 189.674 394.254 189.201C394.532 188.728 394.671 188.031 394.671 187.111C394.671 186.502 394.607 185.99 394.48 185.576C394.353 185.162 394.173 184.849 393.941 184.638C393.709 184.427 393.435 184.322 393.118 184.322C392.641 184.322 392.264 184.558 391.987 185.031C391.71 185.505 391.571 186.198 391.568 187.111C391.566 187.722 391.627 188.236 391.753 188.653C391.879 189.07 392.059 189.383 392.291 189.594C392.523 189.805 392.799 189.911 393.118 189.911Z" fill="#FF00CC"/>
<path d="M373.552 180.318H368.471V181.479H373.552V180.318Z" fill="#FF00CC"/>
<path d="M372.281 197.761C372.076 197.761 371.9 197.717 371.752 197.629C371.605 197.541 371.491 197.417 371.411 197.257C371.332 197.097 371.292 196.909 371.292 196.693C371.292 196.478 371.332 196.293 371.411 196.131C371.491 195.969 371.603 195.842 371.747 195.751C371.89 195.66 372.059 195.614 372.252 195.614C372.369 195.614 372.482 195.634 372.593 195.672C372.702 195.711 372.801 195.772 372.889 195.855C372.976 195.937 373.045 196.045 373.096 196.177C373.146 196.309 373.171 196.469 373.171 196.658V196.801H371.52V196.498H372.775C372.775 196.392 372.754 196.298 372.711 196.215C372.668 196.132 372.607 196.067 372.529 196.02C372.451 195.972 372.359 195.948 372.255 195.948C372.141 195.948 372.043 195.976 371.958 196.031C371.874 196.087 371.809 196.159 371.763 196.247C371.717 196.336 371.695 196.433 371.695 196.536V196.773C371.695 196.911 371.72 197.029 371.768 197.127C371.818 197.224 371.886 197.299 371.974 197.35C372.063 197.4 372.166 197.426 372.284 197.426C372.36 197.426 372.431 197.415 372.493 197.393C372.556 197.37 372.611 197.338 372.657 197.294C372.703 197.25 372.738 197.195 372.762 197.13L373.145 197.199C373.114 197.312 373.059 197.411 372.98 197.495C372.902 197.579 372.803 197.644 372.684 197.691C372.566 197.737 372.431 197.76 372.28 197.76L372.281 197.761Z" fill="#FF00CC"/>
<path d="M373.481 197.722L374.286 196.659L373.491 195.645H373.961L374.604 196.508H374.748V195.645H375.152V196.508H375.293L375.936 195.645H376.406L375.615 196.659L376.415 197.722H375.935L375.287 196.857H375.152V197.722H374.748V196.857H374.612L373.96 197.722H373.48H373.481Z" fill="#FF00CC"/>
<path d="M377.675 197.761C377.471 197.761 377.294 197.717 377.147 197.629C376.999 197.541 376.886 197.417 376.806 197.257C376.726 197.097 376.687 196.909 376.687 196.693C376.687 196.478 376.727 196.293 376.806 196.131C376.886 195.969 376.998 195.842 377.141 195.751C377.285 195.66 377.453 195.614 377.646 195.614C377.763 195.614 377.877 195.634 377.987 195.672C378.097 195.711 378.196 195.772 378.283 195.855C378.371 195.937 378.439 196.045 378.49 196.177C378.541 196.309 378.566 196.469 378.566 196.658V196.801H376.915V196.498H378.17C378.17 196.392 378.148 196.298 378.105 196.215C378.062 196.132 378.001 196.067 377.923 196.02C377.845 195.972 377.754 195.948 377.649 195.948C377.536 195.948 377.437 195.976 377.353 196.031C377.268 196.087 377.204 196.159 377.158 196.247C377.112 196.336 377.089 196.433 377.089 196.536V196.773C377.089 196.911 377.114 197.029 377.163 197.127C377.212 197.224 377.281 197.299 377.369 197.35C377.457 197.4 377.56 197.426 377.679 197.426C377.755 197.426 377.825 197.415 377.888 197.393C377.951 197.37 378.005 197.338 378.051 197.294C378.097 197.25 378.133 197.195 378.157 197.13L378.539 197.199C378.509 197.312 378.454 197.411 378.375 197.495C378.296 197.579 378.197 197.644 378.079 197.691C377.96 197.737 377.826 197.76 377.674 197.76L377.675 197.761Z" fill="#FF00CC"/>
<path d="M378.852 198.321V197.372H379.021C379.064 197.332 379.101 197.285 379.131 197.229C379.162 197.174 379.187 197.109 379.208 197.034C379.229 196.958 379.247 196.869 379.261 196.768C379.276 196.667 379.288 196.55 379.299 196.42L379.364 195.645H380.776V197.372H381.095V198.321H380.7V197.722H379.252V198.321H378.852ZM379.453 197.372H380.381V195.991H379.727L379.683 196.419C379.662 196.637 379.636 196.827 379.605 196.987C379.573 197.147 379.522 197.275 379.453 197.371V197.372Z" fill="#FF00CC"/>
<path d="M381.924 195.645V197.722H381.528V195.645H381.924ZM382.936 196.509V196.859H381.811V196.509H382.936ZM383.218 195.645V197.722H382.824V195.645H383.218Z" fill="#FF00CC"/>
<path d="M384.689 197.761C384.485 197.761 384.309 197.717 384.161 197.629C384.014 197.541 383.9 197.417 383.82 197.257C383.74 197.097 383.701 196.909 383.701 196.693C383.701 196.478 383.741 196.293 383.82 196.131C383.9 195.969 384.012 195.842 384.155 195.751C384.299 195.66 384.467 195.614 384.66 195.614C384.777 195.614 384.891 195.634 385.001 195.672C385.111 195.711 385.21 195.772 385.297 195.855C385.385 195.937 385.453 196.045 385.504 196.177C385.555 196.309 385.58 196.469 385.58 196.658V196.801H383.929V196.498H385.184C385.184 196.392 385.162 196.298 385.119 196.215C385.076 196.132 385.015 196.067 384.937 196.02C384.86 195.972 384.768 195.948 384.664 195.948C384.55 195.948 384.451 195.976 384.367 196.031C384.283 196.087 384.218 196.159 384.172 196.247C384.126 196.336 384.104 196.433 384.104 196.536V196.773C384.104 196.911 384.128 197.029 384.177 197.127C384.226 197.224 384.295 197.299 384.383 197.35C384.472 197.4 384.575 197.426 384.693 197.426C384.769 197.426 384.839 197.415 384.902 197.393C384.965 197.37 385.02 197.338 385.066 197.294C385.112 197.25 385.147 197.195 385.171 197.13L385.554 197.199C385.523 197.312 385.468 197.411 385.389 197.495C385.31 197.579 385.212 197.644 385.093 197.691C384.975 197.737 384.84 197.76 384.688 197.76L384.689 197.761Z" fill="#FF00CC"/>
<path d="M386.07 197.722V195.645H386.932C387.166 195.645 387.352 195.695 387.489 195.794C387.626 195.894 387.694 196.029 387.694 196.199C387.694 196.321 387.656 196.417 387.578 196.489C387.501 196.56 387.398 196.608 387.27 196.632C387.363 196.642 387.448 196.67 387.526 196.715C387.603 196.759 387.665 196.819 387.713 196.894C387.76 196.969 387.784 197.058 387.784 197.162C387.784 197.272 387.755 197.369 387.699 197.453C387.642 197.538 387.56 197.603 387.452 197.651C387.345 197.698 387.215 197.722 387.063 197.722H386.071L386.07 197.722ZM386.45 196.511H386.936C387.012 196.511 387.077 196.5 387.131 196.478C387.186 196.457 387.228 196.426 387.257 196.386C387.287 196.345 387.301 196.298 387.301 196.243C387.301 196.163 387.268 196.1 387.203 196.055C387.137 196.01 387.046 195.987 386.932 195.987H386.451V196.51L386.45 196.511ZM386.45 197.384H387.063C387.163 197.384 387.242 197.361 387.298 197.313C387.355 197.265 387.383 197.2 387.383 197.118C387.383 197.022 387.355 196.946 387.298 196.89C387.242 196.834 387.163 196.807 387.063 196.807H386.45V197.384Z" fill="#FF00CC"/>
<path d="M388.66 195.645V197.722H388.264V195.645H388.66ZM389.672 196.509V196.859H388.547V196.509H389.672ZM389.954 195.645V197.722H389.559V195.645H389.954Z" fill="#FF00CC"/>
<path d="M391.405 197.76C391.21 197.76 391.041 197.716 390.896 197.626C390.75 197.537 390.638 197.412 390.557 197.252C390.477 197.091 390.437 196.904 390.437 196.689C390.437 196.475 390.477 196.286 390.557 196.124C390.638 195.962 390.75 195.837 390.896 195.748C391.041 195.659 391.21 195.614 391.405 195.614C391.6 195.614 391.77 195.659 391.915 195.748C392.06 195.838 392.173 195.963 392.253 196.124C392.333 196.286 392.374 196.474 392.374 196.689C392.374 196.905 392.333 197.091 392.253 197.252C392.173 197.413 392.06 197.537 391.915 197.626C391.77 197.716 391.6 197.76 391.405 197.76ZM391.407 197.421C391.533 197.421 391.637 197.387 391.721 197.321C391.803 197.254 391.865 197.165 391.905 197.054C391.946 196.943 391.965 196.821 391.965 196.688C391.965 196.554 391.945 196.433 391.905 196.322C391.865 196.211 391.804 196.121 391.721 196.053C391.638 195.986 391.533 195.952 391.407 195.952C391.281 195.952 391.175 195.986 391.091 196.053C391.008 196.121 390.946 196.211 390.906 196.322C390.866 196.433 390.846 196.555 390.846 196.688C390.846 196.82 390.866 196.943 390.906 197.054C390.946 197.165 391.008 197.254 391.091 197.321C391.174 197.387 391.28 197.421 391.407 197.421Z" fill="#FF00CC"/>
<rect width="204" height="378" transform="translate(250.333 92.7422)" fill="#F5F5F5"/>
<path d="M330.289 168.342H430.709V454.576H330.289V168.342Z" fill="#B5DADA"/>
<path d="M300.27 168.342H274.617V455.576H300.27V168.342Z" fill="#B5DADA"/>
<path d="M274.308 106.352V138.128H430.044V106.352H274.308Z" fill="#B5DADA"/>
<path d="M315.307 470.317H445.833V153.222M315.307 470.317H258.865V153.222M315.307 470.317V153.222M315.307 153.222H258.865M315.307 153.222H445.833M258.865 153.222V93.168M445.833 153.222V93.168M250.833 93.168H453.833V470.317H250.833V93.168ZM330.289 168.342H430.709V454.576H330.289V168.342ZM300.27 168.342H274.617V455.576H300.27V168.342ZM274.308 138.128V106.352H430.044V138.128H274.308Z" stroke="#555555"/>
<path d="M385.662 198.391H376.553C366.49 198.391 358.333 206.548 358.333 216.61V225.72C358.333 235.782 366.49 243.94 376.553 243.94H385.662C395.725 243.94 403.882 235.782 403.882 225.72V216.61C403.882 206.548 395.725 198.391 385.662 198.391Z" stroke="#555555" stroke-width="1.1672" stroke-miterlimit="10"/>
<path d="M369.875 209.516V218.058H368.327V211.021H368.277L366.279 212.298V210.88L368.402 209.516H369.875Z" fill="#FF00CC"/>
<path d="M375.966 218.22C375.279 218.22 374.69 218.046 374.199 217.697C373.708 217.348 373.331 216.843 373.069 216.183C372.806 215.523 372.675 214.727 372.675 213.795C372.677 212.863 372.811 212.07 373.073 211.415C373.336 210.76 373.713 210.261 374.203 209.916C374.694 209.571 375.282 209.398 375.966 209.398C376.65 209.398 377.238 209.571 377.73 209.916C378.222 210.261 378.6 210.761 378.863 211.417C379.126 212.074 379.257 212.866 379.257 213.795C379.257 214.723 379.125 215.526 378.863 216.187C378.6 216.847 378.223 217.352 377.732 217.7C377.241 218.047 376.653 218.221 375.966 218.221V218.22ZM375.966 216.915C376.5 216.915 376.921 216.651 377.232 216.124C377.542 215.597 377.697 214.82 377.697 213.795C377.697 213.116 377.626 212.546 377.484 212.085C377.342 211.623 377.142 211.275 376.884 211.04C376.625 210.805 376.319 210.687 375.966 210.687C375.434 210.687 375.014 210.951 374.706 211.478C374.397 212.005 374.242 212.777 374.239 213.795C374.236 214.476 374.305 215.049 374.445 215.514C374.585 215.978 374.785 216.327 375.044 216.562C375.303 216.797 375.61 216.915 375.966 216.915Z" fill="#FF00CC"/>
<path d="M381.17 212.8C380.917 212.8 380.7 212.71 380.52 212.531C380.339 212.351 380.25 212.135 380.253 211.882C380.25 211.632 380.339 211.417 380.52 211.238C380.7 211.058 380.918 210.969 381.17 210.969C381.423 210.969 381.628 211.058 381.811 211.238C381.993 211.417 382.085 211.632 382.088 211.882C382.085 212.049 382.042 212.202 381.957 212.341C381.872 212.48 381.76 212.591 381.623 212.675C381.486 212.758 381.335 212.8 381.17 212.8ZM381.17 217.033C380.917 217.033 380.7 216.944 380.52 216.764C380.339 216.585 380.25 216.369 380.253 216.116C380.25 215.866 380.339 215.651 380.52 215.473C380.7 215.296 380.918 215.207 381.17 215.207C381.423 215.207 381.628 215.296 381.811 215.473C381.993 215.651 382.085 215.865 382.088 216.116C382.085 216.286 382.042 216.44 381.957 216.579C381.872 216.718 381.76 216.828 381.623 216.91C381.486 216.992 381.335 217.033 381.17 217.033Z" fill="#FF00CC"/>
<path d="M386.374 218.22C385.688 218.22 385.099 218.046 384.608 217.697C384.117 217.348 383.74 216.843 383.477 216.183C383.214 215.523 383.083 214.727 383.083 213.795C383.086 212.863 383.219 212.07 383.482 211.415C383.745 210.76 384.122 210.261 384.612 209.916C385.103 209.571 385.69 209.398 386.374 209.398C387.058 209.398 387.646 209.571 388.139 209.916C388.631 210.261 389.009 210.761 389.271 211.417C389.534 212.074 389.665 212.866 389.665 213.795C389.665 214.723 389.534 215.526 389.271 216.187C389.008 216.847 388.632 217.352 388.141 217.7C387.65 218.047 387.062 218.221 386.374 218.221V218.22ZM386.374 216.915C386.909 216.915 387.33 216.651 387.64 216.124C387.95 215.597 388.106 214.82 388.106 213.795C388.106 213.116 388.034 212.546 387.893 212.085C387.751 211.623 387.55 211.275 387.292 211.04C387.034 210.805 386.728 210.687 386.374 210.687C385.843 210.687 385.423 210.951 385.115 211.478C384.806 212.005 384.65 212.777 384.648 213.795C384.645 214.476 384.713 215.049 384.854 215.514C384.994 215.978 385.194 216.327 385.453 216.562C385.711 216.797 386.019 216.915 386.374 216.915Z" fill="#FF00CC"/>
<path d="M393.677 218.22C392.99 218.22 392.401 218.046 391.91 217.697C391.419 217.348 391.042 216.843 390.78 216.183C390.517 215.523 390.386 214.727 390.386 213.795C390.388 212.863 390.522 212.07 390.784 211.415C391.047 210.76 391.424 210.261 391.914 209.916C392.405 209.571 392.993 209.398 393.677 209.398C394.361 209.398 394.949 209.571 395.441 209.916C395.933 210.261 396.311 210.761 396.574 211.417C396.837 212.074 396.968 212.866 396.968 213.795C396.968 214.723 396.836 215.526 396.574 216.187C396.311 216.847 395.934 217.352 395.443 217.7C394.952 218.047 394.364 218.221 393.677 218.221V218.22ZM393.677 216.915C394.211 216.915 394.632 216.651 394.943 216.124C395.253 215.597 395.408 214.82 395.408 213.795C395.408 213.116 395.337 212.546 395.195 212.085C395.053 211.623 394.853 211.275 394.595 211.04C394.336 210.805 394.03 210.687 393.677 210.687C393.145 210.687 392.725 210.951 392.417 211.478C392.108 212.005 391.953 212.777 391.95 213.795C391.947 214.476 392.016 215.049 392.156 215.514C392.296 215.978 392.496 216.327 392.755 216.562C393.014 216.797 393.321 216.915 393.677 216.915Z" fill="#FF00CC"/>
<path d="M365.875 228.597V227.479L368.841 224.572C369.125 224.286 369.361 224.031 369.55 223.809C369.74 223.586 369.881 223.371 369.976 223.162C370.07 222.954 370.117 222.731 370.117 222.495C370.117 222.225 370.056 221.994 369.934 221.8C369.811 221.607 369.643 221.457 369.429 221.352C369.215 221.246 368.972 221.193 368.699 221.193C368.427 221.193 368.172 221.251 367.961 221.366C367.75 221.482 367.586 221.645 367.471 221.856C367.356 222.067 367.298 222.319 367.298 222.611H365.826C365.826 222.069 365.95 221.598 366.197 221.197C366.444 220.797 366.786 220.487 367.221 220.267C367.656 220.047 368.156 219.938 368.72 219.938C369.285 219.938 369.797 220.045 370.231 220.259C370.664 220.473 371.001 220.766 371.242 221.139C371.483 221.512 371.603 221.937 371.603 222.415C371.603 222.735 371.541 223.049 371.419 223.358C371.297 223.667 371.082 224.008 370.774 224.384C370.467 224.76 370.037 225.214 369.484 225.748L368.011 227.245V227.304H371.732V228.596H365.876L365.875 228.597Z" fill="#FF00CC"/>
<path d="M373.321 228.597V227.479L376.287 224.572C376.57 224.286 376.807 224.031 376.996 223.809C377.185 223.586 377.327 223.371 377.421 223.162C377.516 222.954 377.563 222.731 377.563 222.495C377.563 222.225 377.502 221.994 377.379 221.8C377.257 221.607 377.089 221.457 376.875 221.352C376.661 221.246 376.417 221.193 376.145 221.193C375.873 221.193 375.618 221.251 375.407 221.366C375.196 221.482 375.032 221.645 374.917 221.856C374.802 222.067 374.744 222.319 374.744 222.611H373.271C373.271 222.069 373.395 221.598 373.643 221.197C373.89 220.797 374.231 220.487 374.667 220.267C375.102 220.047 375.602 219.938 376.166 219.938C376.731 219.938 377.243 220.045 377.676 220.259C378.11 220.473 378.447 220.766 378.688 221.139C378.928 221.512 379.049 221.937 379.049 222.415C379.049 222.735 378.987 223.049 378.865 223.358C378.742 223.667 378.527 224.008 378.22 224.384C377.913 224.76 377.482 225.214 376.929 225.748L375.457 227.245V227.304H379.178V228.596H373.322L373.321 228.597Z" fill="#FF00CC"/>
<path d="M381.17 223.335C380.917 223.335 380.7 223.246 380.52 223.066C380.339 222.887 380.25 222.671 380.253 222.417C380.25 222.167 380.339 221.952 380.52 221.773C380.7 221.593 380.918 221.504 381.17 221.504C381.423 221.504 381.628 221.593 381.811 221.773C381.993 221.952 382.085 222.167 382.088 222.417C382.085 222.585 382.042 222.737 381.957 222.876C381.872 223.015 381.76 223.126 381.623 223.21C381.486 223.293 381.335 223.335 381.17 223.335V223.335ZM381.17 227.569C380.917 227.569 380.7 227.479 380.52 227.3C380.339 227.12 380.25 226.904 380.253 226.651C380.25 226.401 380.339 226.186 380.52 226.009C380.7 225.831 380.918 225.742 381.17 225.742C381.423 225.742 381.628 225.831 381.811 226.009C381.993 226.186 382.085 226.401 382.088 226.651C382.085 226.821 382.042 226.975 381.957 227.114C381.872 227.253 381.76 227.364 381.623 227.445C381.486 227.527 381.335 227.568 381.17 227.568V227.569Z" fill="#FF00CC"/>
<path d="M386.436 228.759C385.75 228.759 385.161 228.585 384.67 228.236C384.179 227.887 383.802 227.382 383.539 226.722C383.276 226.062 383.146 225.266 383.146 224.334C383.148 223.402 383.281 222.609 383.544 221.954C383.807 221.299 384.184 220.799 384.674 220.455C385.165 220.11 385.752 219.938 386.436 219.938C387.12 219.938 387.708 220.11 388.201 220.455C388.693 220.8 389.071 221.301 389.333 221.956C389.596 222.613 389.727 223.405 389.727 224.334C389.727 225.262 389.596 226.066 389.333 226.726C389.07 227.387 388.694 227.891 388.203 228.238C387.712 228.586 387.124 228.759 386.436 228.759ZM386.436 227.454C386.971 227.454 387.392 227.19 387.702 226.663C388.012 226.136 388.168 225.359 388.168 224.334C388.168 223.655 388.096 223.085 387.955 222.624C387.813 222.162 387.612 221.814 387.354 221.579C387.096 221.344 386.79 221.226 386.436 221.226C385.905 221.226 385.485 221.49 385.177 222.017C384.868 222.544 384.712 223.316 384.71 224.334C384.707 225.015 384.775 225.588 384.916 226.053C385.056 226.517 385.256 226.866 385.515 227.101C385.773 227.336 386.081 227.454 386.436 227.454Z" fill="#FF00CC"/>
<path d="M393.743 228.759C393.056 228.759 392.467 228.585 391.976 228.236C391.485 227.887 391.108 227.382 390.846 226.722C390.583 226.062 390.452 225.266 390.452 224.334C390.454 223.402 390.587 222.609 390.85 221.954C391.113 221.299 391.49 220.799 391.98 220.455C392.471 220.11 393.059 219.938 393.743 219.938C394.427 219.938 395.015 220.11 395.507 220.455C395.999 220.8 396.377 221.301 396.639 221.956C396.903 222.613 397.033 223.405 397.033 224.334C397.033 225.262 396.902 226.066 396.639 226.726C396.376 227.387 396 227.891 395.509 228.238C395.018 228.586 394.43 228.759 393.743 228.759ZM393.743 227.454C394.277 227.454 394.698 227.19 395.009 226.663C395.318 226.136 395.474 225.359 395.474 224.334C395.474 223.655 395.403 223.085 395.261 222.624C395.119 222.162 394.919 221.814 394.66 221.579C394.402 221.344 394.096 221.226 393.743 221.226C393.211 221.226 392.791 221.49 392.483 222.017C392.174 222.544 392.018 223.316 392.016 224.334C392.013 225.015 392.081 225.588 392.222 226.053C392.362 226.517 392.562 226.866 392.821 227.101C393.08 227.336 393.387 227.454 393.743 227.454Z" fill="#FF00CC"/>
<path d="M371.941 216.762H366.279V218.055H371.941V216.762Z" fill="#FF00CC"/>
<path d="M370.524 236.204C370.296 236.204 370.1 236.155 369.935 236.057C369.771 235.959 369.644 235.821 369.555 235.643C369.467 235.464 369.422 235.255 369.422 235.015C369.422 234.775 369.467 234.569 369.555 234.388C369.644 234.208 369.769 234.066 369.929 233.964C370.089 233.863 370.277 233.812 370.492 233.812C370.622 233.812 370.749 233.834 370.872 233.877C370.994 233.92 371.104 233.988 371.201 234.08C371.299 234.173 371.376 234.293 371.432 234.44C371.489 234.587 371.517 234.765 371.517 234.976V235.135H369.677V234.798H371.075C371.075 234.679 371.051 234.574 371.003 234.482C370.955 234.39 370.887 234.318 370.8 234.264C370.714 234.211 370.612 234.184 370.495 234.184C370.369 234.184 370.259 234.215 370.165 234.277C370.071 234.339 369.999 234.419 369.947 234.518C369.896 234.617 369.871 234.724 369.871 234.84V235.103C369.871 235.258 369.899 235.39 369.953 235.498C370.008 235.607 370.085 235.69 370.183 235.746C370.281 235.803 370.396 235.831 370.528 235.831C370.613 235.831 370.691 235.819 370.761 235.794C370.831 235.769 370.892 235.733 370.943 235.684C370.995 235.635 371.034 235.574 371.061 235.502L371.487 235.579C371.453 235.704 371.392 235.814 371.304 235.908C371.216 236.002 371.106 236.075 370.974 236.126C370.842 236.178 370.692 236.204 370.523 236.204L370.524 236.204Z" fill="#FF00CC"/>
<path d="M371.861 236.163L372.758 234.978L371.872 233.848H372.396L373.112 234.809H373.273V233.848H373.724V234.809H373.88L374.596 233.848H375.121L374.239 234.978L375.131 236.163H374.596L373.874 235.198H373.723V236.163H373.272V235.198H373.122L372.395 236.163H371.86H371.861Z" fill="#FF00CC"/>
<path d="M376.535 236.204C376.307 236.204 376.111 236.155 375.947 236.057C375.782 235.959 375.656 235.821 375.567 235.643C375.478 235.464 375.434 235.255 375.434 235.015C375.434 234.775 375.478 234.569 375.567 234.388C375.656 234.208 375.78 234.066 375.94 233.964C376.1 233.863 376.288 233.812 376.503 233.812C376.633 233.812 376.76 233.834 376.883 233.877C377.005 233.92 377.115 233.988 377.213 234.08C377.31 234.173 377.387 234.293 377.443 234.44C377.5 234.587 377.528 234.765 377.528 234.976V235.135H375.688V234.798H377.087C377.087 234.679 377.062 234.574 377.014 234.482C376.966 234.39 376.898 234.318 376.812 234.264C376.725 234.211 376.623 234.184 376.507 234.184C376.38 234.184 376.27 234.215 376.176 234.277C376.082 234.339 376.01 234.419 375.959 234.518C375.907 234.617 375.883 234.724 375.883 234.84V235.103C375.883 235.258 375.91 235.39 375.964 235.498C376.019 235.607 376.096 235.69 376.194 235.746C376.293 235.803 376.407 235.831 376.539 235.831C376.624 235.831 376.702 235.819 376.772 235.794C376.842 235.769 376.903 235.733 376.955 235.684C377.006 235.635 377.045 235.574 377.072 235.502L377.498 235.579C377.464 235.704 377.403 235.814 377.315 235.908C377.227 236.002 377.117 236.075 376.985 236.126C376.853 236.178 376.703 236.204 376.534 236.204L376.535 236.204Z" fill="#FF00CC"/>
<path d="M377.846 236.83V235.772H378.035C378.083 235.728 378.124 235.675 378.158 235.613C378.192 235.552 378.22 235.479 378.243 235.395C378.267 235.31 378.287 235.212 378.303 235.099C378.319 234.986 378.333 234.857 378.345 234.711L378.417 233.848H379.99V235.772H380.346V236.83H379.906V236.162H378.292V236.83H377.846ZM378.517 235.772H379.55V234.233H378.821L378.773 234.711C378.749 234.954 378.72 235.164 378.685 235.343C378.65 235.521 378.594 235.664 378.517 235.771V235.772Z" fill="#FF00CC"/>
<path d="M381.271 233.848V236.163H380.829V233.848H381.271ZM382.397 234.811V235.201H381.144V234.811H382.397ZM382.712 233.848V236.163H382.272V233.848H382.712Z" fill="#FF00CC"/>
<path d="M384.352 236.204C384.124 236.204 383.927 236.155 383.763 236.057C383.599 235.959 383.472 235.821 383.383 235.643C383.294 235.464 383.25 235.255 383.25 235.015C383.25 234.775 383.295 234.569 383.383 234.388C383.472 234.208 383.597 234.066 383.757 233.964C383.917 233.863 384.104 233.812 384.319 233.812C384.45 233.812 384.576 233.834 384.699 233.877C384.822 233.92 384.932 233.988 385.029 234.08C385.127 234.173 385.203 234.293 385.26 234.44C385.316 234.587 385.344 234.765 385.344 234.976V235.135H383.504V234.798H384.903C384.903 234.679 384.879 234.574 384.831 234.482C384.783 234.39 384.715 234.318 384.628 234.264C384.541 234.211 384.439 234.184 384.323 234.184C384.196 234.184 384.086 234.215 383.992 234.277C383.898 234.339 383.826 234.419 383.775 234.518C383.724 234.617 383.699 234.724 383.699 234.84V235.103C383.699 235.258 383.726 235.39 383.781 235.498C383.836 235.607 383.912 235.69 384.01 235.746C384.109 235.803 384.224 235.831 384.355 235.831C384.441 235.831 384.519 235.819 384.589 235.794C384.659 235.769 384.72 235.733 384.771 235.684C384.822 235.635 384.862 235.574 384.888 235.502L385.315 235.579C385.281 235.704 385.219 235.814 385.132 235.908C385.044 236.002 384.934 236.075 384.802 236.126C384.67 236.178 384.519 236.204 384.351 236.204L384.352 236.204Z" fill="#FF00CC"/>
<path d="M385.89 236.163V233.848H386.85C387.111 233.848 387.318 233.903 387.47 234.014C387.623 234.125 387.699 234.276 387.699 234.465C387.699 234.601 387.656 234.708 387.57 234.788C387.484 234.867 387.369 234.92 387.227 234.947C387.33 234.959 387.425 234.99 387.511 235.04C387.598 235.089 387.667 235.156 387.72 235.239C387.773 235.323 387.799 235.422 387.799 235.538C387.799 235.66 387.767 235.769 387.704 235.863C387.641 235.957 387.549 236.03 387.429 236.083C387.31 236.136 387.165 236.162 386.996 236.162H385.89L385.89 236.163ZM386.313 234.812H386.854C386.939 234.812 387.011 234.801 387.072 234.776C387.133 234.752 387.179 234.718 387.212 234.673C387.245 234.628 387.261 234.575 387.261 234.514C387.261 234.424 387.225 234.355 387.151 234.304C387.078 234.254 386.977 234.229 386.85 234.229H386.314V234.812L386.313 234.812ZM386.313 235.786H386.996C387.108 235.786 387.195 235.759 387.258 235.706C387.321 235.653 387.353 235.58 387.353 235.489C387.353 235.382 387.321 235.297 387.258 235.235C387.195 235.173 387.107 235.142 386.996 235.142H386.313V235.786Z" fill="#FF00CC"/>
<path d="M388.775 233.848V236.163H388.334V233.848H388.775ZM389.902 234.811V235.201H388.649V234.811H389.902ZM390.217 233.848V236.163H389.777V233.848H390.217Z" fill="#FF00CC"/>
<path d="M391.836 236.204C391.619 236.204 391.429 236.154 391.268 236.055C391.106 235.955 390.981 235.816 390.891 235.637C390.802 235.458 390.757 235.249 390.757 235.011C390.757 234.772 390.802 234.561 390.891 234.381C390.981 234.201 391.106 234.061 391.268 233.962C391.429 233.862 391.619 233.812 391.836 233.812C392.053 233.812 392.242 233.862 392.404 233.962C392.566 234.062 392.691 234.201 392.781 234.381C392.87 234.561 392.915 234.77 392.915 235.011C392.915 235.251 392.87 235.458 392.781 235.637C392.691 235.816 392.566 235.955 392.404 236.055C392.242 236.154 392.053 236.204 391.836 236.204ZM391.837 235.826C391.978 235.826 392.095 235.788 392.187 235.714C392.279 235.64 392.348 235.54 392.393 235.417C392.438 235.294 392.46 235.157 392.46 235.008C392.46 234.86 392.437 234.725 392.393 234.601C392.348 234.477 392.28 234.377 392.187 234.302C392.095 234.226 391.978 234.189 391.837 234.189C391.697 234.189 391.579 234.226 391.486 234.302C391.393 234.377 391.324 234.477 391.279 234.601C391.234 234.725 391.212 234.861 391.212 235.008C391.212 235.156 391.234 235.293 391.279 235.417C391.324 235.54 391.393 235.64 391.486 235.714C391.578 235.788 391.696 235.826 391.837 235.826Z" fill="#FF00CC"/>
<rect x="343.333" y="313.473" width="20.7457" height="10.0382" rx="5.01912" fill="#FF00CC"/>
<path d="M360.232 319.59V317.911H359.83C359.721 317.911 359.638 317.936 359.581 317.987C359.524 318.037 359.496 318.097 359.497 318.165C359.496 318.235 359.523 318.294 359.578 318.343C359.634 318.39 359.716 318.414 359.824 318.414H360.43V318.816H359.824C359.64 318.816 359.482 318.788 359.348 318.732C359.214 318.677 359.11 318.599 359.038 318.499C358.965 318.399 358.929 318.282 358.93 318.149C358.929 318.009 358.965 317.887 359.038 317.781C359.11 317.675 359.214 317.593 359.349 317.534C359.485 317.475 359.645 317.445 359.83 317.445H360.786V319.59H360.232ZM358.869 319.59L359.465 318.473H360.033L359.438 319.59H358.869Z" fill="white"/>
<path d="M358.343 316.657L358.524 317.045C358.464 317.096 358.397 317.133 358.323 317.157C358.249 317.18 358.161 317.196 358.059 317.203C357.958 317.211 357.834 317.216 357.688 317.219C357.522 317.221 357.387 317.247 357.283 317.298C357.178 317.349 357.099 317.43 357.045 317.54C356.991 317.649 356.956 317.791 356.939 317.967H356.96C357.024 317.836 357.114 317.734 357.231 317.663C357.348 317.591 357.493 317.555 357.665 317.555C357.848 317.555 358.007 317.595 358.144 317.675C358.282 317.755 358.389 317.87 358.465 318.02C358.542 318.17 358.58 318.35 358.58 318.559C358.58 318.777 358.537 318.967 358.451 319.128C358.367 319.288 358.246 319.412 358.09 319.501C357.933 319.588 357.747 319.632 357.531 319.632C357.314 319.632 357.127 319.586 356.97 319.495C356.813 319.404 356.692 319.269 356.607 319.091C356.522 318.914 356.479 318.695 356.479 318.435V318.259C356.479 317.742 356.58 317.359 356.781 317.11C356.982 316.86 357.278 316.734 357.668 316.73C357.774 316.728 357.87 316.728 357.956 316.728C358.041 316.729 358.116 316.725 358.181 316.716C358.246 316.707 358.3 316.687 358.343 316.657ZM357.534 319.171C357.625 319.171 357.703 319.147 357.769 319.1C357.835 319.052 357.885 318.984 357.921 318.896C357.957 318.808 357.975 318.702 357.975 318.579C357.975 318.457 357.957 318.354 357.921 318.269C357.885 318.183 357.835 318.118 357.769 318.073C357.702 318.029 357.623 318.006 357.531 318.006C357.462 318.006 357.4 318.019 357.345 318.044C357.29 318.069 357.243 318.106 357.204 318.156C357.166 318.204 357.136 318.264 357.115 318.336C357.094 318.407 357.084 318.488 357.084 318.579C357.084 318.762 357.124 318.907 357.203 319.013C357.283 319.118 357.393 319.171 357.534 319.171Z" fill="white"/>
<path d="M355.186 319.632C354.966 319.632 354.776 319.587 354.616 319.498C354.458 319.408 354.336 319.28 354.251 319.115C354.165 318.95 354.122 318.754 354.122 318.527C354.122 318.307 354.165 318.113 354.251 317.946C354.336 317.78 354.457 317.65 354.612 317.557C354.769 317.464 354.952 317.417 355.163 317.417C355.304 317.417 355.436 317.44 355.558 317.485C355.681 317.53 355.788 317.598 355.879 317.688C355.971 317.778 356.043 317.892 356.094 318.029C356.145 318.165 356.171 318.324 356.171 318.506V318.67H354.359V318.301H355.611C355.611 318.215 355.592 318.139 355.555 318.073C355.518 318.007 355.466 317.956 355.4 317.918C355.335 317.88 355.259 317.861 355.172 317.861C355.082 317.861 355.002 317.882 354.932 317.924C354.863 317.965 354.809 318.02 354.77 318.09C354.731 318.159 354.711 318.236 354.71 318.321V318.671C354.71 318.777 354.73 318.869 354.769 318.946C354.809 319.024 354.865 319.083 354.938 319.125C355.01 319.167 355.096 319.188 355.196 319.188C355.262 319.188 355.323 319.179 355.378 319.16C355.433 319.141 355.48 319.113 355.519 319.076C355.558 319.039 355.588 318.993 355.608 318.939L356.158 318.976C356.13 319.108 356.073 319.223 355.987 319.322C355.901 319.42 355.79 319.496 355.654 319.551C355.519 319.605 355.363 319.632 355.186 319.632Z" fill="white"/>
<path d="M352.869 319.632C352.65 319.632 352.461 319.585 352.302 319.492C352.145 319.398 352.024 319.268 351.939 319.101C351.855 318.935 351.813 318.743 351.813 318.526C351.813 318.306 351.856 318.113 351.941 317.948C352.026 317.781 352.148 317.651 352.305 317.558C352.462 317.464 352.65 317.417 352.867 317.417C353.054 317.417 353.218 317.451 353.358 317.519C353.499 317.587 353.61 317.682 353.692 317.805C353.774 317.928 353.819 318.072 353.827 318.238H353.266C353.25 318.131 353.208 318.045 353.14 317.98C353.073 317.914 352.985 317.881 352.876 317.881C352.784 317.881 352.704 317.906 352.635 317.956C352.567 318.005 352.514 318.078 352.475 318.173C352.437 318.268 352.418 318.382 352.418 318.518C352.418 318.654 352.437 318.771 352.474 318.867C352.512 318.963 352.566 319.036 352.635 319.086C352.704 319.136 352.784 319.161 352.876 319.161C352.944 319.161 353.005 319.147 353.059 319.119C353.114 319.091 353.159 319.051 353.195 318.998C353.231 318.944 353.255 318.879 353.266 318.804H353.827C353.818 318.968 353.773 319.112 353.693 319.237C353.614 319.361 353.505 319.457 353.365 319.527C353.225 319.597 353.06 319.632 352.869 319.632Z" fill="white"/>
<path d="M349.321 319.631C349.184 319.631 349.062 319.607 348.955 319.559C348.848 319.511 348.763 319.44 348.701 319.346C348.639 319.251 348.608 319.132 348.608 318.991C348.608 318.872 348.63 318.772 348.674 318.691C348.718 318.61 348.777 318.545 348.853 318.495C348.928 318.446 349.014 318.409 349.11 318.383C349.207 318.358 349.308 318.341 349.414 318.33C349.539 318.317 349.64 318.305 349.716 318.294C349.792 318.282 349.848 318.264 349.882 318.241C349.917 318.218 349.934 318.183 349.934 318.138V318.129C349.934 318.041 349.906 317.972 349.85 317.924C349.795 317.876 349.717 317.851 349.615 317.851C349.508 317.851 349.423 317.875 349.36 317.923C349.296 317.969 349.255 318.028 349.234 318.099L348.684 318.054C348.712 317.923 348.767 317.811 348.849 317.716C348.931 317.62 349.036 317.546 349.166 317.495C349.296 317.443 349.447 317.417 349.618 317.417C349.737 317.417 349.851 317.431 349.96 317.459C350.07 317.487 350.167 317.53 350.252 317.589C350.338 317.647 350.405 317.723 350.455 317.815C350.504 317.906 350.529 318.016 350.529 318.143V319.59H349.964V319.293H349.948C349.913 319.36 349.867 319.419 349.809 319.47C349.752 319.52 349.682 319.56 349.601 319.589C349.52 319.617 349.427 319.631 349.321 319.631ZM349.491 319.22C349.579 319.22 349.656 319.203 349.723 319.168C349.79 319.133 349.843 319.085 349.881 319.026C349.919 318.966 349.938 318.899 349.938 318.823V318.596C349.919 318.608 349.894 318.619 349.861 318.629C349.829 318.639 349.794 318.647 349.754 318.656C349.714 318.663 349.674 318.67 349.633 318.677C349.593 318.682 349.557 318.687 349.525 318.692C349.455 318.702 349.394 318.719 349.342 318.741C349.289 318.763 349.249 318.794 349.22 318.832C349.191 318.869 349.177 318.916 349.177 318.971C349.177 319.052 349.206 319.114 349.265 319.157C349.324 319.199 349.4 319.22 349.491 319.22Z" fill="white"/>
<path d="M347.874 318.28V318.748H346.754V318.28H347.874ZM346.95 317.445V319.59H346.381V317.445H346.95ZM348.247 317.445V319.59H347.683V317.445H348.247Z" fill="white"/>
<circle cx="322.833" cy="334.242" r="4.5" fill="#F5F5F5" stroke="#555555"/>
<path d="M436.833 212.742C436.833 211.361 437.952 210.242 439.333 210.242H447.833V218.242H439.333C437.952 218.242 436.833 217.123 436.833 215.742V212.742Z" fill="#F5F5F5" stroke="#555555"/>
<path d="M440.833 218.242H449.333C450.714 218.242 451.833 219.361 451.833 220.742V223.742C451.833 225.123 450.714 226.242 449.333 226.242H440.833V218.242Z" fill="#F5F5F5" stroke="#555555"/>
<path d="M440.833 202.242H449.333C450.714 202.242 451.833 203.361 451.833 204.742V207.742C451.833 209.123 450.714 210.242 449.333 210.242H440.833V202.242Z" fill="#F5F5F5" stroke="#555555"/>
<path d="M436.833 262.742C436.833 261.361 437.952 260.242 439.333 260.242H447.833V268.242H439.333C437.952 268.242 436.833 267.123 436.833 265.742V262.742Z" fill="#F5F5F5" stroke="#555555"/>
<path d="M440.833 268.242H449.333C450.714 268.242 451.833 269.361 451.833 270.742V273.742C451.833 275.123 450.714 276.242 449.333 276.242H440.833V268.242Z" fill="#F5F5F5" stroke="#555555"/>
<path d="M440.833 252.242H449.333C450.714 252.242 451.833 253.361 451.833 254.742V257.742C451.833 259.123 450.714 260.242 449.333 260.242H440.833V252.242Z" fill="#F5F5F5" stroke="#555555"/>
<path d="M436.833 421.742C436.833 420.361 437.952 419.242 439.333 419.242H447.833V427.242H439.333C437.952 427.242 436.833 426.123 436.833 424.742V421.742Z" fill="#F5F5F5" stroke="#555555"/>
<path d="M440.833 427.242H449.333C450.714 427.242 451.833 428.361 451.833 429.742V432.742C451.833 434.123 450.714 435.242 449.333 435.242H440.833V427.242Z" fill="#F5F5F5" stroke="#555555"/>
<path d="M440.833 411.242H449.333C450.714 411.242 451.833 412.361 451.833 413.742V416.742C451.833 418.123 450.714 419.242 449.333 419.242H440.833V411.242Z" fill="#F5F5F5" stroke="#555555"/>
<rect x="250.833" y="89.2422" width="203" height="4" fill="#F5F5F5" stroke="#555555"/>
<path d="M338.833 400.73V404.242H324.833V400.73H338.833ZM324.833 220.754V217.242H338.833V220.754H324.833Z" fill="#F5F5F5" stroke="#555555"/>
<path d="M335.833 176.242H340.833V445.242H335.833V404.242V399.742V221.242V216.742V176.242Z" fill="#F5F5F5" stroke="#555555"/>
<g filter="url(#filter0_d_3114_13418)">
<rect x="185.333" y="189.742" width="60.48" height="60.48" rx="24.4604" fill="#868686"/>
</g>
<path fill-rule="evenodd" clip-rule="evenodd" d="M228.066 221.207C225.633 221.207 223.587 219.254 223.587 216.71C223.587 214.166 225.512 212.233 228.086 212.233C230.66 212.233 232.586 214.248 232.586 216.71C232.586 219.172 230.538 221.207 228.066 221.207ZM211.294 217.769L208.01 209.181H205.497L202.193 217.769L198.889 209.181H194.977L200.753 224.28H203.267L206.733 215.286L210.219 224.28H212.732L218.488 209.181H214.597L211.293 217.769H211.294ZM228.086 208.612C226.403 208.612 224.883 209.12 223.587 209.995V202.019H219.999V216.731C219.999 221.207 223.627 224.809 228.066 224.809C232.505 224.809 236.174 221.227 236.174 216.69C236.174 212.152 232.586 208.611 228.086 208.611L228.086 208.612Z" fill="white"/>
<rect x="204.062" y="230.743" width="23.4166" height="3.34523" fill="white"/>
<path d="M218.833 172.242H220.333V169.242H218.833V172.242ZM169.272 169.682C168.687 170.267 168.687 171.217 169.272 171.803L178.818 181.349C179.404 181.935 180.354 181.935 180.94 181.349C181.525 180.763 181.525 179.813 180.94 179.227L172.454 170.742L180.94 162.257C181.525 161.671 181.525 160.721 180.94 160.136C180.354 159.55 179.404 159.55 178.818 160.136L169.272 169.682ZM218.833 169.242H170.333V172.242H218.833V169.242Z" fill="#50E55F"/>
<rect x="151.333" y="189.742" width="60" height="60" rx="23" stroke="#50E55F" stroke-width="2"/>
<rect x="185.333" y="189.742" width="60" height="60" rx="23" stroke="#50E55F" stroke-width="2" stroke-dasharray="4 4"/>
<rect x="74.333" y="294.742" width="109" height="44" rx="10" fill="black"/>
<path d="M89.9893 324.742V323.336L95.2705 317.555C95.8903 316.878 96.4007 316.289 96.8018 315.789C97.2028 315.284 97.4997 314.81 97.6924 314.367C97.8903 313.919 97.9893 313.451 97.9893 312.961C97.9893 312.398 97.8538 311.911 97.583 311.5C97.3174 311.089 96.9528 310.771 96.4893 310.547C96.0257 310.323 95.5049 310.211 94.9268 310.211C94.3122 310.211 93.7757 310.339 93.3174 310.594C92.8643 310.844 92.5127 311.195 92.2627 311.648C92.0179 312.102 91.8955 312.633 91.8955 313.242H90.0518C90.0518 312.305 90.2679 311.482 90.7002 310.773C91.1325 310.065 91.721 309.513 92.4658 309.117C93.2158 308.721 94.057 308.523 94.9893 308.523C95.9268 308.523 96.7575 308.721 97.4814 309.117C98.2054 309.513 98.7731 310.047 99.1846 310.719C99.596 311.391 99.8018 312.138 99.8018 312.961C99.8018 313.549 99.695 314.125 99.4814 314.688C99.2731 315.245 98.9085 315.867 98.3877 316.555C97.8721 317.237 97.1559 318.07 96.2393 319.055L92.6455 322.898V323.023H100.083V324.742H89.9893ZM108.528 324.961C107.351 324.961 106.349 324.641 105.521 324C104.692 323.354 104.06 322.419 103.622 321.195C103.185 319.966 102.966 318.482 102.966 316.742C102.966 315.013 103.185 313.536 103.622 312.312C104.065 311.083 104.7 310.146 105.528 309.5C106.362 308.849 107.362 308.523 108.528 308.523C109.695 308.523 110.692 308.849 111.521 309.5C112.354 310.146 112.989 311.083 113.427 312.312C113.869 313.536 114.091 315.013 114.091 316.742C114.091 318.482 113.872 319.966 113.435 321.195C112.997 322.419 112.364 323.354 111.536 324C110.708 324.641 109.705 324.961 108.528 324.961ZM108.528 323.242C109.695 323.242 110.601 322.68 111.247 321.555C111.893 320.43 112.216 318.826 112.216 316.742C112.216 315.357 112.067 314.177 111.771 313.203C111.479 312.229 111.057 311.487 110.505 310.977C109.958 310.466 109.299 310.211 108.528 310.211C107.372 310.211 106.468 310.781 105.817 311.922C105.166 313.057 104.841 314.664 104.841 316.742C104.841 318.128 104.987 319.305 105.278 320.273C105.57 321.242 105.989 321.979 106.536 322.484C107.088 322.99 107.752 323.242 108.528 323.242ZM122.278 324.961C121.101 324.961 120.099 324.641 119.271 324C118.442 323.354 117.81 322.419 117.372 321.195C116.935 319.966 116.716 318.482 116.716 316.742C116.716 315.013 116.935 313.536 117.372 312.312C117.815 311.083 118.45 310.146 119.278 309.5C120.112 308.849 121.112 308.523 122.278 308.523C123.445 308.523 124.442 308.849 125.271 309.5C126.104 310.146 126.739 311.083 127.177 312.312C127.619 313.536 127.841 315.013 127.841 316.742C127.841 318.482 127.622 319.966 127.185 321.195C126.747 322.419 126.114 323.354 125.286 324C124.458 324.641 123.455 324.961 122.278 324.961ZM122.278 323.242C123.445 323.242 124.351 322.68 124.997 321.555C125.643 320.43 125.966 318.826 125.966 316.742C125.966 315.357 125.817 314.177 125.521 313.203C125.229 312.229 124.807 311.487 124.255 310.977C123.708 310.466 123.049 310.211 122.278 310.211C121.122 310.211 120.218 310.781 119.567 311.922C118.916 313.057 118.591 314.664 118.591 316.742C118.591 318.128 118.737 319.305 119.028 320.273C119.32 321.242 119.739 321.979 120.286 322.484C120.838 322.99 121.502 323.242 122.278 323.242ZM143.591 322.242L147.778 312.742H149.528L144.341 324.742H142.841L137.747 312.742H139.466L143.591 322.242ZM138.872 312.742V324.742H137.028V312.742H138.872ZM148.31 324.742V312.742H150.153V324.742H148.31ZM160.091 322.242L164.278 312.742H166.028L160.841 324.742H159.341L154.247 312.742H155.966L160.091 322.242ZM155.372 312.742V324.742H153.528V312.742H155.372ZM164.81 324.742V312.742H166.653V324.742H164.81Z" fill="#E8E4EC"/>
<path d="M207.333 316.742H183.333" stroke="black" stroke-width="2"/>
<path d="M207.333 224.742L207.333 338.742" stroke="black" stroke-width="2" stroke-linecap="round" stroke-dasharray="12 12"/>
<path d="M210.626 316.035C210.235 316.426 210.235 317.059 210.626 317.449L216.99 323.813C217.38 324.204 218.014 324.204 218.404 323.813C218.795 323.423 218.795 322.79 218.404 322.399L212.747 316.742L218.404 311.085C218.795 310.695 218.795 310.062 218.404 309.671C218.014 309.281 217.38 309.281 216.99 309.671L210.626 316.035ZM228.833 315.742H211.333V317.742H228.833V315.742Z" fill="black"/>
<path d="M247.04 317.449C247.431 317.059 247.431 316.426 247.04 316.035L240.676 309.671C240.286 309.281 239.652 309.281 239.262 309.671C238.871 310.062 238.871 310.695 239.262 311.085L244.919 316.742L239.262 322.399C238.871 322.79 238.871 323.423 239.262 323.813C239.652 324.204 240.286 324.204 240.676 323.813L247.04 317.449ZM246.333 315.742H228.833V317.742H246.333V315.742Z" fill="black"/>
<path d="M250.333 224.742L250.333 338.742" stroke="black" stroke-width="2" stroke-linecap="round" stroke-dasharray="12 12"/>
<path d="M241.333 63.7422V202.742" stroke="#FF003D" stroke-width="2" stroke-linecap="round" stroke-dasharray="12 12"/>
<g style="mix-blend-mode:color">
<rect x="251.333" y="87.7422" width="204" height="383" fill="#D9D9D9"/>
</g>
<path d="M241.394 122.803C241.979 122.217 241.979 121.267 241.394 120.682L231.848 111.136C231.262 110.55 230.312 110.55 229.726 111.136C229.141 111.721 229.141 112.671 229.726 113.257L238.212 121.742L229.726 130.227C229.141 130.813 229.141 131.763 229.726 132.349C230.312 132.935 231.262 132.935 231.848 132.349L241.394 122.803ZM240.333 120.242H178.333V123.242H240.333V120.242Z" fill="#FF003D"/>
<path d="M248.333 121.742H244.333" stroke="#FF003D" stroke-width="3"/>
<path d="M251.272 120.682C250.687 121.267 250.687 122.217 251.272 122.803L260.818 132.349C261.404 132.935 262.354 132.935 262.94 132.349C263.525 131.763 263.525 130.813 262.94 130.227L254.454 121.742L262.94 113.257C263.525 112.671 263.525 111.721 262.94 111.136C262.354 110.55 261.404 110.55 260.818 111.136L251.272 120.682ZM282.333 120.242H252.333V123.242H282.333V120.242Z" fill="#FF003D"/>
<path d="M251.333 63.7422V202.742" stroke="#FF003D" stroke-width="2" stroke-linecap="round" stroke-dasharray="12 12"/>
</g>
<rect x="5.33301" y="5.74219" width="582" height="470" stroke="#FF003D" stroke-width="10"/>
<defs>
<filter id="filter0_d_3114_13418" x="181.988" y="189.742" width="63.8252" height="64.9403" filterUnits="userSpaceOnUse" color-interpolation-filters="sRGB">
<feFlood flood-opacity="0" result="BackgroundImageFix"/>
<feColorMatrix in="SourceAlpha" type="matrix" values="0 0 0 0 0 0 0 0 0 0 0 0 0 0 0 0 0 0 127 0" result="hardAlpha"/>
<feOffset dx="-3.34523" dy="4.46031"/>
<feComposite in2="hardAlpha" operator="out"/>
<feColorMatrix type="matrix" values="0 0 0 0 0 0 0 0 0 0 0 0 0 0 0 0 0 0 0.25 0"/>
<feBlend mode="normal" in2="BackgroundImageFix" result="effect1_dropShadow_3114_13418"/>
<feBlend mode="normal" in="SourceGraphic" in2="effect1_dropShadow_3114_13418" result="shape"/>
</filter>
<clipPath id="clip0_3114_13418">
<rect x="0.333008" y="0.742188" width="592" height="480" fill="white"/>
</clipPath>
</defs>
</svg>
