<svg width="901" height="649" viewBox="0 0 901 649" fill="none" xmlns="http://www.w3.org/2000/svg">
<g clip-path="url(#clip0_3110_12164)">
<rect width="900" height="648" transform="translate(0.666992 0.125977)" fill="#EDEDED"/>
<rect width="704" height="314.248" transform="translate(310.667 169.501)" fill="#DFDBD8"/>
<path fill-rule="evenodd" clip-rule="evenodd" d="M377.384 282.745H453.887V413.57H377.384V282.745Z" fill="#F5F5F5" stroke="#555555" stroke-width="0.531722"/>
<path d="M384.627 289.992H446.644V406.332H384.627V289.992Z" fill="#B5DADA" stroke="#555555" stroke-width="0.452682"/>
<rect x="375.573" y="413.116" width="79.2194" height="1.81073" fill="#555555"/>
<g opacity="0.3">
<path d="M375.573 414.927H454.793L450.826 420.359H371.499L375.573 414.927Z" fill="#A0A0A0"/>
<path d="M371.499 420.359L375.573 414.927V413.116L371.499 418.548V420.359Z" fill="#A0A0A0"/>
</g>
<path fill-rule="evenodd" clip-rule="evenodd" d="M707.584 282.745H784.087V413.57H707.584V282.745Z" fill="#F5F5F5" stroke="#555555" stroke-width="0.531722"/>
<path d="M714.827 289.992H776.845V406.332H714.827V289.992Z" fill="#B5DADA" stroke="#555555" stroke-width="0.452682"/>
<rect x="705.772" y="413.116" width="79.2194" height="1.81073" fill="#555555"/>
<g opacity="0.3">
<path d="M705.772 414.927H784.992L781.025 420.359H701.698L705.772 414.927Z" fill="#A0A0A0"/>
<path d="M701.698 420.359L705.772 414.927V413.116L701.698 418.548V420.359Z" fill="#A0A0A0"/>
</g>
<path fill-rule="evenodd" clip-rule="evenodd" d="M856.781 282.745H933.285V413.57H856.781V282.745Z" fill="#F5F5F5" stroke="#555555" stroke-width="0.531722"/>
<path d="M864.024 289.992H926.042V406.332H864.024V289.992Z" fill="#B5DADA" stroke="#555555" stroke-width="0.452682"/>
<rect x="854.971" y="413.116" width="79.2194" height="1.81073" fill="#555555"/>
<g opacity="0.3">
<path d="M854.971 414.927H934.19L930.224 420.359H850.896L854.971 414.927Z" fill="#A0A0A0"/>
<path d="M850.896 420.359L854.971 414.927V413.116L850.896 418.548V420.359Z" fill="#A0A0A0"/>
</g>
<rect x="310.667" y="445.46" width="704" height="38.284" fill="#888585"/>
<rect x="310.667" y="169.501" width="704" height="6.91239" fill="#888585"/>
<rect width="108.471" height="200.991" transform="translate(527.077 282.759)" fill="#F5F5F5"/>
<path d="M569.591 322.957H622.987V475.154H569.591V322.957Z" fill="#B5DADA"/>
<path d="M553.63 322.957H539.989V475.685H553.63V322.957Z" fill="#B5DADA"/>
<path d="M539.825 289.995V306.891H622.633V289.995H539.825Z" fill="#B5DADA"/>
<path d="M561.625 483.523H631.029V314.917M561.625 483.523H531.613V314.917M561.625 483.523V314.917M561.625 314.917H531.613M561.625 314.917H631.029M531.613 314.917V282.985M631.029 314.917V282.985M527.343 282.985H635.282V483.523H527.343V282.985ZM569.591 322.957H622.987V475.154H569.591V322.957ZM553.63 322.957H539.989V475.685H553.63V322.957ZM539.825 306.891V289.995H622.633V306.891H539.825Z" stroke="#555555" stroke-width="0.531722"/>
<path d="M598.799 338.439H593.955C588.605 338.439 584.268 342.776 584.268 348.127V352.97C584.268 358.321 588.605 362.658 593.955 362.658H598.799C604.15 362.658 608.487 358.321 608.487 352.97V348.127C608.487 342.776 604.15 338.439 598.799 338.439Z" stroke="#555555" stroke-width="0.620628" stroke-miterlimit="10"/>
<path d="M590.404 344.354V348.896H589.581V345.155H589.555L588.492 345.833V345.079L589.621 344.354H590.404Z" fill="#FF00CC"/>
<path d="M593.642 348.982C593.277 348.982 592.964 348.89 592.703 348.704C592.442 348.519 592.242 348.25 592.102 347.899C591.962 347.548 591.893 347.125 591.893 346.629C591.894 346.134 591.965 345.712 592.104 345.364C592.244 345.016 592.445 344.75 592.705 344.567C592.966 344.383 593.279 344.292 593.642 344.292C594.006 344.292 594.319 344.383 594.581 344.567C594.842 344.75 595.043 345.017 595.183 345.365C595.323 345.714 595.392 346.136 595.392 346.629C595.392 347.123 595.322 347.55 595.183 347.901C595.043 348.253 594.843 348.521 594.582 348.706C594.321 348.89 594.008 348.983 593.642 348.983V348.982ZM593.642 348.288C593.926 348.288 594.151 348.148 594.316 347.868C594.48 347.588 594.563 347.175 594.563 346.629C594.563 346.269 594.525 345.965 594.45 345.72C594.374 345.475 594.268 345.289 594.13 345.164C593.993 345.039 593.83 344.977 593.642 344.977C593.36 344.977 593.137 345.117 592.973 345.397C592.808 345.678 592.726 346.088 592.724 346.629C592.723 346.992 592.759 347.296 592.834 347.543C592.908 347.79 593.015 347.976 593.152 348.101C593.29 348.226 593.453 348.288 593.642 348.288Z" fill="#FF00CC"/>
<path d="M596.411 346.1C596.276 346.1 596.161 346.053 596.065 345.957C595.969 345.862 595.921 345.747 595.923 345.612C595.921 345.479 595.969 345.365 596.065 345.27C596.161 345.174 596.276 345.127 596.411 345.127C596.545 345.127 596.654 345.174 596.751 345.27C596.848 345.365 596.897 345.479 596.899 345.612C596.897 345.701 596.874 345.782 596.829 345.856C596.784 345.93 596.724 345.989 596.651 346.034C596.578 346.078 596.498 346.1 596.411 346.1ZM596.411 348.351C596.276 348.351 596.161 348.304 596.065 348.208C595.969 348.113 595.921 347.998 595.923 347.864C595.921 347.731 595.969 347.617 596.065 347.522C596.161 347.427 596.276 347.38 596.411 347.38C596.545 347.38 596.654 347.427 596.751 347.522C596.848 347.617 596.897 347.73 596.899 347.864C596.897 347.954 596.874 348.036 596.829 348.11C596.784 348.184 596.724 348.242 596.651 348.286C596.578 348.33 596.498 348.351 596.411 348.351Z" fill="#FF00CC"/>
<path d="M599.178 348.982C598.812 348.982 598.499 348.89 598.238 348.704C597.977 348.519 597.777 348.25 597.637 347.899C597.497 347.548 597.428 347.125 597.428 346.629C597.429 346.134 597.5 345.712 597.64 345.364C597.779 345.016 597.98 344.75 598.24 344.567C598.502 344.383 598.814 344.292 599.178 344.292C599.541 344.292 599.854 344.383 600.116 344.567C600.377 344.75 600.578 345.017 600.718 345.365C600.858 345.714 600.927 346.136 600.927 346.629C600.927 347.123 600.858 347.55 600.718 347.901C600.578 348.253 600.378 348.521 600.117 348.706C599.856 348.89 599.543 348.983 599.178 348.983V348.982ZM599.178 348.288C599.462 348.288 599.686 348.148 599.851 347.868C600.016 347.588 600.098 347.175 600.098 346.629C600.098 346.269 600.06 345.965 599.985 345.72C599.91 345.475 599.803 345.289 599.666 345.164C599.528 345.039 599.366 344.977 599.178 344.977C598.895 344.977 598.672 345.117 598.508 345.397C598.344 345.678 598.261 346.088 598.259 346.629C598.258 346.992 598.294 347.296 598.369 347.543C598.444 347.79 598.55 347.976 598.688 348.101C598.825 348.226 598.988 348.288 599.178 348.288Z" fill="#FF00CC"/>
<path d="M603.06 348.982C602.695 348.982 602.382 348.89 602.121 348.704C601.86 348.519 601.66 348.25 601.52 347.899C601.38 347.548 601.311 347.125 601.311 346.629C601.312 346.134 601.383 345.712 601.522 345.364C601.662 345.016 601.862 344.75 602.123 344.567C602.384 344.383 602.697 344.292 603.06 344.292C603.424 344.292 603.737 344.383 603.999 344.567C604.26 344.75 604.461 345.017 604.601 345.365C604.741 345.714 604.81 346.136 604.81 346.629C604.81 347.123 604.74 347.55 604.601 347.901C604.461 348.253 604.261 348.521 604 348.706C603.739 348.89 603.426 348.983 603.06 348.983V348.982ZM603.06 348.288C603.344 348.288 603.568 348.148 603.734 347.868C603.898 347.588 603.981 347.175 603.981 346.629C603.981 346.269 603.943 345.965 603.868 345.72C603.792 345.475 603.686 345.289 603.548 345.164C603.411 345.039 603.248 344.977 603.06 344.977C602.778 344.977 602.555 345.117 602.391 345.397C602.226 345.678 602.144 346.088 602.142 346.629C602.141 346.992 602.177 347.296 602.252 347.543C602.326 347.79 602.433 347.976 602.57 348.101C602.708 348.226 602.871 348.288 603.06 348.288Z" fill="#FF00CC"/>
<path d="M588.277 354.5V353.906L589.854 352.36C590.005 352.208 590.131 352.072 590.232 351.954C590.332 351.836 590.407 351.721 590.458 351.61C590.508 351.499 590.533 351.381 590.533 351.255C590.533 351.112 590.5 350.989 590.435 350.886C590.37 350.783 590.281 350.704 590.167 350.647C590.053 350.591 589.924 350.563 589.779 350.563C589.634 350.563 589.499 350.594 589.386 350.655C589.274 350.717 589.187 350.803 589.126 350.916C589.065 351.028 589.034 351.162 589.034 351.317H588.251C588.251 351.029 588.317 350.778 588.448 350.565C588.58 350.352 588.761 350.188 588.993 350.071C589.224 349.954 589.49 349.896 589.79 349.896C590.09 349.896 590.362 349.953 590.593 350.066C590.824 350.18 591.003 350.336 591.131 350.534C591.259 350.733 591.323 350.959 591.323 351.213C591.323 351.383 591.29 351.55 591.225 351.714C591.16 351.878 591.046 352.06 590.882 352.26C590.719 352.46 590.49 352.701 590.196 352.985L589.413 353.781V353.812H591.392V354.5H588.278L588.277 354.5Z" fill="#FF00CC"/>
<path d="M592.236 354.5V353.906L593.813 352.36C593.964 352.208 594.09 352.072 594.191 351.954C594.291 351.836 594.366 351.721 594.417 351.61C594.467 351.499 594.492 351.381 594.492 351.255C594.492 351.112 594.459 350.989 594.394 350.886C594.329 350.783 594.24 350.704 594.126 350.647C594.012 350.591 593.883 350.563 593.738 350.563C593.593 350.563 593.458 350.594 593.345 350.655C593.233 350.717 593.146 350.803 593.085 350.916C593.024 351.028 592.993 351.162 592.993 351.317H592.21C592.21 351.029 592.276 350.778 592.407 350.565C592.539 350.352 592.72 350.188 592.952 350.071C593.183 349.954 593.449 349.896 593.749 349.896C594.049 349.896 594.321 349.953 594.552 350.066C594.783 350.18 594.962 350.336 595.09 350.534C595.218 350.733 595.282 350.959 595.282 351.213C595.282 351.383 595.249 351.55 595.184 351.714C595.119 351.878 595.005 352.06 594.841 352.26C594.678 352.46 594.449 352.701 594.155 352.985L593.372 353.781V353.812H595.351V354.5H592.237L592.236 354.5Z" fill="#FF00CC"/>
<path d="M596.411 351.702C596.276 351.702 596.161 351.655 596.065 351.559C595.969 351.464 595.921 351.349 595.923 351.214C595.921 351.081 595.969 350.967 596.065 350.872C596.161 350.776 596.276 350.729 596.411 350.729C596.545 350.729 596.654 350.776 596.751 350.872C596.848 350.967 596.897 351.081 596.899 351.214C596.897 351.303 596.874 351.384 596.829 351.458C596.784 351.532 596.724 351.591 596.651 351.636C596.578 351.68 596.498 351.702 596.411 351.702V351.702ZM596.411 353.953C596.276 353.953 596.161 353.906 596.065 353.81C595.969 353.715 595.921 353.6 595.923 353.465C595.921 353.332 595.969 353.218 596.065 353.124C596.161 353.029 596.276 352.982 596.411 352.982C596.545 352.982 596.654 353.029 596.751 353.124C596.848 353.218 596.897 353.332 596.899 353.465C596.897 353.556 596.874 353.638 596.829 353.712C596.784 353.785 596.724 353.844 596.651 353.888C596.578 353.931 596.498 353.953 596.411 353.953V353.953Z" fill="#FF00CC"/>
<path d="M599.211 354.586C598.846 354.586 598.532 354.493 598.271 354.308C598.01 354.123 597.81 353.854 597.67 353.503C597.531 353.152 597.461 352.729 597.461 352.233C597.462 351.738 597.533 351.316 597.673 350.968C597.813 350.62 598.013 350.354 598.274 350.171C598.535 349.987 598.847 349.896 599.211 349.896C599.574 349.896 599.887 349.987 600.149 350.171C600.411 350.354 600.612 350.62 600.751 350.969C600.891 351.318 600.961 351.739 600.961 352.233C600.961 352.727 600.891 353.154 600.751 353.505C600.611 353.856 600.411 354.125 600.15 354.309C599.889 354.494 599.576 354.586 599.211 354.586ZM599.211 353.892C599.495 353.892 599.719 353.752 599.884 353.472C600.049 353.191 600.131 352.778 600.131 352.233C600.131 351.872 600.093 351.569 600.018 351.324C599.943 351.079 599.836 350.893 599.699 350.768C599.561 350.643 599.399 350.581 599.211 350.581C598.928 350.581 598.705 350.721 598.541 351.001C598.377 351.281 598.294 351.692 598.293 352.233C598.291 352.595 598.328 352.9 598.402 353.147C598.477 353.394 598.583 353.58 598.721 353.705C598.858 353.83 599.022 353.892 599.211 353.892Z" fill="#FF00CC"/>
<path d="M603.095 354.586C602.729 354.586 602.416 354.493 602.155 354.308C601.894 354.123 601.694 353.854 601.554 353.503C601.414 353.152 601.345 352.729 601.345 352.233C601.346 351.738 601.417 351.316 601.557 350.968C601.696 350.62 601.897 350.354 602.157 350.171C602.419 349.987 602.731 349.896 603.095 349.896C603.458 349.896 603.771 349.987 604.033 350.171C604.294 350.354 604.495 350.62 604.635 350.969C604.775 351.318 604.844 351.739 604.844 352.233C604.844 352.727 604.774 353.154 604.635 353.505C604.495 353.856 604.295 354.125 604.034 354.309C603.773 354.494 603.46 354.586 603.095 354.586ZM603.095 353.892C603.379 353.892 603.603 353.752 603.768 353.472C603.933 353.191 604.015 352.778 604.015 352.233C604.015 351.872 603.977 351.569 603.902 351.324C603.826 351.079 603.72 350.893 603.583 350.768C603.445 350.643 603.283 350.581 603.095 350.581C602.812 350.581 602.589 350.721 602.425 351.001C602.261 351.281 602.178 351.692 602.176 352.233C602.175 352.595 602.211 352.9 602.286 353.147C602.361 353.394 602.467 353.58 602.605 353.705C602.742 353.83 602.905 353.892 603.095 353.892Z" fill="#FF00CC"/>
<path d="M591.502 348.207H588.492V348.895H591.502V348.207Z" fill="#FF00CC"/>
<path d="M590.75 358.545C590.629 358.545 590.524 358.519 590.437 358.467C590.349 358.415 590.282 358.341 590.235 358.246C590.188 358.152 590.164 358.04 590.164 357.913C590.164 357.785 590.188 357.675 590.235 357.579C590.282 357.483 590.348 357.408 590.433 357.354C590.519 357.3 590.618 357.273 590.733 357.273C590.802 357.273 590.869 357.285 590.935 357.308C591 357.331 591.058 357.367 591.11 357.416C591.162 357.465 591.203 357.529 591.233 357.607C591.263 357.685 591.278 357.78 591.278 357.892V357.976H590.299V357.797H591.043C591.043 357.734 591.03 357.678 591.005 357.629C590.979 357.58 590.943 357.542 590.897 357.513C590.851 357.485 590.797 357.471 590.735 357.471C590.667 357.471 590.609 357.487 590.559 357.52C590.509 357.553 590.47 357.596 590.443 357.648C590.416 357.701 590.403 357.758 590.403 357.819V357.96C590.403 358.042 590.417 358.112 590.446 358.17C590.476 358.227 590.516 358.271 590.568 358.301C590.621 358.332 590.682 358.347 590.752 358.347C590.797 358.347 590.839 358.34 590.876 358.327C590.913 358.314 590.946 358.294 590.973 358.268C591 358.242 591.021 358.21 591.035 358.171L591.262 358.212C591.244 358.279 591.211 358.338 591.165 358.387C591.118 358.437 591.059 358.476 590.989 358.503C590.919 358.531 590.839 358.545 590.749 358.545L590.75 358.545Z" fill="#FF00CC"/>
<path d="M591.461 358.523L591.937 357.893L591.466 357.292H591.745L592.126 357.803H592.211V357.292H592.451V357.803H592.534L592.915 357.292H593.194L592.725 357.893L593.199 358.523H592.915L592.531 358.01H592.451V358.523H592.211V358.01H592.131L591.745 358.523H591.46H591.461Z" fill="#FF00CC"/>
<path d="M593.946 358.545C593.825 358.545 593.721 358.519 593.633 358.467C593.546 358.415 593.478 358.341 593.431 358.246C593.384 358.152 593.36 358.04 593.36 357.913C593.36 357.785 593.384 357.675 593.431 357.579C593.478 357.483 593.545 357.408 593.63 357.354C593.715 357.3 593.815 357.273 593.929 357.273C593.998 357.273 594.066 357.285 594.131 357.308C594.196 357.331 594.254 357.367 594.306 357.416C594.358 357.465 594.399 357.529 594.429 357.607C594.459 357.685 594.474 357.78 594.474 357.892V357.976H593.496V357.797H594.239C594.239 357.734 594.226 357.678 594.201 357.629C594.175 357.58 594.139 357.542 594.093 357.513C594.047 357.485 593.993 357.471 593.931 357.471C593.864 357.471 593.805 357.487 593.755 357.52C593.705 357.553 593.667 357.596 593.639 357.648C593.612 357.701 593.599 357.758 593.599 357.819V357.96C593.599 358.042 593.614 358.112 593.643 358.17C593.672 358.227 593.713 358.271 593.765 358.301C593.817 358.332 593.878 358.347 593.948 358.347C593.993 358.347 594.035 358.34 594.072 358.327C594.109 358.314 594.142 358.294 594.169 358.268C594.196 358.242 594.217 358.21 594.232 358.171L594.458 358.212C594.44 358.279 594.408 358.338 594.361 358.387C594.314 358.437 594.256 358.476 594.185 358.503C594.115 358.531 594.035 358.545 593.946 358.545L593.946 358.545Z" fill="#FF00CC"/>
<path d="M594.644 358.878V358.315H594.744C594.769 358.292 594.791 358.263 594.809 358.231C594.827 358.198 594.842 358.159 594.855 358.115C594.867 358.07 594.878 358.017 594.886 357.957C594.895 357.897 594.902 357.828 594.909 357.751L594.947 357.292H595.784V358.315H595.973V358.878H595.739V358.523H594.881V358.878H594.644ZM595 358.315H595.55V357.497H595.162L595.136 357.751C595.124 357.88 595.108 357.992 595.09 358.087C595.071 358.182 595.041 358.258 595 358.315V358.315Z" fill="#FF00CC"/>
<path d="M596.464 357.292V358.523H596.229V357.292H596.464ZM597.063 357.804V358.012H596.397V357.804H597.063ZM597.231 357.292V358.523H596.997V357.292H597.231Z" fill="#FF00CC"/>
<path d="M598.102 358.545C597.981 358.545 597.877 358.519 597.789 358.467C597.702 358.415 597.635 358.341 597.587 358.246C597.54 358.152 597.517 358.04 597.517 357.913C597.517 357.785 597.54 357.675 597.587 357.579C597.635 357.483 597.701 357.408 597.786 357.354C597.871 357.3 597.971 357.273 598.085 357.273C598.155 357.273 598.222 357.285 598.287 357.308C598.352 357.331 598.411 357.367 598.463 357.416C598.514 357.465 598.555 357.529 598.585 357.607C598.615 357.685 598.63 357.78 598.63 357.892V357.976H597.652V357.797H598.396C598.396 357.734 598.383 357.678 598.357 357.629C598.332 357.58 598.296 357.542 598.249 357.513C598.203 357.485 598.149 357.471 598.087 357.471C598.02 357.471 597.961 357.487 597.911 357.52C597.861 357.553 597.823 357.596 597.796 357.648C597.769 357.701 597.755 357.758 597.755 357.819V357.96C597.755 358.042 597.77 358.112 597.799 358.17C597.828 358.227 597.869 358.271 597.921 358.301C597.973 358.332 598.034 358.347 598.104 358.347C598.15 358.347 598.191 358.34 598.228 358.327C598.266 358.314 598.298 358.294 598.325 358.268C598.353 358.242 598.373 358.21 598.388 358.171L598.614 358.212C598.596 358.279 598.564 358.338 598.517 358.387C598.47 358.437 598.412 358.476 598.342 358.503C598.271 358.531 598.191 358.545 598.102 358.545L598.102 358.545Z" fill="#FF00CC"/>
<path d="M598.92 358.523V357.292H599.43C599.569 357.292 599.679 357.322 599.76 357.381C599.842 357.44 599.882 357.52 599.882 357.62C599.882 357.693 599.859 357.75 599.813 357.792C599.768 357.834 599.707 357.862 599.631 357.877C599.686 357.883 599.736 357.9 599.782 357.926C599.828 357.952 599.865 357.988 599.893 358.032C599.921 358.076 599.935 358.129 599.935 358.191C599.935 358.256 599.918 358.313 599.885 358.364C599.851 358.413 599.802 358.452 599.739 358.48C599.675 358.509 599.598 358.523 599.508 358.523H598.92L598.92 358.523ZM599.145 357.805H599.433C599.478 357.805 599.516 357.799 599.549 357.786C599.581 357.773 599.606 357.755 599.623 357.731C599.641 357.707 599.649 357.679 599.649 357.646C599.649 357.599 599.63 357.562 599.591 357.535C599.552 357.508 599.498 357.495 599.431 357.495H599.145V357.805L599.145 357.805ZM599.145 358.323H599.508C599.568 358.323 599.614 358.308 599.648 358.28C599.681 358.252 599.698 358.213 599.698 358.165C599.698 358.108 599.681 358.063 599.648 358.03C599.614 357.997 599.567 357.98 599.508 357.98H599.145V358.323Z" fill="#FF00CC"/>
<path d="M600.454 357.292V358.523H600.22V357.292H600.454ZM601.054 357.804V358.012H600.387V357.804H601.054ZM601.221 357.292V358.523H600.987V357.292H601.221Z" fill="#FF00CC"/>
<path d="M602.083 358.545C601.967 358.545 601.866 358.518 601.78 358.465C601.694 358.413 601.628 358.338 601.58 358.244C601.533 358.148 601.509 358.037 601.509 357.91C601.509 357.783 601.533 357.671 601.58 357.575C601.628 357.48 601.694 357.405 601.78 357.353C601.866 357.3 601.967 357.273 602.083 357.273C602.198 357.273 602.299 357.3 602.385 357.353C602.471 357.406 602.537 357.48 602.585 357.575C602.632 357.671 602.656 357.782 602.656 357.91C602.656 358.038 602.632 358.148 602.585 358.244C602.537 358.339 602.471 358.413 602.385 358.465C602.299 358.518 602.198 358.545 602.083 358.545ZM602.083 358.344C602.158 358.344 602.22 358.324 602.269 358.284C602.318 358.245 602.355 358.192 602.379 358.126C602.403 358.061 602.414 357.988 602.414 357.909C602.414 357.83 602.402 357.758 602.379 357.692C602.355 357.627 602.319 357.574 602.269 357.533C602.22 357.493 602.158 357.473 602.083 357.473C602.009 357.473 601.946 357.493 601.896 357.533C601.847 357.574 601.81 357.627 601.786 357.692C601.763 357.758 601.751 357.831 601.751 357.909C601.751 357.988 601.763 358.06 601.786 358.126C601.81 358.192 601.847 358.245 601.896 358.284C601.946 358.324 602.008 358.344 602.083 358.344Z" fill="#FF00CC"/>
<rect x="576.291" y="399.631" width="11.0309" height="5.33755" rx="2.66878" fill="#FF00CC"/>
<path d="M585.277 402.884V401.991H585.063C585.005 401.991 584.961 402.004 584.93 402.031C584.9 402.058 584.885 402.089 584.886 402.126C584.885 402.163 584.9 402.195 584.929 402.22C584.959 402.246 585.002 402.258 585.06 402.258H585.382V402.472H585.06C584.962 402.472 584.878 402.457 584.806 402.428C584.735 402.398 584.68 402.357 584.642 402.304C584.603 402.25 584.584 402.188 584.584 402.117C584.584 402.043 584.603 401.978 584.642 401.922C584.68 401.865 584.735 401.822 584.807 401.79C584.879 401.759 584.965 401.743 585.063 401.743H585.571V402.884H585.277ZM584.552 402.884L584.869 402.289H585.171L584.855 402.884H584.552Z" fill="white"/>
<path d="M584.273 401.324L584.369 401.53C584.337 401.557 584.302 401.577 584.262 401.59C584.223 401.602 584.177 401.61 584.122 401.614C584.068 401.618 584.002 401.621 583.925 401.622C583.836 401.623 583.765 401.638 583.709 401.665C583.654 401.692 583.612 401.735 583.583 401.793C583.554 401.851 583.535 401.927 583.527 402.021H583.538C583.572 401.951 583.62 401.897 583.682 401.859C583.744 401.821 583.821 401.801 583.913 401.801C584.01 401.801 584.095 401.823 584.167 401.865C584.241 401.908 584.298 401.969 584.338 402.049C584.379 402.128 584.399 402.224 584.399 402.335C584.399 402.451 584.376 402.552 584.331 402.638C584.286 402.723 584.222 402.789 584.138 402.836C584.055 402.882 583.956 402.906 583.841 402.906C583.726 402.906 583.627 402.881 583.543 402.833C583.46 402.784 583.395 402.713 583.35 402.618C583.305 402.524 583.282 402.407 583.282 402.269V402.176C583.282 401.901 583.336 401.697 583.443 401.565C583.55 401.432 583.707 401.365 583.914 401.363C583.971 401.362 584.022 401.361 584.067 401.362C584.113 401.362 584.153 401.36 584.187 401.355C584.221 401.35 584.25 401.34 584.273 401.324ZM583.843 402.661C583.891 402.661 583.933 402.648 583.968 402.623C584.003 402.598 584.03 402.561 584.049 402.514C584.068 402.467 584.078 402.411 584.078 402.346C584.078 402.281 584.068 402.226 584.049 402.181C584.03 402.135 584.003 402.101 583.968 402.077C583.932 402.053 583.89 402.041 583.841 402.041C583.805 402.041 583.772 402.048 583.743 402.061C583.713 402.075 583.688 402.095 583.668 402.121C583.647 402.147 583.631 402.178 583.62 402.217C583.609 402.254 583.604 402.297 583.604 402.346C583.604 402.443 583.625 402.52 583.667 402.577C583.709 402.633 583.768 402.661 583.843 402.661Z" fill="white"/>
<path d="M582.594 402.906C582.477 402.906 582.376 402.882 582.291 402.834C582.207 402.786 582.142 402.719 582.097 402.631C582.051 402.543 582.028 402.439 582.028 402.318C582.028 402.201 582.051 402.098 582.097 402.009C582.142 401.921 582.206 401.852 582.289 401.802C582.372 401.753 582.47 401.728 582.582 401.728C582.657 401.728 582.727 401.74 582.792 401.764C582.857 401.788 582.914 401.824 582.963 401.872C583.012 401.92 583.05 401.981 583.077 402.053C583.104 402.126 583.118 402.21 583.118 402.307V402.394H582.155V402.198H582.82C582.82 402.153 582.81 402.112 582.79 402.077C582.77 402.042 582.743 402.014 582.708 401.995C582.673 401.974 582.633 401.964 582.587 401.964C582.539 401.964 582.496 401.975 582.459 401.998C582.422 402.019 582.394 402.049 582.373 402.086C582.352 402.123 582.341 402.163 582.341 402.208V402.395C582.341 402.451 582.351 402.5 582.372 402.541C582.393 402.582 582.423 402.614 582.462 402.636C582.501 402.658 582.546 402.67 582.599 402.67C582.635 402.67 582.667 402.665 582.696 402.655C582.725 402.645 582.75 402.63 582.771 402.61C582.792 402.59 582.808 402.566 582.818 402.537L583.111 402.557C583.096 402.627 583.066 402.688 583.02 402.741C582.974 402.793 582.915 402.834 582.843 402.863C582.771 402.891 582.688 402.906 582.594 402.906Z" fill="white"/>
<path d="M581.362 402.906C581.245 402.906 581.145 402.881 581.061 402.832C580.977 402.782 580.913 402.712 580.868 402.624C580.823 402.535 580.801 402.433 580.801 402.318C580.801 402.201 580.823 402.098 580.868 402.01C580.914 401.922 580.979 401.853 581.062 401.803C581.146 401.753 581.245 401.728 581.361 401.728C581.46 401.728 581.547 401.746 581.622 401.782C581.697 401.818 581.756 401.869 581.8 401.934C581.843 402 581.867 402.077 581.872 402.165H581.573C581.565 402.108 581.542 402.062 581.506 402.027C581.471 401.992 581.424 401.975 581.366 401.975C581.317 401.975 581.274 401.988 581.237 402.015C581.201 402.041 581.173 402.079 581.153 402.13C581.132 402.18 581.122 402.241 581.122 402.313C581.122 402.386 581.132 402.448 581.152 402.499C581.172 402.55 581.201 402.589 581.237 402.615C581.274 402.642 581.317 402.656 581.366 402.656C581.402 402.656 581.434 402.648 581.463 402.633C581.492 402.618 581.516 402.597 581.535 402.569C581.555 402.54 581.567 402.506 581.573 402.465H581.872C581.867 402.553 581.843 402.629 581.8 402.696C581.758 402.761 581.7 402.813 581.626 402.85C581.552 402.887 581.464 402.906 581.362 402.906Z" fill="white"/>
<path d="M579.474 402.905C579.402 402.905 579.337 402.892 579.28 402.867C579.223 402.841 579.178 402.804 579.145 402.754C579.112 402.703 579.096 402.64 579.096 402.565C579.096 402.502 579.107 402.448 579.131 402.405C579.154 402.362 579.186 402.328 579.226 402.301C579.266 402.275 579.311 402.255 579.362 402.242C579.414 402.229 579.468 402.219 579.524 402.214C579.591 402.207 579.644 402.2 579.685 402.194C579.725 402.188 579.755 402.179 579.773 402.166C579.791 402.154 579.8 402.135 579.8 402.111V402.107C579.8 402.06 579.786 402.023 579.756 401.998C579.727 401.972 579.685 401.959 579.631 401.959C579.574 401.959 579.529 401.972 579.495 401.997C579.462 402.022 579.439 402.053 579.428 402.09L579.136 402.067C579.151 401.997 579.18 401.937 579.223 401.887C579.267 401.836 579.323 401.797 579.392 401.77C579.461 401.742 579.542 401.728 579.633 401.728C579.696 401.728 579.757 401.735 579.815 401.75C579.873 401.765 579.925 401.788 579.97 401.819C580.015 401.851 580.051 401.891 580.077 401.94C580.104 401.988 580.117 402.046 580.117 402.114V402.884H579.817V402.725H579.808C579.79 402.761 579.765 402.792 579.734 402.82C579.704 402.846 579.667 402.867 579.624 402.883C579.581 402.898 579.531 402.905 579.474 402.905ZM579.565 402.687C579.612 402.687 579.653 402.678 579.688 402.659C579.724 402.64 579.752 402.615 579.772 402.583C579.793 402.552 579.803 402.516 579.803 402.476V402.355C579.793 402.361 579.779 402.367 579.762 402.373C579.745 402.378 579.726 402.382 579.705 402.387C579.683 402.391 579.662 402.394 579.641 402.398C579.619 402.401 579.6 402.404 579.583 402.406C579.546 402.411 579.513 402.42 579.486 402.432C579.458 402.444 579.436 402.46 579.421 402.48C579.406 402.5 579.398 402.525 579.398 402.555C579.398 402.598 579.414 402.631 579.445 402.653C579.476 402.676 579.517 402.687 579.565 402.687Z" fill="white"/>
<path d="M578.706 402.187V402.436H578.11V402.187H578.706ZM578.214 401.743V402.884H577.912V401.743H578.214ZM578.904 401.743V402.884H578.604V401.743H578.904Z" fill="white"/>
<circle cx="565.391" cy="410.674" r="2.39275" fill="#F5F5F5" stroke="#555555" stroke-width="0.531722"/>
<path d="M626.243 346.565C626.243 345.831 626.839 345.236 627.573 345.236H632.092V349.49H627.573C626.839 349.49 626.243 348.895 626.243 348.161V346.565Z" fill="#F5F5F5" stroke="#555555" stroke-width="0.531722"/>
<path d="M628.37 349.49H632.89C633.624 349.49 634.219 350.085 634.219 350.819V352.414C634.219 353.149 633.624 353.744 632.89 353.744H628.37V349.49Z" fill="#F5F5F5" stroke="#555555" stroke-width="0.531722"/>
<path d="M628.37 340.982H632.89C633.624 340.982 634.219 341.578 634.219 342.312V343.907C634.219 344.641 633.624 345.236 632.89 345.236H628.37V340.982Z" fill="#F5F5F5" stroke="#555555" stroke-width="0.531722"/>
<path d="M626.243 373.152C626.243 372.417 626.839 371.822 627.573 371.822H632.092V376.076H627.573C626.839 376.076 626.243 375.481 626.243 374.747V373.152Z" fill="#F5F5F5" stroke="#555555" stroke-width="0.531722"/>
<path d="M628.37 376.076H632.89C633.624 376.076 634.219 376.671 634.219 377.405V379C634.219 379.735 633.624 380.33 632.89 380.33H628.37V376.076Z" fill="#F5F5F5" stroke="#555555" stroke-width="0.531722"/>
<path d="M628.37 367.568H632.89C633.624 367.568 634.219 368.164 634.219 368.898V370.493C634.219 371.227 633.624 371.822 632.89 371.822H628.37V367.568Z" fill="#F5F5F5" stroke="#555555" stroke-width="0.531722"/>
<path d="M626.243 457.695C626.243 456.961 626.839 456.366 627.573 456.366H632.092V460.62H627.573C626.839 460.62 626.243 460.025 626.243 459.29V457.695Z" fill="#F5F5F5" stroke="#555555" stroke-width="0.531722"/>
<path d="M628.37 460.62H632.89C633.624 460.62 634.219 461.215 634.219 461.949V463.544C634.219 464.278 633.624 464.874 632.89 464.874H628.37V460.62Z" fill="#F5F5F5" stroke="#555555" stroke-width="0.531722"/>
<path d="M628.37 452.112H632.89C633.624 452.112 634.219 452.707 634.219 453.442V455.037C634.219 455.771 633.624 456.366 632.89 456.366H628.37V452.112Z" fill="#F5F5F5" stroke="#555555" stroke-width="0.531722"/>
<rect x="527.343" y="280.898" width="107.94" height="2.12689" fill="#F5F5F5" stroke="#555555" stroke-width="0.531722"/>
<path d="M574.135 446.523V448.39H566.691V446.523H574.135ZM566.691 350.826V348.958H574.135V350.826H566.691Z" fill="#F5F5F5" stroke="#555555" stroke-width="0.531722"/>
<path d="M572.539 327.157H575.198V470.191H572.539V448.39V445.997V351.085V348.692V327.157Z" fill="#F5F5F5" stroke="#555555" stroke-width="0.531722"/>
<path d="M832.286 241.715C832.286 247.738 830.725 253.568 827.879 258.172L824.064 264.344C823.102 265.901 821.685 266.799 820.193 266.799H816.898C814.531 266.799 812.612 264.181 812.612 260.95V247.734C812.612 241.542 814.262 235.561 817.253 230.906L821.034 225.021C821.995 223.524 823.383 222.666 824.841 222.666H828.001C830.367 222.666 832.286 225.285 832.286 228.515V241.715Z" fill="#D9D9D9"/>
<path d="M830.691 233.768L837.604 227.679V224.264L830.691 230.533V233.768Z" fill="#D9D9D9"/>
<path d="M837.604 231.117L830.691 236.936V240.216L837.604 234.172V231.117Z" fill="#D9D9D9"/>
<rect x="835.477" y="210.974" width="13.2931" height="36.1571" fill="#FF00CC"/>
<path d="M723.679 218.667L726.813 221.393L726.061 222.145L722.927 219.419L723.679 218.667Z" fill="#B2B2B2"/>
<path d="M707.036 212.014C713.614 212.014 718.845 214.455 723.678 218.659L722.926 219.411C718.093 215.207 712.862 212.766 706.284 212.766L707.036 212.014Z" fill="#B2B2B2"/>
<path d="M726.813 221.388L721.521 227.773L720.769 228.525L726.061 222.14L726.813 221.388Z" fill="#B2B2B2"/>
<path d="M726.062 222.302C721.275 228.078 721.391 227.938 721.521 227.782L720.769 228.534C720.698 228.619 720.733 228.577 720.769 228.534L720.769 228.534C720.953 228.311 721.852 227.226 725.31 223.054L726.062 222.302Z" fill="#B2B2B2"/>
<path d="M726.062 222.302L720.77 228.688L720.018 229.44L725.31 223.054L726.062 222.302Z" fill="#B2B2B2"/>
<path d="M720.77 228.69C721.632 229.397 722.43 230.251 723.101 231.283L722.349 232.035C721.678 231.003 720.88 230.149 720.018 229.442L720.77 228.69Z" fill="#B2B2B2"/>
<path d="M723.102 231.277C724.421 233.305 725.06 235.717 725.06 238.433L724.308 239.185C724.308 236.469 723.669 234.057 722.35 232.029L723.102 231.277Z" fill="#B2B2B2"/>
<path d="M695.47 215.06C698.896 212.881 703.146 212.014 707.037 212.014L706.285 212.766C702.394 212.766 698.144 213.633 694.718 215.812L695.47 215.06Z" fill="#B2B2B2"/>
<path d="M725.06 238.43C725.06 242.372 723.511 245.5 721.211 247.798L720.464 248.545C722.761 246.247 724.308 243.121 724.308 239.182L725.06 238.43Z" fill="#B2B2B2"/>
<path d="M692.98 217.05C693.733 216.297 694.573 215.634 695.47 215.063L694.718 215.815C693.821 216.386 692.981 217.049 692.228 217.802L692.98 217.05Z" fill="#B2B2B2"/>
<path d="M690.82 219.9C691.409 218.844 692.139 217.898 692.973 217.063L692.227 217.809C691.39 218.645 690.658 219.594 690.068 220.652L690.82 219.9Z" fill="#B2B2B2"/>
<path d="M721.212 247.804C720.409 248.606 719.516 249.306 718.565 249.906L717.813 250.658C718.764 250.058 719.658 249.358 720.46 248.556L721.212 247.804Z" fill="#B2B2B2"/>
<path d="M687.452 216.369C688.7 217.366 689.84 218.54 690.82 219.893L690.068 220.645C689.088 219.292 687.948 218.118 686.7 217.121L687.452 216.369Z" fill="#B2B2B2"/>
<path d="M675.103 212.014C678.828 212.014 683.563 213.26 687.452 216.369L686.7 217.121C682.811 214.012 678.076 212.766 674.351 212.766L675.103 212.014Z" fill="#B2B2B2"/>
<path d="M718.565 249.899C715.039 252.122 710.679 253.028 706.747 253.028L705.995 253.78C709.927 253.78 714.287 252.874 717.813 250.651L718.565 249.899Z" fill="#B2B2B2"/>
<path d="M651.169 199.655C656.688 199.655 660.939 204.359 660.939 209.549L660.187 210.301C660.187 205.111 655.936 200.407 650.417 200.407L651.169 199.655Z" fill="#B2B2B2"/>
<path d="M659.859 218.468C663.67 214.453 669.106 212.014 675.102 212.014L674.35 212.766C668.738 212.766 663.616 214.902 659.859 218.468C659.605 218.736 659.357 219.012 659.117 219.294L658.365 220.046C658.835 219.493 659.334 218.967 659.859 218.468Z" fill="#B2B2B2"/>
<path d="M706.747 253.027C700.872 253.027 694.67 250.995 690.037 246.24L689.285 246.992C693.918 251.747 700.12 253.779 705.995 253.779L706.747 253.027Z" fill="#B2B2B2"/>
<path d="M660.939 209.544C660.939 211.612 660.314 213.58 659.117 215.19L658.365 215.942C659.562 214.332 660.187 212.364 660.187 210.296L660.939 209.544Z" fill="#B2B2B2"/>
<path d="M644.292 202.51C646.041 200.762 648.455 199.655 651.169 199.655L650.417 200.407C647.703 200.407 645.289 201.514 643.54 203.262L644.292 202.51Z" fill="#B2B2B2"/>
<path d="M659.117 215.196V219.299L658.365 220.051V215.948L659.117 215.196Z" fill="#B2B2B2"/>
<path d="M641.399 209.424C641.399 206.779 642.494 204.307 644.29 202.511L643.541 203.26C641.743 205.056 640.647 207.53 640.647 210.176L641.399 209.424Z" fill="#B2B2B2"/>
<path d="M674.688 253.067C680.354 253.067 685.174 250.957 688.927 247.376C689.048 247.25 689.167 247.122 689.286 246.992L690.038 246.24C689.679 246.634 689.309 247.013 688.927 247.376C685.075 251.412 679.988 253.819 673.937 253.819L674.688 253.067Z" fill="#B2B2B2"/>
<path d="M642.77 214.385C641.905 212.985 641.399 211.309 641.399 209.427L640.647 210.178C640.647 212.061 641.153 213.737 642.018 215.137L642.77 214.385Z" fill="#B2B2B2"/>
<path d="M635.181 216.053C637.544 214.975 640.097 214.476 642.77 214.391L642.018 215.143C639.345 215.228 636.792 215.727 634.429 216.805L635.181 216.053Z" fill="#B2B2B2"/>
<path d="M635.181 214.375V216.05L634.429 216.802V215.127L635.181 214.375Z" fill="#B2B2B2"/>
<path d="M674.688 253.072C668.128 253.072 662.713 250.273 659.117 245.99L658.365 246.742C661.961 251.025 667.376 253.824 673.936 253.824L674.688 253.072Z" fill="#B2B2B2"/>
<path d="M619.331 214.393L635.18 214.375L634.428 215.127L618.579 215.145L619.331 214.393Z" fill="#B2B2B2"/>
<path d="M659.117 245.99V253.174L658.365 253.926V246.742L659.117 245.99Z" fill="#B2B2B2"/>
<path d="M643.269 230.409C641.072 230.587 639.023 231.285 637.542 232.297L636.79 233.049C638.271 232.037 640.32 231.339 642.517 231.161L643.269 230.409Z" fill="#B2B2B2"/>
<path d="M637.542 232.286C637.142 232.559 636.798 232.843 636.506 233.135L635.756 233.885C636.047 233.593 636.391 233.311 636.79 233.038L637.542 232.286Z" fill="#B2B2B2"/>
<path d="M643.269 253.176V230.409L642.517 231.161V253.928L643.269 253.176Z" fill="#B2B2B2"/>
<path d="M636.506 233.138C635.581 234.064 635.181 235.074 635.181 236.119L634.429 236.871C634.429 235.826 634.829 234.816 635.754 233.89L636.506 233.138Z" fill="#B2B2B2"/>
<path d="M611.873 216.048C614.197 214.988 616.706 214.488 619.331 214.391L618.579 215.143C615.954 215.24 613.445 215.74 611.121 216.8L611.873 216.048Z" fill="#B2B2B2"/>
<path d="M659.117 253.175H643.269L642.517 253.927H658.365L659.117 253.175Z" fill="#B2B2B2"/>
<path d="M611.873 214.375V216.05L611.121 216.802V215.127L611.873 214.375Z" fill="#B2B2B2"/>
<path d="M635.181 236.124V253.176L634.429 253.928V236.876L635.181 236.124Z" fill="#B2B2B2"/>
<path d="M596.024 214.375H611.873L611.121 215.127H595.272L596.024 214.375Z" fill="#B2B2B2"/>
<path d="M619.331 230.472C617.375 230.721 615.573 231.379 614.234 232.294L613.482 233.046C614.821 232.131 616.623 231.473 618.579 231.224L619.331 230.472Z" fill="#B2B2B2"/>
<path d="M614.235 232.286C613.835 232.559 613.491 232.843 613.199 233.135L612.449 233.885C612.741 233.593 613.084 233.311 613.483 233.038L614.235 232.286Z" fill="#B2B2B2"/>
<path d="M596.024 218.578V214.375L595.272 215.127V219.33L596.024 218.578Z" fill="#B2B2B2"/>
<path d="M613.199 233.138C612.273 234.064 611.873 235.074 611.873 236.119L611.121 236.871C611.121 235.826 611.521 234.816 612.447 233.89L613.199 233.138Z" fill="#B2B2B2"/>
<path d="M619.331 253.176V230.472L618.579 231.224V253.928L619.331 253.176Z" fill="#B2B2B2"/>
<path d="M595.35 217.823C595.582 218.068 595.806 218.319 596.024 218.576L595.272 219.328C595.055 219.071 594.83 218.82 594.598 218.575L595.35 217.823Z" fill="#B2B2B2"/>
<path d="M635.18 253.175H619.331L618.579 253.927H634.428L635.18 253.175Z" fill="#B2B2B2"/>
<path d="M581.37 212.014C586.933 212.014 591.845 214.114 595.35 217.817L594.598 218.569C591.093 214.866 586.181 212.766 580.618 212.766L581.37 212.014Z" fill="#B2B2B2"/>
<path d="M611.873 236.124V253.176L611.121 253.928V236.876L611.873 236.124Z" fill="#B2B2B2"/>
<path d="M566.368 218.232C570.235 214.367 575.637 212.014 581.37 212.014L580.618 212.766C574.885 212.766 569.483 215.118 565.616 218.984L566.368 218.232Z" fill="#B2B2B2"/>
<path d="M611.873 253.175H596.024L595.272 253.927H611.121L611.873 253.175Z" fill="#B2B2B2"/>
<path d="M596.024 253.176V246.545L595.272 247.297V253.928L596.024 253.176Z" fill="#B2B2B2"/>
<path d="M563.067 222.557C563.967 220.974 565.08 219.526 566.36 218.245L565.616 218.989C564.332 220.273 563.217 221.723 562.315 223.309L563.067 222.557Z" fill="#B2B2B2"/>
<path d="M580.956 253.07C586.622 253.07 591.442 250.96 595.195 247.38C595.221 247.352 595.247 247.325 595.273 247.297L596.025 246.545C595.754 246.832 595.478 247.11 595.195 247.38C591.343 251.415 586.256 253.822 580.204 253.822L580.956 253.07Z" fill="#B2B2B2"/>
<path d="M544.92 211.975C552.322 211.975 559.381 216.151 563.067 222.552L562.315 223.304C558.629 216.903 551.57 212.727 544.168 212.727L544.92 211.975Z" fill="#B2B2B2"/>
<path d="M539.968 198.732V212.567L539.216 213.319V199.484L539.968 198.732Z" fill="#B2B2B2"/>
<path d="M524.118 198.732H539.967L539.215 199.484H523.366L524.118 198.732Z" fill="#B2B2B2"/>
<path d="M539.968 212.564C541.547 212.18 543.203 211.975 544.921 211.975L544.169 212.727C542.451 212.727 540.795 212.932 539.216 213.316L539.968 212.564Z" fill="#B2B2B2"/>
<path d="M580.957 253.07C572.766 253.07 566.426 248.651 563.104 242.472L562.352 243.224C565.674 249.403 572.014 253.822 580.205 253.822L580.957 253.07Z" fill="#B2B2B2"/>
<path d="M563.103 242.472C562.184 244.099 561.048 245.585 559.737 246.896L558.992 247.641C560.3 246.332 561.434 244.849 562.351 243.224L563.103 242.472Z" fill="#B2B2B2"/>
<path d="M524.118 219.601V198.732L523.366 199.484V220.352L524.118 219.601Z" fill="#B2B2B2"/>
<path d="M507.081 198.771L524.118 219.6L523.366 220.352L506.329 199.523L507.081 198.771Z" fill="#B2B2B2"/>
<path d="M559.738 246.897C555.929 250.705 550.638 253.031 544.877 253.031L544.125 253.783C549.886 253.783 555.177 251.457 558.986 247.649L559.738 246.897Z" fill="#B2B2B2"/>
<path d="M476.593 198.771H507.082L506.33 199.523H475.841L476.593 198.771Z" fill="#B2B2B2"/>
<path d="M544.876 253.024C537.059 253.024 530.167 248.727 526.631 242.324L525.879 243.076C529.415 249.479 536.307 253.776 544.124 253.776L544.876 253.024Z" fill="#B2B2B2"/>
<path d="M499.446 214.454L492.441 205.917L491.689 206.668L498.694 215.206L499.446 214.454Z" fill="#B2B2B2"/>
<path d="M526.631 242.324C525.695 244.001 524.525 245.538 523.17 246.892L522.425 247.637C523.777 246.284 524.945 244.75 525.879 243.076L526.631 242.324Z" fill="#B2B2B2"/>
<path d="M493.702 218.531C495.368 216.87 497.312 215.485 499.445 214.453L498.693 215.205C496.56 216.237 494.616 217.622 492.95 219.283L493.702 218.531Z" fill="#B2B2B2"/>
<path d="M492.441 205.917V219.906L491.689 220.658V206.668L492.441 205.917Z" fill="#B2B2B2"/>
<path d="M476.593 200.951V198.771L475.841 199.523V201.703L476.593 200.951Z" fill="#B2B2B2"/>
<path d="M471.724 199.655C473.48 199.655 475.147 200.13 476.592 200.956L475.84 201.708C474.395 200.882 472.728 200.407 470.972 200.407L471.724 199.655Z" fill="#B2B2B2"/>
<path d="M493.661 218.568C493.675 218.554 493.689 218.54 493.703 218.527L493.661 218.568C493.236 218.994 492.829 219.439 492.441 219.901L491.689 220.653C492.089 220.176 492.51 219.718 492.951 219.279L493.661 218.568Z" fill="#B2B2B2"/>
<path d="M464.875 202.499C466.635 200.74 469.057 199.655 471.724 199.655L470.972 200.407C468.305 200.407 465.883 201.492 464.123 203.251L464.875 202.499Z" fill="#B2B2B2"/>
<path d="M523.17 246.897C519.361 250.705 514.087 253.073 508.423 253.073L507.671 253.825C513.335 253.825 518.609 251.457 522.418 247.649L523.17 246.897Z" fill="#B2B2B2"/>
<path d="M461.994 209.462C461.994 206.735 463.096 204.272 464.871 202.495L464.122 203.244C462.345 205.021 461.242 207.485 461.242 210.214L461.994 209.462Z" fill="#B2B2B2"/>
<path d="M508.423 253.075C502.118 253.075 496.297 250.14 492.441 245.552L491.689 246.304C495.545 250.892 501.366 253.827 507.671 253.827L508.423 253.075Z" fill="#B2B2B2"/>
<path d="M463.35 214.372C462.5 212.987 461.994 211.332 461.994 209.466L461.242 210.218C461.242 212.084 461.748 213.739 462.598 215.124L463.35 214.372Z" fill="#B2B2B2"/>
<path d="M453.85 214.375H463.35L462.598 215.127H453.098L453.85 214.375Z" fill="#B2B2B2"/>
<path d="M492.441 245.552V253.173L491.689 253.925V246.304L492.441 245.552Z" fill="#B2B2B2"/>
<path d="M450.003 224.194L453.849 214.375L453.097 215.127L449.251 224.946L450.003 224.194Z" fill="#B2B2B2"/>
<path d="M446.18 214.375L450.003 224.194L449.251 224.946L445.428 215.127L446.18 214.375Z" fill="#B2B2B2"/>
<path d="M435.228 214.375H446.18L445.429 215.127H434.476L435.228 214.375Z" fill="#B2B2B2"/>
<path d="M492.441 253.175H463.903L463.151 253.927H491.689L492.441 253.175Z" fill="#B2B2B2"/>
<path d="M463.903 253.17V232.466L463.151 233.218V253.921L463.903 253.17Z" fill="#B2B2B2"/>
<path d="M463.904 232.466L455.848 253.213L455.096 253.965L463.152 233.218L463.904 232.466Z" fill="#B2B2B2"/>
<path d="M431.37 224.22L435.226 214.375L434.474 215.127L430.618 224.972L431.37 224.22Z" fill="#B2B2B2"/>
<path d="M427.515 214.375L431.371 224.22L430.619 224.972L426.763 215.127L427.515 214.375Z" fill="#B2B2B2"/>
<path d="M410.385 214.375H427.514L426.762 215.127H409.633L410.385 214.375Z" fill="#B2B2B2"/>
<path d="M455.848 253.214H444.9L444.148 253.966H455.096L455.848 253.214Z" fill="#B2B2B2"/>
<path d="M444.9 253.213L440.673 242.504L439.921 243.256L444.148 253.965L444.9 253.213Z" fill="#B2B2B2"/>
<path d="M440.673 242.504L436.47 253.213L435.718 253.965L439.921 243.256L440.673 242.504Z" fill="#B2B2B2"/>
<path d="M425.52 253.22L410.385 214.375L409.633 215.127L424.768 253.972L425.52 253.22Z" fill="#B2B2B2"/>
<path d="M436.47 253.214H425.52L424.768 253.966H435.718L436.47 253.214Z" fill="#B2B2B2"/>
<path fill-rule="evenodd" clip-rule="evenodd" d="M689.286 246.994C685.393 251.261 680.178 253.821 673.936 253.821C667.376 253.821 661.962 251.022 658.365 246.739V253.923H642.517V231.157C640.32 231.334 638.271 232.032 636.79 233.045C636.39 233.318 636.046 233.602 635.754 233.894C634.829 234.82 634.428 235.83 634.428 236.875V253.927H618.58V231.222C616.624 231.471 614.821 232.13 613.483 233.045C613.083 233.318 612.739 233.602 612.447 233.894C611.522 234.82 611.122 235.83 611.122 236.875V253.927H595.273V247.296C591.411 251.381 586.297 253.821 580.204 253.821C572.013 253.821 565.674 249.402 562.351 243.224C561.432 244.851 560.296 246.337 558.985 247.647C555.176 251.455 549.886 253.781 544.124 253.781C536.308 253.781 529.415 249.484 525.879 243.081C524.943 244.758 523.773 246.294 522.418 247.649C518.609 251.456 513.335 253.824 507.671 253.824C501.366 253.824 495.545 250.889 491.689 246.302V253.923H463.152V233.219L455.096 253.966H444.148L439.921 243.257L435.718 253.966H424.768L409.633 215.122H426.762L430.619 224.966L434.475 215.122H445.428L449.251 224.941L453.098 215.122H462.598C461.749 213.737 461.242 212.083 461.242 210.216C461.242 207.487 462.345 205.022 464.123 203.246C465.883 201.486 468.304 200.401 470.972 200.401C472.728 200.401 474.395 200.877 475.841 201.702V199.522H506.33L523.367 220.351V199.482H539.215V213.318C540.795 212.933 542.45 212.729 544.168 212.729C551.57 212.729 558.63 216.904 562.316 223.306C563.217 221.719 564.332 220.269 565.616 218.986C569.484 215.121 574.885 212.768 580.618 212.768C586.181 212.768 591.093 214.868 594.598 218.571C594.83 218.816 595.055 219.067 595.273 219.324V215.122H611.122V216.797C613.446 215.737 615.954 215.237 618.58 215.14L634.428 215.122V216.797C636.792 215.719 639.345 215.22 642.018 215.135C641.153 213.734 640.647 212.059 640.647 210.176C640.647 207.531 641.743 205.057 643.541 203.26C645.29 201.512 647.703 200.405 650.417 200.405C655.936 200.405 660.187 205.11 660.187 210.299C660.187 212.367 659.562 214.335 658.365 215.945V220.048C662.193 215.544 667.953 212.768 674.351 212.768C678.076 212.768 682.811 214.014 686.7 217.123C687.948 218.12 689.088 219.294 690.068 220.647C690.658 219.589 691.39 218.641 692.227 217.804C692.981 217.051 693.82 216.388 694.718 215.817C698.143 213.639 702.394 212.772 706.285 212.772C712.863 212.772 718.093 215.213 722.927 219.417L726.062 222.143C726.062 222.143 722.388 226.575 720.769 228.528C720.64 228.684 720.524 228.824 725.311 223.049C720.169 229.252 720.018 229.434 720.018 229.434C720.881 230.141 721.678 230.995 722.35 232.027C723.67 234.054 724.309 236.467 724.309 239.182C724.309 243.124 722.759 246.252 720.459 248.55C719.657 249.352 718.764 250.053 717.813 250.652C714.287 252.875 709.927 253.781 705.995 253.781C700.12 253.781 693.918 251.749 689.286 246.994ZM491.689 220.66C492.089 220.184 492.51 219.725 492.951 219.286C494.616 217.625 496.561 216.24 498.694 215.208L491.689 206.67V220.66Z" fill="#B2B2B2"/>
<path fill-rule="evenodd" clip-rule="evenodd" d="M690.038 246.248C686.145 250.514 680.93 253.074 674.688 253.074C668.128 253.074 662.714 250.275 659.117 245.992V253.176H643.269V230.41C641.072 230.587 639.023 231.285 637.542 232.298C635.873 233.439 635.18 234.753 635.18 236.128V253.18H619.332V230.475C617.376 230.724 615.573 231.383 614.235 232.298C612.566 233.439 611.874 234.753 611.874 236.128V253.18H596.025V246.549C592.163 250.635 587.049 253.074 580.956 253.074C572.765 253.074 566.425 248.655 563.103 242.477C559.514 248.831 552.621 253.034 544.876 253.034C537.06 253.034 530.167 248.738 526.631 242.334C523.064 248.725 516.102 253.078 508.423 253.078C502.118 253.078 496.297 250.143 492.441 245.555V253.176H463.904V232.472L455.848 253.22H444.9L440.673 242.51L436.47 253.22H425.52L410.385 214.375H427.514L431.371 224.219L435.227 214.375H446.18L450.003 224.194L453.85 214.375H463.35C462.5 212.99 461.994 211.336 461.994 209.469C461.994 204.037 466.362 199.654 471.724 199.654C473.48 199.654 475.147 200.13 476.593 200.956V198.775H507.082L524.118 219.604V198.736H539.967V212.571C541.547 212.186 543.202 211.982 544.92 211.982C552.322 211.982 559.382 216.158 563.068 222.559C566.685 216.195 573.734 212.022 581.37 212.022C586.933 212.022 591.845 214.121 595.35 217.824C595.582 218.069 595.807 218.321 596.025 218.577V214.375H611.874V216.05C614.198 214.99 616.706 214.49 619.332 214.393L635.18 214.375V216.05C637.544 214.972 640.097 214.473 642.77 214.388C641.905 212.988 641.399 211.312 641.399 209.429C641.399 204.209 645.667 199.658 651.169 199.658C656.688 199.658 660.939 204.363 660.939 209.552C660.939 211.621 660.314 213.588 659.117 215.198V219.301C662.945 214.797 668.705 212.022 675.103 212.022C678.828 212.022 683.563 213.267 687.452 216.376C688.7 217.374 689.84 218.547 690.82 219.901C691.942 217.889 693.576 216.275 695.47 215.071C698.895 212.892 703.146 212.025 707.037 212.025C713.615 212.025 718.845 214.466 723.679 218.67L726.814 221.396L720.77 228.687C721.633 229.395 722.43 230.248 723.102 231.28C724.422 233.307 725.061 235.72 725.061 238.436C725.061 243.752 722.241 247.588 718.565 249.906C715.039 252.128 710.679 253.034 706.747 253.034C700.872 253.034 694.67 251.002 690.038 246.248ZM492.441 219.913C494.354 217.635 496.749 215.766 499.446 214.461L492.441 205.923V219.913Z" fill="white"/>
<path d="M699.908 227.011C699.908 226.634 700.013 226.273 700.208 225.935C700.987 224.586 703.203 223.618 705.923 223.618C709.324 223.618 713.099 225.294 715.544 227.993L719.982 222.638C715.753 218.96 711.479 217.038 706.132 217.038C701.084 217.038 695.919 218.766 693.698 222.612C692.981 223.854 692.571 225.317 692.571 227.014C692.571 235.56 700.037 236.174 706.132 236.662C709.533 236.907 712.56 237.153 712.56 239.361C712.56 239.785 712.45 240.169 712.251 240.514C711.341 242.092 708.576 242.837 706.091 242.837C702.566 242.837 698.75 241.366 695.972 238.053L691.244 242.999C695.019 247.538 700.491 249.539 705.842 249.539C710.948 249.539 716.414 247.721 718.744 243.689C719.479 242.415 719.902 240.922 719.902 239.195C719.902 231.057 712.355 230.281 706.549 229.71C702.899 229.341 699.916 229.016 699.916 227.011H699.908ZM666.193 229.012C666.34 228.647 666.508 228.301 666.697 227.973C668.053 225.624 670.48 224.268 673.864 224.268C677.72 224.268 680.043 226.107 681.04 229.012H666.193ZM674.197 217.034C668.021 217.034 662.654 220.227 659.811 225.15C658.435 227.532 657.649 230.321 657.649 233.348C657.649 242.056 664.158 249.579 673.783 249.579C679.589 249.579 684.276 246.84 687.593 242.139L682.536 237.93C680.751 240.629 677.518 242.222 673.662 242.222C669.806 242.222 665.658 239.321 665.328 235.068H689.257V232.532C689.257 220.999 679.968 217.034 674.197 217.034ZM646.617 249.681H653.958V219.384H646.617V249.681ZM645.486 207.461C645.016 208.276 644.748 209.212 644.748 210.188C644.748 213.256 647.196 215.464 650.389 215.464C652.523 215.464 654.213 214.495 655.099 212.961C655.538 212.2 655.78 211.3 655.78 210.311C655.78 207.327 653.291 204.671 650.264 204.671C648.204 204.671 646.434 205.82 645.486 207.461ZM544.015 216.995C540.574 216.995 537.462 218.017 534.808 219.773V203.748H527.467V233.309C527.467 242.302 534.889 249.539 543.971 249.539C550.119 249.539 555.545 246.243 558.409 241.284C559.776 238.918 560.56 236.172 560.56 233.225C560.56 224.105 552.621 216.995 544.015 216.995ZM505.901 217.486C500.505 218.025 495.76 221.241 493.16 225.743C491.824 228.057 491.054 230.71 491.054 233.514C491.054 242.262 498.644 249.583 507.518 249.583C513.572 249.583 519.03 246.176 521.886 241.231C523.216 238.929 523.981 236.294 523.981 233.514C523.981 229.793 522.614 226.36 520.415 223.661L504.16 203.788H494.664L505.901 217.486ZM449.084 236.641L442.366 219.388H437.224L430.465 236.641L423.707 219.388H415.702L427.522 249.725H432.664L439.756 231.655L446.889 249.725H452.031L463.811 219.388H455.846L449.088 236.641H449.084ZM580.465 217.034C574.337 217.034 568.794 220.358 565.928 225.319C564.626 227.574 563.877 230.167 563.877 232.94C563.877 241.814 570.386 249.579 580.051 249.579C585.856 249.579 590.544 246.84 593.861 242.139L588.14 237.561C586.479 240.506 583.287 242.222 580.095 242.222C575.946 242.222 571.885 239.321 571.551 235.068H595.562V232.86C595.562 223.688 589.379 217.034 580.465 217.034ZM606.715 226.296V219.388H599.373V249.685H606.715V236.887C606.715 235.383 607.109 234.021 607.803 232.82C609.977 229.052 615.087 226.871 620.151 226.871V219.388H619.403C613.763 219.388 609.658 221.433 606.715 226.296ZM630.021 226.296V219.388H622.68V249.685H630.021V236.887C630.021 235.383 630.416 234.021 631.109 232.82C633.284 229.052 638.394 226.871 643.458 226.871V219.388H642.71C637.069 219.388 632.964 221.433 630.021 226.296ZM479.941 249.681H487.282V203.788H479.941V249.681ZM507.562 242.302C502.504 242.302 498.395 238.295 498.395 233.309C498.395 231.685 498.83 230.16 499.591 228.842C501.165 226.114 504.134 224.272 507.518 224.272C512.535 224.272 516.765 228.279 516.765 233.309C516.765 234.926 516.336 236.434 515.585 237.735C514.002 240.478 510.989 242.302 507.558 242.302H507.562ZM552.039 237.653C550.446 240.415 547.411 242.302 543.975 242.302C538.998 242.302 534.808 238.378 534.808 233.265C534.808 231.579 535.237 230.026 536.001 228.703C537.552 226.014 540.486 224.272 544.015 224.272C549.282 224.272 553.222 228.319 553.222 233.265C553.222 234.852 552.791 236.35 552.039 237.653ZM467.252 249.681H474.594V219.384H467.252V249.681ZM470.819 204.667C468.821 204.667 467.047 205.764 466.09 207.42C465.616 208.241 465.343 209.198 465.343 210.228C465.343 213.335 467.956 215.503 470.819 215.503C472.966 215.503 474.758 214.32 475.701 212.687C476.161 211.891 476.419 210.989 476.419 210.065C476.419 207.243 473.89 204.667 470.819 204.667ZM572.424 229.012C572.569 228.663 572.733 228.331 572.914 228.016C574.285 225.64 576.685 224.268 580.054 224.268C583.87 224.268 586.358 226.107 587.352 229.012H572.424Z" fill="#B2B2B2"/>
<path d="M707.195 215.194C712.543 215.194 716.816 217.116 721.046 220.794L719.982 222.636C715.753 218.958 711.479 217.036 706.132 217.036L707.195 215.194Z" fill="#B2B2B2"/>
<path d="M721.046 220.799L716.607 226.154L715.544 227.996L719.982 222.641L721.046 220.799Z" fill="#B2B2B2"/>
<path d="M716.608 226.152C714.164 223.453 710.389 221.776 706.987 221.776L705.924 223.618C709.325 223.618 713.1 225.295 715.545 227.994L716.608 226.152Z" fill="#B2B2B2"/>
<path d="M694.762 220.767C696.983 216.921 702.147 215.194 707.195 215.194L706.132 217.036C701.084 217.036 695.919 218.763 693.698 222.609L694.762 220.767Z" fill="#B2B2B2"/>
<path d="M706.986 221.776C704.266 221.776 702.05 222.744 701.271 224.093L700.208 225.935C700.987 224.586 703.203 223.618 705.923 223.618L706.986 221.776Z" fill="#B2B2B2"/>
<path d="M701.271 224.098C701.076 224.436 700.972 224.797 700.972 225.174L699.908 227.015C699.908 226.639 700.013 226.278 700.208 225.94L701.271 224.098Z" fill="#B2B2B2"/>
<path d="M700.978 225.177C700.978 227.182 703.962 227.507 707.612 227.876L706.549 229.718C702.898 229.349 699.915 229.024 699.915 227.019L700.978 225.177Z" fill="#B2B2B2"/>
<path d="M707.612 227.874C713.418 228.445 720.964 229.222 720.964 237.359L719.901 239.201C719.901 231.064 712.354 230.287 706.549 229.716L707.612 227.874Z" fill="#B2B2B2"/>
<path d="M700.972 225.177H700.979L699.916 227.019H699.908L700.972 225.177Z" fill="#B2B2B2"/>
<path d="M693.634 225.178C693.634 223.482 694.044 222.019 694.76 220.777L693.698 222.617C692.981 223.86 692.57 225.323 692.57 227.02L693.634 225.178Z" fill="#B2B2B2"/>
<path d="M720.965 237.357C720.965 239.084 720.542 240.578 719.807 241.851L718.745 243.69C719.479 242.418 719.901 240.925 719.901 239.199L720.965 237.357Z" fill="#B2B2B2"/>
<path d="M707.195 234.824C701.1 234.336 693.634 233.722 693.634 225.177L692.57 227.019C692.57 235.564 700.036 236.178 706.131 236.666L707.195 234.824Z" fill="#B2B2B2"/>
<path d="M713.624 237.523C713.624 235.315 710.597 235.07 707.195 234.824L706.132 236.666C709.533 236.912 712.561 237.157 712.561 239.365L713.624 237.523Z" fill="#B2B2B2"/>
<path d="M713.314 238.682C713.513 238.338 713.624 237.953 713.624 237.529L712.56 239.371C712.56 239.795 712.45 240.179 712.251 240.524L713.314 238.682Z" fill="#B2B2B2"/>
<path d="M651.328 202.834C654.356 202.834 656.844 205.49 656.844 208.474L655.781 210.316C655.781 207.331 653.292 204.676 650.265 204.676L651.328 202.834Z" fill="#B2B2B2"/>
<path d="M675.261 215.194C681.031 215.194 690.321 219.158 690.321 230.691L689.257 232.533C689.257 221 679.968 217.036 674.197 217.036L675.261 215.194Z" fill="#B2B2B2"/>
<path d="M646.55 205.624C647.498 203.983 649.268 202.834 651.327 202.834L650.264 204.676C648.204 204.676 646.434 205.825 645.486 207.466L646.55 205.624Z" fill="#B2B2B2"/>
<path d="M707.155 240.993C709.64 240.993 712.404 240.248 713.315 238.671L712.252 240.512C711.341 242.09 708.577 242.835 706.092 242.835L707.155 240.993Z" fill="#B2B2B2"/>
<path d="M656.843 208.47C656.843 209.46 656.601 210.359 656.162 211.12L655.1 212.96C655.538 212.2 655.78 211.301 655.78 210.312L656.843 208.47Z" fill="#B2B2B2"/>
<path d="M719.807 241.852C717.478 245.885 712.011 247.703 706.905 247.703L705.842 249.545C710.948 249.545 716.414 247.727 718.743 243.694L719.807 241.852Z" fill="#B2B2B2"/>
<path d="M682.103 227.177C681.106 224.272 678.782 222.433 674.927 222.433L673.863 224.275C677.719 224.275 680.043 226.114 681.04 229.019L682.103 227.177Z" fill="#B2B2B2"/>
<path d="M697.035 236.216C699.813 239.529 703.629 241 707.155 241L706.091 242.842C702.565 242.842 698.75 241.371 695.972 238.058L697.035 236.216Z" fill="#B2B2B2"/>
<path d="M690.321 230.696V233.233L689.258 235.075V232.538L690.321 230.696Z" fill="#B2B2B2"/>
<path d="M660.875 223.309C663.718 218.386 669.085 215.194 675.261 215.194L674.198 217.036C668.021 217.036 662.655 220.228 659.812 225.151L660.875 223.309Z" fill="#B2B2B2"/>
<path d="M645.811 208.351C645.811 207.376 646.079 206.441 646.549 205.627L645.487 207.466C645.016 208.281 644.748 209.217 644.748 210.193L645.811 208.351Z" fill="#B2B2B2"/>
<path d="M656.162 211.12C655.276 212.654 653.586 213.623 651.452 213.623L650.389 215.465C652.523 215.465 654.213 214.496 655.099 212.962L656.162 211.12Z" fill="#B2B2B2"/>
<path d="M651.452 213.621C648.26 213.621 645.811 211.413 645.811 208.345L644.748 210.187C644.748 213.255 647.196 215.463 650.389 215.463L651.452 213.621Z" fill="#B2B2B2"/>
<path d="M674.927 222.433C671.543 222.433 669.116 223.788 667.76 226.138L666.698 227.977C668.054 225.629 670.481 224.275 673.863 224.275L674.927 222.433Z" fill="#B2B2B2"/>
<path d="M692.308 241.162L697.036 236.216L695.972 238.058L691.244 243.004L692.308 241.162Z" fill="#B2B2B2"/>
<path d="M667.256 227.178H682.103L681.04 229.02H666.192L667.256 227.178Z" fill="#B2B2B2"/>
<path d="M706.906 247.704C701.555 247.704 696.083 245.702 692.308 241.164L691.244 243.006C695.019 247.544 700.491 249.546 705.842 249.546L706.906 247.704Z" fill="#B2B2B2"/>
<path d="M667.76 226.138C667.571 226.466 667.403 226.812 667.256 227.177L666.192 229.019C666.339 228.654 666.508 228.308 666.696 227.98L667.76 226.138Z" fill="#B2B2B2"/>
<path d="M647.681 217.554H655.022L653.958 219.396H646.617L647.681 217.554Z" fill="#B2B2B2"/>
<path d="M690.321 233.229H666.392L665.328 235.071H689.258L690.321 233.229Z" fill="#B2B2B2"/>
<path d="M683.599 236.09L688.656 240.3L687.593 242.142L682.535 237.932L683.599 236.09Z" fill="#B2B2B2"/>
<path d="M643.773 217.554H644.521L643.458 219.396H642.71L643.773 217.554Z" fill="#B2B2B2"/>
<path d="M674.726 240.383C678.581 240.383 681.814 238.789 683.599 236.09L682.535 237.932C680.75 240.631 677.518 242.225 673.662 242.225L674.726 240.383Z" fill="#B2B2B2"/>
<path d="M658.713 231.507C658.713 228.482 659.497 225.696 660.871 223.314L659.811 225.15C658.435 227.533 657.649 230.321 657.649 233.349L658.713 231.507Z" fill="#B2B2B2"/>
<path d="M644.52 217.554V225.038L643.457 226.879V219.396L644.52 217.554Z" fill="#B2B2B2"/>
<path d="M666.392 233.229C666.721 237.482 670.87 240.383 674.726 240.383L673.663 242.225C669.807 242.225 665.658 239.324 665.328 235.071L666.392 233.229Z" fill="#B2B2B2"/>
<path d="M688.657 240.304C685.34 245.005 680.652 247.744 674.847 247.744L673.783 249.586C679.589 249.586 684.276 246.847 687.593 242.146L688.657 240.304Z" fill="#B2B2B2"/>
<path d="M631.085 224.463C634.028 219.6 638.133 217.554 643.774 217.554L642.71 219.396C637.07 219.396 632.965 221.442 630.021 226.305L631.085 224.463Z" fill="#B2B2B2"/>
<path d="M655.021 217.554V247.852L653.958 249.694V219.396L655.021 217.554Z" fill="#B2B2B2"/>
<path d="M674.847 247.74C665.222 247.74 658.713 240.217 658.713 231.509L657.649 233.351C657.649 242.059 664.159 249.582 673.783 249.582L674.847 247.74Z" fill="#B2B2B2"/>
<path d="M623.744 217.554H631.085L630.022 219.396H622.681L623.744 217.554Z" fill="#B2B2B2"/>
<path d="M631.085 217.554V224.463L630.021 226.305V219.396L631.085 217.554Z" fill="#B2B2B2"/>
<path d="M647.681 247.852V217.554L646.617 219.396V249.694L647.681 247.852Z" fill="#B2B2B2"/>
<path d="M620.467 217.554H621.214L620.151 219.396H619.403L620.467 217.554Z" fill="#B2B2B2"/>
<path d="M644.521 225.036C639.457 225.036 634.347 227.218 632.173 230.986L631.111 232.825C633.286 229.059 638.395 226.878 643.458 226.878L644.521 225.036Z" fill="#B2B2B2"/>
<path d="M621.215 217.554V225.038L620.151 226.879V219.396L621.215 217.554Z" fill="#B2B2B2"/>
<path d="M607.778 224.463C610.721 219.6 614.826 217.554 620.467 217.554L619.404 219.396C613.763 219.396 609.658 221.442 606.715 226.305L607.778 224.463Z" fill="#B2B2B2"/>
<path d="M632.173 230.978C631.48 232.178 631.085 233.54 631.085 235.044L630.021 236.886C630.021 235.382 630.416 234.02 631.109 232.819L632.173 230.978Z" fill="#B2B2B2"/>
<path d="M600.436 217.554H607.778L606.714 219.396H599.373L600.436 217.554Z" fill="#B2B2B2"/>
<path d="M607.778 217.554V224.463L606.715 226.305V219.396L607.778 217.554Z" fill="#B2B2B2"/>
<path d="M655.022 247.841H647.681L646.617 249.683H653.958L655.022 247.841Z" fill="#B2B2B2"/>
<path d="M623.744 247.852V217.554L622.681 219.396V249.694L623.744 247.852Z" fill="#B2B2B2"/>
<path d="M621.215 225.036C616.151 225.036 611.041 227.218 608.866 230.986L607.804 232.825C609.98 229.059 615.089 226.878 620.151 226.878L621.215 225.036Z" fill="#B2B2B2"/>
<path d="M631.085 235.043V247.841L630.021 249.683V236.885L631.085 235.043Z" fill="#B2B2B2"/>
<path d="M608.866 230.978C608.173 232.178 607.778 233.54 607.778 235.044L606.715 236.886C606.715 235.382 607.11 234.02 607.803 232.819L608.866 230.978Z" fill="#B2B2B2"/>
<path d="M581.528 215.194C590.442 215.194 596.625 221.847 596.625 231.02L595.562 232.862C595.562 223.689 589.378 217.036 580.465 217.036L581.528 215.194Z" fill="#B2B2B2"/>
<path d="M631.085 247.841H623.744L622.681 249.683H630.022L631.085 247.841Z" fill="#B2B2B2"/>
<path d="M600.436 247.852V217.554L599.373 219.396V249.694L600.436 247.852Z" fill="#B2B2B2"/>
<path d="M588.414 227.177C587.421 224.272 584.933 222.433 581.117 222.433L580.054 224.275C583.869 224.275 586.358 226.114 587.351 229.019L588.414 227.177Z" fill="#B2B2B2"/>
<path d="M596.625 231.024V233.232L595.562 235.074V232.866L596.625 231.024Z" fill="#B2B2B2"/>
<path d="M566.992 223.478C569.858 218.517 575.4 215.194 581.529 215.194L580.465 217.036C574.337 217.036 568.794 220.359 565.929 225.32L566.992 223.478Z" fill="#B2B2B2"/>
<path d="M607.778 235.043V247.841L606.715 249.683V236.885L607.778 235.043Z" fill="#B2B2B2"/>
<path d="M581.118 222.433C577.749 222.433 575.348 223.805 573.978 226.181L572.916 228.019C574.287 225.645 576.687 224.275 580.054 224.275L581.118 222.433Z" fill="#B2B2B2"/>
<path d="M573.487 227.178H588.415L587.352 229.02H572.424L573.487 227.178Z" fill="#B2B2B2"/>
<path d="M528.531 201.911H535.872L534.809 203.753H527.468L528.531 201.911Z" fill="#B2B2B2"/>
<path d="M573.978 226.177C573.796 226.492 573.633 226.825 573.487 227.174L572.424 229.016C572.569 228.667 572.733 228.334 572.914 228.019L573.978 226.177Z" fill="#B2B2B2"/>
<path d="M596.625 233.229H572.614L571.551 235.071H595.561L596.625 233.229Z" fill="#B2B2B2"/>
<path d="M589.203 235.731L594.924 240.309L593.861 242.151L588.14 237.573L589.203 235.731Z" fill="#B2B2B2"/>
<path d="M607.778 247.841H600.436L599.373 249.683H606.714L607.778 247.841Z" fill="#B2B2B2"/>
<path d="M589.203 235.731C589.174 235.783 589.143 235.835 589.113 235.887L588.14 237.573C586.479 240.517 583.287 242.234 580.095 242.234L581.158 240.392C584.294 240.392 587.429 238.736 589.113 235.887L589.203 235.731Z" fill="#B2B2B2"/>
<path d="M564.939 231.101C564.939 228.33 565.688 225.739 566.988 223.486L565.928 225.322C564.625 227.577 563.876 230.17 563.876 232.943L564.939 231.101Z" fill="#B2B2B2"/>
<path d="M535.872 201.911V217.936L534.809 219.778V203.753L535.872 201.911Z" fill="#B2B2B2"/>
<path d="M572.614 233.229C572.948 237.482 577.009 240.383 581.158 240.383L580.094 242.225C575.945 242.225 571.884 239.324 571.551 235.071L572.614 233.229Z" fill="#B2B2B2"/>
<path d="M545.078 215.155C553.684 215.155 561.623 222.265 561.623 231.385L560.559 233.227C560.559 224.107 552.62 216.997 544.015 216.996L545.078 215.155Z" fill="#B2B2B2"/>
<path d="M535.872 217.933C538.526 216.177 541.637 215.155 545.079 215.155L544.015 216.996C540.574 216.996 537.462 218.019 534.809 219.775L535.872 217.933Z" fill="#B2B2B2"/>
<path d="M594.924 240.304C591.608 245.005 586.92 247.744 581.114 247.744L580.051 249.586C585.856 249.586 590.544 246.847 593.861 242.146L594.924 240.304Z" fill="#B2B2B2"/>
<path d="M581.114 247.734C571.449 247.734 564.939 239.969 564.939 231.095L563.876 232.937C563.876 241.811 570.385 249.576 580.05 249.576L581.114 247.734Z" fill="#B2B2B2"/>
<path d="M554.285 231.426C554.285 226.48 550.345 222.433 545.078 222.433L544.015 224.275C549.281 224.275 553.221 228.322 553.221 233.268L554.285 231.426Z" fill="#B2B2B2"/>
<path d="M528.531 231.471V201.911L527.468 203.753V233.313L528.531 231.471Z" fill="#B2B2B2"/>
<path d="M561.623 231.384C561.623 234.331 560.84 237.076 559.473 239.443L558.413 241.279C559.778 238.914 560.56 236.17 560.56 233.226L561.623 231.384Z" fill="#B2B2B2"/>
<path d="M545.079 222.433C541.549 222.433 538.616 224.175 537.064 226.864L536.003 228.703C537.554 226.016 540.487 224.275 544.015 224.275L545.079 222.433Z" fill="#B2B2B2"/>
<path d="M495.728 201.95H505.224L504.16 203.792H494.664L495.728 201.95Z" fill="#B2B2B2"/>
<path d="M553.102 235.819C553.854 234.516 554.285 233.017 554.285 231.431L553.221 233.273C553.221 234.859 552.79 236.358 552.038 237.661L553.102 235.819Z" fill="#B2B2B2"/>
<path d="M505.224 201.95L521.479 221.823L520.415 223.665L504.16 203.792L505.224 201.95Z" fill="#B2B2B2"/>
<path d="M506.965 215.648L495.728 201.95L494.664 203.792L505.901 217.49L506.965 215.648Z" fill="#B2B2B2"/>
<path d="M537.065 226.865C536.301 228.189 535.872 229.741 535.872 231.428L534.809 233.27C534.809 231.583 535.237 230.031 536.001 228.707L537.065 226.865Z" fill="#B2B2B2"/>
<path d="M545.038 240.465C548.472 240.465 551.506 238.579 553.1 235.82L552.039 237.659C550.445 240.42 547.41 242.307 543.975 242.307L545.038 240.465Z" fill="#B2B2B2"/>
<path d="M481.005 201.95H488.346L487.283 203.792H479.941L481.005 201.95Z" fill="#B2B2B2"/>
<path d="M535.872 231.431C535.872 236.544 540.061 240.468 545.039 240.468L543.975 242.31C538.998 242.31 534.809 238.386 534.809 233.273L535.872 231.431Z" fill="#B2B2B2"/>
<path d="M521.478 221.831C523.678 224.53 525.045 227.963 525.045 231.684L523.981 233.526C523.981 229.804 522.614 226.372 520.415 223.673L521.478 221.831Z" fill="#B2B2B2"/>
<path d="M559.473 239.452C556.609 244.411 551.183 247.707 545.035 247.707L543.972 249.549C550.119 249.549 555.545 246.253 558.409 241.294L559.473 239.452Z" fill="#B2B2B2"/>
<path d="M545.035 247.701C535.953 247.701 528.531 240.463 528.531 231.47L527.468 233.312C527.468 242.305 534.89 249.543 543.972 249.543L545.035 247.701Z" fill="#B2B2B2"/>
<path d="M517.828 231.47C517.828 226.44 513.599 222.433 508.581 222.433L507.518 224.275C512.535 224.275 516.765 228.282 516.765 233.312L517.828 231.47Z" fill="#B2B2B2"/>
<path d="M494.224 223.911C496.824 219.41 501.569 216.194 506.965 215.655L505.901 217.497C500.505 218.036 495.76 221.252 493.16 225.753L494.224 223.911Z" fill="#B2B2B2"/>
<path d="M471.882 202.834C474.953 202.834 477.482 205.41 477.482 208.232L476.419 210.074C476.419 207.252 473.89 204.676 470.818 204.676L471.882 202.834Z" fill="#B2B2B2"/>
<path d="M525.044 231.681C525.044 234.461 524.279 237.096 522.949 239.398L521.889 241.234C523.216 238.934 523.981 236.301 523.981 233.523L525.044 231.681Z" fill="#B2B2B2"/>
<path d="M467.153 205.587C468.11 203.931 469.884 202.834 471.882 202.834L470.818 204.676C468.821 204.676 467.046 205.773 466.09 207.429L467.153 205.587Z" fill="#B2B2B2"/>
<path d="M508.581 222.433C505.197 222.433 502.229 224.275 500.654 227.004L499.593 228.842C501.168 226.115 504.136 224.275 507.518 224.275L508.581 222.433Z" fill="#B2B2B2"/>
<path d="M477.482 208.228C477.482 209.152 477.224 210.054 476.765 210.849L475.702 212.689C476.161 211.894 476.419 210.993 476.419 210.07L477.482 208.228Z" fill="#B2B2B2"/>
<path d="M516.648 235.896C517.399 234.595 517.828 233.088 517.828 231.47L516.765 233.312C516.765 234.93 516.336 236.437 515.585 237.738L516.648 235.896Z" fill="#B2B2B2"/>
<path d="M466.406 208.385C466.406 207.357 466.679 206.4 467.152 205.58L466.09 207.42C465.616 208.24 465.343 209.198 465.343 210.227L466.406 208.385Z" fill="#B2B2B2"/>
<path d="M476.765 210.855C475.821 212.488 474.029 213.671 471.882 213.671L470.818 215.513C472.965 215.513 474.758 214.33 475.701 212.697L476.765 210.855Z" fill="#B2B2B2"/>
<path d="M471.882 213.667C469.019 213.667 466.406 211.5 466.406 208.392L465.343 210.234C465.343 213.341 467.956 215.509 470.818 215.509L471.882 213.667Z" fill="#B2B2B2"/>
<path d="M500.654 227.006C499.893 228.324 499.458 229.848 499.458 231.472L498.395 233.314C498.395 231.69 498.83 230.166 499.59 228.848L500.654 227.006Z" fill="#B2B2B2"/>
<path d="M508.621 240.462C512.051 240.462 515.063 238.64 516.646 235.898L515.585 237.737C514.001 240.48 510.989 242.304 507.558 242.304L508.621 240.462Z" fill="#B2B2B2"/>
<path d="M488.346 201.95V247.843L487.282 249.685V203.792L488.346 201.95Z" fill="#B2B2B2"/>
<path d="M492.117 231.682C492.117 228.88 492.886 226.229 494.22 223.916L493.16 225.752C491.823 228.066 491.054 230.72 491.054 233.524L492.117 231.682Z" fill="#B2B2B2"/>
<path d="M499.458 231.47C499.458 236.456 503.567 240.463 508.625 240.463L507.561 242.305C502.503 242.305 498.395 238.298 498.395 233.312L499.458 231.47Z" fill="#B2B2B2"/>
<path d="M468.316 217.554H475.658L474.594 219.396H467.253L468.316 217.554Z" fill="#B2B2B2"/>
<path d="M522.95 239.389C520.093 244.334 514.636 247.741 508.581 247.741L507.518 249.583C513.572 249.583 519.03 246.176 521.886 241.231L522.95 239.389Z" fill="#B2B2B2"/>
<path d="M508.625 240.46H508.621L507.558 242.302H507.561L508.625 240.46Z" fill="#B2B2B2"/>
<path d="M481.005 247.843V201.95L479.941 203.792V249.685L481.005 247.843Z" fill="#B2B2B2"/>
<path d="M508.581 247.749C499.708 247.749 492.117 240.429 492.117 231.681L491.054 233.523C491.054 242.271 498.644 249.591 507.518 249.591L508.581 247.749Z" fill="#B2B2B2"/>
<path d="M456.91 217.554H464.874L463.811 219.396H455.847L456.91 217.554Z" fill="#B2B2B2"/>
<path d="M475.657 217.554V247.852L474.594 249.694V219.396L475.657 217.554Z" fill="#B2B2B2"/>
<path d="M468.316 247.852V217.554L467.253 219.396V249.694L468.316 247.852Z" fill="#B2B2B2"/>
<path d="M438.287 217.554H443.429L442.366 219.396H437.224L438.287 217.554Z" fill="#B2B2B2"/>
<path d="M450.151 234.808L456.91 217.554L455.846 219.396L449.088 236.65L450.151 234.808Z" fill="#B2B2B2"/>
<path d="M464.874 217.554L453.095 247.892L452.031 249.733L463.811 219.396L464.874 217.554Z" fill="#B2B2B2"/>
<path d="M488.346 247.841H481.005L479.941 249.683H487.283L488.346 247.841Z" fill="#B2B2B2"/>
<path d="M443.43 217.554L450.148 234.808L449.084 236.65L442.366 219.396L443.43 217.554Z" fill="#B2B2B2"/>
<path d="M416.766 217.554H424.77L423.707 219.396H415.702L416.766 217.554Z" fill="#B2B2B2"/>
<path d="M450.148 234.801H450.152L449.089 236.642H449.085L450.148 234.801Z" fill="#B2B2B2"/>
<path d="M431.529 234.808L438.288 217.554L437.224 219.396L430.466 236.65L431.529 234.808Z" fill="#B2B2B2"/>
<path d="M475.658 247.841H468.316L467.253 249.683H474.594L475.658 247.841Z" fill="#B2B2B2"/>
<path d="M424.77 217.554L431.529 234.808L430.466 236.65L423.707 219.396L424.77 217.554Z" fill="#B2B2B2"/>
<path d="M447.953 247.883L440.82 229.813L439.757 231.655L446.889 249.725L447.953 247.883Z" fill="#B2B2B2"/>
<path d="M440.821 229.813L433.728 247.883L432.665 249.725L439.757 231.655L440.821 229.813Z" fill="#B2B2B2"/>
<path d="M453.094 247.887H447.952L446.889 249.729H452.031L453.094 247.887Z" fill="#B2B2B2"/>
<path d="M428.586 247.892L416.766 217.554L415.702 219.396L427.522 249.733L428.586 247.892Z" fill="#B2B2B2"/>
<path d="M433.728 247.887H428.586L427.522 249.729H432.665L433.728 247.887Z" fill="#B2B2B2"/>
<path d="M700.972 225.175C700.972 223.296 703.585 221.782 706.986 221.782C710.388 221.782 714.163 223.459 716.607 226.158L721.046 220.803C716.816 217.125 712.543 215.202 707.195 215.202C700.517 215.202 693.634 218.227 693.634 225.179C693.634 233.724 701.1 234.338 707.195 234.826C710.596 235.072 713.624 235.318 713.624 237.525C713.624 239.896 710.182 241.001 707.155 241.001C703.629 241.001 699.814 239.531 697.035 236.217L692.307 241.164C696.082 245.702 701.555 247.704 706.906 247.704C713.624 247.704 720.965 244.557 720.965 237.359C720.965 229.222 713.419 228.445 707.613 227.874C703.962 227.506 700.979 227.18 700.979 225.175H700.972ZM667.256 227.177C668.458 224.192 671.072 222.433 674.927 222.433C678.783 222.433 681.107 224.272 682.104 227.177H667.256ZM675.261 215.199C666.094 215.199 658.713 222.23 658.713 231.513C658.713 240.221 665.222 247.744 674.847 247.744C680.652 247.744 685.34 245.005 688.657 240.304L683.599 236.094C681.814 238.794 678.581 240.387 674.726 240.387C670.87 240.387 666.721 237.486 666.391 233.233H690.321V230.696C690.321 219.163 681.031 215.199 675.261 215.199ZM647.681 247.846H655.022V217.549H647.681V247.846ZM645.811 208.353C645.811 211.42 648.26 213.628 651.452 213.628C654.644 213.628 656.843 211.46 656.843 208.476C656.843 205.491 654.355 202.835 651.327 202.835C648.245 202.835 645.811 205.41 645.811 208.353ZM545.079 215.159C541.637 215.159 538.525 216.182 535.872 217.938V201.913H528.53V231.473C528.53 240.466 535.952 247.704 545.035 247.704C554.117 247.704 561.623 240.51 561.623 231.39C561.623 222.27 553.684 215.159 545.079 215.159ZM506.965 215.651C498.795 216.467 492.117 223.419 492.117 231.679C492.117 240.427 499.708 247.747 508.581 247.747C517.454 247.747 525.045 240.43 525.045 231.679C525.045 227.957 523.678 224.525 521.479 221.826L505.224 201.953H495.727L506.965 215.651ZM450.148 234.806L443.43 217.552H438.287L431.529 234.806L424.77 217.552H416.766L428.586 247.889H433.728L440.82 229.819L447.952 247.889H453.095L464.874 217.552H456.91L450.151 234.806H450.148ZM581.528 215.199C572.615 215.199 564.94 222.23 564.94 231.104C564.94 239.979 571.449 247.744 581.114 247.744C586.92 247.744 591.608 245.005 594.925 240.304L589.203 235.726C587.543 238.671 584.351 240.387 581.158 240.387C577.009 240.387 572.948 237.486 572.615 233.233H596.625V231.025C596.625 221.852 590.442 215.199 581.528 215.199ZM607.778 224.461V217.552H600.437V247.849H607.778V235.051C607.778 228.829 614.537 225.035 621.215 225.035V217.552H620.467C614.826 217.552 610.721 219.597 607.778 224.461ZM631.085 224.461V217.552H623.744V247.849H631.085V235.051C631.085 228.829 637.843 225.035 644.521 225.035V217.552H643.774C638.133 217.552 634.028 219.597 631.085 224.461ZM481.005 247.846H488.346V201.953H481.005V247.846ZM508.625 240.466C503.567 240.466 499.459 236.459 499.459 231.473C499.459 226.487 503.564 222.436 508.581 222.436C513.599 222.436 517.828 226.443 517.828 231.473C517.828 236.503 513.679 240.466 508.621 240.466H508.625ZM545.038 240.466C540.061 240.466 535.872 236.542 535.872 231.43C535.872 226.317 539.812 222.436 545.079 222.436C550.345 222.436 554.285 226.483 554.285 231.43C554.285 236.376 550.096 240.466 545.038 240.466ZM468.316 247.846H475.657V217.549H468.316V247.846ZM471.882 202.832C468.895 202.832 466.406 205.285 466.406 208.393C466.406 211.5 469.02 213.668 471.882 213.668C475.074 213.668 477.482 211.052 477.482 208.23C477.482 205.408 474.953 202.832 471.882 202.832ZM573.487 227.177C574.73 224.192 577.303 222.433 581.118 222.433C584.933 222.433 587.422 224.272 588.415 227.177H573.487Z" fill="#FF00CC"/>
<g filter="url(#filter0_d_3110_12164)">
<rect x="474.969" y="334.864" width="32.1586" height="32.1586" rx="13.0061" fill="#FF00CC"/>
</g>
<path fill-rule="evenodd" clip-rule="evenodd" d="M497.69 351.586C496.396 351.586 495.308 350.547 495.308 349.194C495.308 347.842 496.332 346.814 497.7 346.814C499.069 346.814 500.093 347.885 500.093 349.194C500.093 350.503 499.004 351.586 497.69 351.586ZM488.772 349.757L487.026 345.191H485.689L483.933 349.757L482.176 345.191H480.096L483.167 353.219H484.503L486.346 348.437L488.2 353.219H489.536L492.597 345.191H490.528L488.771 349.757H488.772ZM497.7 344.888C496.806 344.888 495.997 345.159 495.308 345.624V341.383H493.4V349.205C493.4 351.586 495.33 353.501 497.69 353.501C500.05 353.501 502.001 351.596 502.001 349.184C502.001 346.771 500.093 344.888 497.701 344.888L497.7 344.888Z" fill="white"/>
<rect x="484.928" y="356.66" width="12.4511" height="1.77873" fill="white"/>
<rect x="261.749" y="210.956" width="36.3632" height="36.3632" rx="14.5798" fill="#FF00CC"/>
<path fill-rule="evenodd" clip-rule="evenodd" d="M287.407 233.018C285.951 233.018 284.726 231.836 284.726 230.296C284.726 228.756 285.879 227.587 287.419 227.587C288.96 227.587 290.113 228.806 290.113 230.296C290.113 231.786 288.887 233.018 287.407 233.018ZM277.368 230.937L275.402 225.739H273.898L271.92 230.937L269.942 225.739H267.601L271.058 234.877H272.563L274.637 229.434L276.724 234.877H278.229L281.674 225.739H279.345L277.367 230.937H277.368ZM287.419 225.395C286.412 225.395 285.502 225.702 284.726 226.232V221.405H282.579V230.308C282.579 233.018 284.751 235.197 287.408 235.197C290.065 235.197 292.261 233.03 292.261 230.284C292.261 227.537 290.113 225.394 287.42 225.394L287.419 225.395Z" fill="white"/>
<rect x="298.112" y="225.176" width="12.539" height="2.08984" fill="#FF00CC"/>
<rect x="298.112" y="231.446" width="12.539" height="2.08984" fill="#FF00CC"/>
<rect x="308.541" y="218.945" width="2.12689" height="20.2054" fill="#FF00CC"/>
<path d="M30.6045 211.501V209.72H31.0732C31.7399 209.72 32.2581 209.506 32.6279 209.079C32.9977 208.652 33.2633 207.962 33.4248 207.009C33.5915 206.056 33.7035 204.793 33.7607 203.22L34.042 195.501H43.792V211.501H41.8545V197.22H35.8857L35.6357 203.595C35.5732 205.272 35.4196 206.699 35.1748 207.876C34.93 209.053 34.5003 209.951 33.8857 210.571C33.2712 211.191 32.3753 211.501 31.1982 211.501H30.6045ZM49.2568 208.782L55.0381 199.501H57.1631V211.501H55.3193V202.22L49.5693 211.501H47.4131V199.501H49.2568V208.782ZM68.5713 204.657V206.376H61.9463V204.657H68.5713ZM62.3838 199.501V211.501H60.54V199.501H62.3838ZM69.9775 199.501V211.501H68.1338V199.501H69.9775ZM75.1885 208.782L80.9697 199.501H83.0947V211.501H81.251V202.22L75.501 211.501H73.3447V199.501H75.1885V208.782ZM93.6904 211.501V201.188H90.5029C89.7842 201.188 89.2191 201.355 88.8076 201.688C88.3962 202.022 88.1904 202.48 88.1904 203.063C88.1904 203.636 88.3753 204.087 88.7451 204.415C89.1201 204.743 89.6331 204.907 90.2842 204.907H94.1592V206.626H90.2842C89.4717 206.626 88.7712 206.483 88.1826 206.196C87.5941 205.91 87.141 205.501 86.8232 204.97C86.5055 204.433 86.3467 203.798 86.3467 203.063C86.3467 202.324 86.5133 201.688 86.8467 201.157C87.18 200.626 87.6566 200.217 88.2764 199.931C88.9014 199.644 89.6436 199.501 90.5029 199.501H95.4404V211.501H93.6904ZM85.6904 211.501L89.0967 205.532H91.0967L87.6904 211.501H85.6904ZM31.7295 235.501V223.501H41.167V235.501H39.3232V225.22H33.5732V235.501H31.7295ZM49.5654 235.751C48.4092 235.751 47.4118 235.496 46.5732 234.985C45.7399 234.47 45.0967 233.751 44.6436 232.829C44.1956 231.902 43.9717 230.824 43.9717 229.595C43.9717 228.366 44.1956 227.282 44.6436 226.345C45.0967 225.402 45.7269 224.668 46.5342 224.142C47.3467 223.61 48.2946 223.345 49.3779 223.345C50.0029 223.345 50.6201 223.449 51.2295 223.657C51.8389 223.866 52.3936 224.204 52.8936 224.673C53.3936 225.136 53.792 225.751 54.0889 226.517C54.3857 227.282 54.5342 228.225 54.5342 229.345V230.126H45.2842V228.532H52.6592C52.6592 227.855 52.5238 227.251 52.2529 226.72C51.9873 226.188 51.6071 225.769 51.1123 225.462C50.6227 225.155 50.0446 225.001 49.3779 225.001C48.6436 225.001 48.0081 225.183 47.4717 225.548C46.9404 225.907 46.5316 226.376 46.2451 226.954C45.9587 227.532 45.8154 228.152 45.8154 228.813V229.876C45.8154 230.782 45.9717 231.55 46.2842 232.181C46.6019 232.806 47.042 233.282 47.6045 233.61C48.167 233.933 48.8206 234.095 49.5654 234.095C50.0498 234.095 50.4873 234.027 50.8779 233.892C51.2738 233.751 51.6149 233.543 51.9014 233.267C52.1878 232.985 52.4092 232.636 52.5654 232.22L54.3467 232.72C54.1592 233.324 53.8441 233.855 53.4014 234.313C52.9587 234.767 52.4118 235.121 51.7607 235.376C51.1097 235.626 50.3779 235.751 49.5654 235.751ZM57.3389 240.001V223.501H59.1201V225.407H59.3389C59.4743 225.199 59.6618 224.933 59.9014 224.61C60.1462 224.282 60.4951 223.991 60.9482 223.735C61.4066 223.475 62.0264 223.345 62.8076 223.345C63.818 223.345 64.7087 223.597 65.4795 224.103C66.2503 224.608 66.8519 225.324 67.2842 226.251C67.7165 227.178 67.9326 228.272 67.9326 229.532C67.9326 230.803 67.7165 231.905 67.2842 232.837C66.8519 233.764 66.2529 234.483 65.4873 234.993C64.7217 235.498 63.8389 235.751 62.8389 235.751C62.068 235.751 61.4508 235.623 60.9873 235.368C60.5238 235.108 60.167 234.813 59.917 234.485C59.667 234.152 59.4743 233.876 59.3389 233.657H59.1826V240.001H57.3389ZM59.1514 229.501C59.1514 230.407 59.2842 231.207 59.5498 231.899C59.8154 232.587 60.2035 233.126 60.7139 233.517C61.2243 233.902 61.8493 234.095 62.5889 234.095C63.3597 234.095 64.0029 233.892 64.5186 233.485C65.0394 233.074 65.43 232.522 65.6904 231.829C65.9561 231.131 66.0889 230.355 66.0889 229.501C66.0889 228.657 65.9587 227.897 65.6982 227.22C65.443 226.537 65.055 225.998 64.5342 225.603C64.0186 225.201 63.3701 225.001 62.5889 225.001C61.8389 225.001 61.2087 225.191 60.6982 225.571C60.1878 225.946 59.8024 226.472 59.542 227.149C59.2816 227.821 59.1514 228.605 59.1514 229.501ZM75.7764 235.751C74.6201 235.751 73.6227 235.496 72.7842 234.985C71.9508 234.47 71.3076 233.751 70.8545 232.829C70.4066 231.902 70.1826 230.824 70.1826 229.595C70.1826 228.366 70.4066 227.282 70.8545 226.345C71.3076 225.402 71.9378 224.668 72.7451 224.142C73.5576 223.61 74.5055 223.345 75.5889 223.345C76.2139 223.345 76.8311 223.449 77.4404 223.657C78.0498 223.866 78.6045 224.204 79.1045 224.673C79.6045 225.136 80.0029 225.751 80.2998 226.517C80.5967 227.282 80.7451 228.225 80.7451 229.345V230.126H71.4951V228.532H78.8701C78.8701 227.855 78.7347 227.251 78.4639 226.72C78.1982 226.188 77.818 225.769 77.3232 225.462C76.8337 225.155 76.2555 225.001 75.5889 225.001C74.8545 225.001 74.2191 225.183 73.6826 225.548C73.1514 225.907 72.7425 226.376 72.4561 226.954C72.1696 227.532 72.0264 228.152 72.0264 228.813V229.876C72.0264 230.782 72.1826 231.55 72.4951 232.181C72.8128 232.806 73.2529 233.282 73.8154 233.61C74.3779 233.933 75.0316 234.095 75.7764 234.095C76.2607 234.095 76.6982 234.027 77.0889 233.892C77.4847 233.751 77.8258 233.543 78.1123 233.267C78.3988 232.985 78.6201 232.636 78.7764 232.22L80.5576 232.72C80.3701 233.324 80.055 233.855 79.6123 234.313C79.1696 234.767 78.6227 235.121 77.9717 235.376C77.3206 235.626 76.5889 235.751 75.7764 235.751ZM83.5498 235.501V223.501H85.3936V228.72H86.6123L90.9248 223.501H93.2998L88.4561 229.282L93.3623 235.501H90.9873L87.0498 230.438H85.3936V235.501H83.5498ZM95.3662 240.001V223.501H97.1475V225.407H97.3662C97.5016 225.199 97.6891 224.933 97.9287 224.61C98.1735 224.282 98.5225 223.991 98.9756 223.735C99.4339 223.475 100.054 223.345 100.835 223.345C101.845 223.345 102.736 223.597 103.507 224.103C104.278 224.608 104.879 225.324 105.312 226.251C105.744 227.178 105.96 228.272 105.96 229.532C105.96 230.803 105.744 231.905 105.312 232.837C104.879 233.764 104.28 234.483 103.515 234.993C102.749 235.498 101.866 235.751 100.866 235.751C100.095 235.751 99.4782 235.623 99.0146 235.368C98.5511 235.108 98.1943 234.813 97.9443 234.485C97.6943 234.152 97.5016 233.876 97.3662 233.657H97.21V240.001H95.3662ZM97.1787 229.501C97.1787 230.407 97.3115 231.207 97.5771 231.899C97.8428 232.587 98.2308 233.126 98.7412 233.517C99.2516 233.902 99.8766 234.095 100.616 234.095C101.387 234.095 102.03 233.892 102.546 233.485C103.067 233.074 103.457 232.522 103.718 231.829C103.983 231.131 104.116 230.355 104.116 229.501C104.116 228.657 103.986 227.897 103.726 227.22C103.47 226.537 103.082 225.998 102.562 225.603C102.046 225.201 101.397 225.001 100.616 225.001C99.8662 225.001 99.236 225.191 98.7256 225.571C98.2152 225.946 97.8298 226.472 97.5693 227.149C97.3089 227.821 97.1787 228.605 97.1787 229.501ZM110.366 227.845H113.804C115.21 227.845 116.285 228.201 117.03 228.915C117.775 229.629 118.147 230.532 118.147 231.626C118.147 232.345 117.981 232.998 117.647 233.587C117.314 234.17 116.825 234.636 116.179 234.985C115.533 235.329 114.741 235.501 113.804 235.501H108.772V223.501H110.616V233.782H113.804C114.533 233.782 115.132 233.59 115.601 233.204C116.069 232.819 116.304 232.324 116.304 231.72C116.304 231.084 116.069 230.566 115.601 230.165C115.132 229.764 114.533 229.563 113.804 229.563H110.366V227.845ZM120.054 235.501V223.501H121.897V235.501H120.054ZM124.585 225.22V223.501H134.335V225.22H130.397V235.501H128.554V225.22H124.585ZM138.868 232.782L144.649 223.501H146.774V235.501H144.931V226.22L139.181 235.501H137.024V223.501H138.868V232.782ZM157.37 235.501V225.188H154.183C153.464 225.188 152.899 225.355 152.487 225.688C152.076 226.022 151.87 226.48 151.87 227.063C151.87 227.636 152.055 228.087 152.425 228.415C152.8 228.743 153.313 228.907 153.964 228.907H157.839V230.626H153.964C153.151 230.626 152.451 230.483 151.862 230.196C151.274 229.91 150.821 229.501 150.503 228.97C150.185 228.433 150.026 227.798 150.026 227.063C150.026 226.324 150.193 225.688 150.526 225.157C150.86 224.626 151.336 224.217 151.956 223.931C152.581 223.644 153.323 223.501 154.183 223.501H159.12V235.501H157.37ZM149.37 235.501L152.776 229.532H154.776L151.37 235.501H149.37Z" fill="black"/>
<path d="M899.176 230.649C899.729 230.649 900.176 230.202 900.176 229.649C900.176 229.097 899.729 228.649 899.176 228.649L899.176 230.649ZM175.215 229.649C175.215 232.595 177.602 234.983 180.548 234.983C183.493 234.983 185.881 232.595 185.881 229.649C185.881 226.704 183.493 224.316 180.548 224.316C177.602 224.316 175.215 226.704 175.215 229.649ZM186.536 230.649C187.089 230.649 187.536 230.202 187.536 229.649C187.536 229.097 187.089 228.649 186.536 228.649L186.536 230.649ZM198.514 228.649C197.961 228.649 197.514 229.097 197.514 229.649C197.514 230.202 197.961 230.649 198.514 230.649L198.514 228.649ZM210.491 230.649C211.043 230.649 211.491 230.202 211.491 229.649C211.491 229.097 211.043 228.649 210.491 228.649L210.491 230.649ZM222.468 228.649C221.916 228.649 221.468 229.097 221.468 229.649C221.468 230.202 221.916 230.649 222.468 230.649L222.468 228.649ZM234.445 230.649C234.997 230.649 235.445 230.202 235.445 229.649C235.445 229.097 234.997 228.649 234.445 228.649L234.445 230.649ZM246.422 228.649C245.87 228.649 245.422 229.097 245.422 229.649C245.422 230.202 245.87 230.649 246.422 230.649L246.422 228.649ZM258.399 230.649C258.952 230.649 259.399 230.202 259.399 229.649C259.399 229.097 258.952 228.649 258.399 228.649L258.399 230.649ZM270.376 228.649C269.824 228.649 269.376 229.097 269.376 229.649C269.376 230.202 269.824 230.649 270.376 230.649L270.376 228.649ZM282.354 230.649C282.906 230.649 283.354 230.202 283.354 229.649C283.354 229.097 282.906 228.649 282.354 228.649L282.354 230.649ZM294.331 228.649C293.778 228.649 293.331 229.097 293.331 229.649C293.331 230.202 293.778 230.649 294.331 230.649L294.331 228.649ZM306.308 230.649C306.86 230.649 307.308 230.202 307.308 229.649C307.308 229.097 306.86 228.649 306.308 228.649L306.308 230.649ZM318.285 228.649C317.733 228.649 317.285 229.097 317.285 229.649C317.285 230.202 317.733 230.649 318.285 230.649L318.285 228.649ZM330.262 230.649C330.814 230.649 331.262 230.202 331.262 229.649C331.262 229.097 330.814 228.649 330.262 228.649L330.262 230.649ZM342.239 228.649C341.687 228.649 341.239 229.097 341.239 229.649C341.239 230.202 341.687 230.649 342.239 230.649L342.239 228.649ZM354.216 230.649C354.769 230.649 355.216 230.202 355.216 229.649C355.216 229.097 354.769 228.649 354.216 228.649L354.216 230.649ZM366.194 228.649C365.641 228.649 365.194 229.097 365.194 229.649C365.194 230.202 365.641 230.649 366.194 230.649L366.194 228.649ZM378.171 230.649C378.723 230.649 379.171 230.202 379.171 229.649C379.171 229.097 378.723 228.649 378.171 228.649L378.171 230.649ZM390.148 228.649C389.596 228.649 389.148 229.097 389.148 229.649C389.148 230.202 389.596 230.649 390.148 230.649L390.148 228.649ZM402.125 230.649C402.677 230.649 403.125 230.202 403.125 229.649C403.125 229.097 402.677 228.649 402.125 228.649L402.125 230.649ZM414.102 228.649C413.55 228.649 413.102 229.097 413.102 229.649C413.102 230.202 413.55 230.649 414.102 230.649L414.102 228.649ZM426.079 230.649C426.632 230.649 427.079 230.202 427.079 229.649C427.079 229.097 426.632 228.649 426.079 228.649L426.079 230.649ZM438.056 228.649C437.504 228.649 437.056 229.097 437.056 229.649C437.056 230.202 437.504 230.649 438.056 230.649L438.056 228.649ZM450.034 230.649C450.586 230.649 451.034 230.202 451.034 229.649C451.034 229.097 450.586 228.649 450.034 228.649L450.034 230.649ZM462.011 228.649C461.458 228.649 461.011 229.097 461.011 229.649C461.011 230.202 461.458 230.649 462.011 230.649L462.011 228.649ZM473.988 230.649C474.54 230.649 474.988 230.202 474.988 229.649C474.988 229.097 474.54 228.649 473.988 228.649L473.988 230.649ZM485.965 228.649C485.413 228.649 484.965 229.097 484.965 229.649C484.965 230.202 485.413 230.649 485.965 230.649L485.965 228.649ZM497.942 230.649C498.494 230.649 498.942 230.202 498.942 229.649C498.942 229.097 498.494 228.649 497.942 228.649L497.942 230.649ZM509.919 228.649C509.367 228.649 508.919 229.097 508.919 229.649C508.919 230.202 509.367 230.649 509.919 230.649L509.919 228.649ZM521.896 230.649C522.449 230.649 522.896 230.202 522.896 229.649C522.896 229.097 522.449 228.649 521.896 228.649L521.896 230.649ZM533.874 228.649C533.321 228.649 532.874 229.097 532.874 229.649C532.874 230.202 533.321 230.649 533.874 230.649L533.874 228.649ZM545.851 230.649C546.403 230.649 546.851 230.202 546.851 229.649C546.851 229.097 546.403 228.649 545.851 228.649L545.851 230.649ZM557.828 228.649C557.276 228.649 556.828 229.097 556.828 229.649C556.828 230.202 557.276 230.649 557.828 230.649L557.828 228.649ZM569.805 230.649C570.357 230.649 570.805 230.202 570.805 229.649C570.805 229.097 570.357 228.649 569.805 228.649L569.805 230.649ZM581.782 228.649C581.23 228.649 580.782 229.097 580.782 229.649C580.782 230.202 581.23 230.649 581.782 230.649L581.782 228.649ZM593.759 230.649C594.312 230.649 594.759 230.202 594.759 229.649C594.759 229.097 594.312 228.649 593.759 228.649L593.759 230.649ZM605.736 228.649C605.184 228.649 604.736 229.097 604.736 229.649C604.736 230.202 605.184 230.649 605.736 230.649L605.736 228.649ZM617.714 230.649C618.266 230.649 618.714 230.202 618.714 229.649C618.714 229.097 618.266 228.649 617.714 228.649L617.714 230.649ZM629.691 228.649C629.138 228.649 628.691 229.097 628.691 229.649C628.691 230.202 629.138 230.649 629.691 230.649L629.691 228.649ZM641.668 230.649C642.22 230.649 642.668 230.202 642.668 229.649C642.668 229.097 642.22 228.649 641.668 228.649L641.668 230.649ZM653.645 228.649C653.093 228.649 652.645 229.097 652.645 229.649C652.645 230.202 653.093 230.649 653.645 230.649L653.645 228.649ZM665.622 230.649C666.174 230.649 666.622 230.202 666.622 229.649C666.622 229.097 666.174 228.649 665.622 228.649L665.622 230.649ZM677.599 228.649C677.047 228.649 676.599 229.097 676.599 229.649C676.599 230.202 677.047 230.649 677.599 230.649L677.599 228.649ZM689.576 230.649C690.129 230.649 690.576 230.202 690.576 229.649C690.576 229.097 690.129 228.649 689.576 228.649L689.576 230.649ZM701.554 228.649C701.001 228.649 700.554 229.097 700.554 229.649C700.554 230.202 701.001 230.649 701.554 230.649L701.554 228.649ZM713.531 230.649C714.083 230.649 714.531 230.202 714.531 229.649C714.531 229.097 714.083 228.649 713.531 228.649L713.531 230.649ZM725.508 228.649C724.956 228.649 724.508 229.097 724.508 229.649C724.508 230.202 724.956 230.649 725.508 230.649L725.508 228.649ZM737.485 230.649C738.037 230.649 738.485 230.202 738.485 229.649C738.485 229.097 738.037 228.649 737.485 228.649L737.485 230.649ZM749.462 228.649C748.91 228.649 748.462 229.097 748.462 229.649C748.462 230.202 748.91 230.649 749.462 230.649L749.462 228.649ZM761.439 230.649C761.991 230.649 762.439 230.202 762.439 229.649C762.439 229.097 761.991 228.649 761.439 228.649L761.439 230.649ZM773.416 228.649C772.864 228.649 772.416 229.097 772.416 229.649C772.416 230.202 772.864 230.649 773.416 230.649L773.416 228.649ZM785.393 230.649C785.946 230.649 786.393 230.202 786.393 229.649C786.393 229.097 785.946 228.649 785.393 228.649L785.393 230.649ZM797.37 228.649C796.818 228.649 796.37 229.097 796.37 229.649C796.37 230.202 796.818 230.649 797.37 230.649L797.37 228.649ZM809.348 230.649C809.9 230.649 810.348 230.202 810.348 229.649C810.348 229.097 809.9 228.649 809.348 228.649L809.348 230.649ZM821.325 228.649C820.772 228.649 820.325 229.097 820.325 229.649C820.325 230.202 820.772 230.649 821.325 230.649L821.325 228.649ZM833.302 230.649C833.854 230.649 834.302 230.202 834.302 229.649C834.302 229.097 833.854 228.649 833.302 228.649L833.302 230.649ZM845.279 228.649C844.727 228.649 844.279 229.097 844.279 229.649C844.279 230.202 844.727 230.649 845.279 230.649L845.279 228.649ZM857.256 230.649C857.808 230.649 858.256 230.202 858.256 229.649C858.256 229.097 857.808 228.649 857.256 228.649L857.256 230.649ZM869.233 228.649C868.681 228.649 868.233 229.097 868.233 229.649C868.233 230.202 868.681 230.649 869.233 230.649L869.233 228.649ZM881.21 230.649C881.762 230.649 882.21 230.202 882.21 229.649C882.21 229.097 881.762 228.649 881.21 228.649L881.21 230.649ZM893.187 228.649C892.635 228.649 892.187 229.097 892.187 229.649C892.187 230.202 892.635 230.649 893.187 230.649L893.187 228.649ZM180.548 230.649L186.536 230.649L186.536 228.649L180.548 228.649L180.548 230.649ZM198.514 230.649L210.491 230.649L210.491 228.649L198.514 228.649L198.514 230.649ZM222.468 230.649L234.445 230.649L234.445 228.649L222.468 228.649L222.468 230.649ZM246.422 230.649L258.399 230.649L258.399 228.649L246.422 228.649L246.422 230.649ZM270.376 230.649L282.354 230.649L282.354 228.649L270.376 228.649L270.376 230.649ZM294.331 230.649L306.308 230.649L306.308 228.649L294.331 228.649L294.331 230.649ZM318.285 230.649L330.262 230.649L330.262 228.649L318.285 228.649L318.285 230.649ZM342.239 230.649L354.216 230.649L354.216 228.649L342.239 228.649L342.239 230.649ZM366.194 230.649L378.171 230.649L378.171 228.649L366.194 228.649L366.194 230.649ZM390.148 230.649L402.125 230.649L402.125 228.649L390.148 228.649L390.148 230.649ZM414.102 230.649L426.079 230.649L426.079 228.649L414.102 228.649L414.102 230.649ZM438.056 230.649L450.034 230.649L450.034 228.649L438.056 228.649L438.056 230.649ZM462.011 230.649L473.988 230.649L473.988 228.649L462.011 228.649L462.011 230.649ZM485.965 230.649L497.942 230.649L497.942 228.649L485.965 228.649L485.965 230.649ZM509.919 230.649L521.896 230.649L521.896 228.649L509.919 228.649L509.919 230.649ZM533.874 230.649L545.851 230.649L545.851 228.649L533.874 228.649L533.874 230.649ZM557.828 230.649L569.805 230.649L569.805 228.649L557.828 228.649L557.828 230.649ZM581.782 230.649L593.759 230.649L593.759 228.649L581.782 228.649L581.782 230.649ZM605.736 230.649L617.714 230.649L617.714 228.649L605.736 228.649L605.736 230.649ZM629.691 230.649L641.668 230.649L641.668 228.649L629.691 228.649L629.691 230.649ZM653.645 230.649L665.622 230.649L665.622 228.649L653.645 228.649L653.645 230.649ZM677.599 230.649L689.576 230.649L689.576 228.649L677.599 228.649L677.599 230.649ZM701.554 230.649L713.531 230.649L713.531 228.649L701.554 228.649L701.554 230.649ZM725.508 230.649L737.485 230.649L737.485 228.649L725.508 228.649L725.508 230.649ZM749.462 230.649L761.439 230.649L761.439 228.649L749.462 228.649L749.462 230.649ZM773.416 230.649L785.393 230.649L785.393 228.649L773.416 228.649L773.416 230.649ZM797.37 230.649L809.348 230.649L809.348 228.649L797.37 228.649L797.37 230.649ZM821.325 230.649L833.302 230.649L833.302 228.649L821.325 228.649L821.325 230.649ZM845.279 230.649L857.256 230.649L857.256 228.649L845.279 228.649L845.279 230.649ZM869.233 230.649L881.21 230.649L881.21 228.649L869.233 228.649L869.233 230.649ZM893.187 230.649L899.176 230.649L899.176 228.649L893.187 228.649L893.187 230.649Z" fill="black"/>
</g>
<defs>
<filter id="filter0_d_3110_12164" x="473.19" y="334.864" width="33.9369" height="34.5301" filterUnits="userSpaceOnUse" color-interpolation-filters="sRGB">
<feFlood flood-opacity="0" result="BackgroundImageFix"/>
<feColorMatrix in="SourceAlpha" type="matrix" values="0 0 0 0 0 0 0 0 0 0 0 0 0 0 0 0 0 0 127 0" result="hardAlpha"/>
<feOffset dx="-1.77873" dy="2.37165"/>
<feComposite in2="hardAlpha" operator="out"/>
<feColorMatrix type="matrix" values="0 0 0 0 0 0 0 0 0 0 0 0 0 0 0 0 0 0 0.25 0"/>
<feBlend mode="normal" in2="BackgroundImageFix" result="effect1_dropShadow_3110_12164"/>
<feBlend mode="normal" in="SourceGraphic" in2="effect1_dropShadow_3110_12164" result="shape"/>
</filter>
<clipPath id="clip0_3110_12164">
<rect width="900" height="648" fill="white" transform="translate(0.666992 0.125977)"/>
</clipPath>
</defs>
</svg>
