<svg width="1024" height="768" viewBox="0 0 1024 768" fill="none" xmlns="http://www.w3.org/2000/svg">
<g clip-path="url(#clip0_3223_21898)">
<rect width="1024" height="768" fill="#EDEDED"/>
<rect x="146.981" y="152.332" width="742.491" height="9.4792" fill="#D0D4DB"/>
<rect x="153.013" y="209.207" width="736.454" height="9.4792" fill="#D0D4DB"/>
<path d="M845.231 168.659C845.231 163.768 851.825 159.826 860.407 159.826C868.989 159.826 878.514 164.191 884.683 171.218L895.882 157.277C885.21 147.701 874.427 142.696 860.934 142.696C844.084 142.696 826.717 150.57 826.717 168.669C826.717 190.916 845.555 192.515 860.934 193.785C869.516 194.425 877.155 195.064 877.155 200.812C877.155 206.983 868.471 209.861 860.832 209.861C851.936 209.861 842.309 206.033 835.299 197.407L823.369 210.285C832.894 222.1 846.701 227.311 860.203 227.311C877.155 227.311 895.679 219.118 895.679 200.379C895.679 179.195 876.637 177.172 861.988 175.686C852.777 174.727 845.25 173.88 845.25 168.659H845.231ZM760.159 173.871C763.193 166.101 769.786 161.519 779.515 161.519C789.244 161.519 795.107 166.308 797.623 173.871H760.159ZM780.357 142.687C757.228 142.687 738.602 160.993 738.602 185.159C738.602 207.83 755.027 227.415 779.312 227.415C793.96 227.415 805.789 220.284 814.158 208.046L801.396 197.087C796.892 204.114 788.735 208.262 779.006 208.262C769.278 208.262 758.809 200.709 757.977 189.637H818.356V183.033C818.356 159.723 802.765 142.696 780.375 142.696L780.357 142.687ZM710.766 227.681H729.29V148.804H710.766V227.681ZM719.968 110.49C712.431 110.49 706.049 116.877 706.049 124.864C706.049 132.85 712.227 138.598 720.282 138.598C728.337 138.598 733.886 132.953 733.886 125.183C733.886 117.413 727.606 110.499 719.968 110.499V110.49ZM451.879 142.583C443.195 142.583 435.344 145.245 428.648 149.817V108.098H410.124V185.055C410.124 208.469 428.852 227.311 451.768 227.311C474.684 227.311 493.624 208.582 493.624 184.839C493.624 161.096 475.101 142.583 451.87 142.583H451.879ZM355.71 143.863C335.096 145.989 318.246 164.087 318.246 185.592C318.246 208.366 337.399 227.424 359.788 227.424C382.177 227.424 401.33 208.375 401.33 185.592C401.33 175.903 397.88 166.966 392.331 159.939L351.317 108.201H327.355L355.71 143.863ZM212.348 193.731L195.396 148.813H182.422L165.368 193.731L148.315 148.813H128.118L157.942 227.794H170.917L188.812 180.75L206.808 227.794H219.783L249.506 148.813H229.41L212.357 193.731H212.348ZM543.85 142.687C520.721 142.687 501.994 160.993 501.994 184.096C501.994 207.199 518.418 227.415 542.805 227.415C557.453 227.415 569.282 220.284 577.651 208.046L563.215 196.127C559.026 203.794 550.971 208.262 542.916 208.262C532.447 208.262 522.2 200.709 521.359 189.637H581.942V183.889C581.942 159.723 566.248 142.696 543.85 142.696V142.687ZM610.083 166.799V148.813H591.56V227.69H610.083V194.371C610.083 178.172 627.137 168.295 643.987 168.295V148.813H642.1C627.867 148.813 617.51 154.138 610.083 166.799ZM668.891 166.799V148.813H650.368V227.69H668.891V194.371C668.891 178.172 685.944 168.295 702.794 168.295V148.813H700.908C686.675 148.813 676.317 154.138 668.891 166.799ZM290.206 227.681H308.73V108.201H290.206V227.681ZM359.899 208.469C347.137 208.469 336.77 198.037 336.77 185.055C336.77 172.074 347.127 161.529 359.788 161.529C372.448 161.529 383.12 171.961 383.12 185.055C383.12 198.15 372.652 208.469 359.89 208.469H359.899ZM451.777 208.469C439.219 208.469 428.648 198.253 428.648 184.943C428.648 171.632 438.59 161.529 451.879 161.529C465.168 161.529 475.11 172.065 475.11 184.943C475.11 197.821 464.539 208.469 451.777 208.469ZM258.19 227.681H276.714V148.804H258.19V227.681ZM267.188 110.49C259.651 110.49 253.372 116.877 253.372 124.967C253.372 133.057 259.966 138.701 267.188 138.701C275.243 138.701 281.319 131.89 281.319 124.544C281.319 117.197 274.938 110.49 267.188 110.49ZM523.56 173.871C526.695 166.101 533.187 161.519 542.814 161.519C552.441 161.519 558.72 166.308 561.227 173.871H523.56Z" fill="#FF00CC"/>
<rect x="412.143" y="322.4" width="198.703" height="456.44" stroke="black" stroke-width="3.2"/>
<rect x="106.06" y="322.4" width="158.836" height="282.065" stroke="black" stroke-width="3.2"/>
<rect x="759.104" y="322.4" width="158.836" height="282.065" stroke="black" stroke-width="3.2"/>
<rect x="303.212" y="464.794" width="69.6065" height="72.7193" rx="27.6697" stroke="black" stroke-width="3.2"/>
<rect x="24.143" y="25.4062" width="70.1612" height="73.6" rx="20.8" stroke="black" stroke-width="3.2"/>
<path d="M64.5577 41.8394V81.2061H59.7906V46.8371H59.56L49.949 53.2188V48.3749L59.7906 41.8394H64.5577Z" fill="black"/>
<path d="M683.122 236.154C682.273 235.305 680.898 235.305 680.049 236.154L666.224 249.979C665.375 250.828 665.375 252.203 666.224 253.052C667.072 253.9 668.448 253.9 669.296 253.052L681.585 240.762L693.875 253.052C694.723 253.9 696.099 253.9 696.947 253.052C697.796 252.203 697.796 250.828 696.947 249.979L683.122 236.154ZM683.758 449.706L683.758 237.69L679.413 237.69L679.413 449.706L683.758 449.706Z" fill="black"/>
<rect x="639.171" y="449.706" width="85.8294" height="95.589" rx="21.7248" fill="black"/>
<path d="M678.479 504.224V504.02C678.502 501.859 678.728 500.139 679.158 498.861C679.588 497.582 680.199 496.547 680.991 495.755C681.783 494.963 682.733 494.233 683.842 493.565C684.51 493.158 685.11 492.677 685.641 492.122C686.173 491.557 686.592 490.906 686.897 490.171C687.214 489.435 687.373 488.62 687.373 487.727C687.373 486.618 687.112 485.656 686.592 484.841C686.071 484.027 685.376 483.399 684.504 482.957C683.633 482.516 682.666 482.295 681.602 482.295C680.674 482.295 679.78 482.488 678.92 482.872C678.06 483.257 677.342 483.863 676.765 484.689C676.188 485.515 675.854 486.595 675.763 487.93H671.486C671.577 486.007 672.075 484.36 672.98 482.991C673.896 481.622 675.102 480.576 676.595 479.851C678.1 479.127 679.769 478.765 681.602 478.765C683.593 478.765 685.325 479.161 686.796 479.953C688.278 480.745 689.421 481.831 690.224 483.212C691.039 484.592 691.446 486.165 691.446 487.93C691.446 489.175 691.254 490.301 690.869 491.308C690.496 492.315 689.952 493.214 689.24 494.006C688.538 494.798 687.689 495.5 686.694 496.111C685.698 496.733 684.9 497.39 684.301 498.08C683.701 498.759 683.265 499.568 682.994 500.507C682.722 501.446 682.575 502.617 682.552 504.02V504.224H678.479ZM680.652 514.272C679.814 514.272 679.096 513.972 678.496 513.372C677.896 512.772 677.596 512.054 677.596 511.217C677.596 510.379 677.896 509.661 678.496 509.061C679.096 508.461 679.814 508.161 680.652 508.161C681.489 508.161 682.207 508.461 682.807 509.061C683.407 509.661 683.707 510.379 683.707 511.217C683.707 511.771 683.565 512.28 683.282 512.744C683.011 513.208 682.643 513.581 682.179 513.864C681.726 514.136 681.217 514.272 680.652 514.272Z" fill="white"/>
<path d="M680.049 758.846C680.898 759.695 682.273 759.695 683.122 758.846L696.947 745.021C697.796 744.172 697.796 742.797 696.947 741.948C696.099 741.1 694.723 741.1 693.875 741.948L681.585 754.238L669.296 741.948C668.448 741.1 667.072 741.1 666.224 741.948C665.375 742.797 665.375 744.172 666.224 745.021L680.049 758.846ZM683.758 757.31L683.758 545.294L679.413 545.294L679.413 757.31L683.758 757.31Z" fill="black"/>
<path d="M107.203 228.601L916.796 228.601" stroke="black" stroke-width="4.34495" stroke-linecap="round" stroke-dasharray="26.07 26.07"/>
</g>
<defs>
<clipPath id="clip0_3223_21898">
<rect width="1024" height="768" fill="white"/>
</clipPath>
</defs>
</svg>
