<svg width="592" height="481" viewBox="0 0 592 481" fill="none" xmlns="http://www.w3.org/2000/svg">
<g clip-path="url(#clip0_3112_11943)">
<rect width="592" height="480" transform="translate(0 0.125977)" fill="#EDEDED"/>
<g clip-path="url(#clip1_3112_11943)">
<rect width="786" height="493.633" transform="translate(-194 -5.50684)" fill="#EDEDED"/>
<rect x="103.562" y="101.774" width="414.053" height="5.04943" fill="#D0D4DB"/>
<rect x="106.926" y="132.071" width="410.687" height="5.04943" fill="#D0D4DB"/>
<path d="M492.944 110.472C492.944 107.866 496.621 105.767 501.407 105.767C506.193 105.767 511.505 108.092 514.945 111.835L521.19 104.409C515.239 99.3078 509.225 96.642 501.701 96.642C492.305 96.642 482.62 100.836 482.62 110.477C482.62 122.328 493.125 123.18 501.701 123.856C506.487 124.197 510.747 124.538 510.747 127.599C510.747 130.887 505.904 132.42 501.644 132.42C496.683 132.42 491.314 130.38 487.405 125.785L480.753 132.645C486.065 138.939 493.764 141.715 501.294 141.715C510.747 141.715 521.076 137.351 521.076 127.369C521.076 116.084 510.458 115.007 502.289 114.215C497.152 113.704 492.955 113.253 492.955 110.472H492.944ZM445.504 113.248C447.195 109.109 450.872 106.669 456.297 106.669C461.723 106.669 464.992 109.219 466.395 113.248H445.504ZM456.767 96.637C443.869 96.637 433.482 106.388 433.482 119.261C433.482 131.338 442.641 141.77 456.184 141.77C464.353 141.77 470.949 137.972 475.616 131.453L468.499 125.615C465.988 129.358 461.439 131.568 456.014 131.568C450.588 131.568 444.751 127.544 444.286 121.646H477.957V118.129C477.957 105.712 469.263 96.642 456.777 96.642L456.767 96.637ZM417.959 141.912H428.289V99.8956H417.959V141.912ZM423.091 79.4862C418.887 79.4862 415.329 82.8886 415.329 87.1428C415.329 91.3971 418.774 94.4588 423.266 94.4588C427.758 94.4588 430.852 91.4522 430.852 87.3132C430.852 83.1742 427.35 79.4912 423.091 79.4912V79.4862ZM273.59 96.5819C268.747 96.5819 264.369 98 260.635 100.435V78.2119H250.305V119.206C250.305 131.678 260.748 141.715 273.528 141.715C286.307 141.715 296.869 131.738 296.869 119.091C296.869 106.443 286.539 96.5819 273.585 96.5819H273.59ZM219.961 97.2634C208.465 98.3958 199.069 108.037 199.069 119.492C199.069 131.623 209.749 141.775 222.235 141.775C234.72 141.775 245.401 131.628 245.401 119.492C245.401 114.331 243.477 109.57 240.383 105.827L217.511 78.267H204.149L219.961 97.2634ZM140.014 123.828L130.561 99.9006H123.326L113.816 123.828L104.306 99.9006H93.043L109.675 141.972H116.91L126.889 116.913L136.925 141.972H144.161L160.736 99.9006H149.529L140.019 123.828H140.014ZM324.878 96.637C311.98 96.637 301.536 106.388 301.536 118.695C301.536 131.002 310.695 141.77 324.295 141.77C332.464 141.77 339.06 137.972 343.727 131.453L335.677 125.104C333.341 129.188 328.849 131.568 324.357 131.568C318.519 131.568 312.805 127.544 312.335 121.646H346.12V118.585C346.12 105.712 337.368 96.642 324.878 96.642V96.637ZM361.813 109.481V99.9006H351.483V141.917H361.813V124.168C361.813 115.54 371.323 110.278 380.719 110.278V99.9006H379.667C371.73 99.9006 365.954 102.737 361.813 109.481ZM394.608 109.481V99.9006H384.278V141.917H394.608V124.168C394.608 115.54 404.117 110.278 413.514 110.278V99.9006H412.462C404.525 99.9006 398.749 102.737 394.608 109.481ZM183.432 141.912H193.762V78.267H183.432V141.912ZM222.297 131.678C215.18 131.678 209.399 126.121 209.399 119.206C209.399 112.291 215.175 106.674 222.235 106.674C229.295 106.674 235.246 112.231 235.246 119.206C235.246 126.181 229.408 131.678 222.292 131.678H222.297ZM273.533 131.678C266.53 131.678 260.635 126.236 260.635 119.146C260.635 112.056 266.179 106.674 273.59 106.674C281.001 106.674 286.545 112.286 286.545 119.146C286.545 126.006 280.65 131.678 273.533 131.678ZM165.578 141.912H175.908V99.8956H165.578V141.912ZM170.596 79.4862C166.393 79.4862 162.891 82.8886 162.891 87.198C162.891 91.5073 166.569 94.5139 170.596 94.5139C175.088 94.5139 178.476 90.886 178.476 86.9725C178.476 83.0589 174.918 79.4862 170.596 79.4862ZM313.563 113.248C315.311 109.109 318.931 106.669 324.3 106.669C329.669 106.669 333.17 109.219 334.568 113.248H313.563Z" fill="#FF00CC"/>
<rect x="494.878" y="201.626" width="145.998" height="176.291" stroke="black" stroke-width="2"/>
<rect x="238.465" y="201.626" width="130.104" height="285.275" stroke="black" stroke-width="2"/>
<rect x="44.4453" y="201.626" width="104.02" height="176.291" stroke="black" stroke-width="2"/>
<rect x="170.738" y="290.622" width="45.4495" height="45.4495" rx="17.2936" stroke="black" stroke-width="2"/>
<rect x="24.9922" y="25.0049" width="46" height="46" rx="13" stroke="black" stroke-width="2"/>
<path d="M51.326 34.9007V59.5049H48.3466V38.0243H48.2024L42.1956 42.0129V38.9854L48.3466 34.9007H51.326Z" fill="black"/>
</g>
<path d="M435.451 147.597C434.921 147.067 434.061 147.067 433.531 147.597L424.89 156.238C424.359 156.768 424.359 157.628 424.89 158.158C425.42 158.688 426.28 158.688 426.81 158.158L434.491 150.477L442.172 158.158C442.702 158.688 443.562 158.688 444.092 158.158C444.622 157.628 444.622 156.768 444.092 156.238L435.451 147.597ZM435.849 281.254L435.849 148.557L433.133 148.557L433.133 281.254L435.849 281.254Z" fill="black"/>
<rect x="407.981" y="281.254" width="54.0183" height="59.7431" rx="13.578" fill="black"/>
<path d="M432.549 315.516V315.389C432.563 314.038 432.705 312.963 432.974 312.164C433.242 311.365 433.624 310.718 434.119 310.223C434.614 309.728 435.208 309.271 435.901 308.854C436.319 308.6 436.693 308.299 437.026 307.953C437.358 307.599 437.62 307.192 437.811 306.733C438.009 306.273 438.108 305.764 438.108 305.205C438.108 304.512 437.945 303.911 437.62 303.402C437.294 302.893 436.86 302.5 436.315 302.224C435.77 301.949 435.166 301.811 434.501 301.811C433.921 301.811 433.362 301.931 432.825 302.171C432.288 302.412 431.838 302.79 431.478 303.306C431.117 303.823 430.909 304.498 430.852 305.332H428.179C428.235 304.13 428.547 303.101 429.112 302.246C429.685 301.39 430.438 300.736 431.372 300.283C432.312 299.83 433.355 299.604 434.501 299.604C435.746 299.604 436.828 299.852 437.747 300.347C438.673 300.842 439.388 301.521 439.89 302.383C440.399 303.246 440.654 304.229 440.654 305.332C440.654 306.11 440.533 306.814 440.293 307.443C440.06 308.073 439.72 308.635 439.275 309.13C438.836 309.625 438.306 310.063 437.683 310.445C437.061 310.834 436.562 311.244 436.188 311.676C435.813 312.1 435.541 312.606 435.371 313.193C435.201 313.78 435.109 314.512 435.095 315.389V315.516H432.549ZM433.907 321.796C433.384 321.796 432.935 321.608 432.56 321.233C432.185 320.859 431.998 320.41 431.998 319.886C431.998 319.363 432.185 318.914 432.56 318.539C432.935 318.164 433.384 317.977 433.907 317.977C434.43 317.977 434.879 318.164 435.254 318.539C435.629 318.914 435.816 319.363 435.816 319.886C435.816 320.233 435.728 320.551 435.551 320.841C435.381 321.131 435.152 321.364 434.862 321.541C434.579 321.711 434.261 321.796 433.907 321.796Z" fill="white"/>
<path d="M433.531 474.655C434.061 475.185 434.921 475.185 435.451 474.655L444.092 466.014C444.622 465.484 444.622 464.624 444.092 464.094C443.562 463.563 442.702 463.563 442.172 464.094L434.491 471.775L426.81 464.094C426.28 463.563 425.42 463.563 424.89 464.094C424.359 464.624 424.359 465.484 424.89 466.014L433.531 474.655ZM435.849 473.695L435.849 340.998L433.133 340.998L433.133 473.695L435.849 473.695Z" fill="black"/>
<path d="M104 143.126L528 143.126" stroke="black" stroke-width="2.7156" stroke-linecap="round" stroke-dasharray="16.29 16.29"/>
</g>
<defs>
<clipPath id="clip0_3112_11943">
<rect width="592" height="480" fill="white" transform="translate(0 0.125977)"/>
</clipPath>
<clipPath id="clip1_3112_11943">
<rect width="786" height="493.633" fill="white" transform="translate(-194 -5.50684)"/>
</clipPath>
</defs>
</svg>
