<svg width="1072" height="768" viewBox="0 0 1072 768" fill="none" xmlns="http://www.w3.org/2000/svg">
<g clip-path="url(#clip0_3223_21929)">
<rect width="1072" height="768" fill="#EDEDED"/>
<g clip-path="url(#clip1_3223_21929)">
<rect width="1072" height="869.189" transform="translate(0 -76)" fill="#EDEDED"/>
<path d="M675.613 319.247V-103.415V-118.144H-12.4946V817.108H675.613V463.627H125.127V319.247H675.613Z" fill="#D0D4DB"/>
<path d="M213.675 343.202H271.802C350.211 343.202 385.883 433.199 428.256 433.199C446.183 433.199 433.327 433.199 406.165 433.199C368.681 433.199 335 371.994 280.313 371.994H191.583V433.199" stroke="black" stroke-width="3.62162"/>
<path d="M829.17 447.323H817.762V435.915L829.17 447.323Z" fill="#EDEDED"/>
<path d="M1072 235.643V540.765H956.832V459.097V525.373H937.819V251.216H956.832V341.394V235.643H1072Z" fill="#EDEDED"/>
<path d="M968.603 235.643L1072 340.489L1082.5 351.173" stroke="black" stroke-width="3.62162" stroke-linecap="round"/>
<path d="M675.976 56.9135L544.873 -76" stroke="black" stroke-width="3.62162" stroke-linecap="round"/>
<path d="M675.976 174.616L428.8 -76" stroke="black" stroke-width="3.62162" stroke-linecap="round"/>
<path d="M675.976 292.319L312.546 -76" stroke="black" stroke-width="3.62162" stroke-linecap="round"/>
<path d="M586.884 319.481L196.473 -76" stroke="black" stroke-width="3.62162" stroke-linecap="round"/>
<path d="M80.3999 -76L108.649 -47.3892L145.046 -10.6297L470.811 319.481" stroke="black" stroke-width="3.62162" stroke-linecap="round"/>
<path d="M611.149 461.811L675.976 527.543" stroke="black" stroke-width="3.62162" stroke-linecap="round"/>
<path d="M503.043 352.255L498.878 348.09" stroke="black" stroke-width="3.62162" stroke-linecap="round"/>
<path d="M0 -39.7842L28.6108 -10.8112L107.2 69.0455L354.557 319.481" stroke="black" stroke-width="3.62162" stroke-linecap="round"/>
<path d="M675.976 645.246L494.895 461.811" stroke="black" stroke-width="3.62162" stroke-linecap="round"/>
<path d="M243.192 319.478L0 73.2075" stroke="black" stroke-width="3.62162" stroke-linecap="round"/>
<path d="M675.976 758.059L383.53 461.811" stroke="black" stroke-width="3.62162" stroke-linecap="round"/>
<path d="M267.276 461.811L594.489 793.189L607.527 806.408" stroke="black" stroke-width="3.62162" stroke-linecap="round"/>
<path d="M0 190.91L126.938 319.478" stroke="black" stroke-width="3.62162" stroke-linecap="round"/>
<path d="M151.203 461.811L478.416 793.189L491.454 806.408" stroke="black" stroke-width="3.62162" stroke-linecap="round"/>
<path d="M125.851 435.917L0 308.436" stroke="black" stroke-width="3.62162" stroke-linecap="round"/>
<path d="M0 426.139L362.162 793.19L375.2 806.409" stroke="black" stroke-width="3.62162" stroke-linecap="round"/>
<path d="M0 543.842L246.089 793.19L259.127 806.409" stroke="black" stroke-width="3.62162" stroke-linecap="round"/>
<path d="M0 661.544L130.016 793.19L143.054 806.409" stroke="black" stroke-width="3.62162" stroke-linecap="round"/>
<path d="M1082.68 235.643H956.832V540.765H1082.68V235.643Z" fill="black" stroke="black" stroke-width="3.62162" stroke-linejoin="bevel"/>
<path d="M623.643 343.201H797.119L817.762 329.077H828.627H937.819V439.718V447.323H829.17H817.762L799.654 433.199H773.759H772.311" stroke="black" stroke-width="3.62162"/>
<path d="M351.479 433.199H173.657L158.809 388.11L173.657 343.202H268.906" stroke="black" stroke-width="3.62162"/>
<path d="M427.894 343.202C506.302 343.202 541.975 433.199 584.348 433.199C602.275 433.199 574.027 433.199 544.873 433.199C518.254 433.199 445.278 387.929 383.71 361.31C396.748 345.194 409.967 343.202 427.894 343.202Z" stroke="black" stroke-width="3.62162"/>
<path d="M383.892 361.49C357.092 349.901 346.046 346.279 324.316 346.279C312.908 346.279 305.846 349.177 305.846 349.177" stroke="black" stroke-width="3.62162"/>
<path d="M573.484 361.49C546.684 349.901 535.638 346.279 513.908 346.279C502.5 346.279 495.438 349.177 495.438 349.177" stroke="black" stroke-width="3.62162"/>
<path d="M383.892 426.863C374.295 430.485 361.619 433.382 353.289 433.382C326.67 433.382 313.27 412.92 283.392 400.063C265.827 392.458 249.711 387.207 238.122 387.207" stroke="black" stroke-width="3.62162"/>
<path d="M238.122 403.143C249.711 403.143 265.827 408.576 283.392 416C295.343 421.07 304.578 427.408 313.27 433.203" stroke="black" stroke-width="3.62162"/>
<path d="M238.122 420.884C249.53 420.884 265.103 425.954 282.124 433.378" stroke="black" stroke-width="3.62162"/>
<path d="M435.088 433.197H466.284C486.927 433.197 502.5 432.11 512.459 423.6" stroke="black" stroke-width="3.62162"/>
<path d="M774.122 433.202C757.1 433.202 762.714 433.202 734.646 433.202C732.654 433.202 730.3 432.84 727.765 432.478C720.884 431.029 712.011 427.951 702.051 423.786C694.989 420.708 687.203 417.086 679.054 413.284C647.184 397.892 608.433 376.705 573.484 361.494C584.53 347.551 595.938 344.111 610.243 343.567C612.597 343.386 614.951 343.386 617.487 343.386C667.284 343.386 699.697 379.602 727.584 406.04C743.519 421.251 758.005 433.202 773.397 433.384C773.76 433.202 773.941 433.202 774.122 433.202Z" stroke="black" stroke-width="3.62162"/>
<path d="M427.895 343.202C427.895 343.202 409.062 343.202 461.576 343.202C539.984 343.202 575.657 433.199 618.03 433.199C635.957 433.199 611.511 433.199 584.349 433.199" stroke="black" stroke-width="3.62162"/>
<path d="M620.565 433.197H656.057C676.7 433.197 692.273 432.11 702.232 423.6" stroke="black" stroke-width="3.62162"/>
<path d="M734.827 433.199C762.714 433.199 757.281 433.199 774.303 433.199" stroke="black" stroke-width="3.62162"/>
<path d="M734.827 433.199C762.714 433.199 757.281 433.199 774.303 433.199" stroke="black" stroke-width="3.62162"/>
<path d="M817.762 329.077V435.915V447.323" stroke="black" stroke-width="3.62162"/>
<path d="M675.976 -76V-60.7892V56.9135V174.616V292.319V319.481H586.884H470.811H354.557H243.192H126.938H125.852V435.916V461.811H151.203H267.276H383.53H494.895H611.149H675.976V527.543V645.246V758.059V793.189" stroke="black" stroke-width="3.62162" stroke-linecap="round"/>
<path d="M611.149 461.811H675.976V527.543V645.246V758.059" stroke="black" stroke-width="3.62162"/>
<path d="M675.976 -76V-60.7892V56.9135V174.616V292.319" stroke="black" stroke-width="3.62162"/>
<path d="M1072 235.643H1073.81V233.832L1072 233.832L1072 235.643ZM1072 540.765V542.575H1073.81V540.765H1072ZM956.832 540.765L955.693 542.172L956.832 542.575V540.765ZM937.819 525.373H936.008V526.237L936.679 526.78L937.819 525.373ZM937.819 251.216L936.671 249.815L936.008 250.358V251.216H937.819ZM956.832 235.643L956.832 233.832L956.185 233.832L955.685 234.242L956.832 235.643ZM1070.19 235.643V540.765H1073.81V235.643H1070.19ZM1072 538.954H956.832V542.575H1072V538.954ZM958.643 540.765V459.097H955.022V540.765H958.643ZM957.972 539.357L938.958 523.965L936.679 526.78L955.693 542.172L957.972 539.357ZM939.63 525.373V251.216H936.008V525.373H939.63ZM938.966 252.617L957.98 237.044L955.685 234.242L936.671 249.815L938.966 252.617ZM955.022 235.643V341.394H958.643V235.643H955.022ZM956.832 237.454L1072 237.454L1072 233.832L956.832 233.832L956.832 237.454Z" fill="black"/>
</g>
<rect x="30.5" y="30.7061" width="91.7998" height="91.7998" rx="27.5" fill="#D0D4DB" stroke="#D0D4DB" stroke-width="15"/>
<rect x="39.6" y="39.8061" width="73.6" height="73.6" rx="20.8" stroke="black" stroke-width="3.2"/>
<path d="M64.0883 95.606V92.146L77.0824 77.9217C78.6073 76.2558 79.8632 74.8077 80.8499 73.5775C81.8366 72.3345 82.5671 71.1684 83.0412 70.0791C83.5282 68.9771 83.7716 67.8238 83.7716 66.6192C83.7716 65.2352 83.4385 64.037 82.7721 63.0247C82.1185 62.0123 81.2215 61.2306 80.081 60.6796C78.9405 60.1285 77.659 59.853 76.2366 59.853C74.7245 59.853 73.4046 60.167 72.2769 60.7949C71.162 61.41 70.297 62.275 69.6819 63.3899C69.0796 64.5048 68.7785 65.8119 68.7785 67.3112H64.2421C64.2421 65.0045 64.7739 62.9798 65.8375 61.237C66.9011 59.4942 68.3492 58.1359 70.1817 57.162C72.027 56.188 74.0966 55.7011 76.3904 55.7011C78.697 55.7011 80.741 56.188 82.5222 57.162C84.3034 58.1359 85.7002 59.4494 86.7126 61.1025C87.725 62.7556 88.2311 64.5945 88.2311 66.6192C88.2311 68.0672 87.9684 69.4833 87.443 70.8672C86.9305 72.2384 86.0334 73.7698 84.752 75.4613C83.4833 77.14 81.7213 79.1904 79.4659 81.6123L70.6238 91.0696V91.3771H88.9231V95.606H64.0883Z" fill="black"/>
</g>
<defs>
<clipPath id="clip0_3223_21929">
<rect width="1072" height="768" fill="white"/>
</clipPath>
<clipPath id="clip1_3223_21929">
<rect width="1072" height="869.189" fill="white" transform="translate(0 -76)"/>
</clipPath>
</defs>
</svg>
