<svg width="1072" height="768" viewBox="0 0 1072 768" fill="none" xmlns="http://www.w3.org/2000/svg">
<g clip-path="url(#clip0_3223_22007)">
<rect width="1072" height="768" fill="#EDEDED"/>
<path d="M-12.5496 716.017L200.561 932.281L207.066 938.984" stroke="black" stroke-width="3.62" stroke-linecap="round"/>
<path d="M207.066 440.804L-12.5496 218.034" stroke="black" stroke-width="3.62" stroke-linecap="round"/>
<path d="M145.361 440.81L-12.5496 280.534" stroke="black" stroke-width="3.32798" stroke-linecap="round"/>
<path d="M83.6556 440.801L-12.5496 343.019" stroke="black" stroke-width="3.32798" stroke-linecap="round"/>
<path d="M22.1474 440.81L-12.5496 405.719" stroke="black" stroke-width="3.32798" stroke-linecap="round"/>
<rect x="-43.0667" y="-7.75537" width="586.614" height="995.756" fill="#D0D4DB"/>
<path d="M685.971 71.1606H593.836V664.599H685.971V71.1606Z" fill="#FF00CC" stroke="black" stroke-width="3.62"/>
<path d="M593.836 113.832H545.559V206.477H593.836V113.832Z" fill="#EDEDED" stroke="black" stroke-width="3.62"/>
<path d="M593.836 508.887H545.559V601.532H593.836V508.887Z" fill="#EDEDED" stroke="black" stroke-width="3.62"/>
<path d="M545.559 346.376L515.593 315.819" stroke="black" stroke-width="3.62" stroke-linecap="round"/>
<path d="M545.558 408.87L453.887 315.819" stroke="black" stroke-width="3.62" stroke-linecap="round"/>
<path d="M545.559 471.364L392.183 315.819" stroke="black" stroke-width="3.62" stroke-linecap="round"/>
<path d="M545.558 534.055L330.477 315.819" stroke="black" stroke-width="3.62" stroke-linecap="round"/>
<path d="M268.772 315.819L544.77 595.563L545.559 596.549" stroke="black" stroke-width="3.62" stroke-linecap="round"/>
<path d="M545.559 659.042L544.77 658.254L542.996 656.48L522.69 635.78L207.066 315.819" stroke="black" stroke-width="3.62" stroke-linecap="round"/>
<path d="M145.558 315.819L460.985 635.78L481.29 656.48L545.559 721.733" stroke="black" stroke-width="3.62" stroke-linecap="round"/>
<path d="M-39.5579 190.616L360.43 596.351L385.913 622.333L545.559 784.227" stroke="black" stroke-width="3.62" stroke-linecap="round"/>
<path d="M545.558 846.918L-39.5579 253.207" stroke="black" stroke-width="3.62" stroke-linecap="round"/>
<path d="M545.558 909.412L-12.5495 343.222L-39.5579 315.819" stroke="black" stroke-width="3.62" stroke-linecap="round"/>
<path d="M-12.5496 405.719L506.524 932.284L513.03 938.987" stroke="black" stroke-width="3.62" stroke-linecap="round"/>
<path d="M-12.5496 468.403L444.819 932.277L451.325 938.98" stroke="black" stroke-width="3.62" stroke-linecap="round"/>
<path d="M-12.5496 528.331L385.676 932.274L392.182 938.977" stroke="black" stroke-width="3.62" stroke-linecap="round"/>
<path d="M-12.5496 591.032L323.971 932.284L330.477 938.987" stroke="black" stroke-width="3.62" stroke-linecap="round"/>
<path d="M-12.5496 653.517L262.266 932.275L268.772 938.978" stroke="black" stroke-width="3.62" stroke-linecap="round"/>
<path d="M-39.5579 684.77L235.258 963.528L241.763 970.231" stroke="black" stroke-width="3.62" stroke-linecap="round"/>
<path d="M545.558 33.313L499.033 -14.001" stroke="black" stroke-width="3.62" stroke-linecap="round"/>
<path d="M545.558 96.004L437.328 -14.001" stroke="black" stroke-width="3.62" stroke-linecap="round"/>
<path d="M545.559 158.498L544.179 157.118L375.623 -14.001" stroke="black" stroke-width="3.62" stroke-linecap="round"/>
<path d="M545.558 220.992L544.178 219.612L519.93 194.969L499.427 174.269L313.917 -14.001" stroke="black" stroke-width="3.62" stroke-linecap="round"/>
<path d="M545.559 283.683L458.225 194.969L437.722 174.269L252.212 -14.001" stroke="black" stroke-width="3.62" stroke-linecap="round"/>
<path d="M545.558 346.177L190.506 -14.001" stroke="black" stroke-width="3.62" stroke-linecap="round"/>
<path d="M128.801 -14.001L545.558 408.868" stroke="black" stroke-width="3.62" stroke-linecap="round"/>
<path d="M67.0959 -14.001L98.4415 17.7388L144.967 64.8557L513.03 438.242" stroke="black" stroke-width="3.62" stroke-linecap="round"/>
<path d="M5.39014 -14.001L40.8756 21.8788L55.0698 36.2701L74.3897 55.9843L78.3325 59.9271L89.9639 71.7556L93.5124 75.3042L126.041 108.424L140.235 122.815L451.324 438.242" stroke="black" stroke-width="3.62" stroke-linecap="round"/>
<path d="M-12.5496 30.1641L19.1902 62.4953L36.7358 80.238L81.8813 125.975L99.0326 143.521L392.182 440.81" stroke="black" stroke-width="3.62" stroke-linecap="round"/>
<path d="M330.477 440.803L-12.5496 92.8481" stroke="black" stroke-width="3.62" stroke-linecap="round"/>
<path d="M268.772 440.81L-12.5496 155.349" stroke="black" stroke-width="3.62" stroke-linecap="round"/>
<path d="M545.559 801.957V782.238V728.351V674.294V620.407V601.708V566.35V564.14V546.291V512.463V508.893V458.576V404.518V350.631V296.744V296.574V242.687V206.649V188.63V166.191V148.342V134.743V113.834V80.8558V26.7987V-13.9991V-27.0884" stroke="black" stroke-width="3.62"/>
<path d="M545.558 96.004V33.313V-14.001H499.033H437.328H375.622H313.917H252.212H190.506H128.801H67.0957H5.39033H-12.5496V30.1587V92.8498V155.344V218.035V280.529V343.022V343.22V405.714V468.405V528.336V591.027V653.521V716.014V778.705V841.199V903.89V932.279H15.4445H77.1499H138.855H200.561H262.266H323.971H385.676H444.819H506.524H545.558" stroke="black" stroke-width="3.62" stroke-miterlimit="10"/>
<path d="M545.559 728.346V674.288V620.401V601.702H580.407L593.836 601.532V615.302V664.599H642.454H685.972V654.909V600.852V546.965V493.078V439.021V331.077V277.19V223.133V169.245V115.358V71.1606H642.454H593.836V75.7504" stroke="black" stroke-width="3.62" stroke-miterlimit="10"/>
<rect x="30.5" y="30.7061" width="91.7998" height="91.7998" rx="27.5" fill="#D0D4DB" stroke="#D0D4DB" stroke-width="15"/>
<rect x="39.6" y="39.8061" width="73.6" height="73.6" rx="20.8" stroke="black" stroke-width="3.2"/>
<path d="M76.5442 96.1442C74.0069 96.1442 71.7451 95.7085 69.7588 94.8371C67.7853 93.9657 66.2155 92.7547 65.0494 91.2041C63.8961 89.6407 63.2682 87.8275 63.1657 85.7643H68.0096C68.1121 87.0329 68.5478 88.1286 69.3167 89.0513C70.0856 89.9611 71.0915 90.6659 72.3345 91.1657C73.5776 91.6654 74.9551 91.9153 76.4673 91.9153C78.1588 91.9153 79.6581 91.6206 80.9652 91.0311C82.2723 90.4416 83.2975 89.6215 84.0407 88.5707C84.784 87.5199 85.1556 86.3025 85.1556 84.9185C85.1556 83.4705 84.7968 82.1954 84.0792 81.0933C83.3616 79.9785 82.3108 79.1071 80.9268 78.4792C79.5428 77.8512 77.8513 77.5373 75.8522 77.5373H72.6998V73.3084H75.8522C77.4156 73.3084 78.7867 73.0265 79.9657 72.4627C81.1574 71.8988 82.0865 71.1043 82.7529 70.0791C83.4321 69.054 83.7716 67.8494 83.7716 66.4654C83.7716 65.1327 83.4769 63.9729 82.8874 62.9862C82.298 61.9995 81.465 61.2306 80.3886 60.6796C79.325 60.1285 78.0691 59.853 76.6211 59.853C75.2627 59.853 73.9812 60.1029 72.7767 60.6027C71.5849 61.0896 70.611 61.8009 69.8549 62.7363C69.0988 63.659 68.6888 64.7739 68.6247 66.081H64.0114C64.0883 64.0178 64.7098 62.2109 65.876 60.6604C67.0421 59.097 68.567 57.8796 70.4508 57.0082C72.3474 56.1368 74.4297 55.7011 76.6979 55.7011C79.1327 55.7011 81.2215 56.1944 82.9643 57.1812C84.7071 58.1551 86.0462 59.443 86.9817 61.0448C87.9172 62.6466 88.3849 64.3766 88.3849 66.2347C88.3849 68.4517 87.8019 70.3418 86.6357 71.9052C85.4824 73.4686 83.9126 74.5515 81.9263 75.1537V75.4613C84.4124 75.8714 86.3538 76.9286 87.7506 78.6329C89.1474 80.3245 89.8458 82.4197 89.8458 84.9185C89.8458 87.0586 89.2627 88.9808 88.0966 90.6851C86.9433 92.3767 85.3671 93.7094 83.368 94.6833C81.3689 95.6572 79.0943 96.1442 76.5442 96.1442Z" fill="black"/>
</g>
<defs>
<clipPath id="clip0_3223_22007">
<rect width="1072" height="768" fill="white"/>
</clipPath>
</defs>
</svg>
