<svg width="1072" height="768" viewBox="0 0 1072 768" fill="none" xmlns="http://www.w3.org/2000/svg">
<g clip-path="url(#clip0_3223_21898)">
<rect width="1072" height="768" fill="#EDEDED"/>
<rect x="210.314" y="162.638" width="662.485" height="8.07908" fill="#D0D4DB"/>
<rect x="215.695" y="211.112" width="657.099" height="8.07908" fill="#D0D4DB"/>
<path d="M833.324 176.554C833.324 172.385 839.208 169.025 846.865 169.025C854.522 169.025 863.021 172.746 868.525 178.735L878.518 166.853C868.995 158.691 859.374 154.426 847.335 154.426C832.301 154.426 816.805 161.136 816.805 176.562C816.805 195.523 833.613 196.886 847.335 197.968C854.993 198.514 861.808 199.059 861.808 203.957C861.808 209.217 854.06 211.67 847.245 211.67C839.307 211.67 830.717 208.407 824.462 201.055L813.818 212.031C822.317 222.101 834.636 226.543 846.683 226.543C861.808 226.543 878.336 219.559 878.336 203.589C878.336 185.533 861.346 183.81 848.276 182.543C840.057 181.725 833.341 181.004 833.341 176.554H833.324ZM757.419 180.996C760.126 174.373 766.009 170.469 774.69 170.469C783.37 170.469 788.601 174.549 790.846 180.996H757.419ZM775.44 154.418C754.804 154.418 738.185 170.02 738.185 190.616C738.185 209.939 752.84 226.631 774.508 226.631C787.578 226.631 798.132 220.554 805.599 210.123L794.212 200.783C790.194 206.772 782.916 210.307 774.236 210.307C765.555 210.307 756.215 203.869 755.472 194.433H809.346V188.805C809.346 168.937 795.434 154.426 775.457 154.426L775.44 154.418ZM713.348 226.858H729.876V159.631H713.348V226.858ZM721.558 126.976C714.834 126.976 709.14 132.42 709.14 139.227C709.14 146.034 714.652 150.932 721.839 150.932C729.026 150.932 733.977 146.122 733.977 139.5C733.977 132.877 728.374 126.984 721.558 126.984V126.976ZM482.357 154.329C474.609 154.329 467.604 156.598 461.63 160.495V124.938H445.102V190.528C445.102 210.484 461.811 226.543 482.258 226.543C502.705 226.543 519.604 210.58 519.604 190.344C519.604 170.108 503.077 154.329 482.349 154.329H482.357ZM396.551 155.42C378.158 157.232 363.124 172.657 363.124 190.985C363.124 210.396 380.213 226.639 400.189 226.639C420.166 226.639 437.255 210.404 437.255 190.985C437.255 182.727 434.177 175.111 429.226 169.122L392.631 125.026H371.252L396.551 155.42ZM268.637 197.923L253.512 159.639H241.935L226.719 197.923L211.504 159.639H193.482L220.093 226.954H231.67L247.637 186.859L263.694 226.954H275.271L301.791 159.639H283.861L268.645 197.923H268.637ZM564.418 154.418C543.781 154.418 527.072 170.02 527.072 189.71C527.072 209.401 541.726 226.631 563.485 226.631C576.556 226.631 587.109 220.554 594.577 210.123L581.696 199.965C577.959 206.499 570.772 210.307 563.585 210.307C554.244 210.307 545.101 203.869 544.35 194.433H598.406V189.534C598.406 168.937 584.403 154.426 564.418 154.426V154.418ZM623.515 174.969V159.639H606.987V226.866H623.515V198.468C623.515 184.662 638.73 176.244 653.765 176.244V159.639H652.081C639.382 159.639 630.141 164.177 623.515 174.969ZM675.986 174.969V159.639H659.458V226.866H675.986V198.468C675.986 184.662 691.201 176.244 706.235 176.244V159.639H704.552C691.853 159.639 682.612 164.177 675.986 174.969ZM338.106 226.858H354.633V125.026H338.106V226.858ZM400.288 210.484C388.901 210.484 379.652 201.592 379.652 190.528C379.652 179.464 388.893 170.477 400.189 170.477C411.486 170.477 421.008 179.368 421.008 190.528C421.008 201.689 411.667 210.484 400.28 210.484H400.288ZM482.267 210.484C471.061 210.484 461.63 201.777 461.63 190.432C461.63 179.087 470.5 170.477 482.357 170.477C494.215 170.477 503.085 179.456 503.085 190.432C503.085 201.408 493.654 210.484 482.267 210.484ZM309.539 226.858H326.067V159.631H309.539V226.858ZM317.568 126.976C310.843 126.976 305.24 132.42 305.24 139.315C305.24 146.21 311.123 151.021 317.568 151.021C324.755 151.021 330.176 145.216 330.176 138.954C330.176 132.693 324.482 126.976 317.568 126.976ZM546.314 180.996C549.112 174.373 554.904 170.469 563.494 170.469C572.084 170.469 577.686 174.549 579.922 180.996H546.314Z" fill="#FF00CC"/>
<rect x="431.388" y="322.4" width="208.167" height="456.44" stroke="black" stroke-width="3.2"/>
<rect x="110.956" y="322.4" width="166.431" height="282.065" stroke="black" stroke-width="3.2"/>
<rect x="794.612" y="322.4" width="166.431" height="282.065" stroke="black" stroke-width="3.2"/>
<rect x="317.5" y="464.794" width="72.7193" height="72.7193" rx="27.6697" stroke="black" stroke-width="3.2"/>
<rect x="39.6" y="39.8061" width="73.6" height="73.6" rx="20.8" stroke="black" stroke-width="3.2"/>
<path d="M81.7341 56.2393V95.606H76.9671V61.237H76.7364L67.1254 67.6187V62.7748L76.9671 56.2393H81.7341Z" fill="black"/>
<path d="M717.122 236.154C716.273 235.305 714.898 235.305 714.049 236.154L700.224 249.979C699.375 250.828 699.375 252.203 700.224 253.052C701.072 253.9 702.448 253.9 703.296 253.052L715.585 240.762L727.875 253.052C728.723 253.9 730.099 253.9 730.947 253.052C731.796 252.203 731.796 250.828 730.947 249.979L717.122 236.154ZM717.758 449.706L717.758 237.69L713.413 237.69L713.413 449.706L717.758 449.706Z" fill="black"/>
<rect x="673.171" y="449.706" width="85.8294" height="95.589" rx="21.7248" fill="black"/>
<path d="M712.479 504.224V504.02C712.502 501.859 712.728 500.139 713.158 498.861C713.588 497.582 714.199 496.547 714.991 495.755C715.783 494.963 716.733 494.233 717.842 493.565C718.51 493.158 719.11 492.677 719.641 492.122C720.173 491.557 720.592 490.906 720.897 490.171C721.214 489.435 721.373 488.62 721.373 487.727C721.373 486.618 721.112 485.656 720.592 484.841C720.071 484.027 719.376 483.399 718.504 482.957C717.633 482.516 716.666 482.295 715.602 482.295C714.674 482.295 713.78 482.488 712.92 482.872C712.06 483.257 711.342 483.863 710.765 484.689C710.188 485.515 709.854 486.595 709.763 487.93H705.486C705.577 486.007 706.075 484.36 706.98 482.991C707.896 481.622 709.102 480.576 710.595 479.851C712.1 479.127 713.769 478.765 715.602 478.765C717.593 478.765 719.325 479.161 720.796 479.953C722.278 480.745 723.421 481.831 724.224 483.212C725.039 484.592 725.446 486.165 725.446 487.93C725.446 489.175 725.254 490.301 724.869 491.308C724.496 492.315 723.952 493.214 723.24 494.006C722.538 494.798 721.689 495.5 720.694 496.111C719.698 496.733 718.9 497.39 718.301 498.08C717.701 498.759 717.265 499.568 716.994 500.507C716.722 501.446 716.575 502.617 716.552 504.02V504.224H712.479ZM714.652 514.272C713.814 514.272 713.096 513.972 712.496 513.372C711.896 512.772 711.596 512.054 711.596 511.217C711.596 510.379 711.896 509.661 712.496 509.061C713.096 508.461 713.814 508.161 714.652 508.161C715.489 508.161 716.207 508.461 716.807 509.061C717.407 509.661 717.707 510.379 717.707 511.217C717.707 511.771 717.565 512.28 717.282 512.744C717.011 513.208 716.643 513.581 716.179 513.864C715.726 514.136 715.217 514.272 714.652 514.272Z" fill="white"/>
<path d="M714.049 758.846C714.898 759.695 716.273 759.695 717.122 758.846L730.947 745.021C731.796 744.172 731.796 742.797 730.947 741.948C730.099 741.1 728.723 741.1 727.875 741.948L715.585 754.238L703.296 741.948C702.448 741.1 701.072 741.1 700.224 741.948C699.375 742.797 699.375 744.172 700.224 745.021L714.049 758.846ZM717.758 757.31L717.758 545.294L713.413 545.294L713.413 757.31L717.758 757.31Z" fill="black"/>
<path d="M193.87 228.8L872.27 228.8" stroke="black" stroke-width="4.34495" stroke-linecap="round" stroke-dasharray="26.07 26.07"/>
</g>
<defs>
<clipPath id="clip0_3223_21898">
<rect width="1072" height="768" fill="white"/>
</clipPath>
</defs>
</svg>
