<svg width="1208" height="937" viewBox="0 0 1208 937" fill="none" xmlns="http://www.w3.org/2000/svg">
<g clip-path="url(#clip0_3114_15813)">
<rect width="1208" height="936" transform="translate(0 0.515625)" fill="#EDEDED"/>
<g clip-path="url(#clip1_3114_15813)">
<rect width="1376" height="794.769" transform="translate(-348 91.5156)" fill="white"/>
<rect width="1921.7" height="794.768" transform="translate(-387.422 91.5156)" fill="#DFDBD8"/>
<path fill-rule="evenodd" clip-rule="evenodd" d="M615.902 376.897H809.387V707.769H615.902V376.897Z" fill="#F5F5F5" stroke="#555555" stroke-width="1.34479"/>
<path d="M634.22 395.22H791.069V689.455H634.22V395.22Z" fill="#B5DADA" stroke="#555555" stroke-width="1.14489"/>
<rect x="611.844" y="707.68" width="200.355" height="4.57954" fill="#555555"/>
<g opacity="0.3">
<path d="M611.844 712.259H812.199L802.168 725.998H601.541L611.844 712.259Z" fill="#A0A0A0"/>
<path d="M601.541 725.998L611.844 712.259V707.68L601.541 721.418V725.998Z" fill="#A0A0A0"/>
</g>
<rect x="-387.422" y="789.46" width="1921.7" height="96.8246" fill="#888585"/>
<rect x="-387.422" y="91.5156" width="1921.7" height="17.4822" fill="#888585"/>
<rect width="274.336" height="508.329" transform="translate(159.906 377.955)" fill="#F5F5F5"/>
<path d="M267.429 479.622H402.472V864.544H267.429V479.622Z" fill="#B5DADA"/>
<path d="M227.06 479.622H192.562V865.889H227.06V479.622Z" fill="#B5DADA"/>
<path d="M192.146 396.257V438.989H401.578V396.257H192.146Z" fill="#B5DADA"/>
<path d="M247.282 885.713H422.811V459.289M247.282 885.713H171.379V459.289M247.282 885.713V459.289M247.282 459.289H171.379M247.282 459.289H422.811M171.379 459.289V378.528M422.811 459.289V378.528M160.578 378.528H433.569V885.713H160.578V378.528ZM267.429 479.622H402.472V864.544H267.429V479.622ZM227.06 479.622H192.562V865.889H227.06V479.622ZM192.146 438.989V396.257H401.578V438.989H192.146Z" stroke="#555555" stroke-width="1.34479"/>
<circle cx="257.403" cy="702.72" r="6.05154" fill="#F5F5F5" stroke="#555555" stroke-width="1.34479"/>
<path d="M410.709 539.329C410.709 537.473 412.214 535.967 414.07 535.967H425.501V546.726H414.07C412.214 546.726 410.709 545.22 410.709 543.364V539.329Z" fill="#F5F5F5" stroke="#555555" stroke-width="1.34479"/>
<path d="M416.088 546.726H427.519C429.375 546.726 430.881 548.231 430.881 550.088V554.122C430.881 555.979 429.375 557.484 427.519 557.484H416.088V546.726Z" fill="#F5F5F5" stroke="#555555" stroke-width="1.34479"/>
<path d="M416.088 525.21H427.519C429.375 525.21 430.881 526.715 430.881 528.571V532.606C430.881 534.463 429.375 535.968 427.519 535.968H416.088V525.21Z" fill="#F5F5F5" stroke="#555555" stroke-width="1.34479"/>
<path d="M410.709 606.569C410.709 604.712 412.214 603.207 414.07 603.207H425.501V613.965H414.07C412.214 613.965 410.709 612.46 410.709 610.603V606.569Z" fill="#F5F5F5" stroke="#555555" stroke-width="1.34479"/>
<path d="M416.088 613.965H427.519C429.375 613.965 430.881 615.471 430.881 617.327V621.362C430.881 623.218 429.375 624.724 427.519 624.724H416.088V613.965Z" fill="#F5F5F5" stroke="#555555" stroke-width="1.34479"/>
<path d="M416.088 592.449H427.519C429.375 592.449 430.881 593.954 430.881 595.811V599.845C430.881 601.702 429.375 603.207 427.519 603.207H416.088V592.449Z" fill="#F5F5F5" stroke="#555555" stroke-width="1.34479"/>
<path d="M410.709 820.39C410.709 818.533 412.214 817.028 414.07 817.028H425.501V827.786H414.07C412.214 827.786 410.709 826.281 410.709 824.424V820.39Z" fill="#F5F5F5" stroke="#555555" stroke-width="1.34479"/>
<path d="M416.088 827.786H427.519C429.375 827.786 430.881 829.291 430.881 831.148V835.182C430.881 837.039 429.375 838.544 427.519 838.544H416.088V827.786Z" fill="#F5F5F5" stroke="#555555" stroke-width="1.34479"/>
<path d="M416.088 806.269H427.519C429.375 806.269 430.881 807.774 430.881 809.631V813.665C430.881 815.522 429.375 817.027 427.519 817.027H416.088V806.269Z" fill="#F5F5F5" stroke="#555555" stroke-width="1.34479"/>
<rect x="160.578" y="373.249" width="272.992" height="5.37914" fill="#F5F5F5" stroke="#555555" stroke-width="1.34479"/>
<path d="M278.919 792.132V796.855H260.092V792.132H278.919ZM260.092 550.103V545.38H278.919V550.103H260.092Z" fill="#F5F5F5" stroke="#555555" stroke-width="1.34479"/>
<path d="M274.885 490.245H281.609V851.992H274.885V796.856V790.804V550.76V544.708V490.245Z" fill="#F5F5F5" stroke="#555555" stroke-width="1.34479"/>
<rect x="-25.0078" y="162.727" width="626.913" height="108.089" fill="#D9D9D9"/>
<path d="M619.712 165.277H-7.20144L-38.9922 220.341H587.921L619.712 165.277Z" fill="#B2B2B2"/>
<path d="M-7.20144 272.094H619.712L587.921 327.157H-38.9922L-7.20144 272.094Z" fill="#B2B2B2"/>
<rect x="-7.20117" y="165.277" width="626.913" height="106.817" fill="#EDEDED"/>
</g>
<path d="M991.927 568.373H864.243L844 549.696L864.243 530.516H991.927V568.373Z" fill="#FF00CC"/>
<path d="M914.811 544.737C913.528 544.737 912.369 545.126 911.38 545.796V539.691H908.644V550.951C908.644 554.378 911.411 557.134 914.795 557.134C918.179 557.134 920.977 554.393 920.977 550.92C920.977 547.446 918.242 544.737 914.811 544.737ZM900.608 544.923C897.564 545.235 895.076 547.883 895.076 551.028C895.076 554.361 897.904 557.149 901.211 557.149C904.517 557.149 907.346 554.361 907.346 551.028C907.346 549.61 906.836 548.302 906.016 547.274L899.958 539.706H896.419L900.607 544.923H900.608ZM879.436 551.744L876.932 545.172H875.016L872.497 551.744L869.978 545.172H866.996L871.4 556.728H873.316L875.959 549.844L878.617 556.728H880.533L884.922 545.172H881.955L879.436 551.744ZM928.394 544.751C924.979 544.751 922.213 547.43 922.213 550.809C922.213 554.189 924.639 557.148 928.24 557.148C930.404 557.148 932.149 556.105 933.386 554.314L931.253 552.57C930.635 553.691 929.445 554.346 928.255 554.346C926.71 554.346 925.195 553.24 925.071 551.62H934.019V550.779C934.019 547.243 931.702 544.752 928.394 544.752V544.751ZM963.32 544.751C959.905 544.751 957.154 547.43 957.154 550.966C957.154 554.283 959.58 557.149 963.166 557.149C965.329 557.149 967.076 556.105 968.312 554.315L966.426 552.711C965.762 553.739 964.556 554.346 963.119 554.346C961.682 554.346 960.137 553.24 960.013 551.62H968.93V550.655C968.93 547.243 966.627 544.752 963.32 544.752V544.751ZM972.902 548.551C972.902 547.835 973.875 547.259 975.143 547.259C976.411 547.259 977.816 547.897 978.728 548.925L980.382 546.885C978.805 545.483 977.214 544.751 975.22 544.751C972.732 544.751 970.167 545.904 970.167 548.551C970.167 551.806 972.948 552.04 975.22 552.227C976.487 552.32 977.615 552.413 977.615 553.255C977.615 554.158 976.332 554.579 975.204 554.579C973.891 554.579 972.469 554.018 971.434 552.757L969.672 554.642C971.079 556.371 973.118 557.134 975.112 557.134C977.615 557.134 980.351 555.935 980.351 553.194C980.351 550.095 977.538 549.799 975.375 549.581C974.014 549.441 972.901 549.316 972.901 548.553H972.902V548.551ZM938.176 547.803V545.171H935.441V556.712H938.176V551.837C938.547 549.112 940.695 548.022 943.184 548.022V545.172H942.905C940.804 545.172 939.274 545.95 938.176 547.804V547.803ZM946.862 547.803V545.171H944.126V556.712H946.862V551.837C947.232 548.769 949.86 548.022 951.869 548.022V545.172H951.575C949.504 545.172 947.944 545.935 946.862 547.804V547.803ZM890.933 556.712H893.669V539.706H890.933V556.714V556.712ZM901.226 554.376C899.34 554.376 897.811 552.85 897.811 550.949C897.811 549.049 899.34 547.508 901.211 547.508C903.081 547.508 904.657 549.034 904.657 550.949C904.657 552.864 903.112 554.376 901.226 554.376ZM914.795 554.376C912.94 554.376 911.38 552.881 911.38 550.934C911.38 548.987 912.848 547.508 914.811 547.508C916.773 547.508 918.242 549.05 918.242 550.934C918.242 552.818 916.681 554.376 914.795 554.376ZM886.205 556.712H888.94V545.172H886.205V556.713V556.712ZM953.044 556.712H955.779V545.172H953.044V556.713V556.712ZM887.534 539.566C886.421 539.566 885.494 540.501 885.494 541.685C885.494 542.868 886.468 543.694 887.534 543.694C888.724 543.694 889.621 542.697 889.621 541.622C889.621 540.548 888.678 539.566 887.534 539.566ZM954.404 539.566C953.291 539.566 952.348 540.501 952.348 541.669C952.348 542.837 953.26 543.678 954.45 543.678C955.64 543.678 956.459 542.852 956.459 541.716C956.459 540.579 955.532 539.566 954.404 539.566H954.404ZM960.339 549.317C960.787 548.18 961.761 547.51 963.198 547.51C964.635 547.51 965.5 548.211 965.871 549.317H960.339ZM925.397 549.317C925.861 548.18 926.819 547.51 928.24 547.51C929.662 547.51 930.589 548.211 930.96 549.317H925.396H925.397Z" fill="white"/>
<path d="M1028 549.516H1181" stroke="black" stroke-width="2" stroke-linecap="round" stroke-dasharray="12 12"/>
<path d="M1121.71 552.809C1121.32 552.418 1120.68 552.418 1120.29 552.809L1113.93 559.172C1113.54 559.563 1113.54 560.196 1113.93 560.587C1114.32 560.977 1114.95 560.977 1115.34 560.587L1121 554.93L1126.66 560.587C1127.05 560.977 1127.68 560.977 1128.07 560.587C1128.46 560.196 1128.46 559.563 1128.07 559.172L1121.71 552.809ZM1122 695.516L1122 553.516L1120 553.516L1120 695.516L1122 695.516Z" fill="black"/>
<rect x="1062" y="695.516" width="119" height="44" rx="10" fill="black"/>
<path d="M1083.28 709.516V725.516H1081.34V711.547H1081.25L1077.34 714.141V712.172L1081.34 709.516H1083.28ZM1093.2 725.734C1092.54 725.724 1091.88 725.599 1091.23 725.359C1090.57 725.12 1089.97 724.716 1089.43 724.148C1088.89 723.576 1088.45 722.802 1088.13 721.828C1087.8 720.849 1087.63 719.62 1087.63 718.141C1087.63 716.724 1087.77 715.469 1088.03 714.375C1088.3 713.276 1088.68 712.352 1089.19 711.602C1089.69 710.846 1090.3 710.273 1091.02 709.883C1091.73 709.492 1092.54 709.297 1093.45 709.297C1094.34 709.297 1095.14 709.477 1095.84 709.836C1096.54 710.19 1097.11 710.685 1097.55 711.32C1098 711.956 1098.28 712.687 1098.41 713.516H1096.51C1096.33 712.797 1095.99 712.201 1095.48 711.727C1094.97 711.253 1094.29 711.016 1093.45 711.016C1092.21 711.016 1091.23 711.555 1090.52 712.633C1089.81 713.711 1089.45 715.224 1089.45 717.172H1089.57C1089.86 716.729 1090.21 716.352 1090.61 716.039C1091.02 715.721 1091.46 715.477 1091.95 715.305C1092.44 715.133 1092.96 715.047 1093.51 715.047C1094.42 715.047 1095.26 715.276 1096.02 715.734C1096.78 716.187 1097.39 716.815 1097.85 717.617C1098.31 718.414 1098.54 719.328 1098.54 720.359C1098.54 721.349 1098.32 722.255 1097.88 723.078C1097.43 723.896 1096.81 724.547 1096.01 725.031C1095.21 725.51 1094.27 725.745 1093.2 725.734ZM1093.2 724.016C1093.85 724.016 1094.44 723.852 1094.96 723.523C1095.49 723.195 1095.9 722.755 1096.2 722.203C1096.51 721.651 1096.66 721.036 1096.66 720.359C1096.66 719.698 1096.52 719.096 1096.22 718.555C1095.93 718.008 1095.52 717.573 1095.01 717.25C1094.5 716.927 1093.91 716.766 1093.26 716.766C1092.76 716.766 1092.3 716.865 1091.87 717.062C1091.45 717.255 1091.07 717.521 1090.75 717.859C1090.43 718.198 1090.18 718.586 1090 719.023C1089.82 719.456 1089.73 719.911 1089.73 720.391C1089.73 721.026 1089.87 721.62 1090.17 722.172C1090.47 722.724 1090.89 723.169 1091.41 723.508C1091.93 723.846 1092.53 724.016 1093.2 724.016ZM1106.61 725.734C1105.69 725.734 1104.87 725.552 1104.13 725.187C1103.4 724.823 1102.81 724.323 1102.37 723.687C1101.93 723.052 1101.68 722.328 1101.64 721.516H1103.52C1103.59 722.24 1103.92 722.839 1104.5 723.312C1105.09 723.781 1105.79 724.016 1106.61 724.016C1107.27 724.016 1107.85 723.862 1108.36 723.555C1108.88 723.247 1109.28 722.826 1109.57 722.289C1109.87 721.747 1110.02 721.135 1110.02 720.453C1110.02 719.755 1109.86 719.133 1109.56 718.586C1109.25 718.034 1108.84 717.599 1108.31 717.281C1107.78 716.964 1107.17 716.802 1106.49 716.797C1106 716.792 1105.49 716.867 1104.98 717.023C1104.46 717.174 1104.04 717.37 1103.71 717.609L1101.89 717.391L1102.86 709.516H1111.17V711.234H1104.49L1103.92 715.953H1104.02C1104.35 715.693 1104.76 715.477 1105.25 715.305C1105.75 715.133 1106.26 715.047 1106.8 715.047C1107.78 715.047 1108.65 715.281 1109.42 715.75C1110.19 716.214 1110.79 716.849 1111.23 717.656C1111.67 718.464 1111.89 719.385 1111.89 720.422C1111.89 721.443 1111.66 722.354 1111.21 723.156C1110.75 723.953 1110.13 724.583 1109.33 725.047C1108.53 725.505 1107.63 725.734 1106.61 725.734ZM1120.21 725.734C1119.04 725.734 1118.04 725.414 1117.21 724.773C1116.38 724.128 1115.75 723.193 1115.31 721.969C1114.87 720.74 1114.65 719.255 1114.65 717.516C1114.65 715.786 1114.87 714.31 1115.31 713.086C1115.75 711.857 1116.39 710.919 1117.21 710.273C1118.05 709.622 1119.05 709.297 1120.21 709.297C1121.38 709.297 1122.38 709.622 1123.21 710.273C1124.04 710.919 1124.68 711.857 1125.11 713.086C1125.56 714.31 1125.78 715.786 1125.78 717.516C1125.78 719.255 1125.56 720.74 1125.12 721.969C1124.68 723.193 1124.05 724.128 1123.22 724.773C1122.39 725.414 1121.39 725.734 1120.21 725.734ZM1120.21 724.016C1121.38 724.016 1122.29 723.453 1122.93 722.328C1123.58 721.203 1123.9 719.599 1123.9 717.516C1123.9 716.13 1123.75 714.951 1123.46 713.977C1123.17 713.003 1122.74 712.26 1122.19 711.75C1121.64 711.24 1120.99 710.984 1120.21 710.984C1119.06 710.984 1118.15 711.555 1117.5 712.695C1116.85 713.831 1116.53 715.437 1116.53 717.516C1116.53 718.901 1116.67 720.078 1116.96 721.047C1117.26 722.016 1117.68 722.753 1118.22 723.258C1118.77 723.763 1119.44 724.016 1120.21 724.016ZM1141.53 723.016L1145.71 713.516H1147.46L1142.28 725.516H1140.78L1135.68 713.516H1137.4L1141.53 723.016ZM1136.81 713.516V725.516H1134.96V713.516H1136.81ZM1146.25 725.516V713.516H1148.09V725.516H1146.25ZM1158.03 723.016L1162.21 713.516H1163.96L1158.78 725.516H1157.28L1152.18 713.516H1153.9L1158.03 723.016ZM1153.31 713.516V725.516H1151.46V713.516H1153.31ZM1162.75 725.516V713.516H1164.59V725.516H1162.75Z" fill="#E8E4EC"/>
<path d="M1120.29 882.223C1120.68 882.613 1121.32 882.613 1121.71 882.223L1128.07 875.859C1128.46 875.468 1128.46 874.835 1128.07 874.445C1127.68 874.054 1127.05 874.054 1126.66 874.445L1121 880.101L1115.34 874.445C1114.95 874.054 1114.32 874.054 1113.93 874.445C1113.54 874.835 1113.54 875.468 1113.93 875.859L1120.29 882.223ZM1122 881.516L1122 739.516L1120 739.516L1120 881.516L1122 881.516Z" fill="black"/>
<path d="M1028 885.516H1181" stroke="black" stroke-width="2" stroke-linecap="round" stroke-dasharray="12 12"/>
</g>
<defs>
<clipPath id="clip0_3114_15813">
<rect width="1208" height="936" fill="white" transform="translate(0 0.515625)"/>
</clipPath>
<clipPath id="clip1_3114_15813">
<rect width="1376" height="794.769" fill="white" transform="translate(-348 91.5156)"/>
</clipPath>
</defs>
</svg>
