<svg width="1208" height="985" viewBox="0 0 1208 985" fill="none" xmlns="http://www.w3.org/2000/svg">
<rect width="1208" height="984" transform="translate(0 0.515625)" fill="#EDEDED"/>
<path d="M1054 168.332H154V382.099H1054V168.332Z" fill="#FF00CC"/>
<mask id="path-2-inside-1_3114_14617" fill="white">
<path d="M482.602 248.277C475.36 248.277 468.816 250.476 463.229 254.257V219.786H447.784V283.367C447.784 302.717 463.404 318.281 482.514 318.281C501.623 318.281 517.419 302.804 517.419 283.191C517.419 263.578 501.974 248.277 482.602 248.277ZM402.407 249.33C385.215 251.091 371.166 266.041 371.166 283.801C371.166 302.62 387.138 318.365 405.808 318.365C424.479 318.365 440.45 302.624 440.45 283.801C440.45 275.797 437.571 268.412 432.945 262.608L398.737 219.869H378.755L402.402 249.33H402.407ZM282.856 287.845L268.72 250.735H257.901L243.676 287.845L229.452 250.735H212.611L237.484 315.989H248.302L263.225 277.119L278.235 315.989H289.054L313.833 250.735H297.081L282.856 287.845ZM559.303 248.36C540.018 248.36 524.397 263.486 524.397 282.567C524.397 301.649 538.1 318.36 558.429 318.36C570.648 318.36 580.506 312.468 587.488 302.356L575.445 292.508C571.956 298.839 565.237 302.536 558.517 302.536C549.792 302.536 541.238 296.293 540.54 287.147H591.065V282.396C591.065 262.432 577.978 248.365 559.303 248.365V248.36ZM756.516 248.36C737.23 248.36 721.698 263.486 721.698 283.45C721.698 302.181 735.396 318.365 755.642 318.365C767.856 318.365 777.718 312.472 784.701 302.361L774.054 293.303C770.301 299.107 763.494 302.536 755.379 302.536C747.263 302.536 738.538 296.293 737.84 287.147H788.19V281.694C788.19 262.432 775.186 248.365 756.516 248.365V248.36ZM810.618 269.817C810.618 265.773 816.113 262.52 823.271 262.52C830.43 262.52 838.365 266.124 843.518 271.929L852.853 260.408C843.952 252.491 834.963 248.36 823.706 248.36C809.657 248.36 795.173 254.867 795.173 269.817C795.173 288.196 810.877 289.518 823.706 290.572C830.86 291.098 837.233 291.625 837.233 296.376C837.233 301.478 829.986 303.853 823.618 303.853C816.201 303.853 808.173 300.688 802.327 293.566L792.377 304.209C800.322 313.97 811.838 318.281 823.096 318.281C837.232 318.281 852.677 311.511 852.677 296.034C852.677 278.533 836.794 276.86 824.579 275.631C816.898 274.84 810.613 274.133 810.613 269.826H810.618V269.817ZM614.537 265.593V250.731H599.093V315.897H614.537V288.372C616.631 272.983 628.762 266.827 642.811 266.827V250.735H641.24C629.372 250.735 620.735 255.13 614.537 265.598V265.593ZM663.58 265.593V250.731H648.135V315.897H663.58V288.372C665.673 271.046 680.508 266.827 691.853 266.827V250.735H690.194C678.502 250.735 669.689 255.042 663.58 265.598V265.593ZM347.777 315.897H363.222V219.864H347.777V315.897ZM405.896 302.707C395.248 302.707 386.611 294.088 386.611 283.358C386.611 272.627 395.248 263.925 405.808 263.925C416.368 263.925 425.269 272.544 425.269 283.358C425.269 294.172 416.544 302.707 405.896 302.707ZM482.514 302.707C472.042 302.707 463.229 294.264 463.229 283.27C463.229 272.276 471.52 263.925 482.602 263.925C493.684 263.925 501.974 272.631 501.974 283.27C501.974 293.908 493.161 302.707 482.514 302.707ZM321.08 315.897H336.524V250.735H321.08V315.901V315.897ZM698.489 315.897H713.934V250.735H698.489V315.901V315.897ZM328.585 219.074C322.3 219.074 317.064 224.352 317.064 231.034C317.064 237.717 322.563 242.38 328.585 242.38C335.304 242.38 340.365 236.751 340.365 230.683C340.365 224.615 335.041 219.074 328.585 219.074ZM706.17 219.074C699.885 219.074 694.561 224.352 694.561 230.947C694.561 237.541 699.709 242.292 706.429 242.292C713.148 242.292 717.774 237.629 717.774 231.21C717.774 224.791 712.538 219.074 706.166 219.074H706.17ZM739.68 274.129C742.208 267.71 747.707 263.929 755.822 263.929C763.937 263.929 768.822 267.885 770.916 274.129H739.68ZM542.379 274.129C545 267.71 550.407 263.929 558.434 263.929C566.461 263.929 571.697 267.885 573.791 274.129H542.375H542.379Z"/>
</mask>
<path d="M482.602 248.277C475.36 248.277 468.816 250.476 463.229 254.257V219.786H447.784V283.367C447.784 302.717 463.404 318.281 482.514 318.281C501.623 318.281 517.419 302.804 517.419 283.191C517.419 263.578 501.974 248.277 482.602 248.277ZM402.407 249.33C385.215 251.091 371.166 266.041 371.166 283.801C371.166 302.62 387.138 318.365 405.808 318.365C424.479 318.365 440.45 302.624 440.45 283.801C440.45 275.797 437.571 268.412 432.945 262.608L398.737 219.869H378.755L402.402 249.33H402.407ZM282.856 287.845L268.72 250.735H257.901L243.676 287.845L229.452 250.735H212.611L237.484 315.989H248.302L263.225 277.119L278.235 315.989H289.054L313.833 250.735H297.081L282.856 287.845ZM559.303 248.36C540.018 248.36 524.397 263.486 524.397 282.567C524.397 301.649 538.1 318.36 558.429 318.36C570.648 318.36 580.506 312.468 587.488 302.356L575.445 292.508C571.956 298.839 565.237 302.536 558.517 302.536C549.792 302.536 541.238 296.293 540.54 287.147H591.065V282.396C591.065 262.432 577.978 248.365 559.303 248.365V248.36ZM756.516 248.36C737.23 248.36 721.698 263.486 721.698 283.45C721.698 302.181 735.396 318.365 755.642 318.365C767.856 318.365 777.718 312.472 784.701 302.361L774.054 293.303C770.301 299.107 763.494 302.536 755.379 302.536C747.263 302.536 738.538 296.293 737.84 287.147H788.19V281.694C788.19 262.432 775.186 248.365 756.516 248.365V248.36ZM810.618 269.817C810.618 265.773 816.113 262.52 823.271 262.52C830.43 262.52 838.365 266.124 843.518 271.929L852.853 260.408C843.952 252.491 834.963 248.36 823.706 248.36C809.657 248.36 795.173 254.867 795.173 269.817C795.173 288.196 810.877 289.518 823.706 290.572C830.86 291.098 837.233 291.625 837.233 296.376C837.233 301.478 829.986 303.853 823.618 303.853C816.201 303.853 808.173 300.688 802.327 293.566L792.377 304.209C800.322 313.97 811.838 318.281 823.096 318.281C837.232 318.281 852.677 311.511 852.677 296.034C852.677 278.533 836.794 276.86 824.579 275.631C816.898 274.84 810.613 274.133 810.613 269.826H810.618V269.817ZM614.537 265.593V250.731H599.093V315.897H614.537V288.372C616.631 272.983 628.762 266.827 642.811 266.827V250.735H641.24C629.372 250.735 620.735 255.13 614.537 265.598V265.593ZM663.58 265.593V250.731H648.135V315.897H663.58V288.372C665.673 271.046 680.508 266.827 691.853 266.827V250.735H690.194C678.502 250.735 669.689 255.042 663.58 265.598V265.593ZM347.777 315.897H363.222V219.864H347.777V315.897ZM405.896 302.707C395.248 302.707 386.611 294.088 386.611 283.358C386.611 272.627 395.248 263.925 405.808 263.925C416.368 263.925 425.269 272.544 425.269 283.358C425.269 294.172 416.544 302.707 405.896 302.707ZM482.514 302.707C472.042 302.707 463.229 294.264 463.229 283.27C463.229 272.276 471.52 263.925 482.602 263.925C493.684 263.925 501.974 272.631 501.974 283.27C501.974 293.908 493.161 302.707 482.514 302.707ZM321.08 315.897H336.524V250.735H321.08V315.901V315.897ZM698.489 315.897H713.934V250.735H698.489V315.901V315.897ZM328.585 219.074C322.3 219.074 317.064 224.352 317.064 231.034C317.064 237.717 322.563 242.38 328.585 242.38C335.304 242.38 340.365 236.751 340.365 230.683C340.365 224.615 335.041 219.074 328.585 219.074ZM706.17 219.074C699.885 219.074 694.561 224.352 694.561 230.947C694.561 237.541 699.709 242.292 706.429 242.292C713.148 242.292 717.774 237.629 717.774 231.21C717.774 224.791 712.538 219.074 706.166 219.074H706.17ZM739.68 274.129C742.208 267.71 747.707 263.929 755.822 263.929C763.937 263.929 768.822 267.885 770.916 274.129H739.68ZM542.379 274.129C545 267.71 550.407 263.929 558.434 263.929C566.461 263.929 571.697 267.885 573.791 274.129H542.375H542.379Z" fill="white" stroke="white" stroke-width="0.924276" mask="url(#path-2-inside-1_3114_14617)"/>
<path d="M940.998 326.385L940.998 240.367" stroke="white" stroke-width="12.9399" stroke-miterlimit="10"/>
<path d="M908.171 273.098L941.001 240.346L973.748 273.098" stroke="white" stroke-width="12.9399" stroke-miterlimit="10"/>
<path d="M591.861 585.332H154V689.332H591.861V585.332Z" fill="#FF00CC"/>
<mask id="path-6-inside-2_3114_14617" fill="white">
<path d="M380.014 624.402C376.491 624.402 373.307 625.472 370.589 627.311V610.541H363.075V641.474C363.075 650.888 370.674 658.46 379.971 658.46C389.268 658.46 396.953 650.93 396.953 641.388C396.953 631.846 389.439 624.402 380.014 624.402ZM340.998 624.915C332.634 625.771 325.799 633.045 325.799 641.685C325.799 650.841 333.569 658.501 342.653 658.501C351.736 658.501 359.506 650.843 359.506 641.685C359.506 637.791 358.106 634.198 355.855 631.374L339.213 610.581H329.491L340.996 624.915H340.998ZM282.835 643.653L275.957 625.598H270.694L263.774 643.653L256.853 625.598H248.66L260.761 657.345H266.024L273.284 638.434L280.587 657.345H285.85L297.906 625.598H289.756L282.835 643.653ZM417.33 624.443C407.947 624.443 400.348 631.801 400.348 641.085C400.348 650.368 407.014 658.498 416.905 658.498C422.849 658.498 427.645 655.632 431.042 650.712L425.183 645.921C423.486 649.001 420.217 650.8 416.947 650.8C412.703 650.8 408.541 647.763 408.201 643.313H432.783V641.002C432.783 631.289 426.415 624.445 417.33 624.445V624.443ZM513.276 624.443C503.894 624.443 496.337 631.801 496.337 641.514C496.337 650.627 503.001 658.501 512.851 658.501C518.794 658.501 523.592 655.634 526.989 650.715L521.809 646.308C519.983 649.132 516.671 650.8 512.723 650.8C508.775 650.8 504.53 647.763 504.191 643.313H528.686V640.66C528.686 631.289 522.359 624.445 513.276 624.445V624.443ZM539.598 634.882C539.598 632.914 542.271 631.332 545.754 631.332C549.236 631.332 553.097 633.085 555.604 635.909L560.145 630.304C555.815 626.453 551.442 624.443 545.965 624.443C539.13 624.443 532.084 627.608 532.084 634.882C532.084 643.823 539.724 644.466 545.965 644.979C549.445 645.235 552.546 645.492 552.546 647.803C552.546 650.285 549.021 651.441 545.922 651.441C542.314 651.441 538.408 649.901 535.564 646.436L530.723 651.614C534.588 656.362 540.191 658.46 545.668 658.46C552.546 658.46 560.06 655.166 560.06 647.637C560.06 639.122 552.332 638.308 546.39 637.71C542.653 637.326 539.595 636.982 539.595 634.886H539.598V634.882ZM444.202 632.827V625.596H436.688V657.3H444.202V643.909C445.221 636.422 451.123 633.427 457.958 633.427V625.598H457.193C451.419 625.598 447.217 627.736 444.202 632.829V632.827ZM468.062 632.827V625.596H460.548V657.3H468.062V643.909C469.08 635.48 476.297 633.427 481.817 633.427V625.598H481.01C475.322 625.598 471.034 627.694 468.062 632.829V632.827ZM314.42 657.3H321.934V610.584H314.42V657.305V657.3ZM342.695 650.883C337.515 650.883 333.313 646.69 333.313 641.469C333.313 636.249 337.515 632.015 342.653 632.015C347.79 632.015 352.121 636.208 352.121 641.469C352.121 646.731 347.876 650.883 342.695 650.883ZM379.971 650.883C374.876 650.883 370.589 646.775 370.589 641.427C370.589 636.078 374.622 632.015 380.014 632.015C385.405 632.015 389.439 636.251 389.439 641.427C389.439 646.602 385.151 650.883 379.971 650.883ZM301.431 657.3H308.945V625.598H301.431V657.302V657.3ZM485.046 657.3H492.56V625.598H485.046V657.302V657.3ZM305.083 610.199C302.025 610.199 299.478 612.767 299.478 616.018C299.478 619.269 302.153 621.538 305.083 621.538C308.352 621.538 310.814 618.799 310.814 615.847C310.814 612.895 308.224 610.199 305.083 610.199ZM488.783 610.199C485.725 610.199 483.135 612.767 483.135 615.975C483.135 619.184 485.639 621.495 488.908 621.495C492.178 621.495 494.428 619.226 494.428 616.103C494.428 612.98 491.881 610.199 488.78 610.199H488.783ZM505.085 636.984C506.315 633.861 508.991 632.022 512.939 632.022C516.887 632.022 519.263 633.946 520.282 636.984H505.085ZM409.096 636.984C410.371 633.861 413.002 632.022 416.907 632.022C420.812 632.022 423.36 633.946 424.378 636.984H409.094H409.096Z"/>
</mask>
<path d="M380.014 624.402C376.491 624.402 373.307 625.472 370.589 627.311V610.541H363.075V641.474C363.075 650.888 370.674 658.46 379.971 658.46C389.268 658.46 396.953 650.93 396.953 641.388C396.953 631.846 389.439 624.402 380.014 624.402ZM340.998 624.915C332.634 625.771 325.799 633.045 325.799 641.685C325.799 650.841 333.569 658.501 342.653 658.501C351.736 658.501 359.506 650.843 359.506 641.685C359.506 637.791 358.106 634.198 355.855 631.374L339.213 610.581H329.491L340.996 624.915H340.998ZM282.835 643.653L275.957 625.598H270.694L263.774 643.653L256.853 625.598H248.66L260.761 657.345H266.024L273.284 638.434L280.587 657.345H285.85L297.906 625.598H289.756L282.835 643.653ZM417.33 624.443C407.947 624.443 400.348 631.801 400.348 641.085C400.348 650.368 407.014 658.498 416.905 658.498C422.849 658.498 427.645 655.632 431.042 650.712L425.183 645.921C423.486 649.001 420.217 650.8 416.947 650.8C412.703 650.8 408.541 647.763 408.201 643.313H432.783V641.002C432.783 631.289 426.415 624.445 417.33 624.445V624.443ZM513.276 624.443C503.894 624.443 496.337 631.801 496.337 641.514C496.337 650.627 503.001 658.501 512.851 658.501C518.794 658.501 523.592 655.634 526.989 650.715L521.809 646.308C519.983 649.132 516.671 650.8 512.723 650.8C508.775 650.8 504.53 647.763 504.191 643.313H528.686V640.66C528.686 631.289 522.359 624.445 513.276 624.445V624.443ZM539.598 634.882C539.598 632.914 542.271 631.332 545.754 631.332C549.236 631.332 553.097 633.085 555.604 635.909L560.145 630.304C555.815 626.453 551.442 624.443 545.965 624.443C539.13 624.443 532.084 627.608 532.084 634.882C532.084 643.823 539.724 644.466 545.965 644.979C549.445 645.235 552.546 645.492 552.546 647.803C552.546 650.285 549.021 651.441 545.922 651.441C542.314 651.441 538.408 649.901 535.564 646.436L530.723 651.614C534.588 656.362 540.191 658.46 545.668 658.46C552.546 658.46 560.06 655.166 560.06 647.637C560.06 639.122 552.332 638.308 546.39 637.71C542.653 637.326 539.595 636.982 539.595 634.886H539.598V634.882ZM444.202 632.827V625.596H436.688V657.3H444.202V643.909C445.221 636.422 451.123 633.427 457.958 633.427V625.598H457.193C451.419 625.598 447.217 627.736 444.202 632.829V632.827ZM468.062 632.827V625.596H460.548V657.3H468.062V643.909C469.08 635.48 476.297 633.427 481.817 633.427V625.598H481.01C475.322 625.598 471.034 627.694 468.062 632.829V632.827ZM314.42 657.3H321.934V610.584H314.42V657.305V657.3ZM342.695 650.883C337.515 650.883 333.313 646.69 333.313 641.469C333.313 636.249 337.515 632.015 342.653 632.015C347.79 632.015 352.121 636.208 352.121 641.469C352.121 646.731 347.876 650.883 342.695 650.883ZM379.971 650.883C374.876 650.883 370.589 646.775 370.589 641.427C370.589 636.078 374.622 632.015 380.014 632.015C385.405 632.015 389.439 636.251 389.439 641.427C389.439 646.602 385.151 650.883 379.971 650.883ZM301.431 657.3H308.945V625.598H301.431V657.302V657.3ZM485.046 657.3H492.56V625.598H485.046V657.302V657.3ZM305.083 610.199C302.025 610.199 299.478 612.767 299.478 616.018C299.478 619.269 302.153 621.538 305.083 621.538C308.352 621.538 310.814 618.799 310.814 615.847C310.814 612.895 308.224 610.199 305.083 610.199ZM488.783 610.199C485.725 610.199 483.135 612.767 483.135 615.975C483.135 619.184 485.639 621.495 488.908 621.495C492.178 621.495 494.428 619.226 494.428 616.103C494.428 612.98 491.881 610.199 488.78 610.199H488.783ZM505.085 636.984C506.315 633.861 508.991 632.022 512.939 632.022C516.887 632.022 519.263 633.946 520.282 636.984H505.085ZM409.096 636.984C410.371 633.861 413.002 632.022 416.907 632.022C420.812 632.022 423.36 633.946 424.378 636.984H409.094H409.096Z" fill="white" stroke="white" stroke-width="0.449671" mask="url(#path-6-inside-2_3114_14617)"/>
<path d="M225.396 641.494H185.571" stroke="white" stroke-width="6.2954" stroke-miterlimit="10"/>
<path d="M201.497 625.523L185.562 641.496L201.497 657.43" stroke="white" stroke-width="6.2954" stroke-miterlimit="10"/>
<g clip-path="url(#clip0_3114_14617)">
<path d="M1053.72 585.332H615.861V689.332H1053.72V585.332Z" fill="#FF00CC"/>
<path d="M775.73 624.224C772.207 624.224 769.024 625.295 766.305 627.134V610.363H758.791V641.296C758.791 650.71 766.391 658.282 775.688 658.282C784.985 658.282 792.67 650.753 792.67 641.211C792.67 631.669 785.156 624.224 775.73 624.224ZM736.715 624.737C728.351 625.594 721.516 632.867 721.516 641.507C721.516 650.663 729.286 658.323 738.37 658.323C747.453 658.323 755.223 650.665 755.223 641.507C755.223 637.613 753.822 634.02 751.572 631.197L734.93 610.404H725.208L736.712 624.737H736.715ZM678.552 643.475L671.674 625.42H666.411L659.49 643.475L652.57 625.42H644.377L656.478 657.167H661.741L669.001 638.256L676.304 657.167H681.567L693.623 625.42H685.472L678.552 643.475ZM813.046 624.265C803.664 624.265 796.065 631.624 796.065 640.907C796.065 650.191 802.731 658.321 812.621 658.321C818.566 658.321 823.362 655.454 826.759 650.535L820.9 645.743C819.202 648.824 815.933 650.622 812.664 650.622C808.419 650.622 804.258 647.585 803.918 643.135H828.499V640.824C828.499 631.111 822.132 624.267 813.046 624.267V624.265ZM908.993 624.265C899.61 624.265 892.054 631.624 892.054 641.337C892.054 650.449 898.718 658.323 908.568 658.323C914.51 658.323 919.308 655.456 922.706 650.537L917.525 646.13C915.7 648.954 912.388 650.622 908.44 650.622C904.492 650.622 900.247 647.585 899.907 643.135H924.403V640.482C924.403 631.111 918.076 624.267 908.993 624.267V624.265ZM935.314 634.704C935.314 632.737 937.988 631.154 941.47 631.154C944.953 631.154 948.813 632.908 951.32 635.731L955.862 630.126C951.532 626.275 947.159 624.265 941.682 624.265C934.847 624.265 927.8 627.431 927.8 634.704C927.8 643.646 935.44 644.289 941.682 644.801C945.162 645.058 948.263 645.314 948.263 647.625C948.263 650.107 944.737 651.263 941.639 651.263C938.03 651.263 934.125 649.723 931.281 646.258L926.44 651.436C930.305 656.185 935.908 658.282 941.385 658.282C948.263 658.282 955.777 654.989 955.777 647.459C955.777 638.944 948.049 638.13 942.107 637.532C938.37 637.148 935.312 636.804 935.312 634.708H935.314V634.704ZM839.919 632.649V625.418H832.405V657.122H839.919V643.731C840.937 636.244 846.839 633.249 853.674 633.249V625.42H852.91C847.136 625.42 842.934 627.559 839.919 632.651V632.649ZM863.778 632.649V625.418H856.264V657.122H863.778V643.731C864.797 635.302 872.014 633.249 877.534 633.249V625.42H876.727C871.038 625.42 866.751 627.516 863.778 632.651V632.649ZM710.137 657.122H717.651V610.406H710.137V657.127V657.122ZM738.412 650.706C733.232 650.706 729.03 646.512 729.03 641.292C729.03 636.071 733.232 631.837 738.37 631.837C743.507 631.837 747.837 636.03 747.837 641.292C747.837 646.553 743.592 650.706 738.412 650.706ZM775.688 650.706C770.593 650.706 766.305 646.598 766.305 641.249C766.305 635.9 770.339 631.837 775.73 631.837C781.122 631.837 785.156 636.073 785.156 641.249C785.156 646.425 780.868 650.706 775.688 650.706ZM697.148 657.122H704.662V625.42H697.148V657.125V657.122ZM880.762 657.122H888.276V625.42H880.762V657.125V657.122ZM700.797 610.021C697.739 610.021 695.192 612.589 695.192 615.84C695.192 619.091 697.868 621.36 700.797 621.36C704.066 621.36 706.528 618.621 706.528 615.669C706.528 612.717 703.938 610.021 700.797 610.021ZM884.497 610.021C881.439 610.021 878.849 612.589 878.849 615.798C878.849 619.006 881.354 621.317 884.623 621.317C887.892 621.317 890.143 619.049 890.143 615.926C890.143 612.803 887.595 610.021 884.495 610.021H884.497ZM900.8 636.806C902.03 633.683 904.705 631.844 908.653 631.844C912.601 631.844 914.978 633.769 915.996 636.806H900.8ZM804.811 636.806C806.086 633.683 808.716 631.844 812.621 631.844C816.527 631.844 819.074 633.769 820.093 636.806H804.808H804.811Z" fill="white"/>
<path d="M980.685 640.113L1030.62 640.113" stroke="white" stroke-width="6.2954" stroke-miterlimit="10"/>
<path d="M1015.06 624.141L1030.99 640.113L1015.06 656.045" stroke="white" stroke-width="6.2954" stroke-miterlimit="10"/>
</g>
<path d="M615.861 816.676H966.623L1022.24 765.366L966.623 712.676H615.861V816.676Z" fill="#FF00CC"/>
<path d="M775.729 751.569C772.206 751.569 769.023 752.639 766.304 754.478V737.708H758.79V768.64C758.79 778.054 766.39 785.627 775.687 785.627C784.984 785.627 792.669 778.097 792.669 768.555C792.669 759.013 785.155 751.569 775.729 751.569ZM736.714 752.081C728.35 752.938 721.515 760.211 721.515 768.852C721.515 778.007 729.285 785.667 738.369 785.667C747.452 785.667 755.222 778.009 755.222 768.852C755.222 764.958 753.821 761.365 751.571 758.541L734.929 737.748H725.207L736.711 752.081H736.714ZM678.551 770.819L671.673 752.765H666.41L659.489 770.819L652.569 752.765H644.376L656.477 784.512H661.74L669 765.601L676.303 784.512H681.566L693.622 752.765H685.471L678.551 770.819ZM813.045 751.609C803.663 751.609 796.064 758.968 796.064 768.252C796.064 777.535 802.73 785.665 812.621 785.665C818.565 785.665 823.361 782.798 826.758 777.879L820.899 773.088C819.201 776.168 815.932 777.967 812.663 777.967C808.418 777.967 804.257 774.929 803.917 770.48H828.498V768.168C828.498 758.455 822.131 751.611 813.045 751.611V751.609ZM908.992 751.609C899.609 751.609 892.053 758.968 892.053 768.681C892.053 777.794 898.717 785.667 908.567 785.667C914.509 785.667 919.307 782.801 922.705 777.881L917.524 773.474C915.699 776.298 912.387 777.967 908.439 777.967C904.491 777.967 900.246 774.929 899.906 770.48H924.402V767.827C924.402 758.455 918.075 751.611 908.992 751.611V751.609ZM935.313 762.048C935.313 760.081 937.987 758.498 941.469 758.498C944.952 758.498 948.812 760.252 951.319 763.076L955.861 757.471C951.531 753.619 947.158 751.609 941.681 751.609C934.846 751.609 927.799 754.775 927.799 762.048C927.799 770.99 935.439 771.633 941.681 772.146C945.161 772.402 948.262 772.658 948.262 774.97C948.262 777.452 944.736 778.607 941.638 778.607C938.029 778.607 934.124 777.067 931.28 773.603L926.439 778.781C930.304 783.529 935.907 785.627 941.384 785.627C948.262 785.627 955.776 782.333 955.776 774.803C955.776 766.289 948.048 765.475 942.106 764.877C938.369 764.492 935.311 764.148 935.311 762.053H935.313V762.048ZM839.918 759.993V752.763H832.404V784.467H839.918V771.075C840.936 763.588 846.838 760.594 853.673 760.594V752.765H852.909C847.135 752.765 842.933 754.903 839.918 759.996V759.993ZM863.777 759.993V752.763H856.263V784.467H863.777V771.075C864.796 762.646 872.013 760.594 877.533 760.594V752.765H876.726C871.037 752.765 866.75 754.86 863.777 759.996V759.993ZM710.136 784.467H717.65V737.746H710.136V784.467ZM738.411 778.05C733.231 778.05 729.029 773.857 729.029 768.636C729.029 763.415 733.231 759.182 738.369 759.182C743.506 759.182 747.836 763.375 747.836 768.636C747.836 773.897 743.591 778.05 738.411 778.05ZM775.687 778.05C770.592 778.05 766.304 773.942 766.304 768.593C766.304 763.244 770.338 759.182 775.729 759.182C781.121 759.182 785.155 763.418 785.155 768.593C785.155 773.769 780.867 778.05 775.687 778.05ZM697.147 784.467H704.661V752.765H697.147V784.469V784.467ZM880.761 784.467H888.275V752.765H880.761V784.469V784.467ZM700.798 737.361C697.741 737.361 695.193 739.929 695.193 743.18C695.193 746.431 697.869 748.7 700.798 748.7C704.068 748.7 706.53 745.961 706.53 743.009C706.53 740.057 703.939 737.361 700.798 737.361ZM884.498 737.361C881.44 737.361 878.85 739.929 878.85 743.137C878.85 746.346 881.355 748.657 884.624 748.657C887.893 748.657 890.144 746.388 890.144 743.266C890.144 740.143 887.596 737.361 884.496 737.361H884.498ZM900.801 764.146C902.031 761.023 904.706 759.184 908.655 759.184C912.603 759.184 914.979 761.108 915.998 764.146H900.801ZM804.812 764.146C806.087 761.023 808.717 759.184 812.623 759.184C816.528 759.184 819.076 761.108 820.094 764.146H804.81H804.812Z" fill="white"/>
<path d="M591.862 816.676H241.1L185.489 765.366L241.1 712.676H591.862V816.676Z" fill="#FF00CC"/>
<path d="M380.015 751.744C376.491 751.744 373.308 752.814 370.59 754.653V737.883H363.076V768.816C363.076 778.23 370.675 785.802 379.972 785.802C389.269 785.802 396.954 778.272 396.954 768.73C396.954 759.188 389.44 751.744 380.015 751.744ZM340.999 752.257C332.635 753.113 325.8 760.387 325.8 769.027C325.8 778.182 333.57 785.842 342.654 785.842C351.737 785.842 359.507 778.185 359.507 769.027C359.507 765.133 358.107 761.54 355.856 758.716L339.214 737.923H329.492L340.997 752.257H340.999ZM282.836 770.994L275.958 752.94H270.695L263.775 770.994L256.854 752.94H248.661L260.762 784.687H266.025L273.285 765.776L280.588 784.687H285.851L297.907 752.94H289.757L282.836 770.994ZM417.331 751.784C407.948 751.784 400.349 759.143 400.349 768.427C400.349 777.71 407.015 785.84 416.906 785.84C422.85 785.84 427.646 782.974 431.043 778.054L425.184 773.263C423.487 776.343 420.217 778.142 416.948 778.142C412.703 778.142 408.542 775.104 408.202 770.655H432.784V768.344C432.784 758.631 426.416 751.787 417.331 751.787V751.784ZM513.277 751.784C503.895 751.784 496.338 759.143 496.338 768.856C496.338 777.969 503.002 785.842 512.852 785.842C518.794 785.842 523.592 782.976 526.99 778.056L521.81 773.65C519.984 776.474 516.672 778.142 512.724 778.142C508.776 778.142 504.531 775.104 504.191 770.655H528.687V768.002C528.687 758.631 522.36 751.787 513.277 751.787V751.784ZM539.599 762.223C539.599 760.256 542.272 758.673 545.755 758.673C549.237 758.673 553.098 760.427 555.605 763.251L560.146 757.646C555.816 753.794 551.443 751.784 545.966 751.784C539.131 751.784 532.084 754.95 532.084 762.223C532.084 771.165 539.724 771.808 545.966 772.321C549.446 772.577 552.547 772.833 552.547 775.145C552.547 777.627 549.021 778.783 545.923 778.783C542.315 778.783 538.409 777.243 535.565 773.778L530.724 778.956C534.589 783.704 540.192 785.802 545.669 785.802C552.547 785.802 560.061 782.508 560.061 774.978C560.061 766.464 552.333 765.65 546.391 765.052C542.654 764.667 539.596 764.323 539.596 762.228H539.599V762.223ZM444.203 760.168V752.938H436.689V784.642H444.203V771.251C445.221 763.764 451.123 760.769 457.958 760.769V752.94H457.194C451.42 752.94 447.218 755.078 444.203 760.171V760.168ZM468.063 760.168V752.938H460.549V784.642H468.063V771.251C469.081 762.822 476.298 760.769 481.818 760.769V752.94H481.011C475.322 752.94 471.035 755.035 468.063 760.171V760.168ZM314.421 784.642H321.935V737.925H314.421V784.646V784.642ZM342.696 778.225C337.516 778.225 333.314 774.032 333.314 768.811C333.314 763.59 337.516 759.357 342.654 759.357C347.791 759.357 352.122 763.55 352.122 768.811C352.122 774.072 347.877 778.225 342.696 778.225ZM379.972 778.225C374.877 778.225 370.59 774.117 370.59 768.768C370.59 763.42 374.623 759.357 380.015 759.357C385.406 759.357 389.44 763.593 389.44 768.768C389.44 773.944 385.152 778.225 379.972 778.225ZM301.432 784.642H308.946V752.94H301.432V784.644V784.642ZM485.047 784.642H492.561V752.94H485.047V784.644V784.642ZM305.084 737.541C302.026 737.541 299.478 740.109 299.478 743.36C299.478 746.611 302.154 748.879 305.084 748.879C308.353 748.879 310.815 746.141 310.815 743.189C310.815 740.237 308.225 737.541 305.084 737.541ZM488.783 737.541C485.726 737.541 483.136 740.109 483.136 743.317C483.136 746.525 485.64 748.837 488.909 748.837C492.178 748.837 494.429 746.568 494.429 743.445C494.429 740.322 491.882 737.541 488.781 737.541H488.783ZM505.086 764.326C506.316 761.203 508.992 759.364 512.94 759.364C516.888 759.364 519.264 761.288 520.283 764.326H505.086ZM409.097 764.326C410.372 761.203 413.003 759.364 416.908 759.364C420.813 759.364 423.361 761.288 424.379 764.326H409.095H409.097Z" fill="white"/>
<defs>
<clipPath id="clip0_3114_14617">
<rect width="437.861" height="104" fill="white" transform="translate(615.861 585.332)"/>
</clipPath>
</defs>
</svg>
