<svg width="1362" height="325" viewBox="0 0 1362 325" fill="none" xmlns="http://www.w3.org/2000/svg">
<rect width="1362" height="325" fill="#EDEDED"/>
<rect x="469.484" y="67.2937" width="833.383" height="155.315" fill="#FF00CC"/>
<path d="M1183.74 145.092C1183.74 140.808 1189.62 137.356 1197.29 137.356C1204.95 137.356 1213.46 141.178 1218.96 147.332L1228.97 135.124C1219.44 126.737 1209.81 122.355 1197.76 122.355C1182.71 122.355 1167.2 129.25 1167.2 145.1C1167.2 164.583 1184.03 165.983 1197.76 167.095C1205.42 167.656 1212.24 168.216 1212.24 173.249C1212.24 178.653 1204.49 181.174 1197.67 181.174C1189.72 181.174 1181.13 177.821 1174.87 170.267L1164.21 181.545C1172.72 191.892 1185.05 196.456 1197.11 196.456C1212.24 196.456 1228.78 189.281 1228.78 172.87C1228.78 154.318 1211.78 152.547 1198.7 151.245C1190.47 150.405 1183.75 149.664 1183.75 145.092H1183.74ZM1107.77 149.655C1110.48 142.851 1116.37 138.839 1125.05 138.839C1133.74 138.839 1138.98 143.032 1141.22 149.655H1107.77ZM1125.81 122.346C1105.15 122.346 1088.52 138.378 1088.52 159.541C1088.52 179.395 1103.19 196.546 1124.87 196.546C1137.95 196.546 1148.52 190.302 1155.99 179.584L1144.59 169.987C1140.57 176.141 1133.29 179.774 1124.6 179.774C1115.91 179.774 1106.57 173.159 1105.82 163.462H1159.74V157.679C1159.74 137.265 1145.82 122.355 1125.82 122.355L1125.81 122.346ZM1063.66 196.78H1080.21V127.703H1063.66V196.78ZM1071.88 94.1498C1065.15 94.1498 1059.45 99.7435 1059.45 106.738C1059.45 113.732 1064.97 118.765 1072.16 118.765C1079.35 118.765 1084.31 113.822 1084.31 107.018C1084.31 100.213 1078.7 94.1581 1071.88 94.1581V94.1498ZM832.49 122.256C824.736 122.256 817.725 124.587 811.746 128.591V92.0549H795.205V159.451C795.205 179.955 811.928 196.456 832.391 196.456C852.854 196.456 869.767 180.054 869.767 159.261C869.767 138.468 853.226 122.256 832.482 122.256H832.49ZM746.615 123.376C728.208 125.238 713.162 141.088 713.162 159.92C713.162 179.864 730.264 196.555 750.257 196.555C770.25 196.555 787.352 179.873 787.352 159.92C787.352 151.435 784.272 143.609 779.317 137.455L742.693 92.1456H721.296L746.615 123.376ZM618.6 167.048L603.463 127.712H591.877L576.649 167.048L561.421 127.712H543.386L570.018 196.878H581.604L597.583 155.68L613.653 196.878H625.239L651.78 127.712H633.836L618.608 167.048H618.6ZM914.616 122.346C893.963 122.346 877.24 138.378 877.24 158.61C877.24 178.843 891.906 196.546 913.683 196.546C926.764 196.546 937.326 190.302 944.799 179.584L931.908 169.147C928.167 175.861 920.975 179.774 913.782 179.774C904.434 179.774 895.284 173.159 894.533 163.462H948.631V158.429C948.631 137.265 934.617 122.355 914.616 122.355V122.346ZM973.76 143.463V127.712H957.219V196.788H973.76V167.609C973.76 153.423 988.988 144.773 1004.03 144.773V127.712H1002.35C989.64 127.712 980.391 132.374 973.76 143.463ZM1026.27 143.463V127.712H1009.73V196.788H1026.27V167.609C1026.27 153.423 1041.5 144.773 1056.55 144.773V127.712H1054.86C1042.15 127.712 1032.9 132.374 1026.27 143.463ZM688.124 196.78H704.665V92.1456H688.124V196.78ZM750.356 179.955C738.96 179.955 729.703 170.819 729.703 159.451C729.703 148.082 738.952 138.847 750.257 138.847C761.562 138.847 771.092 147.983 771.092 159.451C771.092 170.918 761.744 179.955 750.348 179.955H750.356ZM832.399 179.955C821.185 179.955 811.746 171.009 811.746 159.352C811.746 147.695 820.623 138.847 832.49 138.847C844.357 138.847 853.234 148.074 853.234 159.352C853.234 170.63 843.795 179.955 832.399 179.955ZM659.535 196.78H676.075V127.703H659.535V196.78ZM667.57 94.1498C660.839 94.1498 655.232 99.7435 655.232 106.828C655.232 113.913 661.12 118.856 667.57 118.856C674.762 118.856 680.188 112.891 680.188 106.458C680.188 100.024 674.49 94.1498 667.57 94.1498ZM896.498 149.655C899.297 142.851 905.095 138.839 913.691 138.839C922.288 138.839 927.895 143.032 930.133 149.655H896.498Z" fill="white"/>
<mask id="mask0_3220_19247" style="mask-type:alpha" maskUnits="userSpaceOnUse" x="54" y="197" width="23" height="25">
<rect x="54.2539" y="197.07" width="22.1965" height="24.4306" fill="#D9D9D9"/>
</mask>
<g mask="url(#mask0_3220_19247)">
<path d="M-5.80664 243.885L56.7603 180.612" stroke="black" stroke-width="0.794118" stroke-linecap="round"/>
<path d="M0.475586 243.885L63.0425 180.612" stroke="black" stroke-width="0.794118" stroke-linecap="round"/>
<path d="M6.75781 243.885L69.3247 180.612" stroke="black" stroke-width="0.794118" stroke-linecap="round"/>
<path d="M13.0396 243.885L75.6065 180.612" stroke="black" stroke-width="0.794118" stroke-linecap="round"/>
<path d="M19.3213 243.885L81.8882 180.612" stroke="black" stroke-width="0.794118" stroke-linecap="round"/>
<path d="M25.6035 243.885L88.1704 180.612" stroke="black" stroke-width="0.794118" stroke-linecap="round"/>
<path d="M31.8857 243.885L94.4527 180.612" stroke="black" stroke-width="0.794118" stroke-linecap="round"/>
<path d="M38.1675 243.885L100.734 180.612" stroke="black" stroke-width="0.794118" stroke-linecap="round"/>
<path d="M44.4492 243.885L107.016 180.612" stroke="black" stroke-width="0.794118" stroke-linecap="round"/>
<path d="M50.7319 243.885L113.299 180.612" stroke="black" stroke-width="0.794118" stroke-linecap="round"/>
<path d="M57.0137 243.885L119.581 180.612" stroke="black" stroke-width="0.794118" stroke-linecap="round"/>
<path d="M63.2959 243.885L125.863 180.612" stroke="black" stroke-width="0.794118" stroke-linecap="round"/>
<path d="M69.5776 243.885L132.145 180.612" stroke="black" stroke-width="0.794118" stroke-linecap="round"/>
<path d="M75.6064 243.885L138.173 180.612" stroke="black" stroke-width="0.794118" stroke-linecap="round"/>
</g>
<mask id="mask1_3220_19247" style="mask-type:alpha" maskUnits="userSpaceOnUse" x="54" y="66" width="23" height="26">
<rect x="54.2539" y="66.7483" width="22.1965" height="24.4306" fill="#D9D9D9"/>
</mask>
<g mask="url(#mask1_3220_19247)">
<path d="M-5.80664 113.564L56.7603 50.2905" stroke="black" stroke-width="0.794118" stroke-linecap="round"/>
<path d="M0.475586 113.564L63.0425 50.2905" stroke="black" stroke-width="0.794118" stroke-linecap="round"/>
<path d="M6.75781 113.564L69.3247 50.2905" stroke="black" stroke-width="0.794118" stroke-linecap="round"/>
<path d="M13.0396 113.564L75.6065 50.2905" stroke="black" stroke-width="0.794118" stroke-linecap="round"/>
<path d="M19.3213 113.564L81.8882 50.2905" stroke="black" stroke-width="0.794118" stroke-linecap="round"/>
<path d="M25.6035 113.564L88.1704 50.2905" stroke="black" stroke-width="0.794118" stroke-linecap="round"/>
<path d="M31.8857 113.564L94.4527 50.2905" stroke="black" stroke-width="0.794118" stroke-linecap="round"/>
<path d="M38.1675 113.564L100.734 50.2905" stroke="black" stroke-width="0.794118" stroke-linecap="round"/>
<path d="M44.4492 113.564L107.016 50.2905" stroke="black" stroke-width="0.794118" stroke-linecap="round"/>
<path d="M50.7319 113.564L113.299 50.2905" stroke="black" stroke-width="0.794118" stroke-linecap="round"/>
<path d="M57.0137 113.564L119.581 50.2905" stroke="black" stroke-width="0.794118" stroke-linecap="round"/>
<path d="M63.2959 113.564L125.863 50.2905" stroke="black" stroke-width="0.794118" stroke-linecap="round"/>
<path d="M69.5776 113.564L132.145 50.2905" stroke="black" stroke-width="0.794118" stroke-linecap="round"/>
<path d="M75.6064 113.564L138.173 50.2905" stroke="black" stroke-width="0.794118" stroke-linecap="round"/>
</g>
<rect x="76.4121" y="66.575" width="319.984" height="155.315" fill="#BFBFBF"/>
<path d="M352.816 123.008C334.447 124.876 319.432 140.778 319.432 159.672C319.432 179.681 336.499 196.426 356.45 196.426C376.401 196.426 393.468 179.69 393.468 159.672C393.468 151.159 390.394 143.307 385.45 137.133L348.902 91.6758H327.55L352.816 123.008ZM225.066 166.824L209.961 127.358H198.399L183.203 166.824L168.007 127.358H150.009L176.586 196.751H188.147L204.093 155.418L220.13 196.751H231.692L258.178 127.358H240.271L225.075 166.824H225.066ZM294.446 196.652H310.952V91.6758H294.446V196.652ZM356.549 179.772C345.177 179.772 335.939 170.606 335.939 159.201C335.939 147.795 345.168 138.53 356.45 138.53C367.732 138.53 377.242 147.696 377.242 159.201C377.242 170.706 367.913 179.772 356.541 179.772H356.549ZM265.916 196.652H282.423V127.35H265.916V196.652ZM273.935 93.6866C267.218 93.6866 261.623 99.2986 261.623 106.406C261.623 113.514 267.499 118.473 273.935 118.473C281.112 118.473 286.527 112.489 286.527 106.035C286.527 99.5796 280.84 93.6866 273.935 93.6866Z" fill="white"/>
<path d="M290 209.736C290 202.628 295.596 197.016 302.312 197.016C309.218 197.016 314.904 202.909 314.904 209.364C314.904 215.819 309.49 221.803 302.312 221.803C295.876 221.803 290 216.844 290 209.736Z" fill="#FF00CC"/>
<path d="M290 79.2948C290 72.1869 295.596 66.575 302.312 66.575C309.218 66.575 314.904 72.4679 314.904 78.9229C314.904 85.3778 309.49 91.3617 302.312 91.3617C295.876 91.3617 290 86.4027 290 79.2948Z" fill="#FF00CC"/>
<path fill-rule="evenodd" clip-rule="evenodd" d="M113.661 196.338C134.233 196.338 150.91 179.662 150.91 159.09C150.91 138.518 134.233 121.842 113.661 121.842C93.0898 121.842 76.4131 138.518 76.4131 159.09C76.4131 179.662 93.0898 196.338 113.661 196.338ZM113.551 179.76C124.956 179.76 134.202 170.514 134.202 159.108C134.202 147.703 124.956 138.457 113.551 138.457C102.145 138.457 92.8988 147.703 92.8988 159.108C92.8988 170.514 102.145 179.76 113.551 179.76Z" fill="#FF00CC"/>
<path d="M150.005 66.5752V258.425" stroke="black" stroke-width="1.07063" stroke-linecap="round" stroke-dasharray="2.14 2.14"/>
<path d="M54 91.6609L1302.87 91.6608" stroke="black" stroke-width="1.07063" stroke-linecap="round" stroke-dasharray="2.14 2.14"/>
<path d="M54.4956 66.5749L396.396 66.5754" stroke="black" stroke-width="1.07063" stroke-linecap="round" stroke-dasharray="2.14 2.14"/>
<path d="M54 196.661L1302.87 196.661" stroke="black" stroke-width="1.07063" stroke-linecap="round" stroke-dasharray="2.14 2.14"/>
<path d="M54.4956 221.463L396.396 221.463" stroke="black" stroke-width="1.07063" stroke-linecap="round" stroke-dasharray="2.14 2.14"/>
<path d="M76.4131 66.5752V258.425" stroke="black" stroke-width="1.07063" stroke-linecap="round" stroke-dasharray="2.14 2.14"/>
<rect x="56.5132" y="201.248" width="15.8824" height="15.8824" rx="7.94118" fill="black"/>
<path d="M61.1888 206.322H62.1126L63.9601 209.432H64.0382L65.8858 206.322H66.8096L64.4025 210.238V212.984H63.5958V210.238L61.1888 206.322Z" fill="white"/>
<rect x="56.5132" y="70.9268" width="15.8824" height="15.8824" rx="7.94118" fill="black"/>
<path d="M61.1888 76.0005H62.1126L63.9601 79.1101H64.0382L65.8858 76.0005H66.8096L64.4025 79.9168V82.6621H63.5958V79.9168L61.1888 76.0005Z" fill="white"/>
<mask id="mask2_3220_19247" style="mask-type:alpha" maskUnits="userSpaceOnUse" x="76" y="221" width="75" height="38">
<rect x="76.4043" y="221.85" width="73.7242" height="36.5746" fill="#D9D9D9"/>
</mask>
<g mask="url(#mask2_3220_19247)">
<path d="M13.6309 268.665L76.1978 205.392" stroke="black" stroke-width="0.794118" stroke-linecap="round"/>
<path d="M19.9131 268.665L82.48 205.392" stroke="black" stroke-width="0.794118" stroke-linecap="round"/>
<path d="M26.1953 268.665L88.7622 205.392" stroke="black" stroke-width="0.794118" stroke-linecap="round"/>
<path d="M32.4771 268.665L95.044 205.392" stroke="black" stroke-width="0.794118" stroke-linecap="round"/>
<path d="M38.7593 268.665L101.326 205.392" stroke="black" stroke-width="0.794118" stroke-linecap="round"/>
<path d="M45.041 268.665L107.608 205.392" stroke="black" stroke-width="0.794118" stroke-linecap="round"/>
<path d="M51.3232 268.665L113.89 205.392" stroke="black" stroke-width="0.794118" stroke-linecap="round"/>
<path d="M57.605 268.665L120.172 205.392" stroke="black" stroke-width="0.794118" stroke-linecap="round"/>
<path d="M63.8872 268.665L126.454 205.392" stroke="black" stroke-width="0.794118" stroke-linecap="round"/>
<path d="M70.1689 268.665L132.736 205.392" stroke="black" stroke-width="0.794118" stroke-linecap="round"/>
<path d="M76.4517 268.665L139.019 205.392" stroke="black" stroke-width="0.794118" stroke-linecap="round"/>
<path d="M82.7334 268.665L145.3 205.392" stroke="black" stroke-width="0.794118" stroke-linecap="round"/>
<path d="M89.0156 268.665L151.583 205.392" stroke="black" stroke-width="0.794118" stroke-linecap="round"/>
<path d="M95.2974 268.665L157.864 205.392" stroke="black" stroke-width="0.794118" stroke-linecap="round"/>
<path d="M101.326 268.665L163.893 205.392" stroke="black" stroke-width="0.794118" stroke-linecap="round"/>
<path d="M107.608 268.665L170.175 205.392" stroke="black" stroke-width="0.794118" stroke-linecap="round"/>
<path d="M113.89 268.665L176.457 205.392" stroke="black" stroke-width="0.794118" stroke-linecap="round"/>
<path d="M120.172 268.665L182.739 205.392" stroke="black" stroke-width="0.794118" stroke-linecap="round"/>
<path d="M126.454 268.665L189.021 205.392" stroke="black" stroke-width="0.794118" stroke-linecap="round"/>
<path d="M132.736 268.665L195.303 205.392" stroke="black" stroke-width="0.794118" stroke-linecap="round"/>
<path d="M139.018 268.665L201.585 205.392" stroke="black" stroke-width="0.794118" stroke-linecap="round"/>
<path d="M145.3 268.665L207.867 205.392" stroke="black" stroke-width="0.794118" stroke-linecap="round"/>
</g>
<rect x="105.49" y="233.807" width="15.8824" height="15.8824" rx="7.94118" fill="black"/>
<path d="M111.628 238.881L113.346 241.652H113.398L115.115 238.881H116.065L113.97 242.212L116.065 245.542H115.115L113.398 242.823H113.346L111.628 245.542H110.678L112.825 242.212L110.678 238.881H111.628Z" fill="white"/>
</svg>
