<svg width="1362" height="768" viewBox="0 0 1362 768" fill="none" xmlns="http://www.w3.org/2000/svg">
<rect width="1362" height="768" fill="#EDEDED"/>
<rect width="72.3218" height="72.3218" rx="28.9975" transform="matrix(-1 0 0 1 1185.26 140)" fill="#FF00CC"/>
<path fill-rule="evenodd" clip-rule="evenodd" d="M1163.97 183.877C1161.07 183.877 1158.64 181.525 1158.64 178.463C1158.64 175.401 1160.93 173.075 1163.99 173.075C1167.06 173.075 1169.35 175.5 1169.35 178.463C1169.35 181.427 1166.91 183.877 1163.97 183.877ZM1144 179.737L1140.09 169.401H1137.1L1133.17 179.737L1129.23 169.401H1124.58L1131.45 187.575H1134.45L1138.57 176.749L1142.72 187.575H1145.71L1152.57 169.401H1147.93L1144 179.737H1144ZM1163.99 168.715C1161.99 168.715 1160.18 169.327 1158.64 170.381V160.779H1154.37V178.488C1154.37 183.877 1158.69 188.212 1163.97 188.212C1169.25 188.212 1173.62 183.901 1173.62 178.439C1173.62 172.977 1169.35 168.714 1163.99 168.714L1163.99 168.715Z" fill="white"/>
<rect width="24.9386" height="4.15643" transform="matrix(-1 0 0 1 1112.94 168.266)" fill="#FF00CC"/>
<rect width="24.9386" height="4.15643" transform="matrix(-1 0 0 1 1112.94 180.733)" fill="#FF00CC"/>
<rect width="4.23012" height="40.1861" transform="matrix(-1 0 0 1 1092.27 155.865)" fill="#FF00CC"/>
<g clip-path="url(#clip0_3114_12523)">
<rect width="1011" height="625" transform="translate(77 76)" fill="white"/>
<rect width="1511.21" height="625" transform="translate(46 76)" fill="#DFDBD8"/>
<path fill-rule="evenodd" clip-rule="evenodd" d="M178.557 300.225H330.712V560.42H178.557V300.225Z" fill="#F5F5F5" stroke="#555555" stroke-width="1.05753"/>
<path d="M192.961 314.634H316.306V546.018H192.961V314.634Z" fill="#B5DADA" stroke="#555555" stroke-width="0.900329"/>
<rect x="175.089" y="560.547" width="157.558" height="3.60132" fill="#555555"/>
<g opacity="0.3">
<path d="M175.089 564.148H332.647L324.758 574.952H166.986L175.089 564.148Z" fill="#A0A0A0"/>
<path d="M166.986 574.952L175.089 564.148V560.547L166.986 571.351V574.952Z" fill="#A0A0A0"/>
</g>
<path fill-rule="evenodd" clip-rule="evenodd" d="M835.283 300.225H987.439V560.42H835.283V300.225Z" fill="#F5F5F5" stroke="#555555" stroke-width="1.05753"/>
<path d="M849.688 314.634H973.034V546.018H849.688V314.634Z" fill="#B5DADA" stroke="#555555" stroke-width="0.900329"/>
<rect x="831.815" y="560.547" width="157.558" height="3.60132" fill="#555555"/>
<g opacity="0.3">
<path d="M831.816 564.148H989.373L981.485 574.952H823.713L831.816 564.148Z" fill="#A0A0A0"/>
<path d="M823.713 574.952L831.816 564.148V560.547L823.713 571.351V574.952Z" fill="#A0A0A0"/>
</g>
<rect x="46" y="624.858" width="1511.21" height="76.1421" fill="#888585"/>
<rect x="46" y="76" width="1511.21" height="13.7479" fill="#888585"/>
<rect width="215.736" height="399.746" transform="translate(476.414 301.254)" fill="#F5F5F5"/>
<path d="M560.97 381.203H667.167V683.903H560.97V381.203Z" fill="#B5DADA"/>
<path d="M529.225 381.203H502.096V684.961H529.225V381.203Z" fill="#B5DADA"/>
<path d="M501.768 315.646V349.25H666.464V315.646H501.768Z" fill="#B5DADA"/>
<path d="M545.127 700.55H683.162V365.213M545.127 700.55H485.437V365.213M545.127 700.55V365.213M545.127 365.213H485.437M545.127 365.213H683.162M485.437 365.213V301.704M683.162 365.213V301.704M476.943 301.704H691.622V700.55H476.943V301.704ZM560.97 381.203H667.167V683.903H560.97V381.203ZM529.225 381.203H502.096V684.961H529.225V381.203ZM501.768 349.25V315.646H666.464V349.25H501.768Z" stroke="#555555" stroke-width="1.05753"/>
<path d="M619.529 412.98H609.896C599.255 412.98 590.628 421.607 590.628 432.248V441.881C590.628 452.523 599.255 461.149 609.896 461.149H619.529C630.171 461.149 638.797 452.523 638.797 441.881V432.248C638.797 421.607 630.171 412.98 619.529 412.98Z" stroke="#555555" stroke-width="1.23435" stroke-miterlimit="10"/>
<path d="M602.833 424.745V433.779H601.196V426.338H601.143L599.03 427.687V426.188L601.275 424.745H602.833Z" fill="#FF00CC"/>
<path d="M609.274 433.95C608.548 433.95 607.925 433.766 607.406 433.397C606.887 433.028 606.488 432.494 606.211 431.796C605.932 431.098 605.794 430.256 605.794 429.27C605.797 428.285 605.938 427.446 606.215 426.754C606.493 426.061 606.892 425.533 607.41 425.168C607.93 424.803 608.551 424.621 609.274 424.621C609.997 424.621 610.619 424.803 611.14 425.168C611.661 425.533 612.06 426.063 612.338 426.756C612.616 427.45 612.754 428.288 612.754 429.27C612.754 430.252 612.615 431.102 612.338 431.8C612.06 432.499 611.661 433.032 611.143 433.4C610.623 433.767 610.001 433.951 609.274 433.951V433.95ZM609.274 432.57C609.839 432.57 610.285 432.291 610.613 431.734C610.941 431.176 611.105 430.355 611.105 429.27C611.105 428.553 611.03 427.95 610.88 427.462C610.73 426.974 610.518 426.605 610.245 426.357C609.971 426.108 609.648 425.984 609.274 425.984C608.712 425.984 608.268 426.263 607.942 426.82C607.616 427.377 607.451 428.194 607.448 429.27C607.445 429.991 607.518 430.597 607.666 431.088C607.814 431.579 608.026 431.949 608.3 432.197C608.573 432.446 608.898 432.57 609.274 432.57Z" fill="#FF00CC"/>
<path d="M614.779 428.218C614.511 428.218 614.282 428.123 614.091 427.934C613.9 427.744 613.805 427.515 613.809 427.248C613.806 426.983 613.9 426.756 614.091 426.566C614.282 426.376 614.511 426.282 614.779 426.282C615.046 426.282 615.263 426.376 615.456 426.566C615.649 426.756 615.746 426.983 615.749 427.248C615.747 427.425 615.7 427.586 615.61 427.733C615.521 427.88 615.403 427.997 615.258 428.086C615.112 428.174 614.953 428.218 614.779 428.218ZM614.779 432.695C614.511 432.695 614.282 432.6 614.091 432.411C613.9 432.221 613.805 431.992 613.809 431.725C613.806 431.46 613.9 431.234 614.091 431.046C614.282 430.857 614.511 430.763 614.779 430.763C615.046 430.763 615.263 430.857 615.456 431.046C615.649 431.234 615.746 431.46 615.749 431.725C615.747 431.904 615.7 432.067 615.61 432.215C615.521 432.362 615.403 432.478 615.258 432.565C615.112 432.652 614.953 432.695 614.779 432.695Z" fill="#FF00CC"/>
<path d="M620.282 433.95C619.556 433.95 618.933 433.766 618.414 433.397C617.894 433.028 617.496 432.494 617.218 431.796C616.94 431.098 616.802 430.256 616.802 429.27C616.805 428.285 616.945 427.446 617.223 426.754C617.501 426.061 617.9 425.533 618.418 425.168C618.937 424.803 619.559 424.621 620.282 424.621C621.005 424.621 621.627 424.803 622.148 425.168C622.668 425.533 623.068 426.063 623.346 426.756C623.624 427.45 623.762 428.288 623.762 429.27C623.762 430.252 623.623 431.102 623.346 431.8C623.067 432.499 622.669 433.032 622.15 433.4C621.631 433.767 621.009 433.951 620.282 433.951V433.95ZM620.282 432.57C620.847 432.57 621.293 432.291 621.621 431.734C621.949 431.176 622.113 430.355 622.113 429.27C622.113 428.553 622.037 427.95 621.888 427.462C621.738 426.974 621.526 426.605 621.253 426.357C620.979 426.108 620.656 425.984 620.282 425.984C619.72 425.984 619.276 426.263 618.95 426.82C618.623 427.377 618.459 428.194 618.456 429.27C618.453 429.991 618.525 430.597 618.674 431.088C618.822 431.579 619.034 431.949 619.307 432.197C619.581 432.446 619.906 432.57 620.282 432.57Z" fill="#FF00CC"/>
<path d="M628.004 433.95C627.278 433.95 626.655 433.766 626.135 433.397C625.616 433.028 625.218 432.494 624.94 431.796C624.662 431.098 624.523 430.256 624.523 429.27C624.526 428.285 624.667 427.446 624.945 426.754C625.223 426.061 625.621 425.533 626.14 425.168C626.659 424.803 627.28 424.621 628.004 424.621C628.727 424.621 629.349 424.803 629.87 425.168C630.39 425.533 630.79 426.063 631.067 426.756C631.345 427.45 631.484 428.288 631.484 429.27C631.484 430.252 631.345 431.102 631.067 431.8C630.789 432.499 630.391 433.032 629.872 433.4C629.353 433.767 628.73 433.951 628.004 433.951V433.95ZM628.004 432.57C628.569 432.57 629.014 432.291 629.343 431.734C629.67 431.176 629.834 430.355 629.834 429.27C629.834 428.553 629.759 427.95 629.609 427.462C629.459 426.974 629.247 426.605 628.974 426.357C628.701 426.108 628.378 425.984 628.004 425.984C627.442 425.984 626.998 426.263 626.672 426.82C626.345 427.377 626.18 428.194 626.177 429.27C626.175 429.991 626.247 430.597 626.396 431.088C626.544 431.579 626.755 431.949 627.029 432.197C627.303 432.446 627.627 432.57 628.004 432.57Z" fill="#FF00CC"/>
<path d="M598.603 444.924V443.742L601.74 440.668C602.04 440.365 602.29 440.096 602.49 439.861C602.69 439.625 602.84 439.397 602.94 439.177C603.039 438.956 603.089 438.721 603.089 438.471C603.089 438.186 603.024 437.941 602.895 437.736C602.766 437.532 602.588 437.374 602.362 437.262C602.135 437.15 601.878 437.095 601.59 437.095C601.302 437.095 601.032 437.156 600.809 437.278C600.586 437.4 600.413 437.572 600.291 437.796C600.169 438.019 600.108 438.285 600.108 438.594H598.551C598.551 438.021 598.682 437.522 598.943 437.099C599.205 436.675 599.566 436.347 600.026 436.115C600.486 435.882 601.015 435.767 601.612 435.767C602.209 435.767 602.75 435.88 603.209 436.106C603.668 436.333 604.024 436.643 604.279 437.037C604.533 437.431 604.66 437.881 604.66 438.387C604.66 438.725 604.595 439.057 604.466 439.384C604.337 439.71 604.109 440.072 603.784 440.469C603.459 440.866 603.004 441.347 602.419 441.911L600.862 443.495V443.556H604.797V444.924H598.604L598.603 444.924Z" fill="#FF00CC"/>
<path d="M606.477 444.924V443.742L609.614 440.668C609.914 440.365 610.164 440.096 610.364 439.861C610.564 439.625 610.714 439.397 610.814 439.177C610.913 438.956 610.963 438.721 610.963 438.471C610.963 438.186 610.898 437.941 610.769 437.736C610.64 437.532 610.462 437.374 610.236 437.262C610.009 437.15 609.752 437.095 609.464 437.095C609.176 437.095 608.906 437.156 608.683 437.278C608.46 437.4 608.287 437.572 608.165 437.796C608.043 438.019 607.982 438.285 607.982 438.594H606.425C606.425 438.021 606.556 437.522 606.818 437.099C607.079 436.675 607.44 436.347 607.9 436.115C608.36 435.882 608.889 435.767 609.486 435.767C610.083 435.767 610.624 435.88 611.083 436.106C611.542 436.333 611.898 436.643 612.153 437.037C612.407 437.431 612.534 437.881 612.534 438.387C612.534 438.725 612.469 439.057 612.34 439.384C612.211 439.71 611.983 440.072 611.658 440.469C611.333 440.866 610.878 441.347 610.293 441.911L608.736 443.495V443.556H612.671V444.924H606.478L606.477 444.924Z" fill="#FF00CC"/>
<path d="M614.779 439.36C614.511 439.36 614.282 439.265 614.091 439.076C613.9 438.886 613.805 438.657 613.809 438.389C613.806 438.125 613.9 437.898 614.091 437.708C614.282 437.518 614.511 437.423 614.779 437.423C615.046 437.423 615.263 437.518 615.456 437.708C615.649 437.898 615.746 438.124 615.749 438.389C615.747 438.566 615.7 438.727 615.61 438.874C615.521 439.022 615.403 439.139 615.258 439.227C615.112 439.316 614.953 439.36 614.779 439.36V439.36ZM614.779 443.837C614.511 443.837 614.282 443.743 614.091 443.553C613.9 443.363 613.805 443.134 613.809 442.867C613.806 442.602 613.9 442.375 614.091 442.187C614.282 441.999 614.511 441.905 614.779 441.905C615.046 441.905 615.263 441.999 615.456 442.187C615.649 442.375 615.746 442.602 615.749 442.867C615.747 443.046 615.7 443.209 615.61 443.356C615.521 443.503 615.403 443.62 615.258 443.707C615.112 443.793 614.953 443.837 614.779 443.837V443.837Z" fill="#FF00CC"/>
<path d="M620.348 445.096C619.622 445.096 618.999 444.911 618.48 444.542C617.961 444.174 617.562 443.64 617.285 442.941C617.007 442.243 616.868 441.401 616.868 440.416C616.871 439.431 617.012 438.592 617.289 437.899C617.568 437.207 617.966 436.678 618.485 436.314C619.004 435.949 619.625 435.767 620.348 435.767C621.072 435.767 621.694 435.949 622.214 436.314C622.735 436.679 623.134 437.208 623.412 437.902C623.69 438.596 623.829 439.434 623.829 440.416C623.829 441.398 623.69 442.247 623.412 442.946C623.134 443.644 622.735 444.178 622.217 444.545C621.698 444.912 621.075 445.096 620.348 445.096ZM620.348 443.715C620.913 443.715 621.359 443.437 621.687 442.879C622.015 442.322 622.179 441.5 622.179 440.416C622.179 439.698 622.104 439.095 621.954 438.607C621.804 438.119 621.592 437.751 621.319 437.502C621.045 437.254 620.722 437.129 620.348 437.129C619.786 437.129 619.342 437.408 619.016 437.966C618.69 438.523 618.525 439.34 618.522 440.416C618.519 441.136 618.592 441.742 618.741 442.233C618.889 442.725 619.1 443.094 619.374 443.343C619.647 443.591 619.972 443.715 620.348 443.715Z" fill="#FF00CC"/>
<path d="M628.074 445.096C627.348 445.096 626.725 444.911 626.206 444.542C625.686 444.174 625.288 443.64 625.01 442.941C624.732 442.243 624.594 441.401 624.594 440.416C624.597 439.431 624.737 438.592 625.015 437.899C625.293 437.207 625.692 436.678 626.21 436.314C626.729 435.949 627.351 435.767 628.074 435.767C628.797 435.767 629.419 435.949 629.94 436.314C630.46 436.679 630.86 437.208 631.138 437.902C631.416 438.596 631.554 439.434 631.554 440.416C631.554 441.398 631.415 442.247 631.138 442.946C630.859 443.644 630.461 444.178 629.942 444.545C629.423 444.912 628.801 445.096 628.074 445.096ZM628.074 443.715C628.639 443.715 629.085 443.437 629.413 442.879C629.741 442.322 629.905 441.5 629.905 440.416C629.905 439.698 629.829 439.095 629.68 438.607C629.53 438.119 629.318 437.751 629.045 437.502C628.771 437.254 628.448 437.129 628.074 437.129C627.512 437.129 627.068 437.408 626.742 437.966C626.415 438.523 626.251 439.34 626.248 440.416C626.245 441.136 626.317 441.742 626.466 442.233C626.614 442.725 626.826 443.094 627.099 443.343C627.373 443.591 627.698 443.715 628.074 443.715Z" fill="#FF00CC"/>
<path d="M605.017 432.408H599.03V433.776H605.017V432.408Z" fill="#FF00CC"/>
<path d="M603.52 452.969C603.278 452.969 603.071 452.918 602.897 452.814C602.723 452.71 602.589 452.564 602.495 452.376C602.401 452.187 602.354 451.966 602.354 451.712C602.354 451.457 602.402 451.24 602.495 451.049C602.589 450.858 602.721 450.708 602.89 450.601C603.06 450.494 603.258 450.44 603.485 450.44C603.623 450.44 603.757 450.463 603.887 450.508C604.017 450.554 604.133 450.626 604.236 450.723C604.339 450.821 604.42 450.948 604.48 451.103C604.54 451.259 604.569 451.448 604.569 451.67V451.839H602.624V451.482H604.103C604.103 451.356 604.077 451.245 604.026 451.148C603.975 451.05 603.904 450.974 603.812 450.918C603.72 450.861 603.612 450.833 603.489 450.833C603.355 450.833 603.239 450.866 603.139 450.931C603.04 450.997 602.964 451.082 602.91 451.186C602.855 451.29 602.829 451.404 602.829 451.526V451.805C602.829 451.969 602.858 452.108 602.916 452.223C602.974 452.337 603.055 452.425 603.159 452.485C603.263 452.545 603.384 452.575 603.523 452.575C603.614 452.575 603.696 452.562 603.77 452.536C603.844 452.51 603.909 452.471 603.963 452.419C604.017 452.367 604.059 452.303 604.087 452.226L604.538 452.308C604.502 452.441 604.437 452.557 604.344 452.656C604.251 452.755 604.135 452.832 603.995 452.887C603.856 452.942 603.697 452.969 603.518 452.969L603.52 452.969Z" fill="#FF00CC"/>
<path d="M604.934 452.925L605.882 451.672L604.945 450.477H605.5L606.257 451.494H606.427V450.477H606.904V451.494H607.069L607.826 450.477H608.381L607.448 451.672L608.392 452.925H607.826L607.063 451.905H606.903V452.925H606.427V451.905H606.267L605.499 452.925H604.933H604.934Z" fill="#FF00CC"/>
<path d="M609.876 452.969C609.635 452.969 609.427 452.918 609.254 452.814C609.08 452.71 608.946 452.564 608.852 452.376C608.758 452.187 608.711 451.966 608.711 451.712C608.711 451.457 608.758 451.24 608.852 451.049C608.946 450.858 609.077 450.708 609.247 450.601C609.416 450.494 609.614 450.44 609.842 450.44C609.98 450.44 610.114 450.463 610.244 450.508C610.373 450.554 610.489 450.626 610.592 450.723C610.696 450.821 610.777 450.948 610.836 451.103C610.896 451.259 610.926 451.448 610.926 451.67V451.839H608.98V451.482H610.459C610.459 451.356 610.433 451.245 610.383 451.148C610.332 451.05 610.26 450.974 610.168 450.918C610.077 450.861 609.969 450.833 609.846 450.833C609.712 450.833 609.596 450.866 609.496 450.931C609.397 450.997 609.32 451.082 609.266 451.186C609.212 451.29 609.186 451.404 609.186 451.526V451.805C609.186 451.969 609.215 452.108 609.272 452.223C609.33 452.337 609.411 452.425 609.515 452.485C609.619 452.545 609.741 452.575 609.88 452.575C609.97 452.575 610.053 452.562 610.127 452.536C610.201 452.51 610.265 452.471 610.319 452.419C610.374 452.367 610.415 452.303 610.444 452.226L610.894 452.308C610.859 452.441 610.794 452.557 610.701 452.656C610.608 452.755 610.492 452.832 610.352 452.887C610.212 452.942 610.053 452.969 609.875 452.969L609.876 452.969Z" fill="#FF00CC"/>
<path d="M611.263 453.631V452.512H611.462C611.513 452.465 611.556 452.409 611.592 452.344C611.628 452.279 611.658 452.202 611.683 452.113C611.708 452.024 611.729 451.92 611.745 451.801C611.763 451.681 611.777 451.544 611.79 451.39L611.866 450.477H613.53V452.512H613.906V453.631H613.441V452.924H611.735V453.631H611.263ZM611.972 452.512H613.065V450.885H612.294L612.242 451.39C612.218 451.647 612.187 451.869 612.15 452.058C612.113 452.247 612.053 452.398 611.972 452.511V452.512Z" fill="#FF00CC"/>
<path d="M614.885 450.477V452.925H614.418V450.477H614.885ZM616.077 451.496V451.908H614.751V451.496H616.077ZM616.409 450.477V452.925H615.944V450.477H616.409Z" fill="#FF00CC"/>
<path d="M618.143 452.969C617.901 452.969 617.694 452.918 617.52 452.814C617.346 452.71 617.212 452.564 617.118 452.376C617.024 452.187 616.978 451.966 616.978 451.712C616.978 451.457 617.025 451.24 617.118 451.049C617.212 450.858 617.344 450.708 617.513 450.601C617.683 450.494 617.881 450.44 618.108 450.44C618.246 450.44 618.38 450.463 618.51 450.508C618.64 450.554 618.756 450.626 618.859 450.723C618.962 450.821 619.043 450.948 619.103 451.103C619.163 451.259 619.192 451.448 619.192 451.67V451.839H617.247V451.482H618.726C618.726 451.356 618.7 451.245 618.649 451.148C618.599 451.05 618.527 450.974 618.435 450.918C618.343 450.861 618.235 450.833 618.112 450.833C617.978 450.833 617.862 450.866 617.762 450.931C617.663 450.997 617.587 451.082 617.533 451.186C617.479 451.29 617.452 451.404 617.452 451.526V451.805C617.452 451.969 617.481 452.108 617.539 452.223C617.597 452.337 617.678 452.425 617.782 452.485C617.886 452.545 618.007 452.575 618.147 452.575C618.237 452.575 618.319 452.562 618.393 452.536C618.467 452.51 618.532 452.471 618.586 452.419C618.64 452.367 618.682 452.303 618.71 452.226L619.161 452.308C619.125 452.441 619.06 452.557 618.967 452.656C618.874 452.755 618.758 452.832 618.618 452.887C618.479 452.942 618.32 452.969 618.141 452.969L618.143 452.969Z" fill="#FF00CC"/>
<path d="M619.77 452.925V450.477H620.785C621.061 450.477 621.28 450.536 621.441 450.653C621.603 450.771 621.683 450.93 621.683 451.13C621.683 451.274 621.638 451.387 621.547 451.471C621.456 451.555 621.334 451.611 621.184 451.64C621.293 451.652 621.393 451.685 621.485 451.738C621.576 451.79 621.649 451.861 621.705 451.949C621.761 452.037 621.789 452.142 621.789 452.264C621.789 452.394 621.755 452.508 621.689 452.608C621.622 452.707 621.524 452.785 621.398 452.841C621.271 452.897 621.118 452.924 620.94 452.924H619.77L619.77 452.925ZM620.218 451.497H620.79C620.879 451.497 620.956 451.485 621.02 451.459C621.084 451.433 621.133 451.398 621.168 451.35C621.203 451.302 621.22 451.247 621.22 451.182C621.22 451.087 621.181 451.013 621.104 450.96C621.026 450.907 620.92 450.88 620.785 450.88H620.218V451.497L620.218 451.497ZM620.218 452.527H620.94C621.058 452.527 621.15 452.499 621.217 452.442C621.283 452.386 621.317 452.31 621.317 452.213C621.317 452.099 621.283 452.01 621.217 451.944C621.15 451.879 621.057 451.846 620.94 451.846H620.218V452.527Z" fill="#FF00CC"/>
<path d="M622.82 450.477V452.925H622.354V450.477H622.82ZM624.012 451.496V451.908H622.686V451.496H624.012ZM624.345 450.477V452.925H623.88V450.477H624.345Z" fill="#FF00CC"/>
<path d="M626.058 452.969C625.828 452.969 625.628 452.916 625.457 452.811C625.286 452.706 625.154 452.559 625.059 452.37C624.964 452.181 624.917 451.959 624.917 451.707C624.917 451.454 624.964 451.231 625.059 451.041C625.154 450.85 625.286 450.703 625.457 450.598C625.628 450.492 625.828 450.44 626.058 450.44C626.288 450.44 626.488 450.492 626.659 450.598C626.83 450.703 626.963 450.851 627.057 451.041C627.152 451.231 627.199 451.453 627.199 451.707C627.199 451.961 627.152 452.181 627.057 452.37C626.963 452.559 626.83 452.706 626.659 452.811C626.488 452.916 626.288 452.969 626.058 452.969ZM626.06 452.569C626.209 452.569 626.332 452.529 626.43 452.451C626.527 452.372 626.6 452.267 626.647 452.137C626.695 452.006 626.718 451.862 626.718 451.705C626.718 451.547 626.694 451.405 626.647 451.274C626.6 451.143 626.528 451.037 626.43 450.957C626.332 450.878 626.209 450.838 626.06 450.838C625.911 450.838 625.786 450.878 625.688 450.957C625.59 451.037 625.517 451.143 625.469 451.274C625.422 451.405 625.399 451.549 625.399 451.705C625.399 451.861 625.422 452.006 625.469 452.137C625.517 452.267 625.59 452.372 625.688 452.451C625.786 452.529 625.91 452.569 626.06 452.569Z" fill="#FF00CC"/>
<rect x="574.765" y="534.683" width="21.9392" height="10.6157" rx="5.30787" fill="#FF00CC"/>
<path d="M592.636 541.152V539.377H592.21C592.095 539.377 592.008 539.403 591.948 539.456C591.888 539.51 591.858 539.573 591.859 539.645C591.858 539.719 591.887 539.782 591.945 539.833C592.004 539.883 592.09 539.908 592.205 539.908H592.846V540.334H592.205C592.011 540.334 591.843 540.304 591.701 540.245C591.559 540.186 591.45 540.104 591.373 539.998C591.296 539.892 591.258 539.768 591.259 539.628C591.258 539.48 591.296 539.351 591.373 539.239C591.45 539.127 591.56 539.04 591.702 538.978C591.846 538.915 592.016 538.883 592.21 538.883H593.222V541.152H592.636ZM591.194 541.152L591.825 539.97H592.426L591.797 541.152H591.194Z" fill="white"/>
<path d="M590.637 538.05L590.829 538.461C590.765 538.514 590.694 538.553 590.617 538.579C590.539 538.604 590.446 538.62 590.337 538.628C590.23 538.636 590.099 538.641 589.945 538.644C589.769 538.646 589.627 538.674 589.516 538.728C589.406 538.782 589.322 538.868 589.265 538.984C589.208 539.099 589.171 539.25 589.153 539.436H589.175C589.243 539.297 589.339 539.189 589.462 539.114C589.586 539.038 589.739 539 589.921 539C590.114 539 590.283 539.042 590.427 539.127C590.573 539.212 590.686 539.333 590.767 539.492C590.848 539.65 590.888 539.84 590.888 540.062C590.888 540.292 590.843 540.493 590.752 540.663C590.663 540.832 590.535 540.964 590.37 541.057C590.204 541.15 590.008 541.196 589.779 541.196C589.55 541.196 589.352 541.148 589.185 541.051C589.02 540.955 588.892 540.813 588.801 540.625C588.712 540.437 588.667 540.205 588.667 539.93V539.744C588.667 539.198 588.773 538.793 588.986 538.529C589.199 538.265 589.511 538.131 589.924 538.127C590.036 538.125 590.138 538.125 590.228 538.126C590.319 538.127 590.398 538.122 590.466 538.112C590.535 538.102 590.592 538.082 590.637 538.05ZM589.782 540.709C589.879 540.709 589.961 540.684 590.03 540.633C590.1 540.583 590.154 540.511 590.191 540.418C590.23 540.324 590.249 540.213 590.249 540.083C590.249 539.954 590.23 539.844 590.191 539.755C590.154 539.664 590.1 539.595 590.03 539.548C589.96 539.501 589.877 539.477 589.779 539.477C589.706 539.477 589.641 539.49 589.583 539.517C589.525 539.543 589.475 539.583 589.434 539.635C589.393 539.686 589.362 539.75 589.339 539.826C589.317 539.9 589.307 539.986 589.307 540.083C589.307 540.277 589.348 540.43 589.432 540.542C589.517 540.653 589.633 540.709 589.782 540.709Z" fill="white"/>
<path d="M587.299 541.196C587.066 541.196 586.865 541.149 586.697 541.055C586.529 540.959 586.4 540.824 586.31 540.65C586.219 540.475 586.174 540.267 586.174 540.028C586.174 539.795 586.219 539.59 586.31 539.414C586.4 539.238 586.528 539.1 586.692 539.002C586.858 538.903 587.052 538.854 587.274 538.854C587.424 538.854 587.563 538.878 587.692 538.926C587.822 538.974 587.935 539.045 588.032 539.141C588.129 539.236 588.205 539.356 588.259 539.501C588.313 539.645 588.34 539.813 588.34 540.006V540.179H586.425V539.789H587.748C587.748 539.698 587.729 539.618 587.689 539.548C587.65 539.478 587.595 539.424 587.525 539.384C587.456 539.344 587.376 539.324 587.284 539.324C587.189 539.324 587.104 539.346 587.03 539.39C586.958 539.433 586.9 539.492 586.859 539.566C586.818 539.639 586.797 539.72 586.796 539.81V540.18C586.796 540.293 586.816 540.39 586.858 540.471C586.9 540.553 586.96 540.616 587.036 540.66C587.113 540.705 587.204 540.727 587.31 540.727C587.379 540.727 587.443 540.717 587.502 540.697C587.56 540.678 587.609 540.648 587.651 540.609C587.692 540.569 587.724 540.521 587.745 540.464L588.327 540.502C588.298 540.642 588.237 540.764 588.146 540.869C588.055 540.972 587.938 541.053 587.794 541.111C587.651 541.168 587.486 541.196 587.299 541.196Z" fill="white"/>
<path d="M584.85 541.196C584.618 541.196 584.418 541.147 584.25 541.049C584.084 540.949 583.956 540.811 583.866 540.635C583.778 540.459 583.733 540.256 583.733 540.027C583.733 539.794 583.778 539.59 583.868 539.415C583.958 539.239 584.087 539.102 584.253 539.003C584.42 538.904 584.618 538.854 584.847 538.854C585.045 538.854 585.218 538.89 585.367 538.962C585.516 539.034 585.633 539.135 585.72 539.265C585.807 539.395 585.854 539.547 585.863 539.722H585.269C585.253 539.609 585.208 539.518 585.136 539.449C585.066 539.379 584.973 539.344 584.857 539.344C584.76 539.344 584.675 539.371 584.602 539.424C584.53 539.476 584.474 539.553 584.433 539.653C584.393 539.753 584.373 539.875 584.373 540.018C584.373 540.163 584.393 540.286 584.432 540.387C584.472 540.488 584.529 540.566 584.602 540.619C584.675 540.672 584.76 540.699 584.857 540.699C584.929 540.699 584.994 540.684 585.051 540.654C585.109 540.625 585.157 540.582 585.194 540.526C585.232 540.469 585.258 540.4 585.269 540.321H585.863C585.853 540.494 585.806 540.647 585.721 540.778C585.638 540.909 585.522 541.012 585.374 541.086C585.227 541.159 585.052 541.196 584.85 541.196Z" fill="white"/>
<path d="M581.096 541.195C580.951 541.195 580.822 541.17 580.709 541.12C580.596 541.068 580.506 540.993 580.44 540.894C580.375 540.793 580.343 540.668 580.343 540.519C580.343 540.392 580.366 540.287 580.412 540.201C580.458 540.115 580.521 540.046 580.601 539.994C580.681 539.942 580.772 539.903 580.873 539.876C580.975 539.849 581.083 539.831 581.195 539.82C581.327 539.806 581.433 539.793 581.514 539.782C581.595 539.769 581.653 539.75 581.69 539.725C581.726 539.701 581.744 539.664 581.744 539.616V539.607C581.744 539.514 581.715 539.441 581.656 539.39C581.598 539.339 581.515 539.313 581.408 539.313C581.294 539.313 581.204 539.338 581.137 539.389C581.07 539.438 581.026 539.5 581.004 539.575L580.423 539.527C580.452 539.39 580.51 539.27 580.597 539.17C580.683 539.069 580.795 538.991 580.932 538.937C581.07 538.882 581.229 538.854 581.411 538.854C581.537 538.854 581.657 538.869 581.772 538.898C581.889 538.928 581.992 538.974 582.081 539.036C582.172 539.098 582.243 539.177 582.295 539.275C582.347 539.371 582.374 539.487 582.374 539.622V541.152H581.777V540.838H581.759C581.723 540.908 581.674 540.971 581.613 541.025C581.552 541.078 581.479 541.12 581.393 541.151C581.307 541.18 581.208 541.195 581.096 541.195ZM581.276 540.761C581.369 540.761 581.45 540.743 581.521 540.706C581.592 540.669 581.648 540.618 581.688 540.555C581.729 540.492 581.749 540.421 581.749 540.341V540.101C581.729 540.113 581.702 540.125 581.668 540.136C581.634 540.146 581.596 540.155 581.554 540.164C581.512 540.172 581.469 540.179 581.427 540.186C581.385 540.192 581.346 540.198 581.312 540.202C581.238 540.213 581.173 540.231 581.118 540.254C581.063 540.278 581.02 540.31 580.99 540.35C580.959 540.39 580.944 540.439 580.944 540.498C580.944 540.583 580.975 540.649 581.037 540.694C581.1 540.739 581.18 540.761 581.276 540.761Z" fill="white"/>
<path d="M579.567 539.767V540.261H578.383V539.767H579.567ZM578.589 538.883V541.152H577.988V538.883H578.589ZM579.961 538.883V541.152H579.365V538.883H579.961Z" fill="white"/>
<circle cx="553.085" cy="556.647" r="4.75888" fill="#F5F5F5" stroke="#555555" stroke-width="1.05753"/>
<path d="M673.644 428.157C673.644 426.697 674.828 425.514 676.288 425.514H685.277V433.974H676.288C674.828 433.974 673.644 432.79 673.644 431.33V428.157Z" fill="#F5F5F5" stroke="#555555" stroke-width="1.05753"/>
<path d="M677.873 433.974H686.862C688.323 433.974 689.506 435.157 689.506 436.617V439.79C689.506 441.25 688.323 442.434 686.862 442.434H677.873V433.974Z" fill="#F5F5F5" stroke="#555555" stroke-width="1.05753"/>
<path d="M677.873 417.053H686.862C688.323 417.053 689.506 418.237 689.506 419.697V422.87C689.506 424.33 688.323 425.513 686.862 425.513H677.873V417.053Z" fill="#F5F5F5" stroke="#555555" stroke-width="1.05753"/>
<path d="M673.644 481.034C673.644 479.574 674.828 478.39 676.288 478.39H685.277V486.85H676.288C674.828 486.85 673.644 485.667 673.644 484.207V481.034Z" fill="#F5F5F5" stroke="#555555" stroke-width="1.05753"/>
<path d="M677.873 486.85H686.862C688.323 486.85 689.506 488.034 689.506 489.494V492.666C689.506 494.127 688.323 495.31 686.862 495.31H677.873V486.85Z" fill="#F5F5F5" stroke="#555555" stroke-width="1.05753"/>
<path d="M677.873 469.93H686.862C688.323 469.93 689.506 471.113 689.506 472.573V475.746C689.506 477.206 688.323 478.39 686.862 478.39H677.873V469.93Z" fill="#F5F5F5" stroke="#555555" stroke-width="1.05753"/>
<path d="M673.644 649.181C673.644 647.721 674.828 646.537 676.288 646.537H685.277V654.997H676.288C674.828 654.997 673.644 653.814 673.644 652.353V649.181Z" fill="#F5F5F5" stroke="#555555" stroke-width="1.05753"/>
<path d="M677.873 654.998H686.862C688.323 654.998 689.506 656.181 689.506 657.641V660.814C689.506 662.274 688.323 663.458 686.862 663.458H677.873V654.998Z" fill="#F5F5F5" stroke="#555555" stroke-width="1.05753"/>
<path d="M677.873 638.077H686.862C688.323 638.077 689.506 639.261 689.506 640.721V643.894C689.506 645.354 688.323 646.537 686.862 646.537H677.873V638.077Z" fill="#F5F5F5" stroke="#555555" stroke-width="1.05753"/>
<rect x="476.943" y="297.552" width="214.679" height="4.23012" fill="#F5F5F5" stroke="#555555" stroke-width="1.05753"/>
<path d="M570.006 626.96V630.674H555.201V626.96H570.006ZM555.201 436.631V432.916H570.006V436.631H555.201Z" fill="#F5F5F5" stroke="#555555" stroke-width="1.05753"/>
<path d="M566.833 389.558H572.121V674.033H566.833V630.674V625.915V437.146V432.388V389.558Z" fill="#F5F5F5" stroke="#555555" stroke-width="1.05753"/>
<g filter="url(#filter0_d_3114_12523)">
<rect x="372.644" y="403.863" width="63.9594" height="63.9594" rx="25.8676" fill="#FF00CC"/>
</g>
<path fill-rule="evenodd" clip-rule="evenodd" d="M417.836 437.135C415.264 437.135 413.099 435.069 413.099 432.379C413.099 429.689 415.136 427.645 417.857 427.645C420.579 427.645 422.616 429.775 422.616 432.379C422.616 434.982 420.451 437.135 417.836 437.135ZM400.099 433.498L396.627 424.417H393.969L390.475 433.498L386.981 424.417H382.844L388.952 440.384H391.61L395.276 430.873L398.962 440.384H401.62L407.708 424.417H403.592L400.098 433.498H400.099ZM417.857 423.815C416.078 423.815 414.47 424.353 413.099 425.278V416.843H409.305V432.401C409.305 437.135 413.142 440.943 417.837 440.943C422.531 440.943 426.41 437.156 426.41 432.357C426.41 427.559 422.617 423.814 417.858 423.814L417.857 423.815Z" fill="white"/>
<rect x="392.584" y="448.25" width="24.7638" height="3.53768" fill="white"/>
<rect x="331" y="132" width="493" height="85" fill="#D9D9D9"/>
<path d="M838 134H345L320 177.301H813L838 134Z" fill="#B2B2B2"/>
<path d="M345 218H838L813 261.301H320L345 218Z" fill="#B2B2B2"/>
<path d="M345 134V218L320 261.301V177.301L345 134Z" fill="#B2B2B2"/>
<rect x="345" y="134" width="493" height="84" fill="#FF00CC"/>
<path d="M755.312 176.131C755.312 175.364 755.662 174.645 756.281 174.026C757.553 172.754 759.961 171.9 762.813 171.9C767.055 171.9 771.763 173.991 774.811 177.357C774.811 177.357 775.08 177.033 775.499 176.528C776.563 175.244 778.595 172.792 779.659 171.509C780.078 171.003 780.347 170.679 780.347 170.679C775.072 166.092 769.742 163.695 763.074 163.695C757.852 163.695 752.53 165.177 749.286 168.42C747.356 170.349 746.162 172.902 746.162 176.136C746.162 186.793 755.472 187.559 763.074 188.167C767.315 188.474 771.091 188.78 771.091 191.533C771.091 192.381 770.738 193.1 770.145 193.693C768.671 195.167 765.716 195.868 763.023 195.868C758.626 195.868 753.868 194.034 750.403 189.902C750.403 189.902 750.287 190.024 750.087 190.233C749.775 190.56 749.259 191.099 748.664 191.722C747.902 192.519 747.009 193.454 746.246 194.252C745.651 194.874 745.136 195.414 744.824 195.74C744.623 195.949 744.507 196.071 744.507 196.071C749.215 201.731 756.039 204.227 762.713 204.227C767.999 204.227 773.596 202.664 777.006 199.256C779 197.262 780.246 194.638 780.246 191.326C780.246 181.178 770.835 180.21 763.595 179.498C759.042 179.038 755.322 178.632 755.322 176.131H755.312ZM713.266 178.628C713.761 177.398 714.448 176.336 715.32 175.463C717.087 173.695 719.612 172.711 722.832 172.711C727.641 172.711 730.539 175.005 731.782 178.628H713.266ZM723.248 163.69C717.443 163.69 712.212 165.951 708.469 169.693C704.841 173.32 702.611 178.337 702.611 184.035C702.611 194.895 710.729 204.277 722.732 204.277C728.49 204.277 733.367 202.116 737.203 198.282C738.19 197.295 739.108 196.198 739.955 194.999L733.647 189.749C733.244 190.358 732.782 190.922 732.267 191.437C729.936 193.769 726.519 195.102 722.581 195.102C717.772 195.102 712.598 191.484 712.187 186.18H742.03V183.017C742.03 168.634 730.445 163.69 723.248 163.69ZM688.853 204.404H698.008V166.62H688.853V204.404ZM688.565 150.29C687.299 151.556 686.522 153.295 686.522 155.152C686.522 158.978 689.575 161.731 693.556 161.731C695.59 161.731 697.3 161.026 698.487 159.84C699.624 158.703 700.28 157.126 700.28 155.306C700.28 151.583 697.176 148.271 693.401 148.271C691.502 148.271 689.801 149.055 688.565 150.29ZM560.898 163.641C556.606 163.641 552.725 164.916 549.416 167.106V147.121H540.261V183.986C540.261 195.201 549.517 204.227 560.843 204.227C566.596 204.227 571.842 201.912 575.612 198.144C579.264 194.493 581.531 189.478 581.531 183.882C581.531 172.508 571.63 163.641 560.898 163.641ZM513.366 164.253C508.511 164.739 504.078 166.962 500.768 170.271C497.132 173.905 494.85 178.85 494.85 184.242C494.85 195.152 504.316 204.281 515.382 204.281C521.018 204.281 526.239 201.914 530.006 198.149C533.635 194.522 535.914 189.598 535.914 184.242C535.914 179.601 534.209 175.32 531.467 171.954L511.195 147.171H499.352L513.366 164.253ZM442.51 188.142L434.131 166.625H427.719L419.29 188.142L410.862 166.625H400.879L415.62 204.458H422.033L430.877 181.923L439.772 204.458H446.185L460.875 166.625H450.943L442.514 188.142H442.51ZM606.355 163.69C600.591 163.69 595.243 166.047 591.429 169.86C587.886 173.401 585.667 178.197 585.667 183.526C585.667 194.593 593.785 204.277 605.838 204.277C611.597 204.277 616.473 202.116 620.309 198.282C621.296 197.295 622.214 196.198 623.061 194.999L615.926 189.289C615.421 190.184 614.803 190.988 614.099 191.693C611.915 193.878 608.904 195.102 605.893 195.102C600.719 195.102 595.654 191.484 595.238 186.18H625.182V183.427C625.182 171.988 617.471 163.69 606.355 163.69ZM642.049 171.409C640.972 172.485 639.988 173.758 639.091 175.241V166.625H629.935V204.409H639.091V188.448C639.091 185.484 640.321 182.961 642.306 180.975C645.516 177.764 650.701 175.957 655.847 175.957V166.625H654.915C649.6 166.625 645.378 168.081 642.049 171.409ZM671.115 171.409C670.037 172.485 669.054 173.758 668.156 175.241V166.625H659.001V204.409H668.156V188.448C668.156 185.484 669.387 182.961 671.371 180.975C674.582 177.764 679.767 175.957 684.913 175.957V166.625H683.981C678.666 166.625 674.444 168.081 671.115 171.409ZM480.991 204.404H490.147V147.171H480.991V204.404ZM515.437 195.201C509.129 195.201 504.005 190.204 504.005 183.986C504.005 180.899 505.267 178.1 507.302 176.064C509.368 173.997 512.231 172.716 515.382 172.716C521.639 172.716 526.914 177.713 526.914 183.986C526.914 187.059 525.672 189.814 523.663 191.824C521.571 193.916 518.649 195.201 515.432 195.201H515.437ZM569.078 191.783C566.975 193.886 564.051 195.201 560.848 195.201C554.641 195.201 549.416 190.308 549.416 183.932C549.416 180.786 550.612 178.015 552.612 176.014C554.667 173.958 557.57 172.716 560.898 172.716C567.466 172.716 572.38 177.763 572.38 183.932C572.38 186.967 571.115 189.745 569.078 191.783ZM465.167 204.404H474.323V166.62H465.167V204.404ZM469.615 148.267C467.76 148.267 466.06 149.025 464.82 150.265C463.569 151.515 462.786 153.256 462.786 155.202C462.786 159.077 466.045 161.781 469.615 161.781C471.597 161.781 473.337 160.972 474.584 159.725C475.842 158.468 476.599 156.766 476.599 154.999C476.599 151.48 473.445 148.267 469.615 148.267ZM596.326 178.628C596.839 177.395 597.534 176.331 598.407 175.457C600.171 173.693 602.66 172.711 605.843 172.711C610.601 172.711 613.704 175.005 614.943 178.628H596.326Z" fill="black" fill-opacity="0.11"/>
<path d="M782.468 168.559L781.78 169.388L779.659 171.51L780.347 170.68L782.468 168.559Z" fill="black" fill-opacity="0.11"/>
<path d="M765.195 161.574C771.863 161.574 777.193 163.971 782.468 168.559L780.346 170.68C775.072 166.093 769.742 163.696 763.073 163.696L765.195 161.574Z" fill="black" fill-opacity="0.11"/>
<path d="M781.78 169.387L777.62 174.406L775.499 176.527L779.659 171.508L781.78 169.387Z" fill="black" fill-opacity="0.11"/>
<path d="M777.62 174.406L776.933 175.236L774.812 177.357L775.499 176.528L777.62 174.406Z" fill="black" fill-opacity="0.11"/>
<path d="M776.932 175.234C773.883 171.868 769.176 169.777 764.934 169.777L762.812 171.899C767.054 171.899 771.762 173.99 774.811 177.356L776.932 175.234Z" fill="black" fill-opacity="0.11"/>
<path d="M751.407 166.3C754.651 163.057 759.973 161.574 765.195 161.574L763.073 163.696C757.852 163.696 752.53 165.178 749.286 168.421L751.407 166.3Z" fill="black" fill-opacity="0.11"/>
<path d="M764.934 169.777C762.082 169.777 759.674 170.631 758.403 171.903L756.282 174.023C757.554 172.752 759.961 171.899 762.813 171.899L764.934 169.777Z" fill="black" fill-opacity="0.11"/>
<path d="M765.716 177.375C772.956 178.087 782.368 179.056 782.368 189.204L780.246 191.325C780.246 181.177 770.835 180.208 763.595 179.496L765.716 177.375Z" fill="black" fill-opacity="0.11"/>
<path d="M782.368 189.203C782.368 192.515 781.121 195.139 779.127 197.133L777.009 199.251C779.001 197.258 780.246 194.635 780.246 191.324L782.368 189.203Z" fill="black" fill-opacity="0.11"/>
<path d="M757.443 174.012C757.443 176.513 761.163 176.918 765.716 177.378L763.594 179.499C759.042 179.039 755.321 178.634 755.321 176.133L757.443 174.012Z" fill="black" fill-opacity="0.11"/>
<path d="M758.403 171.906C757.783 172.526 757.434 173.244 757.434 174.012L755.312 176.133C755.312 175.366 755.662 174.647 756.281 174.028L758.403 171.906Z" fill="black" fill-opacity="0.11"/>
<path d="M757.434 174.012H757.443L755.322 176.133H755.312L757.434 174.012Z" fill="black" fill-opacity="0.11"/>
<path d="M772.266 191.573C772.859 190.98 773.212 190.262 773.212 189.414L771.091 191.535C771.091 192.383 770.737 193.102 770.145 193.695L772.266 191.573Z" fill="black" fill-opacity="0.11"/>
<path d="M773.212 189.413C773.212 186.66 769.436 186.353 765.195 186.047L763.073 188.168C767.315 188.475 771.09 188.781 771.09 191.534L773.212 189.413Z" fill="black" fill-opacity="0.11"/>
<path d="M748.282 174.017C748.282 170.784 749.476 168.233 751.404 166.304L749.286 168.422C747.356 170.351 746.161 172.904 746.161 176.138L748.282 174.017Z" fill="black" fill-opacity="0.11"/>
<path d="M765.194 186.047C757.593 185.439 748.282 184.673 748.282 174.016L746.161 176.137C746.161 186.794 755.472 187.56 763.073 188.168L765.194 186.047Z" fill="black" fill-opacity="0.11"/>
<path d="M765.145 193.746C767.837 193.746 770.791 193.045 772.265 191.571L770.145 193.692C768.671 195.166 765.716 195.867 763.023 195.867L765.145 193.746Z" fill="black" fill-opacity="0.11"/>
<path d="M779.126 197.133C775.716 200.541 770.12 202.104 764.833 202.104L762.712 204.226C767.999 204.226 773.595 202.663 777.005 199.254L779.126 197.133Z" fill="black" fill-opacity="0.11"/>
<path d="M752.525 187.781C755.989 191.913 760.748 193.747 765.145 193.747L763.023 195.869C758.626 195.869 753.868 194.035 750.403 189.903L752.525 187.781Z" fill="black" fill-opacity="0.11"/>
<path d="M752.208 188.112L752.525 187.781L750.403 189.903L750.087 190.234L752.208 188.112Z" fill="black" fill-opacity="0.11"/>
<path d="M725.369 161.57C732.566 161.57 744.151 166.514 744.151 180.897L742.029 183.018C742.029 168.636 730.445 163.692 723.248 163.692L725.369 161.57Z" fill="black" fill-opacity="0.11"/>
<path d="M750.785 189.602L752.208 188.113L750.087 190.235L748.664 191.723L750.785 189.602Z" fill="black" fill-opacity="0.11"/>
<path d="M744.151 180.895V184.058L742.029 186.179V183.016L744.151 180.895Z" fill="black" fill-opacity="0.11"/>
<path d="M748.367 192.132L750.786 189.602L748.664 191.723L746.246 194.253L748.367 192.132Z" fill="black" fill-opacity="0.11"/>
<path d="M764.834 202.105C758.16 202.105 751.336 199.609 746.628 193.949L744.507 196.071C749.215 201.73 756.039 204.227 762.712 204.227L764.834 202.105Z" fill="black" fill-opacity="0.11"/>
<path d="M733.903 176.506C732.66 172.883 729.762 170.59 724.953 170.59L722.832 172.711C727.641 172.711 730.538 175.005 731.782 178.628L733.903 176.506Z" fill="black" fill-opacity="0.11"/>
<path d="M746.945 193.617L748.367 192.129L746.246 194.25L744.823 195.739L746.945 193.617Z" fill="black" fill-opacity="0.11"/>
<path d="M710.59 167.573C714.333 163.831 719.564 161.57 725.369 161.57L723.248 163.692C717.443 163.692 712.212 165.953 708.469 169.694L710.59 167.573Z" fill="black" fill-opacity="0.11"/>
<path d="M746.628 193.948L746.945 193.617L744.823 195.739L744.507 196.07L746.628 193.948Z" fill="black" fill-opacity="0.11"/>
<path d="M695.522 146.152C699.297 146.152 702.401 149.464 702.401 153.186L700.279 155.308C700.279 151.586 697.176 148.274 693.4 148.274L695.522 146.152Z" fill="black" fill-opacity="0.11"/>
<path d="M724.953 170.59C721.733 170.59 719.208 171.574 717.441 173.342L715.322 175.461C717.089 173.694 719.613 172.711 722.832 172.711L724.953 170.59Z" fill="black" fill-opacity="0.11"/>
<path d="M735.768 187.629L742.075 192.879L739.954 195L733.646 189.75L735.768 187.629Z" fill="black" fill-opacity="0.11"/>
<path d="M715.387 176.508H733.903L731.782 178.629H713.266L715.387 176.508Z" fill="black" fill-opacity="0.11"/>
<path d="M734.388 189.317C734.903 188.802 735.365 188.238 735.768 187.629L733.646 189.75C733.243 190.359 732.782 190.923 732.267 191.438L734.388 189.317Z" fill="black" fill-opacity="0.11"/>
<path d="M742.076 192.879C741.229 194.079 740.311 195.176 739.324 196.162L737.211 198.275C738.195 197.291 739.11 196.196 739.955 195L742.076 192.879Z" fill="black" fill-opacity="0.11"/>
<path d="M702.402 153.184C702.402 155.004 701.745 156.582 700.609 157.718L698.489 159.837C699.625 158.701 700.28 157.125 700.28 155.305L702.402 153.184Z" fill="black" fill-opacity="0.11"/>
<path d="M690.687 148.171C691.922 146.936 693.624 146.152 695.522 146.152L693.401 148.274C691.502 148.274 689.801 149.057 688.565 150.292L690.687 148.171Z" fill="black" fill-opacity="0.11"/>
<path d="M744.151 184.059H714.308L712.187 186.18H742.029L744.151 184.059Z" fill="black" fill-opacity="0.11"/>
<path d="M717.441 173.344C716.569 174.216 715.882 175.279 715.387 176.508L713.266 178.63C713.761 177.4 714.448 176.337 715.32 175.465L717.441 173.344Z" fill="black" fill-opacity="0.11"/>
<path d="M700.609 157.719C699.422 158.905 697.712 159.61 695.678 159.61L693.557 161.732C695.59 161.732 697.301 161.026 698.487 159.84L700.609 157.719Z" fill="black" fill-opacity="0.11"/>
<path d="M688.643 153.03C688.643 151.174 689.419 149.436 690.684 148.17L688.565 150.289C687.299 151.555 686.521 153.294 686.521 155.152L688.643 153.03Z" fill="black" fill-opacity="0.11"/>
<path d="M724.702 192.981C728.639 192.981 732.054 191.65 734.385 189.32L732.267 191.438C729.937 193.77 726.519 195.103 722.581 195.103L724.702 192.981Z" fill="black" fill-opacity="0.11"/>
<path d="M695.677 159.61C691.696 159.61 688.643 156.857 688.643 153.031L686.521 155.153C686.521 158.978 689.575 161.732 693.556 161.732L695.677 159.61Z" fill="black" fill-opacity="0.11"/>
<path d="M739.324 196.16C735.488 199.994 730.611 202.155 724.853 202.155L722.731 204.276C728.49 204.276 733.367 202.116 737.203 198.281L739.324 196.16Z" fill="black" fill-opacity="0.11"/>
<path d="M704.733 181.913C704.733 176.217 706.961 171.202 710.586 167.575L708.47 169.692C704.841 173.318 702.611 178.336 702.611 184.034L704.733 181.913Z" fill="black" fill-opacity="0.11"/>
<path d="M690.974 164.5H700.129L698.008 166.621H688.853L690.974 164.5Z" fill="black" fill-opacity="0.11"/>
<path d="M714.308 184.059C714.719 189.362 719.893 192.981 724.702 192.981L722.581 195.102C717.772 195.102 712.598 191.484 712.187 186.18L714.308 184.059Z" fill="black" fill-opacity="0.11"/>
<path d="M724.853 202.156C712.85 202.156 704.733 192.774 704.733 181.914L702.611 184.035C702.611 194.895 710.729 204.277 722.732 204.277L724.853 202.156Z" fill="black" fill-opacity="0.11"/>
<path d="M686.102 164.504H687.034L684.913 166.625H683.98L686.102 164.504Z" fill="black" fill-opacity="0.11"/>
<path d="M687.034 164.504V173.836L684.913 175.957V166.625L687.034 164.504Z" fill="black" fill-opacity="0.11"/>
<path d="M700.129 164.5V202.284L698.008 204.405V166.621L700.129 164.5Z" fill="black" fill-opacity="0.11"/>
<path d="M673.236 169.288C676.565 165.96 680.787 164.504 686.101 164.504L683.98 166.625C678.665 166.625 674.444 168.081 671.114 171.409L673.236 169.288Z" fill="black" fill-opacity="0.11"/>
<path d="M690.974 202.284V164.5L688.853 166.621V204.405L690.974 202.284Z" fill="black" fill-opacity="0.11"/>
<path d="M687.034 173.836C681.888 173.836 676.703 175.643 673.492 178.854L671.374 180.972C674.585 177.763 679.768 175.957 684.913 175.957L687.034 173.836Z" fill="black" fill-opacity="0.11"/>
<path d="M670.278 164.504V173.12L668.156 175.241V166.625L670.278 164.504Z" fill="black" fill-opacity="0.11"/>
<path d="M661.122 164.504H670.278L668.156 166.625H659.001L661.122 164.504Z" fill="black" fill-opacity="0.11"/>
<path d="M670.278 173.121C671.173 171.641 672.155 170.37 673.23 169.295L671.115 171.41C670.037 172.487 669.053 173.76 668.156 175.242L670.278 173.121Z" fill="black" fill-opacity="0.11"/>
<path d="M700.129 202.281H690.974L688.853 204.403H698.008L700.129 202.281Z" fill="black" fill-opacity="0.11"/>
<path d="M657.036 164.504H657.969L655.847 166.625H654.915L657.036 164.504Z" fill="black" fill-opacity="0.11"/>
<path d="M673.493 178.855C671.508 180.841 670.278 183.364 670.278 186.328L668.156 188.449C668.156 185.485 669.386 182.962 671.371 180.977L673.493 178.855Z" fill="black" fill-opacity="0.11"/>
<path d="M657.968 164.504V173.836L655.847 175.957V166.625L657.968 164.504Z" fill="black" fill-opacity="0.11"/>
<path d="M644.17 169.288C647.5 165.96 651.721 164.504 657.036 164.504L654.915 166.625C649.6 166.625 645.378 168.081 642.049 171.409L644.17 169.288Z" fill="black" fill-opacity="0.11"/>
<path d="M661.122 202.288V164.504L659.001 166.625V204.409L661.122 202.288Z" fill="black" fill-opacity="0.11"/>
<path d="M670.278 186.328V202.289L668.156 204.41V188.449L670.278 186.328Z" fill="black" fill-opacity="0.11"/>
<path d="M657.969 173.836C652.822 173.836 647.637 175.643 644.427 178.854L642.309 180.972C645.52 177.763 650.703 175.957 655.847 175.957L657.969 173.836Z" fill="black" fill-opacity="0.11"/>
<path d="M641.212 164.504V173.12L639.091 175.241V166.625L641.212 164.504Z" fill="black" fill-opacity="0.11"/>
<path d="M632.057 164.504H641.212L639.091 166.625H629.936L632.057 164.504Z" fill="black" fill-opacity="0.11"/>
<path d="M641.212 173.121C642.108 171.641 643.09 170.37 644.164 169.295L642.049 171.41C640.972 172.487 639.988 173.76 639.091 175.242L641.212 173.121Z" fill="black" fill-opacity="0.11"/>
<path d="M670.278 202.289H661.122L659.001 204.41H668.156L670.278 202.289Z" fill="black" fill-opacity="0.11"/>
<path d="M644.427 178.855C642.442 180.841 641.212 183.364 641.212 186.328L639.091 188.449C639.091 185.485 640.321 182.962 642.306 180.977L644.427 178.855Z" fill="black" fill-opacity="0.11"/>
<path d="M632.057 202.288V164.504L629.936 166.625V204.409L632.057 202.288Z" fill="black" fill-opacity="0.11"/>
<path d="M641.212 186.328V202.289L639.091 204.41V188.449L641.212 186.328Z" fill="black" fill-opacity="0.11"/>
<path d="M608.476 161.57C619.592 161.57 627.303 169.868 627.303 181.307L625.182 183.428C625.182 171.989 617.471 163.692 606.354 163.692L608.476 161.57Z" fill="black" fill-opacity="0.11"/>
<path d="M627.303 181.305V184.058L625.182 186.179V183.426L627.303 181.305Z" fill="black" fill-opacity="0.11"/>
<path d="M617.065 176.506C615.826 172.883 612.722 170.59 607.964 170.59L605.843 172.711C610.601 172.711 613.705 175.005 614.943 178.628L617.065 176.506Z" fill="black" fill-opacity="0.11"/>
<path d="M593.55 167.74C597.364 163.928 602.712 161.57 608.476 161.57L606.354 163.692C600.591 163.692 595.243 166.049 591.429 169.861L593.55 167.74Z" fill="black" fill-opacity="0.11"/>
<path d="M641.212 202.289H632.057L629.936 204.41H639.091L641.212 202.289Z" fill="black" fill-opacity="0.11"/>
<path d="M607.964 170.59C604.781 170.59 602.292 171.572 600.529 173.336L598.41 175.454C600.173 173.692 602.662 172.711 605.843 172.711L607.964 170.59Z" fill="black" fill-opacity="0.11"/>
<path d="M618.047 187.168L625.182 192.877L623.061 194.999L615.926 189.289L618.047 187.168Z" fill="black" fill-opacity="0.11"/>
<path d="M598.447 176.508H617.064L614.943 178.629H596.326L598.447 176.508Z" fill="black" fill-opacity="0.11"/>
<path d="M625.182 192.879C624.336 194.079 623.418 195.176 622.431 196.162L620.318 198.275C621.302 197.291 622.217 196.196 623.061 195L625.182 192.879Z" fill="black" fill-opacity="0.11"/>
<path d="M616.221 189.571C616.925 188.867 617.543 188.063 618.047 187.168L615.926 189.289C615.422 190.184 614.803 190.988 614.1 191.692L616.221 189.571Z" fill="black" fill-opacity="0.11"/>
<path d="M627.303 184.059H597.36L595.238 186.18H625.182L627.303 184.059Z" fill="black" fill-opacity="0.11"/>
<path d="M600.528 173.336C599.656 174.209 598.961 175.274 598.447 176.507L596.326 178.628C596.839 177.395 597.534 176.331 598.407 175.457L600.528 173.336Z" fill="black" fill-opacity="0.11"/>
<path d="M608.014 192.98C611.023 192.98 614.033 191.757 616.217 189.574L614.099 191.692C611.914 193.877 608.904 195.101 605.893 195.101L608.014 192.98Z" fill="black" fill-opacity="0.11"/>
<path d="M587.788 181.404C587.788 176.079 590.005 171.285 593.544 167.745L591.429 169.86C587.886 173.4 585.667 178.197 585.667 183.526L587.788 181.404Z" fill="black" fill-opacity="0.11"/>
<path d="M622.431 196.16C618.594 199.994 613.718 202.155 607.959 202.155L605.838 204.276C611.597 204.276 616.473 202.116 620.309 198.281L622.431 196.16Z" fill="black" fill-opacity="0.11"/>
<path d="M597.36 184.059C597.776 189.362 602.84 192.981 608.014 192.981L605.893 195.102C600.719 195.102 595.654 191.484 595.238 186.18L597.36 184.059Z" fill="black" fill-opacity="0.11"/>
<path d="M607.959 202.157C595.906 202.157 587.788 192.473 587.788 181.406L585.667 183.528C585.667 194.595 593.785 204.278 605.838 204.278L607.959 202.157Z" fill="black" fill-opacity="0.11"/>
<path d="M542.382 145H551.537L549.416 147.121H540.261L542.382 145Z" fill="black" fill-opacity="0.11"/>
<path d="M563.019 161.52C573.751 161.52 583.651 170.387 583.651 181.761L581.53 183.882C581.53 172.508 571.629 163.641 560.897 163.641L563.019 161.52Z" fill="black" fill-opacity="0.11"/>
<path d="M551.537 145V164.985L549.416 167.106V147.121L551.537 145Z" fill="black" fill-opacity="0.11"/>
<path d="M551.537 164.985C554.847 162.795 558.727 161.52 563.019 161.52L560.898 163.641C556.606 163.641 552.725 164.916 549.416 167.106L551.537 164.985Z" fill="black" fill-opacity="0.11"/>
<path d="M574.501 181.809C574.501 175.641 569.587 170.594 563.019 170.594L560.897 172.715C567.466 172.715 572.379 177.762 572.379 183.931L574.501 181.809Z" fill="black" fill-opacity="0.11"/>
<path d="M583.652 181.762C583.652 187.358 581.386 192.373 577.734 196.024L575.618 198.14C579.267 194.489 581.531 189.477 581.531 183.883L583.652 181.762Z" fill="black" fill-opacity="0.11"/>
<path d="M571.198 189.66C573.235 187.622 574.501 184.844 574.501 181.809L572.379 183.93C572.379 186.966 571.114 189.743 569.077 191.781L571.198 189.66Z" fill="black" fill-opacity="0.11"/>
<path d="M563.019 170.594C559.691 170.594 556.788 171.836 554.734 173.892L552.615 176.01C554.67 173.956 557.572 172.715 560.898 172.715L563.019 170.594Z" fill="black" fill-opacity="0.11"/>
<path d="M542.382 181.865V145L540.261 147.121V183.986L542.382 181.865Z" fill="black" fill-opacity="0.11"/>
<path d="M562.969 193.079C566.171 193.079 569.093 191.765 571.195 189.664L569.078 191.781C566.975 193.885 564.051 195.2 560.848 195.2L562.969 193.079Z" fill="black" fill-opacity="0.11"/>
<path d="M554.733 173.891C552.733 175.892 551.537 178.663 551.537 181.809L549.416 183.93C549.416 180.784 550.612 178.013 552.612 176.012L554.733 173.891Z" fill="black" fill-opacity="0.11"/>
<path d="M577.733 196.023C573.963 199.792 568.717 202.106 562.964 202.106L560.843 204.228C566.596 204.228 571.842 201.913 575.612 198.145L577.733 196.023Z" fill="black" fill-opacity="0.11"/>
<path d="M551.537 181.809C551.537 188.185 556.762 193.078 562.969 193.078L560.848 195.2C554.64 195.2 549.416 190.306 549.416 183.93L551.537 181.809Z" fill="black" fill-opacity="0.11"/>
<path d="M513.317 145.051L533.588 169.834L531.467 171.956L511.195 147.172L513.317 145.051Z" fill="black" fill-opacity="0.11"/>
<path d="M501.473 145.051H513.316L511.195 147.172H499.352L501.473 145.051Z" fill="black" fill-opacity="0.11"/>
<path d="M562.964 202.105C551.638 202.105 542.382 193.079 542.382 181.863L540.261 183.985C540.261 195.2 549.517 204.226 560.843 204.226L562.964 202.105Z" fill="black" fill-opacity="0.11"/>
<path d="M533.588 169.832C536.331 173.198 538.035 177.479 538.035 182.12L535.914 184.242C535.914 179.6 534.209 175.319 531.467 171.953L533.588 169.832Z" fill="black" fill-opacity="0.11"/>
<path d="M515.487 162.133L501.473 145.051L499.352 147.172L513.366 164.255L515.487 162.133Z" fill="black" fill-opacity="0.11"/>
<path d="M529.035 181.864C529.035 175.591 523.761 170.594 517.503 170.594L515.382 172.715C521.639 172.715 526.914 177.712 526.914 183.985L529.035 181.864Z" fill="black" fill-opacity="0.11"/>
<path d="M538.035 182.121C538.035 187.476 535.756 192.401 532.127 196.028L530.013 198.142C533.638 194.516 535.914 189.594 535.914 184.242L538.035 182.121Z" fill="black" fill-opacity="0.11"/>
<path d="M502.889 168.15C506.199 164.841 510.632 162.618 515.487 162.133L513.366 164.254C508.511 164.739 504.078 166.962 500.768 170.271L502.889 168.15Z" fill="black" fill-opacity="0.11"/>
<path d="M483.113 145.051H492.268L490.147 147.172H480.991L483.113 145.051Z" fill="black" fill-opacity="0.11"/>
<path d="M525.783 189.701C527.793 187.691 529.035 184.937 529.035 181.863L526.914 183.985C526.914 187.058 525.671 189.813 523.662 191.823L525.783 189.701Z" fill="black" fill-opacity="0.11"/>
<path d="M517.503 170.594C514.351 170.594 511.489 171.875 509.423 173.941L507.305 176.059C509.37 173.995 512.232 172.715 515.382 172.715L517.503 170.594Z" fill="black" fill-opacity="0.11"/>
<path d="M517.553 193.081C520.768 193.081 523.689 191.796 525.78 189.706L523.662 191.824C521.571 193.917 518.649 195.202 515.432 195.202L517.553 193.081Z" fill="black" fill-opacity="0.11"/>
<path d="M509.423 173.941C507.387 175.978 506.126 178.777 506.126 181.864L504.005 183.985C504.005 180.898 505.266 178.099 507.302 176.063L509.423 173.941Z" fill="black" fill-opacity="0.11"/>
<path d="M532.127 196.027C528.361 199.792 523.139 202.16 517.503 202.16L515.382 204.281C521.018 204.281 526.239 201.914 530.006 198.149L532.127 196.027Z" fill="black" fill-opacity="0.11"/>
<path d="M471.736 146.145C475.566 146.145 478.72 149.357 478.72 152.877L476.598 154.998C476.598 151.479 473.445 148.266 469.614 148.266L471.736 146.145Z" fill="black" fill-opacity="0.11"/>
<path d="M496.971 182.12C496.971 176.731 499.25 171.788 502.883 168.154L500.768 170.27C497.131 173.904 494.85 178.85 494.85 184.242L496.971 182.12Z" fill="black" fill-opacity="0.11"/>
<path d="M517.558 193.082H517.553L515.432 195.203H515.436L517.558 193.082Z" fill="black" fill-opacity="0.11"/>
<path d="M506.126 181.863C506.126 188.082 511.25 193.079 517.558 193.079L515.436 195.2C509.129 195.2 504.005 190.203 504.005 183.985L506.126 181.863Z" fill="black" fill-opacity="0.11"/>
<path d="M478.72 152.879C478.72 154.646 477.963 156.348 476.705 157.605L474.586 159.724C475.842 158.467 476.598 156.766 476.598 155L478.72 152.879Z" fill="black" fill-opacity="0.11"/>
<path d="M466.941 148.142C468.181 146.903 469.881 146.145 471.736 146.145L469.614 148.266C467.76 148.266 466.06 149.024 464.819 150.264L466.941 148.142Z" fill="black" fill-opacity="0.11"/>
<path d="M492.268 145.051V202.284L490.146 204.406V147.172L492.268 145.051Z" fill="black" fill-opacity="0.11"/>
<path d="M476.705 157.605C475.458 158.852 473.718 159.661 471.736 159.661L469.614 161.783C471.597 161.783 473.337 160.974 474.584 159.727L476.705 157.605Z" fill="black" fill-opacity="0.11"/>
<path d="M464.906 153.082C464.906 151.137 465.688 149.397 466.938 148.147L464.819 150.266C463.568 151.516 462.785 153.257 462.785 155.203L464.906 153.082Z" fill="black" fill-opacity="0.11"/>
<path d="M517.503 202.16C506.437 202.16 496.971 193.03 496.971 182.121L494.85 184.242C494.85 195.152 504.316 204.281 515.382 204.281L517.503 202.16Z" fill="black" fill-opacity="0.11"/>
<path d="M471.735 159.661C468.165 159.661 464.906 156.957 464.906 153.082L462.785 155.203C462.785 159.079 466.044 161.782 469.614 161.782L471.735 159.661Z" fill="black" fill-opacity="0.11"/>
<path d="M483.113 202.284V145.051L480.991 147.172V204.406L483.113 202.284Z" fill="black" fill-opacity="0.11"/>
<path d="M467.288 164.5H476.444L474.322 166.621H465.167L467.288 164.5Z" fill="black" fill-opacity="0.11"/>
<path d="M453.064 164.504H462.996L460.875 166.625H450.942L453.064 164.504Z" fill="black" fill-opacity="0.11"/>
<path d="M476.444 164.5V202.284L474.322 204.405V166.621L476.444 164.5Z" fill="black" fill-opacity="0.11"/>
<path d="M492.268 202.281H483.113L480.991 204.403H490.147L492.268 202.281Z" fill="black" fill-opacity="0.11"/>
<path d="M467.288 202.284V164.5L465.167 166.621V204.405L467.288 202.284Z" fill="black" fill-opacity="0.11"/>
<path d="M444.635 186.021L453.064 164.504L450.942 166.625L442.514 188.142L444.635 186.021Z" fill="black" fill-opacity="0.11"/>
<path d="M462.996 164.504L448.306 202.337L446.185 204.459L460.875 166.625L462.996 164.504Z" fill="black" fill-opacity="0.11"/>
<path d="M476.444 202.281H467.288L465.167 204.403H474.322L476.444 202.281Z" fill="black" fill-opacity="0.11"/>
<path d="M429.84 164.504H436.253L434.132 166.625H427.719L429.84 164.504Z" fill="black" fill-opacity="0.11"/>
<path d="M436.252 164.504L444.63 186.021L442.509 188.142L434.131 166.625L436.252 164.504Z" fill="black" fill-opacity="0.11"/>
<path d="M444.631 186.02H444.636L442.514 188.141H442.51L444.631 186.02Z" fill="black" fill-opacity="0.11"/>
<path d="M421.411 186.021L429.84 164.504L427.719 166.625L419.29 188.142L421.411 186.021Z" fill="black" fill-opacity="0.11"/>
<path d="M441.893 202.336L432.998 179.801L430.877 181.922L439.772 204.457L441.893 202.336Z" fill="black" fill-opacity="0.11"/>
<path d="M403 164.504H412.983L410.862 166.625H400.879L403 164.504Z" fill="black" fill-opacity="0.11"/>
<path d="M448.306 202.336H441.893L439.771 204.457H446.184L448.306 202.336Z" fill="black" fill-opacity="0.11"/>
<path d="M412.983 164.504L421.411 186.021L419.29 188.142L410.861 166.625L412.983 164.504Z" fill="black" fill-opacity="0.11"/>
<path d="M432.998 179.801L424.154 202.336L422.032 204.457L430.877 181.922L432.998 179.801Z" fill="black" fill-opacity="0.11"/>
<path d="M417.741 202.337L403 164.504L400.879 166.625L415.62 204.459L417.741 202.337Z" fill="black" fill-opacity="0.11"/>
<path d="M424.153 202.336H417.74L415.619 204.457H422.032L424.153 202.336Z" fill="black" fill-opacity="0.11"/>
<path d="M757.434 174.01C757.434 171.667 760.693 169.779 764.934 169.779C769.176 169.779 773.884 171.87 776.933 175.236L782.468 168.558C777.193 163.971 771.864 161.573 765.195 161.573C756.867 161.573 748.283 165.345 748.283 174.015C748.283 184.672 757.594 185.438 765.195 186.046C769.436 186.353 773.212 186.659 773.212 189.412C773.212 192.368 768.92 193.747 765.144 193.747C760.747 193.747 755.989 191.913 752.524 187.781L746.628 193.95C751.336 199.61 758.16 202.106 764.834 202.106C773.212 202.106 782.367 198.181 782.367 189.205C782.367 179.057 772.956 178.088 765.716 177.376C761.163 176.917 757.443 176.511 757.443 174.01H757.434ZM715.387 176.507C716.886 172.785 720.145 170.59 724.953 170.59C729.762 170.59 732.66 172.884 733.903 176.507H715.387ZM725.369 161.569C713.938 161.569 704.732 170.338 704.732 181.914C704.732 192.774 712.85 202.156 724.853 202.156C732.093 202.156 737.939 198.74 742.076 192.877L735.768 187.628C733.542 190.994 729.51 192.981 724.702 192.981C719.894 192.981 714.719 189.363 714.308 184.059H744.151V180.896C744.151 166.513 732.566 161.569 725.369 161.569ZM690.974 202.283H700.129V164.499H690.974V202.283ZM688.643 153.031C688.643 156.857 691.696 159.61 695.677 159.61C699.659 159.61 702.401 156.906 702.401 153.184C702.401 149.462 699.298 146.15 695.522 146.15C691.678 146.15 688.643 149.361 688.643 153.031ZM563.019 161.519C558.727 161.519 554.847 162.795 551.537 164.985V145H542.382V181.865C542.382 193.08 551.638 202.106 562.964 202.106C574.291 202.106 583.652 193.134 583.652 181.761C583.652 170.387 573.751 161.519 563.019 161.519ZM515.487 162.132C505.299 163.151 496.971 171.82 496.971 182.121C496.971 193.031 506.437 202.16 517.503 202.16C528.569 202.16 538.035 193.035 538.035 182.121C538.035 177.48 536.33 173.199 533.588 169.833L513.316 145.05H501.473L515.487 162.132ZM444.631 186.021L436.253 164.504H429.84L421.411 186.021L412.983 164.504H403L417.741 202.337H424.154L432.998 179.802L441.893 202.337H448.306L462.996 164.504H453.064L444.635 186.021H444.631ZM608.476 161.569C597.36 161.569 587.788 170.338 587.788 181.405C587.788 192.472 595.906 202.156 607.959 202.156C615.199 202.156 621.045 198.74 625.182 192.877L618.047 187.168C615.976 190.841 611.995 192.981 608.014 192.981C602.84 192.981 597.776 189.363 597.36 184.059H627.303V181.306C627.303 169.867 619.592 161.569 608.476 161.569ZM641.212 173.12V164.504H632.056V202.288H641.212V186.327C641.212 178.567 649.64 173.836 657.968 173.836V164.504H657.036C650.001 164.504 644.882 167.054 641.212 173.12ZM670.278 173.12V164.504H661.122V202.288H670.278V186.327C670.278 178.567 678.706 173.836 687.034 173.836V164.504H686.102C679.067 164.504 673.948 167.054 670.278 173.12ZM483.112 202.283H492.268V145.05H483.112V202.283ZM517.558 193.08C511.25 193.08 506.126 188.083 506.126 181.865C506.126 175.646 511.246 170.595 517.503 170.595C523.761 170.595 529.035 175.592 529.035 181.865C529.035 188.137 523.861 193.08 517.553 193.08H517.558ZM562.969 193.08C556.762 193.08 551.537 188.187 551.537 181.81C551.537 175.434 556.451 170.595 563.019 170.595C569.587 170.595 574.501 175.642 574.501 181.81C574.501 187.979 569.277 193.08 562.969 193.08ZM467.288 202.283H476.444V164.499H467.288V202.283ZM471.736 146.146C468.01 146.146 464.907 149.206 464.907 153.081C464.907 156.956 468.166 159.66 471.736 159.66C475.717 159.66 478.72 156.397 478.72 152.878C478.72 149.359 475.566 146.146 471.736 146.146ZM598.447 176.507C599.997 172.785 603.206 170.59 607.964 170.59C612.722 170.59 615.826 172.884 617.064 176.507H598.447Z" fill="white"/>
</g>
<path d="M888.531 161.156L888.313 166.781H886.312V163H885.188V161.156H888.531ZM874.938 163V147H876.781V161.219H885.031V147H886.875V163H874.938ZM896.24 163.25C895.084 163.25 894.087 162.995 893.248 162.484C892.415 161.969 891.771 161.25 891.318 160.328C890.87 159.401 890.646 158.323 890.646 157.094C890.646 155.865 890.87 154.781 891.318 153.844C891.771 152.901 892.402 152.167 893.209 151.641C894.021 151.109 894.969 150.844 896.053 150.844C896.678 150.844 897.295 150.948 897.904 151.156C898.514 151.365 899.068 151.703 899.568 152.172C900.068 152.635 900.467 153.25 900.764 154.016C901.061 154.781 901.209 155.724 901.209 156.844V157.625H891.959V156.031H899.334C899.334 155.354 899.199 154.75 898.928 154.219C898.662 153.687 898.282 153.268 897.787 152.961C897.298 152.654 896.719 152.5 896.053 152.5C895.318 152.5 894.683 152.682 894.146 153.047C893.615 153.406 893.206 153.875 892.92 154.453C892.633 155.031 892.49 155.651 892.49 156.312V157.375C892.49 158.281 892.646 159.049 892.959 159.68C893.277 160.305 893.717 160.781 894.279 161.109C894.842 161.432 895.495 161.594 896.24 161.594C896.725 161.594 897.162 161.526 897.553 161.391C897.949 161.25 898.29 161.042 898.576 160.766C898.863 160.484 899.084 160.135 899.24 159.719L901.021 160.219C900.834 160.823 900.519 161.354 900.076 161.812C899.633 162.266 899.087 162.62 898.436 162.875C897.785 163.125 897.053 163.25 896.24 163.25ZM912.045 156.156V157.875H905.42V156.156H912.045ZM905.857 151V163H904.014V151H905.857ZM913.451 151V163H911.607V151H913.451ZM915.186 152.719V151H924.936V152.719H920.998V163H919.154V152.719H915.186ZM927.625 167.5V151H929.406V152.906H929.625C929.76 152.698 929.948 152.432 930.188 152.109C930.432 151.781 930.781 151.49 931.234 151.234C931.693 150.974 932.313 150.844 933.094 150.844C934.104 150.844 934.995 151.096 935.766 151.602C936.536 152.107 937.138 152.823 937.57 153.75C938.003 154.677 938.219 155.771 938.219 157.031C938.219 158.302 938.003 159.404 937.57 160.336C937.138 161.263 936.539 161.982 935.773 162.492C935.008 162.997 934.125 163.25 933.125 163.25C932.354 163.25 931.737 163.122 931.273 162.867C930.81 162.607 930.453 162.312 930.203 161.984C929.953 161.651 929.76 161.375 929.625 161.156H929.469V167.5H927.625ZM929.437 157C929.437 157.906 929.57 158.706 929.836 159.398C930.102 160.086 930.49 160.625 931 161.016C931.51 161.401 932.135 161.594 932.875 161.594C933.646 161.594 934.289 161.391 934.805 160.984C935.326 160.573 935.716 160.021 935.977 159.328C936.242 158.63 936.375 157.854 936.375 157C936.375 156.156 936.245 155.396 935.984 154.719C935.729 154.036 935.341 153.497 934.82 153.102C934.305 152.701 933.656 152.5 932.875 152.5C932.125 152.5 931.495 152.69 930.984 153.07C930.474 153.445 930.089 153.971 929.828 154.648C929.568 155.32 929.437 156.104 929.437 157ZM944.563 163.281C943.802 163.281 943.112 163.138 942.492 162.852C941.872 162.56 941.38 162.141 941.016 161.594C940.651 161.042 940.469 160.375 940.469 159.594C940.469 158.906 940.604 158.349 940.875 157.922C941.146 157.49 941.508 157.151 941.961 156.906C942.414 156.661 942.914 156.479 943.461 156.359C944.013 156.234 944.568 156.135 945.125 156.063C945.854 155.969 946.445 155.898 946.898 155.852C947.357 155.799 947.69 155.714 947.898 155.594C948.112 155.474 948.219 155.266 948.219 154.969V154.906C948.219 154.135 948.008 153.536 947.586 153.109C947.169 152.682 946.536 152.469 945.688 152.469C944.807 152.469 944.117 152.661 943.617 153.047C943.117 153.432 942.766 153.844 942.563 154.281L940.813 153.656C941.125 152.927 941.542 152.359 942.063 151.953C942.589 151.542 943.161 151.255 943.781 151.094C944.406 150.927 945.021 150.844 945.625 150.844C946.01 150.844 946.453 150.891 946.953 150.984C947.458 151.073 947.945 151.258 948.414 151.539C948.888 151.82 949.281 152.245 949.594 152.812C949.906 153.38 950.063 154.141 950.063 155.094V163H948.219V161.375H948.125C948 161.635 947.792 161.914 947.5 162.211C947.208 162.508 946.82 162.76 946.336 162.969C945.852 163.177 945.26 163.281 944.563 163.281ZM944.844 161.625C945.573 161.625 946.188 161.482 946.688 161.195C947.193 160.909 947.573 160.539 947.828 160.086C948.089 159.633 948.219 159.156 948.219 158.656V156.969C948.141 157.062 947.969 157.148 947.703 157.227C947.443 157.299 947.141 157.365 946.797 157.422C946.458 157.474 946.128 157.521 945.805 157.562C945.487 157.599 945.229 157.63 945.031 157.656C944.552 157.719 944.104 157.82 943.688 157.961C943.276 158.096 942.943 158.302 942.688 158.578C942.438 158.849 942.313 159.219 942.313 159.687C942.313 160.328 942.549 160.812 943.023 161.141C943.503 161.464 944.109 161.625 944.844 161.625ZM952.365 163V161.281H952.803C953.162 161.281 953.462 161.211 953.701 161.07C953.941 160.924 954.133 160.672 954.279 160.312C954.43 159.948 954.545 159.443 954.623 158.797C954.706 158.146 954.766 157.318 954.803 156.312L955.021 151H963.021V163H961.178V152.719H956.771L956.584 157C956.542 157.984 956.454 158.852 956.318 159.602C956.188 160.346 955.988 160.971 955.717 161.477C955.451 161.982 955.097 162.362 954.654 162.617C954.212 162.872 953.657 163 952.99 163H952.365ZM967.998 155.344H971.436C972.842 155.344 973.917 155.701 974.662 156.414C975.407 157.128 975.779 158.031 975.779 159.125C975.779 159.844 975.613 160.497 975.279 161.086C974.946 161.669 974.456 162.135 973.811 162.484C973.165 162.828 972.373 163 971.436 163H966.404V151H968.248V161.281H971.436C972.165 161.281 972.764 161.089 973.232 160.703C973.701 160.318 973.936 159.823 973.936 159.219C973.936 158.583 973.701 158.065 973.232 157.664C972.764 157.263 972.165 157.062 971.436 157.062H967.998V155.344ZM986.617 156.156V157.875H979.992V156.156H986.617ZM980.43 151V163H978.586V151H980.43ZM988.023 151V163H986.18V151H988.023ZM994.922 163.281C994.161 163.281 993.471 163.138 992.852 162.852C992.232 162.56 991.74 162.141 991.375 161.594C991.01 161.042 990.828 160.375 990.828 159.594C990.828 158.906 990.964 158.349 991.234 157.922C991.505 157.49 991.867 157.151 992.32 156.906C992.773 156.661 993.273 156.479 993.82 156.359C994.372 156.234 994.927 156.135 995.484 156.063C996.214 155.969 996.805 155.898 997.258 155.852C997.716 155.799 998.049 155.714 998.258 155.594C998.471 155.474 998.578 155.266 998.578 154.969V154.906C998.578 154.135 998.367 153.536 997.945 153.109C997.529 152.682 996.896 152.469 996.047 152.469C995.167 152.469 994.477 152.661 993.977 153.047C993.477 153.432 993.125 153.844 992.922 154.281L991.172 153.656C991.484 152.927 991.901 152.359 992.422 151.953C992.948 151.542 993.521 151.255 994.141 151.094C994.766 150.927 995.38 150.844 995.984 150.844C996.37 150.844 996.813 150.891 997.313 150.984C997.818 151.073 998.305 151.258 998.773 151.539C999.247 151.82 999.641 152.245 999.953 152.812C1000.27 153.38 1000.42 154.141 1000.42 155.094V163H998.578V161.375H998.484C998.359 161.635 998.151 161.914 997.859 162.211C997.568 162.508 997.18 162.76 996.695 162.969C996.211 163.177 995.62 163.281 994.922 163.281ZM995.203 161.625C995.932 161.625 996.547 161.482 997.047 161.195C997.552 160.909 997.932 160.539 998.187 160.086C998.448 159.633 998.578 159.156 998.578 158.656V156.969C998.5 157.062 998.328 157.148 998.063 157.227C997.802 157.299 997.5 157.365 997.156 157.422C996.818 157.474 996.487 157.521 996.164 157.562C995.846 157.599 995.589 157.63 995.391 157.656C994.911 157.719 994.464 157.82 994.047 157.961C993.635 158.096 993.302 158.302 993.047 158.578C992.797 158.849 992.672 159.219 992.672 159.687C992.672 160.328 992.909 160.812 993.383 161.141C993.862 161.464 994.469 161.625 995.203 161.625ZM1011.01 163V152.688H1007.82C1007.1 152.688 1006.53 152.854 1006.12 153.187C1005.71 153.521 1005.51 153.979 1005.51 154.562C1005.51 155.135 1005.69 155.586 1006.06 155.914C1006.44 156.242 1006.95 156.406 1007.6 156.406H1011.47V158.125H1007.6C1006.79 158.125 1006.09 157.982 1005.5 157.695C1004.91 157.409 1004.46 157 1004.14 156.469C1003.82 155.932 1003.66 155.297 1003.66 154.562C1003.66 153.823 1003.83 153.187 1004.16 152.656C1004.5 152.125 1004.97 151.716 1005.59 151.43C1006.22 151.143 1006.96 151 1007.82 151H1012.76V163H1011.01ZM1003.01 163L1006.41 157.031H1008.41L1005.01 163H1003.01ZM1027.2 163.25C1026.12 163.25 1025.17 162.992 1024.35 162.477C1023.54 161.961 1022.9 161.24 1022.45 160.312C1021.99 159.385 1021.77 158.302 1021.77 157.062C1021.77 155.812 1021.99 154.721 1022.45 153.789C1022.9 152.857 1023.54 152.133 1024.35 151.617C1025.17 151.102 1026.12 150.844 1027.2 150.844C1028.29 150.844 1029.23 151.102 1030.05 151.617C1030.86 152.133 1031.5 152.857 1031.95 153.789C1032.41 154.721 1032.64 155.812 1032.64 157.062C1032.64 158.302 1032.41 159.385 1031.95 160.312C1031.5 161.24 1030.86 161.961 1030.05 162.477C1029.23 162.992 1028.29 163.25 1027.2 163.25ZM1027.2 161.594C1028.03 161.594 1028.7 161.383 1029.23 160.961C1029.77 160.539 1030.16 159.984 1030.41 159.297C1030.67 158.609 1030.8 157.865 1030.8 157.062C1030.8 156.26 1030.67 155.513 1030.41 154.82C1030.16 154.128 1029.77 153.568 1029.23 153.141C1028.7 152.714 1028.03 152.5 1027.2 152.5C1026.38 152.5 1025.7 152.714 1025.17 153.141C1024.64 153.568 1024.25 154.128 1023.99 154.82C1023.74 155.513 1023.61 156.26 1023.61 157.062C1023.61 157.865 1023.74 158.609 1023.99 159.297C1024.25 159.984 1024.64 160.539 1025.17 160.961C1025.7 161.383 1026.38 161.594 1027.2 161.594ZM1040.33 163.25C1039.21 163.25 1038.24 162.984 1037.42 162.453C1036.61 161.922 1035.99 161.19 1035.55 160.258C1035.11 159.326 1034.89 158.26 1034.89 157.062C1034.89 155.844 1035.12 154.768 1035.56 153.836C1036.02 152.898 1036.65 152.167 1037.46 151.641C1038.27 151.109 1039.22 150.844 1040.3 150.844C1041.14 150.844 1041.9 151 1042.58 151.312C1043.26 151.625 1043.81 152.062 1044.24 152.625C1044.68 153.187 1044.94 153.844 1045.05 154.594H1043.21C1043.06 154.047 1042.75 153.562 1042.27 153.141C1041.79 152.714 1041.14 152.5 1040.33 152.5C1039.61 152.5 1038.98 152.687 1038.44 153.062C1037.9 153.432 1037.48 153.956 1037.18 154.633C1036.88 155.305 1036.74 156.094 1036.74 157C1036.74 157.927 1036.88 158.734 1037.17 159.422C1037.47 160.109 1037.89 160.643 1038.42 161.023C1038.97 161.404 1039.6 161.594 1040.33 161.594C1040.81 161.594 1041.24 161.51 1041.63 161.344C1042.03 161.177 1042.36 160.938 1042.63 160.625C1042.9 160.312 1043.09 159.937 1043.21 159.5H1045.05C1044.94 160.208 1044.69 160.846 1044.28 161.414C1043.87 161.977 1043.33 162.424 1042.66 162.758C1041.99 163.086 1041.22 163.25 1040.33 163.25ZM1049.34 155.344H1052.78C1054.18 155.344 1055.26 155.701 1056 156.414C1056.75 157.128 1057.12 158.031 1057.12 159.125C1057.12 159.844 1056.95 160.497 1056.62 161.086C1056.29 161.669 1055.8 162.135 1055.15 162.484C1054.5 162.828 1053.71 163 1052.78 163H1047.74V151H1049.59V161.281H1052.78C1053.5 161.281 1054.1 161.089 1054.57 160.703C1055.04 160.318 1055.28 159.823 1055.28 159.219C1055.28 158.583 1055.04 158.065 1054.57 157.664C1054.1 157.263 1053.5 157.062 1052.78 157.062H1049.34V155.344Z" fill="black"/>
<path d="M78 176H1290" stroke="black" stroke-width="2" stroke-linecap="round" stroke-dasharray="12 12"/>
<path d="M1220.21 179.293C1219.82 178.902 1219.18 178.902 1218.79 179.293L1212.43 185.657C1212.04 186.047 1212.04 186.681 1212.43 187.071C1212.82 187.462 1213.45 187.462 1213.84 187.071L1219.5 181.414L1225.16 187.071C1225.55 187.462 1226.18 187.462 1226.57 187.071C1226.96 186.681 1226.96 186.047 1226.57 185.657L1220.21 179.293ZM1220.5 402L1220.5 180L1218.5 180L1218.5 402L1220.5 402Z" fill="black"/>
<path d="M1166.94 434V418H1168.88V425.125H1177.41V418H1179.34V434H1177.41V426.844H1168.88V434H1166.94ZM1188 434.25C1186.85 434.25 1185.85 433.995 1185.01 433.484C1184.18 432.969 1183.54 432.25 1183.08 431.328C1182.63 430.401 1182.41 429.323 1182.41 428.094C1182.41 426.865 1182.63 425.781 1183.08 424.844C1183.54 423.901 1184.17 423.167 1184.97 422.641C1185.79 422.109 1186.73 421.844 1187.82 421.844C1188.44 421.844 1189.06 421.948 1189.67 422.156C1190.28 422.365 1190.83 422.703 1191.33 423.172C1191.83 423.635 1192.23 424.25 1192.53 425.016C1192.82 425.781 1192.97 426.724 1192.97 427.844V428.625H1183.72V427.031H1191.1C1191.1 426.354 1190.96 425.75 1190.69 425.219C1190.43 424.687 1190.05 424.268 1189.55 423.961C1189.06 423.654 1188.48 423.5 1187.82 423.5C1187.08 423.5 1186.45 423.682 1185.91 424.047C1185.38 424.406 1184.97 424.875 1184.68 425.453C1184.4 426.031 1184.25 426.651 1184.25 427.312V428.375C1184.25 429.281 1184.41 430.049 1184.72 430.68C1185.04 431.305 1185.48 431.781 1186.04 432.109C1186.61 432.432 1187.26 432.594 1188 432.594C1188.49 432.594 1188.93 432.526 1189.32 432.391C1189.71 432.25 1190.05 432.042 1190.34 431.766C1190.63 431.484 1190.85 431.135 1191 430.719L1192.79 431.219C1192.6 431.823 1192.28 432.354 1191.84 432.812C1191.4 433.266 1190.85 433.62 1190.2 433.875C1189.55 434.125 1188.82 434.25 1188 434.25ZM1208.53 431.5L1212.71 422H1214.46L1209.28 434H1207.78L1202.68 422H1204.4L1208.53 431.5ZM1203.81 422V434H1201.96V422H1203.81ZM1213.25 434V422H1215.09V434H1213.25ZM1223.5 434.25C1222.34 434.25 1221.34 433.995 1220.5 433.484C1219.67 432.969 1219.03 432.25 1218.57 431.328C1218.13 430.401 1217.9 429.323 1217.9 428.094C1217.9 426.865 1218.13 425.781 1218.57 424.844C1219.03 423.901 1219.66 423.167 1220.46 422.641C1221.28 422.109 1222.23 421.844 1223.31 421.844C1223.93 421.844 1224.55 421.948 1225.16 422.156C1225.77 422.365 1226.32 422.703 1226.82 423.172C1227.32 423.635 1227.72 424.25 1228.02 425.016C1228.32 425.781 1228.46 426.724 1228.46 427.844V428.625H1219.21V427.031H1226.59C1226.59 426.354 1226.45 425.75 1226.18 425.219C1225.92 424.687 1225.54 424.268 1225.04 423.961C1224.55 423.654 1223.98 423.5 1223.31 423.5C1222.57 423.5 1221.94 423.682 1221.4 424.047C1220.87 424.406 1220.46 424.875 1220.18 425.453C1219.89 426.031 1219.75 426.651 1219.75 427.312V428.375C1219.75 429.281 1219.9 430.049 1220.21 430.68C1220.53 431.305 1220.97 431.781 1221.54 432.109C1222.1 432.432 1222.75 432.594 1223.5 432.594C1223.98 432.594 1224.42 432.526 1224.81 432.391C1225.2 432.25 1225.55 432.042 1225.83 431.766C1226.12 431.484 1226.34 431.135 1226.5 430.719L1228.28 431.219C1228.09 431.823 1227.77 432.354 1227.33 432.812C1226.89 433.266 1226.34 433.62 1225.69 433.875C1225.04 434.125 1224.31 434.25 1223.5 434.25ZM1239.3 427.156V428.875H1232.68V427.156H1239.3ZM1233.11 422V434H1231.27V422H1233.11ZM1240.71 422V434H1238.86V422H1240.71ZM1249.11 434.25C1247.95 434.25 1246.95 433.995 1246.11 433.484C1245.28 432.969 1244.64 432.25 1244.18 431.328C1243.74 430.401 1243.51 429.323 1243.51 428.094C1243.51 426.865 1243.74 425.781 1244.18 424.844C1244.64 423.901 1245.27 423.167 1246.07 422.641C1246.89 422.109 1247.83 421.844 1248.92 421.844C1249.54 421.844 1250.16 421.948 1250.77 422.156C1251.38 422.365 1251.93 422.703 1252.43 423.172C1252.93 423.635 1253.33 424.25 1253.63 425.016C1253.93 425.781 1254.07 426.724 1254.07 427.844V428.625H1244.82V427.031H1252.2C1252.2 426.354 1252.06 425.75 1251.79 425.219C1251.53 424.687 1251.15 424.268 1250.65 423.961C1250.16 423.654 1249.58 423.5 1248.92 423.5C1248.18 423.5 1247.55 423.682 1247.01 424.047C1246.48 424.406 1246.07 424.875 1245.79 425.453C1245.5 426.031 1245.36 426.651 1245.36 427.312V428.375C1245.36 429.281 1245.51 430.049 1245.82 430.68C1246.14 431.305 1246.58 431.781 1247.14 432.109C1247.71 432.432 1248.36 432.594 1249.11 432.594C1249.59 432.594 1250.03 432.526 1250.42 432.391C1250.81 432.25 1251.15 432.042 1251.44 431.766C1251.73 431.484 1251.95 431.135 1252.11 430.719L1253.89 431.219C1253.7 431.823 1253.38 432.354 1252.94 432.812C1252.5 433.266 1251.95 433.62 1251.3 433.875C1250.65 434.125 1249.92 434.25 1249.11 434.25ZM1261.91 434.25C1260.75 434.25 1259.76 433.995 1258.92 433.484C1258.08 432.969 1257.44 432.25 1256.99 431.328C1256.54 430.401 1256.32 429.323 1256.32 428.094C1256.32 426.865 1256.54 425.781 1256.99 424.844C1257.44 423.901 1258.07 423.167 1258.88 422.641C1259.69 422.109 1260.64 421.844 1261.72 421.844C1262.35 421.844 1262.96 421.948 1263.57 422.156C1264.18 422.365 1264.74 422.703 1265.24 423.172C1265.74 423.635 1266.14 424.25 1266.43 425.016C1266.73 425.781 1266.88 426.724 1266.88 427.844V428.625H1257.63V427.031H1265C1265 426.354 1264.87 425.75 1264.6 425.219C1264.33 424.687 1263.95 424.268 1263.46 423.961C1262.97 423.654 1262.39 423.5 1261.72 423.5C1260.99 423.5 1260.35 423.682 1259.82 424.047C1259.29 424.406 1258.88 424.875 1258.59 425.453C1258.3 426.031 1258.16 426.651 1258.16 427.312V428.375C1258.16 429.281 1258.32 430.049 1258.63 430.68C1258.95 431.305 1259.39 431.781 1259.95 432.109C1260.51 432.432 1261.17 432.594 1261.91 432.594C1262.39 432.594 1262.83 432.526 1263.22 432.391C1263.62 432.25 1263.96 432.042 1264.25 431.766C1264.53 431.484 1264.75 431.135 1264.91 430.719L1266.69 431.219C1266.5 431.823 1266.19 432.354 1265.75 432.812C1265.3 433.266 1264.76 433.62 1264.11 433.875C1263.45 434.125 1262.72 434.25 1261.91 434.25ZM1166.66 458V456.594L1171.94 450.812C1172.56 450.135 1173.07 449.547 1173.47 449.047C1173.87 448.542 1174.17 448.068 1174.36 447.625C1174.56 447.177 1174.66 446.708 1174.66 446.219C1174.66 445.656 1174.52 445.169 1174.25 444.758C1173.98 444.346 1173.62 444.029 1173.16 443.805C1172.69 443.581 1172.17 443.469 1171.59 443.469C1170.98 443.469 1170.44 443.596 1169.98 443.852C1169.53 444.102 1169.18 444.453 1168.93 444.906C1168.68 445.359 1168.56 445.891 1168.56 446.5H1166.72C1166.72 445.562 1166.93 444.74 1167.37 444.031C1167.8 443.323 1168.39 442.771 1169.13 442.375C1169.88 441.979 1170.72 441.781 1171.66 441.781C1172.59 441.781 1173.42 441.979 1174.15 442.375C1174.87 442.771 1175.44 443.305 1175.85 443.977C1176.26 444.648 1176.47 445.396 1176.47 446.219C1176.47 446.807 1176.36 447.383 1176.15 447.945C1175.94 448.503 1175.58 449.125 1175.05 449.812C1174.54 450.495 1173.82 451.328 1172.91 452.312L1169.31 456.156V456.281H1176.75V458H1166.66ZM1184.98 458.219C1184.06 458.219 1183.23 458.036 1182.5 457.672C1181.77 457.307 1181.18 456.807 1180.73 456.172C1180.29 455.536 1180.05 454.812 1180.01 454H1181.88C1181.96 454.724 1182.28 455.323 1182.87 455.797C1183.46 456.266 1184.16 456.5 1184.98 456.5C1185.63 456.5 1186.22 456.346 1186.73 456.039C1187.24 455.732 1187.65 455.31 1187.94 454.773C1188.23 454.232 1188.38 453.62 1188.38 452.937C1188.38 452.24 1188.23 451.617 1187.92 451.07C1187.62 450.518 1187.2 450.083 1186.67 449.766C1186.14 449.448 1185.53 449.286 1184.85 449.281C1184.36 449.276 1183.86 449.352 1183.34 449.508C1182.83 449.659 1182.4 449.854 1182.07 450.094L1180.26 449.875L1181.23 442H1189.54V443.719H1182.85L1182.29 448.437H1182.38C1182.71 448.177 1183.12 447.961 1183.62 447.789C1184.11 447.617 1184.63 447.531 1185.16 447.531C1186.14 447.531 1187.02 447.766 1187.78 448.234C1188.55 448.698 1189.16 449.333 1189.59 450.141C1190.04 450.948 1190.26 451.87 1190.26 452.906C1190.26 453.927 1190.03 454.839 1189.57 455.641C1189.12 456.437 1188.49 457.068 1187.7 457.531C1186.9 457.99 1185.99 458.219 1184.98 458.219ZM1198.58 458.219C1197.4 458.219 1196.4 457.898 1195.57 457.258C1194.74 456.612 1194.11 455.677 1193.67 454.453C1193.24 453.224 1193.02 451.74 1193.02 450C1193.02 448.271 1193.24 446.794 1193.67 445.57C1194.12 444.341 1194.75 443.404 1195.58 442.758C1196.41 442.107 1197.41 441.781 1198.58 441.781C1199.75 441.781 1200.74 442.107 1201.57 442.758C1202.41 443.404 1203.04 444.341 1203.48 445.57C1203.92 446.794 1204.14 448.271 1204.14 450C1204.14 451.74 1203.92 453.224 1203.49 454.453C1203.05 455.677 1202.42 456.612 1201.59 457.258C1200.76 457.898 1199.76 458.219 1198.58 458.219ZM1198.58 456.5C1199.75 456.5 1200.65 455.937 1201.3 454.812C1201.94 453.687 1202.27 452.083 1202.27 450C1202.27 448.615 1202.12 447.435 1201.82 446.461C1201.53 445.487 1201.11 444.745 1200.56 444.234C1200.01 443.724 1199.35 443.469 1198.58 443.469C1197.42 443.469 1196.52 444.039 1195.87 445.18C1195.22 446.315 1194.89 447.922 1194.89 450C1194.89 451.385 1195.04 452.562 1195.33 453.531C1195.62 454.5 1196.04 455.237 1196.59 455.742C1197.14 456.247 1197.8 456.5 1198.58 456.5ZM1212.33 458.219C1211.15 458.219 1210.15 457.898 1209.32 457.258C1208.49 456.612 1207.86 455.677 1207.42 454.453C1206.99 453.224 1206.77 451.74 1206.77 450C1206.77 448.271 1206.99 446.794 1207.42 445.57C1207.87 444.341 1208.5 443.404 1209.33 442.758C1210.16 442.107 1211.16 441.781 1212.33 441.781C1213.5 441.781 1214.49 442.107 1215.32 442.758C1216.16 443.404 1216.79 444.341 1217.23 445.57C1217.67 446.794 1217.89 448.271 1217.89 450C1217.89 451.74 1217.67 453.224 1217.24 454.453C1216.8 455.677 1216.17 456.612 1215.34 457.258C1214.51 457.898 1213.51 458.219 1212.33 458.219ZM1212.33 456.5C1213.5 456.5 1214.4 455.937 1215.05 454.812C1215.69 453.687 1216.02 452.083 1216.02 450C1216.02 448.615 1215.87 447.435 1215.57 446.461C1215.28 445.487 1214.86 444.745 1214.31 444.234C1213.76 443.724 1213.1 443.469 1212.33 443.469C1211.17 443.469 1210.27 444.039 1209.62 445.18C1208.97 446.315 1208.64 447.922 1208.64 450C1208.64 451.385 1208.79 452.562 1209.08 453.531C1209.37 454.5 1209.79 455.237 1210.34 455.742C1210.89 456.247 1211.55 456.5 1212.33 456.5ZM1233.64 455.5L1237.83 446H1239.58L1234.39 458H1232.89L1227.8 446H1229.52L1233.64 455.5ZM1228.92 446V458H1227.08V446H1228.92ZM1238.36 458V446H1240.21V458H1238.36ZM1250.14 455.5L1254.33 446H1256.08L1250.89 458H1249.39L1244.3 446H1246.02L1250.14 455.5ZM1245.42 446V458H1243.58V446H1245.42ZM1254.86 458V446H1256.71V458H1254.86Z" fill="black"/>
<path d="M1218.79 696.707C1219.18 697.098 1219.82 697.098 1220.21 696.707L1226.57 690.343C1226.96 689.953 1226.96 689.319 1226.57 688.929C1226.18 688.538 1225.55 688.538 1225.16 688.929L1219.5 694.586L1213.84 688.929C1213.45 688.538 1212.82 688.538 1212.43 688.929C1212.04 689.319 1212.04 689.953 1212.43 690.343L1218.79 696.707ZM1220.5 696L1220.5 474L1218.5 474L1218.5 696L1220.5 696Z" fill="black"/>
<path d="M1088 700H1289" stroke="black" stroke-width="2" stroke-linecap="round" stroke-dasharray="12 12"/>
<defs>
<filter id="filter0_d_3114_12523" x="369.106" y="403.863" width="67.4967" height="68.6764" filterUnits="userSpaceOnUse" color-interpolation-filters="sRGB">
<feFlood flood-opacity="0" result="BackgroundImageFix"/>
<feColorMatrix in="SourceAlpha" type="matrix" values="0 0 0 0 0 0 0 0 0 0 0 0 0 0 0 0 0 0 127 0" result="hardAlpha"/>
<feOffset dx="-3.53768" dy="4.71691"/>
<feComposite in2="hardAlpha" operator="out"/>
<feColorMatrix type="matrix" values="0 0 0 0 0 0 0 0 0 0 0 0 0 0 0 0 0 0 0.25 0"/>
<feBlend mode="normal" in2="BackgroundImageFix" result="effect1_dropShadow_3114_12523"/>
<feBlend mode="normal" in="SourceGraphic" in2="effect1_dropShadow_3114_12523" result="shape"/>
</filter>
<clipPath id="clip0_3114_12523">
<rect width="1011" height="625" fill="white" transform="translate(77 76)"/>
</clipPath>
</defs>
</svg>
