<svg width="1363" height="768" viewBox="0 0 1363 768" fill="none" xmlns="http://www.w3.org/2000/svg">
<g clip-path="url(#clip0_3114_14461)">
<rect width="900" height="816" transform="matrix(-1 0 0 1 900 -19.7422)" fill="#EDEDED"/>
<path d="M770 820L901 686" stroke="#BEC0C4" stroke-width="2"/>
<path d="M770 868L901 734" stroke="#BEC0C4" stroke-width="2"/>
<path d="M770 723L901 589" stroke="#BEC0C4" stroke-width="2"/>
<path d="M770 771.279L864.667 674.313" stroke="#BEC0C4" stroke-width="2"/>
<path d="M770 771L915 623" stroke="#BEC0C4" stroke-width="2"/>
<path d="M770 626L901 492" stroke="#BEC0C4" stroke-width="2"/>
<path d="M770 674L901 540" stroke="#BEC0C4" stroke-width="2"/>
<path d="M770 529L901 395" stroke="#BEC0C4" stroke-width="2"/>
<path d="M770 577L901 443" stroke="#BEC0C4" stroke-width="2"/>
<path d="M770 432L901 298" stroke="#BEC0C4" stroke-width="2"/>
<path d="M770 480L901 346" stroke="#BEC0C4" stroke-width="2"/>
<path d="M770 335L909 193" stroke="#BEC0C4" stroke-width="2"/>
<path d="M770 189L909 47" stroke="#BEC0C4" stroke-width="2"/>
<path d="M770 238L901 104" stroke="#BEC0C4" stroke-width="2"/>
<path d="M770 92L860 0" stroke="#BEC0C4" stroke-width="2"/>
<path d="M770 383L901 249" stroke="#BEC0C4" stroke-width="2"/>
<path d="M770 286L906 147" stroke="#BEC0C4" stroke-width="2"/>
<path d="M770 140L906 1" stroke="#BEC0C4" stroke-width="2"/>
<path d="M770 43L812 0" stroke="#BEC0C4" stroke-width="2"/>
<rect width="16" height="300" transform="matrix(-1 0 0 1 770 261.257)" fill="white" stroke="black" stroke-width="2.28469"/>
<rect width="165" height="33" transform="matrix(-1 0 0 1 754 337)" fill="white" stroke="black" stroke-width="2.28469"/>
<rect width="165" height="32" transform="matrix(-1 0 0 1 754 437)" fill="white" stroke="black" stroke-width="2.28469"/>
<rect x="744.959" y="531" width="113" height="13" fill="black"/>
<rect x="744.959" y="277.258" width="114.041" height="13" fill="black"/>
<rect x="744.959" y="399.257" width="113" height="13" fill="black"/>
<path d="M770 0L770 768" stroke="black" stroke-width="4"/>
<rect x="750" y="274.257" width="3" height="19" fill="black"/>
<rect x="750" y="396.257" width="3" height="19" fill="black"/>
<rect x="750" y="528.257" width="3" height="19" fill="black"/>
<rect width="444" height="445" rx="150" transform="matrix(-1 0 0 1 606 183)" fill="white" stroke="black" stroke-width="3"/>
<path d="M24 184L257 184" stroke="black" stroke-width="2" stroke-linecap="round" stroke-dasharray="12 12"/>
<path d="M90.7071 187.293C90.3166 186.902 89.6834 186.902 89.2929 187.293L82.9289 193.657C82.5384 194.047 82.5384 194.681 82.9289 195.071C83.3195 195.462 83.9526 195.462 84.3431 195.071L90 189.414L95.6569 195.071C96.0474 195.462 96.6805 195.462 97.0711 195.071C97.4616 194.681 97.4616 194.047 97.0711 193.657L90.7071 187.293ZM91 384L91 188L89 188L89 384L91 384Z" fill="black"/>
<rect x="36" y="384" width="109" height="44" rx="10" fill="black"/>
<path d="M56.6562 414.219C55.7396 414.219 54.9141 414.036 54.1797 413.672C53.4453 413.307 52.8568 412.807 52.4141 412.172C51.9714 411.536 51.7292 410.812 51.6875 410H53.5625C53.6354 410.724 53.9635 411.323 54.5469 411.797C55.1354 412.266 55.8385 412.5 56.6562 412.5C57.3125 412.5 57.8958 412.346 58.4063 412.039C58.9219 411.732 59.3255 411.31 59.6172 410.773C59.9141 410.232 60.0625 409.62 60.0625 408.937C60.0625 408.24 59.9089 407.617 59.6016 407.07C59.2995 406.518 58.8828 406.083 58.3516 405.766C57.8203 405.448 57.2135 405.286 56.5312 405.281C56.0417 405.276 55.5391 405.352 55.0234 405.508C54.5078 405.659 54.0833 405.854 53.75 406.094L51.9375 405.875L52.9063 398H61.2188V399.719H54.5313L53.9688 404.437H54.0625C54.3906 404.177 54.8021 403.961 55.2969 403.789C55.7917 403.617 56.3073 403.531 56.8438 403.531C57.8229 403.531 58.6953 403.766 59.4609 404.234C60.2318 404.698 60.8359 405.333 61.2734 406.141C61.7161 406.948 61.9375 407.87 61.9375 408.906C61.9375 409.927 61.7083 410.839 61.25 411.641C60.7969 412.437 60.1719 413.068 59.375 413.531C58.5781 413.99 57.6719 414.219 56.6562 414.219ZM70.2598 414.219C69.0827 414.219 68.0801 413.898 67.252 413.258C66.4238 412.612 65.791 411.677 65.3535 410.453C64.916 409.224 64.6973 407.74 64.6973 406C64.6973 404.271 64.916 402.794 65.3535 401.57C65.7962 400.341 66.4316 399.404 67.2598 398.758C68.0931 398.107 69.0931 397.781 70.2598 397.781C71.4264 397.781 72.4238 398.107 73.252 398.758C74.0853 399.404 74.7207 400.341 75.1582 401.57C75.6009 402.794 75.8223 404.271 75.8223 406C75.8223 407.74 75.6035 409.224 75.166 410.453C74.7285 411.677 74.0957 412.612 73.2676 413.258C72.4395 413.898 71.4368 414.219 70.2598 414.219ZM70.2598 412.5C71.4264 412.5 72.3327 411.937 72.9785 410.812C73.6243 409.687 73.9473 408.083 73.9473 406C73.9473 404.615 73.7988 403.435 73.502 402.461C73.2103 401.487 72.7884 400.745 72.2363 400.234C71.6895 399.724 71.0306 399.469 70.2598 399.469C69.1035 399.469 68.1999 400.039 67.5488 401.18C66.8978 402.315 66.5723 403.922 66.5723 406C66.5723 407.385 66.7181 408.562 67.0098 409.531C67.3014 410.5 67.7207 411.237 68.2676 411.742C68.8197 412.247 69.4837 412.5 70.2598 412.5ZM84.0098 414.219C82.8327 414.219 81.8301 413.898 81.002 413.258C80.1738 412.612 79.541 411.677 79.1035 410.453C78.666 409.224 78.4473 407.74 78.4473 406C78.4473 404.271 78.666 402.794 79.1035 401.57C79.5462 400.341 80.1816 399.404 81.0098 398.758C81.8431 398.107 82.8431 397.781 84.0098 397.781C85.1764 397.781 86.1738 398.107 87.002 398.758C87.8353 399.404 88.4707 400.341 88.9082 401.57C89.3509 402.794 89.5723 404.271 89.5723 406C89.5723 407.74 89.3535 409.224 88.916 410.453C88.4785 411.677 87.8457 412.612 87.0176 413.258C86.1895 413.898 85.1868 414.219 84.0098 414.219ZM84.0098 412.5C85.1764 412.5 86.0827 411.937 86.7285 410.812C87.3743 409.687 87.6973 408.083 87.6973 406C87.6973 404.615 87.5488 403.435 87.252 402.461C86.9603 401.487 86.5384 400.745 85.9863 400.234C85.4395 399.724 84.7806 399.469 84.0098 399.469C82.8535 399.469 81.9499 400.039 81.2988 401.18C80.6478 402.315 80.3223 403.922 80.3223 406C80.3223 407.385 80.4681 408.562 80.7598 409.531C81.0514 410.5 81.4707 411.237 82.0176 411.742C82.5697 412.247 83.2337 412.5 84.0098 412.5ZM105.322 411.5L109.51 402H111.26L106.072 414H104.572L99.4785 402H101.197L105.322 411.5ZM100.604 402V414H98.7598V402H100.604ZM110.041 414V402H111.885V414H110.041ZM121.822 411.5L126.01 402H127.76L122.572 414H121.072L115.979 402H117.697L121.822 411.5ZM117.104 402V414H115.26V402H117.104ZM126.541 414V402H128.385V414H126.541Z" fill="#E8E4EC"/>
<path d="M89.2929 624.707C89.6834 625.098 90.3166 625.098 90.7071 624.707L97.0711 618.343C97.4616 617.953 97.4616 617.319 97.0711 616.929C96.6805 616.538 96.0474 616.538 95.6568 616.929L90 622.586L84.3431 616.929C83.9526 616.538 83.3194 616.538 82.9289 616.929C82.5384 617.319 82.5384 617.953 82.9289 618.343L89.2929 624.707ZM91 624L91 428L89 428L89 624L91 624Z" fill="black"/>
<path d="M24 628H257" stroke="black" stroke-width="2" stroke-linecap="round" stroke-dasharray="12 12"/>
<path d="M162 88L162 303" stroke="black" stroke-width="2" stroke-linecap="round" stroke-dasharray="12 12"/>
<path d="M165.293 133.293C164.902 133.683 164.902 134.317 165.293 134.707L171.657 141.071C172.047 141.462 172.681 141.462 173.071 141.071C173.462 140.681 173.462 140.047 173.071 139.657L167.414 134L173.071 128.343C173.462 127.953 173.462 127.319 173.071 126.929C172.681 126.538 172.047 126.538 171.657 126.929L165.293 133.293ZM325.468 133H166V135H325.468V133Z" fill="black"/>
<rect x="325.468" y="112" width="117.065" height="44" rx="10" fill="black"/>
<path d="M350.156 142.219C349.24 142.219 348.414 142.036 347.68 141.672C346.945 141.307 346.357 140.807 345.914 140.172C345.471 139.536 345.229 138.812 345.188 138H347.063C347.135 138.724 347.464 139.323 348.047 139.797C348.635 140.266 349.339 140.5 350.156 140.5C350.813 140.5 351.396 140.346 351.906 140.039C352.422 139.732 352.826 139.31 353.117 138.773C353.414 138.232 353.563 137.62 353.563 136.937C353.563 136.24 353.409 135.617 353.102 135.07C352.799 134.518 352.383 134.083 351.852 133.766C351.32 133.448 350.714 133.286 350.031 133.281C349.542 133.276 349.039 133.352 348.523 133.508C348.008 133.659 347.583 133.854 347.25 134.094L345.438 133.875L346.406 126H354.719V127.719H348.031L347.469 132.437H347.563C347.891 132.177 348.302 131.961 348.797 131.789C349.292 131.617 349.807 131.531 350.344 131.531C351.323 131.531 352.195 131.766 352.961 132.234C353.732 132.698 354.336 133.333 354.773 134.141C355.216 134.948 355.437 135.87 355.437 136.906C355.437 137.927 355.208 138.839 354.75 139.641C354.297 140.437 353.672 141.068 352.875 141.531C352.078 141.99 351.172 142.219 350.156 142.219ZM363.76 142.219C362.583 142.219 361.58 141.898 360.752 141.258C359.924 140.612 359.291 139.677 358.854 138.453C358.416 137.224 358.197 135.74 358.197 134C358.197 132.271 358.416 130.794 358.854 129.57C359.296 128.341 359.932 127.404 360.76 126.758C361.593 126.107 362.593 125.781 363.76 125.781C364.926 125.781 365.924 126.107 366.752 126.758C367.585 127.404 368.221 128.341 368.658 129.57C369.101 130.794 369.322 132.271 369.322 134C369.322 135.74 369.104 137.224 368.666 138.453C368.229 139.677 367.596 140.612 366.768 141.258C365.939 141.898 364.937 142.219 363.76 142.219ZM363.76 140.5C364.926 140.5 365.833 139.937 366.479 138.812C367.124 137.687 367.447 136.083 367.447 134C367.447 132.615 367.299 131.435 367.002 130.461C366.71 129.487 366.288 128.745 365.736 128.234C365.189 127.724 364.531 127.469 363.76 127.469C362.604 127.469 361.7 128.039 361.049 129.18C360.398 130.315 360.072 131.922 360.072 134C360.072 135.385 360.218 136.562 360.51 137.531C360.801 138.5 361.221 139.237 361.768 139.742C362.32 140.247 362.984 140.5 363.76 140.5ZM377.51 142.219C376.333 142.219 375.33 141.898 374.502 141.258C373.674 140.612 373.041 139.677 372.604 138.453C372.166 137.224 371.947 135.74 371.947 134C371.947 132.271 372.166 130.794 372.604 129.57C373.046 128.341 373.682 127.404 374.51 126.758C375.343 126.107 376.343 125.781 377.51 125.781C378.676 125.781 379.674 126.107 380.502 126.758C381.335 127.404 381.971 128.341 382.408 129.57C382.851 130.794 383.072 132.271 383.072 134C383.072 135.74 382.854 137.224 382.416 138.453C381.979 139.677 381.346 140.612 380.518 141.258C379.689 141.898 378.687 142.219 377.51 142.219ZM377.51 140.5C378.676 140.5 379.583 139.937 380.229 138.812C380.874 137.687 381.197 136.083 381.197 134C381.197 132.615 381.049 131.435 380.752 130.461C380.46 129.487 380.038 128.745 379.486 128.234C378.939 127.724 378.281 127.469 377.51 127.469C376.354 127.469 375.45 128.039 374.799 129.18C374.148 130.315 373.822 131.922 373.822 134C373.822 135.385 373.968 136.562 374.26 137.531C374.551 138.5 374.971 139.237 375.518 139.742C376.07 140.247 376.734 140.5 377.51 140.5ZM398.822 139.5L403.01 130H404.76L399.572 142H398.072L392.979 130H394.697L398.822 139.5ZM394.104 130V142H392.26V130H394.104ZM403.541 142V130H405.385V142H403.541ZM415.322 139.5L419.51 130H421.26L416.072 142H414.572L409.479 130H411.197L415.322 139.5ZM410.604 130V142H408.76V130H410.604ZM420.041 142V130H421.885V142H420.041Z" fill="#E8E4EC"/>
<path d="M602.707 134.707C603.097 134.317 603.097 133.683 602.707 133.293L596.343 126.929C595.952 126.538 595.319 126.538 594.929 126.929C594.538 127.319 594.538 127.953 594.929 128.343L600.586 134L594.929 139.657C594.538 140.047 594.538 140.681 594.929 141.071C595.319 141.462 595.952 141.462 596.343 141.071L602.707 134.707ZM602 133H442.532V135H602V133Z" fill="black"/>
<path d="M606 88L606 303" stroke="black" stroke-width="2" stroke-linecap="round" stroke-dasharray="12 12"/>
<path d="M606 88L606 303" stroke="black" stroke-width="2" stroke-linecap="round" stroke-dasharray="12 12"/>
<path d="M609.293 133.293C608.902 133.683 608.902 134.317 609.293 134.707L615.657 141.071C616.047 141.462 616.681 141.462 617.071 141.071C617.462 140.681 617.462 140.047 617.071 139.657L611.414 134L617.071 128.343C617.462 127.953 617.462 127.319 617.071 126.929C616.681 126.538 616.047 126.538 615.657 126.929L609.293 133.293ZM621.468 133H610V135H621.468V133Z" fill="black"/>
<rect x="621.468" y="112" width="117.065" height="44" rx="10" fill="black"/>
<path d="M649.281 126V142H647.344V128.031H647.25L643.344 130.625V128.656L647.344 126H649.281ZM654.383 142L661.539 127.844V127.719H653.289V126H663.539V127.812L656.414 142H654.383ZM671.326 142.219C670.149 142.219 669.146 141.898 668.318 141.258C667.49 140.612 666.857 139.677 666.42 138.453C665.982 137.224 665.764 135.74 665.764 134C665.764 132.271 665.982 130.794 666.42 129.57C666.863 128.341 667.498 127.404 668.326 126.758C669.16 126.107 670.16 125.781 671.326 125.781C672.493 125.781 673.49 126.107 674.318 126.758C675.152 127.404 675.787 128.341 676.225 129.57C676.667 130.794 676.889 132.271 676.889 134C676.889 135.74 676.67 137.224 676.232 138.453C675.795 139.677 675.162 140.612 674.334 141.258C673.506 141.898 672.503 142.219 671.326 142.219ZM671.326 140.5C672.493 140.5 673.399 139.937 674.045 138.812C674.691 137.687 675.014 136.083 675.014 134C675.014 132.615 674.865 131.435 674.568 130.461C674.277 129.487 673.855 128.745 673.303 128.234C672.756 127.724 672.097 127.469 671.326 127.469C670.17 127.469 669.266 128.039 668.615 129.18C667.964 130.315 667.639 131.922 667.639 134C667.639 135.385 667.785 136.562 668.076 137.531C668.368 138.5 668.787 139.237 669.334 139.742C669.886 140.247 670.55 140.5 671.326 140.5ZM692.639 139.5L696.826 130H698.576L693.389 142H691.889L686.795 130H688.514L692.639 139.5ZM687.92 130V142H686.076V130H687.92ZM697.357 142V130H699.201V142H697.357ZM709.139 139.5L713.326 130H715.076L709.889 142H708.389L703.295 130H705.014L709.139 139.5ZM704.42 130V142H702.576V130H704.42ZM713.857 142V130H715.701V142H713.857Z" fill="#E8E4EC"/>
<path d="M750.707 134.707C751.097 134.317 751.097 133.683 750.707 133.293L744.343 126.929C743.952 126.538 743.319 126.538 742.929 126.929C742.538 127.319 742.538 127.953 742.929 128.343L748.586 134L742.929 139.657C742.538 140.047 742.538 140.681 742.929 141.071C743.319 141.462 743.952 141.462 744.343 141.071L750.707 134.707ZM750 133H738.532V135H750V133Z" fill="black"/>
<path d="M754 88L754 303" stroke="black" stroke-width="2" stroke-linecap="round" stroke-dasharray="12 12"/>
<rect x="623" y="604" width="95" height="44" rx="10" fill="black"/>
<path d="M643.781 634.219C642.708 634.219 641.76 634.029 640.938 633.648C640.12 633.263 639.482 632.734 639.023 632.062C638.565 631.385 638.339 630.615 638.344 629.75C638.339 629.073 638.471 628.448 638.742 627.875C639.013 627.297 639.383 626.815 639.852 626.43C640.326 626.039 640.854 625.792 641.438 625.688V625.594C640.672 625.396 640.063 624.966 639.609 624.305C639.156 623.638 638.932 622.88 638.938 622.031C638.932 621.219 639.138 620.492 639.555 619.852C639.971 619.211 640.544 618.706 641.273 618.336C642.008 617.966 642.844 617.781 643.781 617.781C644.708 617.781 645.536 617.966 646.266 618.336C646.995 618.706 647.568 619.211 647.984 619.852C648.406 620.492 648.62 621.219 648.625 622.031C648.62 622.88 648.388 623.638 647.93 624.305C647.477 624.966 646.875 625.396 646.125 625.594V625.688C646.703 625.792 647.224 626.039 647.688 626.43C648.151 626.815 648.521 627.297 648.797 627.875C649.073 628.448 649.214 629.073 649.219 629.75C649.214 630.615 648.979 631.385 648.516 632.062C648.057 632.734 647.419 633.263 646.602 633.648C645.789 634.029 644.849 634.219 643.781 634.219ZM643.781 632.5C644.505 632.5 645.13 632.383 645.656 632.148C646.182 631.914 646.589 631.583 646.875 631.156C647.161 630.729 647.307 630.229 647.312 629.656C647.307 629.052 647.151 628.518 646.844 628.055C646.536 627.591 646.117 627.227 645.586 626.961C645.06 626.695 644.458 626.562 643.781 626.562C643.099 626.562 642.49 626.695 641.953 626.961C641.422 627.227 641.003 627.591 640.695 628.055C640.393 628.518 640.245 629.052 640.25 629.656C640.245 630.229 640.383 630.729 640.664 631.156C640.951 631.583 641.359 631.914 641.891 632.148C642.422 632.383 643.052 632.5 643.781 632.5ZM643.781 624.906C644.354 624.906 644.862 624.792 645.305 624.562C645.753 624.333 646.104 624.013 646.359 623.602C646.615 623.19 646.745 622.708 646.75 622.156C646.745 621.615 646.617 621.143 646.367 620.742C646.117 620.336 645.771 620.023 645.328 619.805C644.885 619.581 644.37 619.469 643.781 619.469C643.182 619.469 642.659 619.581 642.211 619.805C641.763 620.023 641.417 620.336 641.172 620.742C640.927 621.143 640.807 621.615 640.812 622.156C640.807 622.708 640.93 623.19 641.18 623.602C641.435 624.013 641.786 624.333 642.234 624.562C642.682 624.792 643.198 624.906 643.781 624.906ZM657.432 634.219C656.255 634.219 655.252 633.898 654.424 633.258C653.596 632.612 652.963 631.677 652.525 630.453C652.088 629.224 651.869 627.74 651.869 626C651.869 624.271 652.088 622.794 652.525 621.57C652.968 620.341 653.604 619.404 654.432 618.758C655.265 618.107 656.265 617.781 657.432 617.781C658.598 617.781 659.596 618.107 660.424 618.758C661.257 619.404 661.893 620.341 662.33 621.57C662.773 622.794 662.994 624.271 662.994 626C662.994 627.74 662.775 629.224 662.338 630.453C661.9 631.677 661.268 632.612 660.439 633.258C659.611 633.898 658.609 634.219 657.432 634.219ZM657.432 632.5C658.598 632.5 659.505 631.937 660.15 630.812C660.796 629.687 661.119 628.083 661.119 626C661.119 624.615 660.971 623.435 660.674 622.461C660.382 621.487 659.96 620.745 659.408 620.234C658.861 619.724 658.202 619.469 657.432 619.469C656.275 619.469 655.372 620.039 654.721 621.18C654.07 622.315 653.744 623.922 653.744 626C653.744 627.385 653.89 628.562 654.182 629.531C654.473 630.5 654.893 631.237 655.439 631.742C655.992 632.247 656.656 632.5 657.432 632.5ZM678.744 631.5L682.932 622H684.682L679.494 634H677.994L672.9 622H674.619L678.744 631.5ZM674.025 622V634H672.182V622H674.025ZM683.463 634V622H685.307V634H683.463ZM695.244 631.5L699.432 622H701.182L695.994 634H694.494L689.4 622H691.119L695.244 631.5ZM690.525 622V634H688.682V622H690.525ZM699.963 634V622H701.807V634H699.963Z" fill="#E8E4EC"/>
<path d="M742 626H718" stroke="black" stroke-width="2"/>
<path d="M742 290L742 648" stroke="black" stroke-width="2" stroke-linecap="round" stroke-dasharray="12 12"/>
<path d="M745.293 625.293C744.902 625.683 744.902 626.317 745.293 626.707L751.657 633.071C752.047 633.462 752.681 633.462 753.071 633.071C753.462 632.681 753.462 632.047 753.071 631.657L747.414 626L753.071 620.343C753.462 619.953 753.462 619.319 753.071 618.929C752.681 618.538 752.047 618.538 751.657 618.929L745.293 625.293ZM799.5 625H746V627H799.5V625Z" fill="black"/>
<path d="M853.707 626.707C854.098 626.317 854.098 625.683 853.707 625.293L847.343 618.929C846.953 618.538 846.319 618.538 845.929 618.929C845.538 619.319 845.538 619.953 845.929 620.343L851.586 626L845.929 631.657C845.538 632.047 845.538 632.681 845.929 633.071C846.319 633.462 846.953 633.462 847.343 633.071L853.707 626.707ZM853 625H799.5V627H853V625Z" fill="black"/>
<path d="M857 290L857 648" stroke="black" stroke-width="2" stroke-linecap="round" stroke-dasharray="12 12"/>
<g clip-path="url(#clip1_3114_14461)">
<rect x="924" y="-20" width="438" height="816" fill="#EDEDED"/>
<rect x="1016" y="261" width="148" height="299" fill="white" stroke="black" stroke-width="3"/>
<rect x="1047" y="182" width="86" height="446" fill="white" stroke="black" stroke-width="3"/>
<circle cx="1149" cy="284" r="7" fill="black"/>
<circle cx="1149" cy="406" r="7" fill="black"/>
<circle cx="1149" cy="537" r="7" fill="black"/>
<circle cx="1031" cy="284" r="7" fill="black"/>
<circle cx="1031" cy="406" r="7" fill="black"/>
<circle cx="1031" cy="537" r="7" fill="black"/>
<path d="M1016 88L1016 252" stroke="black" stroke-width="2" stroke-linecap="round" stroke-dasharray="12 12"/>
<path d="M1019.29 133.293C1018.9 133.683 1018.9 134.317 1019.29 134.707L1025.66 141.071C1026.05 141.462 1026.68 141.462 1027.07 141.071C1027.46 140.681 1027.46 140.047 1027.07 139.657L1021.41 134L1027.07 128.343C1027.46 127.953 1027.46 127.319 1027.07 126.929C1026.68 126.538 1026.05 126.538 1025.66 126.929L1019.29 133.293ZM1031.47 133H1020V135H1031.47V133Z" fill="black"/>
<rect x="1031.47" y="112" width="117.065" height="44" rx="10" fill="black"/>
<path d="M1059.28 126V142H1057.34V128.031H1057.25L1053.34 130.625V128.656L1057.34 126H1059.28ZM1064.38 142L1071.54 127.844V127.719H1063.29V126H1073.54V127.812L1066.41 142H1064.38ZM1081.33 142.219C1080.15 142.219 1079.15 141.898 1078.32 141.258C1077.49 140.612 1076.86 139.677 1076.42 138.453C1075.98 137.224 1075.76 135.74 1075.76 134C1075.76 132.271 1075.98 130.794 1076.42 129.57C1076.86 128.341 1077.5 127.404 1078.33 126.758C1079.16 126.107 1080.16 125.781 1081.33 125.781C1082.49 125.781 1083.49 126.107 1084.32 126.758C1085.15 127.404 1085.79 128.341 1086.22 129.57C1086.67 130.794 1086.89 132.271 1086.89 134C1086.89 135.74 1086.67 137.224 1086.23 138.453C1085.79 139.677 1085.16 140.612 1084.33 141.258C1083.51 141.898 1082.5 142.219 1081.33 142.219ZM1081.33 140.5C1082.49 140.5 1083.4 139.937 1084.04 138.812C1084.69 137.687 1085.01 136.083 1085.01 134C1085.01 132.615 1084.87 131.435 1084.57 130.461C1084.28 129.487 1083.85 128.745 1083.3 128.234C1082.76 127.724 1082.1 127.469 1081.33 127.469C1080.17 127.469 1079.27 128.039 1078.62 129.18C1077.96 130.315 1077.64 131.922 1077.64 134C1077.64 135.385 1077.78 136.562 1078.08 137.531C1078.37 138.5 1078.79 139.237 1079.33 139.742C1079.89 140.247 1080.55 140.5 1081.33 140.5ZM1102.64 139.5L1106.83 130H1108.58L1103.39 142H1101.89L1096.79 130H1098.51L1102.64 139.5ZM1097.92 130V142H1096.08V130H1097.92ZM1107.36 142V130H1109.2V142H1107.36ZM1119.14 139.5L1123.33 130H1125.08L1119.89 142H1118.39L1113.29 130H1115.01L1119.14 139.5ZM1114.42 130V142H1112.58V130H1114.42ZM1123.86 142V130H1125.7V142H1123.86Z" fill="#E8E4EC"/>
<path d="M1160.71 134.707C1161.1 134.317 1161.1 133.683 1160.71 133.293L1154.34 126.929C1153.95 126.538 1153.32 126.538 1152.93 126.929C1152.54 127.319 1152.54 127.953 1152.93 128.343L1158.59 134L1152.93 139.657C1152.54 140.047 1152.54 140.681 1152.93 141.071C1153.32 141.462 1153.95 141.462 1154.34 141.071L1160.71 134.707ZM1160 133H1148.53V135H1160V133Z" fill="black"/>
<path d="M1164 88L1164 252" stroke="black" stroke-width="2" stroke-linecap="round" stroke-dasharray="12 12"/>
<path d="M1164 261L1338 261" stroke="black" stroke-width="2" stroke-linecap="round" stroke-dasharray="12 12"/>
<path d="M1284.21 264.293C1283.82 263.902 1283.18 263.902 1282.79 264.293L1276.43 270.657C1276.04 271.047 1276.04 271.681 1276.43 272.071C1276.82 272.462 1277.45 272.462 1277.84 272.071L1283.5 266.414L1289.16 272.071C1289.55 272.462 1290.18 272.462 1290.57 272.071C1290.96 271.681 1290.96 271.047 1290.57 270.657L1284.21 264.293ZM1284.5 388.5L1284.5 265L1282.5 265L1282.5 388.5L1284.5 388.5Z" fill="black"/>
<rect x="1230" y="388.5" width="108" height="44" rx="10" fill="black"/>
<path d="M1245.66 418.5V417.094L1250.94 411.312C1251.56 410.635 1252.07 410.047 1252.47 409.547C1252.87 409.042 1253.17 408.568 1253.36 408.125C1253.56 407.677 1253.66 407.208 1253.66 406.719C1253.66 406.156 1253.52 405.669 1253.25 405.258C1252.98 404.846 1252.62 404.529 1252.16 404.305C1251.69 404.081 1251.17 403.969 1250.59 403.969C1249.98 403.969 1249.44 404.096 1248.98 404.352C1248.53 404.602 1248.18 404.953 1247.93 405.406C1247.68 405.859 1247.56 406.391 1247.56 407H1245.72C1245.72 406.062 1245.93 405.24 1246.37 404.531C1246.8 403.823 1247.39 403.271 1248.13 402.875C1248.88 402.479 1249.72 402.281 1250.66 402.281C1251.59 402.281 1252.42 402.479 1253.15 402.875C1253.87 403.271 1254.44 403.805 1254.85 404.477C1255.26 405.148 1255.47 405.896 1255.47 406.719C1255.47 407.307 1255.36 407.883 1255.15 408.445C1254.94 409.003 1254.58 409.625 1254.05 410.312C1253.54 410.995 1252.82 411.828 1251.91 412.812L1248.31 416.656V416.781H1255.75V418.5H1245.66ZM1264.29 418.719C1263.63 418.708 1262.98 418.583 1262.32 418.344C1261.66 418.104 1261.07 417.701 1260.52 417.133C1259.98 416.56 1259.55 415.786 1259.22 414.812C1258.89 413.833 1258.73 412.604 1258.73 411.125C1258.73 409.708 1258.86 408.453 1259.12 407.359C1259.39 406.26 1259.78 405.336 1260.28 404.586C1260.79 403.831 1261.4 403.258 1262.11 402.867C1262.83 402.477 1263.64 402.281 1264.54 402.281C1265.43 402.281 1266.23 402.461 1266.93 402.82C1267.63 403.174 1268.21 403.669 1268.65 404.305C1269.09 404.94 1269.38 405.672 1269.51 406.5H1267.6C1267.42 405.781 1267.08 405.185 1266.57 404.711C1266.06 404.237 1265.38 404 1264.54 404C1263.3 404 1262.32 404.539 1261.61 405.617C1260.9 406.695 1260.54 408.208 1260.54 410.156H1260.66C1260.96 409.714 1261.3 409.336 1261.7 409.023C1262.11 408.706 1262.56 408.461 1263.05 408.289C1263.54 408.117 1264.05 408.031 1264.6 408.031C1265.52 408.031 1266.36 408.26 1267.12 408.719C1267.88 409.172 1268.49 409.799 1268.95 410.602C1269.4 411.398 1269.63 412.312 1269.63 413.344C1269.63 414.333 1269.41 415.24 1268.97 416.062C1268.53 416.88 1267.9 417.531 1267.1 418.016C1266.3 418.495 1265.37 418.729 1264.29 418.719ZM1264.29 417C1264.95 417 1265.53 416.836 1266.05 416.508C1266.58 416.18 1266.99 415.74 1267.3 415.187C1267.6 414.635 1267.76 414.021 1267.76 413.344C1267.76 412.682 1267.61 412.081 1267.31 411.539C1267.02 410.992 1266.62 410.557 1266.1 410.234C1265.59 409.911 1265.01 409.75 1264.35 409.75C1263.86 409.75 1263.4 409.849 1262.97 410.047C1262.54 410.24 1262.17 410.505 1261.84 410.844C1261.53 411.182 1261.28 411.57 1261.09 412.008C1260.91 412.44 1260.82 412.896 1260.82 413.375C1260.82 414.01 1260.97 414.604 1261.27 415.156C1261.57 415.708 1261.98 416.154 1262.5 416.492C1263.03 416.831 1263.62 417 1264.29 417ZM1277.92 418.719C1276.75 418.719 1275.74 418.398 1274.92 417.758C1274.09 417.112 1273.46 416.177 1273.02 414.953C1272.58 413.724 1272.36 412.24 1272.36 410.5C1272.36 408.771 1272.58 407.294 1273.02 406.07C1273.46 404.841 1274.1 403.904 1274.92 403.258C1275.76 402.607 1276.76 402.281 1277.92 402.281C1279.09 402.281 1280.09 402.607 1280.92 403.258C1281.75 403.904 1282.38 404.841 1282.82 406.07C1283.26 407.294 1283.49 408.771 1283.49 410.5C1283.49 412.24 1283.27 413.724 1282.83 414.953C1282.39 416.177 1281.76 417.112 1280.93 417.758C1280.1 418.398 1279.1 418.719 1277.92 418.719ZM1277.92 417C1279.09 417 1280 416.437 1280.64 415.312C1281.29 414.187 1281.61 412.583 1281.61 410.5C1281.61 409.115 1281.46 407.935 1281.17 406.961C1280.87 405.987 1280.45 405.245 1279.9 404.734C1279.35 404.224 1278.69 403.969 1277.92 403.969C1276.77 403.969 1275.86 404.539 1275.21 405.68C1274.56 406.815 1274.24 408.422 1274.24 410.5C1274.24 411.885 1274.38 413.062 1274.67 414.031C1274.97 415 1275.38 415.737 1275.93 416.242C1276.48 416.747 1277.15 417 1277.92 417ZM1299.24 416L1303.42 406.5H1305.17L1299.99 418.5H1298.49L1293.39 406.5H1295.11L1299.24 416ZM1294.52 406.5V418.5H1292.67V406.5H1294.52ZM1303.96 418.5V406.5H1305.8V418.5H1303.96ZM1315.74 416L1319.92 406.5H1321.67L1316.49 418.5H1314.99L1309.89 406.5H1311.61L1315.74 416ZM1311.02 406.5V418.5H1309.17V406.5H1311.02ZM1320.46 418.5V406.5H1322.3V418.5H1320.46Z" fill="#E8E4EC"/>
<path d="M1282.79 556.707C1283.18 557.098 1283.82 557.098 1284.21 556.707L1290.57 550.343C1290.96 549.953 1290.96 549.319 1290.57 548.929C1290.18 548.538 1289.55 548.538 1289.16 548.929L1283.5 554.586L1277.84 548.929C1277.45 548.538 1276.82 548.538 1276.43 548.929C1276.04 549.319 1276.04 549.953 1276.43 550.343L1282.79 556.707ZM1284.5 556L1284.5 432.5L1282.5 432.5L1282.5 556L1284.5 556Z" fill="black"/>
<path d="M1164 560H1338" stroke="black" stroke-width="2" stroke-linecap="round" stroke-dasharray="12 12"/>
</g>
</g>
<defs>
<clipPath id="clip0_3114_14461">
<rect width="1362" height="768" fill="white" transform="translate(0.333008)"/>
</clipPath>
<clipPath id="clip1_3114_14461">
<rect width="438" height="768" fill="white" transform="translate(924)"/>
</clipPath>
</defs>
</svg>
