<svg width="1824" height="605" viewBox="0 0 1824 605" fill="none" xmlns="http://www.w3.org/2000/svg">
<rect width="1824" height="604" transform="translate(0 0.970703)" fill="#EDEDED"/>
<rect x="49" y="49.9707" width="46" height="46" rx="13" stroke="black" stroke-width="2"/>
<path d="M75.3338 59.8665V84.4707H72.3544V62.9901H72.2102L66.2034 66.9787V63.9512L72.3544 59.8665H75.3338Z" fill="black"/>
<rect x="544" y="49.9707" width="46" height="46" rx="13" stroke="black" stroke-width="2"/>
<path d="M559.305 84.4707V82.3082L567.426 73.4181C568.38 72.3769 569.164 71.4718 569.781 70.7029C570.398 69.9261 570.854 69.1972 571.151 68.5164C571.455 67.8277 571.607 67.1068 571.607 66.354C571.607 65.489 571.399 64.7401 570.983 64.1074C570.574 63.4747 570.013 62.9861 569.301 62.6417C568.588 62.2973 567.787 62.1251 566.898 62.1251C565.953 62.1251 565.128 62.3214 564.423 62.7138C563.726 63.0982 563.186 63.6389 562.801 64.3357C562.425 65.0325 562.237 65.8494 562.237 66.7865H559.401C559.401 65.3448 559.734 64.0794 560.398 62.9901C561.063 61.9009 561.968 61.0519 563.114 60.4432C564.267 59.8345 565.56 59.5302 566.994 59.5302C568.436 59.5302 569.713 59.8345 570.826 60.4432C571.94 61.0519 572.813 61.8728 573.445 62.906C574.078 63.9392 574.394 65.0885 574.394 66.354C574.394 67.259 574.23 68.144 573.902 69.009C573.582 69.866 573.021 70.8231 572.22 71.8803C571.427 72.9295 570.326 74.211 568.916 75.7247L563.39 81.6355V81.8277H574.827V84.4707H559.305Z" fill="black"/>
<rect x="853" y="49.9707" width="46" height="46" rx="13" stroke="black" stroke-width="2"/>
<path d="M876.09 84.8071C874.504 84.8071 873.091 84.5348 871.849 83.9902C870.616 83.4455 869.635 82.6887 868.906 81.7196C868.185 80.7424 867.793 79.6091 867.729 78.3197H870.756C870.82 79.1126 871.092 79.7974 871.573 80.374C872.053 80.9427 872.682 81.3832 873.459 81.6955C874.236 82.0079 875.097 82.1641 876.042 82.1641C877.099 82.1641 878.036 81.9799 878.853 81.6114C879.67 81.243 880.311 80.7304 880.775 80.0737C881.24 79.4169 881.472 78.656 881.472 77.7911C881.472 76.886 881.248 76.0891 880.799 75.4003C880.351 74.7035 879.694 74.1589 878.829 73.7665C877.964 73.374 876.907 73.1778 875.658 73.1778H873.687V70.5348H875.658C876.635 70.5348 877.492 70.3585 878.229 70.0061C878.973 69.6537 879.554 69.1572 879.971 68.5164C880.395 67.8757 880.607 67.1228 880.607 66.2579C880.607 65.4249 880.423 64.7001 880.055 64.0834C879.686 63.4667 879.166 62.9861 878.493 62.6417C877.828 62.2973 877.043 62.1251 876.138 62.1251C875.289 62.1251 874.488 62.2813 873.735 62.5937C872.991 62.898 872.382 63.3425 871.909 63.9272C871.437 64.5038 871.18 65.2006 871.14 66.0176H868.257C868.305 64.7281 868.694 63.5988 869.422 62.6297C870.151 61.6526 871.104 60.8917 872.282 60.3471C873.467 59.8025 874.769 59.5302 876.186 59.5302C877.708 59.5302 879.013 59.8385 880.103 60.4552C881.192 61.0639 882.029 61.8688 882.614 62.87C883.198 63.8711 883.491 64.9524 883.491 66.1137C883.491 67.4993 883.126 68.6806 882.397 69.6577C881.676 70.6349 880.695 71.3116 879.454 71.6881V71.8803C881.008 72.1366 882.221 72.7973 883.094 73.8626C883.967 74.9198 884.404 76.2293 884.404 77.7911C884.404 79.1286 884.039 80.33 883.31 81.3952C882.59 82.4524 881.604 83.2853 880.355 83.894C879.106 84.5027 877.684 84.8071 876.09 84.8071Z" fill="black"/>
<rect x="1161" y="49.9707" width="46" height="46" rx="13" stroke="black" stroke-width="2"/>
<path d="M1175.12 79.4249V76.9741L1185.93 59.8665H1187.71V63.6629H1186.51L1178.34 76.5897V76.7819H1192.9V79.4249H1175.12ZM1186.7 84.4707V78.6801V77.5388V59.8665H1189.53V84.4707H1186.7Z" fill="black"/>
<rect x="1469" y="49.9707" width="46" height="46" rx="13" stroke="black" stroke-width="2"/>
<path d="M1491.94 84.8071C1490.53 84.8071 1489.27 84.5268 1488.14 83.9661C1487.01 83.4055 1486.1 82.6366 1485.42 81.6595C1484.74 80.6824 1484.37 79.5691 1484.3 78.3197H1487.19C1487.3 79.4329 1487.8 80.354 1488.7 81.0828C1489.61 81.8037 1490.69 82.1641 1491.94 82.1641C1492.95 82.1641 1493.85 81.9278 1494.64 81.4553C1495.43 80.9827 1496.05 80.334 1496.5 79.509C1496.95 78.6761 1497.18 77.735 1497.18 76.6858C1497.18 75.6126 1496.95 74.6555 1496.47 73.8145C1496.01 72.9655 1495.37 72.2968 1494.55 71.8082C1493.73 71.3196 1492.8 71.0714 1491.75 71.0634C1491 71.0553 1490.23 71.1715 1489.43 71.4118C1488.64 71.644 1487.99 71.9444 1487.48 72.3128L1484.69 71.9764L1486.18 59.8665H1498.96V62.5096H1488.68L1487.81 69.7659H1487.96C1488.46 69.3654 1489.09 69.033 1489.85 68.7687C1490.61 68.5044 1491.41 68.3723 1492.23 68.3723C1493.74 68.3723 1495.08 68.7327 1496.26 69.4535C1497.44 70.1663 1498.37 71.1434 1499.04 72.3849C1499.73 73.6263 1500.07 75.0439 1500.07 76.6377C1500.07 78.2075 1499.71 79.6091 1499.01 80.8426C1498.31 82.068 1497.35 83.0371 1496.13 83.7499C1494.9 84.4547 1493.51 84.8071 1491.94 84.8071Z" fill="black"/>
<rect x="111.559" y="154.971" width="336.204" height="340.244" rx="77.9629" fill="white" stroke="black" stroke-width="3"/>
<path d="M130.84 285.311L183.516 259.604L233.37 285.311L283.225 259.604L330.257 285.311L377.634 259.604L425.194 285.311" stroke="#FF00CC" stroke-width="10" stroke-linecap="round"/>
<path d="M132.125 430.562L184.801 463.982L234.656 430.562L284.443 463.982L331.542 430.562L374.421 463.982L426.479 430.562" stroke="#FF00CC" stroke-width="10" stroke-linecap="round"/>
<path d="M132.125 350.866L182.898 379.145L234.656 350.866L283.801 379.145L331.542 350.866L374.421 379.145L426.479 350.866" stroke="#FF00CC" stroke-width="10" stroke-linecap="round"/>
<path d="M130.84 206.905L183.516 179.912L233.37 206.905L283.225 179.912L330.257 206.905L376.349 179.912L425.194 206.905" stroke="#FF00CC" stroke-width="10" stroke-linecap="round"/>
<path d="M634.304 157.971L621.11 150.353V165.588L634.304 157.971ZM600 159.29H622.429V156.651H600V159.29Z" fill="#FF00CC"/>
<path d="M634.304 301.4L621.11 293.783V309.018L634.304 301.4ZM600 302.72H622.429V300.081H600V302.72Z" fill="#FF00CC"/>
<path d="M634.304 444.4L621.11 436.783V452.018L634.304 444.4ZM600 445.72H622.429V443.081H600V445.72Z" fill="#FF00CC"/>
<rect width="19.7905" height="349.632" transform="matrix(-1 0 0 1 666.094 123.535)" fill="white" stroke="black" stroke-width="3.74653"/>
<rect width="7.9162" height="11.8743" transform="matrix(-1 0 0 1 674.01 239.641)" fill="white" stroke="black" stroke-width="3.74653"/>
<rect width="7.9162" height="11.8743" transform="matrix(-1 0 0 1 674.01 361.021)" fill="white" stroke="black" stroke-width="3.74653"/>
<rect width="7.9162" height="10.105" transform="matrix(-1 0 0 1 674.01 148.604)" fill="white" stroke="black" stroke-width="3.74653"/>
<rect width="7.9162" height="10.105" transform="matrix(-1 0 0 1 674.01 437.545)" fill="white" stroke="black" stroke-width="3.74653"/>
<rect x="675.806" y="49.9707" width="69" height="502" fill="#EDEDED" stroke="black" stroke-width="2"/>
<path d="M674.806 551.97L744.82 480.256" stroke="black" stroke-width="2"/>
<path d="M744.819 516.115L709.812 551.972" stroke="black" stroke-width="2"/>
<path d="M674.806 480.255L744.82 408.541" stroke="black" stroke-width="2"/>
<path d="M674.806 516.115L744.82 444.4" stroke="black" stroke-width="2"/>
<path d="M674.806 516.115L744.82 444.4" stroke="black" stroke-width="2"/>
<path d="M674.806 408.54L744.82 336.826" stroke="black" stroke-width="2"/>
<path d="M674.806 444.4L744.82 372.686" stroke="black" stroke-width="2"/>
<path d="M674.806 336.83L744.82 265.115" stroke="black" stroke-width="2"/>
<path d="M674.806 372.685L744.82 300.971" stroke="black" stroke-width="2"/>
<path d="M674.806 265.115L744.82 193.4" stroke="black" stroke-width="2"/>
<path d="M674.806 300.97L744.82 229.256" stroke="black" stroke-width="2"/>
<path d="M674.806 193.4L744.82 121.686" stroke="black" stroke-width="2"/>
<path d="M674.806 121.685L744.82 49.9707" stroke="black" stroke-width="2"/>
<path d="M674.806 229.255L744.82 157.541" stroke="black" stroke-width="2"/>
<path d="M674.806 157.54L744.82 85.8262" stroke="black" stroke-width="2"/>
<path d="M674.806 85.8278L709.813 49.9707" stroke="black" stroke-width="2"/>
<path d="M674.806 48.9707V552.971" stroke="black" stroke-width="3"/>
<path d="M1254.3 157.971L1241.11 150.353V165.588L1254.3 157.971ZM1220 159.29H1242.43V156.651H1220V159.29Z" fill="#FF00CC"/>
<path d="M1254.3 301.4L1241.11 293.783V309.018L1254.3 301.4ZM1220 302.72H1242.43V300.081H1220V302.72Z" fill="#FF00CC"/>
<path d="M1254.3 444.4L1241.11 436.783V452.018L1254.3 444.4ZM1220 445.72H1242.43V443.081H1220V445.72Z" fill="#FF00CC"/>
<rect width="19.7905" height="349.632" transform="matrix(-1 0 0 1 1286.09 123.535)" fill="white" stroke="black" stroke-width="3.74653"/>
<rect width="4.71143" height="11.8743" transform="matrix(-1 0 0 1 1290.81 239.641)" fill="white" stroke="black" stroke-width="3.74653"/>
<rect width="4.71143" height="11.8743" transform="matrix(-1 0 0 1 1290.81 361.021)" fill="white" stroke="black" stroke-width="3.74653"/>
<rect width="4.71143" height="10.105" transform="matrix(-1 0 0 1 1290.81 148.604)" fill="white" stroke="black" stroke-width="3.74653"/>
<rect width="4.71143" height="10.105" transform="matrix(-1 0 0 1 1290.81 437.545)" fill="white" stroke="black" stroke-width="3.74653"/>
<rect x="1292.3" y="49.9707" width="69" height="502" fill="#EDEDED" stroke="black" stroke-width="2"/>
<path d="M1291.3 551.97L1361.32 480.256" stroke="black" stroke-width="2"/>
<path d="M1361.32 516.115L1326.31 551.972" stroke="black" stroke-width="2"/>
<path d="M1291.3 480.255L1361.32 408.541" stroke="black" stroke-width="2"/>
<path d="M1291.3 516.115L1361.32 444.4" stroke="black" stroke-width="2"/>
<path d="M1291.3 516.115L1361.32 444.4" stroke="black" stroke-width="2"/>
<path d="M1291.3 408.54L1361.32 336.826" stroke="black" stroke-width="2"/>
<path d="M1291.3 444.4L1361.32 372.686" stroke="black" stroke-width="2"/>
<path d="M1291.3 336.83L1361.32 265.115" stroke="black" stroke-width="2"/>
<path d="M1291.3 372.685L1361.32 300.971" stroke="black" stroke-width="2"/>
<path d="M1291.3 265.115L1361.32 193.4" stroke="black" stroke-width="2"/>
<path d="M1291.3 300.97L1361.32 229.256" stroke="black" stroke-width="2"/>
<path d="M1291.3 193.4L1361.32 121.686" stroke="black" stroke-width="2"/>
<path d="M1291.3 121.685L1361.32 49.9707" stroke="black" stroke-width="2"/>
<path d="M1291.3 229.255L1361.32 157.541" stroke="black" stroke-width="2"/>
<path d="M1291.3 157.54L1361.32 85.8262" stroke="black" stroke-width="2"/>
<path d="M1291.3 85.8278L1326.31 49.9707" stroke="black" stroke-width="2"/>
<path d="M1291.3 48.9707V552.971" stroke="black" stroke-width="3"/>
<rect width="19.7905" height="349.632" transform="matrix(-1 0 0 1 916.791 123.971)" fill="white" stroke="black" stroke-width="3.74653"/>
<rect width="7.9162" height="11.8743" transform="matrix(-1 0 0 1 924.707 240.076)" fill="white" stroke="black" stroke-width="3.74653"/>
<rect width="7.9162" height="11.8743" transform="matrix(-1 0 0 1 924.707 361.457)" fill="white" stroke="black" stroke-width="3.74653"/>
<rect width="7.9162" height="10.105" transform="matrix(-1 0 0 1 924.707 149.039)" fill="white" stroke="black" stroke-width="3.74653"/>
<rect width="7.9162" height="10.105" transform="matrix(-1 0 0 1 924.707 437.98)" fill="white" stroke="black" stroke-width="3.74653"/>
<path d="M936.707 157.971L949.9 150.353V165.588L936.707 157.971ZM971.01 159.29H948.581V156.651H971.01V159.29Z" fill="#FF00CC"/>
<path d="M936.707 301.4L949.9 293.783V309.018L936.707 301.4ZM971.01 302.72H948.581V300.081H971.01V302.72Z" fill="#FF00CC"/>
<path d="M936.707 444.4L949.9 436.783V452.018L936.707 444.4ZM971.01 445.72H948.581V443.081H971.01V445.72Z" fill="#FF00CC"/>
<rect x="984.01" y="49.9707" width="69" height="502" fill="#EDEDED" stroke="black" stroke-width="2"/>
<path d="M983.01 551.97L1053.02 480.256" stroke="black" stroke-width="2"/>
<path d="M1053.02 516.115L1018.02 551.972" stroke="black" stroke-width="2"/>
<path d="M983.01 480.255L1053.02 408.541" stroke="black" stroke-width="2"/>
<path d="M983.01 516.115L1053.02 444.4" stroke="black" stroke-width="2"/>
<path d="M983.01 516.115L1053.02 444.4" stroke="black" stroke-width="2"/>
<path d="M983.01 408.54L1053.02 336.826" stroke="black" stroke-width="2"/>
<path d="M983.01 444.4L1053.02 372.686" stroke="black" stroke-width="2"/>
<path d="M983.01 336.83L1053.02 265.115" stroke="black" stroke-width="2"/>
<path d="M983.01 372.685L1053.02 300.971" stroke="black" stroke-width="2"/>
<path d="M983.01 265.115L1053.02 193.4" stroke="black" stroke-width="2"/>
<path d="M983.01 300.97L1053.02 229.256" stroke="black" stroke-width="2"/>
<path d="M983.01 193.4L1053.02 121.686" stroke="black" stroke-width="2"/>
<path d="M983.01 121.685L1053.02 49.9707" stroke="black" stroke-width="2"/>
<path d="M983.01 229.255L1053.02 157.541" stroke="black" stroke-width="2"/>
<path d="M983.01 157.54L1053.02 85.8262" stroke="black" stroke-width="2"/>
<path d="M983.01 85.8278L1018.02 49.9707" stroke="black" stroke-width="2"/>
<path d="M983.01 48.9707V552.971" stroke="black" stroke-width="3"/>
<rect width="19.7905" height="349.632" transform="matrix(-1 0 0 1 1593.79 123.535)" fill="white" stroke="black" stroke-width="3.74653"/>
<rect width="4.71143" height="11.8743" transform="matrix(-1 0 0 1 1598.5 239.641)" fill="white" stroke="black" stroke-width="3.74653"/>
<rect width="4.71143" height="11.8743" transform="matrix(-1 0 0 1 1598.5 361.021)" fill="white" stroke="black" stroke-width="3.74653"/>
<rect width="4.71143" height="10.105" transform="matrix(-1 0 0 1 1598.5 148.604)" fill="white" stroke="black" stroke-width="3.74653"/>
<rect width="4.71143" height="10.105" transform="matrix(-1 0 0 1 1598.5 437.545)" fill="white" stroke="black" stroke-width="3.74653"/>
<rect x="1600" y="49.9707" width="69" height="502" fill="#EDEDED" stroke="black" stroke-width="2"/>
<path d="M1599 551.97L1669.01 480.256" stroke="black" stroke-width="2"/>
<path d="M1669.01 516.115L1634.01 551.972" stroke="black" stroke-width="2"/>
<path d="M1599 480.255L1669.01 408.541" stroke="black" stroke-width="2"/>
<path d="M1599 516.115L1669.01 444.4" stroke="black" stroke-width="2"/>
<path d="M1599 516.115L1669.01 444.4" stroke="black" stroke-width="2"/>
<path d="M1599 408.54L1669.01 336.826" stroke="black" stroke-width="2"/>
<path d="M1599 444.4L1669.01 372.686" stroke="black" stroke-width="2"/>
<path d="M1599 336.83L1669.01 265.115" stroke="black" stroke-width="2"/>
<path d="M1599 372.685L1669.01 300.971" stroke="black" stroke-width="2"/>
<path d="M1599 265.115L1669.01 193.4" stroke="black" stroke-width="2"/>
<path d="M1599 300.97L1669.01 229.256" stroke="black" stroke-width="2"/>
<path d="M1599 193.4L1669.01 121.686" stroke="black" stroke-width="2"/>
<path d="M1599 121.685L1669.01 49.9707" stroke="black" stroke-width="2"/>
<path d="M1599 229.255L1669.01 157.541" stroke="black" stroke-width="2"/>
<path d="M1599 157.54L1669.01 85.8262" stroke="black" stroke-width="2"/>
<path d="M1599 85.8278L1634.01 49.9707" stroke="black" stroke-width="2"/>
<path d="M1599 48.9707V552.971" stroke="black" stroke-width="3"/>
<path d="M1570 472.971C1570 463.974 1569.93 294.971 1569.93 267.835C1569.93 254.96 1561.81 250.94 1557.51 248.291C1548.46 242.709 1488.25 229.16 1514.64 363.077" stroke="black" stroke-width="4.5" stroke-linecap="round"/>
<path d="M1461.36 285.275C1463.08 286.657 1465.6 286.38 1466.98 284.656L1489.5 256.567C1490.88 254.844 1490.6 252.326 1488.88 250.944C1487.15 249.563 1484.64 249.84 1483.25 251.563L1463.24 276.531L1438.27 256.516C1436.55 255.135 1434.03 255.412 1432.65 257.135C1431.27 258.859 1431.54 261.377 1433.27 262.758L1461.36 285.275ZM1556.71 202.171C1532.53 189.261 1506.13 190.294 1486.74 204.544C1467.32 218.814 1455.82 245.659 1459.88 282.592L1467.83 281.716C1463.99 246.813 1474.95 223.136 1491.48 210.991C1508.03 198.825 1531.07 197.548 1552.94 209.227L1556.71 202.171Z" fill="#FF00CC"/>
</svg>
