<svg width="1208" height="936" viewBox="0 0 1208 936" fill="none" xmlns="http://www.w3.org/2000/svg">
<rect width="1208" height="936" fill="#EDEDED"/>
<path d="M507.906 172.742H389.609C258.933 172.742 153 278.675 153 409.351V527.648C153 658.323 258.933 764.257 389.609 764.257H507.906C638.581 764.257 744.515 658.323 744.515 527.648V409.351C744.515 278.675 638.581 172.742 507.906 172.742Z" stroke="black" stroke-width="0.850877" stroke-miterlimit="10"/>
<path d="M302.98 320.846V431.095H283.01V340.28H282.363L256.578 356.752V338.451L283.977 320.846H302.98Z" fill="#FF00CC"/>
<path d="M381.602 433.195C372.74 433.195 365.138 430.942 358.801 426.441C352.464 421.941 347.602 415.423 344.215 406.902C340.82 398.382 339.13 388.108 339.13 376.081C339.165 364.062 340.883 353.823 344.27 345.371C347.665 336.92 352.527 330.472 358.857 326.02C365.193 321.569 372.775 319.343 381.602 319.343C390.429 319.343 398.018 321.569 404.375 326.02C410.726 330.472 415.602 336.934 418.989 345.399C422.384 353.871 424.074 364.096 424.074 376.081C424.074 388.066 422.377 398.43 418.989 406.958C415.595 415.479 410.733 421.99 404.403 426.476C398.066 430.963 390.471 433.202 381.602 433.202V433.195ZM381.602 416.348C388.495 416.348 393.935 412.947 397.941 406.144C401.941 399.341 403.944 389.318 403.944 376.081C403.944 367.324 403.026 359.965 401.197 354.011C399.367 348.056 396.78 343.556 393.448 340.523C390.109 337.49 386.165 335.974 381.602 335.974C374.744 335.974 369.325 339.375 365.346 346.178C361.361 352.981 359.35 362.949 359.316 376.081C359.281 384.873 360.164 392.267 361.98 398.263C363.788 404.259 366.369 408.767 369.708 411.799C373.046 414.832 377.011 416.348 381.602 416.348Z" fill="#FF00CC"/>
<path d="M448.761 363.214C445.492 363.214 442.695 362.059 440.365 359.743C438.035 357.427 436.88 354.637 436.922 351.375C436.887 348.148 438.035 345.372 440.365 343.056C442.695 340.74 445.499 339.585 448.761 339.585C452.023 339.585 454.673 340.74 457.024 343.056C459.375 345.372 460.565 348.141 460.607 351.375C460.572 353.531 460.008 355.5 458.909 357.294C457.817 359.089 456.377 360.522 454.604 361.6C452.83 362.678 450.882 363.214 448.761 363.214ZM448.761 417.852C445.492 417.852 442.695 416.697 440.365 414.381C438.035 412.064 436.88 409.275 436.922 406.013C436.887 402.785 438.035 400.017 440.365 397.722C442.695 395.426 445.499 394.278 448.761 394.278C452.023 394.278 454.673 395.426 457.024 397.722C459.375 400.017 460.565 402.778 460.607 406.013C460.572 408.204 460.008 410.193 458.909 411.988C457.817 413.783 456.377 415.208 454.604 416.266C452.83 417.323 450.882 417.852 448.761 417.852Z" fill="#FF00CC"/>
<path d="M515.905 433.195C507.043 433.195 499.44 430.942 493.104 426.441C486.767 421.941 481.905 415.423 478.517 406.902C475.123 398.382 473.433 388.108 473.433 376.081C473.467 364.062 475.185 353.823 478.573 345.371C481.967 336.92 486.829 330.472 493.159 326.02C499.496 321.569 507.078 319.343 515.905 319.343C524.732 319.343 532.32 321.569 538.678 326.02C545.029 330.472 549.905 336.934 553.292 345.399C556.687 353.871 558.377 364.096 558.377 376.081C558.377 388.066 556.68 398.43 553.292 406.958C549.898 415.479 545.036 421.99 538.706 426.476C532.369 430.963 524.773 433.202 515.905 433.202V433.195ZM515.905 416.348C522.798 416.348 528.237 412.947 532.244 406.144C536.243 399.341 538.247 389.318 538.247 376.081C538.247 367.324 537.329 359.965 535.499 354.011C533.67 348.056 531.082 343.556 527.75 340.523C524.412 337.49 520.468 335.974 515.905 335.974C509.046 335.974 503.628 339.375 499.649 346.178C495.663 352.981 493.653 362.949 493.618 376.081C493.584 384.873 494.467 392.267 496.282 398.263C498.091 404.259 500.672 408.767 504.01 411.799C507.349 414.832 511.314 416.348 515.905 416.348Z" fill="#FF00CC"/>
<path d="M610.182 433.195C601.32 433.195 593.718 430.942 587.381 426.441C581.044 421.941 576.182 415.423 572.795 406.902C569.4 398.382 567.71 388.108 567.71 376.081C567.745 364.062 569.463 353.823 572.85 345.371C576.245 336.92 581.107 330.472 587.437 326.02C593.773 321.569 601.355 319.343 610.182 319.343C619.009 319.343 626.598 321.569 632.955 326.02C639.306 330.472 644.182 336.934 647.57 345.399C650.964 353.871 652.654 364.096 652.654 376.081C652.654 388.066 650.957 398.43 647.57 406.958C644.175 415.479 639.313 421.99 632.983 426.476C626.646 430.963 619.051 433.202 610.182 433.202V433.195ZM610.182 416.348C617.075 416.348 622.515 412.947 626.521 406.144C630.521 399.341 632.524 389.318 632.524 376.081C632.524 367.324 631.606 359.965 629.777 354.011C627.947 348.056 625.36 343.556 622.028 340.523C618.689 337.49 614.745 335.974 610.182 335.974C603.324 335.974 597.905 339.375 593.926 346.178C589.941 352.981 587.93 362.949 587.896 376.081C587.861 384.873 588.744 392.267 590.56 398.263C592.368 404.259 594.949 408.767 598.288 411.799C601.626 414.832 605.591 416.348 610.182 416.348Z" fill="#FF00CC"/>
<path d="M251.362 567.126V552.7L289.639 515.18C293.298 511.487 296.352 508.197 298.793 505.331C301.235 502.458 303.064 499.676 304.281 496.984C305.499 494.292 306.111 491.419 306.111 488.372C306.111 484.895 305.318 481.904 303.739 479.406C302.16 476.916 299.99 474.983 297.228 473.619C294.467 472.256 291.323 471.574 287.81 471.574C284.297 471.574 281.007 472.318 278.281 473.807C275.554 475.296 273.446 477.403 271.958 480.13C270.469 482.857 269.725 486.105 269.725 489.875H250.722C250.722 482.877 252.322 476.791 255.514 471.623C258.707 466.455 263.11 462.455 268.73 459.617C274.344 456.779 280.799 455.367 288.081 455.367C295.364 455.367 301.972 456.751 307.571 459.513C313.171 462.274 317.518 466.065 320.627 470.872C323.73 475.685 325.281 481.173 325.281 487.343C325.281 491.468 324.488 495.523 322.909 499.509C321.33 503.494 318.555 507.904 314.59 512.753C310.625 517.601 305.067 523.465 297.931 530.358L278.927 549.681V550.432H326.95V567.119H251.369L251.362 567.126Z" fill="#FF00CC"/>
<path d="M347.428 567.126V552.7L385.706 515.18C389.365 511.487 392.418 508.197 394.86 505.331C397.301 502.458 399.131 499.676 400.348 496.984C401.565 494.292 402.177 491.419 402.177 488.372C402.177 484.895 401.384 481.904 399.805 479.406C398.226 476.916 396.056 474.983 393.295 473.619C390.533 472.256 387.389 471.574 383.876 471.574C380.364 471.574 377.074 472.318 374.347 473.807C371.62 475.296 369.513 477.403 368.024 480.13C366.536 482.857 365.791 486.105 365.791 489.875H346.788C346.788 482.877 348.388 476.791 351.581 471.623C354.773 466.455 359.176 462.455 364.797 459.617C370.41 456.779 376.865 455.367 384.148 455.367C391.43 455.367 398.038 456.751 403.638 459.513C409.237 462.274 413.585 466.065 416.694 470.872C419.796 475.685 421.347 481.173 421.347 487.343C421.347 491.468 420.554 495.523 418.975 499.509C417.396 503.494 414.621 507.904 410.656 512.753C406.691 517.601 401.134 523.465 393.997 530.358L374.994 549.681V550.432H423.017V567.119H347.435L347.428 567.126Z" fill="#FF00CC"/>
<path d="M448.761 499.243C445.492 499.243 442.695 498.089 440.365 495.772C438.035 493.456 436.88 490.667 436.922 487.397C436.887 484.17 438.035 481.395 440.365 479.078C442.695 476.762 445.499 475.607 448.761 475.607C452.023 475.607 454.673 476.762 457.024 479.078C459.375 481.395 460.565 484.163 460.607 487.397C460.572 489.554 460.008 491.522 458.909 493.317C457.817 495.111 456.377 496.544 454.604 497.623C452.83 498.701 450.882 499.236 448.761 499.236V499.243ZM448.761 553.881C445.492 553.881 442.695 552.726 440.365 550.41C438.035 548.094 436.88 545.305 436.922 542.035C436.887 538.808 438.035 536.039 440.365 533.744C442.695 531.449 445.499 530.301 448.761 530.301C452.023 530.301 454.673 531.449 457.024 533.744C459.375 536.039 460.565 538.808 460.607 542.035C460.572 544.226 460.008 546.216 458.909 548.01C457.817 549.805 456.377 551.231 454.604 552.288C452.83 553.345 450.882 553.874 448.761 553.874V553.881Z" fill="#FF00CC"/>
<path d="M516.733 569.224C507.871 569.224 500.269 566.97 493.932 562.47C487.595 557.969 482.733 551.452 479.345 542.931C475.951 534.41 474.261 524.136 474.261 512.11C474.296 500.09 476.014 489.851 479.401 481.4C482.796 472.948 487.658 466.493 493.987 462.049C500.324 457.597 507.906 455.371 516.733 455.371C525.56 455.371 533.149 457.597 539.506 462.049C545.857 466.5 550.733 472.962 554.12 481.428C557.515 489.9 559.205 500.125 559.205 512.11C559.205 524.094 557.508 534.459 554.12 542.986C550.726 551.507 545.864 558.018 539.534 562.497C533.197 566.984 525.602 569.224 516.733 569.224ZM516.733 552.377C523.626 552.377 529.065 548.975 533.072 542.173C537.072 535.37 539.075 525.346 539.075 512.11C539.075 503.352 538.157 495.993 536.327 490.039C534.498 484.085 531.91 479.584 528.579 476.552C525.24 473.519 521.296 472.002 516.733 472.002C509.874 472.002 504.456 475.404 500.477 482.207C496.491 489.009 494.481 498.977 494.446 512.11C494.412 520.902 495.295 528.296 497.111 534.292C498.919 540.288 501.5 544.795 504.838 547.828C508.177 550.86 512.142 552.377 516.733 552.377Z" fill="#FF00CC"/>
<path d="M611.011 569.224C602.149 569.224 594.547 566.97 588.21 562.47C581.873 557.969 577.011 551.452 573.624 542.931C570.229 534.41 568.539 524.136 568.539 512.11C568.574 500.09 570.292 489.851 573.679 481.4C577.074 472.948 581.936 466.493 588.266 462.049C594.602 457.597 602.184 455.371 611.011 455.371C619.838 455.371 627.427 457.597 633.784 462.049C640.135 466.5 645.011 472.962 648.399 481.428C651.793 489.9 653.483 500.125 653.483 512.11C653.483 524.094 651.786 534.459 648.399 542.986C645.004 551.507 640.142 558.018 633.812 562.497C627.476 566.984 619.88 569.224 611.011 569.224ZM611.011 552.377C617.904 552.377 623.344 548.975 627.35 542.173C631.35 535.37 633.353 525.346 633.353 512.11C633.353 503.352 632.435 495.993 630.606 490.039C628.776 484.085 626.189 479.584 622.857 476.552C619.518 473.519 615.574 472.002 611.011 472.002C604.153 472.002 598.734 475.404 594.755 482.207C590.77 489.009 588.76 498.977 588.725 512.11C588.69 520.902 589.573 528.296 591.389 534.292C593.197 540.288 595.778 544.795 599.117 547.828C602.456 550.86 606.42 552.377 611.011 552.377Z" fill="#FF00CC"/>
<path d="M329.629 414.406H256.565V431.1H329.629V414.406Z" fill="#FF00CC"/>
<path d="M311.377 665.301C308.435 665.301 305.903 664.668 303.781 663.402C301.66 662.136 300.025 660.355 298.877 658.053C297.73 655.75 297.159 653.051 297.159 649.949C297.159 646.847 297.737 644.19 298.877 641.859C300.025 639.529 301.632 637.707 303.698 636.392C305.764 635.085 308.184 634.431 310.959 634.431C312.643 634.431 314.277 634.709 315.863 635.265C317.442 635.822 318.861 636.698 320.12 637.888C321.379 639.077 322.367 640.628 323.097 642.527C323.828 644.426 324.189 646.729 324.189 649.441V651.5H300.442V647.146H318.493C318.493 645.616 318.18 644.259 317.561 643.07C316.941 641.88 316.065 640.948 314.945 640.26C313.825 639.571 312.511 639.23 311.008 639.23C309.374 639.23 307.955 639.627 306.737 640.427C305.527 641.226 304.595 642.263 303.934 643.536C303.273 644.809 302.953 646.2 302.953 647.688V651.09C302.953 653.086 303.308 654.783 304.011 656.188C304.72 657.587 305.708 658.658 306.974 659.388C308.247 660.118 309.728 660.487 311.426 660.487C312.525 660.487 313.533 660.327 314.437 660.007C315.342 659.687 316.128 659.214 316.788 658.581C317.449 657.948 317.957 657.162 318.305 656.23L323.807 657.225C323.369 658.846 322.576 660.265 321.442 661.475C320.308 662.685 318.889 663.624 317.185 664.292C315.481 664.96 313.54 665.294 311.363 665.294L311.377 665.301Z" fill="#FF00CC"/>
<path d="M328.634 664.696L340.208 649.408L328.773 634.821H335.541L344.778 647.23H346.858V634.821H352.673V647.23H354.697L363.935 634.821H370.703L359.323 649.408L370.835 664.696H363.928L354.614 652.253H352.666V664.696H346.851V652.253H344.904L335.527 664.696H328.62H328.634Z" fill="#FF00CC"/>
<path d="M388.962 665.301C386.019 665.301 383.488 664.668 381.366 663.402C379.245 662.136 377.61 660.355 376.462 658.053C375.315 655.75 374.744 653.051 374.744 649.949C374.744 646.847 375.321 644.19 376.462 641.859C377.61 639.529 379.217 637.707 381.283 636.392C383.348 635.085 385.769 634.431 388.544 634.431C390.228 634.431 391.862 634.709 393.448 635.265C395.027 635.822 396.446 636.698 397.705 637.888C398.964 639.077 399.952 640.628 400.682 642.527C401.413 644.426 401.774 646.729 401.774 649.441V651.5H378.027V647.146H396.078C396.078 645.616 395.765 644.259 395.146 643.07C394.526 641.88 393.65 640.948 392.53 640.26C391.41 639.571 390.096 639.23 388.593 639.23C386.959 639.23 385.54 639.627 384.322 640.427C383.112 641.226 382.18 642.263 381.519 643.536C380.858 644.809 380.538 646.2 380.538 647.688V651.09C380.538 653.086 380.893 654.783 381.596 656.188C382.305 657.587 383.293 658.658 384.559 659.388C385.832 660.118 387.313 660.487 389.01 660.487C390.109 660.487 391.118 660.327 392.022 660.007C392.927 659.687 393.713 659.214 394.373 658.581C395.034 657.948 395.542 657.162 395.89 656.23L401.392 657.225C400.954 658.846 400.161 660.265 399.027 661.475C397.893 662.685 396.474 663.624 394.77 664.292C393.066 664.96 391.125 665.294 388.948 665.294L388.962 665.301Z" fill="#FF00CC"/>
<path d="M405.886 673.314V659.659H408.32C408.939 659.089 409.468 658.407 409.906 657.614C410.344 656.821 410.713 655.882 411.012 654.797C411.318 653.705 411.576 652.432 411.777 650.979C411.986 649.518 412.167 647.848 412.32 645.97L413.252 634.827H433.556V659.659H438.147V673.314H432.471V664.695H411.645V673.314H405.886ZM414.539 659.659H427.88V639.801H418.469L417.843 645.963C417.544 649.1 417.168 651.82 416.716 654.123C416.264 656.425 415.533 658.268 414.539 659.652V659.659Z" fill="#FF00CC"/>
<path d="M450.054 634.827V664.702H444.357V634.827H450.054ZM464.599 647.257V652.293H448.42V647.257H464.599ZM468.661 634.827V664.702H462.985V634.827H468.661Z" fill="#FF00CC"/>
<path d="M489.849 665.301C486.907 665.301 484.375 664.668 482.254 663.402C480.132 662.136 478.498 660.355 477.35 658.053C476.202 655.75 475.632 653.051 475.632 649.949C475.632 646.847 476.209 644.19 477.35 641.859C478.498 639.529 480.104 637.707 482.17 636.392C484.236 635.085 486.657 634.431 489.432 634.431C491.115 634.431 492.75 634.709 494.336 635.265C495.915 635.822 497.334 636.698 498.593 637.888C499.852 639.077 500.84 640.628 501.57 642.527C502.3 644.426 502.662 646.729 502.662 649.441V651.5H478.915V647.146H496.965C496.965 645.616 496.652 644.259 496.033 643.07C495.414 641.88 494.538 640.948 493.418 640.26C492.298 639.571 490.983 639.23 489.481 639.23C487.846 639.23 486.427 639.627 485.21 640.427C484 641.226 483.068 642.263 482.407 643.536C481.746 644.809 481.426 646.2 481.426 647.688V651.09C481.426 653.086 481.781 654.783 482.483 656.188C483.193 657.587 484.181 658.658 485.446 659.388C486.719 660.118 488.201 660.487 489.898 660.487C490.997 660.487 492.006 660.327 492.91 660.007C493.814 659.687 494.6 659.214 495.261 658.581C495.922 657.948 496.43 657.162 496.777 656.23L502.28 657.225C501.841 658.846 501.048 660.265 499.915 661.475C498.781 662.685 497.362 663.624 495.658 664.292C493.953 664.96 492.013 665.294 489.836 665.294L489.849 665.301Z" fill="#FF00CC"/>
<path d="M509.688 664.696V634.821H522.076C525.449 634.821 528.12 635.538 530.089 636.971C532.057 638.404 533.045 640.344 533.045 642.793C533.045 644.546 532.489 645.93 531.376 646.952C530.263 647.975 528.781 648.663 526.945 649.011C528.28 649.164 529.505 649.568 530.618 650.208C531.73 650.847 532.628 651.71 533.309 652.781C533.991 653.859 534.332 655.139 534.332 656.635C534.332 658.214 533.922 659.612 533.108 660.829C532.294 662.039 531.104 662.985 529.56 663.667C528.016 664.349 526.145 664.69 523.968 664.69H509.694L509.688 664.696ZM515.155 647.272H522.138C523.23 647.272 524.163 647.119 524.949 646.806C525.735 646.493 526.333 646.055 526.757 645.471C527.181 644.893 527.39 644.212 527.39 643.419C527.39 642.264 526.917 641.367 525.971 640.713C525.025 640.066 523.724 639.739 522.083 639.739H515.162V647.265L515.155 647.272ZM515.155 659.834H523.968C525.408 659.834 526.534 659.494 527.348 658.805C528.162 658.116 528.573 657.184 528.573 656.002C528.573 654.618 528.162 653.525 527.348 652.726C526.534 651.926 525.401 651.529 523.968 651.529H515.155V659.834Z" fill="#FF00CC"/>
<path d="M546.928 634.827V664.702H541.231V634.827H546.928ZM561.473 647.257V652.293H545.294V647.257H561.473ZM565.535 634.827V664.702H559.859V634.827H565.535Z" fill="#FF00CC"/>
<path d="M586.43 665.301C583.627 665.301 581.186 664.661 579.099 663.375C577.012 662.095 575.392 660.293 574.237 657.991C573.082 655.681 572.505 652.983 572.505 649.901C572.505 646.82 573.082 644.093 574.237 641.77C575.392 639.447 577.012 637.645 579.099 636.365C581.186 635.078 583.627 634.438 586.43 634.438C589.234 634.438 591.675 635.078 593.762 636.365C595.849 637.652 597.469 639.454 598.624 641.77C599.779 644.093 600.356 646.799 600.356 649.901C600.356 653.003 599.779 655.681 598.624 657.991C597.469 660.3 595.849 662.095 593.762 663.375C591.675 664.661 589.234 665.301 586.43 665.301ZM586.451 660.418C588.267 660.418 589.769 659.938 590.966 658.979C592.155 658.019 593.045 656.739 593.623 655.146C594.2 653.553 594.485 651.793 594.485 649.873C594.485 647.954 594.193 646.215 593.623 644.615C593.045 643.015 592.162 641.728 590.966 640.754C589.776 639.781 588.267 639.294 586.451 639.294C584.636 639.294 583.112 639.781 581.909 640.754C580.713 641.728 579.822 643.015 579.245 644.615C578.668 646.215 578.383 647.968 578.383 649.873C578.383 651.779 578.668 653.546 579.245 655.146C579.822 656.739 580.713 658.019 581.909 658.979C583.106 659.938 584.622 660.418 586.451 660.418Z" fill="#FF00CC"/>
<path d="M992.169 286.742H869.387C835.484 286.742 808 314.226 808 348.13V348.136C808 382.04 835.484 409.524 869.387 409.524H992.169C1026.07 409.524 1053.56 382.04 1053.56 348.136V348.13C1053.56 314.226 1026.07 286.742 992.169 286.742Z" fill="#FF00CC"/>
<path d="M864.162 360.994C861.862 360.994 859.852 360.467 858.133 359.407C856.415 358.346 855.084 356.87 854.135 354.978C853.185 353.079 852.714 350.862 852.714 348.325C852.714 345.789 853.185 343.55 854.135 341.638C855.084 339.725 856.415 338.249 858.133 337.189C859.852 336.128 861.862 335.602 864.162 335.602C866.463 335.602 868.473 336.128 870.192 337.189C871.91 338.249 873.241 339.725 874.19 341.638C875.14 343.55 875.611 345.775 875.611 348.325C875.611 350.876 875.133 353.079 874.19 354.978C873.241 356.877 871.91 358.353 870.192 359.407C868.473 360.46 866.463 360.994 864.162 360.994ZM864.176 356.981C865.666 356.981 866.907 356.586 867.884 355.796C868.868 355.006 869.596 353.96 870.067 352.643C870.538 351.333 870.781 349.885 870.781 348.305C870.781 346.724 870.545 345.297 870.067 343.98C869.589 342.663 868.861 341.603 867.884 340.806C866.9 340.009 865.666 339.607 864.176 339.607C862.686 339.607 861.425 340.009 860.441 340.806C859.457 341.603 858.722 342.663 858.251 343.98C857.773 345.297 857.537 346.738 857.537 348.305C857.537 349.871 857.773 351.326 858.251 352.643C858.722 353.953 859.457 355.006 860.441 355.796C861.425 356.586 862.673 356.981 864.176 356.981Z" fill="white"/>
<path d="M878.217 340.054V335.924H898.952V340.054H890.941V360.498H886.27V340.054H878.224H878.217Z" fill="white"/>
<path d="M921.329 360.99C918.952 360.99 916.908 360.45 915.196 359.369C913.485 358.288 912.168 356.791 911.253 354.885C910.338 352.979 909.881 350.789 909.881 348.329C909.881 345.869 910.352 343.63 911.288 341.718C912.223 339.805 913.547 338.308 915.252 337.234C916.957 336.16 918.966 335.619 921.281 335.619C923.145 335.619 924.808 335.966 926.271 336.652C927.733 337.338 928.911 338.301 929.812 339.542C930.713 340.782 931.247 342.224 931.42 343.873H926.763C926.506 342.723 925.924 341.732 925.009 340.9C924.095 340.068 922.882 339.652 921.357 339.652C920.027 339.652 918.862 339.999 917.864 340.699C916.866 341.399 916.09 342.39 915.536 343.672C914.981 344.954 914.704 346.472 914.704 348.225C914.704 349.978 914.975 351.565 915.522 352.861C916.069 354.164 916.839 355.169 917.837 355.883C918.835 356.597 920.013 356.957 921.364 356.957C922.272 356.957 923.097 356.791 923.838 356.451C924.58 356.119 925.203 355.633 925.709 355.003C926.215 354.372 926.569 353.617 926.777 352.73H931.434C931.26 354.317 930.748 355.737 929.881 356.985C929.015 358.232 927.865 359.216 926.416 359.93C924.975 360.644 923.277 361.004 921.336 361.004L921.329 360.99Z" fill="white"/>
<path d="M946.243 360.993C943.824 360.993 941.738 360.473 939.999 359.433C938.252 358.394 936.908 356.925 935.966 355.033C935.023 353.141 934.552 350.916 934.552 348.373C934.552 345.829 935.023 343.639 935.966 341.72C936.908 339.8 938.232 338.303 939.93 337.222C941.627 336.148 943.623 335.607 945.903 335.607C947.289 335.607 948.634 335.836 949.937 336.294C951.24 336.751 952.404 337.472 953.443 338.456C954.476 339.44 955.294 340.708 955.89 342.267C956.486 343.827 956.784 345.725 956.784 347.957V349.655H937.255V346.072H952.099C952.099 344.811 951.843 343.695 951.33 342.718C950.817 341.741 950.103 340.971 949.174 340.41C948.246 339.849 947.172 339.565 945.938 339.565C944.594 339.565 943.422 339.89 942.424 340.549C941.426 341.207 940.657 342.059 940.124 343.106C939.583 344.159 939.313 345.296 939.313 346.522V349.322C939.313 350.965 939.604 352.365 940.186 353.515C940.768 354.665 941.579 355.545 942.625 356.148C943.672 356.751 944.892 357.049 946.291 357.049C947.199 357.049 948.024 356.918 948.772 356.654C949.521 356.391 950.165 356.003 950.706 355.476C951.247 354.956 951.662 354.312 951.953 353.543L956.479 354.36C956.118 355.691 955.467 356.855 954.538 357.853C953.603 358.851 952.439 359.62 951.032 360.175C949.632 360.722 948.031 361 946.243 361V360.993Z" fill="white"/>
<path d="M981.13 326.777L983.112 329.799C982.377 330.471 981.539 330.949 980.61 331.233C979.674 331.518 978.6 331.691 977.387 331.76C976.175 331.829 974.782 331.892 973.215 331.947C971.448 332.003 969.986 332.384 968.849 333.091C967.713 333.798 966.833 334.844 966.216 336.223C965.599 337.602 965.204 339.335 965.024 341.414H965.329C966.126 339.889 967.242 338.746 968.662 337.99C970.083 337.235 971.691 336.854 973.472 336.854C975.454 336.854 977.221 337.304 978.766 338.212C980.312 339.12 981.532 340.444 982.419 342.19C983.306 343.936 983.756 346.064 983.756 348.58C983.756 351.095 983.292 353.334 982.356 355.184C981.421 357.034 980.111 358.469 978.42 359.481C976.729 360.486 974.74 360.992 972.446 360.992C970.152 360.992 968.156 360.472 966.458 359.432C964.754 358.393 963.437 356.847 962.508 354.803C961.573 352.759 961.108 350.229 961.108 347.221V344.789C961.108 339.168 962.113 334.941 964.116 332.107C966.119 329.272 969.12 327.817 973.105 327.741C974.394 327.706 975.544 327.699 976.563 327.713C977.574 327.727 978.462 327.678 979.224 327.567C979.986 327.456 980.624 327.193 981.137 326.777H981.13ZM972.46 356.979C973.791 356.979 974.941 356.639 975.904 355.96C976.868 355.281 977.616 354.318 978.136 353.07C978.656 351.823 978.919 350.354 978.919 348.656C978.919 346.958 978.656 345.579 978.136 344.415C977.616 343.25 976.868 342.363 975.897 341.753C974.927 341.144 973.763 340.832 972.411 340.832C971.407 340.832 970.513 341.005 969.723 341.351C968.933 341.698 968.26 342.211 967.699 342.876C967.138 343.548 966.708 344.366 966.403 345.329C966.098 346.293 965.939 347.402 965.918 348.649C965.918 351.185 966.5 353.209 967.671 354.713C968.842 356.217 970.436 356.965 972.46 356.965V356.979Z" fill="white"/>
<path d="M986.328 360.499L993.258 348.087H998.151L991.221 360.499H986.328ZM1002.45 360.499V340.007H996.571C995.171 340.007 994.083 340.332 993.307 340.984C992.531 341.635 992.136 342.488 992.136 343.541C992.136 344.594 992.496 345.426 993.217 346.064C993.937 346.701 994.949 347.013 996.245 347.013H1003.84V350.887H996.245C994.429 350.887 992.87 350.589 991.553 349.986C990.237 349.383 989.225 348.531 988.511 347.415C987.804 346.306 987.444 344.996 987.444 343.479C987.444 341.961 987.811 340.596 988.539 339.473C989.267 338.35 990.32 337.477 991.692 336.86C993.064 336.243 994.686 335.932 996.564 335.932H1006.95V360.499H1002.45H1002.45Z" fill="white"/>
<path d="M992.169 432.494H869.387C835.484 432.494 808 459.978 808 493.882V493.888C808 527.792 835.484 555.276 869.387 555.276H992.169C1026.07 555.276 1053.56 527.792 1053.56 493.888V493.882C1053.56 459.978 1026.07 432.494 992.169 432.494Z" fill="#FF00CC"/>
<path d="M921.994 506.742C919.617 506.742 917.572 506.202 915.86 505.121C914.149 504.04 912.832 502.543 911.917 500.637C911.002 498.731 910.545 496.541 910.545 494.081C910.545 491.621 911.016 489.382 911.952 487.47C912.887 485.557 914.211 484.06 915.916 482.986C917.621 481.912 919.63 481.371 921.945 481.371C923.809 481.371 925.473 481.718 926.935 482.404C928.397 483.09 929.575 484.053 930.476 485.294C931.377 486.534 931.911 487.976 932.084 489.625H927.427C927.17 488.475 926.588 487.483 925.673 486.652C924.759 485.82 923.546 485.404 922.021 485.404C920.691 485.404 919.526 485.751 918.528 486.451C917.531 487.151 916.754 488.142 916.2 489.424C915.646 490.706 915.368 492.224 915.368 493.977C915.368 495.73 915.639 497.317 916.186 498.613C916.734 499.916 917.503 500.921 918.501 501.635C919.499 502.349 920.677 502.709 922.028 502.709C922.936 502.709 923.761 502.543 924.502 502.203C925.244 501.871 925.868 501.385 926.373 500.755C926.879 500.124 927.233 499.369 927.441 498.482H932.098C931.924 500.069 931.412 501.489 930.545 502.737C929.679 503.984 928.529 504.968 927.08 505.682C925.639 506.396 923.941 506.756 922 506.756L921.994 506.742Z" fill="white"/>
<path d="M946.914 506.745C944.495 506.745 942.409 506.225 940.67 505.185C938.923 504.146 937.579 502.677 936.636 500.785C935.694 498.893 935.223 496.668 935.223 494.125C935.223 491.581 935.694 489.391 936.636 487.472C937.579 485.552 938.903 484.055 940.6 482.974C942.298 481.9 944.294 481.359 946.574 481.359C947.96 481.359 949.305 481.588 950.608 482.045C951.91 482.503 953.075 483.224 954.114 484.208C955.147 485.192 955.965 486.46 956.561 488.019C957.157 489.579 957.455 491.477 957.455 493.709V495.407H937.925V491.824H952.77C952.77 490.563 952.513 489.447 952.001 488.47C951.488 487.493 950.774 486.723 949.845 486.162C948.917 485.601 947.843 485.316 946.609 485.316C945.264 485.316 944.093 485.642 943.095 486.301C942.097 486.959 941.328 487.811 940.795 488.858C940.254 489.911 939.984 491.048 939.984 492.274V495.074C939.984 496.717 940.275 498.117 940.857 499.267C941.439 500.417 942.25 501.297 943.296 501.9C944.343 502.503 945.562 502.801 946.962 502.801C947.87 502.801 948.695 502.67 949.443 502.406C950.192 502.143 950.836 501.755 951.377 501.228C951.917 500.708 952.333 500.064 952.624 499.295L957.15 500.112C956.789 501.443 956.138 502.607 955.209 503.605C954.274 504.603 953.109 505.372 951.703 505.927C950.303 506.474 948.702 506.751 946.914 506.751V506.745Z" fill="white"/>
<path d="M981.794 472.531L983.776 475.553C983.041 476.225 982.203 476.703 981.274 476.987C980.338 477.271 979.264 477.445 978.051 477.514C976.839 477.583 975.446 477.646 973.879 477.701C972.112 477.757 970.65 478.138 969.513 478.845C968.377 479.551 967.497 480.598 966.88 481.977C966.263 483.356 965.868 485.089 965.688 487.168H965.993C966.79 485.643 967.906 484.5 969.326 483.744C970.747 482.989 972.355 482.608 974.136 482.608C976.118 482.608 977.885 483.058 979.431 483.966C980.976 484.874 982.196 486.198 983.083 487.944C983.97 489.69 984.42 491.818 984.42 494.334C984.42 496.849 983.956 499.088 983.02 500.938C982.085 502.788 980.775 504.223 979.084 505.235C977.393 506.24 975.404 506.745 973.11 506.745C970.816 506.745 968.82 506.226 967.123 505.186C965.418 504.147 964.101 502.601 963.172 500.557C962.237 498.512 961.772 495.983 961.772 492.975V490.543C961.772 484.922 962.777 480.695 964.78 477.861C966.783 475.026 969.784 473.571 973.769 473.495C975.058 473.46 976.208 473.453 977.227 473.467C978.239 473.481 979.126 473.432 979.888 473.321C980.65 473.21 981.288 472.947 981.801 472.531H981.794ZM973.124 502.733C974.455 502.733 975.605 502.393 976.568 501.714C977.532 501.035 978.28 500.072 978.8 498.824C979.32 497.577 979.583 496.108 979.583 494.41C979.583 492.712 979.32 491.333 978.8 490.169C978.28 489.004 977.532 488.117 976.561 487.507C975.591 486.897 974.427 486.586 973.076 486.586C972.071 486.586 971.177 486.759 970.387 487.105C969.597 487.452 968.924 487.965 968.363 488.63C967.802 489.302 967.372 490.12 967.067 491.083C966.762 492.047 966.603 493.155 966.582 494.403C966.582 496.939 967.164 498.963 968.335 500.467C969.507 501.971 971.1 502.719 973.124 502.719V502.733Z" fill="white"/>
<path d="M986.999 506.251L993.929 493.839H998.822L991.892 506.251H986.999ZM1003.13 506.251V485.759H997.242C995.842 485.759 994.754 486.084 993.978 486.736C993.202 487.387 992.807 488.24 992.807 489.293C992.807 490.346 993.167 491.178 993.888 491.815C994.608 492.453 995.62 492.765 996.916 492.765H1004.51V496.639H996.916C995.1 496.639 993.541 496.341 992.224 495.738C990.908 495.135 989.896 494.283 989.182 493.167C988.475 492.058 988.115 490.748 988.115 489.231C988.115 487.713 988.482 486.348 989.21 485.225C989.937 484.102 990.991 483.229 992.363 482.612C993.735 481.995 995.357 481.684 997.235 481.684H1007.62V506.251H1003.12H1003.13Z" fill="white"/>
<path d="M858.624 481.676V506.243H853.939V481.676H858.624ZM870.593 491.898V496.042H857.287V491.898H870.593ZM873.933 481.676V506.243H869.262V481.676H873.933Z" fill="white"/>
<path d="M886.311 506.793C884.752 506.793 883.345 506.502 882.091 505.92C880.829 505.338 879.838 504.492 879.111 503.384C878.383 502.275 878.016 500.916 878.016 499.302C878.016 497.916 878.279 496.772 878.813 495.878C879.346 494.984 880.067 494.27 880.975 493.751C881.883 493.231 882.894 492.836 884.01 492.566C885.133 492.302 886.269 492.094 887.434 491.956C888.903 491.783 890.102 491.644 891.017 491.533C891.931 491.422 892.604 491.235 893.019 490.979C893.435 490.722 893.643 490.306 893.643 489.731V489.62C893.643 488.22 893.248 487.139 892.465 486.37C891.682 485.601 890.518 485.22 888.972 485.22C887.427 485.22 886.096 485.573 885.174 486.287C884.253 487.001 883.615 487.784 883.262 488.643L878.764 487.618C879.298 486.128 880.081 484.915 881.106 483.993C882.139 483.071 883.324 482.399 884.669 481.976C886.013 481.554 887.427 481.346 888.91 481.346C889.894 481.346 890.933 481.464 892.035 481.692C893.137 481.921 894.17 482.337 895.14 482.947C896.103 483.556 896.9 484.423 897.517 485.545C898.134 486.668 898.446 488.13 898.446 489.918V506.232H893.775V502.871H893.581C893.269 503.488 892.805 504.097 892.188 504.693C891.571 505.289 890.774 505.788 889.804 506.183C888.834 506.578 887.669 506.772 886.318 506.772L886.311 506.793ZM887.351 502.954C888.674 502.954 889.804 502.691 890.753 502.171C891.696 501.651 892.417 500.965 892.915 500.113C893.414 499.267 893.657 498.359 893.657 497.382V494.215C893.484 494.388 893.158 494.541 892.673 494.686C892.188 494.832 891.633 494.95 891.017 495.054C890.4 495.158 889.797 495.248 889.208 495.324C888.619 495.407 888.134 495.469 887.739 495.525C886.81 495.643 885.965 495.837 885.202 496.114C884.44 496.391 883.83 496.786 883.38 497.306C882.929 497.826 882.7 498.512 882.7 499.364C882.7 500.549 883.137 501.443 884.01 502.046C884.883 502.649 885.999 502.947 887.351 502.947V502.954Z" fill="white"/>
<rect x="104" y="144" width="72" height="72" rx="18" fill="black"/>
<path d="M146.377 163.694V196.5H138.464V171.095H138.272L130.936 175.58V168.724L139.025 163.694H146.377Z" fill="white"/>
<rect x="808" y="144.742" width="72" height="72" rx="18" fill="black"/>
<path d="M832.036 197.242V191.54L844.002 181.064C844.899 180.252 845.663 179.51 846.293 178.837C846.923 178.154 847.403 177.47 847.734 176.787C848.065 176.093 848.231 175.34 848.231 174.528C848.231 173.62 848.033 172.846 847.638 172.206C847.243 171.554 846.698 171.052 846.004 170.7C845.31 170.347 844.515 170.171 843.618 170.171C842.71 170.171 841.914 170.358 841.231 170.732C840.547 171.095 840.013 171.624 839.629 172.318C839.255 173.012 839.068 173.855 839.068 174.849H831.556C831.556 172.617 832.058 170.689 833.061 169.066C834.065 167.443 835.475 166.193 837.29 165.318C839.116 164.431 841.236 163.988 843.65 163.988C846.138 163.988 848.3 164.405 850.137 165.238C851.974 166.07 853.394 167.234 854.398 168.73C855.412 170.214 855.92 171.939 855.92 173.903C855.92 175.153 855.669 176.392 855.167 177.62C854.665 178.848 853.763 180.204 852.46 181.688C851.168 183.173 849.331 184.951 846.949 187.022L843.025 190.643V190.851H856.32V197.242H832.036Z" fill="white"/>
</svg>
