<svg width="344" height="280" viewBox="0 0 344 280" fill="none" xmlns="http://www.w3.org/2000/svg">
<g clip-path="url(#clip0_3110_11764)">
<rect y="0.918457" width="344" height="278.919" fill="#EDEDED"/>
<path d="M288.995 67.7605C288.995 66.0694 291.305 64.7068 294.312 64.7068C297.318 64.7068 300.655 66.2157 302.816 68.645L306.739 63.8255C303.001 60.5149 299.223 58.7848 294.496 58.7848C288.593 58.7848 282.509 61.5068 282.509 67.7637C282.509 75.4548 289.108 76.0076 294.496 76.4466C297.503 76.6678 300.179 76.8889 300.179 78.8759C300.179 81.0092 297.137 82.0044 294.461 82.0044C291.344 82.0044 287.971 80.6808 285.515 77.6987L281.336 82.1507C284.673 86.2353 289.51 88.0369 294.24 88.0369C300.179 88.0369 306.668 85.2044 306.668 78.7263C306.668 71.4027 299.997 70.7036 294.866 70.1897C291.639 69.858 289.002 69.5653 289.002 67.7605H288.995ZM259.192 69.5621C260.255 66.8759 262.565 65.2922 265.973 65.2922C269.381 65.2922 271.435 66.9475 272.316 69.5621H259.192ZM266.268 58.7816C258.165 58.7816 251.64 65.1101 251.64 73.4645C251.64 81.3019 257.394 88.0727 265.902 88.0727C271.034 88.0727 275.177 85.6076 278.109 81.3767L273.638 77.5881C272.061 80.0174 269.203 81.4515 265.795 81.4515C262.386 81.4515 258.719 78.8401 258.427 75.0125H279.58V72.7296C279.58 64.671 274.118 58.7848 266.274 58.7848L266.268 58.7816ZM241.888 88.1647H248.378V60.8964H241.888V88.1647ZM245.112 47.6508C242.471 47.6508 240.236 49.859 240.236 52.62C240.236 55.3809 242.4 57.3679 245.222 57.3679C248.044 57.3679 249.988 55.4167 249.988 52.7305C249.988 50.0443 247.788 47.6541 245.112 47.6541V47.6508ZM151.193 58.7458C148.151 58.7458 145.4 59.6661 143.055 61.2466V46.8239H136.565V73.4288C136.565 81.5231 143.126 88.0369 151.154 88.0369C159.182 88.0369 165.817 81.5621 165.817 73.354C165.817 65.1458 159.328 58.7458 151.19 58.7458H151.193ZM117.502 59.1881C110.281 59.9231 104.378 66.18 104.378 73.6141C104.378 81.4873 111.087 88.0759 118.931 88.0759C126.775 88.0759 133.484 81.4905 133.484 73.6141C133.484 70.2645 132.276 67.1751 130.332 64.7458L115.963 46.8596H107.569L117.502 59.1881ZM67.2787 76.4281L61.3401 60.8996H56.7947L50.8205 76.4281L44.8463 60.8996H37.7705L48.2189 88.2037H52.7643L59.0334 71.9403L65.338 88.2037H69.8835L80.2962 60.8996H73.2561L67.2819 76.4281H67.2787ZM183.413 58.7816C175.31 58.7816 168.75 65.1101 168.75 73.097C168.75 81.084 174.503 88.0727 183.047 88.0727C188.179 88.0727 192.322 85.6076 195.254 81.3767L190.197 77.2564C188.729 79.9068 185.908 81.4515 183.086 81.4515C179.418 81.4515 175.828 78.8401 175.534 75.0125H196.758V73.0255C196.758 64.671 191.26 58.7848 183.413 58.7848V58.7816ZM206.616 67.1175V60.8996H200.127V88.1679H206.616V76.6492C206.616 71.0492 212.591 67.6346 218.494 67.6346V60.8996H217.833C212.847 60.8996 209.218 62.7403 206.616 67.1175ZM227.218 67.1175V60.8996H220.729V88.1679H227.218V76.6492C227.218 71.0492 233.193 67.6346 239.095 67.6346V60.8996H238.435C233.449 60.8996 229.82 62.7403 227.218 67.1175ZM94.5546 88.1647H101.044V46.8596H94.5546V88.1647ZM118.97 81.5231C114.499 81.5231 110.867 77.9166 110.867 73.4288C110.867 68.9409 114.496 65.2954 118.931 65.2954C123.366 65.2954 127.105 68.9019 127.105 73.4288C127.105 77.9556 123.438 81.5231 118.967 81.5231H118.97ZM151.157 81.5231C146.758 81.5231 143.055 77.9914 143.055 73.3897C143.055 68.7881 146.537 65.2954 151.193 65.2954C155.849 65.2954 159.331 68.9377 159.331 73.3897C159.331 77.8418 155.628 81.5231 151.157 81.5231ZM83.3384 88.1647H89.8278V60.8964H83.3384V88.1647ZM86.4908 47.6508C83.8503 47.6508 81.6505 49.859 81.6505 52.6557C81.6505 55.4525 83.9605 57.4037 86.4908 57.4037C89.3126 57.4037 91.4412 55.0492 91.4412 52.5094C91.4412 49.9695 89.2057 47.6508 86.4908 47.6508ZM176.305 69.5621C177.403 66.8759 179.677 65.2922 183.05 65.2922C186.423 65.2922 188.622 66.9475 189.5 69.5621H176.305Z" fill="#FF00CC"/>
<path d="M221.744 149.73C221.744 148.492 223.436 147.494 225.637 147.494C227.839 147.494 230.283 148.599 231.865 150.378L234.739 146.849C232.001 144.424 229.234 143.157 225.773 143.157C221.45 143.157 216.994 145.151 216.994 149.733C216.994 155.365 221.827 155.77 225.773 156.091C227.974 156.253 229.934 156.415 229.934 157.87C229.934 159.432 227.706 160.161 225.747 160.161C223.464 160.161 220.994 159.192 219.196 157.008L216.135 160.268C218.579 163.259 222.121 164.579 225.585 164.579C229.934 164.579 234.686 162.504 234.686 157.761C234.686 152.397 229.801 151.885 226.043 151.509C223.68 151.266 221.749 151.052 221.749 149.73H221.744ZM199.919 151.05C200.697 149.082 202.389 147.923 204.885 147.923C207.381 147.923 208.885 149.135 209.53 151.05H199.919ZM205.101 143.155C199.167 143.155 194.389 147.789 194.389 153.907C194.389 159.647 198.602 164.605 204.833 164.605C208.591 164.605 211.625 162.8 213.772 159.701L210.498 156.927C209.343 158.706 207.25 159.756 204.754 159.756C202.258 159.756 199.573 157.844 199.359 155.041H214.85V153.369C214.85 147.468 210.849 143.157 205.106 143.157L205.101 143.155ZM187.247 164.672H192V144.704H187.247V164.672ZM189.608 135.004C187.674 135.004 186.037 136.621 186.037 138.643C186.037 140.665 187.622 142.12 189.689 142.12C191.755 142.12 193.179 140.691 193.179 138.724C193.179 136.757 191.568 135.006 189.608 135.006V135.004ZM120.831 143.129C118.603 143.129 116.589 143.803 114.871 144.96V134.398H110.119V153.881C110.119 159.809 114.923 164.579 120.802 164.579C126.681 164.579 131.54 159.837 131.54 153.826C131.54 147.815 126.788 143.129 120.828 143.129H120.831ZM96.1586 143.453C90.8703 143.991 86.5475 148.573 86.5475 154.017C86.5475 159.782 91.461 164.607 97.2049 164.607C102.949 164.607 107.862 159.785 107.862 154.017C107.862 151.564 106.977 149.301 105.554 147.523L95.0317 134.424H88.8844L96.1586 143.453ZM59.3796 156.078L55.0307 144.706H51.702L47.3271 156.078L42.9521 144.706H37.7705L45.4219 164.701H48.7506L53.3415 152.791L57.9584 164.701H61.2871L68.9124 144.706H63.7569L59.3819 156.078H59.3796ZM144.426 143.155C138.492 143.155 133.687 147.789 133.687 153.638C133.687 159.487 137.901 164.605 144.157 164.605C147.916 164.605 150.95 162.8 153.097 159.701L149.394 156.684C148.319 158.625 146.252 159.756 144.186 159.756C141.5 159.756 138.871 157.844 138.656 155.041H154.198V153.586C154.198 147.468 150.172 143.157 144.426 143.157V143.155ZM161.418 149.259V144.706H156.665V164.675H161.418V156.239C161.418 152.139 165.793 149.638 170.115 149.638V144.706H169.631C165.98 144.706 163.323 146.054 161.418 149.259ZM176.505 149.259V144.706H171.752V164.675H176.505V156.239C176.505 152.139 180.88 149.638 185.202 149.638V144.706H184.718C181.067 144.706 178.41 146.054 176.505 149.259ZM79.354 164.672H84.1062V134.424H79.354V164.672ZM97.2334 159.809C93.9593 159.809 91.2997 157.168 91.2997 153.881C91.2997 150.595 93.9569 147.925 97.2049 147.925C100.453 147.925 103.191 150.566 103.191 153.881C103.191 157.196 100.505 159.809 97.231 159.809H97.2334ZM120.805 159.809C117.583 159.809 114.871 157.222 114.871 153.853C114.871 150.483 117.421 147.925 120.831 147.925C124.24 147.925 126.79 150.592 126.79 153.853C126.79 157.113 124.079 159.809 120.805 159.809ZM71.1402 164.672H75.8924V144.704H71.1402V164.672ZM73.4487 135.004C71.5151 135.004 69.9041 136.621 69.9041 138.669C69.9041 140.717 71.5958 142.146 73.4487 142.146C75.5152 142.146 77.074 140.422 77.074 138.562C77.074 136.702 75.4369 135.004 73.4487 135.004ZM139.22 151.05C140.024 149.082 141.69 147.923 144.16 147.923C146.63 147.923 148.241 149.135 148.884 151.05H139.22Z" fill="#FF00CC"/>
<path d="M176.91 222.49C176.91 221.553 178.19 220.799 179.855 220.799C181.52 220.799 183.368 221.634 184.565 222.98L186.738 220.311C184.667 218.477 182.575 217.519 179.957 217.519C176.688 217.519 173.318 219.026 173.318 222.492C173.318 226.751 176.973 227.058 179.957 227.301C181.622 227.423 183.104 227.546 183.104 228.646C183.104 229.828 181.419 230.379 179.937 230.379C178.211 230.379 176.343 229.646 174.983 227.994L172.668 230.46C174.517 232.722 177.196 233.72 179.815 233.72C183.104 233.72 186.698 232.151 186.698 228.563C186.698 224.507 183.004 224.12 180.162 223.835C178.374 223.652 176.914 223.49 176.914 222.49H176.91ZM160.404 223.488C160.993 222 162.272 221.123 164.16 221.123C166.047 221.123 167.185 222.04 167.673 223.488H160.404ZM164.323 217.517C159.835 217.517 156.221 221.022 156.221 225.649C156.221 229.99 159.408 233.74 164.12 233.74C166.962 233.74 169.257 232.375 170.881 230.031L168.405 227.933C167.531 229.278 165.949 230.073 164.061 230.073C162.173 230.073 160.142 228.626 159.98 226.506H171.696V225.242C171.696 220.779 168.671 217.519 164.326 217.519L164.323 217.517ZM150.82 233.791H154.414V218.688H150.82V233.791ZM152.606 211.352C151.143 211.352 149.905 212.575 149.905 214.104C149.905 215.634 151.104 216.734 152.667 216.734C154.23 216.734 155.306 215.653 155.306 214.166C155.306 212.678 154.088 211.354 152.606 211.354V211.352ZM100.589 217.497C98.9042 217.497 97.3808 218.007 96.0817 218.882V210.894H92.4876V225.629C92.4876 230.112 96.1212 233.72 100.568 233.72C105.014 233.72 108.689 230.134 108.689 225.588C108.689 221.042 105.095 217.497 100.587 217.497H100.589ZM81.9296 217.742C77.93 218.149 74.6607 221.615 74.6607 225.732C74.6607 230.092 78.3768 233.742 82.7209 233.742C87.065 233.742 90.7812 230.094 90.7812 225.732C90.7812 223.877 90.1119 222.166 89.0353 220.82L81.0773 210.914H76.4281L81.9296 217.742ZM54.1135 227.29L50.8244 218.69H48.307L44.9982 227.29L41.6894 218.69H37.7705L43.5573 233.812H46.0748L49.5469 224.805L53.0387 233.812H55.5562L61.3232 218.69H57.4241L54.1153 227.29H54.1135ZM118.434 217.517C113.946 217.517 110.313 221.022 110.313 225.446C110.313 229.869 113.499 233.74 118.231 233.74C121.073 233.74 123.368 232.375 124.992 230.031L122.191 227.749C121.379 229.217 119.816 230.073 118.253 230.073C116.222 230.073 114.233 228.626 114.07 226.506H125.825V225.406C125.825 220.779 122.78 217.519 118.434 217.519V217.517ZM131.285 222.134V218.69H127.691V233.793H131.285V227.413C131.285 224.311 134.594 222.42 137.863 222.42V218.69H137.497C134.736 218.69 132.726 219.71 131.285 222.134ZM142.695 222.134V218.69H139.101V233.793H142.695V227.413C142.695 224.311 146.004 222.42 149.274 222.42V218.69H148.908C146.146 218.69 144.136 219.71 142.695 222.134ZM69.2202 233.791H72.8143V210.914H69.2202V233.791ZM82.7425 230.112C80.2662 230.112 78.2548 228.115 78.2548 225.629C78.2548 223.144 80.2644 221.125 82.7209 221.125C85.1774 221.125 87.2481 223.122 87.2481 225.629C87.2481 228.136 85.2169 230.112 82.7407 230.112H82.7425ZM100.569 230.112C98.1326 230.112 96.0817 228.156 96.0817 225.608C96.0817 223.059 98.0106 221.125 100.589 221.125C103.168 221.125 105.097 223.142 105.097 225.608C105.097 228.073 103.046 230.112 100.569 230.112ZM63.0081 233.791H66.6022V218.688H63.0081V233.791ZM64.754 211.352C63.2916 211.352 62.0733 212.575 62.0733 214.124C62.0733 215.673 63.3526 216.754 64.754 216.754C66.3169 216.754 67.4958 215.45 67.4958 214.043C67.4958 212.637 66.2577 211.352 64.754 211.352ZM114.497 223.488C115.105 222 116.365 221.123 118.233 221.123C120.101 221.123 121.319 222.04 121.806 223.488H114.497Z" fill="#FF00CC"/>
</g>
<defs>
<clipPath id="clip0_3110_11764">
<rect width="344" height="278.919" fill="white" transform="translate(0 0.918457)"/>
</clipPath>
</defs>
</svg>
