<svg width="1362" height="769" viewBox="0 0 1362 769" fill="none" xmlns="http://www.w3.org/2000/svg">
<g clip-path="url(#clip0_3112_11426)">
<rect y="0.383789" width="1362" height="816" fill="#EDEDED"/>
<g clip-path="url(#clip1_3112_11426)">
<rect width="1242.32" height="768" transform="translate(156.195 0.383789)" fill="white"/>
<rect width="1856.97" height="768" transform="translate(118.103 0.383789)" fill="#DFDBD8"/>
<path fill-rule="evenodd" clip-rule="evenodd" d="M280.016 276.526H466.985V596.253H280.016V276.526Z" fill="#F5F5F5" stroke="#555555" stroke-width="1.29949"/>
<path d="M297.717 294.231H449.284V578.557H297.717V294.231Z" fill="#B5DADA" stroke="#555555" stroke-width="1.10632"/>
<rect x="276.728" y="595.795" width="193.607" height="4.4253" fill="#555555"/>
<g opacity="0.3">
<path d="M276.728 600.22H470.335L460.641 613.496H266.771L276.728 600.22Z" fill="#A0A0A0"/>
<path d="M266.771 613.496L276.728 600.22V595.795L266.771 609.071V613.496Z" fill="#A0A0A0"/>
</g>
<path fill-rule="evenodd" clip-rule="evenodd" d="M1087 276.526H1273.97V596.253H1087V276.526Z" fill="#F5F5F5" stroke="#555555" stroke-width="1.29949"/>
<path d="M1104.7 294.231H1256.27V578.557H1104.7V294.231Z" fill="#B5DADA" stroke="#555555" stroke-width="1.10632"/>
<rect x="1083.71" y="595.795" width="193.607" height="4.4253" fill="#555555"/>
<g opacity="0.3">
<path d="M1083.71 600.22H1277.32L1267.63 613.496H1073.76L1083.71 600.22Z" fill="#A0A0A0"/>
<path d="M1073.76 613.496L1083.71 600.22V595.795L1073.76 609.071V613.496Z" fill="#A0A0A0"/>
</g>
<rect x="118.103" y="674.82" width="1856.97" height="93.5634" fill="#888585"/>
<rect x="118.103" y="0.383789" width="1856.97" height="16.8934" fill="#888585"/>
<rect width="265.096" height="491.208" transform="translate(646.996 277.176)" fill="#F5F5F5"/>
<path d="M750.898 375.417H881.393V747.375H750.898V375.417Z" fill="#B5DADA"/>
<path d="M711.889 375.417H678.552V748.675H711.889V375.417Z" fill="#B5DADA"/>
<path d="M678.151 294.861V336.154H880.528V294.861H678.151Z" fill="#B5DADA"/>
<path d="M731.43 767.831H901.047V355.769M731.43 767.831H658.083V355.769M731.43 767.831V355.769M731.43 355.769H658.083M731.43 355.769H901.047M658.083 355.769V277.729M901.047 355.769V277.729M647.646 277.729H911.442V767.831H647.646V277.729ZM750.898 375.417H881.393V747.375H750.898V375.417ZM711.889 375.417H678.552V748.675H711.889V375.417ZM678.151 336.154V294.861H880.528V336.154H678.151Z" stroke="#555555" stroke-width="1.29949"/>
<path d="M822.855 414.465H811.018C797.942 414.465 787.341 425.065 787.341 438.142V449.979C787.341 463.055 797.942 473.656 811.018 473.656H822.855C835.932 473.656 846.532 463.055 846.532 449.979V438.142C846.532 425.065 835.932 414.465 822.855 414.465Z" stroke="#555555" stroke-width="1.51677" stroke-miterlimit="10"/>
<path d="M802.34 428.922V440.023H800.329V430.879H800.264L797.667 432.537V430.695L800.426 428.922H802.34Z" fill="#FF00CC"/>
<path d="M810.255 440.234C809.362 440.234 808.597 440.007 807.959 439.554C807.321 439.1 806.831 438.444 806.49 437.586C806.148 436.728 805.978 435.694 805.978 434.483C805.982 433.273 806.155 432.242 806.496 431.391C806.837 430.54 807.327 429.89 807.964 429.442C808.602 428.994 809.366 428.77 810.255 428.77C811.143 428.77 811.907 428.994 812.548 429.442C813.187 429.89 813.678 430.541 814.019 431.393C814.361 432.246 814.531 433.276 814.531 434.483C814.531 435.69 814.36 436.733 814.019 437.592C813.677 438.45 813.188 439.105 812.55 439.557C811.912 440.009 811.148 440.234 810.255 440.234V440.234ZM810.255 438.537C810.949 438.537 811.496 438.195 811.9 437.51C812.302 436.825 812.504 435.816 812.504 434.483C812.504 433.601 812.412 432.86 812.228 432.26C812.043 431.661 811.783 431.208 811.447 430.902C811.111 430.597 810.714 430.444 810.255 430.444C809.564 430.444 809.018 430.787 808.618 431.472C808.216 432.157 808.014 433.16 808.011 434.483C808.007 435.368 808.096 436.113 808.279 436.716C808.461 437.32 808.721 437.774 809.057 438.079C809.393 438.385 809.792 438.537 810.255 438.537Z" fill="#FF00CC"/>
<path d="M817.018 433.189C816.689 433.189 816.407 433.073 816.172 432.84C815.938 432.607 815.822 432.326 815.826 431.997C815.822 431.672 815.938 431.393 816.172 431.16C816.407 430.927 816.689 430.81 817.018 430.81C817.346 430.81 817.613 430.927 817.85 431.16C818.087 431.393 818.206 431.672 818.211 431.997C818.207 432.215 818.15 432.413 818.04 432.593C817.93 432.774 817.785 432.918 817.606 433.027C817.428 433.136 817.231 433.189 817.018 433.189ZM817.018 438.691C816.689 438.691 816.407 438.575 816.172 438.341C815.938 438.108 815.822 437.827 815.826 437.499C815.822 437.174 815.938 436.895 816.172 436.664C816.407 436.433 816.689 436.317 817.018 436.317C817.346 436.317 817.613 436.433 817.85 436.664C818.087 436.895 818.206 437.173 818.211 437.499C818.207 437.72 818.15 437.92 818.04 438.101C817.93 438.281 817.785 438.425 817.606 438.531C817.428 438.638 817.231 438.691 817.018 438.691Z" fill="#FF00CC"/>
<path d="M823.781 440.234C822.889 440.234 822.123 440.007 821.485 439.554C820.847 439.1 820.357 438.444 820.016 437.586C819.675 436.728 819.504 435.694 819.504 434.483C819.508 433.273 819.681 432.242 820.022 431.391C820.364 430.54 820.853 429.89 821.491 429.442C822.129 428.994 822.892 428.77 823.781 428.77C824.67 428.77 825.434 428.994 826.074 429.442C826.713 429.89 827.204 430.541 827.545 431.393C827.887 432.246 828.057 433.276 828.057 434.483C828.057 435.69 827.887 436.733 827.545 437.592C827.204 438.45 826.714 439.105 826.077 439.557C825.439 440.009 824.674 440.234 823.781 440.234V440.234ZM823.781 438.537C824.475 438.537 825.023 438.195 825.426 437.51C825.829 436.825 826.031 435.816 826.031 434.483C826.031 433.601 825.938 432.86 825.754 432.26C825.57 431.661 825.309 431.208 824.974 430.902C824.637 430.597 824.24 430.444 823.781 430.444C823.09 430.444 822.545 430.787 822.144 431.472C821.743 432.157 821.54 433.16 821.537 434.483C821.533 435.368 821.622 436.113 821.805 436.716C821.987 437.32 822.247 437.774 822.583 438.079C822.919 438.385 823.319 438.537 823.781 438.537Z" fill="#FF00CC"/>
<path d="M833.27 440.234C832.377 440.234 831.612 440.007 830.974 439.554C830.336 439.1 829.846 438.444 829.505 437.586C829.163 436.728 828.993 435.694 828.993 434.483C828.997 433.273 829.17 432.242 829.511 431.391C829.853 430.54 830.342 429.89 830.979 429.442C831.617 428.994 832.381 428.77 833.27 428.77C834.158 428.77 834.923 428.994 835.563 429.442C836.202 429.89 836.693 430.541 837.034 431.393C837.376 432.246 837.546 433.276 837.546 434.483C837.546 435.69 837.375 436.733 837.034 437.592C836.692 438.45 836.203 439.105 835.566 439.557C834.927 440.009 834.163 440.234 833.27 440.234V440.234ZM833.27 438.537C833.964 438.537 834.511 438.195 834.915 437.51C835.318 436.825 835.519 435.816 835.519 434.483C835.519 433.601 835.427 432.86 835.243 432.26C835.058 431.661 834.798 431.208 834.462 430.902C834.126 430.597 833.729 430.444 833.27 430.444C832.579 430.444 832.034 430.787 831.633 431.472C831.232 432.157 831.029 433.16 831.026 434.483C831.022 435.368 831.111 436.113 831.294 436.716C831.476 437.32 831.736 437.774 832.072 438.079C832.408 438.385 832.807 438.537 833.27 438.537Z" fill="#FF00CC"/>
<path d="M797.142 453.718V452.266L800.996 448.488C801.365 448.116 801.672 447.785 801.918 447.496C802.164 447.207 802.348 446.927 802.471 446.656C802.593 446.385 802.655 446.095 802.655 445.789C802.655 445.438 802.575 445.137 802.416 444.886C802.257 444.635 802.038 444.44 801.76 444.303C801.482 444.166 801.166 444.097 800.812 444.097C800.458 444.097 800.127 444.172 799.853 444.322C799.578 444.472 799.366 444.684 799.216 444.959C799.066 445.233 798.991 445.56 798.991 445.94H797.078C797.078 445.235 797.239 444.622 797.56 444.102C797.882 443.582 798.325 443.179 798.891 442.893C799.456 442.608 800.106 442.465 800.839 442.465C801.573 442.465 802.238 442.605 802.802 442.883C803.366 443.161 803.803 443.543 804.116 444.026C804.429 444.511 804.585 445.064 804.585 445.685C804.585 446.1 804.505 446.509 804.346 446.91C804.187 447.311 803.908 447.755 803.509 448.243C803.109 448.732 802.55 449.322 801.831 450.016L799.918 451.962V452.037H804.753V453.718H797.143L797.142 453.718Z" fill="#FF00CC"/>
<path d="M806.818 453.718V452.266L810.672 448.488C811.04 448.116 811.348 447.785 811.594 447.496C811.84 447.207 812.024 446.927 812.146 446.656C812.269 446.385 812.331 446.095 812.331 445.789C812.331 445.438 812.251 445.137 812.092 444.886C811.933 444.635 811.714 444.44 811.436 444.303C811.158 444.166 810.842 444.097 810.488 444.097C810.134 444.097 809.803 444.172 809.528 444.322C809.254 444.472 809.042 444.684 808.892 444.959C808.742 445.233 808.667 445.56 808.667 445.94H806.753C806.753 445.235 806.915 444.622 807.236 444.102C807.557 443.582 808.001 443.179 808.567 442.893C809.132 442.608 809.782 442.465 810.515 442.465C811.248 442.465 811.914 442.605 812.478 442.883C813.041 443.161 813.479 443.543 813.792 444.026C814.105 444.511 814.261 445.064 814.261 445.685C814.261 446.1 814.181 446.509 814.022 446.91C813.863 447.311 813.584 447.755 813.184 448.243C812.785 448.732 812.225 449.322 811.507 450.016L809.593 451.962V452.037H814.429V453.718H806.819L806.818 453.718Z" fill="#FF00CC"/>
<path d="M817.018 446.881C816.689 446.881 816.407 446.764 816.172 446.531C815.938 446.298 815.822 446.017 815.826 445.688C815.822 445.363 815.938 445.083 816.172 444.85C816.407 444.617 816.689 444.501 817.018 444.501C817.346 444.501 817.613 444.617 817.85 444.85C818.087 445.083 818.206 445.362 818.211 445.688C818.207 445.905 818.15 446.103 818.04 446.284C817.93 446.465 817.785 446.609 817.606 446.717C817.428 446.826 817.231 446.88 817.018 446.88V446.881ZM817.018 452.382C816.689 452.382 816.407 452.266 816.172 452.033C815.938 451.799 815.822 451.519 815.826 451.189C815.822 450.864 815.938 450.586 816.172 450.354C816.407 450.123 816.689 450.008 817.018 450.008C817.346 450.008 817.613 450.123 817.85 450.354C818.087 450.586 818.206 450.864 818.211 451.189C818.207 451.41 818.15 451.61 818.04 451.791C817.93 451.972 817.785 452.115 817.606 452.222C817.428 452.328 817.231 452.381 817.018 452.381V452.382Z" fill="#FF00CC"/>
<path d="M823.861 453.929C822.969 453.929 822.204 453.702 821.566 453.249C820.928 452.796 820.438 452.14 820.097 451.282C819.755 450.424 819.585 449.389 819.585 448.178C819.588 446.968 819.761 445.937 820.103 445.086C820.444 444.235 820.934 443.585 821.571 443.138C822.209 442.689 822.973 442.465 823.861 442.465C824.75 442.465 825.514 442.689 826.155 443.138C826.794 443.586 827.285 444.237 827.626 445.089C827.968 445.942 828.138 446.972 828.138 448.178C828.138 449.385 827.967 450.429 827.626 451.287C827.284 452.145 826.795 452.801 826.157 453.252C825.519 453.704 824.754 453.929 823.861 453.929ZM823.861 452.233C824.556 452.233 825.103 451.89 825.507 451.205C825.909 450.52 826.111 449.511 826.111 448.178C826.111 447.297 826.019 446.556 825.834 445.956C825.65 445.356 825.39 444.903 825.054 444.598C824.718 444.293 824.321 444.14 823.861 444.14C823.171 444.14 822.625 444.482 822.225 445.167C821.823 445.852 821.621 446.856 821.617 448.178C821.614 449.064 821.703 449.808 821.886 450.412C822.068 451.016 822.328 451.469 822.664 451.775C823 452.08 823.399 452.233 823.861 452.233Z" fill="#FF00CC"/>
<path d="M833.356 453.929C832.463 453.929 831.698 453.702 831.06 453.249C830.422 452.796 829.932 452.14 829.591 451.282C829.249 450.424 829.079 449.389 829.079 448.178C829.083 446.968 829.256 445.937 829.597 445.086C829.938 444.235 830.428 443.585 831.065 443.138C831.703 442.689 832.467 442.465 833.356 442.465C834.244 442.465 835.009 442.689 835.649 443.138C836.288 443.586 836.779 444.237 837.12 445.089C837.462 445.942 837.632 446.972 837.632 448.178C837.632 449.385 837.461 450.429 837.12 451.287C836.778 452.145 836.289 452.801 835.651 453.252C835.013 453.704 834.249 453.929 833.356 453.929ZM833.356 452.233C834.05 452.233 834.597 451.89 835.001 451.205C835.404 450.52 835.605 449.511 835.605 448.178C835.605 447.297 835.513 446.556 835.329 445.956C835.144 445.356 834.884 444.903 834.548 444.598C834.212 444.293 833.815 444.14 833.356 444.14C832.665 444.14 832.119 444.482 831.719 445.167C831.318 445.852 831.115 446.856 831.112 448.178C831.108 449.064 831.197 449.808 831.38 450.412C831.562 451.016 831.822 451.469 832.158 451.775C832.494 452.08 832.893 452.233 833.356 452.233Z" fill="#FF00CC"/>
<path d="M805.024 438.338H797.667V440.019H805.024V438.338Z" fill="#FF00CC"/>
<path d="M803.183 463.604C802.887 463.604 802.632 463.54 802.418 463.413C802.205 463.285 802.04 463.106 801.924 462.874C801.809 462.642 801.751 462.371 801.751 462.058C801.751 461.746 801.81 461.478 801.924 461.244C802.04 461.009 802.202 460.825 802.41 460.693C802.618 460.561 802.862 460.496 803.141 460.496C803.311 460.496 803.475 460.524 803.635 460.58C803.794 460.636 803.937 460.724 804.063 460.844C804.19 460.963 804.29 461.12 804.363 461.311C804.437 461.502 804.473 461.734 804.473 462.007V462.214H802.082V461.776H803.9C803.9 461.622 803.868 461.485 803.806 461.365C803.743 461.246 803.655 461.152 803.542 461.083C803.43 461.013 803.297 460.979 803.146 460.979C802.981 460.979 802.838 461.019 802.716 461.099C802.594 461.18 802.5 461.284 802.434 461.412C802.367 461.541 802.335 461.681 802.335 461.831V462.173C802.335 462.374 802.371 462.545 802.441 462.686C802.513 462.827 802.612 462.935 802.74 463.009C802.868 463.082 803.017 463.119 803.188 463.119C803.299 463.119 803.4 463.103 803.491 463.071C803.582 463.039 803.661 462.991 803.728 462.927C803.794 462.864 803.846 462.784 803.881 462.691L804.435 462.791C804.39 462.954 804.311 463.097 804.196 463.219C804.082 463.341 803.939 463.435 803.768 463.502C803.596 463.57 803.401 463.603 803.182 463.603L803.183 463.604Z" fill="#FF00CC"/>
<path d="M804.92 463.549L806.086 462.01L804.934 460.541H805.616L806.546 461.791H806.755V460.541H807.341V461.791H807.545L808.475 460.541H809.156L808.01 462.01L809.17 463.549H808.474L807.536 462.296H807.34V463.549H806.755V462.296H806.559L805.614 463.549H804.919H804.92Z" fill="#FF00CC"/>
<path d="M810.995 463.604C810.698 463.604 810.443 463.54 810.23 463.412C810.016 463.285 809.852 463.106 809.736 462.874C809.62 462.642 809.563 462.37 809.563 462.058C809.563 461.746 809.621 461.478 809.736 461.243C809.852 461.009 810.013 460.825 810.221 460.693C810.429 460.561 810.673 460.495 810.953 460.495C811.122 460.495 811.287 460.523 811.446 460.579C811.605 460.635 811.748 460.724 811.875 460.843C812.002 460.963 812.101 461.119 812.175 461.311C812.248 461.502 812.285 461.734 812.285 462.007V462.214H809.894V461.776H811.711C811.711 461.622 811.68 461.485 811.617 461.365C811.555 461.245 811.467 461.152 811.354 461.082C811.241 461.013 811.109 460.979 810.957 460.979C810.793 460.979 810.65 461.019 810.527 461.099C810.406 461.18 810.312 461.284 810.245 461.412C810.179 461.54 810.146 461.68 810.146 461.83V462.173C810.146 462.374 810.182 462.545 810.253 462.686C810.324 462.827 810.424 462.935 810.551 463.008C810.679 463.082 810.829 463.119 810.999 463.119C811.11 463.119 811.212 463.103 811.303 463.071C811.394 463.038 811.473 462.991 811.539 462.927C811.606 462.863 811.657 462.784 811.692 462.69L812.246 462.791C812.202 462.954 812.122 463.097 812.008 463.218C811.894 463.34 811.751 463.435 811.579 463.502C811.408 463.569 811.212 463.603 810.993 463.603L810.995 463.604Z" fill="#FF00CC"/>
<path d="M812.698 464.416V463.042H812.943C813.006 462.984 813.059 462.916 813.103 462.836C813.147 462.756 813.184 462.661 813.214 462.552C813.245 462.442 813.271 462.314 813.291 462.168C813.312 462.02 813.331 461.852 813.346 461.663L813.44 460.541H815.484V463.042H815.947V464.416H815.375V463.549H813.278V464.416H812.698ZM813.57 463.042H814.913V461.042H813.965L813.902 461.663C813.872 461.978 813.834 462.252 813.789 462.484C813.743 462.716 813.67 462.902 813.57 463.041V463.042Z" fill="#FF00CC"/>
<path d="M817.148 460.541V463.549H816.575V460.541H817.148ZM818.613 461.793V462.3H816.984V461.793H818.613ZM819.022 460.541V463.549H818.45V460.541H819.022Z" fill="#FF00CC"/>
<path d="M821.152 463.604C820.856 463.604 820.601 463.54 820.387 463.412C820.174 463.285 820.009 463.106 819.894 462.874C819.778 462.642 819.721 462.37 819.721 462.058C819.721 461.746 819.779 461.478 819.894 461.243C820.009 461.009 820.171 460.825 820.379 460.693C820.587 460.561 820.831 460.495 821.11 460.495C821.28 460.495 821.444 460.523 821.604 460.579C821.763 460.635 821.906 460.724 822.033 460.843C822.159 460.963 822.259 461.119 822.332 461.311C822.406 461.502 822.442 461.734 822.442 462.007V462.214H820.051V461.776H821.869C821.869 461.622 821.837 461.485 821.775 461.365C821.713 461.245 821.624 461.152 821.512 461.082C821.399 461.013 821.266 460.979 821.115 460.979C820.951 460.979 820.808 461.019 820.685 461.099C820.563 461.18 820.469 461.284 820.403 461.412C820.336 461.54 820.304 461.68 820.304 461.83V462.173C820.304 462.374 820.34 462.545 820.411 462.686C820.482 462.827 820.581 462.935 820.709 463.008C820.837 463.082 820.986 463.119 821.157 463.119C821.268 463.119 821.369 463.103 821.46 463.071C821.551 463.038 821.631 462.991 821.697 462.927C821.764 462.863 821.815 462.784 821.85 462.69L822.404 462.791C822.36 462.954 822.28 463.097 822.166 463.218C822.052 463.34 821.909 463.435 821.737 463.502C821.566 463.569 821.37 463.603 821.151 463.603L821.152 463.604Z" fill="#FF00CC"/>
<path d="M823.151 463.549V460.541H824.398C824.738 460.541 825.007 460.613 825.205 460.758C825.403 460.902 825.503 461.097 825.503 461.344C825.503 461.52 825.447 461.66 825.335 461.763C825.223 461.866 825.073 461.935 824.889 461.97C825.023 461.985 825.146 462.026 825.258 462.09C825.37 462.155 825.461 462.242 825.529 462.35C825.598 462.458 825.632 462.587 825.632 462.738C825.632 462.897 825.591 463.037 825.509 463.16C825.427 463.282 825.307 463.377 825.152 463.446C824.996 463.514 824.808 463.549 824.589 463.549H823.152L823.151 463.549ZM823.701 461.795H824.405C824.515 461.795 824.608 461.78 824.688 461.748C824.767 461.716 824.827 461.672 824.87 461.614C824.912 461.555 824.933 461.487 824.933 461.407C824.933 461.291 824.886 461.2 824.79 461.134C824.695 461.069 824.564 461.036 824.399 461.036H823.702V461.794L823.701 461.795ZM823.701 463.06H824.589C824.734 463.06 824.847 463.026 824.929 462.956C825.011 462.887 825.052 462.793 825.052 462.674C825.052 462.535 825.011 462.425 824.929 462.344C824.847 462.263 824.733 462.224 824.589 462.224H823.701V463.06Z" fill="#FF00CC"/>
<path d="M826.901 460.541V463.549H826.327V460.541H826.901ZM828.365 461.793V462.3H826.736V461.793H828.365ZM828.774 460.541V463.549H828.203V460.541H828.774Z" fill="#FF00CC"/>
<path d="M830.878 463.603C830.595 463.603 830.35 463.539 830.14 463.409C829.929 463.28 829.766 463.099 829.65 462.867C829.534 462.634 829.476 462.363 829.476 462.052C829.476 461.742 829.534 461.467 829.65 461.234C829.766 461 829.929 460.818 830.14 460.689C830.35 460.56 830.595 460.495 830.878 460.495C831.16 460.495 831.406 460.56 831.616 460.689C831.826 460.819 831.989 461 832.106 461.234C832.222 461.467 832.28 461.74 832.28 462.052C832.28 462.365 832.222 462.634 832.106 462.867C831.989 463.099 831.826 463.28 831.616 463.409C831.406 463.539 831.16 463.603 830.878 463.603ZM830.88 463.111C831.063 463.111 831.214 463.063 831.334 462.966C831.454 462.87 831.544 462.741 831.602 462.58C831.66 462.42 831.689 462.243 831.689 462.05C831.689 461.856 831.659 461.681 831.602 461.52C831.544 461.359 831.455 461.229 831.334 461.131C831.215 461.033 831.063 460.984 830.88 460.984C830.697 460.984 830.544 461.033 830.422 461.131C830.302 461.229 830.212 461.359 830.154 461.52C830.096 461.681 830.067 461.858 830.067 462.05C830.067 462.241 830.096 462.419 830.154 462.58C830.212 462.741 830.302 462.87 830.422 462.966C830.543 463.063 830.696 463.111 830.88 463.111Z" fill="#FF00CC"/>
<rect x="767.849" y="564.013" width="26.9589" height="13.0446" rx="6.52231" fill="#FF00CC"/>
<path d="M789.808 571.963V569.781H789.286C789.144 569.781 789.036 569.814 788.963 569.879C788.889 569.945 788.853 570.022 788.854 570.112C788.853 570.202 788.888 570.279 788.959 570.342C789.032 570.404 789.138 570.435 789.278 570.435H790.066V570.957H789.278C789.04 570.957 788.834 570.921 788.66 570.849C788.485 570.776 788.351 570.675 788.257 570.546C788.162 570.415 788.116 570.263 788.117 570.09C788.116 569.908 788.162 569.749 788.257 569.613C788.351 569.475 788.486 569.368 788.661 569.291C788.838 569.214 789.046 569.175 789.286 569.175H790.529V571.963H789.808ZM788.037 571.963L788.812 570.511H789.551L788.778 571.963H788.037Z" fill="white"/>
<path d="M787.354 568.152L787.59 568.656C787.511 568.722 787.424 568.77 787.328 568.802C787.233 568.832 787.118 568.852 786.985 568.861C786.853 568.871 786.692 568.878 786.502 568.881C786.287 568.884 786.112 568.918 785.976 568.985C785.841 569.051 785.738 569.156 785.668 569.299C785.597 569.44 785.551 569.626 785.53 569.854H785.557C785.64 569.684 785.758 569.552 785.909 569.459C786.061 569.365 786.25 569.319 786.473 569.319C786.711 569.319 786.918 569.371 787.096 569.475C787.275 569.579 787.414 569.728 787.513 569.923C787.613 570.118 787.662 570.351 787.662 570.624C787.662 570.907 787.606 571.153 787.495 571.362C787.385 571.57 787.228 571.732 787.025 571.847C786.822 571.961 786.58 572.017 786.299 572.017C786.017 572.017 785.774 571.958 785.57 571.84C785.366 571.721 785.209 571.546 785.098 571.315C784.988 571.084 784.933 570.8 784.933 570.462V570.233C784.933 569.562 785.063 569.064 785.325 568.74C785.586 568.416 785.97 568.251 786.477 568.246C786.615 568.244 786.74 568.243 786.851 568.244C786.962 568.246 787.06 568.24 787.143 568.228C787.228 568.216 787.298 568.191 787.354 568.152ZM786.303 571.419C786.421 571.419 786.523 571.388 786.608 571.326C786.694 571.264 786.76 571.176 786.806 571.061C786.853 570.946 786.876 570.809 786.876 570.649C786.876 570.491 786.853 570.356 786.806 570.246C786.76 570.135 786.694 570.05 786.608 569.992C786.522 569.934 786.419 569.905 786.299 569.905C786.21 569.905 786.129 569.921 786.058 569.954C785.986 569.987 785.925 570.035 785.875 570.099C785.825 570.162 785.786 570.24 785.758 570.333C785.732 570.425 785.718 570.531 785.718 570.649C785.718 570.887 785.77 571.076 785.873 571.214C785.977 571.35 786.12 571.419 786.303 571.419Z" fill="white"/>
<path d="M783.252 572.018C782.965 572.018 782.718 571.959 782.512 571.843C782.306 571.726 782.147 571.56 782.036 571.346C781.925 571.131 781.869 570.876 781.869 570.582C781.869 570.295 781.925 570.044 782.036 569.827C782.147 569.61 782.304 569.442 782.506 569.321C782.709 569.2 782.948 569.139 783.221 569.139C783.405 569.139 783.576 569.169 783.735 569.228C783.895 569.286 784.034 569.374 784.152 569.491C784.272 569.609 784.365 569.756 784.432 569.934C784.498 570.111 784.532 570.318 784.532 570.555V570.767H782.178V570.288H783.804C783.804 570.177 783.78 570.078 783.731 569.992C783.683 569.906 783.616 569.839 783.53 569.791C783.445 569.741 783.346 569.716 783.234 569.716C783.117 569.716 783.012 569.744 782.922 569.798C782.832 569.851 782.762 569.923 782.711 570.014C782.66 570.103 782.634 570.203 782.633 570.313V570.769C782.633 570.907 782.659 571.026 782.709 571.126C782.761 571.227 782.835 571.304 782.929 571.359C783.023 571.413 783.135 571.44 783.265 571.44C783.351 571.44 783.429 571.428 783.501 571.404C783.572 571.38 783.633 571.344 783.684 571.295C783.735 571.247 783.774 571.188 783.8 571.117L784.515 571.165C784.479 571.336 784.404 571.486 784.292 571.615C784.181 571.742 784.037 571.841 783.86 571.912C783.685 571.982 783.482 572.018 783.252 572.018Z" fill="white"/>
<path d="M780.241 572.018C779.956 572.018 779.71 571.957 779.504 571.836C779.3 571.714 779.143 571.544 779.032 571.328C778.924 571.111 778.869 570.862 778.869 570.58C778.869 570.295 778.924 570.044 779.034 569.829C779.146 569.612 779.303 569.443 779.508 569.322C779.712 569.2 779.956 569.139 780.238 569.139C780.481 569.139 780.694 569.183 780.876 569.272C781.059 569.36 781.204 569.484 781.31 569.644C781.417 569.803 781.475 569.991 781.486 570.206H780.757C780.736 570.067 780.682 569.955 780.593 569.871C780.506 569.785 780.392 569.742 780.25 569.742C780.13 569.742 780.026 569.774 779.936 569.84C779.848 569.904 779.779 569.998 779.729 570.121C779.68 570.244 779.655 570.394 779.655 570.569C779.655 570.747 779.679 570.898 779.728 571.023C779.777 571.148 779.847 571.243 779.936 571.308C780.026 571.373 780.13 571.406 780.25 571.406C780.339 571.406 780.418 571.388 780.488 571.351C780.559 571.315 780.618 571.263 780.664 571.194C780.711 571.123 780.742 571.039 780.757 570.941H781.486C781.474 571.154 781.416 571.342 781.312 571.504C781.209 571.665 781.067 571.791 780.885 571.881C780.704 571.972 780.489 572.018 780.241 572.018Z" fill="white"/>
<path d="M775.63 572.016C775.452 572.016 775.293 571.985 775.154 571.923C775.015 571.86 774.905 571.768 774.824 571.645C774.744 571.522 774.704 571.368 774.704 571.184C774.704 571.03 774.733 570.9 774.789 570.794C774.846 570.689 774.924 570.604 775.022 570.54C775.12 570.476 775.231 570.428 775.356 570.395C775.481 570.362 775.613 570.339 775.751 570.326C775.913 570.309 776.044 570.293 776.143 570.279C776.242 570.263 776.314 570.24 776.359 570.21C776.404 570.18 776.426 570.135 776.426 570.076V570.065C776.426 569.95 776.39 569.861 776.318 569.798C776.246 569.735 776.144 569.704 776.013 569.704C775.873 569.704 775.763 569.734 775.68 569.796C775.598 569.857 775.544 569.933 775.517 570.025L774.802 569.967C774.838 569.797 774.91 569.651 775.016 569.528C775.123 569.403 775.26 569.307 775.428 569.241C775.598 569.173 775.794 569.139 776.016 569.139C776.171 569.139 776.319 569.157 776.461 569.194C776.604 569.23 776.73 569.286 776.84 569.362C776.951 569.439 777.039 569.537 777.103 569.656C777.167 569.775 777.2 569.917 777.2 570.083V571.963H776.466V571.577H776.445C776.4 571.664 776.34 571.74 776.265 571.807C776.19 571.872 776.1 571.924 775.994 571.961C775.889 571.998 775.768 572.016 775.63 572.016ZM775.851 571.482C775.965 571.482 776.065 571.46 776.152 571.415C776.239 571.369 776.308 571.307 776.357 571.23C776.407 571.152 776.432 571.065 776.432 570.967V570.671C776.408 570.687 776.374 570.701 776.332 570.714C776.291 570.727 776.244 570.738 776.192 570.749C776.14 570.759 776.088 570.768 776.036 570.776C775.984 570.783 775.937 570.79 775.895 570.796C775.804 570.809 775.725 570.831 775.657 570.86C775.589 570.889 775.537 570.928 775.499 570.978C775.461 571.026 775.443 571.086 775.443 571.159C775.443 571.264 775.481 571.345 775.557 571.4C775.635 571.455 775.733 571.482 775.851 571.482Z" fill="white"/>
<path d="M773.75 570.261V570.869H772.295V570.261H773.75ZM772.549 569.175V571.963H771.81V569.175H772.549ZM774.235 569.175V571.963H773.502V569.175H774.235Z" fill="white"/>
<circle cx="741.209" cy="591.003" r="5.84772" fill="#F5F5F5" stroke="#555555" stroke-width="1.29949"/>
<path d="M889.351 433.115C889.351 431.321 890.806 429.866 892.6 429.866H903.646V440.262H892.6C890.806 440.262 889.351 438.807 889.351 437.013V433.115Z" fill="#F5F5F5" stroke="#555555" stroke-width="1.29949"/>
<path d="M894.549 440.262H905.595C907.389 440.262 908.844 441.717 908.844 443.511V447.409C908.844 449.203 907.389 450.658 905.595 450.658H894.549V440.262Z" fill="#F5F5F5" stroke="#555555" stroke-width="1.29949"/>
<path d="M894.549 419.47H905.595C907.389 419.47 908.844 420.925 908.844 422.719V426.617C908.844 428.411 907.389 429.866 905.595 429.866H894.549V419.47Z" fill="#F5F5F5" stroke="#555555" stroke-width="1.29949"/>
<path d="M889.351 498.089C889.351 496.295 890.806 494.841 892.6 494.841H903.646V505.237H892.6C890.806 505.237 889.351 503.782 889.351 501.988V498.089Z" fill="#F5F5F5" stroke="#555555" stroke-width="1.29949"/>
<path d="M894.549 505.237H905.595C907.389 505.237 908.844 506.691 908.844 508.485V512.384C908.844 514.178 907.389 515.633 905.595 515.633H894.549V505.237Z" fill="#F5F5F5" stroke="#555555" stroke-width="1.29949"/>
<path d="M894.549 484.445H905.595C907.389 484.445 908.844 485.899 908.844 487.693V491.592C908.844 493.386 907.389 494.841 905.595 494.841H894.549V484.445Z" fill="#F5F5F5" stroke="#555555" stroke-width="1.29949"/>
<path d="M889.351 704.709C889.351 702.915 890.806 701.46 892.6 701.46H903.646V711.856H892.6C890.806 711.856 889.351 710.401 889.351 708.607V704.709Z" fill="#F5F5F5" stroke="#555555" stroke-width="1.29949"/>
<path d="M894.549 711.856H905.595C907.389 711.856 908.844 713.311 908.844 715.105V719.003C908.844 720.797 907.389 722.252 905.595 722.252H894.549V711.856Z" fill="#F5F5F5" stroke="#555555" stroke-width="1.29949"/>
<path d="M894.549 691.064H905.595C907.389 691.064 908.844 692.519 908.844 694.313V698.212C908.844 700.006 907.389 701.46 905.595 701.46H894.549V691.064Z" fill="#F5F5F5" stroke="#555555" stroke-width="1.29949"/>
<rect x="647.646" y="272.628" width="263.797" height="5.19797" fill="#F5F5F5" stroke="#555555" stroke-width="1.29949"/>
<path d="M762.001 677.404V681.968H743.808V677.404H762.001ZM743.808 443.526V438.962H762.001V443.526H743.808Z" fill="#F5F5F5" stroke="#555555" stroke-width="1.29949"/>
<path d="M758.102 385.683H764.6V735.247H758.102V681.967V676.12V444.16V438.313V385.683Z" fill="#F5F5F5" stroke="#555555" stroke-width="1.29949"/>
<g filter="url(#filter0_d_3112_11426)">
<rect x="518.509" y="403.876" width="78.5933" height="78.5933" rx="31.7861" fill="#FD20FD"/>
</g>
<path fill-rule="evenodd" clip-rule="evenodd" d="M574.039 444.76C570.879 444.76 568.219 442.222 568.219 438.916C568.219 435.61 570.721 433.099 574.066 433.099C577.41 433.099 579.913 435.717 579.913 438.916C579.913 442.115 577.252 444.76 574.039 444.76ZM552.244 440.292L547.978 429.133H544.712L540.418 440.292L536.125 429.133H531.041L538.547 448.753H541.813L546.317 437.066L550.848 448.753H554.114L561.594 429.133H556.537L552.243 440.292H552.244ZM574.066 428.393C571.879 428.393 569.904 429.053 568.219 430.191V419.825H563.557V438.943C563.557 444.76 568.272 449.44 574.04 449.44C579.808 449.44 584.576 444.787 584.576 438.89C584.576 432.993 579.914 428.392 574.066 428.392L574.066 428.393Z" fill="white"/>
<rect x="543.985" y="457.805" width="30.4297" height="4.34711" fill="white"/>
<rect x="468.31" y="69.1963" width="605.798" height="104.448" fill="#D9D9D9"/>
<path d="M1091.31 71.6572H485.515L454.795 124.866H1060.59L1091.31 71.6572Z" fill="#B2B2B2"/>
<path d="M485.515 174.88H1091.31L1060.59 228.088H454.795L485.515 174.88Z" fill="#B2B2B2"/>
<path d="M485.515 71.6572V174.876L454.795 228.085V124.866L485.515 71.6572Z" fill="#B2B2B2"/>
<rect x="485.515" y="71.6572" width="605.798" height="103.219" fill="#FD20FD"/>
<path d="M989.706 123.426C989.706 122.483 990.135 121.6 990.896 120.839C992.459 119.276 995.418 118.227 998.923 118.227C1004.13 118.227 1009.92 120.796 1013.67 124.932C1013.67 124.932 1014 124.534 1014.51 123.913C1015.82 122.336 1018.32 119.323 1019.62 117.746C1020.14 117.125 1020.47 116.726 1020.47 116.726C1013.99 111.09 1007.44 108.144 999.243 108.144C992.827 108.144 986.287 109.966 982.301 113.95C979.929 116.321 978.461 119.458 978.461 123.432C978.461 136.527 989.902 137.468 999.243 138.216C1004.45 138.592 1009.09 138.969 1009.09 142.352C1009.09 143.394 1008.66 144.277 1007.93 145.006C1006.12 146.817 1002.49 147.679 999.181 147.679C993.778 147.679 987.931 145.425 983.673 140.348C983.673 140.348 983.53 140.497 983.285 140.755C982.901 141.156 982.268 141.818 981.536 142.583C980.599 143.564 979.502 144.712 978.565 145.692C977.834 146.457 977.2 147.12 976.817 147.521C976.571 147.778 976.428 147.928 976.428 147.928C982.213 154.883 990.599 157.95 998.799 157.95C1005.3 157.95 1012.17 156.03 1016.36 151.841C1018.81 149.392 1020.34 146.167 1020.34 142.097C1020.34 129.628 1008.78 128.437 999.883 127.563C994.289 126.998 989.717 126.499 989.717 123.426H989.706ZM938.039 126.494C938.647 124.983 939.492 123.677 940.563 122.605C942.734 120.433 945.837 119.224 949.794 119.224C955.703 119.224 959.264 122.042 960.791 126.494H938.039ZM950.305 108.138C943.172 108.138 936.744 110.917 932.145 115.515C927.687 119.971 924.946 126.137 924.946 133.138C924.946 146.483 934.921 158.011 949.671 158.011C956.747 158.011 962.739 155.356 967.453 150.645C968.666 149.432 969.794 148.084 970.834 146.61L963.083 140.159C962.588 140.908 962.02 141.601 961.388 142.234C958.524 145.099 954.325 146.738 949.485 146.738C943.577 146.738 937.219 142.291 936.713 135.774H973.384V131.887C973.384 114.213 959.148 108.138 950.305 108.138ZM908.04 158.168H919.29V111.739H908.04V158.168ZM907.687 91.6724C906.131 93.2274 905.176 95.3651 905.176 97.6471C905.176 102.348 908.928 105.731 913.82 105.731C916.319 105.731 918.42 104.864 919.879 103.407C921.275 102.011 922.082 100.073 922.082 97.8354C922.082 93.2617 918.268 89.1919 913.629 89.1919C911.296 89.1919 909.205 90.1546 907.687 91.6724ZM750.809 108.077C745.535 108.077 740.767 109.644 736.7 112.335V87.7783H725.45V133.077C725.45 146.859 736.824 157.95 750.742 157.95C757.811 157.95 764.258 155.106 768.89 150.475C773.377 145.989 776.163 139.827 776.163 132.95C776.163 118.974 763.997 108.077 750.809 108.077ZM692.402 108.83C686.436 109.427 680.989 112.158 676.921 116.225C672.453 120.691 669.649 126.767 669.649 133.393C669.649 146.798 681.281 158.017 694.879 158.017C701.805 158.017 708.221 155.108 712.849 150.481C717.308 146.024 720.109 139.973 720.109 133.393C720.109 127.69 718.014 122.43 714.644 118.293L689.734 87.8392H675.182L692.402 108.83ZM605.334 138.184L595.038 111.745H587.158L576.801 138.184L566.444 111.745H554.178L572.291 158.234H580.171L591.039 130.543L601.969 158.234H609.849L627.901 111.745H615.696L605.339 138.184H605.334ZM806.666 108.138C799.584 108.138 793.012 111.035 788.326 115.72C783.973 120.071 781.246 125.964 781.246 132.513C781.246 146.112 791.221 158.011 806.032 158.011C813.108 158.011 819.1 155.356 823.814 150.645C825.027 149.432 826.155 148.084 827.195 146.61L818.427 139.595C817.807 140.694 817.048 141.682 816.183 142.548C813.499 145.233 809.799 146.738 806.099 146.738C799.741 146.738 793.518 142.291 793.007 135.774H829.801V132.391C829.801 118.334 820.326 108.138 806.666 108.138ZM850.527 117.623C849.204 118.946 847.995 120.51 846.892 122.332V111.745H835.642V158.173H846.892V138.561C846.892 134.918 848.404 131.818 850.843 129.379C854.788 125.432 861.159 123.212 867.483 123.212V111.745H866.337C859.806 111.745 854.619 113.534 850.527 117.623ZM886.243 117.623C884.92 118.946 883.711 120.51 882.608 122.332V111.745H871.358V158.173H882.608V138.561C882.608 134.918 884.12 131.818 886.559 129.379C890.504 125.432 896.875 123.212 903.199 123.212V111.745H902.053C895.522 111.745 890.335 113.534 886.243 117.623ZM652.62 158.168H663.87V87.8392H652.62V158.168ZM694.947 146.859C687.196 146.859 680.899 140.719 680.899 133.077C680.899 129.285 682.449 125.845 684.951 123.343C687.489 120.804 691.007 119.229 694.879 119.229C702.568 119.229 709.05 125.37 709.05 133.077C709.05 136.854 707.523 140.239 705.054 142.709C702.485 145.279 698.894 146.859 694.941 146.859H694.947ZM760.86 142.658C758.277 145.243 754.684 146.859 750.747 146.859C743.12 146.859 736.7 140.846 736.7 133.011C736.7 129.146 738.17 125.74 740.628 123.281C743.152 120.756 746.72 119.229 750.809 119.229C758.88 119.229 764.918 125.431 764.918 133.011C764.918 136.741 763.363 140.154 760.86 142.658ZM633.175 158.168H644.425V111.739H633.175V158.168ZM638.64 89.1864C636.361 89.1864 634.272 90.1181 632.748 91.6414C631.211 93.178 630.249 95.3167 630.249 97.708C630.249 102.47 634.254 105.792 638.64 105.792C641.076 105.792 643.214 104.798 644.747 103.266C646.292 101.721 647.222 99.6299 647.222 97.4588C647.222 93.1344 643.347 89.1864 638.64 89.1864ZM794.344 126.494C794.974 124.979 795.828 123.671 796.901 122.598C799.067 120.43 802.126 119.224 806.037 119.224C811.884 119.224 815.698 122.042 817.22 126.494H794.344Z" fill="black" fill-opacity="0.11"/>
<path d="M1023.07 114.118L1022.23 115.138L1019.62 117.744L1020.47 116.725L1023.07 114.118Z" fill="black" fill-opacity="0.11"/>
<path d="M1001.85 105.536C1010.04 105.536 1016.59 108.482 1023.07 114.119L1020.47 116.725C1013.99 111.089 1007.44 108.143 999.242 108.143L1001.85 105.536Z" fill="black" fill-opacity="0.11"/>
<path d="M1022.23 115.134L1017.12 121.301L1014.51 123.908L1019.62 117.74L1022.23 115.134Z" fill="black" fill-opacity="0.11"/>
<path d="M1017.12 121.302L1016.27 122.321L1013.67 124.928L1014.51 123.908L1017.12 121.302Z" fill="black" fill-opacity="0.11"/>
<path d="M1016.27 122.32C1012.53 118.183 1006.74 115.614 1001.53 115.614L998.922 118.221C1004.13 118.221 1009.92 120.79 1013.67 124.926L1016.27 122.32Z" fill="black" fill-opacity="0.11"/>
<path d="M984.907 111.343C988.894 107.358 995.433 105.536 1001.85 105.536L999.243 108.143C992.827 108.143 986.287 109.965 982.301 113.949L984.907 111.343Z" fill="black" fill-opacity="0.11"/>
<path d="M1001.53 115.614C998.024 115.614 995.065 116.663 993.503 118.226L990.898 120.832C992.46 119.27 995.419 118.221 998.923 118.221L1001.53 115.614Z" fill="black" fill-opacity="0.11"/>
<path d="M1002.49 124.954C1011.39 125.829 1022.95 127.019 1022.95 139.489L1020.34 142.096C1020.34 129.626 1008.78 128.436 999.883 127.561L1002.49 124.954Z" fill="black" fill-opacity="0.11"/>
<path d="M1022.95 139.485C1022.95 143.555 1021.42 146.78 1018.97 149.229L1016.37 151.832C1018.81 149.383 1020.34 146.16 1020.34 142.092L1022.95 139.485Z" fill="black" fill-opacity="0.11"/>
<path d="M992.322 120.817C992.322 123.89 996.894 124.389 1002.49 124.954L999.882 127.56C994.288 126.996 989.716 126.497 989.716 123.424L992.322 120.817Z" fill="black" fill-opacity="0.11"/>
<path d="M993.503 118.231C992.742 118.993 992.313 119.876 992.313 120.819L989.706 123.426C989.706 122.482 990.136 121.599 990.897 120.838L993.503 118.231Z" fill="black" fill-opacity="0.11"/>
<path d="M992.313 120.817H992.324L989.717 123.424H989.706L992.313 120.817Z" fill="black" fill-opacity="0.11"/>
<path d="M1010.54 142.397C1011.27 141.668 1011.7 140.785 1011.7 139.743L1009.09 142.35C1009.09 143.392 1008.66 144.274 1007.93 145.003L1010.54 142.397Z" fill="black" fill-opacity="0.11"/>
<path d="M1011.7 139.743C1011.7 136.359 1007.06 135.983 1001.85 135.606L999.242 138.213C1004.45 138.59 1009.09 138.966 1009.09 142.349L1011.7 139.743Z" fill="black" fill-opacity="0.11"/>
<path d="M981.068 120.826C981.068 116.854 982.534 113.719 984.903 111.348L982.3 113.951C979.929 116.322 978.461 119.459 978.461 123.433L981.068 120.826Z" fill="black" fill-opacity="0.11"/>
<path d="M1001.85 135.605C992.509 134.858 981.068 133.917 981.068 120.821L978.461 123.428C978.461 136.523 989.902 137.465 999.242 138.212L1001.85 135.605Z" fill="black" fill-opacity="0.11"/>
<path d="M1001.79 145.069C1005.1 145.069 1008.73 144.207 1010.54 142.397L1007.93 145.002C1006.12 146.814 1002.49 147.675 999.181 147.675L1001.79 145.069Z" fill="black" fill-opacity="0.11"/>
<path d="M1018.97 149.231C1014.78 153.42 1007.9 155.34 1001.41 155.34L998.799 157.947C1005.3 157.947 1012.17 156.027 1016.36 151.838L1018.97 149.231Z" fill="black" fill-opacity="0.11"/>
<path d="M986.281 137.739C990.538 142.817 996.385 145.07 1001.79 145.07L999.181 147.677C993.778 147.677 987.931 145.423 983.674 140.346L986.281 137.739Z" fill="black" fill-opacity="0.11"/>
<path d="M985.892 138.146L986.281 137.739L983.674 140.346L983.285 140.753L985.892 138.146Z" fill="black" fill-opacity="0.11"/>
<path d="M952.911 105.532C961.755 105.532 975.99 111.607 975.99 129.281L973.383 131.888C973.383 114.214 959.148 108.139 950.305 108.139L952.911 105.532Z" fill="black" fill-opacity="0.11"/>
<path d="M984.143 139.978L985.891 138.149L983.284 140.756L981.536 142.585L984.143 139.978Z" fill="black" fill-opacity="0.11"/>
<path d="M975.989 129.278V133.165L973.383 135.772V131.885L975.989 129.278Z" fill="black" fill-opacity="0.11"/>
<path d="M981.172 143.086L984.144 139.978L981.537 142.584L978.565 145.693L981.172 143.086Z" fill="black" fill-opacity="0.11"/>
<path d="M1001.41 155.34C993.205 155.34 984.82 152.272 979.034 145.317L976.428 147.924C982.213 154.879 990.598 157.946 998.799 157.946L1001.41 155.34Z" fill="black" fill-opacity="0.11"/>
<path d="M963.397 123.884C961.869 119.433 958.308 116.614 952.4 116.614L949.793 119.221C955.702 119.221 959.263 122.039 960.79 126.491L963.397 123.884Z" fill="black" fill-opacity="0.11"/>
<path d="M979.423 144.912L981.171 143.083L978.565 145.69L976.816 147.519L979.423 144.912Z" fill="black" fill-opacity="0.11"/>
<path d="M934.751 112.909C939.351 108.311 945.778 105.532 952.912 105.532L950.305 108.139C943.172 108.139 936.744 110.917 932.145 115.515L934.751 112.909Z" fill="black" fill-opacity="0.11"/>
<path d="M979.034 145.318L979.423 144.911L976.817 147.518L976.428 147.925L979.034 145.318Z" fill="black" fill-opacity="0.11"/>
<path d="M916.235 86.5869C920.874 86.5869 924.688 90.6567 924.688 95.2304L922.081 97.837C922.081 93.2634 918.267 89.1936 913.628 89.1936L916.235 86.5869Z" fill="black" fill-opacity="0.11"/>
<path d="M952.4 116.614C948.444 116.614 945.341 117.824 943.169 119.996L940.566 122.599C942.737 120.429 945.839 119.221 949.794 119.221L952.4 116.614Z" fill="black" fill-opacity="0.11"/>
<path d="M965.69 137.552L973.441 144.002L970.834 146.609L963.083 140.158L965.69 137.552Z" fill="black" fill-opacity="0.11"/>
<path d="M940.645 123.884H963.398L960.791 126.49H938.038L940.645 123.884Z" fill="black" fill-opacity="0.11"/>
<path d="M963.993 139.626C964.626 138.993 965.194 138.3 965.689 137.552L963.082 140.158C962.587 140.907 962.019 141.6 961.387 142.233L963.993 139.626Z" fill="black" fill-opacity="0.11"/>
<path d="M973.441 144.001C972.401 145.475 971.273 146.823 970.06 148.035L967.463 150.632C968.672 149.422 969.797 148.078 970.834 146.608L973.441 144.001Z" fill="black" fill-opacity="0.11"/>
<path d="M924.689 95.2236C924.689 97.461 923.882 99.399 922.486 100.795L919.881 103.4C921.276 102.004 922.082 100.067 922.082 97.8303L924.689 95.2236Z" fill="black" fill-opacity="0.11"/>
<path d="M910.294 89.0674C911.813 87.5496 913.903 86.5869 916.236 86.5869L913.63 89.1936C911.297 89.1936 909.206 90.1563 907.688 91.674L910.294 89.0674Z" fill="black" fill-opacity="0.11"/>
<path d="M975.989 133.165H939.319L936.712 135.772H973.383L975.989 133.165Z" fill="black" fill-opacity="0.11"/>
<path d="M943.169 119.997C942.098 121.069 941.253 122.375 940.645 123.886L938.038 126.492C938.647 124.981 939.491 123.675 940.562 122.604L943.169 119.997Z" fill="black" fill-opacity="0.11"/>
<path d="M922.486 100.798C921.028 102.256 918.926 103.122 916.427 103.122L913.82 105.729C916.319 105.729 918.421 104.862 919.879 103.405L922.486 100.798Z" fill="black" fill-opacity="0.11"/>
<path d="M907.782 95.0343C907.782 92.7536 908.736 90.6171 910.291 89.0623L907.687 91.6662C906.131 93.2213 905.176 95.359 905.176 97.641L907.782 95.0343Z" fill="black" fill-opacity="0.11"/>
<path d="M952.092 144.126C956.929 144.126 961.126 142.489 963.99 139.627L961.388 142.229C958.524 145.094 954.325 146.732 949.485 146.732L952.092 144.126Z" fill="black" fill-opacity="0.11"/>
<path d="M916.426 103.124C911.534 103.124 907.782 99.7411 907.782 95.04L905.176 97.6467C905.176 102.348 908.928 105.731 913.82 105.731L916.426 103.124Z" fill="black" fill-opacity="0.11"/>
<path d="M970.06 148.036C965.346 152.747 959.354 155.403 952.278 155.403L949.671 158.009C956.747 158.009 962.74 155.354 967.453 150.643L970.06 148.036Z" fill="black" fill-opacity="0.11"/>
<path d="M927.553 130.527C927.553 123.529 930.291 117.366 934.745 112.91L932.145 115.51C927.687 119.967 924.946 126.132 924.946 133.134L927.553 130.527Z" fill="black" fill-opacity="0.11"/>
<path d="M910.647 109.13H921.897L919.29 111.737H908.04L910.647 109.13Z" fill="black" fill-opacity="0.11"/>
<path d="M939.319 133.165C939.824 139.682 946.182 144.129 952.091 144.129L949.484 146.735C943.575 146.735 937.217 142.289 936.712 135.772L939.319 133.165Z" fill="black" fill-opacity="0.11"/>
<path d="M952.277 155.401C937.528 155.401 927.553 143.873 927.553 130.528L924.946 133.135C924.946 146.479 934.921 158.008 949.671 158.008L952.277 155.401Z" fill="black" fill-opacity="0.11"/>
<path d="M904.659 109.134H905.805L903.199 111.74H902.053L904.659 109.134Z" fill="black" fill-opacity="0.11"/>
<path d="M905.805 109.134V120.601L903.198 123.208V111.74L905.805 109.134Z" fill="black" fill-opacity="0.11"/>
<path d="M921.897 109.13V155.559L919.29 158.165V111.737L921.897 109.13Z" fill="black" fill-opacity="0.11"/>
<path d="M888.85 115.012C892.941 110.923 898.128 109.134 904.659 109.134L902.053 111.74C895.522 111.74 890.334 113.53 886.243 117.619L888.85 115.012Z" fill="black" fill-opacity="0.11"/>
<path d="M910.647 155.559V109.13L908.04 111.737V158.165L910.647 155.559Z" fill="black" fill-opacity="0.11"/>
<path d="M905.805 120.603C899.481 120.603 893.11 122.823 889.165 126.769L886.563 129.372C890.508 125.428 896.877 123.209 903.198 123.209L905.805 120.603Z" fill="black" fill-opacity="0.11"/>
<path d="M885.215 109.134V119.721L882.608 122.327V111.74L885.215 109.134Z" fill="black" fill-opacity="0.11"/>
<path d="M873.965 109.134H885.215L882.608 111.74H871.358L873.965 109.134Z" fill="black" fill-opacity="0.11"/>
<path d="M885.215 119.725C886.316 117.907 887.522 116.345 888.843 115.024L886.244 117.623C884.92 118.946 883.711 120.51 882.608 122.332L885.215 119.725Z" fill="black" fill-opacity="0.11"/>
<path d="M921.897 155.556H910.647L908.04 158.162H919.29L921.897 155.556Z" fill="black" fill-opacity="0.11"/>
<path d="M868.944 109.134H870.089L867.483 111.74H866.337L868.944 109.134Z" fill="black" fill-opacity="0.11"/>
<path d="M889.166 126.771C886.727 129.21 885.215 132.31 885.215 135.953L882.608 138.559C882.608 134.917 884.12 131.817 886.559 129.377L889.166 126.771Z" fill="black" fill-opacity="0.11"/>
<path d="M870.088 109.134V120.601L867.481 123.208V111.74L870.088 109.134Z" fill="black" fill-opacity="0.11"/>
<path d="M853.134 115.012C857.225 110.923 862.413 109.134 868.944 109.134L866.337 111.74C859.806 111.74 854.619 113.53 850.527 117.619L853.134 115.012Z" fill="black" fill-opacity="0.11"/>
<path d="M873.965 155.563V109.134L871.358 111.74V158.169L873.965 155.563Z" fill="black" fill-opacity="0.11"/>
<path d="M885.215 135.954V155.567L882.608 158.173V138.561L885.215 135.954Z" fill="black" fill-opacity="0.11"/>
<path d="M870.09 120.603C863.766 120.603 857.395 122.823 853.45 126.769L850.848 129.372C854.793 125.428 861.162 123.209 867.484 123.209L870.09 120.603Z" fill="black" fill-opacity="0.11"/>
<path d="M849.499 109.134V119.721L846.893 122.327V111.74L849.499 109.134Z" fill="black" fill-opacity="0.11"/>
<path d="M838.249 109.134H849.499L846.893 111.74H835.643L838.249 109.134Z" fill="black" fill-opacity="0.11"/>
<path d="M849.499 119.725C850.6 117.907 851.806 116.345 853.127 115.024L850.528 117.623C849.204 118.946 847.995 120.51 846.893 122.332L849.499 119.725Z" fill="black" fill-opacity="0.11"/>
<path d="M885.215 155.563H873.965L871.358 158.17H882.608L885.215 155.563Z" fill="black" fill-opacity="0.11"/>
<path d="M853.45 126.771C851.011 129.21 849.499 132.31 849.499 135.953L846.893 138.559C846.893 134.917 848.404 131.817 850.843 129.377L853.45 126.771Z" fill="black" fill-opacity="0.11"/>
<path d="M838.249 155.563V109.134L835.643 111.74V158.169L838.249 155.563Z" fill="black" fill-opacity="0.11"/>
<path d="M849.499 135.954V155.567L846.893 158.173V138.561L849.499 135.954Z" fill="black" fill-opacity="0.11"/>
<path d="M809.273 105.532C822.932 105.532 832.407 115.728 832.407 129.785L829.801 132.391C829.801 118.335 820.326 108.139 806.666 108.139L809.273 105.532Z" fill="black" fill-opacity="0.11"/>
<path d="M832.407 129.782V133.165L829.801 135.772V132.389L832.407 129.782Z" fill="black" fill-opacity="0.11"/>
<path d="M819.826 123.884C818.304 119.433 814.491 116.614 808.644 116.614L806.037 119.221C811.884 119.221 815.698 122.039 817.22 126.491L819.826 123.884Z" fill="black" fill-opacity="0.11"/>
<path d="M790.932 113.114C795.619 108.429 802.191 105.532 809.273 105.532L806.666 108.139C799.584 108.139 793.012 111.035 788.325 115.72L790.932 113.114Z" fill="black" fill-opacity="0.11"/>
<path d="M849.499 155.563H838.249L835.643 158.17H846.893L849.499 155.563Z" fill="black" fill-opacity="0.11"/>
<path d="M808.644 116.614C804.733 116.614 801.674 117.821 799.507 119.988L796.904 122.592C799.07 120.426 802.128 119.221 806.037 119.221L808.644 116.614Z" fill="black" fill-opacity="0.11"/>
<path d="M821.034 136.985L829.802 144.001L827.195 146.608L818.428 139.592L821.034 136.985Z" fill="black" fill-opacity="0.11"/>
<path d="M796.95 123.884H819.827L817.22 126.49H794.344L796.95 123.884Z" fill="black" fill-opacity="0.11"/>
<path d="M829.802 144.001C828.762 145.475 827.634 146.823 826.421 148.035L823.825 150.632C825.033 149.422 826.158 148.078 827.195 146.608L829.802 144.001Z" fill="black" fill-opacity="0.11"/>
<path d="M818.789 139.938C819.654 139.073 820.414 138.085 821.034 136.985L818.427 139.592C817.807 140.692 817.048 141.68 816.183 142.545L818.789 139.938Z" fill="black" fill-opacity="0.11"/>
<path d="M832.408 133.165H795.614L793.007 135.772H829.801L832.408 133.165Z" fill="black" fill-opacity="0.11"/>
<path d="M799.507 119.989C798.435 121.062 797.581 122.371 796.95 123.885L794.344 126.492C794.974 124.978 795.828 123.669 796.901 122.596L799.507 119.989Z" fill="black" fill-opacity="0.11"/>
<path d="M808.705 144.124C812.403 144.124 816.101 142.622 818.785 139.939L816.183 142.541C813.498 145.227 809.798 146.731 806.099 146.731L808.705 144.124Z" fill="black" fill-opacity="0.11"/>
<path d="M783.852 129.903C783.852 123.359 786.576 117.468 790.924 113.118L788.325 115.717C783.972 120.068 781.245 125.962 781.245 132.51L783.852 129.903Z" fill="black" fill-opacity="0.11"/>
<path d="M826.42 148.036C821.707 152.747 815.714 155.403 808.638 155.403L806.031 158.009C813.107 158.009 819.1 155.354 823.814 150.643L826.42 148.036Z" fill="black" fill-opacity="0.11"/>
<path d="M795.614 133.165C796.125 139.682 802.348 144.129 808.706 144.129L806.099 146.735C799.741 146.735 793.518 142.289 793.007 135.772L795.614 133.165Z" fill="black" fill-opacity="0.11"/>
<path d="M808.638 155.406C793.827 155.406 783.852 143.506 783.852 129.907L781.245 132.514C781.245 146.113 791.22 158.012 806.031 158.012L808.638 155.406Z" fill="black" fill-opacity="0.11"/>
<path d="M728.057 85.1689H739.307L736.7 87.7756H725.45L728.057 85.1689Z" fill="black" fill-opacity="0.11"/>
<path d="M753.415 105.47C766.603 105.47 778.769 116.366 778.769 130.342L776.162 132.949C776.162 118.973 763.996 108.076 750.809 108.076L753.415 105.47Z" fill="black" fill-opacity="0.11"/>
<path d="M739.307 85.1689V109.726L736.7 112.333V87.7756L739.307 85.1689Z" fill="black" fill-opacity="0.11"/>
<path d="M739.307 109.728C743.373 107.037 748.142 105.47 753.416 105.47L750.809 108.076C745.535 108.076 740.767 109.643 736.7 112.334L739.307 109.728Z" fill="black" fill-opacity="0.11"/>
<path d="M767.524 130.4C767.524 122.82 761.486 116.618 753.415 116.618L750.809 119.225C758.88 119.225 764.918 125.426 764.918 133.007L767.524 130.4Z" fill="black" fill-opacity="0.11"/>
<path d="M778.77 130.341C778.77 137.218 775.985 143.38 771.497 147.866L768.897 150.466C773.381 145.981 776.163 139.821 776.163 132.947L778.77 130.341Z" fill="black" fill-opacity="0.11"/>
<path d="M763.467 140.047C765.97 137.542 767.525 134.13 767.525 130.399L764.918 133.006C764.918 136.737 763.363 140.149 760.86 142.653L763.467 140.047Z" fill="black" fill-opacity="0.11"/>
<path d="M753.416 116.618C749.327 116.618 745.759 118.145 743.235 120.67L740.631 123.274C743.156 120.75 746.722 119.225 750.81 119.225L753.416 116.618Z" fill="black" fill-opacity="0.11"/>
<path d="M728.057 130.468V85.1689L725.45 87.7756V133.075L728.057 130.468Z" fill="black" fill-opacity="0.11"/>
<path d="M753.354 144.249C757.288 144.249 760.879 142.634 763.462 140.052L760.86 142.655C758.277 145.239 754.684 146.856 750.747 146.856L753.354 144.249Z" fill="black" fill-opacity="0.11"/>
<path d="M743.234 120.669C740.776 123.128 739.307 126.533 739.307 130.399L736.7 133.005C736.7 129.14 738.17 125.734 740.627 123.276L743.234 120.669Z" fill="black" fill-opacity="0.11"/>
<path d="M771.496 147.864C766.864 152.495 760.417 155.339 753.348 155.339L750.741 157.946C757.811 157.946 764.257 155.102 768.889 150.471L771.496 147.864Z" fill="black" fill-opacity="0.11"/>
<path d="M739.307 130.399C739.307 138.234 745.727 144.248 753.354 144.248L750.747 146.854C743.12 146.854 736.7 140.841 736.7 133.006L739.307 130.399Z" fill="black" fill-opacity="0.11"/>
<path d="M692.342 85.2314L717.252 115.686L714.645 118.292L689.735 87.8381L692.342 85.2314Z" fill="black" fill-opacity="0.11"/>
<path d="M677.787 85.2314H692.34L689.733 87.8381H675.181L677.787 85.2314Z" fill="black" fill-opacity="0.11"/>
<path d="M753.348 155.339C739.43 155.339 728.057 144.248 728.057 130.466L725.45 133.072C725.45 146.854 736.824 157.945 750.742 157.945L753.348 155.339Z" fill="black" fill-opacity="0.11"/>
<path d="M717.251 115.681C720.621 119.817 722.716 125.077 722.716 130.78L720.109 133.387C720.109 127.684 718.014 122.424 714.645 118.287L717.251 115.681Z" fill="black" fill-opacity="0.11"/>
<path d="M695.008 106.223L677.787 85.2314L675.181 87.8381L692.401 108.829L695.008 106.223Z" fill="black" fill-opacity="0.11"/>
<path d="M711.656 130.466C711.656 122.759 705.175 116.618 697.486 116.618L694.879 119.225C702.568 119.225 709.05 125.366 709.05 133.073L711.656 130.466Z" fill="black" fill-opacity="0.11"/>
<path d="M722.715 130.782C722.715 137.363 719.914 143.414 715.455 147.871L712.857 150.469C717.311 146.012 720.108 139.965 720.108 133.389L722.715 130.782Z" fill="black" fill-opacity="0.11"/>
<path d="M679.528 113.618C683.595 109.552 689.042 106.82 695.008 106.224L692.402 108.83C686.436 109.427 680.989 112.158 676.921 116.224L679.528 113.618Z" fill="black" fill-opacity="0.11"/>
<path d="M655.226 85.2314H666.476L663.869 87.8381H652.619L655.226 85.2314Z" fill="black" fill-opacity="0.11"/>
<path d="M707.66 140.097C710.129 137.627 711.656 134.243 711.656 130.466L709.049 133.072C709.049 136.849 707.523 140.234 705.054 142.704L707.66 140.097Z" fill="black" fill-opacity="0.11"/>
<path d="M697.485 116.618C693.613 116.618 690.095 118.193 687.557 120.732L684.954 123.334C687.492 120.798 691.008 119.225 694.879 119.225L697.485 116.618Z" fill="black" fill-opacity="0.11"/>
<path d="M697.547 144.249C701.498 144.249 705.087 142.671 707.657 140.102L705.054 142.705C702.484 145.276 698.893 146.856 694.94 146.856L697.547 144.249Z" fill="black" fill-opacity="0.11"/>
<path d="M687.556 120.731C685.055 123.234 683.505 126.673 683.505 130.466L680.898 133.073C680.898 129.28 682.448 125.841 684.95 123.338L687.556 120.731Z" fill="black" fill-opacity="0.11"/>
<path d="M715.456 147.872C710.827 152.499 704.411 155.407 697.486 155.407L694.879 158.014C701.805 158.014 708.221 155.105 712.849 150.479L715.456 147.872Z" fill="black" fill-opacity="0.11"/>
<path d="M641.247 86.5791C645.954 86.5791 649.829 90.5271 649.829 94.8516L647.223 97.4582C647.223 93.1337 643.347 89.1858 638.641 89.1858L641.247 86.5791Z" fill="black" fill-opacity="0.11"/>
<path d="M672.255 130.783C672.255 124.161 675.056 118.087 679.52 113.621L676.92 116.221C672.452 120.687 669.648 126.764 669.648 133.389L672.255 130.783Z" fill="black" fill-opacity="0.11"/>
<path d="M697.553 144.251H697.547L694.94 146.858H694.946L697.553 144.251Z" fill="black" fill-opacity="0.11"/>
<path d="M683.505 130.466C683.505 138.107 689.801 144.248 697.552 144.248L694.946 146.854C687.195 146.854 680.898 140.714 680.898 133.072L683.505 130.466Z" fill="black" fill-opacity="0.11"/>
<path d="M649.828 94.8525C649.828 97.0236 648.898 99.1151 647.353 100.66L644.749 103.264C646.292 101.719 647.221 99.6291 647.221 97.4592L649.828 94.8525Z" fill="black" fill-opacity="0.11"/>
<path d="M635.354 89.0341C636.878 87.5108 638.967 86.5791 641.246 86.5791L638.639 89.1858C636.36 89.1858 634.271 90.1175 632.747 91.6408L635.354 89.0341Z" fill="black" fill-opacity="0.11"/>
<path d="M666.476 85.2314V155.56L663.869 158.167V87.8381L666.476 85.2314Z" fill="black" fill-opacity="0.11"/>
<path d="M647.354 100.661C645.821 102.193 643.683 103.187 641.247 103.187L638.641 105.794C641.077 105.794 643.215 104.8 644.747 103.268L647.354 100.661Z" fill="black" fill-opacity="0.11"/>
<path d="M632.856 95.0988C632.856 92.7088 633.816 90.5712 635.352 89.0347L632.748 91.6389C631.211 93.1755 630.249 95.3142 630.249 97.7055L632.856 95.0988Z" fill="black" fill-opacity="0.11"/>
<path d="M697.485 155.406C683.887 155.406 672.255 144.188 672.255 130.782L669.648 133.389C669.648 146.794 681.28 158.012 694.878 158.012L697.485 155.406Z" fill="black" fill-opacity="0.11"/>
<path d="M641.247 103.183C636.86 103.183 632.856 99.8606 632.856 95.0986L630.249 97.7053C630.249 102.467 634.254 105.79 638.64 105.79L641.247 103.183Z" fill="black" fill-opacity="0.11"/>
<path d="M655.226 155.56V85.2314L652.619 87.8381V158.167L655.226 155.56Z" fill="black" fill-opacity="0.11"/>
<path d="M635.781 109.13H647.032L644.425 111.737H633.175L635.781 109.13Z" fill="black" fill-opacity="0.11"/>
<path d="M618.302 109.134H630.507L627.9 111.74H615.695L618.302 109.134Z" fill="black" fill-opacity="0.11"/>
<path d="M647.031 109.13V155.559L644.425 158.165V111.737L647.031 109.13Z" fill="black" fill-opacity="0.11"/>
<path d="M666.476 155.556H655.226L652.619 158.162H663.869L666.476 155.556Z" fill="black" fill-opacity="0.11"/>
<path d="M635.781 155.559V109.13L633.175 111.737V158.165L635.781 155.559Z" fill="black" fill-opacity="0.11"/>
<path d="M607.945 135.574L618.302 109.134L615.695 111.74L605.338 138.18L607.945 135.574Z" fill="black" fill-opacity="0.11"/>
<path d="M630.508 109.134L612.456 155.623L609.85 158.23L627.901 111.74L630.508 109.134Z" fill="black" fill-opacity="0.11"/>
<path d="M647.032 155.556H635.781L633.175 158.162H644.425L647.032 155.556Z" fill="black" fill-opacity="0.11"/>
<path d="M589.766 109.134H597.646L595.039 111.74H587.159L589.766 109.134Z" fill="black" fill-opacity="0.11"/>
<path d="M597.645 109.134L607.94 135.574L605.333 138.18L595.038 111.74L597.645 109.134Z" fill="black" fill-opacity="0.11"/>
<path d="M607.941 135.571H607.946L605.34 138.178H605.334L607.941 135.571Z" fill="black" fill-opacity="0.11"/>
<path d="M579.408 135.574L589.765 109.134L587.159 111.74L576.802 138.18L579.408 135.574Z" fill="black" fill-opacity="0.11"/>
<path d="M604.576 155.622L593.646 127.931L591.039 130.537L601.969 158.228L604.576 155.622Z" fill="black" fill-opacity="0.11"/>
<path d="M556.784 109.134H569.051L566.444 111.74H554.178L556.784 109.134Z" fill="black" fill-opacity="0.11"/>
<path d="M612.456 155.622H604.576L601.97 158.229H609.85L612.456 155.622Z" fill="black" fill-opacity="0.11"/>
<path d="M569.051 109.134L579.408 135.574L576.801 138.18L566.444 111.74L569.051 109.134Z" fill="black" fill-opacity="0.11"/>
<path d="M593.646 127.931L582.778 155.622L580.171 158.228L591.039 130.537L593.646 127.931Z" fill="black" fill-opacity="0.11"/>
<path d="M574.898 155.623L556.784 109.134L554.178 111.74L572.291 158.23L574.898 155.623Z" fill="black" fill-opacity="0.11"/>
<path d="M582.777 155.622H574.897L572.29 158.229H580.17L582.777 155.622Z" fill="black" fill-opacity="0.11"/>
<path d="M992.312 120.817C992.312 117.938 996.317 115.618 1001.53 115.618C1006.74 115.618 1012.53 118.187 1016.27 122.323L1023.07 114.117C1016.59 108.48 1010.04 105.534 1001.85 105.534C991.616 105.534 981.068 110.169 981.068 120.822C981.068 133.918 992.509 134.859 1001.85 135.607C1007.06 135.983 1011.7 136.36 1011.7 139.743C1011.7 143.375 1006.43 145.069 1001.79 145.069C996.384 145.069 990.537 142.816 986.28 137.738L979.034 145.319C984.82 152.273 993.205 155.341 1001.41 155.341C1011.7 155.341 1022.95 150.518 1022.95 139.488C1022.95 127.018 1011.39 125.828 1002.49 124.953C996.895 124.388 992.323 123.89 992.323 120.817H992.312ZM940.645 123.884C942.487 119.311 946.492 116.614 952.401 116.614C958.309 116.614 961.87 119.433 963.398 123.884H940.645ZM952.912 105.529C938.865 105.529 927.553 116.304 927.553 130.529C927.553 143.873 937.528 155.402 952.277 155.402C961.174 155.402 968.357 151.205 973.44 144.001L965.689 137.55C962.954 141.686 958 144.128 952.092 144.128C946.183 144.128 939.825 139.682 939.32 133.165H975.99V129.278C975.99 111.604 961.755 105.529 952.912 105.529ZM910.647 155.558H921.897V109.13H910.647V155.558ZM907.782 95.0377C907.782 99.7387 911.534 103.122 916.426 103.122C921.318 103.122 924.688 99.7997 924.688 95.226C924.688 90.6523 920.875 86.5825 916.235 86.5825C911.512 86.5825 907.782 90.5283 907.782 95.0377ZM753.416 105.468C748.142 105.468 743.373 107.035 739.307 109.726V85.1689H728.057V130.468C728.057 144.25 739.43 155.341 753.348 155.341C767.266 155.341 778.769 144.316 778.769 130.341C778.769 116.364 766.603 105.468 753.416 105.468ZM695.009 106.221C682.489 107.472 672.256 118.126 672.256 130.784C672.256 144.189 683.888 155.407 697.486 155.407C711.083 155.407 722.715 144.195 722.715 130.784C722.715 125.08 720.62 119.82 717.25 115.684L692.341 85.2299H677.788L695.009 106.221ZM607.94 135.575L597.645 109.135H589.765L579.408 135.575L569.051 109.135H556.784L574.898 155.625H582.778L593.646 127.934L604.576 155.625H612.456L630.508 109.135H618.303L607.946 135.575H607.94ZM809.273 105.529C795.613 105.529 783.852 116.304 783.852 129.903C783.852 143.502 793.827 155.402 808.638 155.402C817.535 155.402 824.718 151.205 829.801 144.001L821.034 136.985C818.49 141.498 813.598 144.128 808.705 144.128C802.348 144.128 796.124 139.682 795.613 133.165H832.408V129.781C832.408 115.725 822.932 105.529 809.273 105.529ZM849.499 119.722V109.135H838.249V155.564H849.499V135.951C849.499 126.417 859.856 120.603 870.089 120.603V109.135H868.944C860.3 109.135 854.009 112.269 849.499 119.722ZM885.215 119.722V109.135H873.965V155.564H885.215V135.951C885.215 126.417 895.572 120.603 905.805 120.603V109.135H904.659C896.016 109.135 889.725 112.269 885.215 119.722ZM655.226 155.558H666.476V85.2299H655.226V155.558ZM697.553 144.25C689.802 144.25 683.506 138.109 683.506 130.468C683.506 122.827 689.796 116.62 697.486 116.62C705.175 116.62 711.656 122.76 711.656 130.468C711.656 138.176 705.298 144.25 697.547 144.25H697.553ZM753.354 144.25C745.727 144.25 739.307 138.237 739.307 130.402C739.307 122.567 745.345 116.62 753.416 116.62C761.487 116.62 767.525 122.821 767.525 130.402C767.525 137.982 761.105 144.25 753.354 144.25ZM635.782 155.558H647.032V109.13H635.782V155.558ZM641.247 86.577C636.669 86.577 632.855 90.3367 632.855 95.0986C632.855 99.8606 636.86 103.183 641.247 103.183C646.139 103.183 649.829 99.174 649.829 94.8495C649.829 90.525 645.953 86.577 641.247 86.577ZM796.95 123.884C798.854 119.311 802.797 116.614 808.644 116.614C814.491 116.614 818.304 119.433 819.826 123.884H796.95Z" fill="white"/>
<path d="M280.883 159.389C280.883 174.05 277.083 188.239 270.157 199.444L260.872 214.465C258.53 218.254 255.083 220.441 251.451 220.441H243.43C237.67 220.441 233 214.067 233 206.205V174.038C233 158.968 237.014 144.412 244.294 133.082L253.496 118.76C255.836 115.117 259.214 113.028 262.763 113.028H270.453C276.213 113.028 280.883 119.402 280.883 127.264V159.389Z" fill="#B2B2B2"/>
<path d="M277 140.042L293.824 125.223V116.911L277 132.168V140.042Z" fill="#B2B2B2"/>
<path d="M293.824 133.589L277 147.752V155.735L293.824 141.025V133.589Z" fill="#B2B2B2"/>
<rect x="288.646" y="79.3838" width="32.3532" height="88.0006" fill="#FD20FD"/>
</g>
</g>
<defs>
<filter id="filter0_d_3112_11426" x="514.162" y="403.876" width="82.9404" height="84.3894" filterUnits="userSpaceOnUse" color-interpolation-filters="sRGB">
<feFlood flood-opacity="0" result="BackgroundImageFix"/>
<feColorMatrix in="SourceAlpha" type="matrix" values="0 0 0 0 0 0 0 0 0 0 0 0 0 0 0 0 0 0 127 0" result="hardAlpha"/>
<feOffset dx="-4.3471" dy="5.79614"/>
<feComposite in2="hardAlpha" operator="out"/>
<feColorMatrix type="matrix" values="0 0 0 0 0 0 0 0 0 0 0 0 0 0 0 0 0 0 0.25 0"/>
<feBlend mode="normal" in2="BackgroundImageFix" result="effect1_dropShadow_3112_11426"/>
<feBlend mode="normal" in="SourceGraphic" in2="effect1_dropShadow_3112_11426" result="shape"/>
</filter>
<clipPath id="clip0_3112_11426">
<rect width="1362" height="768" fill="white" transform="translate(0 0.125977)"/>
</clipPath>
<clipPath id="clip1_3112_11426">
<rect width="1242.32" height="768" fill="white" transform="translate(156.195 0.383789)"/>
</clipPath>
</defs>
</svg>
