<svg width="445" height="756" viewBox="0 0 445 756" fill="none" xmlns="http://www.w3.org/2000/svg">
<g clip-path="url(#clip0_3110_11820)">
<rect x="0.546875" y="0.0869141" width="930.278" height="754.28" fill="#575757"/>
<path d="M268.157 156.469C259.93 156.469 252.492 158.958 246.149 163.232V124.229H228.6V196.176C228.6 218.066 246.341 235.681 268.052 235.681C289.763 235.681 307.706 218.171 307.706 195.974C307.706 173.777 290.157 156.469 268.149 156.469H268.157ZM182.489 204.288L166.43 162.294H154.137L137.981 204.288L121.825 162.294H102.69L130.946 236.133H143.238L160.192 192.152L177.241 236.133H189.533L217.693 162.294H198.654L182.498 204.288H182.489ZM268.061 218.066C256.163 218.066 246.149 208.515 246.149 196.071C246.149 183.627 255.567 174.181 268.157 174.181C280.747 174.181 290.166 184.031 290.166 196.071C290.166 208.11 280.152 218.066 268.061 218.066Z" fill="white"/>
<path d="M222.323 384.665C216.299 384.665 210.851 386.488 206.206 389.618V361.055H193.355V413.743C193.355 429.773 206.347 442.673 222.246 442.673C238.145 442.673 251.285 429.85 251.285 413.595C251.285 397.34 238.434 384.665 222.317 384.665H222.323ZM161.128 419.683L149.367 388.931H140.365L128.534 419.683L116.703 388.931H102.69L123.382 443.003H132.384L144.799 410.795L157.285 443.003H166.286L186.907 388.931H172.965L161.134 419.683H161.128ZM222.253 429.773C213.54 429.773 206.206 422.779 206.206 413.666C206.206 404.553 213.104 397.636 222.323 397.636C231.543 397.636 238.44 404.849 238.44 413.666C238.44 422.483 231.107 429.773 222.253 429.773Z" fill="white"/>
<path d="M190.914 585.78C186.358 585.78 182.238 587.159 178.725 589.526V567.924H169.006V607.772C169.006 619.895 178.832 629.651 190.856 629.651C202.881 629.651 212.819 619.954 212.819 607.66C212.819 595.366 203.099 585.78 190.91 585.78H190.914ZM146.887 612.264L137.992 589.006H131.184L122.236 612.264L113.288 589.006H102.69L118.34 629.901H125.148L134.537 605.543L143.98 629.901H150.788L166.384 589.006H155.84L146.892 612.264H146.887ZM190.861 619.895C184.271 619.895 178.725 614.606 178.725 607.713C178.725 600.821 183.941 595.59 190.914 595.59C197.887 595.59 203.104 601.045 203.104 607.713C203.104 614.382 197.558 619.895 190.861 619.895Z" fill="white"/>
</g>
<defs>
<clipPath id="clip0_3110_11820">
<rect width="443.505" height="754.499" fill="white" transform="translate(0.546875 0.666504)"/>
</clipPath>
</defs>
</svg>
