<svg width="931" height="755" viewBox="0 0 931 755" fill="none" xmlns="http://www.w3.org/2000/svg">
<g clip-path="url(#clip0_3110_11789)">
<rect y="0.666504" width="930.278" height="754.28" fill="#575757"/>
<path d="M781.528 181.427C781.528 176.854 787.775 173.169 795.906 173.169C804.036 173.169 813.061 177.25 818.905 183.819L829.515 170.786C819.404 161.833 809.188 157.155 796.405 157.155C780.442 157.155 763.988 164.516 763.988 181.436C763.988 202.235 781.835 203.73 796.405 204.917C804.536 205.515 811.773 206.113 811.773 211.487C811.773 217.256 803.546 219.947 796.309 219.947C787.88 219.947 778.76 216.368 772.119 208.303L760.816 220.343C769.841 231.389 782.921 236.261 795.713 236.261C811.773 236.261 829.322 228.601 829.322 211.082C829.322 191.277 811.282 189.386 797.404 187.997C788.678 187.1 781.546 186.308 781.546 181.427H781.528ZM700.932 186.3C703.806 179.035 710.053 174.752 719.27 174.752C728.487 174.752 734.041 179.229 736.425 186.3H700.932ZM720.067 157.146C698.155 157.146 680.509 174.26 680.509 196.853C680.509 218.048 696.07 236.358 719.077 236.358C732.955 236.358 744.161 229.691 752.09 218.25L739.999 208.004C735.732 214.574 728.005 218.452 718.788 218.452C709.571 218.452 699.653 211.39 698.864 201.039H756.068V194.865C756.068 173.073 741.296 157.155 720.085 157.155L720.067 157.146ZM654.137 236.606H671.687V162.865H654.137V236.606ZM662.855 127.045C655.715 127.045 649.669 133.016 649.669 140.483C649.669 147.949 655.522 153.323 663.153 153.323C670.784 153.323 676.041 148.046 676.041 140.782C676.041 133.518 670.092 127.054 662.855 127.054V127.045ZM408.871 157.049C400.644 157.049 393.205 159.538 386.862 163.812V124.809H369.313V196.756C369.313 218.646 387.055 236.261 408.766 236.261C430.476 236.261 448.42 218.751 448.42 196.554C448.42 174.357 430.871 157.049 408.862 157.049H408.871ZM317.761 158.245C298.232 160.233 282.268 177.153 282.268 197.257C282.268 218.549 300.413 236.366 321.625 236.366C342.836 236.366 360.981 218.558 360.981 197.257C360.981 188.199 357.713 179.844 352.456 173.275L313.599 124.905H290.898L317.761 158.245ZM181.941 204.867L165.882 162.874H153.59L137.434 204.867L121.277 162.874H102.143L130.398 236.712H142.69L159.644 192.731L176.693 236.712H188.986L217.145 162.874H198.106L181.95 204.867H181.941ZM496.003 157.146C474.091 157.146 456.349 174.26 456.349 195.859C456.349 217.458 471.909 236.358 495.013 236.358C508.891 236.358 520.097 229.691 528.026 218.25L514.349 207.107C510.38 214.275 502.749 218.452 495.118 218.452C485.2 218.452 475.492 211.39 474.695 201.039H532.091V195.666C532.091 173.073 517.223 157.155 496.003 157.155V157.146ZM558.752 179.689V162.874H541.203V236.615H558.752V205.465C558.752 190.321 574.908 181.087 590.871 181.087V162.874H589.084C575.6 162.874 565.787 167.851 558.752 179.689ZM614.466 179.689V162.874H596.917V236.615H614.466V205.465C614.466 190.321 630.622 181.087 646.585 181.087V162.874H644.798C631.314 162.874 621.501 167.851 614.466 179.689ZM255.704 236.606H273.253V124.905H255.704V236.606ZM321.73 218.646C309.639 218.646 299.817 208.892 299.817 196.756C299.817 184.62 309.63 174.761 321.625 174.761C333.619 174.761 343.73 184.514 343.73 196.756C343.73 208.998 333.812 218.646 321.721 218.646H321.73ZM408.774 218.646C396.876 218.646 386.862 209.095 386.862 196.651C386.862 184.206 396.281 174.761 408.871 174.761C421.461 174.761 430.879 184.611 430.879 196.651C430.879 208.69 420.865 218.646 408.774 218.646ZM225.372 236.606H242.921V162.865H225.372V236.606ZM233.897 127.045C226.756 127.045 220.807 133.016 220.807 140.58C220.807 148.143 227.054 153.42 233.897 153.42C241.528 153.42 247.284 147.052 247.284 140.184C247.284 133.315 241.239 127.045 233.897 127.045ZM476.78 186.3C479.75 179.035 485.901 174.752 495.022 174.752C504.142 174.752 510.091 179.229 512.466 186.3H476.78Z" fill="white"/>
<path d="M599.662 403.098C599.662 399.749 604.237 397.05 610.191 397.05C616.145 397.05 622.753 400.038 627.033 404.849L634.803 395.305C627.399 388.749 619.917 385.323 610.556 385.323C598.866 385.323 586.817 390.713 586.817 403.104C586.817 418.335 599.887 419.43 610.556 420.3C616.51 420.737 621.81 421.175 621.81 425.11C621.81 429.335 615.786 431.306 610.486 431.306C604.314 431.306 597.634 428.685 592.771 422.779L584.494 431.596C591.103 439.685 600.682 443.253 610.05 443.253C621.81 443.253 634.661 437.643 634.661 424.814C634.661 410.311 621.451 408.926 611.288 407.908C604.897 407.252 599.675 406.672 599.675 403.098H599.662ZM540.641 406.666C542.745 401.346 547.32 398.209 554.07 398.209C560.819 398.209 564.887 401.488 566.632 406.666H540.641ZM554.653 385.316C538.607 385.316 525.685 397.849 525.685 414.394C525.685 429.915 537.08 443.323 553.928 443.323C564.091 443.323 572.298 438.442 578.104 430.063L569.25 422.56C566.125 427.371 560.466 430.211 553.717 430.211C546.967 430.211 539.704 425.04 539.127 417.459H581.017V412.938C581.017 396.979 570.2 385.323 554.666 385.323L554.653 385.316ZM506.373 443.506H519.224V389.504H506.373V443.506ZM512.757 363.273C507.528 363.273 503.1 367.646 503.1 373.114C503.1 378.581 507.386 382.516 512.975 382.516C518.563 382.516 522.413 378.652 522.413 373.333C522.413 368.013 518.056 363.279 512.757 363.279V363.273ZM326.762 385.245C320.737 385.245 315.29 387.068 310.645 390.198V361.635H297.793V414.323C297.793 430.353 310.786 443.253 326.685 443.253C342.584 443.253 355.724 430.43 355.724 414.175C355.724 397.92 342.873 385.245 326.755 385.245H326.762ZM260.041 386.121C245.74 387.577 234.05 399.968 234.05 414.69C234.05 430.282 247.338 443.33 262.871 443.33C278.404 443.33 291.692 430.288 291.692 414.69C291.692 408.057 289.299 401.938 285.449 397.127L256.994 361.706H240.37L260.041 386.121ZM160.58 420.263L148.819 389.511H139.818L127.986 420.263L116.155 389.511H102.143L122.834 443.583H131.836L144.251 411.375L156.737 443.583H165.738L186.36 389.511H172.418L160.586 420.263H160.58ZM390.569 385.316C374.523 385.316 361.53 397.849 361.53 413.666C361.53 429.483 372.925 443.323 389.844 443.323C400.007 443.323 408.214 438.442 414.02 430.063L404.005 421.903C401.098 427.152 395.51 430.211 389.921 430.211C382.658 430.211 375.55 425.04 374.966 417.459H416.997V413.524C416.997 396.979 406.109 385.323 390.569 385.323V385.316ZM436.521 401.824V389.511H423.67V443.512H436.521V420.701C436.521 409.611 448.352 402.848 460.042 402.848V389.511H458.734C448.859 389.511 441.673 393.156 436.521 401.824ZM477.321 401.824V389.511H464.469V443.512H477.321V420.701C477.321 409.611 489.152 402.848 500.842 402.848V389.511H499.533C489.659 389.511 482.473 393.156 477.321 401.824ZM214.597 443.506H227.448V361.706H214.597V443.506ZM262.948 430.353C254.094 430.353 246.901 423.211 246.901 414.323C246.901 405.435 254.087 398.216 262.871 398.216C271.654 398.216 279.059 405.358 279.059 414.323C279.059 423.288 271.796 430.353 262.941 430.353H262.948ZM326.691 430.353C317.978 430.353 310.645 423.359 310.645 414.246C310.645 405.133 317.542 398.216 326.762 398.216C335.982 398.216 342.879 405.429 342.879 414.246C342.879 423.062 335.545 430.353 326.691 430.353ZM192.384 443.506H205.236V389.504H192.384V443.506ZM198.627 363.273C193.398 363.273 189.041 367.646 189.041 373.185C189.041 378.723 193.616 382.587 198.627 382.587C204.215 382.587 208.431 377.925 208.431 372.895C208.431 367.865 204.004 363.273 198.627 363.273ZM376.493 406.666C378.668 401.346 383.172 398.209 389.851 398.209C396.53 398.209 400.886 401.488 402.625 406.666H376.493Z" fill="white"/>
<path d="M478.418 599.862C478.418 597.329 481.878 595.288 486.381 595.288C490.884 595.288 495.882 597.548 499.118 601.187L504.995 593.968C499.395 589.01 493.737 586.419 486.657 586.419C477.816 586.419 468.703 590.495 468.703 599.867C468.703 611.386 478.588 612.214 486.657 612.872C491.16 613.203 495.168 613.534 495.168 616.51C495.168 619.706 490.612 621.196 486.604 621.196C481.936 621.196 476.884 619.214 473.206 614.747L466.946 621.415C471.945 627.533 479.189 630.231 486.274 630.231C495.168 630.231 504.888 625.989 504.888 616.286C504.888 605.317 494.897 604.27 487.21 603.5C482.377 603.004 478.427 602.565 478.427 599.862H478.418ZM433.78 602.56C435.371 598.537 438.831 596.165 443.936 596.165C449.041 596.165 452.117 598.644 453.437 602.56H433.78ZM444.378 586.414C432.242 586.414 422.469 595.892 422.469 608.405C422.469 620.144 431.087 630.285 443.829 630.285C451.516 630.285 457.722 626.593 462.113 620.256L455.417 614.581C453.054 618.22 448.774 620.368 443.669 620.368C438.564 620.368 433.071 616.457 432.635 610.724H464.316V607.305C464.316 595.235 456.135 586.419 444.387 586.419L444.378 586.414ZM407.863 630.423H417.582V589.581H407.863V630.423ZM412.691 569.743C408.736 569.743 405.388 573.05 405.388 577.185C405.388 581.32 408.629 584.296 412.856 584.296C417.082 584.296 419.994 581.374 419.994 577.351C419.994 573.327 416.699 569.747 412.691 569.747V569.743ZM272.023 586.36C267.466 586.36 263.347 587.739 259.833 590.106V568.504H250.114V608.352C250.114 620.475 259.94 630.231 271.964 630.231C283.989 630.231 293.927 620.534 293.927 608.24C293.927 595.946 284.207 586.36 272.018 586.36H272.023ZM221.562 587.023C210.746 588.123 201.905 597.495 201.905 608.629C201.905 620.422 211.954 630.29 223.702 630.29C235.45 630.29 245.499 620.426 245.499 608.629C245.499 603.612 243.689 598.985 240.778 595.347L219.257 568.557H206.684L221.562 587.023ZM146.339 612.844L137.444 589.586H130.636L121.688 612.844L112.74 589.586H102.143L117.792 630.481H124.6L133.989 606.122L143.432 630.481H150.24L165.836 589.586H155.292L146.344 612.844H146.339ZM320.281 586.414C308.145 586.414 298.318 595.892 298.318 607.855C298.318 619.818 306.936 630.285 319.732 630.285C327.419 630.285 333.625 626.593 338.016 620.256L330.442 614.085C328.243 618.054 324.017 620.368 319.79 620.368C314.297 620.368 308.921 616.457 308.479 610.724H340.268V607.748C340.268 595.235 332.033 586.419 320.281 586.419V586.414ZM355.034 598.899V589.586H345.314V630.428H355.034V613.175C355.034 604.788 363.982 599.673 372.823 599.673V589.586H371.833C364.365 589.586 358.93 592.343 355.034 598.899ZM385.891 598.899V589.586H376.171V630.428H385.891V613.175C385.891 604.788 394.839 599.673 403.68 599.673V589.586H402.69C395.222 589.586 389.787 592.343 385.891 598.899ZM187.192 630.423H196.911V568.557H187.192V630.423ZM223.76 620.475C217.064 620.475 211.624 615.073 211.624 608.352C211.624 601.63 217.059 596.17 223.702 596.17C230.345 596.17 235.945 601.572 235.945 608.352C235.945 615.132 230.452 620.475 223.755 620.475H223.76ZM271.969 620.475C265.38 620.475 259.833 615.185 259.833 608.293C259.833 601.401 265.05 596.17 272.023 596.17C278.996 596.17 284.212 601.625 284.212 608.293C284.212 614.961 278.666 620.475 271.969 620.475ZM170.393 630.423H180.112V589.581H170.393V630.423ZM175.114 569.743C171.159 569.743 167.864 573.05 167.864 577.239C167.864 581.428 171.324 584.35 175.114 584.35C179.341 584.35 182.529 580.824 182.529 577.019C182.529 573.215 179.18 569.743 175.114 569.743ZM309.634 602.56C311.279 598.537 314.686 596.165 319.737 596.165C324.788 596.165 328.083 598.644 329.398 602.56H309.634Z" fill="white"/>
</g>
<defs>
<clipPath id="clip0_3110_11789">
<rect width="930.278" height="754.28" fill="white" transform="translate(0 0.666504)"/>
</clipPath>
</defs>
</svg>
