<svg width="445" height="756" viewBox="0 0 445 756" fill="none" xmlns="http://www.w3.org/2000/svg">
<g clip-path="url(#clip0_3110_11795)">
<rect x="0.546875" y="0.338783" width="930.278" height="754.28" fill="#EDEDED"/>
<path d="M268.157 156.721C259.93 156.721 252.492 159.21 246.149 163.484V124.48H228.6V196.428C228.6 218.317 246.341 235.933 268.052 235.933C289.763 235.933 307.706 218.423 307.706 196.226C307.706 174.028 290.157 156.721 268.149 156.721H268.157ZM182.489 204.54L166.43 162.546H154.137L137.981 204.54L121.825 162.546H102.69L130.946 236.384H143.238L160.192 192.403L177.241 236.384H189.533L217.693 162.546H198.654L182.498 204.54H182.489ZM268.061 218.317C256.163 218.317 246.149 208.766 246.149 196.322C246.149 183.878 255.567 174.433 268.157 174.433C280.747 174.433 290.166 184.283 290.166 196.322C290.166 208.362 280.152 218.317 268.061 218.317Z" fill="#FF00CC"/>
<path d="M222.323 384.917C216.299 384.917 210.851 386.74 206.206 389.87V361.307H193.355V413.995C193.355 430.025 206.347 442.925 222.246 442.925C238.145 442.925 251.285 430.102 251.285 413.847C251.285 397.592 238.434 384.917 222.317 384.917H222.323ZM161.128 419.935L149.367 389.182H140.365L128.534 419.935L116.703 389.182H102.69L123.382 443.255H132.384L144.799 411.047L157.285 443.255H166.286L186.907 389.182H172.965L161.134 419.935H161.128ZM222.253 430.025C213.54 430.025 206.206 423.031 206.206 413.918C206.206 404.805 213.104 397.888 222.323 397.888C231.543 397.888 238.44 405.101 238.44 413.918C238.44 422.734 231.107 430.025 222.253 430.025Z" fill="#FF00CC"/>
<path d="M190.914 586.032C186.358 586.032 182.238 587.41 178.725 589.777V568.175H169.006V608.023C169.006 620.147 178.832 629.903 190.856 629.903C202.881 629.903 212.819 620.205 212.819 607.911C212.819 595.617 203.099 586.032 190.91 586.032H190.914ZM146.887 612.516L137.992 589.258H131.184L122.236 612.516L113.288 589.258H102.69L118.34 630.153H125.148L134.537 605.794L143.98 630.153H150.788L166.384 589.258H155.84L146.892 612.516H146.887ZM190.861 620.147C184.271 620.147 178.725 614.857 178.725 607.965C178.725 601.073 183.941 595.842 190.914 595.842C197.887 595.842 203.104 601.297 203.104 607.965C203.104 614.633 197.558 620.147 190.861 620.147Z" fill="#FF00CC"/>
</g>
<defs>
<clipPath id="clip0_3110_11795">
<rect width="443.505" height="754.499" fill="white" transform="translate(0.546875 0.918457)"/>
</clipPath>
</defs>
</svg>
