<svg width="931" height="756" viewBox="0 0 931 756" fill="none" xmlns="http://www.w3.org/2000/svg">
<g clip-path="url(#clip0_3110_11764)">
<rect y="0.918457" width="930.278" height="754.28" fill="#EDEDED"/>
<path d="M781.528 181.679C781.528 177.106 787.775 173.421 795.906 173.421C804.036 173.421 813.061 177.502 818.905 184.071L829.515 171.038C819.404 162.085 809.188 157.406 796.405 157.406C780.442 157.406 763.988 164.767 763.988 181.688C763.988 202.487 781.835 203.982 796.405 205.169C804.536 205.767 811.773 206.365 811.773 211.739C811.773 217.508 803.546 220.199 796.309 220.199C787.88 220.199 778.76 216.62 772.119 208.555L760.816 220.595C769.841 231.64 782.921 236.513 795.713 236.513C811.773 236.513 829.322 228.853 829.322 211.334C829.322 191.529 811.282 189.638 797.404 188.249C788.678 187.352 781.546 186.56 781.546 181.679H781.528ZM700.932 186.551C703.806 179.287 710.053 175.004 719.27 175.004C728.487 175.004 734.041 179.48 736.425 186.551H700.932ZM720.067 157.398C698.155 157.398 680.509 174.512 680.509 197.105C680.509 218.299 696.07 236.609 719.077 236.609C732.955 236.609 744.161 229.943 752.09 218.502L739.999 208.256C735.732 214.825 728.005 218.704 718.788 218.704C709.571 218.704 699.653 211.642 698.864 201.291H756.068V195.117C756.068 173.324 741.296 157.406 720.085 157.406L720.067 157.398ZM654.137 236.858H671.687V163.117H654.137V236.858ZM662.855 127.297C655.715 127.297 649.669 133.268 649.669 140.735C649.669 148.201 655.522 153.575 663.153 153.575C670.784 153.575 676.041 148.298 676.041 141.034C676.041 133.769 670.092 127.306 662.855 127.306V127.297ZM408.871 157.301C400.644 157.301 393.205 159.79 386.862 164.064V125.06H369.313V197.008C369.313 218.897 387.055 236.513 408.766 236.513C430.476 236.513 448.42 219.003 448.42 196.806C448.42 174.608 430.871 157.301 408.862 157.301H408.871ZM317.761 158.497C298.232 160.484 282.268 177.405 282.268 197.509C282.268 218.801 300.413 236.618 321.625 236.618C342.836 236.618 360.981 218.809 360.981 197.509C360.981 188.451 357.713 180.096 352.456 173.527L313.599 125.157H290.898L317.761 158.497ZM181.941 205.119L165.882 163.125H153.59L137.434 205.119L121.277 163.125H102.143L130.398 236.964H142.69L159.644 192.983L176.693 236.964H188.986L217.145 163.125H198.106L181.95 205.119H181.941ZM496.003 157.398C474.091 157.398 456.349 174.512 456.349 196.111C456.349 217.71 471.909 236.609 495.013 236.609C508.891 236.609 520.097 229.943 528.026 218.502L514.349 207.359C510.38 214.526 502.749 218.704 495.118 218.704C485.2 218.704 475.492 211.642 474.695 201.291H532.091V195.917C532.091 173.324 517.223 157.406 496.003 157.406V157.398ZM558.752 179.94V163.125H541.203V236.867H558.752V205.717C558.752 190.573 574.908 181.339 590.871 181.339V163.125H589.084C575.6 163.125 565.787 168.103 558.752 179.94ZM614.466 179.94V163.125H596.917V236.867H614.466V205.717C614.466 190.573 630.622 181.339 646.585 181.339V163.125H644.798C631.314 163.125 621.501 168.103 614.466 179.94ZM255.704 236.858H273.253V125.157H255.704V236.858ZM321.73 218.897C309.639 218.897 299.817 209.144 299.817 197.008C299.817 184.871 309.63 175.013 321.625 175.013C333.619 175.013 343.73 184.766 343.73 197.008C343.73 209.25 333.812 218.897 321.721 218.897H321.73ZM408.774 218.897C396.876 218.897 386.862 209.346 386.862 196.902C386.862 184.458 396.281 175.013 408.871 175.013C421.461 175.013 430.879 184.863 430.879 196.902C430.879 208.942 420.865 218.897 408.774 218.897ZM225.372 236.858H242.921V163.117H225.372V236.858ZM233.897 127.297C226.756 127.297 220.807 133.268 220.807 140.831C220.807 148.395 227.054 153.671 233.897 153.671C241.528 153.671 247.284 147.304 247.284 140.436C247.284 133.567 241.239 127.297 233.897 127.297ZM476.78 186.551C479.75 179.287 485.901 175.004 495.022 175.004C504.142 175.004 510.091 179.48 512.466 186.551H476.78Z" fill="#FF00CC"/>
<path d="M599.662 403.35C599.662 400.001 604.237 397.302 610.191 397.302C616.145 397.302 622.753 400.29 627.033 405.101L634.803 395.557C627.399 389.001 619.917 385.574 610.556 385.574C598.866 385.574 586.817 390.965 586.817 403.356C586.817 418.587 599.887 419.682 610.556 420.551C616.51 420.989 621.81 421.427 621.81 425.362C621.81 429.587 615.786 431.558 610.486 431.558C604.314 431.558 597.634 428.937 592.771 423.031L584.494 431.848C591.103 439.937 600.682 443.504 610.05 443.504C621.81 443.504 634.661 437.895 634.661 425.066C634.661 410.563 621.451 409.178 611.288 408.16C604.897 407.503 599.675 406.924 599.675 403.35H599.662ZM540.641 406.917C542.745 401.598 547.32 398.461 554.07 398.461C560.819 398.461 564.887 401.739 566.632 406.917H540.641ZM554.653 385.568C538.607 385.568 525.685 398.101 525.685 414.646C525.685 430.167 537.08 443.575 553.928 443.575C564.091 443.575 572.298 438.694 578.104 430.315L569.25 422.812C566.125 427.623 560.466 430.463 553.717 430.463C546.967 430.463 539.704 425.291 539.127 417.711H581.017V413.19C581.017 397.231 570.2 385.574 554.666 385.574L554.653 385.568ZM506.373 443.758H519.224V389.756H506.373V443.758ZM512.757 363.525C507.528 363.525 503.1 367.898 503.1 373.366C503.1 378.833 507.386 382.768 512.975 382.768C518.563 382.768 522.413 378.904 522.413 373.585C522.413 368.265 518.056 363.531 512.757 363.531V363.525ZM326.762 385.497C320.737 385.497 315.29 387.32 310.645 390.45V361.887H297.793V414.575C297.793 430.605 310.786 443.504 326.685 443.504C342.584 443.504 355.724 430.682 355.724 414.427C355.724 398.172 342.873 385.497 326.755 385.497H326.762ZM260.041 386.373C245.74 387.828 234.05 400.22 234.05 414.942C234.05 430.534 247.338 443.582 262.871 443.582C278.404 443.582 291.692 430.54 291.692 414.942C291.692 408.308 289.299 402.19 285.449 397.379L256.994 361.958H240.37L260.041 386.373ZM160.58 420.515L148.819 389.762H139.818L127.986 420.515L116.155 389.762H102.143L122.834 443.835H131.836L144.251 411.627L156.737 443.835H165.738L186.36 389.762H172.418L160.586 420.515H160.58ZM390.569 385.568C374.523 385.568 361.53 398.101 361.53 413.918C361.53 429.735 372.925 443.575 389.844 443.575C400.007 443.575 408.214 438.694 414.02 430.315L404.005 422.155C401.098 427.404 395.51 430.463 389.921 430.463C382.658 430.463 375.55 425.291 374.966 417.711H416.997V413.776C416.997 397.231 406.109 385.574 390.569 385.574V385.568ZM436.521 402.076V389.762H423.67V443.764H436.521V420.953C436.521 409.863 448.352 403.1 460.042 403.1V389.762H458.734C448.859 389.762 441.673 393.408 436.521 402.076ZM477.321 402.076V389.762H464.469V443.764H477.321V420.953C477.321 409.863 489.152 403.1 500.842 403.1V389.762H499.533C489.659 389.762 482.473 393.408 477.321 402.076ZM214.597 443.758H227.448V361.958H214.597V443.758ZM262.948 430.605C254.094 430.605 246.901 423.462 246.901 414.575C246.901 405.687 254.087 398.468 262.871 398.468C271.654 398.468 279.059 405.61 279.059 414.575C279.059 423.54 271.796 430.605 262.941 430.605H262.948ZM326.691 430.605C317.978 430.605 310.645 423.611 310.645 414.498C310.645 405.385 317.542 398.468 326.762 398.468C335.982 398.468 342.879 405.681 342.879 414.498C342.879 423.314 335.545 430.605 326.691 430.605ZM192.384 443.758H205.236V389.756H192.384V443.758ZM198.627 363.525C193.398 363.525 189.041 367.898 189.041 373.436C189.041 378.975 193.616 382.839 198.627 382.839C204.215 382.839 208.431 378.176 208.431 373.147C208.431 368.117 204.004 363.525 198.627 363.525ZM376.493 406.917C378.668 401.598 383.172 398.461 389.851 398.461C396.53 398.461 400.886 401.739 402.625 406.917H376.493Z" fill="#FF00CC"/>
<path d="M478.418 600.114C478.418 597.581 481.878 595.54 486.381 595.54C490.884 595.54 495.882 597.8 499.118 601.438L504.995 594.22C499.395 589.261 493.737 586.67 486.657 586.67C477.816 586.67 468.703 590.747 468.703 600.118C468.703 611.638 478.588 612.466 486.657 613.123C491.16 613.455 495.168 613.786 495.168 616.762C495.168 619.957 490.612 621.448 486.604 621.448C481.936 621.448 476.884 619.465 473.206 614.999L466.946 621.667C471.945 627.784 479.189 630.483 486.274 630.483C495.168 630.483 504.888 626.24 504.888 616.538C504.888 605.569 494.897 604.522 487.21 603.752C482.377 603.255 478.427 602.817 478.427 600.114H478.418ZM433.78 602.812C435.371 598.789 438.831 596.417 443.936 596.417C449.041 596.417 452.117 598.896 453.437 602.812H433.78ZM444.378 586.665C432.242 586.665 422.469 596.144 422.469 608.657C422.469 620.395 431.087 630.536 443.829 630.536C451.516 630.536 457.722 626.844 462.113 620.507L455.417 614.833C453.054 618.471 448.774 620.62 443.669 620.62C438.564 620.62 433.071 616.708 432.635 610.975H464.316V607.556C464.316 595.486 456.135 586.67 444.387 586.67L444.378 586.665ZM407.863 630.674H417.582V589.833H407.863V630.674ZM412.691 569.994C408.736 569.994 405.388 573.301 405.388 577.437C405.388 581.572 408.629 584.548 412.856 584.548C417.082 584.548 419.994 581.625 419.994 577.602C419.994 573.579 416.699 569.999 412.691 569.999V569.994ZM272.023 586.612C267.466 586.612 263.347 587.99 259.833 590.357V568.755H250.114V608.603C250.114 620.727 259.94 630.483 271.964 630.483C283.989 630.483 293.927 620.785 293.927 608.491C293.927 596.197 284.207 586.612 272.018 586.612H272.023ZM221.562 587.274C210.746 588.375 201.905 597.746 201.905 608.881C201.905 620.673 211.954 630.541 223.702 630.541C235.45 630.541 245.499 620.678 245.499 608.881C245.499 603.864 243.689 599.237 240.778 595.598L219.257 568.809H206.684L221.562 587.274ZM146.339 613.096L137.444 589.838H130.636L121.688 613.096L112.74 589.838H102.143L117.792 630.733H124.6L133.989 606.374L143.432 630.733H150.24L165.836 589.838H155.292L146.344 613.096H146.339ZM320.281 586.665C308.145 586.665 298.318 596.144 298.318 608.106C298.318 620.069 306.936 630.536 319.732 630.536C327.419 630.536 333.625 626.844 338.016 620.507L330.442 614.336C328.243 618.306 324.017 620.62 319.79 620.62C314.297 620.62 308.921 616.708 308.479 610.975H340.268V607.999C340.268 595.486 332.033 586.67 320.281 586.67V586.665ZM355.034 599.151V589.838H345.314V630.679H355.034V613.427C355.034 605.039 363.982 599.925 372.823 599.925V589.838H371.833C364.365 589.838 358.93 592.594 355.034 599.151ZM385.891 599.151V589.838H376.171V630.679H385.891V613.427C385.891 605.039 394.839 599.925 403.68 599.925V589.838H402.69C395.222 589.838 389.787 592.594 385.891 599.151ZM187.192 630.674H196.911V568.809H187.192V630.674ZM223.76 620.727C217.064 620.727 211.624 615.325 211.624 608.603C211.624 601.882 217.059 596.421 223.702 596.421C230.345 596.421 235.945 601.823 235.945 608.603C235.945 615.383 230.452 620.727 223.755 620.727H223.76ZM271.969 620.727C265.38 620.727 259.833 615.437 259.833 608.545C259.833 601.653 265.05 596.421 272.023 596.421C278.996 596.421 284.212 601.877 284.212 608.545C284.212 615.213 278.666 620.727 271.969 620.727ZM170.393 630.674H180.112V589.833H170.393V630.674ZM175.114 569.994C171.159 569.994 167.864 573.301 167.864 577.49C167.864 581.679 171.324 584.602 175.114 584.602C179.341 584.602 182.529 581.075 182.529 577.271C182.529 573.467 179.18 569.994 175.114 569.994ZM309.634 602.812C311.279 598.789 314.686 596.417 319.737 596.417C324.788 596.417 328.083 598.896 329.398 602.812H309.634Z" fill="#FF00CC"/>
</g>
<defs>
<clipPath id="clip0_3110_11764">
<rect width="930.278" height="754.28" fill="white" transform="translate(0 0.918457)"/>
</clipPath>
</defs>
</svg>
