<svg width="931" height="756" viewBox="0 0 931 756" fill="none" xmlns="http://www.w3.org/2000/svg">
<g clip-path="url(#clip0_3110_11770)">
<rect y="0.918457" width="930.278" height="754.28" fill="#D0D4DB"/>
<mask id="path-2-outside-1_3110_11770" maskUnits="userSpaceOnUse" x="90.1426" y="116.095" width="745" height="127" fill="black">
<rect fill="white" x="90.1426" y="116.095" width="745" height="127"/>
<path d="M776.245 180.273C776.245 175.736 782.444 172.079 790.511 172.079C798.578 172.079 807.532 176.128 813.331 182.647L823.858 169.715C813.826 160.831 803.69 156.189 791.006 156.189C775.167 156.189 758.841 163.493 758.841 180.282C758.841 200.919 776.549 202.402 791.006 203.581C799.074 204.174 806.254 204.767 806.254 210.099C806.254 215.823 798.091 218.493 790.911 218.493C782.548 218.493 773.498 214.942 766.909 206.94L755.694 218.886C764.648 229.846 777.627 234.68 790.32 234.68C806.254 234.68 823.667 227.08 823.667 209.698C823.667 190.046 805.768 188.17 791.997 186.792C783.339 185.901 776.263 185.116 776.263 180.273H776.245ZM696.276 185.107C699.127 177.9 705.325 173.65 714.471 173.65C723.616 173.65 729.128 178.092 731.492 185.107H696.276ZM715.262 156.18C693.52 156.18 676.012 173.161 676.012 195.579C676.012 216.609 691.451 234.776 714.28 234.776C728.05 234.776 739.168 228.162 747.036 216.809L735.039 206.643C730.805 213.162 723.138 217.01 713.993 217.01C704.847 217.01 695.007 210.003 694.224 199.732H750.983V193.607C750.983 171.983 736.326 156.189 715.279 156.189L715.262 156.18ZM649.845 235.023H667.258V161.855H649.845V235.023ZM658.495 126.314C651.41 126.314 645.411 132.239 645.411 139.647C645.411 147.056 651.219 152.387 658.79 152.387C666.362 152.387 671.578 147.152 671.578 139.944C671.578 132.736 665.675 126.322 658.495 126.322V126.314ZM406.485 156.084C398.322 156.084 390.942 158.554 384.648 162.795V124.095H367.235V195.483C367.235 217.202 384.839 234.68 406.381 234.68C427.923 234.68 445.727 217.307 445.727 195.282C445.727 173.257 428.314 156.084 406.477 156.084H406.485ZM316.084 157.271C296.707 159.243 280.868 176.032 280.868 195.98C280.868 217.106 298.871 234.785 319.918 234.785C340.964 234.785 358.968 217.115 358.968 195.98C358.968 186.992 355.725 178.702 350.509 172.184L311.955 124.191H289.431L316.084 157.271ZM181.321 203.531L165.386 161.864H153.189L137.159 203.531L121.129 161.864H102.143L130.178 235.128H142.375L159.197 191.489L176.114 235.128H188.31L216.25 161.864H197.36L181.33 203.531H181.321ZM492.94 156.18C471.198 156.18 453.594 173.161 453.594 194.593C453.594 216.024 469.034 234.776 491.958 234.776C505.728 234.776 516.847 228.162 524.714 216.809L511.144 205.753C507.206 212.865 499.634 217.01 492.062 217.01C482.221 217.01 472.589 210.003 471.798 199.732H528.748V194.401C528.748 171.983 513.995 156.189 492.94 156.189V156.18ZM555.201 178.548V161.864H537.789V235.032H555.201V204.124C555.201 189.098 571.232 179.935 587.071 179.935V161.864H585.297C571.919 161.864 562.182 166.803 555.201 178.548ZM610.482 178.548V161.864H593.069V235.032H610.482V204.124C610.482 189.098 626.512 179.935 642.351 179.935V161.864H640.578C627.199 161.864 617.463 166.803 610.482 178.548ZM254.51 235.023H271.922V124.191H254.51V235.023ZM320.022 217.202C308.025 217.202 298.28 207.525 298.28 195.483C298.28 183.441 308.017 173.659 319.918 173.659C331.819 173.659 341.851 183.336 341.851 195.483C341.851 207.629 332.01 217.202 320.013 217.202H320.022ZM406.39 217.202C394.584 217.202 384.648 207.725 384.648 195.378C384.648 183.031 393.993 173.659 406.485 173.659C418.978 173.659 428.323 183.432 428.323 195.378C428.323 207.324 418.387 217.202 406.39 217.202ZM224.413 235.023H241.826V161.855H224.413V235.023ZM232.872 126.314C225.787 126.314 219.884 132.239 219.884 139.743C219.884 147.248 226.083 152.483 232.872 152.483C240.444 152.483 246.155 146.166 246.155 139.35C246.155 132.535 240.157 126.314 232.872 126.314ZM473.867 185.107C476.814 177.9 482.917 173.65 491.966 173.65C501.016 173.65 506.919 178.092 509.275 185.107H473.867Z"/>
</mask>
<path d="M776.245 180.273C776.245 175.736 782.444 172.079 790.511 172.079C798.578 172.079 807.532 176.128 813.331 182.647L823.858 169.715C813.826 160.831 803.69 156.189 791.006 156.189C775.167 156.189 758.841 163.493 758.841 180.282C758.841 200.919 776.549 202.402 791.006 203.581C799.074 204.174 806.254 204.767 806.254 210.099C806.254 215.823 798.091 218.493 790.911 218.493C782.548 218.493 773.498 214.942 766.909 206.94L755.694 218.886C764.648 229.846 777.627 234.68 790.32 234.68C806.254 234.68 823.667 227.08 823.667 209.698C823.667 190.046 805.768 188.17 791.997 186.792C783.339 185.901 776.263 185.116 776.263 180.273H776.245ZM696.276 185.107C699.127 177.9 705.325 173.65 714.471 173.65C723.616 173.65 729.128 178.092 731.492 185.107H696.276ZM715.262 156.18C693.52 156.18 676.012 173.161 676.012 195.579C676.012 216.609 691.451 234.776 714.28 234.776C728.05 234.776 739.168 228.162 747.036 216.809L735.039 206.643C730.805 213.162 723.138 217.01 713.993 217.01C704.847 217.01 695.007 210.003 694.224 199.732H750.983V193.607C750.983 171.983 736.326 156.189 715.279 156.189L715.262 156.18ZM649.845 235.023H667.258V161.855H649.845V235.023ZM658.495 126.314C651.41 126.314 645.411 132.239 645.411 139.647C645.411 147.056 651.219 152.387 658.79 152.387C666.362 152.387 671.578 147.152 671.578 139.944C671.578 132.736 665.675 126.322 658.495 126.322V126.314ZM406.485 156.084C398.322 156.084 390.942 158.554 384.648 162.795V124.095H367.235V195.483C367.235 217.202 384.839 234.68 406.381 234.68C427.923 234.68 445.727 217.307 445.727 195.282C445.727 173.257 428.314 156.084 406.477 156.084H406.485ZM316.084 157.271C296.707 159.243 280.868 176.032 280.868 195.98C280.868 217.106 298.871 234.785 319.918 234.785C340.964 234.785 358.968 217.115 358.968 195.98C358.968 186.992 355.725 178.702 350.509 172.184L311.955 124.191H289.431L316.084 157.271ZM181.321 203.531L165.386 161.864H153.189L137.159 203.531L121.129 161.864H102.143L130.178 235.128H142.375L159.197 191.489L176.114 235.128H188.31L216.25 161.864H197.36L181.33 203.531H181.321ZM492.94 156.18C471.198 156.18 453.594 173.161 453.594 194.593C453.594 216.024 469.034 234.776 491.958 234.776C505.728 234.776 516.847 228.162 524.714 216.809L511.144 205.753C507.206 212.865 499.634 217.01 492.062 217.01C482.221 217.01 472.589 210.003 471.798 199.732H528.748V194.401C528.748 171.983 513.995 156.189 492.94 156.189V156.18ZM555.201 178.548V161.864H537.789V235.032H555.201V204.124C555.201 189.098 571.232 179.935 587.071 179.935V161.864H585.297C571.919 161.864 562.182 166.803 555.201 178.548ZM610.482 178.548V161.864H593.069V235.032H610.482V204.124C610.482 189.098 626.512 179.935 642.351 179.935V161.864H640.578C627.199 161.864 617.463 166.803 610.482 178.548ZM254.51 235.023H271.922V124.191H254.51V235.023ZM320.022 217.202C308.025 217.202 298.28 207.525 298.28 195.483C298.28 183.441 308.017 173.659 319.918 173.659C331.819 173.659 341.851 183.336 341.851 195.483C341.851 207.629 332.01 217.202 320.013 217.202H320.022ZM406.39 217.202C394.584 217.202 384.648 207.725 384.648 195.378C384.648 183.031 393.993 173.659 406.485 173.659C418.978 173.659 428.323 183.432 428.323 195.378C428.323 207.324 418.387 217.202 406.39 217.202ZM224.413 235.023H241.826V161.855H224.413V235.023ZM232.872 126.314C225.787 126.314 219.884 132.239 219.884 139.743C219.884 147.248 226.083 152.483 232.872 152.483C240.444 152.483 246.155 146.166 246.155 139.35C246.155 132.535 240.157 126.314 232.872 126.314ZM473.867 185.107C476.814 177.9 482.917 173.65 491.966 173.65C501.016 173.65 506.919 178.092 509.275 185.107H473.867Z" fill="#FF00CC"/>
<path d="M776.245 180.273C776.245 175.736 782.444 172.079 790.511 172.079C798.578 172.079 807.532 176.128 813.331 182.647L823.858 169.715C813.826 160.831 803.69 156.189 791.006 156.189C775.167 156.189 758.841 163.493 758.841 180.282C758.841 200.919 776.549 202.402 791.006 203.581C799.074 204.174 806.254 204.767 806.254 210.099C806.254 215.823 798.091 218.493 790.911 218.493C782.548 218.493 773.498 214.942 766.909 206.94L755.694 218.886C764.648 229.846 777.627 234.68 790.32 234.68C806.254 234.68 823.667 227.08 823.667 209.698C823.667 190.046 805.768 188.17 791.997 186.792C783.339 185.901 776.263 185.116 776.263 180.273H776.245ZM696.276 185.107C699.127 177.9 705.325 173.65 714.471 173.65C723.616 173.65 729.128 178.092 731.492 185.107H696.276ZM715.262 156.18C693.52 156.18 676.012 173.161 676.012 195.579C676.012 216.609 691.451 234.776 714.28 234.776C728.05 234.776 739.168 228.162 747.036 216.809L735.039 206.643C730.805 213.162 723.138 217.01 713.993 217.01C704.847 217.01 695.007 210.003 694.224 199.732H750.983V193.607C750.983 171.983 736.326 156.189 715.279 156.189L715.262 156.18ZM649.845 235.023H667.258V161.855H649.845V235.023ZM658.495 126.314C651.41 126.314 645.411 132.239 645.411 139.647C645.411 147.056 651.219 152.387 658.79 152.387C666.362 152.387 671.578 147.152 671.578 139.944C671.578 132.736 665.675 126.322 658.495 126.322V126.314ZM406.485 156.084C398.322 156.084 390.942 158.554 384.648 162.795V124.095H367.235V195.483C367.235 217.202 384.839 234.68 406.381 234.68C427.923 234.68 445.727 217.307 445.727 195.282C445.727 173.257 428.314 156.084 406.477 156.084H406.485ZM316.084 157.271C296.707 159.243 280.868 176.032 280.868 195.98C280.868 217.106 298.871 234.785 319.918 234.785C340.964 234.785 358.968 217.115 358.968 195.98C358.968 186.992 355.725 178.702 350.509 172.184L311.955 124.191H289.431L316.084 157.271ZM181.321 203.531L165.386 161.864H153.189L137.159 203.531L121.129 161.864H102.143L130.178 235.128H142.375L159.197 191.489L176.114 235.128H188.31L216.25 161.864H197.36L181.33 203.531H181.321ZM492.94 156.18C471.198 156.18 453.594 173.161 453.594 194.593C453.594 216.024 469.034 234.776 491.958 234.776C505.728 234.776 516.847 228.162 524.714 216.809L511.144 205.753C507.206 212.865 499.634 217.01 492.062 217.01C482.221 217.01 472.589 210.003 471.798 199.732H528.748V194.401C528.748 171.983 513.995 156.189 492.94 156.189V156.18ZM555.201 178.548V161.864H537.789V235.032H555.201V204.124C555.201 189.098 571.232 179.935 587.071 179.935V161.864H585.297C571.919 161.864 562.182 166.803 555.201 178.548ZM610.482 178.548V161.864H593.069V235.032H610.482V204.124C610.482 189.098 626.512 179.935 642.351 179.935V161.864H640.578C627.199 161.864 617.463 166.803 610.482 178.548ZM254.51 235.023H271.922V124.191H254.51V235.023ZM320.022 217.202C308.025 217.202 298.28 207.525 298.28 195.483C298.28 183.441 308.017 173.659 319.918 173.659C331.819 173.659 341.851 183.336 341.851 195.483C341.851 207.629 332.01 217.202 320.013 217.202H320.022ZM406.39 217.202C394.584 217.202 384.648 207.725 384.648 195.378C384.648 183.031 393.993 173.659 406.485 173.659C418.978 173.659 428.323 183.432 428.323 195.378C428.323 207.324 418.387 217.202 406.39 217.202ZM224.413 235.023H241.826V161.855H224.413V235.023ZM232.872 126.314C225.787 126.314 219.884 132.239 219.884 139.743C219.884 147.248 226.083 152.483 232.872 152.483C240.444 152.483 246.155 146.166 246.155 139.35C246.155 132.535 240.157 126.314 232.872 126.314ZM473.867 185.107C476.814 177.9 482.917 173.65 491.966 173.65C501.016 173.65 506.919 178.092 509.275 185.107H473.867Z" stroke="white" stroke-width="15.592" mask="url(#path-2-outside-1_3110_11770)"/>
<mask id="path-3-outside-2_3110_11770" maskUnits="userSpaceOnUse" x="90.1426" y="351.08" width="552" height="98" fill="black">
<rect fill="white" x="90.1426" y="351.08" width="552" height="98"/>
<path d="M595.793 400.22C595.793 396.897 600.332 394.219 606.24 394.219C612.148 394.219 618.705 397.184 622.951 401.958L630.661 392.488C623.314 385.982 615.891 382.583 606.603 382.583C595.004 382.583 583.048 387.931 583.048 400.226C583.048 415.339 596.016 416.425 606.603 417.288C612.511 417.722 617.769 418.157 617.769 422.061C617.769 426.253 611.791 428.209 606.533 428.209C600.409 428.209 593.781 425.608 588.956 419.748L580.744 428.496C587.301 436.522 596.805 440.062 606.1 440.062C617.769 440.062 630.521 434.497 630.521 421.767C630.521 407.377 617.413 406.003 607.329 404.993C600.988 404.341 595.806 403.766 595.806 400.22H595.793ZM537.231 403.76C539.319 398.482 543.858 395.37 550.555 395.37C557.252 395.37 561.289 398.622 563.02 403.76H537.231ZM551.135 382.576C535.213 382.576 522.391 395.012 522.391 411.428C522.391 426.828 533.698 440.133 550.415 440.133C560.499 440.133 568.642 435.289 574.403 426.975L565.618 419.531C562.517 424.304 556.902 427.122 550.205 427.122C543.508 427.122 536.301 421.991 535.729 414.47H577.293V409.984C577.293 394.149 566.56 382.583 551.147 382.583L551.135 382.576ZM503.229 440.314H515.981V386.732H503.229V440.314ZM509.564 360.705C504.375 360.705 499.983 365.044 499.983 370.469C499.983 375.894 504.235 379.799 509.78 379.799C515.325 379.799 519.145 375.964 519.145 370.686C519.145 365.408 514.822 360.711 509.564 360.711V360.705ZM325.015 382.506C319.037 382.506 313.633 384.315 309.023 387.42V359.08H296.272V411.358C296.272 427.263 309.163 440.062 324.939 440.062C340.714 440.062 353.752 427.34 353.752 411.211C353.752 395.082 341.001 382.506 325.009 382.506H325.015ZM258.814 383.375C244.623 384.819 233.024 397.114 233.024 411.722C233.024 427.193 246.209 440.139 261.621 440.139C277.034 440.139 290.218 427.199 290.218 411.722C290.218 405.14 287.843 399.069 284.024 394.296L255.79 359.15H239.295L258.814 383.375ZM160.125 417.251L148.456 386.738H139.525L127.785 417.251L116.046 386.738H102.143L122.673 440.39H131.605L143.924 408.433L156.312 440.39H165.244L185.705 386.738H171.871L160.132 417.251H160.125ZM388.327 382.576C372.405 382.576 359.513 395.012 359.513 410.706C359.513 426.4 370.82 440.133 387.607 440.133C397.691 440.133 405.833 435.289 411.595 426.975L401.657 418.879C398.773 424.087 393.229 427.122 387.684 427.122C380.477 427.122 373.423 421.991 372.844 414.47H414.549V410.565C414.549 394.149 403.745 382.583 388.327 382.583V382.576ZM433.921 398.956V386.738H421.17V440.32H433.921V417.686C433.921 406.682 445.66 399.972 457.259 399.972V386.738H455.961C446.163 386.738 439.033 390.355 433.921 398.956ZM474.403 398.956V386.738H461.652V440.32H474.403V417.686C474.403 406.682 486.143 399.972 497.742 399.972V386.738H496.443C486.645 386.738 479.515 390.355 474.403 398.956ZM213.722 440.314H226.474V359.15H213.722V440.314ZM261.697 427.263C252.912 427.263 245.776 420.176 245.776 411.358C245.776 402.539 252.906 395.376 261.621 395.376C270.336 395.376 277.683 402.463 277.683 411.358C277.683 420.253 270.476 427.263 261.691 427.263H261.697ZM324.945 427.263C316.3 427.263 309.023 420.323 309.023 411.281C309.023 402.239 315.867 395.376 325.015 395.376C334.163 395.376 341.007 402.533 341.007 411.281C341.007 420.029 333.73 427.263 324.945 427.263ZM191.683 440.314H204.434V386.732H191.683V440.314ZM197.877 360.705C192.688 360.705 188.366 365.044 188.366 370.539C188.366 376.035 192.905 379.869 197.877 379.869C203.422 379.869 207.604 375.242 207.604 370.252C207.604 365.261 203.212 360.705 197.877 360.705ZM374.359 403.76C376.517 398.482 380.986 395.37 387.614 395.37C394.241 395.37 398.563 398.622 400.289 403.76H374.359Z"/>
</mask>
<path d="M595.793 400.22C595.793 396.897 600.332 394.219 606.24 394.219C612.148 394.219 618.705 397.184 622.951 401.958L630.661 392.488C623.314 385.982 615.891 382.583 606.603 382.583C595.004 382.583 583.048 387.931 583.048 400.226C583.048 415.339 596.016 416.425 606.603 417.288C612.511 417.722 617.769 418.157 617.769 422.061C617.769 426.253 611.791 428.209 606.533 428.209C600.409 428.209 593.781 425.608 588.956 419.748L580.744 428.496C587.301 436.522 596.805 440.062 606.1 440.062C617.769 440.062 630.521 434.497 630.521 421.767C630.521 407.377 617.413 406.003 607.329 404.993C600.988 404.341 595.806 403.766 595.806 400.22H595.793ZM537.231 403.76C539.319 398.482 543.858 395.37 550.555 395.37C557.252 395.37 561.289 398.622 563.02 403.76H537.231ZM551.135 382.576C535.213 382.576 522.391 395.012 522.391 411.428C522.391 426.828 533.698 440.133 550.415 440.133C560.499 440.133 568.642 435.289 574.403 426.975L565.618 419.531C562.517 424.304 556.902 427.122 550.205 427.122C543.508 427.122 536.301 421.991 535.729 414.47H577.293V409.984C577.293 394.149 566.56 382.583 551.147 382.583L551.135 382.576ZM503.229 440.314H515.981V386.732H503.229V440.314ZM509.564 360.705C504.375 360.705 499.983 365.044 499.983 370.469C499.983 375.894 504.235 379.799 509.78 379.799C515.325 379.799 519.145 375.964 519.145 370.686C519.145 365.408 514.822 360.711 509.564 360.711V360.705ZM325.015 382.506C319.037 382.506 313.633 384.315 309.023 387.42V359.08H296.272V411.358C296.272 427.263 309.163 440.062 324.939 440.062C340.714 440.062 353.752 427.34 353.752 411.211C353.752 395.082 341.001 382.506 325.009 382.506H325.015ZM258.814 383.375C244.623 384.819 233.024 397.114 233.024 411.722C233.024 427.193 246.209 440.139 261.621 440.139C277.034 440.139 290.218 427.199 290.218 411.722C290.218 405.14 287.843 399.069 284.024 394.296L255.79 359.15H239.295L258.814 383.375ZM160.125 417.251L148.456 386.738H139.525L127.785 417.251L116.046 386.738H102.143L122.673 440.39H131.605L143.924 408.433L156.312 440.39H165.244L185.705 386.738H171.871L160.132 417.251H160.125ZM388.327 382.576C372.405 382.576 359.513 395.012 359.513 410.706C359.513 426.4 370.82 440.133 387.607 440.133C397.691 440.133 405.833 435.289 411.595 426.975L401.657 418.879C398.773 424.087 393.229 427.122 387.684 427.122C380.477 427.122 373.423 421.991 372.844 414.47H414.549V410.565C414.549 394.149 403.745 382.583 388.327 382.583V382.576ZM433.921 398.956V386.738H421.17V440.32H433.921V417.686C433.921 406.682 445.66 399.972 457.259 399.972V386.738H455.961C446.163 386.738 439.033 390.355 433.921 398.956ZM474.403 398.956V386.738H461.652V440.32H474.403V417.686C474.403 406.682 486.143 399.972 497.742 399.972V386.738H496.443C486.645 386.738 479.515 390.355 474.403 398.956ZM213.722 440.314H226.474V359.15H213.722V440.314ZM261.697 427.263C252.912 427.263 245.776 420.176 245.776 411.358C245.776 402.539 252.906 395.376 261.621 395.376C270.336 395.376 277.683 402.463 277.683 411.358C277.683 420.253 270.476 427.263 261.691 427.263H261.697ZM324.945 427.263C316.3 427.263 309.023 420.323 309.023 411.281C309.023 402.239 315.867 395.376 325.015 395.376C334.163 395.376 341.007 402.533 341.007 411.281C341.007 420.029 333.73 427.263 324.945 427.263ZM191.683 440.314H204.434V386.732H191.683V440.314ZM197.877 360.705C192.688 360.705 188.366 365.044 188.366 370.539C188.366 376.035 192.905 379.869 197.877 379.869C203.422 379.869 207.604 375.242 207.604 370.252C207.604 365.261 203.212 360.705 197.877 360.705ZM374.359 403.76C376.517 398.482 380.986 395.37 387.614 395.37C394.241 395.37 398.563 398.622 400.289 403.76H374.359Z" fill="#FF00CC"/>
<path d="M595.793 400.22C595.793 396.897 600.332 394.219 606.24 394.219C612.148 394.219 618.705 397.184 622.951 401.958L630.661 392.488C623.314 385.982 615.891 382.583 606.603 382.583C595.004 382.583 583.048 387.931 583.048 400.226C583.048 415.339 596.016 416.425 606.603 417.288C612.511 417.722 617.769 418.157 617.769 422.061C617.769 426.253 611.791 428.209 606.533 428.209C600.409 428.209 593.781 425.608 588.956 419.748L580.744 428.496C587.301 436.522 596.805 440.062 606.1 440.062C617.769 440.062 630.521 434.497 630.521 421.767C630.521 407.377 617.413 406.003 607.329 404.993C600.988 404.341 595.806 403.766 595.806 400.22H595.793ZM537.231 403.76C539.319 398.482 543.858 395.37 550.555 395.37C557.252 395.37 561.289 398.622 563.02 403.76H537.231ZM551.135 382.576C535.213 382.576 522.391 395.012 522.391 411.428C522.391 426.828 533.698 440.133 550.415 440.133C560.499 440.133 568.642 435.289 574.403 426.975L565.618 419.531C562.517 424.304 556.902 427.122 550.205 427.122C543.508 427.122 536.301 421.991 535.729 414.47H577.293V409.984C577.293 394.149 566.56 382.583 551.147 382.583L551.135 382.576ZM503.229 440.314H515.981V386.732H503.229V440.314ZM509.564 360.705C504.375 360.705 499.983 365.044 499.983 370.469C499.983 375.894 504.235 379.799 509.78 379.799C515.325 379.799 519.145 375.964 519.145 370.686C519.145 365.408 514.822 360.711 509.564 360.711V360.705ZM325.015 382.506C319.037 382.506 313.633 384.315 309.023 387.42V359.08H296.272V411.358C296.272 427.263 309.163 440.062 324.939 440.062C340.714 440.062 353.752 427.34 353.752 411.211C353.752 395.082 341.001 382.506 325.009 382.506H325.015ZM258.814 383.375C244.623 384.819 233.024 397.114 233.024 411.722C233.024 427.193 246.209 440.139 261.621 440.139C277.034 440.139 290.218 427.199 290.218 411.722C290.218 405.14 287.843 399.069 284.024 394.296L255.79 359.15H239.295L258.814 383.375ZM160.125 417.251L148.456 386.738H139.525L127.785 417.251L116.046 386.738H102.143L122.673 440.39H131.605L143.924 408.433L156.312 440.39H165.244L185.705 386.738H171.871L160.132 417.251H160.125ZM388.327 382.576C372.405 382.576 359.513 395.012 359.513 410.706C359.513 426.4 370.82 440.133 387.607 440.133C397.691 440.133 405.833 435.289 411.595 426.975L401.657 418.879C398.773 424.087 393.229 427.122 387.684 427.122C380.477 427.122 373.423 421.991 372.844 414.47H414.549V410.565C414.549 394.149 403.745 382.583 388.327 382.583V382.576ZM433.921 398.956V386.738H421.17V440.32H433.921V417.686C433.921 406.682 445.66 399.972 457.259 399.972V386.738H455.961C446.163 386.738 439.033 390.355 433.921 398.956ZM474.403 398.956V386.738H461.652V440.32H474.403V417.686C474.403 406.682 486.143 399.972 497.742 399.972V386.738H496.443C486.645 386.738 479.515 390.355 474.403 398.956ZM213.722 440.314H226.474V359.15H213.722V440.314ZM261.697 427.263C252.912 427.263 245.776 420.176 245.776 411.358C245.776 402.539 252.906 395.376 261.621 395.376C270.336 395.376 277.683 402.463 277.683 411.358C277.683 420.253 270.476 427.263 261.691 427.263H261.697ZM324.945 427.263C316.3 427.263 309.023 420.323 309.023 411.281C309.023 402.239 315.867 395.376 325.015 395.376C334.163 395.376 341.007 402.533 341.007 411.281C341.007 420.029 333.73 427.263 324.945 427.263ZM191.683 440.314H204.434V386.732H191.683V440.314ZM197.877 360.705C192.688 360.705 188.366 365.044 188.366 370.539C188.366 376.035 192.905 379.869 197.877 379.869C203.422 379.869 207.604 375.242 207.604 370.252C207.604 365.261 203.212 360.705 197.877 360.705ZM374.359 403.76C376.517 398.482 380.986 395.37 387.614 395.37C394.241 395.37 398.563 398.622 400.289 403.76H374.359Z" stroke="white" stroke-width="15.592" mask="url(#path-3-outside-2_3110_11770)"/>
<mask id="path-4-outside-3_3110_11770" maskUnits="userSpaceOnUse" x="90.1426" y="556.339" width="423" height="78" fill="black">
<rect fill="white" x="90.1426" y="556.339" width="423" height="78"/>
<path d="M475.492 595.454C475.492 592.94 478.925 590.916 483.393 590.916C487.861 590.916 492.82 593.158 496.031 596.768L501.862 589.606C496.306 584.686 490.692 582.115 483.667 582.115C474.895 582.115 465.853 586.16 465.853 595.458C465.853 606.888 475.66 607.71 483.667 608.362C488.135 608.691 492.112 609.02 492.112 611.972C492.112 615.143 487.591 616.622 483.614 616.622C478.982 616.622 473.97 614.655 470.321 610.223L464.11 616.839C469.069 622.909 476.257 625.587 483.287 625.587C492.112 625.587 501.756 621.377 501.756 611.75C501.756 600.866 491.843 599.827 484.216 599.064C479.421 598.571 475.501 598.136 475.501 595.454H475.492ZM431.201 598.131C432.78 594.139 436.213 591.785 441.278 591.785C446.343 591.785 449.396 594.245 450.706 598.131H431.201ZM441.716 582.11C429.675 582.11 419.978 591.515 419.978 603.931C419.978 615.578 428.529 625.64 441.172 625.64C448.799 625.64 454.957 621.977 459.314 615.689L452.67 610.059C450.325 613.669 446.079 615.8 441.013 615.8C435.948 615.8 430.498 611.919 430.065 606.231H461.5V602.838C461.5 590.862 453.383 582.115 441.726 582.115L441.716 582.11ZM405.486 625.777H415.129V585.253H405.486V625.777ZM410.276 565.568C406.352 565.568 403.03 568.85 403.03 572.953C403.03 577.056 406.246 580.009 410.44 580.009C414.634 580.009 417.522 577.109 417.522 573.117C417.522 569.125 414.253 565.573 410.276 565.573V565.568ZM270.702 582.057C266.181 582.057 262.093 583.424 258.607 585.773V564.339H248.963V603.877C248.963 615.906 258.713 625.587 270.644 625.587C282.575 625.587 292.435 615.964 292.435 603.766C292.435 591.568 282.792 582.057 270.697 582.057H270.702ZM220.633 582.714C209.901 583.806 201.129 593.105 201.129 604.153C201.129 615.853 211.1 625.645 222.757 625.645C234.413 625.645 244.384 615.858 244.384 604.153C244.384 599.175 242.588 594.584 239.7 590.973L218.346 564.393H205.871L220.633 582.714ZM145.995 608.335L137.17 585.258H130.415L121.536 608.335L112.658 585.258H102.143L117.67 625.835H124.425L133.742 601.665L143.111 625.835H149.866L165.341 585.258H154.878L146 608.335H145.995ZM318.584 582.11C306.543 582.11 296.793 591.515 296.793 603.384C296.793 615.254 305.344 625.64 318.04 625.64C325.667 625.64 331.825 621.977 336.182 615.689L328.666 609.566C326.485 613.504 322.292 615.8 318.098 615.8C312.648 615.8 307.313 611.919 306.875 606.231H338.416V603.278C338.416 590.862 330.246 582.115 318.584 582.115V582.11ZM353.067 594.498V585.258H343.424V625.782H353.067V608.663C353.067 600.341 361.946 595.267 370.718 595.267V585.258H369.736C362.326 585.258 356.934 587.993 353.067 594.498ZM383.684 594.498V585.258H374.04V625.782H383.684V608.663C383.684 600.341 392.563 595.267 401.335 595.267V585.258H400.353C392.943 585.258 387.551 587.993 383.684 594.498ZM186.53 625.777H196.174V564.393H186.53V625.777ZM222.814 615.906C216.17 615.906 210.773 610.547 210.773 603.877C210.773 597.208 216.165 591.79 222.757 591.79C229.348 591.79 234.904 597.15 234.904 603.877C234.904 610.605 229.454 615.906 222.81 615.906H222.814ZM270.649 615.906C264.11 615.906 258.607 610.658 258.607 603.819C258.607 596.981 263.783 591.79 270.702 591.79C277.621 591.79 282.796 597.203 282.796 603.819C282.796 610.436 277.293 615.906 270.649 615.906ZM169.862 625.777H179.506V585.253H169.862V625.777ZM174.547 565.568C170.623 565.568 167.353 568.85 167.353 573.006C167.353 577.162 170.786 580.062 174.547 580.062C178.74 580.062 181.904 576.563 181.904 572.789C181.904 569.014 178.581 565.568 174.547 565.568ZM308.021 598.131C309.653 594.139 313.033 591.785 318.045 591.785C323.057 591.785 326.326 594.245 327.631 598.131H308.021Z"/>
</mask>
<path d="M475.492 595.454C475.492 592.94 478.925 590.916 483.393 590.916C487.861 590.916 492.82 593.158 496.031 596.768L501.862 589.606C496.306 584.686 490.692 582.115 483.667 582.115C474.895 582.115 465.853 586.16 465.853 595.458C465.853 606.888 475.66 607.71 483.667 608.362C488.135 608.691 492.112 609.02 492.112 611.972C492.112 615.143 487.591 616.622 483.614 616.622C478.982 616.622 473.97 614.655 470.321 610.223L464.11 616.839C469.069 622.909 476.257 625.587 483.287 625.587C492.112 625.587 501.756 621.377 501.756 611.75C501.756 600.866 491.843 599.827 484.216 599.064C479.421 598.571 475.501 598.136 475.501 595.454H475.492ZM431.201 598.131C432.78 594.139 436.213 591.785 441.278 591.785C446.343 591.785 449.396 594.245 450.706 598.131H431.201ZM441.716 582.11C429.675 582.11 419.978 591.515 419.978 603.931C419.978 615.578 428.529 625.64 441.172 625.64C448.799 625.64 454.957 621.977 459.314 615.689L452.67 610.059C450.325 613.669 446.079 615.8 441.013 615.8C435.948 615.8 430.498 611.919 430.065 606.231H461.5V602.838C461.5 590.862 453.383 582.115 441.726 582.115L441.716 582.11ZM405.486 625.777H415.129V585.253H405.486V625.777ZM410.276 565.568C406.352 565.568 403.03 568.85 403.03 572.953C403.03 577.056 406.246 580.009 410.44 580.009C414.634 580.009 417.522 577.109 417.522 573.117C417.522 569.125 414.253 565.573 410.276 565.573V565.568ZM270.702 582.057C266.181 582.057 262.093 583.424 258.607 585.773V564.339H248.963V603.877C248.963 615.906 258.713 625.587 270.644 625.587C282.575 625.587 292.435 615.964 292.435 603.766C292.435 591.568 282.792 582.057 270.697 582.057H270.702ZM220.633 582.714C209.901 583.806 201.129 593.105 201.129 604.153C201.129 615.853 211.1 625.645 222.757 625.645C234.413 625.645 244.384 615.858 244.384 604.153C244.384 599.175 242.588 594.584 239.7 590.973L218.346 564.393H205.871L220.633 582.714ZM145.995 608.335L137.17 585.258H130.415L121.536 608.335L112.658 585.258H102.143L117.67 625.835H124.425L133.742 601.665L143.111 625.835H149.866L165.341 585.258H154.878L146 608.335H145.995ZM318.584 582.11C306.543 582.11 296.793 591.515 296.793 603.384C296.793 615.254 305.344 625.64 318.04 625.64C325.667 625.64 331.825 621.977 336.182 615.689L328.666 609.566C326.485 613.504 322.292 615.8 318.098 615.8C312.648 615.8 307.313 611.919 306.875 606.231H338.416V603.278C338.416 590.862 330.246 582.115 318.584 582.115V582.11ZM353.067 594.498V585.258H343.424V625.782H353.067V608.663C353.067 600.341 361.946 595.267 370.718 595.267V585.258H369.736C362.326 585.258 356.934 587.993 353.067 594.498ZM383.684 594.498V585.258H374.04V625.782H383.684V608.663C383.684 600.341 392.563 595.267 401.335 595.267V585.258H400.353C392.943 585.258 387.551 587.993 383.684 594.498ZM186.53 625.777H196.174V564.393H186.53V625.777ZM222.814 615.906C216.17 615.906 210.773 610.547 210.773 603.877C210.773 597.208 216.165 591.79 222.757 591.79C229.348 591.79 234.904 597.15 234.904 603.877C234.904 610.605 229.454 615.906 222.81 615.906H222.814ZM270.649 615.906C264.11 615.906 258.607 610.658 258.607 603.819C258.607 596.981 263.783 591.79 270.702 591.79C277.621 591.79 282.796 597.203 282.796 603.819C282.796 610.436 277.293 615.906 270.649 615.906ZM169.862 625.777H179.506V585.253H169.862V625.777ZM174.547 565.568C170.623 565.568 167.353 568.85 167.353 573.006C167.353 577.162 170.786 580.062 174.547 580.062C178.74 580.062 181.904 576.563 181.904 572.789C181.904 569.014 178.581 565.568 174.547 565.568ZM308.021 598.131C309.653 594.139 313.033 591.785 318.045 591.785C323.057 591.785 326.326 594.245 327.631 598.131H308.021Z" fill="#FF00CC"/>
<path d="M475.492 595.454C475.492 592.94 478.925 590.916 483.393 590.916C487.861 590.916 492.82 593.158 496.031 596.768L501.862 589.606C496.306 584.686 490.692 582.115 483.667 582.115C474.895 582.115 465.853 586.16 465.853 595.458C465.853 606.888 475.66 607.71 483.667 608.362C488.135 608.691 492.112 609.02 492.112 611.972C492.112 615.143 487.591 616.622 483.614 616.622C478.982 616.622 473.97 614.655 470.321 610.223L464.11 616.839C469.069 622.909 476.257 625.587 483.287 625.587C492.112 625.587 501.756 621.377 501.756 611.75C501.756 600.866 491.843 599.827 484.216 599.064C479.421 598.571 475.501 598.136 475.501 595.454H475.492ZM431.201 598.131C432.78 594.139 436.213 591.785 441.278 591.785C446.343 591.785 449.396 594.245 450.706 598.131H431.201ZM441.716 582.11C429.675 582.11 419.978 591.515 419.978 603.931C419.978 615.578 428.529 625.64 441.172 625.64C448.799 625.64 454.957 621.977 459.314 615.689L452.67 610.059C450.325 613.669 446.079 615.8 441.013 615.8C435.948 615.8 430.498 611.919 430.065 606.231H461.5V602.838C461.5 590.862 453.383 582.115 441.726 582.115L441.716 582.11ZM405.486 625.777H415.129V585.253H405.486V625.777ZM410.276 565.568C406.352 565.568 403.03 568.85 403.03 572.953C403.03 577.056 406.246 580.009 410.44 580.009C414.634 580.009 417.522 577.109 417.522 573.117C417.522 569.125 414.253 565.573 410.276 565.573V565.568ZM270.702 582.057C266.181 582.057 262.093 583.424 258.607 585.773V564.339H248.963V603.877C248.963 615.906 258.713 625.587 270.644 625.587C282.575 625.587 292.435 615.964 292.435 603.766C292.435 591.568 282.792 582.057 270.697 582.057H270.702ZM220.633 582.714C209.901 583.806 201.129 593.105 201.129 604.153C201.129 615.853 211.1 625.645 222.757 625.645C234.413 625.645 244.384 615.858 244.384 604.153C244.384 599.175 242.588 594.584 239.7 590.973L218.346 564.393H205.871L220.633 582.714ZM145.995 608.335L137.17 585.258H130.415L121.536 608.335L112.658 585.258H102.143L117.67 625.835H124.425L133.742 601.665L143.111 625.835H149.866L165.341 585.258H154.878L146 608.335H145.995ZM318.584 582.11C306.543 582.11 296.793 591.515 296.793 603.384C296.793 615.254 305.344 625.64 318.04 625.64C325.667 625.64 331.825 621.977 336.182 615.689L328.666 609.566C326.485 613.504 322.292 615.8 318.098 615.8C312.648 615.8 307.313 611.919 306.875 606.231H338.416V603.278C338.416 590.862 330.246 582.115 318.584 582.115V582.11ZM353.067 594.498V585.258H343.424V625.782H353.067V608.663C353.067 600.341 361.946 595.267 370.718 595.267V585.258H369.736C362.326 585.258 356.934 587.993 353.067 594.498ZM383.684 594.498V585.258H374.04V625.782H383.684V608.663C383.684 600.341 392.563 595.267 401.335 595.267V585.258H400.353C392.943 585.258 387.551 587.993 383.684 594.498ZM186.53 625.777H196.174V564.393H186.53V625.777ZM222.814 615.906C216.17 615.906 210.773 610.547 210.773 603.877C210.773 597.208 216.165 591.79 222.757 591.79C229.348 591.79 234.904 597.15 234.904 603.877C234.904 610.605 229.454 615.906 222.81 615.906H222.814ZM270.649 615.906C264.11 615.906 258.607 610.658 258.607 603.819C258.607 596.981 263.783 591.79 270.702 591.79C277.621 591.79 282.796 597.203 282.796 603.819C282.796 610.436 277.293 615.906 270.649 615.906ZM169.862 625.777H179.506V585.253H169.862V625.777ZM174.547 565.568C170.623 565.568 167.353 568.85 167.353 573.006C167.353 577.162 170.786 580.062 174.547 580.062C178.74 580.062 181.904 576.563 181.904 572.789C181.904 569.014 178.581 565.568 174.547 565.568ZM308.021 598.131C309.653 594.139 313.033 591.785 318.045 591.785C323.057 591.785 326.326 594.245 327.631 598.131H308.021Z" stroke="white" stroke-width="15.592" mask="url(#path-4-outside-3_3110_11770)"/>
</g>
<defs>
<clipPath id="clip0_3110_11770">
<rect width="930.278" height="754.28" fill="white" transform="translate(0 0.918457)"/>
</clipPath>
</defs>
</svg>
