<svg width="445" height="756" viewBox="0 0 445 756" fill="none" xmlns="http://www.w3.org/2000/svg">
<g clip-path="url(#clip0_3110_11808)">
<rect x="0.546875" y="0.212646" width="930.278" height="754.28" fill="#EDEDED"/>
<rect x="73.2568" y="85.584" width="298.087" height="207.268" fill="#FF00CC"/>
<path d="M282.997 159.189C275.066 159.189 267.895 161.589 261.779 165.709V128.107H244.861V197.469C244.861 218.572 261.965 235.554 282.896 235.554C303.826 235.554 321.125 218.674 321.125 197.274C321.125 175.875 304.206 159.189 282.989 159.189H282.997ZM200.408 205.29L184.925 164.805H173.075L157.499 205.29L141.924 164.805H123.477L150.717 235.99H162.567L178.911 193.589L195.348 235.99H207.199L234.346 164.805H215.992L200.416 205.29H200.408ZM282.904 218.572C271.434 218.572 261.779 209.365 261.779 197.368C261.779 185.371 270.859 176.265 282.997 176.265C295.135 176.265 304.215 185.761 304.215 197.368C304.215 208.975 294.56 218.572 282.904 218.572Z" fill="white"/>
<path d="M73.2568 347.809H290.341V500.119H73.2568V347.809Z" fill="#FF00CC"/>
<path d="M225.658 401.897C219.829 401.897 214.56 403.66 210.066 406.688V379.056H197.633V430.027C197.633 445.534 210.202 458.013 225.583 458.013C240.964 458.013 253.676 445.609 253.676 429.883C253.676 414.158 241.243 401.897 225.651 401.897H225.658ZM166.457 435.773L155.079 406.023H146.371L134.925 435.773L123.48 406.023H109.924L129.941 458.333H138.65L150.66 427.175L162.739 458.333H171.447L191.396 406.023H177.908L166.463 435.773H166.457ZM225.589 445.534C217.16 445.534 210.066 438.768 210.066 429.952C210.066 421.136 216.738 414.445 225.658 414.445C234.577 414.445 241.249 421.423 241.249 429.952C241.249 438.481 234.155 445.534 225.589 445.534Z" fill="white"/>
<path d="M73.2568 555.076H255.337V669.701H73.2568V555.076Z" fill="#FF00CC"/>
<path d="M196.217 595.782C191.831 595.782 187.865 597.109 184.483 599.387V578.593H175.127V616.952C175.127 628.622 184.586 638.014 196.161 638.014C207.736 638.014 217.303 628.679 217.303 616.844C217.303 605.009 207.947 595.782 196.213 595.782H196.217ZM153.834 621.276L145.272 598.887H138.718L130.105 621.276L121.491 598.887H111.289L126.354 638.254H132.907L141.946 614.806L151.036 638.254H157.59L172.603 598.887H162.453L153.839 621.276H153.834ZM196.166 628.622C189.822 628.622 184.483 623.53 184.483 616.896C184.483 610.261 189.505 605.225 196.217 605.225C202.93 605.225 207.951 610.477 207.951 616.896C207.951 623.315 202.612 628.622 196.166 628.622Z" fill="white"/>
</g>
<defs>
<clipPath id="clip0_3110_11808">
<rect width="443.505" height="754.499" fill="white" transform="translate(0.546875 0.79248)"/>
</clipPath>
</defs>
</svg>
