<svg width="1362" height="769" viewBox="0 0 1362 769" fill="none" xmlns="http://www.w3.org/2000/svg">
<g clip-path="url(#clip0_3112_11037)">
<rect width="1362" height="768" transform="translate(0 0.125977)" fill="#EDEDED"/>
<rect width="1257.33" height="520" transform="translate(153 124.384)" fill="#DFDBD8"/>
<path fill-rule="evenodd" clip-rule="evenodd" d="M263.295 311.355H389.888V527.837H263.295V311.355Z" fill="#F5F5F5" stroke="#555555" stroke-width="0.879865"/>
<path d="M275.279 323.343H377.902V515.855H275.279V323.343Z" fill="#B5DADA" stroke="#555555" stroke-width="0.749074"/>
<rect x="260.402" y="527.527" width="131.088" height="2.9963" fill="#555555"/>
<g opacity="0.3">
<path d="M260.403 530.523H391.491L384.927 539.512H253.661L260.403 530.523Z" fill="#A0A0A0"/>
<path d="M253.661 539.512L260.403 530.523V527.527L253.661 536.515V539.512Z" fill="#A0A0A0"/>
</g>
<path fill-rule="evenodd" clip-rule="evenodd" d="M809.692 311.355H936.286V527.837H809.692V311.355Z" fill="#F5F5F5" stroke="#555555" stroke-width="0.879865"/>
<path d="M821.677 323.343H924.3V515.855H821.677V323.343Z" fill="#B5DADA" stroke="#555555" stroke-width="0.749074"/>
<rect x="806.799" y="527.527" width="131.088" height="2.9963" fill="#555555"/>
<g opacity="0.3">
<path d="M806.799 530.523H937.887L931.324 539.512H800.058L806.799 530.523Z" fill="#A0A0A0"/>
<path d="M800.058 539.512L806.799 530.523V527.527L800.058 536.515V539.512Z" fill="#A0A0A0"/>
</g>
<path fill-rule="evenodd" clip-rule="evenodd" d="M1056.58 311.355H1183.17V527.837H1056.58V311.355Z" fill="#F5F5F5" stroke="#555555" stroke-width="0.879865"/>
<path d="M1068.56 323.343H1171.19V515.855H1068.56V323.343Z" fill="#B5DADA" stroke="#555555" stroke-width="0.749074"/>
<rect x="1053.68" y="527.527" width="131.088" height="2.9963" fill="#555555"/>
<g opacity="0.3">
<path d="M1053.68 530.523H1184.77L1178.21 539.512H1046.94L1053.68 530.523Z" fill="#A0A0A0"/>
<path d="M1046.94 539.512L1053.68 530.523V527.527L1046.94 536.515V539.512Z" fill="#A0A0A0"/>
</g>
<rect x="153" y="581.033" width="1257.33" height="63.3503" fill="#888585"/>
<rect x="153" y="124.384" width="1257.33" height="11.4382" fill="#888585"/>
<rect width="179.492" height="332.589" transform="translate(511.104 311.795)" fill="#F5F5F5"/>
<path d="M581.455 378.313H669.811V630.159H581.455V378.313Z" fill="#B5DADA"/>
<path d="M555.043 378.313H532.472V631.039H555.043V378.313Z" fill="#B5DADA"/>
<path d="M532.199 323.769V351.728H669.226V323.769H532.199Z" fill="#B5DADA"/>
<path d="M568.274 644.009H683.119V365.009M568.274 644.009H518.612V365.009M568.274 644.009V365.009M568.274 365.009H518.612M568.274 365.009H683.119M518.612 365.009V312.17M683.119 365.009V312.17M511.545 312.17H690.157V644.009H511.545V312.17ZM581.455 378.313H669.811V630.159H581.455V378.313ZM555.043 378.313H532.472V631.039H555.043V378.313ZM532.199 351.728V323.769H669.226V351.728H532.199Z" stroke="#555555" stroke-width="0.879865"/>
<path d="M630.177 404.751H622.162C613.308 404.751 606.131 411.929 606.131 420.782V428.797C606.131 437.651 613.308 444.828 622.162 444.828H630.177C639.031 444.828 646.208 437.651 646.208 428.797V420.782C646.208 411.929 639.031 404.751 630.177 404.751Z" stroke="#555555" stroke-width="1.02698" stroke-miterlimit="10"/>
<path d="M616.284 414.54V422.056H614.922V415.865H614.878L613.12 416.988V415.74L614.988 414.54H616.284Z" fill="#FF00CC"/>
<path d="M621.643 422.199C621.038 422.199 620.52 422.045 620.088 421.738C619.656 421.432 619.325 420.987 619.094 420.406C618.862 419.826 618.747 419.125 618.747 418.305C618.749 417.486 618.867 416.788 619.098 416.212C619.329 415.635 619.66 415.196 620.092 414.892C620.524 414.589 621.041 414.437 621.643 414.437C622.244 414.437 622.762 414.589 623.195 414.892C623.628 415.196 623.961 415.636 624.192 416.213C624.423 416.791 624.538 417.488 624.538 418.305C624.538 419.122 624.422 419.829 624.192 420.41C623.96 420.991 623.629 421.435 623.197 421.741C622.765 422.047 622.247 422.199 621.643 422.199V422.199ZM621.643 421.05C622.113 421.05 622.483 420.819 622.757 420.355C623.029 419.891 623.166 419.208 623.166 418.305C623.166 417.708 623.103 417.206 622.978 416.8C622.854 416.395 622.677 416.088 622.45 415.881C622.223 415.674 621.954 415.571 621.643 415.571C621.175 415.571 620.806 415.803 620.534 416.267C620.263 416.73 620.126 417.41 620.123 418.305C620.121 418.905 620.181 419.409 620.305 419.817C620.428 420.226 620.604 420.534 620.832 420.74C621.059 420.947 621.33 421.05 621.643 421.05Z" fill="#FF00CC"/>
<path d="M626.223 417.43C626 417.43 625.81 417.351 625.651 417.193C625.492 417.035 625.413 416.845 625.416 416.622C625.414 416.402 625.492 416.213 625.651 416.055C625.81 415.897 626.001 415.819 626.223 415.819C626.446 415.819 626.626 415.897 626.787 416.055C626.947 416.213 627.028 416.402 627.031 416.622C627.028 416.769 626.99 416.904 626.915 417.026C626.841 417.148 626.742 417.246 626.622 417.319C626.501 417.393 626.368 417.43 626.223 417.43ZM626.223 421.154C626 421.154 625.81 421.076 625.651 420.918C625.492 420.76 625.413 420.57 625.416 420.347C625.414 420.127 625.492 419.939 625.651 419.782C625.81 419.626 626.001 419.547 626.223 419.547C626.446 419.547 626.626 419.626 626.787 419.782C626.947 419.939 627.028 420.127 627.031 420.347C627.028 420.497 626.99 420.632 626.915 420.755C626.841 420.877 626.742 420.974 626.622 421.046C626.501 421.118 626.368 421.154 626.223 421.154Z" fill="#FF00CC"/>
<path d="M630.802 422.199C630.198 422.199 629.679 422.045 629.247 421.738C628.815 421.432 628.484 420.987 628.253 420.406C628.021 419.826 627.906 419.125 627.906 418.305C627.909 417.486 628.026 416.788 628.257 416.212C628.488 415.635 628.82 415.196 629.251 414.892C629.683 414.589 630.2 414.437 630.802 414.437C631.404 414.437 631.921 414.589 632.354 414.892C632.787 415.196 633.12 415.636 633.351 416.213C633.582 416.791 633.697 417.488 633.697 418.305C633.697 419.122 633.582 419.829 633.351 420.41C633.119 420.991 632.788 421.435 632.356 421.741C631.924 422.047 631.406 422.199 630.802 422.199V422.199ZM630.802 421.05C631.272 421.05 631.643 420.819 631.916 420.355C632.188 419.891 632.325 419.208 632.325 418.305C632.325 417.708 632.262 417.206 632.138 416.8C632.013 416.395 631.837 416.088 631.609 415.881C631.382 415.674 631.113 415.571 630.802 415.571C630.334 415.571 629.965 415.803 629.694 416.267C629.422 416.73 629.285 417.41 629.282 418.305C629.28 418.905 629.34 419.409 629.464 419.817C629.587 420.226 629.763 420.534 629.991 420.74C630.219 420.947 630.489 421.05 630.802 421.05Z" fill="#FF00CC"/>
<path d="M637.227 422.199C636.622 422.199 636.104 422.045 635.672 421.738C635.24 421.432 634.909 420.987 634.678 420.406C634.446 419.826 634.331 419.125 634.331 418.305C634.333 417.486 634.451 416.788 634.681 416.212C634.913 415.635 635.244 415.196 635.676 414.892C636.108 414.589 636.625 414.437 637.227 414.437C637.828 414.437 638.346 414.589 638.779 414.892C639.212 415.196 639.545 415.636 639.776 416.213C640.007 416.791 640.122 417.488 640.122 418.305C640.122 419.122 640.006 419.829 639.776 420.41C639.544 420.991 639.213 421.435 638.781 421.741C638.349 422.047 637.831 422.199 637.227 422.199V422.199ZM637.227 421.05C637.697 421.05 638.067 420.819 638.341 420.355C638.613 419.891 638.75 419.208 638.75 418.305C638.75 417.708 638.687 417.206 638.562 416.8C638.438 416.395 638.261 416.088 638.034 415.881C637.807 415.674 637.538 415.571 637.227 415.571C636.759 415.571 636.39 415.803 636.118 416.267C635.847 416.73 635.71 417.41 635.707 418.305C635.705 418.905 635.765 419.409 635.889 419.817C636.012 420.226 636.188 420.534 636.416 420.74C636.643 420.947 636.914 421.05 637.227 421.05Z" fill="#FF00CC"/>
<path d="M612.765 431.329V430.346L615.375 427.788C615.624 427.536 615.833 427.312 615.999 427.116C616.165 426.92 616.29 426.731 616.373 426.547C616.456 426.364 616.498 426.168 616.498 425.96C616.498 425.723 616.444 425.519 616.336 425.349C616.228 425.179 616.081 425.047 615.892 424.954C615.704 424.861 615.49 424.815 615.25 424.815C615.011 424.815 614.786 424.866 614.601 424.967C614.415 425.069 614.271 425.212 614.169 425.398C614.068 425.584 614.017 425.806 614.017 426.063H612.722C612.722 425.585 612.831 425.171 613.048 424.818C613.266 424.466 613.566 424.193 613.949 424C614.332 423.806 614.772 423.71 615.269 423.71C615.765 423.71 616.216 423.804 616.597 423.993C616.979 424.181 617.276 424.439 617.488 424.767C617.699 425.095 617.805 425.469 617.805 425.89C617.805 426.171 617.751 426.448 617.643 426.719C617.535 426.991 617.346 427.292 617.076 427.622C616.806 427.953 616.427 428.353 615.94 428.822L614.645 430.14V430.191H617.919V431.329H612.766L612.765 431.329Z" fill="#FF00CC"/>
<path d="M619.316 431.329V430.346L621.926 427.788C622.175 427.536 622.383 427.312 622.55 427.116C622.716 426.92 622.841 426.731 622.924 426.547C623.007 426.364 623.049 426.168 623.049 425.96C623.049 425.723 622.995 425.519 622.887 425.349C622.779 425.179 622.631 425.047 622.443 424.954C622.255 424.861 622.04 424.815 621.801 424.815C621.561 424.815 621.337 424.866 621.151 424.967C620.965 425.069 620.822 425.212 620.72 425.398C620.619 425.584 620.568 425.806 620.568 426.063H619.272C619.272 425.585 619.382 425.171 619.599 424.818C619.817 424.466 620.117 424.193 620.5 424C620.883 423.806 621.323 423.71 621.819 423.71C622.316 423.71 622.766 423.804 623.148 423.993C623.53 424.181 623.826 424.439 624.038 424.767C624.25 425.095 624.356 425.469 624.356 425.89C624.356 426.171 624.302 426.448 624.194 426.719C624.086 426.991 623.897 427.292 623.627 427.622C623.356 427.953 622.977 428.353 622.491 428.822L621.195 430.14V430.191H624.469V431.329H619.317L619.316 431.329Z" fill="#FF00CC"/>
<path d="M626.223 426.7C626 426.7 625.81 426.621 625.651 426.463C625.492 426.305 625.413 426.115 625.416 425.892C625.414 425.672 625.492 425.483 625.651 425.325C625.81 425.167 626.001 425.088 626.223 425.088C626.446 425.088 626.626 425.167 626.787 425.325C626.947 425.483 627.028 425.671 627.031 425.892C627.028 426.039 626.99 426.173 626.915 426.295C626.841 426.418 626.742 426.516 626.622 426.589C626.501 426.663 626.368 426.699 626.223 426.699V426.7ZM626.223 430.424C626 430.424 625.81 430.346 625.651 430.188C625.492 430.03 625.413 429.84 625.416 429.617C625.414 429.397 625.492 429.208 625.651 429.052C625.81 428.895 626.001 428.817 626.223 428.817C626.446 428.817 626.626 428.895 626.787 429.052C626.947 429.208 627.028 429.397 627.031 429.617C627.028 429.766 626.99 429.902 626.915 430.024C626.841 430.147 626.742 430.244 626.622 430.316C626.501 430.388 626.368 430.424 626.223 430.424V430.424Z" fill="#FF00CC"/>
<path d="M630.856 431.472C630.252 431.472 629.734 431.318 629.302 431.011C628.87 430.705 628.539 430.26 628.308 429.679C628.076 429.098 627.961 428.398 627.961 427.578C627.963 426.759 628.08 426.061 628.311 425.484C628.543 424.908 628.874 424.468 629.306 424.165C629.738 423.862 630.255 423.71 630.856 423.71C631.458 423.71 631.976 423.862 632.409 424.165C632.842 424.469 633.174 424.909 633.405 425.486C633.637 426.064 633.752 426.761 633.752 427.578C633.752 428.395 633.636 429.102 633.405 429.683C633.174 430.264 632.843 430.708 632.411 431.013C631.979 431.319 631.461 431.472 630.856 431.472ZM630.856 430.323C631.326 430.323 631.697 430.091 631.97 429.628C632.243 429.164 632.38 428.481 632.38 427.578C632.38 426.981 632.317 426.479 632.192 426.073C632.068 425.668 631.891 425.361 631.664 425.154C631.436 424.947 631.168 424.844 630.856 424.844C630.389 424.844 630.02 425.076 629.748 425.539C629.477 426.003 629.339 426.683 629.337 427.578C629.335 428.178 629.395 428.682 629.519 429.09C629.642 429.499 629.818 429.806 630.046 430.013C630.273 430.22 630.544 430.323 630.856 430.323Z" fill="#FF00CC"/>
<path d="M637.285 431.472C636.681 431.472 636.163 431.318 635.731 431.011C635.299 430.705 634.967 430.26 634.736 429.679C634.505 429.098 634.39 428.398 634.39 427.578C634.392 426.759 634.509 426.061 634.74 425.484C634.972 424.908 635.303 424.468 635.735 424.165C636.167 423.862 636.683 423.71 637.285 423.71C637.887 423.71 638.404 423.862 638.838 424.165C639.271 424.469 639.603 424.909 639.834 425.486C640.066 426.064 640.181 426.761 640.181 427.578C640.181 428.395 640.065 429.102 639.834 429.683C639.603 430.264 639.271 430.708 638.84 431.013C638.408 431.319 637.89 431.472 637.285 431.472ZM637.285 430.323C637.755 430.323 638.126 430.091 638.399 429.628C638.672 429.164 638.808 428.481 638.808 427.578C638.808 426.981 638.746 426.479 638.621 426.073C638.496 425.668 638.32 425.361 638.093 425.154C637.865 424.947 637.596 424.844 637.285 424.844C636.818 424.844 636.448 425.076 636.177 425.539C635.905 426.003 635.768 426.683 635.766 427.578C635.763 428.178 635.824 428.682 635.947 429.09C636.071 429.499 636.247 429.806 636.474 430.013C636.702 430.22 636.972 430.323 637.285 430.323Z" fill="#FF00CC"/>
<path d="M618.101 420.916H613.12V422.054H618.101V420.916Z" fill="#FF00CC"/>
<path d="M616.856 438.022C616.655 438.022 616.483 437.979 616.338 437.893C616.194 437.807 616.082 437.685 616.004 437.528C615.926 437.371 615.887 437.187 615.887 436.976C615.887 436.764 615.926 436.583 616.004 436.424C616.082 436.265 616.192 436.141 616.332 436.051C616.473 435.962 616.638 435.918 616.828 435.918C616.942 435.918 617.054 435.937 617.162 435.975C617.27 436.013 617.366 436.072 617.452 436.153C617.538 436.234 617.605 436.34 617.655 436.47C617.705 436.599 617.73 436.756 617.73 436.941V437.081H616.111V436.785H617.341C617.341 436.68 617.32 436.588 617.278 436.507C617.235 436.426 617.176 436.362 617.099 436.315C617.023 436.268 616.933 436.245 616.831 436.245C616.719 436.245 616.623 436.272 616.54 436.326C616.457 436.381 616.394 436.452 616.349 436.538C616.304 436.625 616.282 436.72 616.282 436.822V437.053C616.282 437.19 616.306 437.305 616.354 437.401C616.402 437.496 616.47 437.569 616.556 437.619C616.643 437.669 616.744 437.694 616.859 437.694C616.934 437.694 617.003 437.683 617.065 437.661C617.126 437.64 617.18 437.607 617.225 437.564C617.27 437.521 617.305 437.467 617.328 437.404L617.703 437.472C617.674 437.582 617.619 437.679 617.542 437.761C617.465 437.844 617.368 437.908 617.252 437.954C617.136 437.999 617.003 438.022 616.855 438.022L616.856 438.022Z" fill="#FF00CC"/>
<path d="M618.032 437.985L618.821 436.943L618.042 435.949H618.503L619.133 436.795H619.275V435.949H619.671V436.795H619.809L620.439 435.949H620.9L620.124 436.943L620.909 437.985H620.438L619.803 437.137H619.671V437.985H619.274V437.137H619.141L618.502 437.985H618.031H618.032Z" fill="#FF00CC"/>
<path d="M622.145 438.022C621.944 438.022 621.772 437.979 621.627 437.893C621.483 437.807 621.371 437.685 621.293 437.528C621.215 437.371 621.176 437.187 621.176 436.976C621.176 436.764 621.215 436.583 621.293 436.424C621.371 436.265 621.481 436.141 621.622 436.051C621.762 435.962 621.927 435.918 622.117 435.918C622.231 435.918 622.343 435.937 622.451 435.975C622.559 436.013 622.655 436.072 622.741 436.153C622.827 436.234 622.894 436.34 622.944 436.47C622.994 436.599 623.019 436.756 623.019 436.941V437.081H621.4V436.785H622.63C622.63 436.68 622.609 436.588 622.567 436.507C622.524 436.426 622.465 436.362 622.388 436.315C622.312 436.268 622.222 436.245 622.12 436.245C622.009 436.245 621.912 436.272 621.829 436.326C621.746 436.381 621.683 436.452 621.638 436.538C621.593 436.625 621.571 436.72 621.571 436.822V437.053C621.571 437.19 621.595 437.305 621.643 437.401C621.691 437.496 621.759 437.569 621.845 437.619C621.932 437.669 622.033 437.694 622.148 437.694C622.223 437.694 622.292 437.683 622.354 437.661C622.415 437.64 622.469 437.607 622.514 437.564C622.559 437.521 622.594 437.467 622.617 437.404L622.992 437.472C622.963 437.582 622.909 437.679 622.831 437.761C622.754 437.844 622.657 437.908 622.541 437.954C622.425 437.999 622.293 438.022 622.144 438.022L622.145 438.022Z" fill="#FF00CC"/>
<path d="M623.299 438.573V437.642H623.465C623.507 437.603 623.543 437.556 623.573 437.502C623.603 437.448 623.628 437.384 623.648 437.31C623.669 437.236 623.687 437.149 623.7 437.05C623.715 436.95 623.727 436.836 623.737 436.708L623.801 435.949H625.185V437.642H625.498V438.573H625.111V437.985H623.691V438.573H623.299ZM623.889 437.642H624.798V436.288H624.157L624.114 436.708C624.094 436.922 624.068 437.107 624.037 437.264C624.006 437.421 623.957 437.547 623.889 437.641V437.642Z" fill="#FF00CC"/>
<path d="M626.312 435.949V437.985H625.924V435.949H626.312ZM627.304 436.796V437.139H626.201V436.796H627.304ZM627.581 435.949V437.985H627.194V435.949H627.581Z" fill="#FF00CC"/>
<path d="M629.022 438.022C628.821 438.022 628.649 437.979 628.504 437.893C628.36 437.807 628.248 437.685 628.17 437.528C628.092 437.371 628.053 437.187 628.053 436.976C628.053 436.764 628.092 436.583 628.17 436.424C628.248 436.265 628.358 436.141 628.498 436.051C628.639 435.962 628.804 435.918 628.994 435.918C629.108 435.918 629.22 435.937 629.328 435.975C629.436 436.013 629.532 436.072 629.618 436.153C629.704 436.234 629.771 436.34 629.821 436.47C629.871 436.599 629.896 436.756 629.896 436.941V437.081H628.277V436.785H629.507C629.507 436.68 629.486 436.588 629.444 436.507C629.401 436.426 629.342 436.362 629.265 436.315C629.189 436.268 629.099 436.245 628.997 436.245C628.885 436.245 628.789 436.272 628.706 436.326C628.623 436.381 628.56 436.452 628.515 436.538C628.47 436.625 628.448 436.72 628.448 436.822V437.053C628.448 437.19 628.472 437.305 628.52 437.401C628.568 437.496 628.636 437.569 628.722 437.619C628.809 437.669 628.91 437.694 629.025 437.694C629.1 437.694 629.169 437.683 629.231 437.661C629.292 437.64 629.346 437.607 629.391 437.564C629.436 437.521 629.471 437.467 629.494 437.404L629.869 437.472C629.84 437.582 629.786 437.679 629.708 437.761C629.631 437.844 629.534 437.908 629.418 437.954C629.302 437.999 629.17 438.022 629.021 438.022L629.022 438.022Z" fill="#FF00CC"/>
<path d="M630.376 437.985V435.949H631.221C631.451 435.949 631.633 435.998 631.767 436.095C631.901 436.193 631.968 436.325 631.968 436.492C631.968 436.612 631.93 436.706 631.855 436.776C631.779 436.845 631.678 436.892 631.553 436.916C631.644 436.927 631.727 436.954 631.803 436.998C631.879 437.041 631.94 437.1 631.986 437.173C632.033 437.247 632.056 437.334 632.056 437.436C632.056 437.544 632.028 437.639 631.973 437.722C631.917 437.804 631.836 437.869 631.731 437.915C631.626 437.962 631.498 437.985 631.35 437.985H630.376L630.376 437.985ZM630.749 436.798H631.225C631.299 436.798 631.363 436.787 631.416 436.766C631.47 436.744 631.511 436.715 631.54 436.675C631.569 436.635 631.583 436.589 631.583 436.535C631.583 436.456 631.551 436.395 631.486 436.35C631.422 436.306 631.333 436.284 631.221 436.284H630.749V436.797L630.749 436.798ZM630.749 437.654H631.35C631.448 437.654 631.525 437.631 631.58 437.584C631.635 437.537 631.663 437.473 631.663 437.393C631.663 437.298 631.635 437.224 631.58 437.169C631.525 437.115 631.447 437.088 631.35 437.088H630.749V437.654Z" fill="#FF00CC"/>
<path d="M632.915 435.949V437.985H632.526V435.949H632.915ZM633.906 436.796V437.139H632.803V436.796H633.906ZM634.183 435.949V437.985H633.796V435.949H634.183Z" fill="#FF00CC"/>
<path d="M635.608 438.022C635.416 438.022 635.25 437.978 635.108 437.89C634.965 437.803 634.855 437.68 634.776 437.523C634.698 437.366 634.658 437.182 634.658 436.972C634.658 436.762 634.698 436.576 634.776 436.418C634.855 436.259 634.965 436.136 635.108 436.049C635.25 435.961 635.416 435.918 635.608 435.918C635.799 435.918 635.965 435.961 636.107 436.049C636.25 436.137 636.36 436.26 636.439 436.418C636.518 436.576 636.557 436.76 636.557 436.972C636.557 437.183 636.518 437.366 636.439 437.523C636.36 437.681 636.25 437.803 636.107 437.89C635.965 437.978 635.799 438.022 635.608 438.022ZM635.609 437.689C635.733 437.689 635.835 437.656 635.917 437.591C635.998 437.525 636.059 437.438 636.098 437.329C636.137 437.221 636.157 437.101 636.157 436.97C636.157 436.839 636.137 436.721 636.098 436.612C636.059 436.502 635.998 436.415 635.917 436.348C635.836 436.282 635.733 436.249 635.609 436.249C635.485 436.249 635.381 436.282 635.299 436.348C635.218 436.415 635.157 436.502 635.118 436.612C635.078 436.721 635.059 436.84 635.059 436.97C635.059 437.1 635.078 437.22 635.118 437.329C635.157 437.438 635.218 437.525 635.299 437.591C635.381 437.656 635.484 437.689 635.609 437.689Z" fill="#FF00CC"/>
<rect x="592.932" y="506.008" width="18.2534" height="8.83229" rx="4.41615" fill="#FF00CC"/>
<path d="M607.801 511.39V509.913H607.447C607.351 509.913 607.278 509.935 607.228 509.979C607.178 510.024 607.154 510.076 607.155 510.137C607.154 510.198 607.177 510.25 607.226 510.293C607.275 510.335 607.347 510.355 607.442 510.355H607.975V510.709H607.442C607.281 510.709 607.141 510.685 607.023 510.636C606.905 510.586 606.814 510.518 606.75 510.43C606.686 510.342 606.655 510.239 606.656 510.122C606.655 509.999 606.686 509.891 606.75 509.799C606.814 509.705 606.905 509.633 607.024 509.581C607.144 509.529 607.285 509.503 607.447 509.503H608.289V511.39H607.801ZM606.602 511.39L607.126 510.407H607.626L607.103 511.39H606.602Z" fill="white"/>
<path d="M606.138 508.81L606.298 509.151C606.245 509.196 606.186 509.228 606.121 509.25C606.056 509.27 605.979 509.284 605.889 509.29C605.8 509.297 605.691 509.301 605.562 509.304C605.416 509.305 605.297 509.329 605.206 509.374C605.114 509.419 605.044 509.49 604.997 509.586C604.949 509.682 604.918 509.808 604.903 509.962H604.922C604.978 509.847 605.058 509.758 605.16 509.695C605.263 509.631 605.391 509.6 605.542 509.6C605.703 509.6 605.843 509.635 605.964 509.706C606.085 509.776 606.179 509.877 606.246 510.009C606.314 510.141 606.347 510.299 606.347 510.483C606.347 510.675 606.309 510.842 606.234 510.984C606.16 511.124 606.053 511.234 605.916 511.312C605.778 511.389 605.614 511.427 605.424 511.427C605.233 511.427 605.069 511.387 604.93 511.307C604.793 511.226 604.686 511.108 604.611 510.952C604.536 510.795 604.499 510.603 604.499 510.374V510.219C604.499 509.765 604.587 509.427 604.764 509.208C604.941 508.988 605.201 508.877 605.545 508.874C605.638 508.872 605.723 508.872 605.798 508.872C605.873 508.873 605.939 508.87 605.996 508.861C606.053 508.853 606.101 508.836 606.138 508.81ZM605.427 511.022C605.507 511.022 605.576 511.001 605.633 510.959C605.691 510.917 605.736 510.857 605.767 510.78C605.799 510.702 605.815 510.609 605.815 510.501C605.815 510.393 605.799 510.302 605.767 510.228C605.736 510.152 605.691 510.095 605.633 510.056C605.575 510.017 605.505 509.997 605.424 509.997C605.364 509.997 605.309 510.008 605.261 510.03C605.213 510.052 605.171 510.085 605.137 510.128C605.103 510.171 605.077 510.224 605.058 510.287C605.04 510.349 605.031 510.42 605.031 510.501C605.031 510.662 605.066 510.789 605.136 510.883C605.206 510.975 605.303 511.022 605.427 511.022Z" fill="white"/>
<path d="M603.361 511.427C603.167 511.427 603 511.388 602.86 511.309C602.721 511.23 602.613 511.117 602.538 510.972C602.462 510.827 602.425 510.654 602.425 510.455C602.425 510.261 602.462 510.091 602.538 509.944C602.613 509.797 602.719 509.683 602.856 509.601C602.994 509.519 603.155 509.478 603.34 509.478C603.465 509.478 603.581 509.498 603.688 509.538C603.796 509.578 603.89 509.637 603.971 509.717C604.052 509.796 604.115 509.896 604.16 510.016C604.205 510.136 604.227 510.276 604.227 510.437V510.581H602.634V510.256H603.735C603.735 510.181 603.718 510.114 603.686 510.056C603.653 509.998 603.607 509.952 603.549 509.919C603.492 509.886 603.425 509.869 603.349 509.869C603.269 509.869 603.199 509.887 603.138 509.924C603.077 509.96 603.029 510.009 602.995 510.071C602.961 510.131 602.943 510.199 602.942 510.273V510.582C602.942 510.675 602.959 510.756 602.994 510.824C603.029 510.892 603.079 510.944 603.142 510.981C603.206 511.018 603.282 511.036 603.37 511.036C603.428 511.036 603.481 511.028 603.53 511.012C603.578 510.995 603.619 510.971 603.654 510.938C603.688 510.905 603.714 510.865 603.732 510.818L604.216 510.85C604.192 510.966 604.141 511.068 604.065 511.154C603.99 511.24 603.892 511.308 603.773 511.356C603.654 511.403 603.517 511.427 603.361 511.427Z" fill="white"/>
<path d="M601.324 511.427C601.13 511.427 600.964 511.386 600.825 511.304C600.686 511.222 600.58 511.107 600.505 510.96C600.431 510.814 600.395 510.645 600.395 510.454C600.395 510.261 600.432 510.091 600.506 509.945C600.582 509.799 600.689 509.684 600.827 509.602C600.966 509.52 601.13 509.478 601.321 509.478C601.486 509.478 601.63 509.508 601.754 509.568C601.877 509.628 601.975 509.712 602.047 509.82C602.119 509.928 602.159 510.055 602.166 510.201H601.672C601.659 510.107 601.622 510.031 601.562 509.973C601.503 509.915 601.425 509.886 601.33 509.886C601.249 509.886 601.178 509.908 601.117 509.953C601.057 509.996 601.011 510.059 600.977 510.143C600.943 510.227 600.927 510.328 600.927 510.447C600.927 510.567 600.943 510.669 600.976 510.754C601.009 510.838 601.056 510.902 601.117 510.947C601.178 510.991 601.249 511.013 601.33 511.013C601.389 511.013 601.443 511.001 601.491 510.976C601.539 510.952 601.579 510.916 601.61 510.869C601.642 510.822 601.663 510.765 601.672 510.698H602.166C602.158 510.843 602.119 510.97 602.049 511.079C601.979 511.188 601.883 511.274 601.76 511.335C601.637 511.396 601.491 511.427 601.324 511.427Z" fill="white"/>
<path d="M598.2 511.426C598.08 511.426 597.972 511.405 597.878 511.363C597.784 511.321 597.709 511.258 597.654 511.175C597.6 511.092 597.573 510.988 597.573 510.863C597.573 510.758 597.592 510.67 597.631 510.599C597.669 510.528 597.722 510.47 597.788 510.427C597.855 510.383 597.93 510.351 598.014 510.329C598.1 510.306 598.189 510.291 598.282 510.282C598.392 510.27 598.481 510.26 598.548 510.25C598.615 510.239 598.664 510.224 598.694 510.203C598.724 510.183 598.739 510.152 598.739 510.112V510.105C598.739 510.027 598.715 509.967 598.666 509.924C598.617 509.882 598.549 509.86 598.459 509.86C598.365 509.86 598.29 509.881 598.234 509.923C598.179 509.964 598.142 510.016 598.124 510.078L597.64 510.039C597.664 509.924 597.713 509.825 597.785 509.741C597.857 509.657 597.95 509.592 598.064 509.547C598.178 509.501 598.311 509.478 598.462 509.478C598.567 509.478 598.667 509.491 598.763 509.515C598.859 509.54 598.945 509.578 599.02 509.629C599.095 509.681 599.154 509.747 599.198 509.828C599.241 509.909 599.263 510.005 599.263 510.117V511.39H598.766V511.129H598.752C598.721 511.188 598.681 511.24 598.63 511.285C598.579 511.329 598.518 511.364 598.447 511.389C598.376 511.414 598.293 511.426 598.2 511.426ZM598.35 511.065C598.427 511.065 598.495 511.05 598.554 511.019C598.613 510.988 598.659 510.946 598.693 510.894C598.726 510.841 598.743 510.782 598.743 510.716V510.515C598.727 510.526 598.704 510.536 598.675 510.545C598.648 510.553 598.616 510.561 598.581 510.568C598.546 510.575 598.51 510.581 598.475 510.587C598.44 510.592 598.408 510.596 598.379 510.6C598.318 510.609 598.264 510.624 598.218 510.643C598.172 510.663 598.137 510.689 598.111 510.723C598.086 510.756 598.073 510.797 598.073 510.846C598.073 510.917 598.099 510.972 598.151 511.009C598.203 511.046 598.27 511.065 598.35 511.065Z" fill="white"/>
<path d="M596.928 510.238V510.649H595.942V510.238H596.928ZM596.114 509.503V511.39H595.614V509.503H596.114ZM597.256 509.503V511.39H596.76V509.503H597.256Z" fill="white"/>
<circle cx="574.895" cy="524.282" r="3.95939" fill="#F5F5F5" stroke="#555555" stroke-width="0.879865"/>
<path d="M675.2 417.379C675.2 416.164 676.185 415.179 677.399 415.179H684.878V422.218H677.399C676.185 422.218 675.2 421.233 675.2 420.018V417.379Z" fill="#F5F5F5" stroke="#555555" stroke-width="0.879865"/>
<path d="M678.719 422.218H686.198C687.413 422.218 688.398 423.203 688.398 424.418V427.057C688.398 428.272 687.413 429.257 686.198 429.257H678.719V422.218Z" fill="#F5F5F5" stroke="#555555" stroke-width="0.879865"/>
<path d="M678.719 408.14H686.198C687.413 408.14 688.398 409.125 688.398 410.34V412.979C688.398 414.194 687.413 415.179 686.198 415.179H678.719V408.14Z" fill="#F5F5F5" stroke="#555555" stroke-width="0.879865"/>
<path d="M675.2 461.372C675.2 460.157 676.185 459.172 677.399 459.172H684.878V466.211H677.399C676.185 466.211 675.2 465.226 675.2 464.012V461.372Z" fill="#F5F5F5" stroke="#555555" stroke-width="0.879865"/>
<path d="M678.719 466.211H686.198C687.413 466.211 688.398 467.196 688.398 468.411V471.05C688.398 472.265 687.413 473.25 686.198 473.25H678.719V466.211Z" fill="#F5F5F5" stroke="#555555" stroke-width="0.879865"/>
<path d="M678.719 452.133H686.198C687.413 452.133 688.398 453.118 688.398 454.333V456.973C688.398 458.187 687.413 459.172 686.198 459.172H678.719V452.133Z" fill="#F5F5F5" stroke="#555555" stroke-width="0.879865"/>
<path d="M675.2 601.27C675.2 600.056 676.185 599.071 677.399 599.071H684.878V606.11H677.399C676.185 606.11 675.2 605.125 675.2 603.91V601.27Z" fill="#F5F5F5" stroke="#555555" stroke-width="0.879865"/>
<path d="M678.719 606.11H686.198C687.413 606.11 688.398 607.094 688.398 608.309V610.949C688.398 612.164 687.413 613.149 686.198 613.149H678.719V606.11Z" fill="#F5F5F5" stroke="#555555" stroke-width="0.879865"/>
<path d="M678.719 592.032H686.198C687.413 592.032 688.398 593.017 688.398 594.231V596.871C688.398 598.086 687.413 599.071 686.198 599.071H678.719V592.032Z" fill="#F5F5F5" stroke="#555555" stroke-width="0.879865"/>
<rect x="511.544" y="308.715" width="178.613" height="3.51946" fill="#F5F5F5" stroke="#555555" stroke-width="0.879865"/>
<path d="M588.973 582.783V585.873H576.655V582.783H588.973ZM576.655 424.428V421.338H588.973V424.428H576.655Z" fill="#F5F5F5" stroke="#555555" stroke-width="0.879865"/>
<path d="M586.333 385.264H590.733V621.947H586.333V585.873V581.913V424.858V420.898V385.264Z" fill="#F5F5F5" stroke="#555555" stroke-width="0.879865"/>
<path d="M1029.24 246.97C1029.24 256.938 1026.66 266.585 1021.95 274.203L1015.64 284.416C1014.04 286.992 1011.7 288.479 1009.23 288.479H1003.78C999.862 288.479 996.687 284.146 996.687 278.8V256.93C996.687 246.684 999.416 236.787 1004.37 229.084L1010.62 219.347C1012.21 216.87 1014.51 215.45 1016.92 215.45H1022.15C1026.07 215.45 1029.24 219.783 1029.24 225.128V246.97Z" fill="#B2B2B2"/>
<path d="M1026.6 233.816L1038.04 223.74V218.089L1026.6 228.462V233.816Z" fill="#B2B2B2"/>
<path d="M1038.04 229.428L1026.6 239.057V244.485L1038.04 234.484V229.428Z" fill="#B2B2B2"/>
<rect x="1034.52" y="192.573" width="21.9966" height="59.8308" fill="#FF00CC"/>
<path d="M837.275 212.136L841.936 216.189L840.817 217.307L836.157 213.254L837.275 212.136Z" fill="#B2B2B2"/>
<path d="M812.529 202.258C822.31 202.258 830.087 205.888 837.274 212.138L836.156 213.256C828.969 207.006 821.192 203.376 811.411 203.376L812.529 202.258Z" fill="#B2B2B2"/>
<path d="M841.935 216.189L834.065 225.683L832.947 226.801L840.816 217.307L841.935 216.189Z" fill="#B2B2B2"/>
<path d="M840.818 217.537C833.7 226.125 833.873 225.916 834.065 225.684L832.947 226.802C832.842 226.929 832.894 226.867 832.947 226.802L832.947 226.802C833.221 226.472 834.559 224.858 839.7 218.655L840.818 217.537Z" fill="#B2B2B2"/>
<path d="M840.818 217.537L832.949 227.031L831.831 228.149L839.7 218.655L840.818 217.537Z" fill="#B2B2B2"/>
<path d="M832.949 227.028C834.232 228.08 835.417 229.349 836.416 230.883L835.298 232.002C834.299 230.468 833.114 229.198 831.831 228.146L832.949 227.028Z" fill="#B2B2B2"/>
<path d="M836.416 230.886C838.379 233.901 839.329 237.488 839.329 241.526L838.211 242.644C838.211 238.606 837.261 235.019 835.298 232.005L836.416 230.886Z" fill="#B2B2B2"/>
<path d="M795.33 206.786C800.424 203.547 806.744 202.258 812.53 202.258L811.411 203.376C805.626 203.376 799.306 204.665 794.212 207.905L795.33 206.786Z" fill="#B2B2B2"/>
<path d="M839.329 241.524C839.329 247.385 837.024 252.036 833.605 255.453L832.495 256.564C835.91 253.147 838.21 248.499 838.21 242.642L839.329 241.524Z" fill="#B2B2B2"/>
<path d="M791.627 209.739C792.748 208.618 793.996 207.633 795.33 206.784L794.212 207.903C792.878 208.751 791.63 209.736 790.509 210.857L791.627 209.739Z" fill="#B2B2B2"/>
<path d="M788.417 213.967C789.293 212.398 790.378 210.991 791.618 209.749L790.509 210.858C789.265 212.102 788.177 213.512 787.299 215.085L788.417 213.967Z" fill="#B2B2B2"/>
<path d="M833.605 255.455C832.412 256.647 831.084 257.689 829.67 258.58L828.552 259.698C829.966 258.807 831.294 257.765 832.487 256.573L833.605 255.455Z" fill="#B2B2B2"/>
<path d="M783.41 208.729C785.265 210.211 786.96 211.956 788.417 213.969L787.299 215.087C785.841 213.074 784.147 211.329 782.292 209.847L783.41 208.729Z" fill="#B2B2B2"/>
<path d="M765.047 202.251C770.587 202.251 777.626 204.104 783.41 208.726L782.292 209.844C776.508 205.222 769.469 203.369 763.929 203.369L765.047 202.251Z" fill="#B2B2B2"/>
<path d="M829.671 258.583C824.428 261.888 817.945 263.234 812.1 263.234L810.981 264.353C816.827 264.353 823.31 263.006 828.553 259.701L829.671 258.583Z" fill="#B2B2B2"/>
<path d="M729.461 183.866C737.667 183.866 743.987 190.862 743.987 198.577L742.869 199.696C742.869 191.98 736.549 184.984 728.343 184.984L729.461 183.866Z" fill="#B2B2B2"/>
<path d="M742.383 211.847C748.048 205.877 756.131 202.251 765.047 202.251L763.929 203.369C755.584 203.369 747.969 206.545 742.383 211.847C742.004 212.246 741.636 212.655 741.279 213.075L740.161 214.193C740.86 213.371 741.601 212.588 742.383 211.847Z" fill="#B2B2B2"/>
<path d="M812.099 263.229C803.364 263.229 794.142 260.207 787.254 253.138L786.136 254.256C793.024 261.325 802.246 264.347 810.981 264.347L812.099 263.229Z" fill="#B2B2B2"/>
<path d="M743.988 198.579C743.988 201.654 743.058 204.58 741.279 206.973L740.161 208.091C741.94 205.698 742.87 202.772 742.87 199.697L743.988 198.579Z" fill="#B2B2B2"/>
<path d="M719.237 188.112C721.838 185.512 725.427 183.866 729.462 183.866L728.344 184.984C724.308 184.984 720.72 186.63 718.119 189.23L719.237 188.112Z" fill="#B2B2B2"/>
<path d="M741.279 206.971V213.072L740.161 214.19V208.089L741.279 206.971Z" fill="#B2B2B2"/>
<path d="M714.934 198.396C714.934 194.464 716.562 190.788 719.232 188.117L718.118 189.231C715.446 191.902 713.816 195.58 713.816 199.514L714.934 198.396Z" fill="#B2B2B2"/>
<path d="M764.432 263.288C772.856 263.288 780.023 260.151 785.603 254.827C785.782 254.639 785.96 254.449 786.136 254.256L787.254 253.138C786.72 253.723 786.17 254.286 785.603 254.827C779.875 260.827 772.311 264.406 763.313 264.406L764.432 263.288Z" fill="#B2B2B2"/>
<path d="M716.972 205.765C715.686 203.683 714.934 201.191 714.934 198.392L713.816 199.51C713.816 202.31 714.568 204.801 715.854 206.883L716.972 205.765Z" fill="#B2B2B2"/>
<path d="M705.688 208.237C709.202 206.635 712.998 205.893 716.972 205.766L715.854 206.884C711.88 207.011 708.084 207.753 704.57 209.355L705.688 208.237Z" fill="#B2B2B2"/>
<path d="M705.688 205.752V208.242L704.57 209.361V206.87L705.688 205.752Z" fill="#B2B2B2"/>
<path d="M764.431 263.287C754.677 263.287 746.626 259.126 741.279 252.758L740.161 253.876C745.508 260.244 753.559 264.405 763.313 264.405L764.431 263.287Z" fill="#B2B2B2"/>
<path d="M682.123 205.778L705.688 205.752L704.57 206.87L681.005 206.896L682.123 205.778Z" fill="#B2B2B2"/>
<path d="M741.279 252.758V263.439L740.161 264.557V253.876L741.279 252.758Z" fill="#B2B2B2"/>
<path d="M717.714 229.595C714.448 229.859 711.401 230.897 709.199 232.403L708.081 233.521C710.283 232.015 713.33 230.977 716.596 230.714L717.714 229.595Z" fill="#B2B2B2"/>
<path d="M709.199 232.4C708.604 232.807 708.092 233.228 707.659 233.663L706.544 234.777C706.977 234.345 707.487 233.924 708.081 233.518L709.199 232.4Z" fill="#B2B2B2"/>
<path d="M717.714 263.446V229.595L716.596 230.714V264.564L717.714 263.446Z" fill="#B2B2B2"/>
<path d="M707.659 233.663C706.283 235.039 705.688 236.541 705.688 238.095L704.57 239.213C704.57 237.659 705.165 236.157 706.541 234.781L707.659 233.663Z" fill="#B2B2B2"/>
<path d="M671.034 208.237C674.49 206.661 678.22 205.918 682.123 205.773L681.005 206.891C677.101 207.036 673.372 207.779 669.916 209.356L671.034 208.237Z" fill="#B2B2B2"/>
<path d="M741.279 263.438H717.714L716.596 264.557H740.161L741.279 263.438Z" fill="#B2B2B2"/>
<path d="M671.034 205.752V208.242L669.916 209.361V206.87L671.034 205.752Z" fill="#B2B2B2"/>
<path d="M705.688 238.089V263.443L704.57 264.561V239.207L705.688 238.089Z" fill="#B2B2B2"/>
<path d="M647.469 205.752H671.034L669.916 206.87H646.351L647.469 205.752Z" fill="#B2B2B2"/>
<path d="M682.123 229.689C679.215 230.059 676.535 231.038 674.545 232.399L673.427 233.517C675.417 232.156 678.097 231.177 681.005 230.807L682.123 229.689Z" fill="#B2B2B2"/>
<path d="M674.545 232.4C673.95 232.807 673.439 233.229 673.005 233.663L671.89 234.777C672.323 234.345 672.833 233.924 673.427 233.518L674.545 232.4Z" fill="#B2B2B2"/>
<path d="M647.469 212V205.752L646.351 206.87V213.118L647.469 212Z" fill="#B2B2B2"/>
<path d="M673.005 233.663C671.629 235.039 671.034 236.541 671.034 238.095L669.916 239.213C669.916 237.659 670.511 236.157 671.887 234.781L673.005 233.663Z" fill="#B2B2B2"/>
<path d="M682.123 263.447V229.689L681.005 230.807V264.566L682.123 263.447Z" fill="#B2B2B2"/>
<path d="M646.466 210.881C646.811 211.245 647.145 211.618 647.469 212L646.351 213.118C646.027 212.736 645.693 212.363 645.348 211.999L646.466 210.881Z" fill="#B2B2B2"/>
<path d="M705.688 263.446H682.123L681.005 264.564H704.57L705.688 263.446Z" fill="#B2B2B2"/>
<path d="M625.679 202.251C633.949 202.251 641.253 205.373 646.465 210.879L645.347 211.997C640.135 206.491 632.831 203.369 624.561 203.369L625.679 202.251Z" fill="#B2B2B2"/>
<path d="M671.034 238.089V263.443L669.916 264.561V239.207L671.034 238.089Z" fill="#B2B2B2"/>
<path d="M603.373 211.496C609.123 205.749 617.155 202.251 625.679 202.251L624.561 203.369C616.037 203.369 608.005 206.867 602.255 212.614L603.373 211.496Z" fill="#B2B2B2"/>
<path d="M671.034 263.446H647.469L646.351 264.564H669.916L671.034 263.446Z" fill="#B2B2B2"/>
<path d="M647.469 263.448V253.59L646.351 254.708V264.566L647.469 263.448Z" fill="#B2B2B2"/>
<path d="M598.466 217.921C599.804 215.566 601.458 213.414 603.362 211.509L602.255 212.616C600.346 214.524 598.688 216.68 597.348 219.039L598.466 217.921Z" fill="#B2B2B2"/>
<path d="M625.063 263.291C633.488 263.291 640.654 260.154 646.235 254.83C646.273 254.789 646.312 254.749 646.351 254.708L647.469 253.59C647.067 254.015 646.655 254.429 646.235 254.83C640.507 260.831 632.943 264.409 623.945 264.409L625.063 263.291Z" fill="#B2B2B2"/>
<path d="M571.482 202.194C582.488 202.194 592.984 208.403 598.465 217.92L597.347 219.038C591.866 209.521 581.37 203.312 570.364 203.312L571.482 202.194Z" fill="#B2B2B2"/>
<path d="M564.119 182.496V203.067L563.001 204.185V183.614L564.119 182.496Z" fill="#B2B2B2"/>
<path d="M540.554 182.496H564.119L563.001 183.614H539.436L540.554 182.496Z" fill="#B2B2B2"/>
<path d="M564.119 203.07C566.468 202.498 568.929 202.194 571.484 202.194L570.366 203.312C567.811 203.312 565.35 203.616 563.001 204.188L564.119 203.07Z" fill="#B2B2B2"/>
<path d="M625.064 263.292C612.885 263.292 603.459 256.722 598.518 247.536L597.4 248.654C602.34 257.84 611.767 264.41 623.946 264.41L625.064 263.292Z" fill="#B2B2B2"/>
<path d="M598.518 247.536C597.152 249.955 595.463 252.164 593.514 254.113L592.405 255.221C594.351 253.275 596.036 251.069 597.4 248.654L598.518 247.536Z" fill="#B2B2B2"/>
<path d="M540.554 213.525V182.496L539.436 183.614V214.643L540.554 213.525Z" fill="#B2B2B2"/>
<path d="M515.222 182.561L540.553 213.531L539.435 214.649L514.104 183.679L515.222 182.561Z" fill="#B2B2B2"/>
<path d="M593.514 254.114C587.85 259.775 579.984 263.234 571.418 263.234L570.3 264.352C578.866 264.352 586.732 260.893 592.396 255.232L593.514 254.114Z" fill="#B2B2B2"/>
<path d="M469.889 182.561H515.222L514.104 183.679H468.771L469.889 182.561Z" fill="#B2B2B2"/>
<path d="M571.417 263.23C559.795 263.23 549.546 256.842 544.289 247.32L543.171 248.438C548.428 257.96 558.677 264.348 570.299 264.348L571.417 263.23Z" fill="#B2B2B2"/>
<path d="M503.868 205.879L493.454 193.184L492.336 194.302L502.75 206.997L503.868 205.879Z" fill="#B2B2B2"/>
<path d="M544.29 247.32C542.898 249.814 541.158 252.099 539.143 254.113L538.036 255.22C540.047 253.209 541.782 250.928 543.172 248.438L544.29 247.32Z" fill="#B2B2B2"/>
<path d="M495.329 211.944C497.806 209.474 500.697 207.415 503.868 205.881L502.75 206.999C499.579 208.533 496.688 210.592 494.211 213.062L495.329 211.944Z" fill="#B2B2B2"/>
<path d="M493.454 193.184V213.986L492.336 215.104V194.302L493.454 193.184Z" fill="#B2B2B2"/>
<path d="M469.889 185.803V182.561L468.771 183.679V186.921L469.889 185.803Z" fill="#B2B2B2"/>
<path d="M462.648 183.859C465.26 183.859 467.738 184.567 469.888 185.794L468.77 186.912C466.62 185.685 464.142 184.977 461.53 184.977L462.648 183.859Z" fill="#B2B2B2"/>
<path d="M495.268 212.004C495.288 211.983 495.309 211.963 495.329 211.942L495.268 212.004C494.635 212.638 494.03 213.299 493.454 213.985L492.336 215.103C492.93 214.395 493.556 213.713 494.211 213.06L495.268 212.004Z" fill="#B2B2B2"/>
<path d="M452.465 188.088C455.082 185.472 458.682 183.859 462.649 183.859L461.531 184.977C457.564 184.977 453.964 186.591 451.347 189.206L452.465 188.088Z" fill="#B2B2B2"/>
<path d="M539.143 254.114C533.479 259.775 525.637 263.296 517.216 263.296L516.098 264.414C524.519 264.414 532.361 260.893 538.025 255.232L539.143 254.114Z" fill="#B2B2B2"/>
<path d="M448.183 198.455C448.183 194.399 449.82 190.737 452.461 188.096L451.347 189.209C448.704 191.851 447.064 195.515 447.064 199.573L448.183 198.455Z" fill="#B2B2B2"/>
<path d="M517.216 263.297C507.843 263.297 499.187 258.933 493.454 252.112L492.336 253.23C498.069 260.051 506.724 264.415 516.098 264.415L517.216 263.297Z" fill="#B2B2B2"/>
<path d="M450.198 205.751C448.935 203.692 448.183 201.232 448.183 198.457L447.064 199.575C447.064 202.35 447.817 204.81 449.08 206.869L450.198 205.751Z" fill="#B2B2B2"/>
<path d="M436.072 205.752H450.198L449.08 206.87H434.954L436.072 205.752Z" fill="#B2B2B2"/>
<path d="M493.454 252.112V263.443L492.336 264.562V253.23L493.454 252.112Z" fill="#B2B2B2"/>
<path d="M430.352 220.351L436.071 205.752L434.953 206.87L429.234 221.469L430.352 220.351Z" fill="#B2B2B2"/>
<path d="M424.668 205.752L430.353 220.351L429.235 221.469L423.55 206.87L424.668 205.752Z" fill="#B2B2B2"/>
<path d="M408.383 205.752H424.668L423.55 206.87H407.265L408.383 205.752Z" fill="#B2B2B2"/>
<path d="M493.453 263.438H451.021L449.903 264.557H492.335L493.453 263.438Z" fill="#B2B2B2"/>
<path d="M451.021 263.442V232.658L449.903 233.776V264.56L451.021 263.442Z" fill="#B2B2B2"/>
<path d="M451.021 232.658L439.043 263.507L437.925 264.625L449.903 233.776L451.021 232.658Z" fill="#B2B2B2"/>
<path d="M402.649 220.389L408.383 205.752L407.265 206.87L401.531 221.507L402.649 220.389Z" fill="#B2B2B2"/>
<path d="M396.914 205.752L402.648 220.389L401.53 221.507L395.796 206.87L396.914 205.752Z" fill="#B2B2B2"/>
<path d="M371.445 205.752H396.915L395.797 206.87H370.327L371.445 205.752Z" fill="#B2B2B2"/>
<path d="M439.044 263.51H422.766L421.647 264.628H437.925L439.044 263.51Z" fill="#B2B2B2"/>
<path d="M422.765 263.509L416.48 247.586L415.362 248.704L421.647 264.627L422.765 263.509Z" fill="#B2B2B2"/>
<path d="M416.481 247.586L410.231 263.509L409.113 264.627L415.363 248.704L416.481 247.586Z" fill="#B2B2B2"/>
<path d="M393.949 263.509L371.445 205.752L370.327 206.87L392.831 264.627L393.949 263.509Z" fill="#B2B2B2"/>
<path d="M410.231 263.51H393.949L392.831 264.628H409.113L410.231 263.51Z" fill="#B2B2B2"/>
<path fill-rule="evenodd" clip-rule="evenodd" d="M785.809 254.259C780.021 260.603 772.267 264.409 762.987 264.409C753.233 264.409 745.182 260.248 739.835 253.88V264.561H716.27V230.71C713.003 230.974 709.956 232.012 707.755 233.518C707.16 233.925 706.648 234.346 706.215 234.78C704.839 236.157 704.244 237.659 704.244 239.212V264.567H680.678V230.808C677.77 231.178 675.09 232.157 673.101 233.518C672.506 233.925 671.994 234.346 671.56 234.78C670.184 236.157 669.59 237.659 669.59 239.212V264.567H646.024V254.708C640.283 260.782 632.678 264.409 623.619 264.409C611.44 264.409 602.014 257.839 597.074 248.653C595.707 251.072 594.019 253.281 592.069 255.23C586.406 260.891 578.539 264.35 569.973 264.35C558.351 264.35 548.102 257.962 542.845 248.44C541.453 250.934 539.713 253.219 537.698 255.233C532.034 260.894 524.193 264.415 515.771 264.415C506.397 264.415 497.742 260.051 492.009 253.23V264.561H449.577V233.777L437.599 264.626H421.321L415.036 248.703L408.786 264.626H392.505L370.001 206.869H395.47L401.204 221.506L406.938 206.869H423.224L428.909 221.468L434.628 206.869H448.753C447.49 204.81 446.738 202.35 446.738 199.574C446.738 195.516 448.377 191.852 451.02 189.21C453.637 186.594 457.238 184.981 461.204 184.981C463.816 184.981 466.294 185.689 468.444 186.916V183.674H513.777L539.109 214.644V183.615H562.674V204.186C565.022 203.615 567.484 203.311 570.038 203.311C581.044 203.311 591.541 209.519 597.021 219.037C598.362 216.679 600.019 214.522 601.929 212.614C607.679 206.867 615.711 203.37 624.235 203.37C632.505 203.37 639.809 206.491 645.021 211.998C645.366 212.362 645.701 212.735 646.024 213.117V206.869H669.59V209.359C673.046 207.783 676.775 207.04 680.678 206.895L704.244 206.869V209.359C707.757 207.757 711.553 207.015 715.528 206.888C714.242 204.806 713.49 202.315 713.49 199.515C713.49 195.582 715.12 191.904 717.792 189.232C720.393 186.633 723.982 184.987 728.017 184.987C736.223 184.987 742.543 191.982 742.543 199.698C742.543 202.773 741.614 205.699 739.835 208.092V214.194C745.526 207.496 754.091 203.37 763.603 203.37C769.143 203.37 776.182 205.222 781.965 209.845C783.821 211.327 785.515 213.072 786.973 215.085C787.85 213.511 788.938 212.101 790.183 210.857C791.304 209.737 792.552 208.752 793.886 207.903C798.98 204.664 805.299 203.375 811.085 203.375C820.866 203.375 828.643 207.004 835.83 213.255L840.49 217.308C840.49 217.308 835.028 223.898 832.621 226.802C832.429 227.034 832.256 227.242 839.374 218.655C831.729 227.878 831.505 228.149 831.505 228.149C832.788 229.201 833.973 230.471 834.972 232.005C836.934 235.019 837.884 238.606 837.884 242.644C837.884 248.505 835.58 253.155 832.16 256.573C830.968 257.765 829.64 258.807 828.226 259.698C822.983 263.003 816.5 264.35 810.655 264.35C801.919 264.35 792.697 261.329 785.809 254.259ZM492.009 215.103C492.603 214.395 493.229 213.713 493.884 213.06C496.361 210.59 499.252 208.531 502.423 206.997L492.009 194.302V215.103Z" fill="#B2B2B2"/>
<path fill-rule="evenodd" clip-rule="evenodd" d="M786.926 253.142C781.138 259.486 773.384 263.292 764.104 263.292C754.35 263.292 746.299 259.131 740.952 252.762V263.444H717.387V229.593C714.121 229.857 711.074 230.895 708.872 232.401C706.39 234.098 705.361 236.052 705.361 238.095V263.449H681.796V229.691C678.887 230.061 676.207 231.04 674.218 232.401C671.736 234.098 670.707 236.052 670.707 238.095V263.449H647.142V253.591C641.4 259.665 633.795 263.292 624.736 263.292C612.557 263.292 603.131 256.722 598.191 247.535C592.855 256.983 582.605 263.233 571.09 263.233C559.468 263.233 549.219 256.844 543.962 247.323C538.658 256.826 528.306 263.297 516.888 263.297C507.514 263.297 498.859 258.934 493.126 252.113V263.444H450.694V232.66L438.716 263.509H422.438L416.153 247.585L409.903 263.509H393.622L371.118 205.752H396.588L402.321 220.389L408.055 205.752H424.341L430.026 220.351L435.745 205.752H449.871C448.608 203.693 447.855 201.233 447.855 198.457C447.855 190.381 454.35 183.864 462.322 183.864C464.933 183.864 467.411 184.572 469.561 185.799V182.557H514.894L540.226 213.527V182.498H563.791V203.069C566.14 202.497 568.601 202.193 571.156 202.193C582.161 202.193 592.658 208.402 598.138 217.92C603.517 208.458 613.998 202.252 625.352 202.252C633.622 202.252 640.926 205.374 646.139 210.881C646.483 211.245 646.818 211.618 647.142 212V205.752H670.707V208.242C674.163 206.666 677.892 205.922 681.796 205.778L705.361 205.752V208.242C708.874 206.64 712.671 205.898 716.645 205.771C715.359 203.689 714.608 201.198 714.608 198.398C714.608 190.636 720.953 183.869 729.134 183.869C737.34 183.869 743.661 190.865 743.661 198.581C743.661 201.656 742.731 204.582 740.952 206.975V213.076C746.644 206.379 755.208 202.252 764.72 202.252C770.26 202.252 777.299 204.105 783.083 208.727C784.938 210.21 786.633 211.955 788.09 213.967C789.757 210.977 792.187 208.577 795.003 206.786C800.097 203.547 806.417 202.258 812.202 202.258C821.983 202.258 829.76 205.887 836.947 212.137L841.608 216.191L832.622 227.032C833.905 228.084 835.09 229.353 836.089 230.887C838.051 233.902 839.001 237.489 839.001 241.527C839.001 249.432 834.809 255.135 829.343 258.581C824.101 261.886 817.618 263.233 811.772 263.233C803.036 263.233 793.814 260.211 786.926 253.142ZM493.126 213.986C495.969 210.598 499.53 207.82 503.54 205.88L493.126 193.185V213.986Z" fill="white"/>
<path d="M801.826 224.126C801.826 223.567 801.981 223.029 802.271 222.527C803.429 220.521 806.724 219.082 810.768 219.082C815.826 219.082 821.439 221.574 825.074 225.588L831.673 217.626C825.384 212.156 819.03 209.298 811.079 209.298C803.574 209.298 795.895 211.867 792.592 217.586C791.526 219.433 790.915 221.608 790.915 224.132C790.915 236.838 802.016 237.751 811.079 238.476C816.136 238.842 820.638 239.207 820.638 242.49C820.638 243.121 820.473 243.692 820.178 244.204C818.824 246.55 814.714 247.658 811.019 247.658C805.777 247.658 800.104 245.471 795.973 240.545L788.943 247.9C794.556 254.647 802.692 257.624 810.649 257.624C818.241 257.624 826.368 254.921 829.831 248.925C830.925 247.032 831.553 244.81 831.553 242.242C831.553 230.144 820.332 228.988 811.7 228.14C806.272 227.592 801.837 227.108 801.837 224.126H801.826ZM751.695 227.103C751.913 226.56 752.163 226.045 752.444 225.558C754.46 222.064 758.069 220.049 763.101 220.049C768.834 220.049 772.289 222.783 773.771 227.103H751.695ZM763.597 209.293C754.413 209.293 746.434 214.04 742.206 221.359C740.159 224.902 738.992 229.048 738.992 233.55C738.992 246.497 748.67 257.683 762.981 257.683C771.613 257.683 778.583 253.611 783.515 246.621L775.994 240.362C773.341 244.375 768.534 246.745 762.801 246.745C757.068 246.745 750.899 242.43 750.409 236.107H785.989V232.336C785.989 215.187 772.177 209.293 763.597 209.293ZM722.588 257.835H733.504V212.787H722.588V257.835ZM720.907 195.059C720.207 196.271 719.809 197.662 719.809 199.114C719.809 203.675 723.449 206.958 728.196 206.958C731.369 206.958 733.882 205.517 735.2 203.236C735.853 202.105 736.212 200.767 736.212 199.296C736.212 194.859 732.512 190.91 728.011 190.91C724.948 190.91 722.316 192.619 720.907 195.059ZM570.032 209.234C564.915 209.234 560.288 210.754 556.343 213.365V189.538H545.427V233.491C545.427 246.863 556.463 257.624 569.967 257.624C579.108 257.624 587.175 252.723 591.434 245.35C593.467 241.831 594.632 237.748 594.632 233.367C594.632 219.806 582.827 209.234 570.032 209.234ZM513.362 209.965C505.339 210.766 498.283 215.548 494.417 222.241C492.43 225.682 491.285 229.627 491.285 233.797C491.285 246.804 502.572 257.688 515.765 257.688C524.768 257.688 532.883 252.623 537.129 245.27C539.106 241.848 540.245 237.93 540.245 233.797C540.245 228.263 538.212 223.159 534.942 219.146L510.773 189.597H496.653L513.362 209.965ZM428.882 238.446L418.893 212.792H411.247L401.198 238.446L391.149 212.792H379.247L396.822 257.899H404.468L415.013 231.032L425.618 257.899H433.264L450.779 212.792H438.937L428.888 238.446H428.882ZM624.229 209.293C615.117 209.293 606.875 214.235 602.614 221.611C600.678 224.964 599.564 228.82 599.564 232.943C599.564 246.137 609.242 257.683 623.613 257.683C632.245 257.683 639.215 253.611 644.147 246.621L635.64 239.814C633.171 244.193 628.425 246.745 623.678 246.745C617.509 246.745 611.471 242.43 610.975 236.107H646.675V232.824C646.675 219.186 637.482 209.293 624.229 209.293ZM663.259 223.064V212.792H652.343V257.84H663.259V238.811C663.259 236.575 663.846 234.55 664.876 232.764C668.109 227.162 675.707 223.918 683.237 223.918V212.792H682.125C673.738 212.792 667.635 215.833 663.259 223.064ZM697.913 223.064V212.792H686.997V257.84H697.913V238.811C697.913 236.575 698.5 234.55 699.53 232.764C702.763 227.162 710.361 223.918 717.891 223.918V212.792H716.779C708.392 212.792 702.289 215.833 697.913 223.064ZM474.762 257.835H485.678V189.597H474.762V257.835ZM515.83 246.863C508.31 246.863 502.201 240.905 502.201 233.491C502.201 231.076 502.848 228.809 503.979 226.85C506.32 222.793 510.734 220.054 515.765 220.054C523.226 220.054 529.514 226.012 529.514 233.491C529.514 235.896 528.876 238.138 527.76 240.072C525.406 244.151 520.927 246.863 515.825 246.863H515.83ZM581.962 239.951C579.593 244.056 575.081 246.863 569.972 246.863C562.572 246.863 556.343 241.028 556.343 233.426C556.343 230.918 556.98 228.61 558.116 226.642C560.423 222.645 564.784 220.054 570.032 220.054C577.863 220.054 583.722 226.071 583.722 233.426C583.722 235.785 583.081 238.013 581.962 239.951ZM455.896 257.835H466.811V212.787H455.896V257.835ZM461.198 190.905C458.228 190.905 455.59 192.536 454.167 194.998C453.463 196.218 453.056 197.642 453.056 199.173C453.056 203.793 456.942 207.017 461.198 207.017C464.391 207.017 467.055 205.257 468.458 202.828C469.141 201.646 469.525 200.305 469.525 198.931C469.525 194.735 465.765 190.905 461.198 190.905ZM612.272 227.103C612.488 226.584 612.731 226.089 613.001 225.621C615.04 222.089 618.609 220.049 623.618 220.049C629.291 220.049 632.991 222.783 634.468 227.103H612.272Z" fill="#B2B2B2"/>
<path d="M812.764 207.007C820.715 207.007 827.069 209.865 833.358 215.335L831.777 218.073C825.488 212.604 819.134 209.746 811.183 209.746L812.764 207.007Z" fill="#B2B2B2"/>
<path d="M833.357 215.328L826.758 223.29L825.177 226.029L831.776 218.067L833.357 215.328Z" fill="#B2B2B2"/>
<path d="M826.758 223.291C823.123 219.277 817.51 216.784 812.453 216.784L810.872 219.523C815.929 219.523 821.542 222.016 825.177 226.029L826.758 223.291Z" fill="#B2B2B2"/>
<path d="M794.277 215.295C797.579 209.576 805.259 207.007 812.764 207.007L811.183 209.746C803.678 209.746 795.998 212.315 792.696 218.033L794.277 215.295Z" fill="#B2B2B2"/>
<path d="M812.453 216.784C808.408 216.784 805.113 218.224 803.956 220.23L802.375 222.968C803.533 220.962 806.828 219.523 810.872 219.523L812.453 216.784Z" fill="#B2B2B2"/>
<path d="M803.956 220.235C803.666 220.737 803.51 221.275 803.51 221.834L801.929 224.573C801.929 224.013 802.085 223.476 802.375 222.973L803.956 220.235Z" fill="#B2B2B2"/>
<path d="M803.521 221.834C803.521 224.816 807.957 225.3 813.384 225.848L811.803 228.586C806.375 228.038 801.939 227.555 801.939 224.573L803.521 221.834Z" fill="#B2B2B2"/>
<path d="M813.385 225.851C822.017 226.7 833.238 227.855 833.238 239.954L831.657 242.693C831.657 230.594 820.436 229.439 811.804 228.59L813.385 225.851Z" fill="#B2B2B2"/>
<path d="M803.51 221.834H803.521L801.94 224.573H801.929L803.51 221.834Z" fill="#B2B2B2"/>
<path d="M792.6 221.838C792.6 219.316 793.209 217.142 794.275 215.295L792.695 218.031C791.629 219.878 791.019 222.054 791.019 224.577L792.6 221.838Z" fill="#B2B2B2"/>
<path d="M833.238 239.947C833.238 242.514 832.609 244.736 831.516 246.629L829.937 249.364C831.029 247.471 831.656 245.252 831.656 242.685L833.238 239.947Z" fill="#B2B2B2"/>
<path d="M812.763 236.186C803.701 235.461 792.6 234.547 792.6 221.842L791.019 224.58C791.019 237.286 802.119 238.2 811.182 238.925L812.763 236.186Z" fill="#B2B2B2"/>
<path d="M822.322 240.194C822.322 236.912 817.821 236.546 812.764 236.181L811.183 238.92C816.24 239.285 820.741 239.65 820.741 242.933L822.322 240.194Z" fill="#B2B2B2"/>
<path d="M821.862 241.913C822.158 241.4 822.322 240.829 822.322 240.198L820.741 242.937C820.741 243.568 820.576 244.139 820.281 244.651L821.862 241.913Z" fill="#B2B2B2"/>
<path d="M729.694 188.615C734.196 188.615 737.896 192.564 737.896 197.002L736.315 199.74C736.315 195.303 732.615 191.354 728.113 191.354L729.694 188.615Z" fill="#B2B2B2"/>
<path d="M765.281 207C773.861 207 787.673 212.895 787.673 230.043L786.092 232.782C786.092 215.634 772.28 209.739 763.7 209.739L765.281 207Z" fill="#B2B2B2"/>
<path d="M722.591 192.765C724.001 190.325 726.633 188.615 729.695 188.615L728.114 191.354C725.051 191.354 722.42 193.063 721.01 195.503L722.591 192.765Z" fill="#B2B2B2"/>
<path d="M812.703 245.359C816.398 245.359 820.507 244.252 821.862 241.906L820.281 244.644C818.927 246.99 814.817 248.098 811.122 248.098L812.703 245.359Z" fill="#B2B2B2"/>
<path d="M737.897 197.001C737.897 198.472 737.537 199.81 736.884 200.941L735.304 203.677C735.957 202.546 736.315 201.209 736.315 199.739L737.897 197.001Z" fill="#B2B2B2"/>
<path d="M831.516 246.632C828.053 252.628 819.925 255.332 812.333 255.332L810.752 258.07C818.344 258.07 826.472 255.367 829.935 249.371L831.516 246.632Z" fill="#B2B2B2"/>
<path d="M775.456 224.814C773.973 220.495 770.518 217.76 764.785 217.76L763.204 220.499C768.937 220.499 772.392 223.233 773.874 227.553L775.456 224.814Z" fill="#B2B2B2"/>
<path d="M797.656 238.254C801.787 243.18 807.46 245.367 812.703 245.367L811.122 248.106C805.879 248.106 800.206 245.919 796.075 240.993L797.656 238.254Z" fill="#B2B2B2"/>
<path d="M787.674 230.04V233.812L786.093 236.55V232.779L787.674 230.04Z" fill="#B2B2B2"/>
<path d="M743.89 219.067C748.118 211.747 756.097 207 765.281 207L763.7 209.739C754.516 209.739 746.537 214.486 742.309 221.805L743.89 219.067Z" fill="#B2B2B2"/>
<path d="M721.493 196.823C721.493 195.373 721.891 193.982 722.59 192.772L721.01 195.507C720.31 196.719 719.912 198.11 719.912 199.562L721.493 196.823Z" fill="#B2B2B2"/>
<path d="M736.885 200.946C735.567 203.227 733.054 204.667 729.881 204.667L728.3 207.406C731.473 207.406 733.986 205.966 735.304 203.685L736.885 200.946Z" fill="#B2B2B2"/>
<path d="M729.88 204.665C725.134 204.665 721.493 201.383 721.493 196.821L719.912 199.56C719.912 204.121 723.552 207.404 728.299 207.404L729.88 204.665Z" fill="#B2B2B2"/>
<path d="M764.786 217.76C759.754 217.76 756.145 219.776 754.129 223.269L752.55 226.003C754.567 222.513 758.175 220.499 763.204 220.499L764.786 217.76Z" fill="#B2B2B2"/>
<path d="M790.627 245.609L797.657 238.254L796.076 240.993L789.046 248.348L790.627 245.609Z" fill="#B2B2B2"/>
<path d="M753.379 224.811H775.455L773.874 227.55H751.797L753.379 224.811Z" fill="#B2B2B2"/>
<path d="M812.333 255.331C804.376 255.331 796.24 252.354 790.627 245.606L789.046 248.345C794.659 255.093 802.795 258.069 810.752 258.069L812.333 255.331Z" fill="#B2B2B2"/>
<path d="M754.128 223.269C753.847 223.756 753.597 224.271 753.379 224.814L751.797 227.553C752.016 227.01 752.266 226.495 752.547 226.008L754.128 223.269Z" fill="#B2B2B2"/>
<path d="M724.273 210.493H735.188L733.607 213.232H722.691L724.273 210.493Z" fill="#B2B2B2"/>
<path d="M787.674 233.814H752.093L750.512 236.552H786.093L787.674 233.814Z" fill="#B2B2B2"/>
<path d="M777.679 238.067L785.199 244.326L783.618 247.065L776.098 240.806L777.679 238.067Z" fill="#B2B2B2"/>
<path d="M718.464 210.501H719.575L717.994 213.239H716.882L718.464 210.501Z" fill="#B2B2B2"/>
<path d="M764.486 244.45C770.218 244.45 775.025 242.081 777.679 238.067L776.098 240.806C773.444 244.819 768.637 247.189 762.904 247.189L764.486 244.45Z" fill="#B2B2B2"/>
<path d="M740.676 231.256C740.676 226.758 741.842 222.615 743.885 219.074L742.309 221.804C740.262 225.347 739.095 229.493 739.095 233.994L740.676 231.256Z" fill="#B2B2B2"/>
<path d="M719.575 210.501V221.627L717.994 224.366V213.239L719.575 210.501Z" fill="#B2B2B2"/>
<path d="M752.093 233.814C752.584 240.137 758.753 244.451 764.486 244.451L762.905 247.19C757.172 247.19 751.003 242.876 750.512 236.552L752.093 233.814Z" fill="#B2B2B2"/>
<path d="M785.199 244.33C780.267 251.319 773.297 255.392 764.665 255.392L763.084 258.13C771.716 258.13 778.686 254.058 783.618 247.068L785.199 244.33Z" fill="#B2B2B2"/>
<path d="M699.597 220.773C703.973 213.542 710.076 210.501 718.463 210.501L716.882 213.239C708.495 213.239 702.392 216.28 698.016 223.512L699.597 220.773Z" fill="#B2B2B2"/>
<path d="M735.188 210.493V255.542L733.606 258.28V213.232L735.188 210.493Z" fill="#B2B2B2"/>
<path d="M764.665 255.393C750.354 255.393 740.676 244.208 740.676 231.26L739.095 233.999C739.095 246.946 748.773 258.132 763.084 258.132L764.665 255.393Z" fill="#B2B2B2"/>
<path d="M688.682 210.501H699.598L698.017 213.239H687.101L688.682 210.501Z" fill="#B2B2B2"/>
<path d="M699.597 210.501V220.773L698.016 223.512V213.239L699.597 210.501Z" fill="#B2B2B2"/>
<path d="M724.273 255.542V210.493L722.691 213.232V258.28L724.273 255.542Z" fill="#B2B2B2"/>
<path d="M683.809 210.501H684.921L683.34 213.239H682.228L683.809 210.501Z" fill="#B2B2B2"/>
<path d="M719.576 221.626C712.046 221.626 704.448 224.87 701.215 230.472L699.636 233.207C702.87 227.608 710.467 224.365 717.995 224.365L719.576 221.626Z" fill="#B2B2B2"/>
<path d="M684.921 210.501V221.627L683.34 224.366V213.239L684.921 210.501Z" fill="#B2B2B2"/>
<path d="M664.943 220.773C669.319 213.542 675.423 210.501 683.81 210.501L682.228 213.239C673.841 213.239 667.738 216.28 663.362 223.512L664.943 220.773Z" fill="#B2B2B2"/>
<path d="M701.214 230.471C700.184 232.256 699.597 234.282 699.597 236.518L698.016 239.256C698.016 237.02 698.603 234.995 699.633 233.21L701.214 230.471Z" fill="#B2B2B2"/>
<path d="M654.027 210.501H664.943L663.362 213.239H652.446L654.027 210.501Z" fill="#B2B2B2"/>
<path d="M664.943 210.501V220.773L663.362 223.512V213.239L664.943 210.501Z" fill="#B2B2B2"/>
<path d="M735.188 255.542H724.273L722.691 258.28H733.607L735.188 255.542Z" fill="#B2B2B2"/>
<path d="M688.682 255.549V210.501L687.101 213.239V258.288L688.682 255.549Z" fill="#B2B2B2"/>
<path d="M684.921 221.626C677.392 221.626 669.793 224.87 666.56 230.472L664.981 233.207C668.216 227.608 675.812 224.365 683.34 224.365L684.921 221.626Z" fill="#B2B2B2"/>
<path d="M699.597 236.518V255.547L698.016 258.286V239.257L699.597 236.518Z" fill="#B2B2B2"/>
<path d="M666.56 230.471C665.53 232.256 664.943 234.282 664.943 236.517L663.362 239.256C663.362 237.02 663.949 234.995 664.979 233.21L666.56 230.471Z" fill="#B2B2B2"/>
<path d="M625.912 207C639.166 207 648.359 216.893 648.359 230.532L646.778 233.27C646.778 219.632 637.584 209.739 624.331 209.739L625.912 207Z" fill="#B2B2B2"/>
<path d="M699.598 255.549H688.682L687.101 258.287H698.017L699.598 255.549Z" fill="#B2B2B2"/>
<path d="M654.027 255.549V210.501L652.446 213.239V258.288L654.027 255.549Z" fill="#B2B2B2"/>
<path d="M636.153 224.814C634.676 220.495 630.976 217.76 625.303 217.76L623.722 220.499C629.395 220.499 633.095 223.233 634.572 227.553L636.153 224.814Z" fill="#B2B2B2"/>
<path d="M648.361 230.528V233.811L646.779 236.55V233.267L648.361 230.528Z" fill="#B2B2B2"/>
<path d="M604.298 219.319C608.559 211.942 616.8 207 625.912 207L624.331 209.739C615.219 209.739 606.978 214.681 602.717 222.057L604.298 219.319Z" fill="#B2B2B2"/>
<path d="M664.943 236.518V255.547L663.362 258.286V239.257L664.943 236.518Z" fill="#B2B2B2"/>
<path d="M625.302 217.76C620.293 217.76 616.724 219.8 614.686 223.333L613.107 226.066C615.146 222.537 618.714 220.499 623.721 220.499L625.302 217.76Z" fill="#B2B2B2"/>
<path d="M613.956 224.811H636.152L634.571 227.55H612.375L613.956 224.811Z" fill="#B2B2B2"/>
<path d="M547.111 187.245H558.027L556.446 189.984H545.53L547.111 187.245Z" fill="#B2B2B2"/>
<path d="M614.686 223.326C614.416 223.794 614.172 224.289 613.956 224.808L612.375 227.547C612.591 227.027 612.834 226.533 613.104 226.065L614.686 223.326Z" fill="#B2B2B2"/>
<path d="M648.36 233.814H612.659L611.078 236.552H646.778L648.36 233.814Z" fill="#B2B2B2"/>
<path d="M637.324 237.522L645.831 244.329L644.25 247.068L635.743 240.261L637.324 237.522Z" fill="#B2B2B2"/>
<path d="M664.943 255.549H654.027L652.446 258.287H663.362L664.943 255.549Z" fill="#B2B2B2"/>
<path d="M637.324 237.522C637.28 237.6 637.235 237.678 637.19 237.755L635.743 240.261C633.274 244.64 628.528 247.191 623.781 247.191L625.362 244.453C630.024 244.453 634.686 241.991 637.19 237.755L637.324 237.522Z" fill="#B2B2B2"/>
<path d="M601.248 230.648C601.248 226.528 602.361 222.675 604.294 219.325L602.718 222.055C600.781 225.408 599.667 229.264 599.667 233.387L601.248 230.648Z" fill="#B2B2B2"/>
<path d="M558.027 187.245V211.072L556.446 213.811V189.984L558.027 187.245Z" fill="#B2B2B2"/>
<path d="M612.659 233.814C613.155 240.137 619.193 244.451 625.362 244.451L623.781 247.19C617.612 247.19 611.574 242.876 611.078 236.552L612.659 233.814Z" fill="#B2B2B2"/>
<path d="M571.717 206.943C584.512 206.943 596.316 217.515 596.316 231.076L594.735 233.815C594.735 220.254 582.931 209.682 570.136 209.682L571.717 206.943Z" fill="#B2B2B2"/>
<path d="M558.027 211.074C561.973 208.463 566.6 206.943 571.717 206.943L570.136 209.682C565.019 209.682 560.392 211.202 556.446 213.813L558.027 211.074Z" fill="#B2B2B2"/>
<path d="M645.831 244.33C640.899 251.319 633.929 255.392 625.297 255.392L623.716 258.13C632.348 258.13 639.318 254.058 644.25 247.068L645.831 244.33Z" fill="#B2B2B2"/>
<path d="M625.297 255.391C610.927 255.391 601.248 243.845 601.248 230.65L599.667 233.389C599.667 246.584 609.345 258.129 623.716 258.129L625.297 255.391Z" fill="#B2B2B2"/>
<path d="M585.406 231.139C585.406 223.784 579.548 217.767 571.717 217.767L570.136 220.506C577.967 220.506 583.825 226.523 583.825 233.878L585.406 231.139Z" fill="#B2B2B2"/>
<path d="M547.111 231.197V187.245L545.53 189.984V233.936L547.111 231.197Z" fill="#B2B2B2"/>
<path d="M596.316 231.073C596.316 235.455 595.151 239.537 593.118 243.056L591.542 245.786C593.572 242.269 594.735 238.19 594.735 233.812L596.316 231.073Z" fill="#B2B2B2"/>
<path d="M571.717 217.767C566.47 217.767 562.108 220.358 559.801 224.355L558.222 227.09C560.53 223.095 564.89 220.506 570.136 220.506L571.717 217.767Z" fill="#B2B2B2"/>
<path d="M498.337 187.31H512.457L510.876 190.049H496.756L498.337 187.31Z" fill="#B2B2B2"/>
<path d="M583.647 237.663C584.765 235.725 585.406 233.497 585.406 231.138L583.825 233.877C583.825 236.235 583.184 238.463 582.065 240.402L583.647 237.663Z" fill="#B2B2B2"/>
<path d="M512.457 187.31L536.626 216.858L535.045 219.597L510.876 190.049L512.457 187.31Z" fill="#B2B2B2"/>
<path d="M515.046 207.677L498.337 187.31L496.756 190.049L513.464 210.416L515.046 207.677Z" fill="#B2B2B2"/>
<path d="M559.801 224.345C558.665 226.313 558.027 228.621 558.027 231.129L556.446 233.868C556.446 231.36 557.084 229.051 558.219 227.084L559.801 224.345Z" fill="#B2B2B2"/>
<path d="M571.656 244.57C576.763 244.57 581.274 241.766 583.644 237.664L582.065 240.397C579.696 244.503 575.184 247.309 570.075 247.309L571.656 244.57Z" fill="#B2B2B2"/>
<path d="M476.446 187.31H487.362L485.781 190.049H474.865L476.446 187.31Z" fill="#B2B2B2"/>
<path d="M558.027 231.138C558.027 238.74 564.256 244.575 571.657 244.575L570.076 247.313C562.675 247.313 556.446 241.479 556.446 233.877L558.027 231.138Z" fill="#B2B2B2"/>
<path d="M536.626 216.856C539.896 220.869 541.929 225.973 541.929 231.507L540.347 234.246C540.347 228.712 538.315 223.608 535.045 219.595L536.626 216.856Z" fill="#B2B2B2"/>
<path d="M593.119 243.06C588.86 250.433 580.793 255.334 571.652 255.334L570.07 258.073C579.211 258.073 587.279 253.172 591.537 245.799L593.119 243.06Z" fill="#B2B2B2"/>
<path d="M571.651 255.329C558.147 255.329 547.111 244.568 547.111 231.196L545.53 233.934C545.53 247.306 556.566 258.067 570.07 258.067L571.651 255.329Z" fill="#B2B2B2"/>
<path d="M531.199 231.204C531.199 223.725 524.91 217.767 517.449 217.767L515.868 220.506C523.329 220.506 529.618 226.464 529.618 233.942L531.199 231.204Z" fill="#B2B2B2"/>
<path d="M496.102 219.951C499.968 213.258 507.023 208.477 515.046 207.675L513.465 210.413C505.442 211.215 498.387 215.997 494.521 222.69L496.102 219.951Z" fill="#B2B2B2"/>
<path d="M462.883 188.608C467.45 188.608 471.21 192.439 471.21 196.635L469.629 199.373C469.629 195.177 465.869 191.347 461.302 191.347L462.883 188.608Z" fill="#B2B2B2"/>
<path d="M541.929 231.504C541.929 235.637 540.79 239.555 538.814 242.978L537.237 245.709C539.211 242.288 540.348 238.373 540.348 234.243L541.929 231.504Z" fill="#B2B2B2"/>
<path d="M455.853 192.702C457.275 190.239 459.914 188.608 462.883 188.608L461.302 191.347C458.332 191.347 455.694 192.978 454.271 195.44L455.853 192.702Z" fill="#B2B2B2"/>
<path d="M517.449 217.767C512.418 217.767 508.004 220.506 505.663 224.563L504.085 227.297C506.427 223.242 510.839 220.506 515.868 220.506L517.449 217.767Z" fill="#B2B2B2"/>
<path d="M471.21 196.642C471.21 198.016 470.826 199.357 470.143 200.54L468.563 203.275C469.245 202.094 469.628 200.754 469.628 199.381L471.21 196.642Z" fill="#B2B2B2"/>
<path d="M529.444 237.777C530.561 235.842 531.199 233.601 531.199 231.196L529.618 233.934C529.618 236.34 528.979 238.581 527.863 240.515L529.444 237.777Z" fill="#B2B2B2"/>
<path d="M454.74 196.879C454.74 195.349 455.146 193.926 455.849 192.707L454.27 195.443C453.565 196.663 453.159 198.087 453.159 199.617L454.74 196.879Z" fill="#B2B2B2"/>
<path d="M470.143 200.537C468.74 202.966 466.075 204.725 462.883 204.725L461.302 207.464C464.494 207.464 467.159 205.705 468.562 203.276L470.143 200.537Z" fill="#B2B2B2"/>
<path d="M462.882 204.722C458.626 204.722 454.74 201.499 454.74 196.879L453.159 199.617C453.159 204.238 457.045 207.461 461.301 207.461L462.882 204.722Z" fill="#B2B2B2"/>
<path d="M505.664 224.56C504.533 226.519 503.886 228.786 503.886 231.201L502.305 233.939C502.305 231.525 502.952 229.258 504.083 227.299L505.664 224.56Z" fill="#B2B2B2"/>
<path d="M517.51 244.564C522.609 244.564 527.088 241.854 529.442 237.778L527.864 240.512C525.51 244.591 521.03 247.303 515.929 247.303L517.51 244.564Z" fill="#B2B2B2"/>
<path d="M487.362 187.31V255.547L485.781 258.286V190.049L487.362 187.31Z" fill="#B2B2B2"/>
<path d="M492.97 231.504C492.97 227.337 494.113 223.395 496.097 219.956L494.52 222.687C492.533 226.127 491.389 230.073 491.389 234.242L492.97 231.504Z" fill="#B2B2B2"/>
<path d="M503.886 231.196C503.886 238.61 509.995 244.568 517.515 244.568L515.934 247.306C508.414 247.306 502.305 241.348 502.305 233.934L503.886 231.196Z" fill="#B2B2B2"/>
<path d="M457.58 210.493H468.496L466.915 213.232H455.999L457.58 210.493Z" fill="#B2B2B2"/>
<path d="M538.814 242.974C534.567 250.326 526.452 255.392 517.449 255.392L515.868 258.13C524.871 258.13 532.986 253.065 537.232 245.712L538.814 242.974Z" fill="#B2B2B2"/>
<path d="M517.515 244.573H517.51L515.929 247.312H515.934L517.515 244.573Z" fill="#B2B2B2"/>
<path d="M476.446 255.547V187.31L474.865 190.049V258.286L476.446 255.547Z" fill="#B2B2B2"/>
<path d="M517.449 255.396C504.256 255.396 492.97 244.511 492.97 231.504L491.389 234.243C491.389 247.25 502.675 258.134 515.868 258.134L517.449 255.396Z" fill="#B2B2B2"/>
<path d="M440.62 210.501H452.462L450.881 213.239H439.039L440.62 210.501Z" fill="#B2B2B2"/>
<path d="M468.496 210.493V255.542L466.915 258.28V213.232L468.496 210.493Z" fill="#B2B2B2"/>
<path d="M457.58 255.542V210.493L455.999 213.232V258.28L457.58 255.542Z" fill="#B2B2B2"/>
<path d="M412.932 210.501H420.578L418.996 213.239H411.351L412.932 210.501Z" fill="#B2B2B2"/>
<path d="M430.571 236.154L440.621 210.501L439.039 213.239L428.99 238.893L430.571 236.154Z" fill="#B2B2B2"/>
<path d="M452.462 210.501L434.947 255.608L433.366 258.347L450.881 213.239L452.462 210.501Z" fill="#B2B2B2"/>
<path d="M487.362 255.542H476.446L474.865 258.28H485.781L487.362 255.542Z" fill="#B2B2B2"/>
<path d="M420.577 210.501L430.566 236.154L428.985 238.893L418.996 213.239L420.577 210.501Z" fill="#B2B2B2"/>
<path d="M380.932 210.501H392.834L391.253 213.239H379.351L380.932 210.501Z" fill="#B2B2B2"/>
<path d="M430.567 236.152H430.572L428.991 238.891H428.985L430.567 236.152Z" fill="#B2B2B2"/>
<path d="M402.882 236.154L412.931 210.501L411.35 213.239L401.301 238.893L402.882 236.154Z" fill="#B2B2B2"/>
<path d="M468.496 255.542H457.58L455.999 258.28H466.915L468.496 255.542Z" fill="#B2B2B2"/>
<path d="M392.833 210.501L402.882 236.154L401.301 238.893L391.252 213.239L392.833 210.501Z" fill="#B2B2B2"/>
<path d="M427.302 255.61L416.697 228.742L415.116 231.481L425.721 258.348L427.302 255.61Z" fill="#B2B2B2"/>
<path d="M416.697 228.742L406.152 255.61L404.571 258.348L415.116 231.481L416.697 228.742Z" fill="#B2B2B2"/>
<path d="M434.948 255.606H427.302L425.721 258.345H433.366L434.948 255.606Z" fill="#B2B2B2"/>
<path d="M398.507 255.608L380.932 210.501L379.351 213.239L396.926 258.347L398.507 255.608Z" fill="#B2B2B2"/>
<path d="M406.152 255.606H398.506L396.925 258.345H404.571L406.152 255.606Z" fill="#B2B2B2"/>
<path d="M803.407 221.39C803.407 218.596 807.292 216.345 812.35 216.345C817.407 216.345 823.02 218.838 826.655 222.851L833.254 214.889C826.965 209.42 820.611 206.562 812.66 206.562C802.731 206.562 792.497 211.059 792.497 221.395C792.497 234.101 803.597 235.015 812.66 235.74C817.717 236.105 822.219 236.471 822.219 239.753C822.219 243.278 817.102 244.922 812.6 244.922C807.358 244.922 801.685 242.735 797.554 237.808L790.524 245.163C796.137 251.911 804.273 254.887 812.23 254.887C822.219 254.887 833.134 250.208 833.134 239.506C833.134 227.407 821.913 226.252 813.281 225.403C807.853 224.855 803.418 224.372 803.418 221.39H803.407ZM753.276 224.366C755.063 219.929 758.949 217.312 764.682 217.312C770.415 217.312 773.87 220.047 775.352 224.366H753.276ZM765.178 206.557C751.548 206.557 740.573 217.011 740.573 230.813C740.573 243.761 750.251 254.947 764.562 254.947C773.194 254.947 780.164 250.874 785.096 243.885L777.576 237.626C774.922 241.639 770.115 244.008 764.382 244.008C758.649 244.008 752.48 239.694 751.99 233.371H787.57V229.599C787.57 212.451 773.758 206.557 765.178 206.557ZM724.169 255.099H735.085V210.05H724.169V255.099ZM721.39 196.377C721.39 200.939 725.03 204.221 729.777 204.221C734.524 204.221 737.793 200.998 737.793 196.56C737.793 192.122 734.093 188.174 729.592 188.174C725.009 188.174 721.39 192.002 721.39 196.377ZM571.613 206.498C566.496 206.498 561.869 208.018 557.924 210.629V186.802H547.008V230.754C547.008 244.126 558.044 254.887 571.548 254.887C585.052 254.887 596.213 244.191 596.213 230.631C596.213 217.07 584.408 206.498 571.613 206.498ZM514.943 207.228C502.796 208.442 492.867 218.779 492.867 231.061C492.867 244.067 504.153 254.952 517.346 254.952C530.54 254.952 541.826 244.073 541.826 231.061C541.826 225.527 539.793 220.423 536.523 216.41L512.354 186.861H498.234L514.943 207.228ZM430.463 235.709L420.474 210.056H412.828L402.779 235.709L392.73 210.056H380.828L398.403 255.163H406.049L416.594 228.295L427.199 255.163H434.845L452.36 210.056H440.518L430.469 235.709H430.463ZM625.81 206.557C612.556 206.557 601.145 217.011 601.145 230.206C601.145 243.401 610.823 254.947 625.194 254.947C633.826 254.947 640.796 250.874 645.728 243.885L637.221 237.078C634.752 241.456 630.006 244.008 625.259 244.008C619.09 244.008 613.052 239.694 612.556 233.371H648.256V230.088C648.256 216.45 639.063 206.557 625.81 206.557ZM664.84 220.328V210.056H653.924V255.104H664.84V236.075C664.84 226.823 674.889 221.182 684.818 221.182V210.056H683.706C675.319 210.056 669.216 213.097 664.84 220.328ZM699.494 220.328V210.056H688.578V255.104H699.494V236.075C699.494 226.823 709.543 221.182 719.472 221.182V210.056H718.36C709.973 210.056 703.87 213.097 699.494 220.328ZM476.343 255.099H487.259V186.861H476.343V255.099ZM517.412 244.126C509.891 244.126 503.782 238.168 503.782 230.754C503.782 223.34 509.886 217.318 517.346 217.318C524.807 217.318 531.095 223.276 531.095 230.754C531.095 238.233 524.927 244.126 517.406 244.126H517.412ZM571.553 244.126C564.153 244.126 557.924 238.292 557.924 230.69C557.924 223.088 563.782 217.318 571.613 217.318C579.444 217.318 585.303 223.335 585.303 230.69C585.303 238.045 579.074 244.126 571.553 244.126ZM457.477 255.099H468.392V210.05H457.477V255.099ZM462.779 188.168C458.338 188.168 454.638 191.816 454.638 196.436C454.638 201.057 458.523 204.28 462.779 204.28C467.526 204.28 471.106 200.391 471.106 196.195C471.106 191.999 467.346 188.168 462.779 188.168ZM613.853 224.366C615.701 219.929 619.526 217.312 625.199 217.312C630.872 217.312 634.572 220.047 636.049 224.366H613.853Z" fill="#FF00CC"/>
<g filter="url(#filter0_d_3112_11037)">
<rect x="424.775" y="397.582" width="53.2142" height="53.2142" rx="21.5218" fill="#FF00CC"/>
</g>
<path fill-rule="evenodd" clip-rule="evenodd" d="M462.374 425.264C460.234 425.264 458.433 423.545 458.433 421.307C458.433 419.069 460.127 417.368 462.392 417.368C464.656 417.368 466.351 419.141 466.351 421.307C466.351 423.473 464.55 425.264 462.374 425.264ZM447.617 422.238L444.728 414.683H442.517L439.61 422.238L436.703 414.683H433.261L438.343 427.967H440.555L443.604 420.054L446.671 427.967H448.883L453.948 414.683H450.524L447.617 422.238H447.617ZM462.392 414.182C460.912 414.182 459.574 414.629 458.433 415.399V408.381H455.277V421.325C455.277 425.264 458.469 428.433 462.375 428.433C466.28 428.433 469.508 425.282 469.508 421.289C469.508 417.296 466.352 414.181 462.392 414.181L462.392 414.182Z" fill="white"/>
<rect x="441.358" y="434.096" width="20.6035" height="2.94335" fill="white"/>
<rect x="71.9482" y="192.573" width="60.1718" height="60.1718" rx="24.1259" fill="#FF00CC"/>
<path fill-rule="evenodd" clip-rule="evenodd" d="M114.407 229.078C111.998 229.078 109.97 227.122 109.97 224.574C109.97 222.027 111.878 220.091 114.427 220.091C116.976 220.091 118.884 222.109 118.884 224.574C118.884 227.04 116.856 229.078 114.407 229.078ZM97.7937 225.634L94.5416 217.035H92.0521L88.7795 225.634L85.507 217.035H81.6318L87.3535 232.156H89.8429L93.2761 223.148L96.7292 232.156H99.2187L104.92 217.035H101.066L97.7932 225.634H97.7937ZM114.427 216.464C112.76 216.464 111.255 216.973 109.97 217.85V209.861H106.417V224.595C106.417 229.078 110.011 232.685 114.407 232.685C118.804 232.685 122.438 229.099 122.438 224.554C122.438 220.009 118.885 216.463 114.427 216.463L114.427 216.464Z" fill="white"/>
<rect x="132.12" y="216.089" width="20.7489" height="3.45815" fill="#FF00CC"/>
<rect x="132.12" y="226.462" width="20.7489" height="3.45815" fill="#FF00CC"/>
<rect x="149.153" y="205.771" width="3.51946" height="33.4349" fill="#FF00CC"/>
<g filter="url(#filter1_d_3112_11037)">
<rect x="153" y="150.384" width="1286" height="11" fill="#F5F5F5"/>
</g>
<g filter="url(#filter2_d_3112_11037)">
<rect x="153" y="276.384" width="1286" height="11" fill="#F5F5F5"/>
</g>
<rect width="1257" height="115" transform="matrix(1 0 0 -1 153 276.384)" stroke="black" stroke-width="2" stroke-linecap="round" stroke-dasharray="12 12"/>
</g>
<defs>
<filter id="filter0_d_3112_11037" x="421.832" y="397.582" width="56.1572" height="57.1386" filterUnits="userSpaceOnUse" color-interpolation-filters="sRGB">
<feFlood flood-opacity="0" result="BackgroundImageFix"/>
<feColorMatrix in="SourceAlpha" type="matrix" values="0 0 0 0 0 0 0 0 0 0 0 0 0 0 0 0 0 0 127 0" result="hardAlpha"/>
<feOffset dx="-2.94335" dy="3.92447"/>
<feComposite in2="hardAlpha" operator="out"/>
<feColorMatrix type="matrix" values="0 0 0 0 0 0 0 0 0 0 0 0 0 0 0 0 0 0 0.25 0"/>
<feBlend mode="normal" in2="BackgroundImageFix" result="effect1_dropShadow_3112_11037"/>
<feBlend mode="normal" in="SourceGraphic" in2="effect1_dropShadow_3112_11037" result="shape"/>
</filter>
<filter id="filter1_d_3112_11037" x="153" y="150.384" width="1286" height="13" filterUnits="userSpaceOnUse" color-interpolation-filters="sRGB">
<feFlood flood-opacity="0" result="BackgroundImageFix"/>
<feColorMatrix in="SourceAlpha" type="matrix" values="0 0 0 0 0 0 0 0 0 0 0 0 0 0 0 0 0 0 127 0" result="hardAlpha"/>
<feOffset dy="2"/>
<feComposite in2="hardAlpha" operator="out"/>
<feColorMatrix type="matrix" values="0 0 0 0 0.698039 0 0 0 0 0.698039 0 0 0 0 0.698039 0 0 0 1 0"/>
<feBlend mode="normal" in2="BackgroundImageFix" result="effect1_dropShadow_3112_11037"/>
<feBlend mode="normal" in="SourceGraphic" in2="effect1_dropShadow_3112_11037" result="shape"/>
</filter>
<filter id="filter2_d_3112_11037" x="153" y="276.384" width="1286" height="13" filterUnits="userSpaceOnUse" color-interpolation-filters="sRGB">
<feFlood flood-opacity="0" result="BackgroundImageFix"/>
<feColorMatrix in="SourceAlpha" type="matrix" values="0 0 0 0 0 0 0 0 0 0 0 0 0 0 0 0 0 0 127 0" result="hardAlpha"/>
<feOffset dy="2"/>
<feComposite in2="hardAlpha" operator="out"/>
<feColorMatrix type="matrix" values="0 0 0 0 0.698039 0 0 0 0 0.698039 0 0 0 0 0.698039 0 0 0 1 0"/>
<feBlend mode="normal" in2="BackgroundImageFix" result="effect1_dropShadow_3112_11037"/>
<feBlend mode="normal" in="SourceGraphic" in2="effect1_dropShadow_3112_11037" result="shape"/>
</filter>
<clipPath id="clip0_3112_11037">
<rect width="1362" height="768" fill="white" transform="translate(0 0.125977)"/>
</clipPath>
</defs>
</svg>
