<svg width="931" height="756" viewBox="0 0 931 756" fill="none" xmlns="http://www.w3.org/2000/svg">
<g clip-path="url(#clip0_3110_11776)">
<rect y="0.79248" width="930.278" height="754.28" fill="#EDEDED"/>
<rect x="38.0449" y="85.5841" width="854.193" height="207.777" fill="#FF00CC"/>
<path d="M770.244 182.93C770.244 178.51 776.281 174.949 784.138 174.949C791.996 174.949 800.717 178.893 806.365 185.241L816.619 172.646C806.848 163.993 796.975 159.472 784.621 159.472C769.194 159.472 753.292 166.586 753.292 182.938C753.292 203.039 770.54 204.484 784.621 205.631C792.479 206.209 799.473 206.787 799.473 211.98C799.473 217.556 791.522 220.156 784.528 220.156C776.382 220.156 767.568 216.697 761.15 208.903L750.227 220.539C758.948 231.214 771.59 235.923 783.952 235.923C799.473 235.923 816.433 228.52 816.433 211.589C816.433 192.449 798.998 190.622 785.586 189.279C777.153 188.412 770.261 187.647 770.261 182.93H770.244ZM692.353 187.638C695.13 180.618 701.167 176.479 710.075 176.479C718.983 176.479 724.351 180.805 726.654 187.638H692.353ZM710.846 159.463C689.669 159.463 672.616 176.003 672.616 197.837C672.616 218.321 687.654 236.016 709.889 236.016C723.301 236.016 734.131 229.574 741.793 218.516L730.109 208.614C725.985 214.963 718.517 218.712 709.609 218.712C700.702 218.712 691.117 211.887 690.355 201.883H745.638V195.917C745.638 174.855 731.362 159.472 710.862 159.472L710.846 159.463ZM647.129 236.256H664.089V164.99H647.129V236.256ZM655.554 130.373C648.653 130.373 642.811 136.144 642.811 143.36C642.811 150.576 648.467 155.769 655.842 155.769C663.217 155.769 668.297 150.669 668.297 143.649C668.297 136.628 662.548 130.381 655.554 130.381V130.373ZM410.096 159.37C402.145 159.37 394.956 161.775 388.826 165.906V128.212H371.866V197.744C371.866 218.899 389.012 235.923 409.994 235.923C430.976 235.923 448.317 219 448.317 197.548C448.317 176.096 431.357 159.37 410.087 159.37H410.096ZM322.044 160.526C303.171 162.447 287.743 178.799 287.743 198.228C287.743 218.805 305.279 236.024 325.778 236.024C346.278 236.024 363.813 218.814 363.813 198.228C363.813 189.474 360.655 181.4 355.575 175.051L318.022 128.305H296.083L322.044 160.526ZM190.784 205.583L175.264 164.999H163.384L147.77 205.583L132.157 164.999H113.664L140.971 236.358H152.851L169.235 193.854L185.712 236.358H197.592L224.806 164.999H206.406L190.793 205.583H190.784ZM494.303 159.463C473.126 159.463 455.98 176.003 455.98 196.877C455.98 217.751 471.018 236.016 493.346 236.016C506.758 236.016 517.588 229.574 525.251 218.516L512.033 207.747C508.198 214.674 500.823 218.712 493.448 218.712C483.863 218.712 474.481 211.887 473.71 201.883H529.18V196.69C529.18 174.855 514.811 159.472 494.303 159.472V159.463ZM554.946 181.249V164.999H537.986V236.265H554.946V206.161C554.946 191.525 570.559 182.601 585.987 182.601V164.999H584.259C571.228 164.999 561.745 169.809 554.946 181.249ZM608.789 181.249V164.999H591.829V236.265H608.789V206.161C608.789 191.525 624.403 182.601 639.83 182.601V164.999H638.103C625.072 164.999 615.588 169.809 608.789 181.249ZM262.07 236.256H279.03V128.305H262.07V236.256ZM325.88 218.899C314.195 218.899 304.703 209.473 304.703 197.744C304.703 186.015 314.187 176.487 325.778 176.487C337.37 176.487 347.141 185.913 347.141 197.744C347.141 209.575 337.556 218.899 325.871 218.899H325.88ZM410.002 218.899C398.504 218.899 388.826 209.668 388.826 197.642C388.826 185.615 397.928 176.487 410.096 176.487C422.263 176.487 431.365 186.006 431.365 197.642C431.365 209.277 421.687 218.899 410.002 218.899ZM232.757 236.256H249.717V164.99H232.757V236.256ZM240.995 130.373C234.094 130.373 228.345 136.144 228.345 143.453C228.345 150.763 234.382 155.862 240.995 155.862C248.37 155.862 253.933 149.709 253.933 143.071C253.933 136.433 248.091 130.373 240.995 130.373ZM475.726 187.638C478.596 180.618 484.54 176.479 493.355 176.479C502.169 176.479 507.918 180.805 510.213 187.638H475.726Z" fill="white"/>
<rect x="38.0449" y="348.317" width="625.532" height="152.157" fill="#FF00CC"/>
<path d="M574.24 419.606C574.24 416.369 578.661 413.761 584.416 413.761C590.17 413.761 596.556 416.649 600.692 421.299L608.201 412.075C601.046 405.738 593.816 402.427 584.769 402.427C573.471 402.427 561.826 407.637 561.826 419.612C561.826 434.332 574.457 435.39 584.769 436.23C590.523 436.653 595.645 437.077 595.645 440.88C595.645 444.963 589.822 446.867 584.701 446.867C578.736 446.867 572.281 444.334 567.581 438.626L559.582 447.147C565.968 454.965 575.226 458.413 584.279 458.413C595.645 458.413 608.065 452.992 608.065 440.593C608.065 426.577 595.298 425.238 585.476 424.255C579.3 423.62 574.253 423.06 574.253 419.606H574.24ZM517.2 423.054C519.234 417.913 523.655 414.882 530.178 414.882C536.701 414.882 540.633 418.05 542.319 423.054H517.2ZM530.743 402.421C515.235 402.421 502.747 414.533 502.747 430.523C502.747 445.523 513.759 458.481 530.042 458.481C539.864 458.481 547.794 453.763 553.406 445.666L544.849 438.415C541.829 443.064 536.36 445.809 529.837 445.809C523.314 445.809 516.295 440.811 515.737 433.485H556.221V429.116C556.221 413.693 545.767 402.427 530.755 402.427L530.743 402.421ZM484.082 458.657H496.502V406.469H484.082V458.657ZM490.252 381.118C485.199 381.118 480.92 385.344 480.92 390.628C480.92 395.913 485.062 399.715 490.463 399.715C495.864 399.715 499.584 395.981 499.584 390.84C499.584 385.699 495.374 381.124 490.252 381.124V381.118ZM310.501 402.353C304.679 402.353 299.414 404.114 294.925 407.139V379.535H282.505V430.454C282.505 445.946 295.061 458.413 310.427 458.413C325.792 458.413 338.491 446.021 338.491 430.311C338.491 414.602 326.071 402.353 310.495 402.353H310.501ZM246.02 403.199C232.199 404.606 220.901 416.581 220.901 430.809C220.901 445.877 233.743 458.487 248.755 458.487C263.767 458.487 276.608 445.884 276.608 430.809C276.608 424.398 274.295 418.485 270.575 413.836L243.075 379.604H227.009L246.02 403.199ZM149.898 436.195L138.532 406.475H129.832L118.398 436.195L106.964 406.475H93.4219L113.419 458.732H122.119L134.117 427.605L146.183 458.732H154.883L174.812 406.475H161.338L149.904 436.195H149.898ZM372.167 402.421C356.659 402.421 344.102 414.533 344.102 429.819C344.102 445.106 355.115 458.481 371.466 458.481C381.288 458.481 389.218 453.763 394.83 445.666L385.151 437.78C382.342 442.853 376.941 445.809 371.54 445.809C364.521 445.809 357.651 440.811 357.087 433.485H397.707V429.682C397.707 413.693 387.185 402.427 372.167 402.427V402.421ZM416.576 418.375V406.475H404.156V458.664H416.576V436.618C416.576 425.9 428.01 419.365 439.307 419.365V406.475H438.043C428.5 406.475 421.555 409.998 416.576 418.375ZM456.006 418.375V406.475H443.586V458.664H456.006V436.618C456.006 425.9 467.44 419.365 478.737 419.365V406.475H477.473C467.93 406.475 460.985 409.998 456.006 418.375ZM202.101 458.657H214.521V379.604H202.101V458.657ZM248.829 445.946C240.272 445.946 233.321 439.043 233.321 430.454C233.321 421.865 240.266 414.888 248.755 414.888C257.243 414.888 264.399 421.79 264.399 430.454C264.399 439.118 257.38 445.946 248.823 445.946H248.829ZM310.433 445.946C302.012 445.946 294.925 439.187 294.925 430.38C294.925 421.572 301.591 414.888 310.501 414.888C319.411 414.888 326.077 421.859 326.077 430.38C326.077 438.9 318.99 445.946 310.433 445.946ZM180.634 458.657H193.054V406.469H180.634V458.657ZM186.668 381.118C181.614 381.118 177.404 385.344 177.404 390.697C177.404 396.049 181.825 399.784 186.668 399.784C192.068 399.784 196.142 395.278 196.142 390.417C196.142 385.556 191.864 381.118 186.668 381.118ZM358.562 423.054C360.664 417.913 365.017 414.882 371.472 414.882C377.927 414.882 382.137 418.05 383.818 423.054H358.562Z" fill="white"/>
<rect x="38.0449" y="555.431" width="473.092" height="115.076" fill="#FF00CC"/>
<path d="M443.571 609.349C443.571 606.901 446.915 604.929 451.266 604.929C455.618 604.929 460.449 607.113 463.577 610.629L469.256 603.653C463.844 598.861 458.376 596.357 451.534 596.357C442.989 596.357 434.182 600.297 434.182 609.354C434.182 620.486 443.735 621.287 451.534 621.922C455.886 622.242 459.759 622.562 459.759 625.438C459.759 628.526 455.356 629.967 451.482 629.967C446.971 629.967 442.089 628.051 438.534 623.734L432.485 630.179C437.315 636.091 444.316 638.699 451.163 638.699C459.759 638.699 469.152 634.599 469.152 625.222C469.152 614.621 459.497 613.609 452.068 612.865C447.398 612.385 443.58 611.961 443.58 609.349H443.571ZM400.431 611.957C401.97 608.069 405.313 605.776 410.247 605.776C415.18 605.776 418.153 608.172 419.429 611.957H400.431ZM410.673 596.352C398.945 596.352 389.5 605.512 389.5 617.605C389.5 628.95 397.829 638.751 410.144 638.751C417.572 638.751 423.57 635.182 427.814 629.058L421.342 623.574C419.058 627.091 414.922 629.167 409.989 629.167C405.055 629.167 399.747 625.387 399.325 619.846H429.943V616.542C429.943 604.877 422.036 596.357 410.683 596.357L410.673 596.352ZM375.384 638.884H384.778V599.413H375.384V638.884ZM380.05 580.241C376.228 580.241 372.993 583.437 372.993 587.433C372.993 591.43 376.125 594.306 380.21 594.306C384.295 594.306 387.108 591.481 387.108 587.593C387.108 583.705 383.924 580.245 380.05 580.245V580.241ZM244.104 596.3C239.701 596.3 235.719 597.632 232.324 599.92V579.043H222.931V617.554C222.931 629.27 232.427 638.699 244.048 638.699C255.669 638.699 265.273 629.327 265.273 617.445C265.273 605.564 255.88 596.3 244.1 596.3H244.104ZM195.337 596.941C184.884 598.004 176.34 607.061 176.34 617.822C176.34 629.218 186.052 638.755 197.405 638.755C208.759 638.755 218.471 629.223 218.471 617.822C218.471 612.973 216.722 608.502 213.908 604.985L193.11 579.095H180.959L195.337 596.941ZM122.639 621.895L114.043 599.418H107.464L98.8164 621.895L90.1688 599.418H79.9268L95.0507 638.94H101.63L110.704 615.399L119.83 638.94H126.41L141.482 599.418H131.292L122.644 621.895H122.639ZM290.742 596.352C279.013 596.352 269.517 605.512 269.517 617.074C269.517 628.635 277.846 638.751 290.212 638.751C297.64 638.751 303.638 635.182 307.883 629.058L300.562 623.094C298.438 626.931 294.353 629.167 290.268 629.167C284.96 629.167 279.764 625.387 279.337 619.846H310.058V616.97C310.058 604.877 302.1 596.357 290.742 596.357V596.352ZM324.329 608.418V599.418H314.936V638.888H324.329V622.215C324.329 614.109 332.976 609.167 341.521 609.167V599.418H340.564C333.347 599.418 328.095 602.082 324.329 608.418ZM354.15 608.418V599.418H344.757V638.888H354.15V622.215C354.15 614.109 362.797 609.167 371.342 609.167V599.418H370.385C363.168 599.418 357.916 602.082 354.15 608.418ZM162.121 638.884H171.514V579.095H162.121V638.884ZM197.462 629.27C190.99 629.27 185.733 624.05 185.733 617.554C185.733 611.058 190.985 605.781 197.405 605.781C203.825 605.781 209.237 611.001 209.237 617.554C209.237 624.106 203.929 629.27 197.457 629.27H197.462ZM244.053 629.27C237.684 629.27 232.324 624.158 232.324 617.497C232.324 610.836 237.365 605.781 244.104 605.781C250.843 605.781 255.884 611.053 255.884 617.497C255.884 623.941 250.524 629.27 244.053 629.27ZM145.886 638.884H155.279V599.413H145.886V638.884ZM150.449 580.241C146.627 580.241 143.442 583.437 143.442 587.485C143.442 591.533 146.786 594.358 150.449 594.358C154.533 594.358 157.614 590.95 157.614 587.273C157.614 583.597 154.379 580.241 150.449 580.241ZM280.453 611.957C282.043 608.069 285.335 605.776 290.217 605.776C295.099 605.776 298.283 608.172 299.554 611.957H280.453Z" fill="white"/>
</g>
<defs>
<clipPath id="clip0_3110_11776">
<rect width="930.278" height="754.28" fill="white" transform="translate(0 0.79248)"/>
</clipPath>
</defs>
</svg>
