<svg width="445" height="756" viewBox="0 0 445 756" fill="none" xmlns="http://www.w3.org/2000/svg">
<g clip-path="url(#clip0_3110_11802)">
<rect x="0.546875" y="0.338745" width="930.278" height="754.28" fill="#D0D4DB"/>
<path d="M310.01 195.282C310.01 171.089 290.838 152.191 266.871 152.186H266.862C260.398 152.188 254.373 153.601 248.931 156.127V124.095V120.197H245.033H227.62H223.723V124.095V195.483C223.723 219.36 243.076 238.578 266.766 238.578C290.437 238.578 310.01 219.484 310.01 195.282ZM194.27 160.465L181.884 192.659L169.575 160.472L168.617 157.966H165.934H153.737H151.06L150.099 160.465L137.707 192.676L125.315 160.465L124.353 157.966H121.677H102.69H97.0252L99.0499 163.257L127.086 236.522L128.044 239.027H130.726H142.923H145.598L146.56 236.531L159.755 202.3L173.027 236.537L173.992 239.027H176.662H188.858H191.543L192.5 236.517L220.44 163.253L222.457 157.966H216.798H197.908H195.231L194.27 160.465ZM266.775 213.304C257.078 213.304 248.931 205.529 248.931 195.378C248.931 185.194 256.52 177.557 266.871 177.557C277.174 177.557 284.81 185.548 284.81 195.378C284.81 205.152 276.638 213.304 266.775 213.304Z" fill="#FF00CC" stroke="white" stroke-width="7.79598"/>
<path d="M221.387 378.608C217.074 378.609 213.02 379.441 209.299 380.947V359.08V355.182H205.401H192.65H188.752V359.08V382.84H186.253H172.419H169.742L168.781 385.339L160.687 406.376L152.645 385.346L151.687 382.84H149.004H140.072H137.396L136.434 385.339L128.333 406.396L120.232 385.339L119.271 382.84H116.594H102.69H97.0252L99.0499 388.132L119.581 441.783L120.539 444.288H123.221H132.153H134.828L135.79 441.792L144.482 419.244L153.226 441.799L154.19 444.288H156.86H165.792H168.477L169.434 441.779L188.752 391.124V411.358C188.752 429.421 203.393 443.961 221.317 443.961C239.22 443.961 254.028 429.517 254.028 411.211C254.028 392.912 239.516 378.612 221.393 378.608H221.387ZM221.323 423.365C214.786 423.365 209.299 418.126 209.299 411.281C209.299 404.403 214.387 399.274 221.393 399.274C228.352 399.274 233.487 404.649 233.487 411.281C233.487 417.857 227.975 423.365 221.323 423.365Z" fill="#FF00CC" stroke="white" stroke-width="7.79598"/>
<path d="M190.224 578.159C187.333 578.159 184.59 578.636 182.032 579.51V564.339V560.441H178.134H168.49H164.592V564.339V581.36H155.426H152.749L151.788 583.858L146.556 597.457L141.358 583.865L140.4 581.36H137.718H130.963H128.286L127.325 583.858L122.084 597.479L116.844 583.858L115.883 581.36H113.206H102.69H97.0252L99.0499 586.651L114.577 627.228L115.536 629.733H118.218H124.973H127.648L128.61 627.237L134.3 612.476L140.025 627.244L140.989 629.733H143.659H150.414H153.099L154.056 627.224L164.592 599.597V603.877C164.592 618.064 176.092 629.485 190.171 629.485C204.23 629.485 215.86 618.142 215.86 603.766C215.86 589.398 204.455 578.161 190.228 578.159H190.224ZM190.175 612.008C185.746 612.008 182.032 608.461 182.032 603.819C182.032 599.144 185.452 595.688 190.228 595.688C194.958 595.688 198.425 599.319 198.425 603.819C198.425 608.263 194.686 612.008 190.175 612.008Z" fill="#FF00CC" stroke="white" stroke-width="7.79598"/>
</g>
<defs>
<clipPath id="clip0_3110_11802">
<rect width="443.505" height="754.499" fill="white" transform="translate(0.546875 0.918457)"/>
</clipPath>
</defs>
</svg>
