<svg width="207" height="60" viewBox="0 0 207 60" fill="none" xmlns="http://www.w3.org/2000/svg">
<rect width="207" height="60" rx="30" fill="black"/>
<path d="M29.5597 34.9051H32.8349C32.9043 35.8062 33.3115 36.4908 34.0567 36.9587C34.8105 37.4266 35.7896 37.6605 36.994 37.6605C38.2244 37.6605 39.2772 37.4092 40.1523 36.9067C41.0275 36.3955 41.4651 35.5723 41.4651 34.4372C41.4651 33.77 41.3004 33.1895 40.9712 32.6956C40.6419 32.193 40.1783 31.8031 39.5805 31.5259C38.9826 31.2486 38.2764 31.1099 37.4619 31.1099H34.0307V28.3545H37.4619C38.6837 28.3545 39.5848 28.0773 40.1653 27.5227C40.7545 26.9682 41.0491 26.275 41.0491 25.4432C41.0491 24.5507 40.7329 23.8359 40.1004 23.2987C39.4678 22.7528 38.571 22.4798 37.4099 22.4798C36.2402 22.4798 35.2654 22.7441 34.4856 23.2727C33.7058 23.7925 33.2942 24.4641 33.2509 25.2872H30.0276C30.0622 24.2128 30.3915 23.264 31.0153 22.4408C31.6392 21.609 32.4884 20.9592 33.5628 20.4913C34.6372 20.0147 35.8676 19.7764 37.254 19.7764C38.6577 19.7764 39.8751 20.0234 40.9062 20.5173C41.946 21.0025 42.7474 21.6653 43.3107 22.5058C43.8825 23.3376 44.1685 24.2821 44.1685 25.3392C44.1685 26.4656 43.8522 27.3754 43.2197 28.0686C42.5871 28.7618 41.7943 29.2557 40.8412 29.5503V29.7582C41.595 29.8102 42.2492 30.0528 42.8038 30.4861C43.367 30.9107 43.8045 31.4695 44.1165 32.1627C44.4284 32.8472 44.5844 33.6054 44.5844 34.4372C44.5844 35.6503 44.2594 36.7074 43.6096 37.6085C42.9597 38.501 42.0673 39.1942 40.9322 39.6881C39.7971 40.1733 38.5017 40.4159 37.046 40.4159C35.6337 40.4159 34.3686 40.1863 33.2509 39.7271C32.1331 39.2592 31.245 38.6136 30.5864 37.7905C29.9366 36.9587 29.5943 35.9969 29.5597 34.9051ZM54.0356 40.4679C52.7706 40.4679 51.6225 40.2296 50.5914 39.7531C49.5603 39.2678 48.7415 38.5703 48.1349 37.6605C47.5284 36.742 47.2251 35.633 47.2251 34.3332C47.2251 33.1895 47.4504 32.2624 47.901 31.5518C48.3516 30.8327 48.9538 30.2695 49.7076 29.8622C50.4614 29.455 51.2932 29.1517 52.203 28.9524C53.1215 28.7445 54.0443 28.5798 54.9714 28.4585C56.1845 28.3026 57.168 28.1856 57.9218 28.1076C58.6843 28.021 59.2388 27.878 59.5854 27.6787C59.9407 27.4794 60.1183 27.1328 60.1183 26.6389V26.5349C60.1183 25.2526 59.7674 24.2561 59.0655 23.5456C58.3724 22.8351 57.3196 22.4798 55.9072 22.4798C54.4429 22.4798 53.2948 22.8004 52.463 23.4416C51.6312 24.0828 51.0463 24.7673 50.7084 25.4952L47.797 24.4554C48.3169 23.2423 49.0101 22.2979 49.8766 21.622C50.7517 20.9375 51.7048 20.4609 52.7359 20.1923C53.7757 19.9151 54.7981 19.7764 55.8033 19.7764C56.4445 19.7764 57.181 19.8544 58.0128 20.0104C58.8533 20.1577 59.6634 20.4653 60.4432 20.9332C61.2317 21.4011 61.8859 22.1072 62.4058 23.0517C62.9257 23.9962 63.1856 25.2612 63.1856 26.8469V40H60.1183V37.2966H59.9624C59.7544 37.7298 59.4078 38.1934 58.9226 38.6873C58.4374 39.1812 57.7918 39.6014 56.986 39.948C56.1802 40.2946 55.1967 40.4679 54.0356 40.4679ZM54.5035 37.7125C55.7166 37.7125 56.7391 37.4742 57.5709 36.9977C58.4114 36.5211 59.0439 35.9059 59.4685 35.1521C59.9017 34.3982 60.1183 33.6054 60.1183 32.7736V29.9662C59.9883 30.1222 59.7024 30.2651 59.2605 30.3951C58.8273 30.5164 58.3247 30.6247 57.7528 30.72C57.1896 30.8067 56.6394 30.8847 56.1022 30.954C55.5736 31.0146 55.1447 31.0666 54.8155 31.1099C54.0183 31.2139 53.2731 31.3829 52.58 31.6168C51.8954 31.8421 51.3409 32.1844 50.9163 32.6436C50.5004 33.0942 50.2925 33.7094 50.2925 34.4892C50.2925 35.555 50.6867 36.3608 51.4752 36.9067C52.2724 37.4439 53.2818 37.7125 54.5035 37.7125ZM68.0522 40V20.0364H71.1195V28.7185H73.1471L80.3215 20.0364H84.2726L76.2144 29.6543L84.3766 40H80.4255L73.8749 31.5778H71.1195V40H68.0522ZM92.8531 40.4679C91.588 40.4679 90.44 40.2296 89.4088 39.7531C88.3777 39.2678 87.5589 38.5703 86.9524 37.6605C86.3458 36.742 86.0426 35.633 86.0426 34.3332C86.0426 33.1895 86.2679 32.2624 86.7184 31.5518C87.169 30.8327 87.7712 30.2695 88.525 29.8622C89.2789 29.455 90.1107 29.1517 91.0205 28.9524C91.939 28.7445 92.8618 28.5798 93.7889 28.4585C95.002 28.3026 95.9854 28.1856 96.7392 28.1076C97.5017 28.021 98.0563 27.878 98.4029 27.6787C98.7581 27.4794 98.9358 27.1328 98.9358 26.6389V26.5349C98.9358 25.2526 98.5848 24.2561 97.883 23.5456C97.1898 22.8351 96.137 22.4798 94.7247 22.4798C93.2603 22.4798 92.1123 22.8004 91.2804 23.4416C90.4486 24.0828 89.8637 24.7673 89.5258 25.4952L86.6145 24.4554C87.1343 23.2423 87.8275 22.2979 88.694 21.622C89.5691 20.9375 90.5223 20.4609 91.5534 20.1923C92.5931 19.9151 93.6156 19.7764 94.6207 19.7764C95.2619 19.7764 95.9984 19.8544 96.8302 20.0104C97.6707 20.1577 98.4809 20.4653 99.2607 20.9332C100.049 21.4011 100.703 22.1072 101.223 23.0517C101.743 23.9962 102.003 25.2612 102.003 26.8469V40H98.9358V37.2966H98.7798C98.5718 37.7298 98.2253 38.1934 97.74 38.6873C97.2548 39.1812 96.6093 39.6014 95.8034 39.948C94.9976 40.2946 94.0142 40.4679 92.8531 40.4679ZM93.321 37.7125C94.5341 37.7125 95.5565 37.4742 96.3883 36.9977C97.2288 36.5211 97.8613 35.9059 98.2859 35.1521C98.7191 34.3982 98.9358 33.6054 98.9358 32.7736V29.9662C98.8058 30.1222 98.5199 30.2651 98.0779 30.3951C97.6447 30.5164 97.1422 30.6247 96.5703 30.72C96.0071 30.8067 95.4569 30.8847 94.9196 30.954C94.3911 31.0146 93.9622 31.0666 93.6329 31.1099C92.8358 31.2139 92.0906 31.3829 91.3974 31.6168C90.7129 31.8421 90.1583 32.1844 89.7338 32.6436C89.3179 33.0942 89.1099 33.7094 89.1099 34.4892C89.1099 35.555 89.5042 36.3608 90.2927 36.9067C91.0898 37.4439 92.0993 37.7125 93.321 37.7125ZM105.622 34.9051H108.897C108.966 35.8062 109.374 36.4908 110.119 36.9587C110.873 37.4266 111.852 37.6605 113.056 37.6605C114.287 37.6605 115.339 37.4092 116.215 36.9067C117.09 36.3955 117.527 35.5723 117.527 34.4372C117.527 33.77 117.363 33.1895 117.033 32.6956C116.704 32.193 116.241 31.8031 115.643 31.5259C115.045 31.2486 114.339 31.1099 113.524 31.1099H110.093V28.3545H113.524C114.746 28.3545 115.647 28.0773 116.228 27.5227C116.817 26.9682 117.111 26.275 117.111 25.4432C117.111 24.5507 116.795 23.8359 116.163 23.2987C115.53 22.7528 114.633 22.4798 113.472 22.4798C112.302 22.4798 111.328 22.7441 110.548 23.2727C109.768 23.7925 109.356 24.4641 109.313 25.2872H106.09C106.124 24.2128 106.454 23.264 107.078 22.4408C107.701 21.609 108.551 20.9592 109.625 20.4913C110.699 20.0147 111.93 19.7764 113.316 19.7764C114.72 19.7764 115.937 20.0234 116.968 20.5173C118.008 21.0025 118.81 21.6653 119.373 22.5058C119.945 23.3376 120.231 24.2821 120.231 25.3392C120.231 26.4656 119.914 27.3754 119.282 28.0686C118.649 28.7618 117.857 29.2557 116.903 29.5503V29.7582C117.657 29.8102 118.311 30.0528 118.866 30.4861C119.429 30.9107 119.867 31.4695 120.179 32.1627C120.491 32.8472 120.647 33.6054 120.647 34.4372C120.647 35.6503 120.322 36.7074 119.672 37.6085C119.022 38.501 118.129 39.1942 116.994 39.6881C115.859 40.1733 114.564 40.4159 113.108 40.4159C111.696 40.4159 110.431 40.1863 109.313 39.7271C108.195 39.2592 107.307 38.6136 106.649 37.7905C105.999 36.9587 105.657 35.9969 105.622 34.9051ZM130.098 40.4679C128.833 40.4679 127.685 40.2296 126.654 39.7531C125.623 39.2678 124.804 38.5703 124.197 37.6605C123.591 36.742 123.287 35.633 123.287 34.3332C123.287 33.1895 123.513 32.2624 123.963 31.5518C124.414 30.8327 125.016 30.2695 125.77 29.8622C126.524 29.455 127.355 29.1517 128.265 28.9524C129.184 28.7445 130.107 28.5798 131.034 28.4585C132.247 28.3026 133.23 28.1856 133.984 28.1076C134.747 28.021 135.301 27.878 135.648 27.6787C136.003 27.4794 136.181 27.1328 136.181 26.6389V26.5349C136.181 25.2526 135.83 24.2561 135.128 23.5456C134.435 22.8351 133.382 22.4798 131.969 22.4798C130.505 22.4798 129.357 22.8004 128.525 23.4416C127.693 24.0828 127.109 24.7673 126.771 25.4952L123.859 24.4554C124.379 23.2423 125.072 22.2979 125.939 21.622C126.814 20.9375 127.767 20.4609 128.798 20.1923C129.838 19.9151 130.86 19.7764 131.865 19.7764C132.507 19.7764 133.243 19.8544 134.075 20.0104C134.915 20.1577 135.726 20.4653 136.505 20.9332C137.294 21.4011 137.948 22.1072 138.468 23.0517C138.988 23.9962 139.248 25.2612 139.248 26.8469V40H136.181V37.2966H136.025C135.817 37.7298 135.47 38.1934 134.985 38.6873C134.5 39.1812 133.854 39.6014 133.048 39.948C132.242 40.2946 131.259 40.4679 130.098 40.4679ZM130.566 37.7125C131.779 37.7125 132.801 37.4742 133.633 36.9977C134.474 36.5211 135.106 35.9059 135.531 35.1521C135.964 34.3982 136.181 33.6054 136.181 32.7736V29.9662C136.051 30.1222 135.765 30.2651 135.323 30.3951C134.89 30.5164 134.387 30.6247 133.815 30.72C133.252 30.8067 132.702 30.8847 132.164 30.954C131.636 31.0146 131.207 31.0666 130.878 31.1099C130.081 31.2139 129.335 31.3829 128.642 31.6168C127.958 31.8421 127.403 32.1844 126.979 32.6436C126.563 33.0942 126.355 33.7094 126.355 34.4892C126.355 35.555 126.749 36.3608 127.537 36.9067C128.335 37.4439 129.344 37.7125 130.566 37.7125ZM141.398 22.8957V20.0364H157.618V22.8957H151.068V40H148.001V22.8957H141.398ZM164.012 27.2628H169.731C172.07 27.2628 173.86 27.8563 175.099 29.0434C176.338 30.2305 176.957 31.7338 176.957 33.5534C176.957 34.7491 176.68 35.8366 176.126 36.8157C175.571 37.7862 174.756 38.5616 173.682 39.1422C172.608 39.7141 171.291 40 169.731 40H161.361V20.0364H164.428V37.1406H169.731C170.944 37.1406 171.94 36.82 172.72 36.1788C173.5 35.5376 173.89 34.7145 173.89 33.7094C173.89 32.6523 173.5 31.7901 172.72 31.1229C171.94 30.4558 170.944 30.1222 169.731 30.1222H164.012V27.2628Z" fill="white"/>
</svg>
