<svg width="1363" height="616" viewBox="0 0 1363 616" fill="none" xmlns="http://www.w3.org/2000/svg">
<rect width="1362" height="616" fill="#EDEDED"/>
<rect x="469.484" y="36.9141" width="833.383" height="155.315" fill="#FF00CC"/>
<path d="M1183.74 114.712C1183.74 110.429 1189.62 106.977 1197.29 106.977C1204.95 106.977 1213.46 110.799 1218.96 116.953L1228.97 104.744C1219.44 96.358 1209.81 91.9754 1197.76 91.9754C1182.71 91.9754 1167.2 98.8706 1167.2 114.721C1167.2 134.204 1184.03 135.604 1197.76 136.716C1205.42 137.276 1212.24 137.837 1212.24 142.87C1212.24 148.274 1204.49 150.795 1197.67 150.795C1189.72 150.795 1181.13 147.442 1174.87 139.888L1164.21 151.166C1172.72 161.513 1185.05 166.077 1197.11 166.077C1212.24 166.077 1228.78 158.901 1228.78 142.491C1228.78 123.939 1211.78 122.168 1198.7 120.866C1190.47 120.026 1183.75 119.285 1183.75 114.712H1183.74ZM1107.77 119.276C1110.48 112.472 1116.37 108.46 1125.05 108.46C1133.74 108.46 1138.98 112.653 1141.22 119.276H1107.77ZM1125.81 91.9671C1105.15 91.9671 1088.52 107.998 1088.52 129.162C1088.52 149.016 1103.19 166.167 1124.87 166.167C1137.95 166.167 1148.52 159.923 1155.99 149.205L1144.59 139.608C1140.57 145.762 1133.29 149.395 1124.6 149.395C1115.91 149.395 1106.57 142.779 1105.82 133.083H1159.74V127.3C1159.74 106.886 1145.82 91.9754 1125.82 91.9754L1125.81 91.9671ZM1063.66 166.4H1080.21V97.3243H1063.66V166.4ZM1071.88 63.7707C1065.15 63.7707 1059.45 69.3643 1059.45 76.3585C1059.45 83.3526 1064.97 88.386 1072.16 88.386C1079.35 88.386 1084.31 83.4432 1084.31 76.6385C1084.31 69.8339 1078.7 63.7789 1071.88 63.7789V63.7707ZM832.49 91.8765C824.736 91.8765 817.725 94.2079 811.746 98.2116V61.6758H795.205V129.071C795.205 149.576 811.928 166.077 832.391 166.077C852.854 166.077 869.767 149.675 869.767 128.882C869.767 108.089 853.226 91.8765 832.482 91.8765H832.49ZM746.615 92.9969C728.208 94.8587 713.162 110.709 713.162 129.541C713.162 149.485 730.264 166.176 750.257 166.176C770.25 166.176 787.352 149.494 787.352 129.541C787.352 121.056 784.272 113.23 779.317 107.076L742.693 61.7664H721.296L746.615 92.9969ZM618.6 136.669L603.463 97.3326H591.877L576.649 136.669L561.421 97.3326H543.386L570.018 166.499H581.604L597.583 125.301L613.653 166.499H625.239L651.78 97.3326H633.836L618.608 136.669H618.6ZM914.616 91.9671C893.963 91.9671 877.24 107.998 877.24 128.231C877.24 148.464 891.906 166.167 913.683 166.167C926.764 166.167 937.326 159.923 944.799 149.205L931.908 138.768C928.167 145.482 920.975 149.395 913.782 149.395C904.434 149.395 895.284 142.779 894.533 133.083H948.631V128.05C948.631 106.886 934.617 91.9754 914.616 91.9754V91.9671ZM973.76 113.084V97.3326H957.219V166.409H973.76V137.229C973.76 123.044 988.988 114.394 1004.03 114.394V97.3326H1002.35C989.64 97.3326 980.391 101.995 973.76 113.084ZM1026.27 113.084V97.3326H1009.73V166.409H1026.27V137.229C1026.27 123.044 1041.5 114.394 1056.55 114.394V97.3326H1054.86C1042.15 97.3326 1032.9 101.995 1026.27 113.084ZM688.124 166.4H704.665V61.7664H688.124V166.4ZM750.356 149.576C738.96 149.576 729.703 140.44 729.703 129.071C729.703 117.703 738.952 108.468 750.257 108.468C761.562 108.468 771.092 117.604 771.092 129.071C771.092 140.539 761.744 149.576 750.348 149.576H750.356ZM832.399 149.576C821.185 149.576 811.746 140.629 811.746 128.973C811.746 117.316 820.623 108.468 832.49 108.468C844.357 108.468 853.234 117.695 853.234 128.973C853.234 140.25 843.795 149.576 832.399 149.576ZM659.535 166.4H676.075V97.3243H659.535V166.4ZM667.57 63.7707C660.839 63.7707 655.232 69.3643 655.232 76.4491C655.232 83.5338 661.12 88.4766 667.57 88.4766C674.762 88.4766 680.188 82.5123 680.188 76.0784C680.188 69.6444 674.49 63.7707 667.57 63.7707ZM896.498 119.276C899.297 112.472 905.095 108.46 913.691 108.46C922.288 108.46 927.895 112.653 930.133 119.276H896.498Z" fill="white"/>
<mask id="mask0_3107_10760" style="mask-type:alpha" maskUnits="userSpaceOnUse" x="54" y="167" width="23" height="25">
<rect x="54.2539" y="167.408" width="22.1965" height="24.4306" fill="#D9D9D9"/>
</mask>
<g mask="url(#mask0_3107_10760)">
<path d="M-5.80664 214.224L56.7603 150.951" stroke="black" stroke-width="0.794118" stroke-linecap="round"/>
<path d="M0.475586 214.224L63.0425 150.951" stroke="black" stroke-width="0.794118" stroke-linecap="round"/>
<path d="M6.75781 214.224L69.3247 150.951" stroke="black" stroke-width="0.794118" stroke-linecap="round"/>
<path d="M13.0391 214.224L75.606 150.951" stroke="black" stroke-width="0.794118" stroke-linecap="round"/>
<path d="M19.3213 214.224L81.8882 150.951" stroke="black" stroke-width="0.794118" stroke-linecap="round"/>
<path d="M25.6035 214.224L88.1704 150.951" stroke="black" stroke-width="0.794118" stroke-linecap="round"/>
<path d="M31.8857 214.224L94.4527 150.951" stroke="black" stroke-width="0.794118" stroke-linecap="round"/>
<path d="M38.168 214.224L100.735 150.951" stroke="black" stroke-width="0.794118" stroke-linecap="round"/>
<path d="M44.4492 214.224L107.016 150.951" stroke="black" stroke-width="0.794118" stroke-linecap="round"/>
<path d="M50.7314 214.224L113.298 150.951" stroke="black" stroke-width="0.794118" stroke-linecap="round"/>
<path d="M57.0137 214.224L119.581 150.951" stroke="black" stroke-width="0.794118" stroke-linecap="round"/>
<path d="M63.2959 214.224L125.863 150.951" stroke="black" stroke-width="0.794118" stroke-linecap="round"/>
<path d="M69.5781 214.224L132.145 150.951" stroke="black" stroke-width="0.794118" stroke-linecap="round"/>
<path d="M75.6064 214.224L138.173 150.951" stroke="black" stroke-width="0.794118" stroke-linecap="round"/>
</g>
<mask id="mask1_3107_10760" style="mask-type:alpha" maskUnits="userSpaceOnUse" x="54" y="37" width="23" height="25">
<rect x="54.2539" y="37.0879" width="22.1965" height="24.4306" fill="#D9D9D9"/>
</mask>
<g mask="url(#mask1_3107_10760)">
<path d="M-5.80664 83.904L56.7603 20.6309" stroke="black" stroke-width="0.794118" stroke-linecap="round"/>
<path d="M0.475586 83.904L63.0425 20.6309" stroke="black" stroke-width="0.794118" stroke-linecap="round"/>
<path d="M6.75781 83.904L69.3247 20.6309" stroke="black" stroke-width="0.794118" stroke-linecap="round"/>
<path d="M13.0391 83.904L75.606 20.6309" stroke="black" stroke-width="0.794118" stroke-linecap="round"/>
<path d="M19.3213 83.904L81.8882 20.6309" stroke="black" stroke-width="0.794118" stroke-linecap="round"/>
<path d="M25.6035 83.904L88.1704 20.6309" stroke="black" stroke-width="0.794118" stroke-linecap="round"/>
<path d="M31.8857 83.904L94.4527 20.6309" stroke="black" stroke-width="0.794118" stroke-linecap="round"/>
<path d="M38.168 83.904L100.735 20.6309" stroke="black" stroke-width="0.794118" stroke-linecap="round"/>
<path d="M44.4492 83.904L107.016 20.6309" stroke="black" stroke-width="0.794118" stroke-linecap="round"/>
<path d="M50.7314 83.904L113.298 20.6309" stroke="black" stroke-width="0.794118" stroke-linecap="round"/>
<path d="M57.0137 83.904L119.581 20.6309" stroke="black" stroke-width="0.794118" stroke-linecap="round"/>
<path d="M63.2959 83.904L125.863 20.6309" stroke="black" stroke-width="0.794118" stroke-linecap="round"/>
<path d="M69.5781 83.904L132.145 20.6309" stroke="black" stroke-width="0.794118" stroke-linecap="round"/>
<path d="M75.6064 83.904L138.173 20.6309" stroke="black" stroke-width="0.794118" stroke-linecap="round"/>
</g>
<rect x="76.4121" y="36.9141" width="319.984" height="155.315" fill="#BFBFBF"/>
<path d="M352.816 93.3482C334.447 95.2161 319.432 111.118 319.432 130.012C319.432 150.021 336.499 166.766 356.45 166.766C376.401 166.766 393.468 150.03 393.468 130.012C393.468 121.499 390.394 113.647 385.45 107.473L348.902 62.0156H327.55L352.816 93.3482ZM225.066 137.163L209.961 97.6981H198.399L183.203 137.163L168.007 97.6981H150.009L176.586 167.091H188.147L204.093 125.758L220.13 167.091H231.692L258.178 97.6981H240.271L225.075 137.163H225.066ZM294.446 166.992H310.952V62.0156H294.446V166.992ZM356.549 150.112C345.177 150.112 335.939 140.946 335.939 129.541C335.939 118.135 345.168 108.87 356.45 108.87C367.732 108.87 377.242 118.036 377.242 129.541C377.242 141.046 367.913 150.112 356.541 150.112H356.549ZM265.916 166.992H282.423V97.6898H265.916V166.992ZM273.935 64.0265C267.218 64.0265 261.623 69.6384 261.623 76.7463C261.623 83.8542 267.499 88.8132 273.935 88.8132C281.112 88.8132 286.527 82.8293 286.527 76.3744C286.527 69.9194 280.84 64.0265 273.935 64.0265Z" fill="white"/>
<path d="M290 180.075C290 172.967 295.596 167.355 302.312 167.355C309.218 167.355 314.904 173.248 314.904 179.703C314.904 186.158 309.49 192.142 302.312 192.142C295.876 192.142 290 187.183 290 180.075Z" fill="#FF00CC"/>
<path d="M290 49.6339C290 42.526 295.596 36.9141 302.312 36.9141C309.218 36.9141 314.904 42.807 314.904 49.262C314.904 55.7169 309.49 61.7008 302.312 61.7008C295.876 61.7008 290 56.7418 290 49.6339Z" fill="#FF00CC"/>
<path fill-rule="evenodd" clip-rule="evenodd" d="M113.661 166.678C134.233 166.678 150.91 150.002 150.91 129.43C150.91 108.858 134.233 92.1816 113.661 92.1816C93.0898 92.1816 76.4131 108.858 76.4131 129.43C76.4131 150.002 93.0898 166.678 113.661 166.678ZM113.551 150.1C124.956 150.1 134.202 140.854 134.202 129.449C134.202 118.043 124.956 108.797 113.551 108.797C102.145 108.797 92.8988 118.043 92.8988 129.449C92.8988 140.854 102.145 150.1 113.551 150.1Z" fill="#FF00CC"/>
<path d="M150.005 36.9141V228.764" stroke="black" stroke-width="1.07063" stroke-linecap="round" stroke-dasharray="2.14 2.14"/>
<path d="M54 62.0001L1362 61.9999" stroke="black" stroke-width="1.07063" stroke-linecap="round" stroke-dasharray="2.14 2.14"/>
<path d="M54.4951 36.9136L396.395 36.914" stroke="black" stroke-width="1.07063" stroke-linecap="round" stroke-dasharray="2.14 2.14"/>
<path d="M54 167L1362 167" stroke="black" stroke-width="1.07063" stroke-linecap="round" stroke-dasharray="2.14 2.14"/>
<path d="M54.4951 191.802L396.395 191.803" stroke="black" stroke-width="1.07063" stroke-linecap="round" stroke-dasharray="2.14 2.14"/>
<path d="M76.4131 36.9141V228.764" stroke="black" stroke-width="1.07063" stroke-linecap="round" stroke-dasharray="2.14 2.14"/>
<rect x="56.5137" y="171.588" width="15.8824" height="15.8824" rx="7.94118" fill="black"/>
<path d="M61.1893 176.661H62.1131L63.9606 179.77H64.0387L65.8863 176.661H66.81L64.403 180.577V183.322H63.5963V180.577L61.1893 176.661Z" fill="white"/>
<rect x="56.5137" y="41.2656" width="15.8824" height="15.8824" rx="7.94118" fill="black"/>
<path d="M61.1893 46.3384H62.1131L63.9606 49.448H64.0387L65.8863 46.3384H66.81L64.403 50.2547V53H63.5963V50.2547L61.1893 46.3384Z" fill="white"/>
<mask id="mask2_3107_10760" style="mask-type:alpha" maskUnits="userSpaceOnUse" x="76" y="192" width="75" height="37">
<rect x="76.4043" y="192.189" width="73.7242" height="36.5746" fill="#D9D9D9"/>
</mask>
<g mask="url(#mask2_3107_10760)">
<path d="M13.6309 239.006L76.1978 175.732" stroke="black" stroke-width="0.794118" stroke-linecap="round"/>
<path d="M19.9131 239.006L82.48 175.732" stroke="black" stroke-width="0.794118" stroke-linecap="round"/>
<path d="M26.1953 239.006L88.7622 175.732" stroke="black" stroke-width="0.794118" stroke-linecap="round"/>
<path d="M32.4775 239.006L95.0445 175.732" stroke="black" stroke-width="0.794118" stroke-linecap="round"/>
<path d="M38.7588 239.006L101.326 175.732" stroke="black" stroke-width="0.794118" stroke-linecap="round"/>
<path d="M45.041 239.006L107.608 175.732" stroke="black" stroke-width="0.794118" stroke-linecap="round"/>
<path d="M51.3232 239.006L113.89 175.732" stroke="black" stroke-width="0.794118" stroke-linecap="round"/>
<path d="M57.6055 239.006L120.172 175.732" stroke="black" stroke-width="0.794118" stroke-linecap="round"/>
<path d="M63.8867 239.006L126.454 175.732" stroke="black" stroke-width="0.794118" stroke-linecap="round"/>
<path d="M70.1689 239.006L132.736 175.732" stroke="black" stroke-width="0.794118" stroke-linecap="round"/>
<path d="M76.4512 239.006L139.018 175.732" stroke="black" stroke-width="0.794118" stroke-linecap="round"/>
<path d="M82.7334 239.006L145.3 175.732" stroke="black" stroke-width="0.794118" stroke-linecap="round"/>
<path d="M89.0156 239.006L151.583 175.732" stroke="black" stroke-width="0.794118" stroke-linecap="round"/>
<path d="M95.2979 239.006L157.865 175.732" stroke="black" stroke-width="0.794118" stroke-linecap="round"/>
<path d="M101.326 239.006L163.893 175.732" stroke="black" stroke-width="0.794118" stroke-linecap="round"/>
<path d="M107.608 239.006L170.175 175.732" stroke="black" stroke-width="0.794118" stroke-linecap="round"/>
<path d="M113.891 239.006L176.458 175.732" stroke="black" stroke-width="0.794118" stroke-linecap="round"/>
<path d="M120.172 239.006L182.739 175.732" stroke="black" stroke-width="0.794118" stroke-linecap="round"/>
<path d="M126.454 239.006L189.021 175.732" stroke="black" stroke-width="0.794118" stroke-linecap="round"/>
<path d="M132.736 239.006L195.303 175.732" stroke="black" stroke-width="0.794118" stroke-linecap="round"/>
<path d="M139.019 239.006L201.585 175.732" stroke="black" stroke-width="0.794118" stroke-linecap="round"/>
<path d="M145.301 239.006L207.868 175.732" stroke="black" stroke-width="0.794118" stroke-linecap="round"/>
</g>
<rect x="105.489" y="204.146" width="15.8824" height="15.8824" rx="7.94118" fill="black"/>
<path d="M111.628 209.219L113.345 211.991H113.397L115.115 209.219H116.064L113.97 212.55L116.064 215.881H115.115L113.397 213.162H113.345L111.628 215.881H110.678L112.825 212.55L110.678 209.219H111.628Z" fill="white"/>
<mask id="mask3_3107_10760" style="mask-type:alpha" maskUnits="userSpaceOnUse" x="54" y="301" width="23" height="25">
<rect x="54.2539" y="301.301" width="22.1965" height="24.4306" fill="#D9D9D9"/>
</mask>
<g mask="url(#mask3_3107_10760)">
<path d="M-5.80664 348.117L56.7603 284.844" stroke="black" stroke-width="0.794118" stroke-linecap="round"/>
<path d="M0.475586 348.117L63.0425 284.844" stroke="black" stroke-width="0.794118" stroke-linecap="round"/>
<path d="M6.75781 348.117L69.3247 284.844" stroke="black" stroke-width="0.794118" stroke-linecap="round"/>
<path d="M13.0391 348.117L75.606 284.844" stroke="black" stroke-width="0.794118" stroke-linecap="round"/>
<path d="M19.3213 348.117L81.8882 284.844" stroke="black" stroke-width="0.794118" stroke-linecap="round"/>
<path d="M25.6035 348.117L88.1704 284.844" stroke="black" stroke-width="0.794118" stroke-linecap="round"/>
<path d="M31.8857 348.117L94.4527 284.844" stroke="black" stroke-width="0.794118" stroke-linecap="round"/>
<path d="M38.168 348.117L100.735 284.844" stroke="black" stroke-width="0.794118" stroke-linecap="round"/>
<path d="M44.4492 348.117L107.016 284.844" stroke="black" stroke-width="0.794118" stroke-linecap="round"/>
<path d="M50.7314 348.117L113.298 284.844" stroke="black" stroke-width="0.794118" stroke-linecap="round"/>
<path d="M57.0137 348.117L119.581 284.844" stroke="black" stroke-width="0.794118" stroke-linecap="round"/>
<path d="M63.2959 348.117L125.863 284.844" stroke="black" stroke-width="0.794118" stroke-linecap="round"/>
<path d="M69.5781 348.117L132.145 284.844" stroke="black" stroke-width="0.794118" stroke-linecap="round"/>
<path d="M75.6064 348.117L138.173 284.844" stroke="black" stroke-width="0.794118" stroke-linecap="round"/>
</g>
<rect x="76.4121" y="300.734" width="319.984" height="244.333" fill="#BFBFBF"/>
<path d="M352.816 396.866C334.447 398.734 319.432 414.636 319.432 433.529C319.432 453.539 336.499 470.284 356.45 470.284C376.401 470.284 393.468 453.547 393.468 433.529C393.468 425.016 390.394 417.165 385.45 410.991L348.902 365.533H327.55L352.816 396.866ZM225.066 440.681L209.961 401.216H198.399L183.203 440.681L168.007 401.216H150.009L176.586 470.609H188.147L204.093 429.275L220.13 470.609H231.692L258.178 401.216H240.271L225.075 440.681H225.066ZM294.446 470.509H310.952V365.533H294.446V470.509ZM356.549 453.63C345.177 453.63 335.939 444.464 335.939 433.058C335.939 421.653 345.168 412.387 356.45 412.387C367.732 412.387 377.242 421.553 377.242 433.058C377.242 444.563 367.913 453.63 356.541 453.63H356.549ZM265.916 470.509H282.423V401.207H265.916V470.509ZM273.935 367.544C267.218 367.544 261.623 373.156 261.623 380.264C261.623 387.372 267.499 392.331 273.935 392.331C281.112 392.331 286.527 386.347 286.527 379.892C286.527 373.437 280.84 367.544 273.935 367.544Z" fill="white"/>
<path d="M174.164 313.595C174.164 306.487 179.76 300.875 186.476 300.875C193.382 300.875 199.068 306.768 199.068 313.223C199.068 319.678 193.654 325.662 186.476 325.662C180.04 325.662 174.164 320.703 174.164 313.595Z" fill="#FF00CC"/>
<path fill-rule="evenodd" clip-rule="evenodd" d="M113.182 473.141C133.754 473.141 150.43 456.465 150.43 435.893C150.43 415.321 133.754 398.645 113.182 398.645C92.6103 398.645 75.9336 415.321 75.9336 435.893C75.9336 456.465 92.6103 473.141 113.182 473.141ZM113.071 456.563C124.477 456.563 133.723 447.317 133.723 435.911C133.723 424.506 124.477 415.259 113.071 415.259C101.665 415.259 92.4193 424.506 92.4193 435.911C92.4193 447.317 101.665 456.563 113.071 456.563Z" fill="#FF00CC"/>
<path fill-rule="evenodd" clip-rule="evenodd" d="M187.248 400.497C207.82 400.497 224.497 383.82 224.497 363.248C224.497 342.677 207.82 326 187.248 326C166.677 326 150 342.677 150 363.248C150 383.82 166.677 400.497 187.248 400.497ZM187.138 383.919C198.543 383.919 207.79 374.673 207.79 363.267C207.79 351.861 198.543 342.615 187.138 342.615C175.732 342.615 166.486 351.861 166.486 363.267C166.486 374.673 175.732 383.919 187.138 383.919Z" fill="#FF00CC"/>
<path fill-rule="evenodd" clip-rule="evenodd" d="M187.438 545.604C208.01 545.604 224.686 528.928 224.686 508.356C224.686 487.784 208.01 471.107 187.438 471.107C166.866 471.107 150.189 487.784 150.189 508.356C150.189 528.928 166.866 545.604 187.438 545.604ZM187.327 529.026C198.733 529.026 207.979 519.78 207.979 508.374C207.979 496.969 198.733 487.723 187.327 487.723C175.921 487.723 166.675 496.969 166.675 508.374C166.675 519.78 175.921 529.026 187.327 529.026Z" fill="#FF00CC"/>
<path d="M150.004 301.082V581.481" stroke="black" stroke-width="1.07063" stroke-linecap="round" stroke-dasharray="2.14 2.14"/>
<path d="M54.4961 325.923L396.396 325.924" stroke="black" stroke-width="1.07063" stroke-linecap="round" stroke-dasharray="2.14 2.14"/>
<path d="M54.4961 301.095L396.396 301.096" stroke="black" stroke-width="1.07063" stroke-linecap="round" stroke-dasharray="2.14 2.14"/>
<path d="M54.4961 545.351L396.396 545.352" stroke="black" stroke-width="1.07063" stroke-linecap="round" stroke-dasharray="2.14 2.14"/>
<path d="M76.4141 301.06V581.478" stroke="black" stroke-width="1.07063" stroke-linecap="round" stroke-dasharray="2.14 2.14"/>
<rect x="56.5801" y="305.328" width="15.8824" height="15.8824" rx="7.94118" fill="black"/>
<path d="M61.2557 310.401H62.1795L64.027 313.51H64.1051L65.9527 310.401H66.8764L64.4694 314.317V317.062H63.6627V314.317L61.2557 310.401Z" fill="white"/>
<mask id="mask4_3107_10760" style="mask-type:alpha" maskUnits="userSpaceOnUse" x="76" y="545" width="75" height="37">
<rect x="76.4043" y="545.021" width="73.7242" height="36.5746" fill="#D9D9D9"/>
</mask>
<g mask="url(#mask4_3107_10760)">
<path d="M13.6309 591.838L76.1978 528.564" stroke="black" stroke-width="0.794118" stroke-linecap="round"/>
<path d="M19.9131 591.838L82.48 528.564" stroke="black" stroke-width="0.794118" stroke-linecap="round"/>
<path d="M26.1953 591.838L88.7622 528.564" stroke="black" stroke-width="0.794118" stroke-linecap="round"/>
<path d="M32.4775 591.838L95.0445 528.564" stroke="black" stroke-width="0.794118" stroke-linecap="round"/>
<path d="M38.7588 591.838L101.326 528.564" stroke="black" stroke-width="0.794118" stroke-linecap="round"/>
<path d="M45.041 591.838L107.608 528.564" stroke="black" stroke-width="0.794118" stroke-linecap="round"/>
<path d="M51.3232 591.838L113.89 528.564" stroke="black" stroke-width="0.794118" stroke-linecap="round"/>
<path d="M57.6055 591.838L120.172 528.564" stroke="black" stroke-width="0.794118" stroke-linecap="round"/>
<path d="M63.8867 591.838L126.454 528.564" stroke="black" stroke-width="0.794118" stroke-linecap="round"/>
<path d="M70.1689 591.838L132.736 528.564" stroke="black" stroke-width="0.794118" stroke-linecap="round"/>
<path d="M76.4512 591.838L139.018 528.564" stroke="black" stroke-width="0.794118" stroke-linecap="round"/>
<path d="M82.7334 591.838L145.3 528.564" stroke="black" stroke-width="0.794118" stroke-linecap="round"/>
<path d="M89.0156 591.838L151.583 528.564" stroke="black" stroke-width="0.794118" stroke-linecap="round"/>
<path d="M95.2979 591.838L157.865 528.564" stroke="black" stroke-width="0.794118" stroke-linecap="round"/>
<path d="M101.326 591.838L163.893 528.564" stroke="black" stroke-width="0.794118" stroke-linecap="round"/>
<path d="M107.608 591.838L170.175 528.564" stroke="black" stroke-width="0.794118" stroke-linecap="round"/>
<path d="M113.891 591.838L176.458 528.564" stroke="black" stroke-width="0.794118" stroke-linecap="round"/>
<path d="M120.172 591.838L182.739 528.564" stroke="black" stroke-width="0.794118" stroke-linecap="round"/>
<path d="M126.454 591.838L189.021 528.564" stroke="black" stroke-width="0.794118" stroke-linecap="round"/>
<path d="M132.736 591.838L195.303 528.564" stroke="black" stroke-width="0.794118" stroke-linecap="round"/>
<path d="M139.019 591.838L201.585 528.564" stroke="black" stroke-width="0.794118" stroke-linecap="round"/>
<path d="M145.301 591.838L207.868 528.564" stroke="black" stroke-width="0.794118" stroke-linecap="round"/>
</g>
<mask id="mask5_3107_10760" style="mask-type:alpha" maskUnits="userSpaceOnUse" x="54" y="325" width="23" height="77">
<rect x="54.2227" y="325.465" width="22.3737" height="75.9294" fill="#D9D9D9"/>
</mask>
<g mask="url(#mask5_3107_10760)">
<path d="M-2.56543 402.004L60.0015 338.73" stroke="black" stroke-width="0.794118" stroke-linecap="round"/>
<path d="M3.7168 402.004L66.2837 338.73" stroke="black" stroke-width="0.794118" stroke-linecap="round"/>
<path d="M9.99902 402.004L72.5659 338.73" stroke="black" stroke-width="0.794118" stroke-linecap="round"/>
<path d="M16.2812 402.004L78.8482 338.73" stroke="black" stroke-width="0.794118" stroke-linecap="round"/>
<path d="M22.5625 402.004L85.1294 338.73" stroke="black" stroke-width="0.794118" stroke-linecap="round"/>
<path d="M28.8447 402.004L91.4116 338.73" stroke="black" stroke-width="0.794118" stroke-linecap="round"/>
<path d="M35.127 402.004L97.6939 338.73" stroke="black" stroke-width="0.794118" stroke-linecap="round"/>
<path d="M41.4092 402.004L103.976 338.73" stroke="black" stroke-width="0.794118" stroke-linecap="round"/>
<path d="M47.6904 402.004L110.257 338.73" stroke="black" stroke-width="0.794118" stroke-linecap="round"/>
<path d="M53.9736 402.004L116.541 338.73" stroke="black" stroke-width="0.794118" stroke-linecap="round"/>
<path d="M60.2549 402.004L122.822 338.73" stroke="black" stroke-width="0.794118" stroke-linecap="round"/>
<path d="M66.5371 402.004L129.104 338.73" stroke="black" stroke-width="0.794118" stroke-linecap="round"/>
<path d="M72.8193 402.004L135.386 338.73" stroke="black" stroke-width="0.794118" stroke-linecap="round"/>
<path d="M-2.56543 351.179L60.0015 287.906" stroke="black" stroke-width="0.794118" stroke-linecap="round"/>
<path d="M3.7168 351.179L66.2837 287.906" stroke="black" stroke-width="0.794118" stroke-linecap="round"/>
<path d="M9.99902 351.179L72.5659 287.906" stroke="black" stroke-width="0.794118" stroke-linecap="round"/>
<path d="M16.2812 351.179L78.8482 287.906" stroke="black" stroke-width="0.794118" stroke-linecap="round"/>
<path d="M22.5625 351.179L85.1294 287.906" stroke="black" stroke-width="0.794118" stroke-linecap="round"/>
<path d="M28.8447 351.179L91.4116 287.906" stroke="black" stroke-width="0.794118" stroke-linecap="round"/>
<path d="M35.127 351.179L97.6939 287.906" stroke="black" stroke-width="0.794118" stroke-linecap="round"/>
<path d="M41.4092 351.179L103.976 287.906" stroke="black" stroke-width="0.794118" stroke-linecap="round"/>
<path d="M47.6904 351.179L110.257 287.906" stroke="black" stroke-width="0.794118" stroke-linecap="round"/>
<path d="M53.9736 351.179L116.541 287.906" stroke="black" stroke-width="0.794118" stroke-linecap="round"/>
<path d="M60.2549 351.179L122.822 287.906" stroke="black" stroke-width="0.794118" stroke-linecap="round"/>
<path d="M66.5371 351.179L129.104 287.906" stroke="black" stroke-width="0.794118" stroke-linecap="round"/>
<path d="M72.8193 351.179L135.386 287.906" stroke="black" stroke-width="0.794118" stroke-linecap="round"/>
</g>
<mask id="mask6_3107_10760" style="mask-type:alpha" maskUnits="userSpaceOnUse" x="54" y="470" width="23" height="76">
<rect x="54.2227" y="470.371" width="22.3737" height="74.8698" fill="#D9D9D9"/>
</mask>
<g mask="url(#mask6_3107_10760)">
<path d="M-2.56543 545.841L60.0015 483.451" stroke="black" stroke-width="0.794118" stroke-linecap="round"/>
<path d="M3.7168 545.841L66.2837 483.451" stroke="black" stroke-width="0.794118" stroke-linecap="round"/>
<path d="M9.99902 545.841L72.5659 483.451" stroke="black" stroke-width="0.794118" stroke-linecap="round"/>
<path d="M16.2812 545.841L78.8482 483.451" stroke="black" stroke-width="0.794118" stroke-linecap="round"/>
<path d="M22.5625 545.841L85.1294 483.451" stroke="black" stroke-width="0.794118" stroke-linecap="round"/>
<path d="M28.8447 545.841L91.4116 483.451" stroke="black" stroke-width="0.794118" stroke-linecap="round"/>
<path d="M35.127 545.841L97.6939 483.451" stroke="black" stroke-width="0.794118" stroke-linecap="round"/>
<path d="M41.4092 545.841L103.976 483.451" stroke="black" stroke-width="0.794118" stroke-linecap="round"/>
<path d="M47.6904 545.841L110.257 483.451" stroke="black" stroke-width="0.794118" stroke-linecap="round"/>
<path d="M53.9736 545.841L116.541 483.451" stroke="black" stroke-width="0.794118" stroke-linecap="round"/>
<path d="M60.2549 545.841L122.822 483.451" stroke="black" stroke-width="0.794118" stroke-linecap="round"/>
<path d="M66.5371 545.841L129.104 483.451" stroke="black" stroke-width="0.794118" stroke-linecap="round"/>
<path d="M72.8193 545.841L135.386 483.451" stroke="black" stroke-width="0.794118" stroke-linecap="round"/>
<path d="M-2.56543 495.726L60.0015 433.336" stroke="black" stroke-width="0.794118" stroke-linecap="round"/>
<path d="M3.7168 495.726L66.2837 433.336" stroke="black" stroke-width="0.794118" stroke-linecap="round"/>
<path d="M9.99902 495.726L72.5659 433.336" stroke="black" stroke-width="0.794118" stroke-linecap="round"/>
<path d="M16.2812 495.726L78.8482 433.336" stroke="black" stroke-width="0.794118" stroke-linecap="round"/>
<path d="M22.5625 495.726L85.1294 433.336" stroke="black" stroke-width="0.794118" stroke-linecap="round"/>
<path d="M28.8447 495.726L91.4116 433.336" stroke="black" stroke-width="0.794118" stroke-linecap="round"/>
<path d="M35.127 495.726L97.6939 433.336" stroke="black" stroke-width="0.794118" stroke-linecap="round"/>
<path d="M41.4092 495.726L103.976 433.336" stroke="black" stroke-width="0.794118" stroke-linecap="round"/>
<path d="M47.6904 495.726L110.257 433.336" stroke="black" stroke-width="0.794118" stroke-linecap="round"/>
<path d="M53.9736 495.726L116.541 433.336" stroke="black" stroke-width="0.794118" stroke-linecap="round"/>
<path d="M60.2549 495.726L122.822 433.336" stroke="black" stroke-width="0.794118" stroke-linecap="round"/>
<path d="M66.5371 495.726L129.104 433.336" stroke="black" stroke-width="0.794118" stroke-linecap="round"/>
<path d="M72.8193 495.726L135.386 433.336" stroke="black" stroke-width="0.794118" stroke-linecap="round"/>
</g>
<rect x="105.49" y="556.117" width="15.8824" height="15.8824" rx="7.94118" fill="black"/>
<path d="M111.629 561.19L113.346 563.961H113.398L115.116 561.19H116.065L113.971 564.521L116.065 567.852H115.116L113.398 565.132H113.346L111.629 567.852H110.679L112.826 564.521L110.679 561.19H111.629Z" fill="white"/>
<rect x="56.5801" y="355.715" width="15.8824" height="15.8824" rx="7.94118" fill="black"/>
<path d="M62.7185 360.788L64.436 363.559H64.488L66.2055 360.788H67.1553L65.0605 364.118L67.1553 367.449H66.2055L64.488 364.73H64.436L62.7185 367.449H61.7687L63.9155 364.118L61.7687 360.788H62.7185Z" fill="white"/>
<rect x="56.5801" y="500.199" width="15.8824" height="15.6607" rx="7.83036" fill="black"/>
<path d="M62.7185 505.163L64.436 507.934H64.488L66.2055 505.163H67.1553L65.0605 508.493L67.1553 511.824H66.2055L64.488 509.105H64.436L62.7185 511.824H61.7687L63.9155 508.493L61.7687 505.163H62.7185Z" fill="white"/>
<rect x="468.707" y="300.734" width="834.939" height="244.333" fill="#FF00CC"/>
<path d="M1191.41 418.212C1191.41 413.929 1197.45 410.477 1205.31 410.477C1213.18 410.477 1221.9 414.299 1227.55 420.453L1237.81 408.244C1228.03 399.858 1218.16 395.475 1205.8 395.475C1190.36 395.475 1174.45 402.371 1174.45 418.221C1174.45 437.704 1191.71 439.104 1205.8 440.216C1213.66 440.776 1220.66 441.337 1220.66 446.37C1220.66 451.774 1212.7 454.295 1205.7 454.295C1197.56 454.295 1188.74 450.942 1182.32 443.388L1171.39 454.666C1180.11 465.013 1192.76 469.577 1205.13 469.577C1220.66 469.577 1237.62 462.401 1237.62 445.991C1237.62 427.439 1220.18 425.668 1206.76 424.366C1198.33 423.526 1191.43 422.785 1191.43 418.212H1191.41ZM1113.49 422.776C1116.27 415.972 1122.31 411.96 1131.22 411.96C1140.13 411.96 1145.5 416.153 1147.8 422.776H1113.49ZM1131.99 395.467C1110.8 395.467 1093.74 411.498 1093.74 432.662C1093.74 452.516 1108.79 469.667 1131.03 469.667C1144.45 469.667 1155.28 463.423 1162.95 452.705L1151.26 443.108C1147.14 449.262 1139.66 452.895 1130.75 452.895C1121.84 452.895 1112.25 446.279 1111.49 436.583H1166.8V430.8C1166.8 410.386 1152.51 395.475 1132.01 395.475L1131.99 395.467ZM1068.24 469.9H1085.21V400.824H1068.24V469.9ZM1076.67 367.271C1069.77 367.271 1063.92 372.864 1063.92 379.858C1063.92 386.853 1069.58 391.886 1076.96 391.886C1084.34 391.886 1089.42 386.943 1089.42 380.139C1089.42 373.334 1083.67 367.279 1076.67 367.279V367.271ZM831.106 395.377C823.152 395.377 815.96 397.708 809.827 401.712V365.176H792.859V432.571C792.859 453.076 810.013 469.577 831.004 469.577C851.996 469.577 869.344 453.175 869.344 432.382C869.344 411.589 852.377 395.377 831.098 395.377H831.106ZM743.016 396.497C724.134 398.359 708.699 414.209 708.699 433.041C708.699 452.985 726.243 469.676 746.751 469.676C767.26 469.676 784.803 452.994 784.803 433.041C784.803 424.556 781.644 416.73 776.561 410.576L738.992 365.266H717.043L743.016 396.497ZM611.697 440.169L596.17 400.833H584.285L568.664 440.169L553.044 400.833H534.543L561.862 469.999H573.747L590.138 428.801L606.623 469.999H618.508L645.734 400.833H627.326L611.706 440.169H611.697ZM915.351 395.467C894.165 395.467 877.011 411.498 877.011 431.731C877.011 451.964 892.055 469.667 914.393 469.667C927.812 469.667 938.646 463.423 946.312 452.705L933.089 442.268C929.252 448.982 921.873 452.895 914.495 452.895C904.906 452.895 895.52 446.279 894.749 436.583H950.243V431.55C950.243 410.386 935.868 395.475 915.351 395.475V395.467ZM976.02 416.584V400.833H959.053V469.909H976.02V440.729C976.02 426.544 991.641 417.894 1007.08 417.894V400.833H1005.35C992.31 400.833 982.823 405.495 976.02 416.584ZM1029.89 416.584V400.833H1012.92V469.909H1029.89V440.729C1029.89 426.544 1045.51 417.894 1060.94 417.894V400.833H1059.21C1046.18 400.833 1036.69 405.495 1029.89 416.584ZM683.015 469.9H699.983V365.266H683.015V469.9ZM746.853 453.076C735.163 453.076 725.667 443.94 725.667 432.571C725.667 421.203 735.154 411.968 746.751 411.968C758.348 411.968 768.124 421.104 768.124 432.571C768.124 444.039 758.535 453.076 746.844 453.076H746.853ZM831.013 453.076C819.509 453.076 809.827 444.129 809.827 432.473C809.827 420.816 818.933 411.968 831.106 411.968C843.279 411.968 852.385 421.195 852.385 432.473C852.385 443.75 842.703 453.076 831.013 453.076ZM653.688 469.9H670.656V400.824H653.688V469.9ZM661.931 367.271C655.027 367.271 649.275 372.864 649.275 379.949C649.275 387.034 655.315 391.977 661.931 391.977C669.309 391.977 674.874 386.012 674.874 379.578C674.874 373.144 669.029 367.271 661.931 367.271ZM896.765 422.776C899.637 415.972 905.584 411.96 914.402 411.96C923.22 411.96 928.972 416.153 931.268 422.776H896.765Z" fill="white"/>
<path d="M54 401L1362 401" stroke="black" stroke-width="1.07063" stroke-linecap="round" stroke-dasharray="2.14 2.14"/>
<path d="M54 471L1362 471" stroke="black" stroke-width="1.07063" stroke-linecap="round" stroke-dasharray="2.14 2.14"/>
</svg>
